<svg width="16" height="5" viewBox="0 0 16 5" fill="none" xmlns="http://www.w3.org/2000/svg">
<path d="M2 4.97656C1.45 4.97656 0.979167 4.78073 0.5875 4.38906C0.195833 3.9974 0 3.52656 0 2.97656C0 2.42656 0.195833 1.95573 0.5875 1.56406C0.979167 1.1724 1.45 0.976562 2 0.976562C2.55 0.976562 3.02083 1.1724 3.4125 1.56406C3.80417 1.95573 4 2.42656 4 2.97656C4 3.52656 3.80417 3.9974 3.4125 4.38906C3.02083 4.78073 2.55 4.97656 2 4.97656ZM8 4.97656C7.45 4.97656 6.97917 4.78073 6.5875 4.38906C6.19583 3.9974 6 3.52656 6 2.97656C6 2.42656 6.19583 1.95573 6.5875 1.56406C6.97917 1.1724 7.45 0.976562 8 0.976562C8.55 0.976562 9.02083 1.1724 9.4125 1.56406C9.80417 1.95573 10 2.42656 10 2.97656C10 3.52656 9.80417 3.9974 9.4125 4.38906C9.02083 4.78073 8.55 4.97656 8 4.97656ZM14 4.97656C13.45 4.97656 12.9792 4.78073 12.5875 4.38906C12.1958 3.9974 12 3.52656 12 2.97656C12 2.42656 12.1958 1.95573 12.5875 1.56406C12.9792 1.1724 13.45 0.976562 14 0.976562C14.55 0.976562 15.0208 1.1724 15.4125 1.56406C15.8042 1.95573 16 2.42656 16 2.97656C16 3.52656 15.8042 3.9974 15.4125 4.38906C15.0208 4.78073 14.55 4.97656 14 4.97656Z" fill="#70777E"/>
</svg>

