<svg width="49" height="49" viewBox="0 0 49 49" fill="none" xmlns="http://www.w3.org/2000/svg">
<path fill-rule="evenodd" clip-rule="evenodd" d="M10.5 10.6973C8.9087 10.6973 7.38258 11.3294 6.25736 12.4546C5.13214 13.5798 4.5 15.106 4.5 16.6973V32.6973C4.5 34.2886 5.13214 35.8147 6.25736 36.9399C7.38258 38.0651 8.9087 38.6973 10.5 38.6973H30.5C32.0913 38.6973 33.6174 38.0651 34.7426 36.9399C35.8679 35.8147 36.5 34.2886 36.5 32.6973V29.5253L41.086 34.1113C41.3657 34.3909 41.722 34.5813 42.1099 34.6584C42.4978 34.7356 42.8999 34.696 43.2653 34.5446C43.6307 34.3933 43.943 34.137 44.1628 33.8082C44.3826 33.4794 44.4999 33.0928 44.5 32.6973V16.6973C44.4999 16.3018 44.3826 15.9152 44.1628 15.5863C43.943 15.2575 43.6307 15.0012 43.2653 14.8499C42.8999 14.6986 42.4978 14.659 42.1099 14.7361C41.722 14.8132 41.3657 15.0036 41.086 15.2833L36.5 19.8693V16.6973C36.5 15.106 35.8679 13.5798 34.7426 12.4546C33.6174 11.3294 32.0913 10.6973 30.5 10.6973H10.5Z" fill="black"/>
</svg>
