<svg xmlns="http://www.w3.org/2000/svg" width="42" height="30" viewBox="0 0 42 30" fill="none">
  <g clip-path="url(#clip0_14242_7052)">
    <path d="M39.8726 5.48162C39.4116 3.74218 38.0817 2.38008 36.3769 1.91485C34.0869 1.01282 11.9067 0.570853 5.47257 1.9407C3.76777 2.4111 2.4328 3.76802 1.97684 5.50747C0.943316 10.1339 0.864789 20.1364 2.00217 24.8662C2.4632 26.6057 3.7931 27.9678 5.4979 28.433C10.0322 29.4979 31.5892 29.6478 36.4022 28.433C38.107 27.9626 39.442 26.6057 39.8979 24.8662C40.9999 19.8262 41.0784 10.4441 39.8726 5.48162Z" fill="#FF0000"/>
    <path d="M27.4602 15.1739L17.125 9.12593V21.2219L27.4602 15.1739Z" fill="white"/>
    <path d="M27.46 15.174L17.1248 9.12599V21.222L27.46 15.174Z" fill="white"/>
  </g>
  <defs>
    <clipPath id="clip0_14242_7052">
      <rect width="40.2769" height="28.4308" fill="white" transform="translate(0.862305 0.958618)"/>
    </clipPath>
  </defs>
</svg>