<svg width="37" height="21" viewBox="0 0 37 21" fill="none" xmlns="http://www.w3.org/2000/svg">
<rect width="37" height="21" rx="4" fill="#359C96"/>
<path d="M5.17 13.5L7.68 6.46H9.06L11.57 13.5H10.07L9.55 11.98H7.14L6.63 13.5H5.17ZM7.58 10.7H9.11L8.35 8.42L7.58 10.7ZM12.4883 13.5V6.5H13.9383V13.5H12.4883Z" fill="#F2F3F7"/>
<path fill-rule="evenodd" clip-rule="evenodd" d="M25.5 15.7C28.3719 15.7 30.7 13.3719 30.7 10.5C30.7 7.62812 28.3719 5.3 25.5 5.3C22.6281 5.3 20.3 7.62812 20.3 10.5C20.3 13.3719 22.6281 15.7 25.5 15.7ZM25.5 17C29.0899 17 32 14.0899 32 10.5C32 6.91015 29.0899 4 25.5 4C21.9101 4 19 6.91015 19 10.5C19 14.0899 21.9101 17 25.5 17Z" fill="white"/>
<path d="M24.8032 8.55H26.1502L26.1698 7.25H24.8229L24.8032 8.55ZM24.8514 13.75H26.1437L26.1422 9.85H24.8499L24.8514 13.75Z" fill="white"/>
</svg>
