<svg width="881" height="572" viewBox="0 0 881 572" fill="none" xmlns="http://www.w3.org/2000/svg">
<g clip-path="url(#clip0_13632_53392)">
<path d="M36.2901 453.312H880.228" stroke="#CFD4DA" stroke-width="0.68755"/>
<path d="M36.2901 390.789H880.228" stroke="#CFD4DA" stroke-width="0.68755"/>
<path d="M36.2901 328.796H880.228" stroke="#CFD4DA" stroke-width="0.68755"/>
<path d="M36.2901 266.272H880.228" stroke="#CFD4DA" stroke-width="0.68755"/>
<path d="M36.2901 204.279H880.228" stroke="#CFD4DA" stroke-width="0.68755"/>
<path d="M36.2901 142.286H880.228" stroke="#CFD4DA" stroke-width="0.68755"/>
<path d="M36.2901 79.7623H880.228" stroke="#CFD4DA" stroke-width="0.68755"/>
<path d="M36.2901 17.769H880.228" stroke="#CFD4DA" stroke-width="0.68755"/>
<path d="M36.2901 453.312H880.228" stroke="#6E7079" stroke-width="0.68755" stroke-linecap="round"/>
<path d="M36.676 453.048V455.697" stroke="#6E7079" stroke-width="0.68755"/>
<path d="M74.5104 453.048V455.697" stroke="#6E7079" stroke-width="0.68755"/>
<path d="M113.117 453.048V455.697" stroke="#6E7079" stroke-width="0.68755"/>
<path d="M151.724 453.048V455.697" stroke="#6E7079" stroke-width="0.68755"/>
<path d="M189.558 453.048V455.697" stroke="#6E7079" stroke-width="0.68755"/>
<path d="M228.164 453.048V455.697" stroke="#6E7079" stroke-width="0.68755"/>
<path d="M266.771 453.048V455.697" stroke="#6E7079" stroke-width="0.68755"/>
<path d="M305.377 453.048V455.697" stroke="#6E7079" stroke-width="0.68755"/>
<path d="M343.212 453.048V455.697" stroke="#6E7079" stroke-width="0.68755"/>
<path d="M381.818 453.048V455.697" stroke="#6E7079" stroke-width="0.68755"/>
<path d="M420.425 453.048V455.697" stroke="#6E7079" stroke-width="0.68755"/>
<path d="M458.259 453.048V455.697" stroke="#6E7079" stroke-width="0.68755"/>
<path d="M496.865 453.048V455.697" stroke="#6E7079" stroke-width="0.68755"/>
<path d="M535.472 453.048V455.697" stroke="#6E7079" stroke-width="0.68755"/>
<path d="M573.306 453.048V455.697" stroke="#6E7079" stroke-width="0.68755"/>
<path d="M611.913 453.048V455.697" stroke="#6E7079" stroke-width="0.68755"/>
<path d="M650.519 453.048V455.697" stroke="#6E7079" stroke-width="0.68755"/>
<path d="M688.354 453.048V455.697" stroke="#6E7079" stroke-width="0.68755"/>
<path d="M726.96 453.048V455.697" stroke="#6E7079" stroke-width="0.68755"/>
<path d="M765.567 453.048V455.697" stroke="#6E7079" stroke-width="0.68755"/>
<path d="M803.401 453.048V455.697" stroke="#6E7079" stroke-width="0.68755"/>
<path d="M842.008 453.048V455.697" stroke="#6E7079" stroke-width="0.68755"/>
<path d="M880.614 453.048V455.697" stroke="#6E7079" stroke-width="0.68755"/>
<path d="M27.0281 456.377C25.6374 456.377 24.7726 455.076 24.7726 453.203V453.132C24.7726 451.26 25.6552 449.941 27.037 449.941C28.4188 449.941 29.2924 451.242 29.2924 453.114V453.186C29.2924 455.058 28.4098 456.377 27.0281 456.377ZM27.037 455.771C27.9909 455.771 28.606 454.701 28.606 453.203V453.132C28.606 451.634 27.973 450.547 27.0281 450.547C26.0742 450.547 25.4591 451.617 25.4591 453.114V453.186C25.4591 454.683 26.0831 455.771 27.037 455.771Z" fill="#6E7079"/>
<path d="M27.0998 395.443C25.7092 395.443 24.8444 394.142 24.8444 392.27V392.198C24.8444 390.326 25.727 389.007 27.1088 389.007C28.4905 389.007 29.3642 390.308 29.3642 392.18V392.252C29.3642 394.124 28.4816 395.443 27.0998 395.443ZM27.1088 394.837C28.0626 394.837 28.6777 393.767 28.6777 392.27V392.198C28.6777 390.701 28.0448 389.613 27.0998 389.613C26.146 389.613 25.5309 390.683 25.5309 392.18V392.252C25.5309 393.749 26.1549 394.837 27.1088 394.837Z" fill="#6E7079"/>
<path d="M27.2863 333.45C25.8956 333.45 25.0308 332.148 25.0308 330.276V330.205C25.0308 328.333 25.9134 327.013 27.2952 327.013C28.677 327.013 29.5506 328.315 29.5506 330.187V330.258C29.5506 332.13 28.668 333.45 27.2863 333.45ZM27.2952 332.843C28.2491 332.843 28.8642 331.774 28.8642 330.276V330.205C28.8642 328.707 28.2312 327.619 27.2863 327.619C26.3324 327.619 25.7173 328.689 25.7173 330.187V330.258C25.7173 331.756 26.3413 332.843 27.2952 332.843Z" fill="#6E7079"/>
<path d="M27.2863 270.926C25.8956 270.926 25.0308 269.625 25.0308 267.753V267.681C25.0308 265.809 25.9134 264.49 27.2952 264.49C28.677 264.49 29.5506 265.792 29.5506 267.664V267.735C29.5506 269.607 28.668 270.926 27.2863 270.926ZM27.2952 270.32C28.2491 270.32 28.8642 269.25 28.8642 267.753V267.681C28.8642 266.184 28.2312 265.096 27.2863 265.096C26.3324 265.096 25.7173 266.166 25.7173 267.664V267.735C25.7173 269.233 26.3413 270.32 27.2952 270.32Z" fill="#6E7079"/>
<path d="M27.2863 208.933C25.8956 208.933 25.0308 207.631 25.0308 205.759V205.688C25.0308 203.816 25.9134 202.497 27.2952 202.497C28.677 202.497 29.5506 203.798 29.5506 205.67V205.742C29.5506 207.614 28.668 208.933 27.2863 208.933ZM27.2952 208.327C28.2491 208.327 28.8642 207.257 28.8642 205.759V205.688C28.8642 204.19 28.2312 203.103 27.2863 203.103C26.3324 203.103 25.7173 204.173 25.7173 205.67V205.742C25.7173 207.239 26.3413 208.327 27.2952 208.327Z" fill="#6E7079"/>
<path d="M27.2863 146.939C25.8956 146.939 25.0308 145.638 25.0308 143.766V143.695C25.0308 141.822 25.9134 140.503 27.2952 140.503C28.677 140.503 29.5506 141.805 29.5506 143.677V143.748C29.5506 145.62 28.668 146.939 27.2863 146.939ZM27.2952 146.333C28.2491 146.333 28.8642 145.264 28.8642 143.766V143.695C28.8642 142.197 28.2312 141.109 27.2863 141.109C26.3324 141.109 25.7173 142.179 25.7173 143.677V143.748C25.7173 145.246 26.3413 146.333 27.2952 146.333Z" fill="#6E7079"/>
<path d="M27.2863 84.4164C25.8956 84.4164 25.0308 83.1149 25.0308 81.2428V81.1715C25.0308 79.2994 25.9134 77.98 27.2952 77.98C28.677 77.98 29.5506 79.2815 29.5506 81.1536V81.225C29.5506 83.097 28.668 84.4164 27.2863 84.4164ZM27.2952 83.8102C28.2491 83.8102 28.8642 82.7405 28.8642 81.2428V81.1715C28.8642 79.6738 28.2312 78.5862 27.2863 78.5862C26.3324 78.5862 25.7173 79.656 25.7173 81.1536V81.225C25.7173 82.7226 26.3413 83.8102 27.2952 83.8102Z" fill="#6E7079"/>
<path d="M27.2241 21.3632C25.8334 21.3632 24.9687 20.0617 24.9687 18.1896V18.1182C24.9687 16.2462 25.8513 14.9268 27.233 14.9268C28.6148 14.9268 29.4885 16.2283 29.4885 18.1004V18.1717C29.4885 20.0438 28.6059 21.3632 27.2241 21.3632ZM27.233 20.757C28.1869 20.757 28.802 19.6872 28.802 18.1896V18.1182C28.802 16.6206 28.1691 15.533 27.2241 15.533C26.2703 15.533 25.6551 16.6027 25.6551 18.1004V18.1717C25.6551 19.6694 26.2792 20.757 27.233 20.757Z" fill="#6E7079"/>
</g>
<path d="M36.2901 507.444H880.228" stroke="#CFD4DA" stroke-width="0.68755"/>
<path d="M36.2901 555.444H880.228" stroke="#CFD4DA" stroke-width="0.68755"/>
<path d="M27.0998 512.098C25.7092 512.098 24.8444 510.797 24.8444 508.924V508.853C24.8444 506.981 25.727 505.662 27.1088 505.662C28.4905 505.662 29.3642 506.963 29.3642 508.835V508.907C29.3642 510.779 28.4816 512.098 27.0998 512.098ZM27.1088 511.492C28.0626 511.492 28.6777 510.422 28.6777 508.924V508.853C28.6777 507.355 28.0448 506.268 27.0998 506.268C26.146 506.268 25.5309 507.338 25.5309 508.835V508.907C25.5309 510.404 26.1549 511.492 27.1088 511.492Z" fill="#6E7079"/>
<path d="M27.0998 560.098C25.7092 560.098 24.8444 558.797 24.8444 556.924V556.853C24.8444 554.981 25.727 553.662 27.1088 553.662C28.4905 553.662 29.3642 554.963 29.3642 556.835V556.907C29.3642 558.779 28.4816 560.098 27.0998 560.098ZM27.1088 559.492C28.0626 559.492 28.6777 558.422 28.6777 556.924V556.853C28.6777 555.355 28.0448 554.268 27.0998 554.268C26.146 554.268 25.5309 555.338 25.5309 556.835V556.907C25.5309 558.404 26.1549 559.492 27.1088 559.492Z" fill="#6E7079"/>
<defs>
<clipPath id="clip0_13632_53392">
<rect width="881" height="463.115" fill="white"/>
</clipPath>
</defs>
</svg>
