<svg width="914" height="475" viewBox="0 0 914 475" fill="none" xmlns="http://www.w3.org/2000/svg">
<g clip-path="url(#clip0_24320_61496)">
<path d="M75 1.20898H919" stroke="#E0E6F1"/>
<path d="M75 44.709H919" stroke="#E0E6F1"/>
<path d="M75 88.209H919" stroke="#E0E6F1"/>
<path d="M75 131.709H919" stroke="#E0E6F1"/>
<path d="M75 175.209H919" stroke="#E0E6F1"/>
<path d="M75 218.709H919" stroke="#E0E6F1"/>
<path d="M75 262.209H919" stroke="#E0E6F1"/>
<path d="M75 305.709H919" stroke="#E0E6F1"/>
<path d="M75 349.209H919" stroke="#E0E6F1"/>
<path d="M75 392.709H919" stroke="#6E7079" stroke-linecap="round"/>
<path d="M75 436.209H919" stroke="#E0E6F1"/>
<path d="M85.8126 451.209V450.513L88.5246 447.489C89.5326 446.409 89.9166 445.797 89.9166 445.017C89.9166 444.093 89.2446 443.517 88.4046 443.517C87.6366 443.517 87.0846 443.925 86.5206 444.717L85.8966 444.189C86.5206 443.253 87.2886 442.689 88.4886 442.689C89.8566 442.689 90.8526 443.613 90.8526 444.933V444.969C90.8526 446.049 90.3366 446.757 89.1606 447.993L87.0606 450.369H90.9126V451.209H85.8126ZM95.227 451.341C93.355 451.341 92.191 449.589 92.191 447.069V446.973C92.191 444.453 93.379 442.677 95.239 442.677C97.099 442.677 98.275 444.429 98.275 446.949V447.045C98.275 449.565 97.087 451.341 95.227 451.341ZM95.239 450.525C96.523 450.525 97.351 449.085 97.351 447.069V446.973C97.351 444.957 96.499 443.493 95.227 443.493C93.943 443.493 93.115 444.933 93.115 446.949V447.045C93.115 449.061 93.955 450.525 95.239 450.525ZM102.61 451.341C100.738 451.341 99.5738 449.589 99.5738 447.069V446.973C99.5738 444.453 100.762 442.677 102.622 442.677C104.482 442.677 105.658 444.429 105.658 446.949V447.045C105.658 449.565 104.47 451.341 102.61 451.341ZM102.622 450.525C103.906 450.525 104.734 449.085 104.734 447.069V446.973C104.734 444.957 103.882 443.493 102.61 443.493C101.326 443.493 100.498 444.933 100.498 446.949V447.045C100.498 449.061 101.338 450.525 102.622 450.525ZM109.993 451.341C108.121 451.341 106.957 449.589 106.957 447.069V446.973C106.957 444.453 108.145 442.677 110.005 442.677C111.865 442.677 113.041 444.429 113.041 446.949V447.045C113.041 449.565 111.853 451.341 109.993 451.341ZM110.005 450.525C111.289 450.525 112.117 449.085 112.117 447.069V446.973C112.117 444.957 111.265 443.493 109.993 443.493C108.709 443.493 107.881 444.933 107.881 446.949V447.045C107.881 449.061 108.721 450.525 110.005 450.525Z" fill="#6E7079"/>
<path d="M121.849 451.209V450.513L124.561 447.489C125.569 446.409 125.953 445.797 125.953 445.017C125.953 444.093 125.281 443.517 124.441 443.517C123.673 443.517 123.121 443.925 122.557 444.717L121.933 444.189C122.557 443.253 123.325 442.689 124.525 442.689C125.893 442.689 126.889 443.613 126.889 444.933V444.969C126.889 446.049 126.373 446.757 125.197 447.993L123.097 450.369H126.949V451.209H121.849ZM131.263 451.341C129.391 451.341 128.227 449.589 128.227 447.069V446.973C128.227 444.453 129.415 442.677 131.275 442.677C133.135 442.677 134.311 444.429 134.311 446.949V447.045C134.311 449.565 133.123 451.341 131.263 451.341ZM131.275 450.525C132.559 450.525 133.387 449.085 133.387 447.069V446.973C133.387 444.957 132.535 443.493 131.263 443.493C129.979 443.493 129.151 444.933 129.151 446.949V447.045C129.151 449.061 129.991 450.525 131.275 450.525ZM138.646 451.341C136.774 451.341 135.61 449.589 135.61 447.069V446.973C135.61 444.453 136.798 442.677 138.658 442.677C140.518 442.677 141.694 444.429 141.694 446.949V447.045C141.694 449.565 140.506 451.341 138.646 451.341ZM138.658 450.525C139.942 450.525 140.77 449.085 140.77 447.069V446.973C140.77 444.957 139.918 443.493 138.646 443.493C137.362 443.493 136.534 444.933 136.534 446.949V447.045C136.534 449.061 137.374 450.525 138.658 450.525ZM144.111 451.209V443.721L142.743 444.201L142.587 443.421L144.327 442.761H144.999V451.209H144.111Z" fill="#6E7079"/>
<path d="M154.362 451.209V450.513L157.074 447.489C158.082 446.409 158.466 445.797 158.466 445.017C158.466 444.093 157.794 443.517 156.954 443.517C156.186 443.517 155.634 443.925 155.07 444.717L154.446 444.189C155.07 443.253 155.838 442.689 157.038 442.689C158.406 442.689 159.402 443.613 159.402 444.933V444.969C159.402 446.049 158.886 446.757 157.71 447.993L155.61 450.369H159.462V451.209H154.362ZM163.776 451.341C161.904 451.341 160.74 449.589 160.74 447.069V446.973C160.74 444.453 161.928 442.677 163.788 442.677C165.648 442.677 166.824 444.429 166.824 446.949V447.045C166.824 449.565 165.636 451.341 163.776 451.341ZM163.788 450.525C165.072 450.525 165.9 449.085 165.9 447.069V446.973C165.9 444.957 165.048 443.493 163.776 443.493C162.492 443.493 161.664 444.933 161.664 446.949V447.045C161.664 449.061 162.504 450.525 163.788 450.525ZM171.159 451.341C169.287 451.341 168.123 449.589 168.123 447.069V446.973C168.123 444.453 169.311 442.677 171.171 442.677C173.031 442.677 174.207 444.429 174.207 446.949V447.045C174.207 449.565 173.019 451.341 171.159 451.341ZM171.171 450.525C172.455 450.525 173.283 449.085 173.283 447.069V446.973C173.283 444.957 172.431 443.493 171.159 443.493C169.875 443.493 169.047 444.933 169.047 446.949V447.045C169.047 449.061 169.887 450.525 171.171 450.525ZM175.245 451.209V450.513L177.957 447.489C178.965 446.409 179.349 445.797 179.349 445.017C179.349 444.093 178.677 443.517 177.837 443.517C177.069 443.517 176.517 443.925 175.953 444.717L175.329 444.189C175.953 443.253 176.721 442.689 177.921 442.689C179.289 442.689 180.285 443.613 180.285 444.933V444.969C180.285 446.049 179.769 446.757 178.593 447.993L176.493 450.369H180.345V451.209H175.245Z" fill="#6E7079"/>
<path d="M189.553 451.209V450.513L192.265 447.489C193.273 446.409 193.657 445.797 193.657 445.017C193.657 444.093 192.985 443.517 192.145 443.517C191.377 443.517 190.825 443.925 190.261 444.717L189.637 444.189C190.261 443.253 191.029 442.689 192.229 442.689C193.597 442.689 194.593 443.613 194.593 444.933V444.969C194.593 446.049 194.077 446.757 192.901 447.993L190.801 450.369H194.653V451.209H189.553ZM198.967 451.341C197.095 451.341 195.931 449.589 195.931 447.069V446.973C195.931 444.453 197.119 442.677 198.979 442.677C200.839 442.677 202.015 444.429 202.015 446.949V447.045C202.015 449.565 200.827 451.341 198.967 451.341ZM198.979 450.525C200.263 450.525 201.091 449.085 201.091 447.069V446.973C201.091 444.957 200.239 443.493 198.967 443.493C197.683 443.493 196.855 444.933 196.855 446.949V447.045C196.855 449.061 197.695 450.525 198.979 450.525ZM206.35 451.341C204.478 451.341 203.314 449.589 203.314 447.069V446.973C203.314 444.453 204.502 442.677 206.362 442.677C208.222 442.677 209.398 444.429 209.398 446.949V447.045C209.398 449.565 208.21 451.341 206.35 451.341ZM206.362 450.525C207.646 450.525 208.474 449.085 208.474 447.069V446.973C208.474 444.957 207.622 443.493 206.35 443.493C205.066 443.493 204.238 444.933 204.238 446.949V447.045C204.238 449.061 205.078 450.525 206.362 450.525ZM212.92 451.341C211.792 451.341 210.94 450.861 210.364 450.189L210.94 449.565C211.444 450.141 212.056 450.513 212.92 450.513C213.868 450.513 214.624 449.853 214.624 448.833V448.797C214.624 447.717 213.7 447.165 212.392 447.165H212.08L211.948 446.601L214.276 443.637H210.712V442.809H215.428V443.481L213.076 446.445C214.372 446.589 215.536 447.285 215.536 448.761V448.797C215.536 450.321 214.372 451.341 212.92 451.341Z" fill="#6E7079"/>
<path d="M224.38 451.209V450.513L227.092 447.489C228.1 446.409 228.484 445.797 228.484 445.017C228.484 444.093 227.812 443.517 226.972 443.517C226.204 443.517 225.652 443.925 225.088 444.717L224.464 444.189C225.088 443.253 225.856 442.689 227.056 442.689C228.424 442.689 229.42 443.613 229.42 444.933V444.969C229.42 446.049 228.904 446.757 227.728 447.993L225.628 450.369H229.48V451.209H224.38ZM233.795 451.341C231.923 451.341 230.759 449.589 230.759 447.069V446.973C230.759 444.453 231.947 442.677 233.807 442.677C235.667 442.677 236.843 444.429 236.843 446.949V447.045C236.843 449.565 235.655 451.341 233.795 451.341ZM233.807 450.525C235.091 450.525 235.919 449.085 235.919 447.069V446.973C235.919 444.957 235.067 443.493 233.795 443.493C232.511 443.493 231.683 444.933 231.683 446.949V447.045C231.683 449.061 232.523 450.525 233.807 450.525ZM241.178 451.341C239.306 451.341 238.142 449.589 238.142 447.069V446.973C238.142 444.453 239.33 442.677 241.19 442.677C243.05 442.677 244.226 444.429 244.226 446.949V447.045C244.226 449.565 243.038 451.341 241.178 451.341ZM241.19 450.525C242.474 450.525 243.302 449.085 243.302 447.069V446.973C243.302 444.957 242.45 443.493 241.178 443.493C239.894 443.493 239.066 444.933 239.066 446.949V447.045C239.066 449.061 239.906 450.525 241.19 450.525ZM249.316 451.209V449.265H245.464L245.296 448.605L249.376 442.749H250.168V448.509H251.284V449.265H250.168V451.209H249.316ZM246.316 448.509H249.316V444.165L246.316 448.509Z" fill="#6E7079"/>
<path d="M259.876 451.209V450.513L262.588 447.489C263.596 446.409 263.98 445.797 263.98 445.017C263.98 444.093 263.308 443.517 262.468 443.517C261.7 443.517 261.148 443.925 260.584 444.717L259.96 444.189C260.584 443.253 261.352 442.689 262.552 442.689C263.92 442.689 264.916 443.613 264.916 444.933V444.969C264.916 446.049 264.4 446.757 263.224 447.993L261.124 450.369H264.976V451.209H259.876ZM269.29 451.341C267.418 451.341 266.254 449.589 266.254 447.069V446.973C266.254 444.453 267.442 442.677 269.302 442.677C271.162 442.677 272.338 444.429 272.338 446.949V447.045C272.338 449.565 271.15 451.341 269.29 451.341ZM269.302 450.525C270.586 450.525 271.414 449.085 271.414 447.069V446.973C271.414 444.957 270.562 443.493 269.29 443.493C268.006 443.493 267.178 444.933 267.178 446.949V447.045C267.178 449.061 268.018 450.525 269.302 450.525ZM276.673 451.341C274.801 451.341 273.637 449.589 273.637 447.069V446.973C273.637 444.453 274.825 442.677 276.685 442.677C278.545 442.677 279.721 444.429 279.721 446.949V447.045C279.721 449.565 278.533 451.341 276.673 451.341ZM276.685 450.525C277.969 450.525 278.797 449.085 278.797 447.069V446.973C278.797 444.957 277.945 443.493 276.673 443.493C275.389 443.493 274.561 444.933 274.561 446.949V447.045C274.561 449.061 275.401 450.525 276.685 450.525ZM283.36 451.341C282.388 451.341 281.524 450.897 280.9 450.297L281.44 449.625C282.004 450.153 282.652 450.513 283.372 450.513C284.44 450.513 285.196 449.733 285.196 448.629V448.593C285.196 447.489 284.416 446.841 283.372 446.841C282.772 446.841 282.316 447.009 281.908 447.225L281.332 446.829L281.548 442.809H285.748V443.649H282.328L282.16 446.325C282.556 446.157 282.952 446.025 283.516 446.025C284.944 446.025 286.108 446.913 286.108 448.557V448.593C286.108 450.225 284.944 451.341 283.36 451.341Z" fill="#6E7079"/>
<path d="M294.885 451.209V450.513L297.597 447.489C298.605 446.409 298.989 445.797 298.989 445.017C298.989 444.093 298.317 443.517 297.477 443.517C296.709 443.517 296.157 443.925 295.593 444.717L294.969 444.189C295.593 443.253 296.361 442.689 297.561 442.689C298.929 442.689 299.925 443.613 299.925 444.933V444.969C299.925 446.049 299.409 446.757 298.233 447.993L296.133 450.369H299.985V451.209H294.885ZM304.299 451.341C302.427 451.341 301.263 449.589 301.263 447.069V446.973C301.263 444.453 302.451 442.677 304.311 442.677C306.171 442.677 307.347 444.429 307.347 446.949V447.045C307.347 449.565 306.159 451.341 304.299 451.341ZM304.311 450.525C305.595 450.525 306.423 449.085 306.423 447.069V446.973C306.423 444.957 305.571 443.493 304.299 443.493C303.015 443.493 302.187 444.933 302.187 446.949V447.045C302.187 449.061 303.027 450.525 304.311 450.525ZM311.682 451.341C309.81 451.341 308.646 449.589 308.646 447.069V446.973C308.646 444.453 309.834 442.677 311.694 442.677C313.554 442.677 314.73 444.429 314.73 446.949V447.045C314.73 449.565 313.542 451.341 311.682 451.341ZM311.694 450.525C312.978 450.525 313.806 449.085 313.806 447.069V446.973C313.806 444.957 312.954 443.493 311.682 443.493C310.398 443.493 309.57 444.933 309.57 446.949V447.045C309.57 449.061 310.41 450.525 311.694 450.525ZM318.849 451.341C318.093 451.341 317.457 451.077 317.001 450.621C316.389 449.997 316.029 449.121 316.029 447.345V447.249C316.029 444.465 317.217 442.677 319.137 442.677C319.941 442.677 320.553 442.953 321.165 443.433L320.685 444.153C320.229 443.769 319.737 443.505 319.101 443.505C317.709 443.505 316.941 445.041 316.929 447.093C317.373 446.385 318.069 445.953 318.969 445.953C320.325 445.953 321.501 446.889 321.501 448.521V448.545C321.501 450.177 320.337 451.341 318.849 451.341ZM318.861 450.537C319.917 450.537 320.589 449.673 320.589 448.581V448.557C320.589 447.453 319.869 446.733 318.849 446.733C317.805 446.733 317.061 447.525 317.061 448.569V448.593C317.061 449.697 317.781 450.537 318.861 450.537Z" fill="#6E7079"/>
<path d="M330.044 451.209V450.513L332.756 447.489C333.764 446.409 334.148 445.797 334.148 445.017C334.148 444.093 333.476 443.517 332.636 443.517C331.868 443.517 331.316 443.925 330.752 444.717L330.128 444.189C330.752 443.253 331.52 442.689 332.72 442.689C334.088 442.689 335.084 443.613 335.084 444.933V444.969C335.084 446.049 334.568 446.757 333.392 447.993L331.292 450.369H335.144V451.209H330.044ZM339.459 451.341C337.587 451.341 336.423 449.589 336.423 447.069V446.973C336.423 444.453 337.611 442.677 339.471 442.677C341.331 442.677 342.507 444.429 342.507 446.949V447.045C342.507 449.565 341.319 451.341 339.459 451.341ZM339.471 450.525C340.755 450.525 341.583 449.085 341.583 447.069V446.973C341.583 444.957 340.731 443.493 339.459 443.493C338.175 443.493 337.347 444.933 337.347 446.949V447.045C337.347 449.061 338.187 450.525 339.471 450.525ZM346.841 451.341C344.969 451.341 343.805 449.589 343.805 447.069V446.973C343.805 444.453 344.993 442.677 346.853 442.677C348.713 442.677 349.889 444.429 349.889 446.949V447.045C349.889 449.565 348.701 451.341 346.841 451.341ZM346.853 450.525C348.137 450.525 348.965 449.085 348.965 447.069V446.973C348.965 444.957 348.113 443.493 346.841 443.493C345.557 443.493 344.729 444.933 344.729 446.949V447.045C344.729 449.061 345.569 450.525 346.853 450.525ZM351.604 451.209L354.844 443.649H350.908V442.809H355.816V443.493L352.576 451.209H351.604Z" fill="#6E7079"/>
<path d="M364.401 451.209V450.513L367.113 447.489C368.121 446.409 368.505 445.797 368.505 445.017C368.505 444.093 367.833 443.517 366.993 443.517C366.225 443.517 365.673 443.925 365.109 444.717L364.485 444.189C365.109 443.253 365.877 442.689 367.077 442.689C368.445 442.689 369.441 443.613 369.441 444.933V444.969C369.441 446.049 368.925 446.757 367.749 447.993L365.649 450.369H369.501V451.209H364.401ZM373.815 451.341C371.943 451.341 370.779 449.589 370.779 447.069V446.973C370.779 444.453 371.967 442.677 373.827 442.677C375.687 442.677 376.863 444.429 376.863 446.949V447.045C376.863 449.565 375.675 451.341 373.815 451.341ZM373.827 450.525C375.111 450.525 375.939 449.085 375.939 447.069V446.973C375.939 444.957 375.087 443.493 373.815 443.493C372.531 443.493 371.703 444.933 371.703 446.949V447.045C371.703 449.061 372.543 450.525 373.827 450.525ZM381.198 451.341C379.326 451.341 378.162 449.589 378.162 447.069V446.973C378.162 444.453 379.35 442.677 381.21 442.677C383.07 442.677 384.246 444.429 384.246 446.949V447.045C384.246 449.565 383.058 451.341 381.198 451.341ZM381.21 450.525C382.494 450.525 383.322 449.085 383.322 447.069V446.973C383.322 444.957 382.47 443.493 381.198 443.493C379.914 443.493 379.086 444.933 379.086 446.949V447.045C379.086 449.061 379.926 450.525 381.21 450.525ZM388.161 451.329C386.601 451.329 385.425 450.369 385.425 448.977V448.941C385.425 447.933 386.049 447.213 386.949 446.865C386.241 446.517 385.665 445.893 385.665 444.933V444.897C385.665 443.577 386.817 442.689 388.161 442.689C389.517 442.689 390.657 443.577 390.657 444.897V444.933C390.657 445.893 390.093 446.517 389.385 446.865C390.261 447.225 390.909 447.933 390.909 448.929V448.965C390.909 450.381 389.733 451.329 388.161 451.329ZM388.161 446.529C389.073 446.529 389.781 445.869 389.781 444.969V444.945C389.781 444.081 389.085 443.469 388.161 443.469C387.249 443.469 386.553 444.069 386.553 444.945V444.969C386.553 445.869 387.261 446.529 388.161 446.529ZM388.161 450.549C389.313 450.549 390.009 449.841 390.009 448.941V448.917C390.009 447.957 389.193 447.273 388.161 447.273C387.129 447.273 386.325 447.957 386.325 448.917V448.941C386.325 449.829 387.021 450.549 388.161 450.549Z" fill="#6E7079"/>
<path d="M399.51 451.209V450.513L402.222 447.489C403.23 446.409 403.614 445.797 403.614 445.017C403.614 444.093 402.942 443.517 402.102 443.517C401.334 443.517 400.782 443.925 400.218 444.717L399.594 444.189C400.218 443.253 400.986 442.689 402.186 442.689C403.554 442.689 404.55 443.613 404.55 444.933V444.969C404.55 446.049 404.034 446.757 402.858 447.993L400.758 450.369H404.61V451.209H399.51ZM408.924 451.341C407.052 451.341 405.888 449.589 405.888 447.069V446.973C405.888 444.453 407.076 442.677 408.936 442.677C410.796 442.677 411.972 444.429 411.972 446.949V447.045C411.972 449.565 410.784 451.341 408.924 451.341ZM408.936 450.525C410.22 450.525 411.048 449.085 411.048 447.069V446.973C411.048 444.957 410.196 443.493 408.924 443.493C407.64 443.493 406.812 444.933 406.812 446.949V447.045C406.812 449.061 407.652 450.525 408.936 450.525ZM416.307 451.341C414.435 451.341 413.271 449.589 413.271 447.069V446.973C413.271 444.453 414.459 442.677 416.319 442.677C418.179 442.677 419.355 444.429 419.355 446.949V447.045C419.355 449.565 418.167 451.341 416.307 451.341ZM416.319 450.525C417.603 450.525 418.431 449.085 418.431 447.069V446.973C418.431 444.957 417.579 443.493 416.307 443.493C415.023 443.493 414.195 444.933 414.195 446.949V447.045C414.195 449.061 415.035 450.525 416.319 450.525ZM423.018 450.513C424.398 450.513 425.19 448.965 425.202 446.985C424.758 447.705 424.062 448.149 423.174 448.149C421.734 448.149 420.63 447.165 420.63 445.545V445.521C420.63 443.889 421.758 442.677 423.282 442.677C424.062 442.677 424.674 442.941 425.13 443.409C425.718 443.997 426.102 444.921 426.102 446.673V446.769C426.102 449.625 424.854 451.341 422.994 451.341C422.142 451.341 421.482 451.017 420.858 450.513L421.326 449.793C421.866 450.249 422.382 450.513 423.018 450.513ZM423.282 447.381C424.338 447.381 425.07 446.565 425.07 445.485V445.461C425.07 444.333 424.362 443.481 423.258 443.481C422.19 443.481 421.542 444.381 421.542 445.485V445.509C421.542 446.649 422.262 447.381 423.282 447.381Z" fill="#6E7079"/>
<path d="M434.724 451.209V450.513L437.436 447.489C438.444 446.409 438.828 445.797 438.828 445.017C438.828 444.093 438.156 443.517 437.316 443.517C436.548 443.517 435.996 443.925 435.432 444.717L434.808 444.189C435.432 443.253 436.2 442.689 437.4 442.689C438.768 442.689 439.764 443.613 439.764 444.933V444.969C439.764 446.049 439.248 446.757 438.072 447.993L435.972 450.369H439.824V451.209H434.724ZM444.138 451.341C442.266 451.341 441.102 449.589 441.102 447.069V446.973C441.102 444.453 442.29 442.677 444.15 442.677C446.01 442.677 447.186 444.429 447.186 446.949V447.045C447.186 449.565 445.998 451.341 444.138 451.341ZM444.15 450.525C445.434 450.525 446.262 449.085 446.262 447.069V446.973C446.262 444.957 445.41 443.493 444.138 443.493C442.854 443.493 442.026 444.933 442.026 446.949V447.045C442.026 449.061 442.866 450.525 444.15 450.525ZM449.603 451.209V443.721L448.235 444.201L448.079 443.421L449.819 442.761H450.491V451.209H449.603ZM455.248 451.341C453.376 451.341 452.212 449.589 452.212 447.069V446.973C452.212 444.453 453.4 442.677 455.26 442.677C457.12 442.677 458.296 444.429 458.296 446.949V447.045C458.296 449.565 457.108 451.341 455.248 451.341ZM455.26 450.525C456.544 450.525 457.372 449.085 457.372 447.069V446.973C457.372 444.957 456.52 443.493 455.248 443.493C453.964 443.493 453.136 444.933 453.136 446.949V447.045C453.136 449.061 453.976 450.525 455.26 450.525Z" fill="#6E7079"/>
<path d="M467.225 451.209V450.513L469.937 447.489C470.945 446.409 471.329 445.797 471.329 445.017C471.329 444.093 470.657 443.517 469.817 443.517C469.049 443.517 468.497 443.925 467.933 444.717L467.309 444.189C467.933 443.253 468.701 442.689 469.901 442.689C471.269 442.689 472.265 443.613 472.265 444.933V444.969C472.265 446.049 471.749 446.757 470.573 447.993L468.473 450.369H472.325V451.209H467.225ZM476.64 451.341C474.768 451.341 473.604 449.589 473.604 447.069V446.973C473.604 444.453 474.792 442.677 476.652 442.677C478.512 442.677 479.688 444.429 479.688 446.949V447.045C479.688 449.565 478.5 451.341 476.64 451.341ZM476.652 450.525C477.936 450.525 478.764 449.085 478.764 447.069V446.973C478.764 444.957 477.912 443.493 476.64 443.493C475.356 443.493 474.528 444.933 474.528 446.949V447.045C474.528 449.061 475.368 450.525 476.652 450.525ZM482.104 451.209V443.721L480.736 444.201L480.58 443.421L482.32 442.761H482.992V451.209H482.104ZM485.901 451.209V443.721L484.533 444.201L484.377 443.421L486.117 442.761H486.789V451.209H485.901Z" fill="#6E7079"/>
<path d="M496.215 451.209V450.513L498.927 447.489C499.935 446.409 500.319 445.797 500.319 445.017C500.319 444.093 499.647 443.517 498.807 443.517C498.039 443.517 497.487 443.925 496.923 444.717L496.299 444.189C496.923 443.253 497.691 442.689 498.891 442.689C500.259 442.689 501.255 443.613 501.255 444.933V444.969C501.255 446.049 500.739 446.757 499.563 447.993L497.463 450.369H501.315V451.209H496.215ZM505.629 451.341C503.757 451.341 502.593 449.589 502.593 447.069V446.973C502.593 444.453 503.781 442.677 505.641 442.677C507.501 442.677 508.677 444.429 508.677 446.949V447.045C508.677 449.565 507.489 451.341 505.629 451.341ZM505.641 450.525C506.925 450.525 507.753 449.085 507.753 447.069V446.973C507.753 444.957 506.901 443.493 505.629 443.493C504.345 443.493 503.517 444.933 503.517 446.949V447.045C503.517 449.061 504.357 450.525 505.641 450.525ZM511.094 451.209V443.721L509.726 444.201L509.57 443.421L511.31 442.761H511.982V451.209H511.094ZM513.559 451.209V450.513L516.271 447.489C517.279 446.409 517.663 445.797 517.663 445.017C517.663 444.093 516.991 443.517 516.151 443.517C515.383 443.517 514.831 443.925 514.267 444.717L513.643 444.189C514.267 443.253 515.035 442.689 516.235 442.689C517.603 442.689 518.599 443.613 518.599 444.933V444.969C518.599 446.049 518.083 446.757 516.907 447.993L514.807 450.369H518.659V451.209H513.559Z" fill="#6E7079"/>
<path d="M527.4 451.209V450.513L530.112 447.489C531.12 446.409 531.504 445.797 531.504 445.017C531.504 444.093 530.832 443.517 529.992 443.517C529.224 443.517 528.672 443.925 528.108 444.717L527.484 444.189C528.108 443.253 528.876 442.689 530.076 442.689C531.444 442.689 532.44 443.613 532.44 444.933V444.969C532.44 446.049 531.924 446.757 530.748 447.993L528.648 450.369H532.5V451.209H527.4ZM536.814 451.341C534.942 451.341 533.778 449.589 533.778 447.069V446.973C533.778 444.453 534.966 442.677 536.826 442.677C538.686 442.677 539.862 444.429 539.862 446.949V447.045C539.862 449.565 538.674 451.341 536.814 451.341ZM536.826 450.525C538.11 450.525 538.938 449.085 538.938 447.069V446.973C538.938 444.957 538.086 443.493 536.814 443.493C535.53 443.493 534.702 444.933 534.702 446.949V447.045C534.702 449.061 535.542 450.525 536.826 450.525ZM542.279 451.209V443.721L540.911 444.201L540.755 443.421L542.495 442.761H543.167V451.209H542.279ZM547.24 451.341C546.112 451.341 545.26 450.861 544.684 450.189L545.26 449.565C545.764 450.141 546.376 450.513 547.24 450.513C548.188 450.513 548.944 449.853 548.944 448.833V448.797C548.944 447.717 548.02 447.165 546.712 447.165H546.4L546.268 446.601L548.596 443.637H545.032V442.809H549.748V443.481L547.396 446.445C548.692 446.589 549.856 447.285 549.856 448.761V448.797C549.856 450.321 548.692 451.341 547.24 451.341Z" fill="#6E7079"/>
<path d="M558.792 451.209V450.513L561.504 447.489C562.512 446.409 562.896 445.797 562.896 445.017C562.896 444.093 562.224 443.517 561.384 443.517C560.616 443.517 560.064 443.925 559.5 444.717L558.876 444.189C559.5 443.253 560.268 442.689 561.468 442.689C562.836 442.689 563.832 443.613 563.832 444.933V444.969C563.832 446.049 563.316 446.757 562.14 447.993L560.04 450.369H563.892V451.209H558.792ZM568.206 451.341C566.334 451.341 565.17 449.589 565.17 447.069V446.973C565.17 444.453 566.358 442.677 568.218 442.677C570.078 442.677 571.254 444.429 571.254 446.949V447.045C571.254 449.565 570.066 451.341 568.206 451.341ZM568.218 450.525C569.502 450.525 570.33 449.085 570.33 447.069V446.973C570.33 444.957 569.478 443.493 568.206 443.493C566.922 443.493 566.094 444.933 566.094 446.949V447.045C566.094 449.061 566.934 450.525 568.218 450.525ZM573.671 451.209V443.721L572.303 444.201L572.147 443.421L573.887 442.761H574.559V451.209H573.671ZM580.072 451.209V449.265H576.22L576.052 448.605L580.132 442.749H580.924V448.509H582.04V449.265H580.924V451.209H580.072ZM577.072 448.509H580.072V444.165L577.072 448.509Z" fill="#6E7079"/>
<path d="M590.787 451.209V450.513L593.499 447.489C594.507 446.409 594.891 445.797 594.891 445.017C594.891 444.093 594.219 443.517 593.379 443.517C592.611 443.517 592.059 443.925 591.495 444.717L590.871 444.189C591.495 443.253 592.263 442.689 593.463 442.689C594.831 442.689 595.827 443.613 595.827 444.933V444.969C595.827 446.049 595.311 446.757 594.135 447.993L592.035 450.369H595.887V451.209H590.787ZM600.202 451.341C598.33 451.341 597.166 449.589 597.166 447.069V446.973C597.166 444.453 598.354 442.677 600.214 442.677C602.074 442.677 603.25 444.429 603.25 446.949V447.045C603.25 449.565 602.062 451.341 600.202 451.341ZM600.214 450.525C601.498 450.525 602.326 449.085 602.326 447.069V446.973C602.326 444.957 601.474 443.493 600.202 443.493C598.918 443.493 598.09 444.933 598.09 446.949V447.045C598.09 449.061 598.93 450.525 600.214 450.525ZM605.666 451.209V443.721L604.298 444.201L604.142 443.421L605.882 442.761H606.554V451.209H605.666ZM610.615 451.341C609.643 451.341 608.779 450.897 608.155 450.297L608.695 449.625C609.259 450.153 609.907 450.513 610.627 450.513C611.695 450.513 612.451 449.733 612.451 448.629V448.593C612.451 447.489 611.671 446.841 610.627 446.841C610.027 446.841 609.571 447.009 609.163 447.225L608.587 446.829L608.803 442.809H613.003V443.649H609.583L609.415 446.325C609.811 446.157 610.207 446.025 610.771 446.025C612.199 446.025 613.363 446.913 613.363 448.557V448.593C613.363 450.225 612.199 451.341 610.615 451.341Z" fill="#6E7079"/>
<path d="M622.296 451.209V450.513L625.008 447.489C626.016 446.409 626.4 445.797 626.4 445.017C626.4 444.093 625.728 443.517 624.888 443.517C624.12 443.517 623.568 443.925 623.004 444.717L622.38 444.189C623.004 443.253 623.772 442.689 624.972 442.689C626.34 442.689 627.336 443.613 627.336 444.933V444.969C627.336 446.049 626.82 446.757 625.644 447.993L623.544 450.369H627.396V451.209H622.296ZM631.711 451.341C629.839 451.341 628.675 449.589 628.675 447.069V446.973C628.675 444.453 629.863 442.677 631.723 442.677C633.583 442.677 634.759 444.429 634.759 446.949V447.045C634.759 449.565 633.571 451.341 631.711 451.341ZM631.723 450.525C633.007 450.525 633.835 449.085 633.835 447.069V446.973C633.835 444.957 632.983 443.493 631.711 443.493C630.427 443.493 629.599 444.933 629.599 446.949V447.045C629.599 449.061 630.439 450.525 631.723 450.525ZM637.175 451.209V443.721L635.807 444.201L635.651 443.421L637.391 442.761H638.063V451.209H637.175ZM642.604 451.341C641.848 451.341 641.212 451.077 640.756 450.621C640.144 449.997 639.784 449.121 639.784 447.345V447.249C639.784 444.465 640.972 442.677 642.892 442.677C643.696 442.677 644.308 442.953 644.92 443.433L644.44 444.153C643.984 443.769 643.492 443.505 642.856 443.505C641.464 443.505 640.696 445.041 640.684 447.093C641.128 446.385 641.824 445.953 642.724 445.953C644.08 445.953 645.256 446.889 645.256 448.521V448.545C645.256 450.177 644.092 451.341 642.604 451.341ZM642.616 450.537C643.672 450.537 644.344 449.673 644.344 448.581V448.557C644.344 447.453 643.624 446.733 642.604 446.733C641.56 446.733 640.816 447.525 640.816 448.569V448.593C640.816 449.697 641.536 450.537 642.616 450.537Z" fill="#6E7079"/>
<path d="M654.304 451.209V450.513L657.016 447.489C658.024 446.409 658.408 445.797 658.408 445.017C658.408 444.093 657.736 443.517 656.896 443.517C656.128 443.517 655.576 443.925 655.012 444.717L654.388 444.189C655.012 443.253 655.78 442.689 656.98 442.689C658.348 442.689 659.344 443.613 659.344 444.933V444.969C659.344 446.049 658.828 446.757 657.652 447.993L655.552 450.369H659.404V451.209H654.304ZM663.718 451.341C661.846 451.341 660.682 449.589 660.682 447.069V446.973C660.682 444.453 661.87 442.677 663.73 442.677C665.59 442.677 666.766 444.429 666.766 446.949V447.045C666.766 449.565 665.578 451.341 663.718 451.341ZM663.73 450.525C665.014 450.525 665.842 449.085 665.842 447.069V446.973C665.842 444.957 664.99 443.493 663.718 443.493C662.434 443.493 661.606 444.933 661.606 446.949V447.045C661.606 449.061 662.446 450.525 663.73 450.525ZM669.182 451.209V443.721L667.814 444.201L667.658 443.421L669.398 442.761H670.07V451.209H669.182ZM672.511 451.209L675.751 443.649H671.815V442.809H676.723V443.493L673.483 451.209H672.511Z" fill="#6E7079"/>
<path d="M685.313 451.209V450.513L688.025 447.489C689.033 446.409 689.417 445.797 689.417 445.017C689.417 444.093 688.745 443.517 687.905 443.517C687.137 443.517 686.585 443.925 686.021 444.717L685.397 444.189C686.021 443.253 686.789 442.689 687.989 442.689C689.357 442.689 690.353 443.613 690.353 444.933V444.969C690.353 446.049 689.837 446.757 688.661 447.993L686.561 450.369H690.413V451.209H685.313ZM694.727 451.341C692.855 451.341 691.691 449.589 691.691 447.069V446.973C691.691 444.453 692.879 442.677 694.739 442.677C696.599 442.677 697.775 444.429 697.775 446.949V447.045C697.775 449.565 696.587 451.341 694.727 451.341ZM694.739 450.525C696.023 450.525 696.851 449.085 696.851 447.069V446.973C696.851 444.957 695.999 443.493 694.727 443.493C693.443 443.493 692.615 444.933 692.615 446.949V447.045C692.615 449.061 693.455 450.525 694.739 450.525ZM700.191 451.209V443.721L698.823 444.201L698.667 443.421L700.407 442.761H701.079V451.209H700.191ZM705.416 451.329C703.856 451.329 702.68 450.369 702.68 448.977V448.941C702.68 447.933 703.304 447.213 704.204 446.865C703.496 446.517 702.92 445.893 702.92 444.933V444.897C702.92 443.577 704.072 442.689 705.416 442.689C706.772 442.689 707.912 443.577 707.912 444.897V444.933C707.912 445.893 707.348 446.517 706.64 446.865C707.516 447.225 708.164 447.933 708.164 448.929V448.965C708.164 450.381 706.988 451.329 705.416 451.329ZM705.416 446.529C706.328 446.529 707.036 445.869 707.036 444.969V444.945C707.036 444.081 706.34 443.469 705.416 443.469C704.504 443.469 703.808 444.069 703.808 444.945V444.969C703.808 445.869 704.516 446.529 705.416 446.529ZM705.416 450.549C706.568 450.549 707.264 449.841 707.264 448.941V448.917C707.264 447.957 706.448 447.273 705.416 447.273C704.384 447.273 703.58 447.957 703.58 448.917V448.941C703.58 449.829 704.276 450.549 705.416 450.549Z" fill="#6E7079"/>
<path d="M716.921 451.209V450.513L719.633 447.489C720.641 446.409 721.025 445.797 721.025 445.017C721.025 444.093 720.353 443.517 719.513 443.517C718.745 443.517 718.193 443.925 717.629 444.717L717.005 444.189C717.629 443.253 718.397 442.689 719.597 442.689C720.965 442.689 721.961 443.613 721.961 444.933V444.969C721.961 446.049 721.445 446.757 720.269 447.993L718.169 450.369H722.021V451.209H716.921ZM726.336 451.341C724.464 451.341 723.3 449.589 723.3 447.069V446.973C723.3 444.453 724.488 442.677 726.348 442.677C728.208 442.677 729.384 444.429 729.384 446.949V447.045C729.384 449.565 728.196 451.341 726.336 451.341ZM726.348 450.525C727.632 450.525 728.46 449.085 728.46 447.069V446.973C728.46 444.957 727.608 443.493 726.336 443.493C725.052 443.493 724.224 444.933 724.224 446.949V447.045C724.224 449.061 725.064 450.525 726.348 450.525ZM731.8 451.209V443.721L730.432 444.201L730.276 443.421L732.016 442.761H732.688V451.209H731.8ZM736.773 450.513C738.153 450.513 738.945 448.965 738.957 446.985C738.513 447.705 737.817 448.149 736.929 448.149C735.489 448.149 734.385 447.165 734.385 445.545V445.521C734.385 443.889 735.513 442.677 737.037 442.677C737.817 442.677 738.429 442.941 738.885 443.409C739.473 443.997 739.857 444.921 739.857 446.673V446.769C739.857 449.625 738.609 451.341 736.749 451.341C735.897 451.341 735.237 451.017 734.613 450.513L735.081 449.793C735.621 450.249 736.137 450.513 736.773 450.513ZM737.037 447.381C738.093 447.381 738.825 446.565 738.825 445.485V445.461C738.825 444.333 738.117 443.481 737.013 443.481C735.945 443.481 735.297 444.381 735.297 445.485V445.509C735.297 446.649 736.017 447.381 737.037 447.381Z" fill="#6E7079"/>
<path d="M749.112 451.209V450.513L751.824 447.489C752.832 446.409 753.216 445.797 753.216 445.017C753.216 444.093 752.544 443.517 751.704 443.517C750.936 443.517 750.384 443.925 749.82 444.717L749.196 444.189C749.82 443.253 750.588 442.689 751.788 442.689C753.156 442.689 754.152 443.613 754.152 444.933V444.969C754.152 446.049 753.636 446.757 752.46 447.993L750.36 450.369H754.212V451.209H749.112ZM758.526 451.341C756.654 451.341 755.49 449.589 755.49 447.069V446.973C755.49 444.453 756.678 442.677 758.538 442.677C760.398 442.677 761.574 444.429 761.574 446.949V447.045C761.574 449.565 760.386 451.341 758.526 451.341ZM758.538 450.525C759.822 450.525 760.65 449.085 760.65 447.069V446.973C760.65 444.957 759.798 443.493 758.526 443.493C757.242 443.493 756.414 444.933 756.414 446.949V447.045C756.414 449.061 757.254 450.525 758.538 450.525ZM762.612 451.209V450.513L765.324 447.489C766.332 446.409 766.716 445.797 766.716 445.017C766.716 444.093 766.044 443.517 765.204 443.517C764.436 443.517 763.884 443.925 763.32 444.717L762.696 444.189C763.32 443.253 764.088 442.689 765.288 442.689C766.656 442.689 767.652 443.613 767.652 444.933V444.969C767.652 446.049 767.136 446.757 765.96 447.993L763.86 450.369H767.712V451.209H762.612ZM772.026 451.341C770.154 451.341 768.99 449.589 768.99 447.069V446.973C768.99 444.453 770.178 442.677 772.038 442.677C773.898 442.677 775.074 444.429 775.074 446.949V447.045C775.074 449.565 773.886 451.341 772.026 451.341ZM772.038 450.525C773.322 450.525 774.15 449.085 774.15 447.069V446.973C774.15 444.957 773.298 443.493 772.026 443.493C770.742 443.493 769.914 444.933 769.914 446.949V447.045C769.914 449.061 770.754 450.525 772.038 450.525Z" fill="#6E7079"/>
<path d="M784.113 451.209V450.513L786.825 447.489C787.833 446.409 788.217 445.797 788.217 445.017C788.217 444.093 787.545 443.517 786.705 443.517C785.937 443.517 785.385 443.925 784.821 444.717L784.197 444.189C784.821 443.253 785.589 442.689 786.789 442.689C788.157 442.689 789.153 443.613 789.153 444.933V444.969C789.153 446.049 788.637 446.757 787.461 447.993L785.361 450.369H789.213V451.209H784.113ZM793.528 451.341C791.656 451.341 790.492 449.589 790.492 447.069V446.973C790.492 444.453 791.68 442.677 793.54 442.677C795.4 442.677 796.576 444.429 796.576 446.949V447.045C796.576 449.565 795.388 451.341 793.528 451.341ZM793.54 450.525C794.824 450.525 795.652 449.085 795.652 447.069V446.973C795.652 444.957 794.8 443.493 793.528 443.493C792.244 443.493 791.416 444.933 791.416 446.949V447.045C791.416 449.061 792.256 450.525 793.54 450.525ZM797.613 451.209V450.513L800.325 447.489C801.333 446.409 801.717 445.797 801.717 445.017C801.717 444.093 801.045 443.517 800.205 443.517C799.437 443.517 798.885 443.925 798.321 444.717L797.697 444.189C798.321 443.253 799.089 442.689 800.289 442.689C801.657 442.689 802.653 443.613 802.653 444.933V444.969C802.653 446.049 802.137 446.757 800.961 447.993L798.861 450.369H802.713V451.209H797.613ZM805.18 451.209V443.721L803.812 444.201L803.656 443.421L805.396 442.761H806.068V451.209H805.18Z" fill="#6E7079"/>
<path d="M815.103 451.209V450.513L817.815 447.489C818.823 446.409 819.207 445.797 819.207 445.017C819.207 444.093 818.535 443.517 817.695 443.517C816.927 443.517 816.375 443.925 815.811 444.717L815.187 444.189C815.811 443.253 816.579 442.689 817.779 442.689C819.147 442.689 820.143 443.613 820.143 444.933V444.969C820.143 446.049 819.627 446.757 818.451 447.993L816.351 450.369H820.203V451.209H815.103ZM824.517 451.341C822.645 451.341 821.481 449.589 821.481 447.069V446.973C821.481 444.453 822.669 442.677 824.529 442.677C826.389 442.677 827.565 444.429 827.565 446.949V447.045C827.565 449.565 826.377 451.341 824.517 451.341ZM824.529 450.525C825.813 450.525 826.641 449.085 826.641 447.069V446.973C826.641 444.957 825.789 443.493 824.517 443.493C823.233 443.493 822.405 444.933 822.405 446.949V447.045C822.405 449.061 823.245 450.525 824.529 450.525ZM828.603 451.209V450.513L831.315 447.489C832.323 446.409 832.707 445.797 832.707 445.017C832.707 444.093 832.035 443.517 831.195 443.517C830.427 443.517 829.875 443.925 829.311 444.717L828.687 444.189C829.311 443.253 830.079 442.689 831.279 442.689C832.647 442.689 833.643 443.613 833.643 444.933V444.969C833.643 446.049 833.127 446.757 831.951 447.993L829.851 450.369H833.703V451.209H828.603ZM834.837 451.209V450.513L837.549 447.489C838.557 446.409 838.941 445.797 838.941 445.017C838.941 444.093 838.269 443.517 837.429 443.517C836.661 443.517 836.109 443.925 835.545 444.717L834.921 444.189C835.545 443.253 836.313 442.689 837.513 442.689C838.881 442.689 839.877 443.613 839.877 444.933V444.969C839.877 446.049 839.361 446.757 838.185 447.993L836.085 450.369H839.937V451.209H834.837Z" fill="#6E7079"/>
<path d="M848.788 451.209V450.513L851.5 447.489C852.508 446.409 852.892 445.797 852.892 445.017C852.892 444.093 852.22 443.517 851.38 443.517C850.612 443.517 850.06 443.925 849.496 444.717L848.872 444.189C849.496 443.253 850.264 442.689 851.464 442.689C852.832 442.689 853.828 443.613 853.828 444.933V444.969C853.828 446.049 853.312 446.757 852.136 447.993L850.036 450.369H853.888V451.209H848.788ZM858.202 451.341C856.33 451.341 855.166 449.589 855.166 447.069V446.973C855.166 444.453 856.354 442.677 858.214 442.677C860.074 442.677 861.25 444.429 861.25 446.949V447.045C861.25 449.565 860.062 451.341 858.202 451.341ZM858.214 450.525C859.498 450.525 860.326 449.085 860.326 447.069V446.973C860.326 444.957 859.474 443.493 858.202 443.493C856.918 443.493 856.09 444.933 856.09 446.949V447.045C856.09 449.061 856.93 450.525 858.214 450.525ZM862.288 451.209V450.513L865 447.489C866.008 446.409 866.392 445.797 866.392 445.017C866.392 444.093 865.72 443.517 864.88 443.517C864.112 443.517 863.56 443.925 862.996 444.717L862.372 444.189C862.996 443.253 863.764 442.689 864.964 442.689C866.332 442.689 867.328 443.613 867.328 444.933V444.969C867.328 446.049 866.812 446.757 865.636 447.993L863.536 450.369H867.388V451.209H862.288ZM871.018 451.341C869.89 451.341 869.038 450.861 868.462 450.189L869.038 449.565C869.542 450.141 870.154 450.513 871.018 450.513C871.966 450.513 872.722 449.853 872.722 448.833V448.797C872.722 447.717 871.798 447.165 870.49 447.165H870.178L870.046 446.601L872.374 443.637H868.81V442.809H873.526V443.481L871.174 446.445C872.47 446.589 873.634 447.285 873.634 448.761V448.797C873.634 450.321 872.47 451.341 871.018 451.341Z" fill="#6E7079"/>
<path d="M882.826 451.209V450.513L885.538 447.489C886.546 446.409 886.93 445.797 886.93 445.017C886.93 444.093 886.258 443.517 885.418 443.517C884.65 443.517 884.098 443.925 883.534 444.717L882.91 444.189C883.534 443.253 884.302 442.689 885.502 442.689C886.87 442.689 887.866 443.613 887.866 444.933V444.969C887.866 446.049 887.35 446.757 886.174 447.993L884.074 450.369H887.926V451.209H882.826ZM892.241 451.341C890.369 451.341 889.205 449.589 889.205 447.069V446.973C889.205 444.453 890.393 442.677 892.253 442.677C894.113 442.677 895.289 444.429 895.289 446.949V447.045C895.289 449.565 894.101 451.341 892.241 451.341ZM892.253 450.525C893.537 450.525 894.365 449.085 894.365 447.069V446.973C894.365 444.957 893.513 443.493 892.241 443.493C890.957 443.493 890.129 444.933 890.129 446.949V447.045C890.129 449.061 890.969 450.525 892.253 450.525ZM896.326 451.209V450.513L899.038 447.489C900.046 446.409 900.43 445.797 900.43 445.017C900.43 444.093 899.758 443.517 898.918 443.517C898.15 443.517 897.598 443.925 897.034 444.717L896.41 444.189C897.034 443.253 897.802 442.689 899.002 442.689C900.37 442.689 901.366 443.613 901.366 444.933V444.969C901.366 446.049 900.85 446.757 899.674 447.993L897.574 450.369H901.426V451.209H896.326ZM906.204 451.209V449.265H902.352L902.184 448.605L906.264 442.749H907.056V448.509H908.172V449.265H907.056V451.209H906.204ZM903.204 448.509H906.204V444.165L903.204 448.509Z" fill="#6E7079"/>
<path d="M472.756 461.809H474.688L472.288 465.913L474.784 470.209H472.804L471.268 467.329L469.72 470.209H467.788L470.272 465.937L467.896 461.809H469.876L471.304 464.533L472.756 461.809ZM475.084 467.317V465.661H478.6V467.317H475.084ZM478.954 470.209L481.966 461.761H483.622L486.634 470.209H484.834L484.21 468.385H481.318L480.706 470.209H478.954ZM481.846 466.849H483.682L482.77 464.113L481.846 466.849ZM488.912 463.777L489.92 465.661L490.94 463.777H492.704L490.844 466.909L492.776 470.209H490.964L489.896 468.205L488.816 470.209H487.04L488.96 466.933L487.112 463.777H488.912ZM493.696 463.093V461.545H495.472V463.093H493.696ZM493.732 470.209V463.777H495.436V470.209H493.732ZM498.816 470.329C498.06 470.329 497.16 470.077 496.38 469.441L497.124 468.241C497.7 468.685 498.312 468.961 498.84 468.961C499.32 468.961 499.524 468.733 499.524 468.469V468.445C499.524 468.073 499.044 467.917 498.348 467.617C497.436 467.221 496.656 466.765 496.656 465.673V465.649C496.656 464.413 497.616 463.681 498.864 463.681C499.56 463.681 500.34 463.921 500.988 464.377L500.304 465.601C499.824 465.289 499.296 465.049 498.84 465.049C498.432 465.049 498.216 465.253 498.216 465.505V465.529C498.216 465.865 498.696 466.057 499.38 466.369C500.316 466.813 501.084 467.281 501.084 468.301V468.325C501.084 469.657 500.1 470.329 498.816 470.329ZM506.785 470.317C505.801 470.317 505.081 469.933 505.081 468.601V465.217H504.433V463.777H505.081V462.133H506.785V463.777H508.057V465.217H506.785V468.253C506.785 468.625 506.953 468.805 507.313 468.805C507.577 468.805 507.829 468.733 508.045 468.625V469.981C507.709 470.173 507.301 470.317 506.785 470.317ZM509.2 463.093V461.545H510.976V463.093H509.2ZM509.236 470.209V463.777H510.94V470.209H509.236ZM514.343 470.317C513.359 470.317 512.639 469.933 512.639 468.601V465.217H511.991V463.777H512.639V462.133H514.343V463.777H515.615V465.217H514.343V468.253C514.343 468.625 514.511 468.805 514.871 468.805C515.135 468.805 515.387 468.733 515.603 468.625V469.981C515.267 470.173 514.859 470.317 514.343 470.317ZM516.795 470.209V461.545H518.499V470.209H516.795ZM522.682 470.353C520.978 470.353 519.67 469.069 519.67 467.065V466.957C519.67 465.049 520.858 463.657 522.478 463.657C524.314 463.657 525.214 465.157 525.214 467.077C525.214 467.173 525.214 467.377 525.202 467.629H521.362C521.506 468.481 522.034 468.925 522.754 468.925C523.282 468.925 523.69 468.685 524.098 468.289L524.974 469.321C524.386 469.969 523.642 470.353 522.682 470.353ZM521.35 466.501H523.57C523.498 465.613 523.114 465.061 522.478 465.061C521.854 465.061 521.446 465.589 521.35 466.501Z" fill="#6E7079"/>
<path d="M11 245.217H7.688L2.6 247.953L2.6 245.985L5.9 244.329L2.6 242.661L2.6 240.741L7.664 243.477H11V245.217ZM8.108 240.934H6.452V237.418H8.108L8.108 240.934ZM11 237.064L2.552 234.052L2.552 232.396L11 229.384V231.184L9.176 231.808V234.7L11 235.312V237.064ZM7.64 234.172V232.336L4.904 233.248L7.64 234.172ZM4.568 227.105L6.452 226.097L4.568 225.077V223.313L7.7 225.173L11 223.241V225.053L8.996 226.121L11 227.201V228.977L7.724 227.057L4.568 228.905V227.105ZM3.884 222.321H2.336V220.545H3.884V222.321ZM11 222.285H4.568V220.581H11L11 222.285ZM11.12 217.202C11.12 217.958 10.868 218.858 10.232 219.638L9.032 218.894C9.476 218.318 9.752 217.706 9.752 217.178C9.752 216.698 9.524 216.494 9.26 216.494H9.236C8.864 216.494 8.708 216.974 8.408 217.67C8.012 218.582 7.556 219.362 6.464 219.362H6.44C5.204 219.362 4.472 218.402 4.472 217.154C4.472 216.458 4.712 215.678 5.168 215.03L6.392 215.714C6.08 216.194 5.84 216.722 5.84 217.178C5.84 217.586 6.044 217.802 6.296 217.802H6.32C6.656 217.802 6.848 217.322 7.16 216.638C7.604 215.702 8.072 214.934 9.092 214.934H9.116C10.448 214.934 11.12 215.918 11.12 217.202ZM11.108 209.233C11.108 210.217 10.724 210.937 9.392 210.937H6.008V211.585H4.568V210.937H2.924L2.924 209.233H4.568L4.568 207.961H6.008L6.008 209.233H9.044C9.416 209.233 9.596 209.065 9.596 208.705C9.596 208.441 9.524 208.189 9.416 207.973H10.772C10.964 208.309 11.108 208.717 11.108 209.233ZM3.884 206.817H2.336L2.336 205.041H3.884L3.884 206.817ZM11 206.781H4.568V205.077H11V206.781ZM11.108 201.674C11.108 202.658 10.724 203.378 9.392 203.378H6.008V204.026H4.568V203.378H2.924L2.924 201.674H4.568V200.402H6.008V201.674H9.044C9.416 201.674 9.596 201.506 9.596 201.146C9.596 200.882 9.524 200.63 9.416 200.414H10.772C10.964 200.75 11.108 201.158 11.108 201.674ZM11 199.223H2.336V197.519H11V199.223ZM11.144 193.336C11.144 195.04 9.86 196.348 7.856 196.348H7.748C5.84 196.348 4.448 195.16 4.448 193.54C4.448 191.704 5.948 190.804 7.868 190.804C7.964 190.804 8.168 190.804 8.42 190.816V194.656C9.272 194.512 9.716 193.984 9.716 193.264C9.716 192.736 9.476 192.328 9.08 191.92L10.112 191.044C10.76 191.632 11.144 192.376 11.144 193.336ZM7.292 194.668V192.448C6.404 192.52 5.852 192.904 5.852 193.54C5.852 194.164 6.38 194.572 7.292 194.668Z" fill="#6E7079"/>
<path d="M56.5259 9.20898V7.26498H52.6739L52.5059 6.60498L56.5859 0.748984H57.3779V6.50898H58.4939V7.26498H57.3779V9.20898H56.5259ZM53.5259 6.50898H56.5259V2.16498L53.5259 6.50898ZM59.792 9.20898V7.97298H60.872V9.20898H59.792ZM64.6482 9.34098C63.6762 9.34098 62.8122 8.89698 62.1882 8.29698L62.7282 7.62498C63.2922 8.15298 63.9402 8.51298 64.6602 8.51298C65.7282 8.51298 66.4842 7.73298 66.4842 6.62898V6.59298C66.4842 5.48898 65.7042 4.84098 64.6602 4.84098C64.0602 4.84098 63.6042 5.00898 63.1962 5.22498L62.6202 4.82898L62.8362 0.808984H67.0362V1.64898H63.6162L63.4482 4.32498C63.8442 4.15698 64.2402 4.02498 64.8042 4.02498C66.2322 4.02498 67.3962 4.91298 67.3962 6.55698V6.59298C67.3962 8.22498 66.2322 9.34098 64.6482 9.34098Z" fill="#6E7079"/>
<path d="M65.5259 52.009V50.065H61.6739L61.5059 49.405L65.5859 43.549H66.3779V49.309H67.4939V50.065H66.3779V52.009H65.5259ZM62.5259 49.309H65.5259V44.965L62.5259 49.309Z" fill="#6E7079"/>
<path d="M55.7188 94.941C54.5908 94.941 53.7388 94.461 53.1628 93.789L53.7388 93.165C54.2428 93.741 54.8548 94.113 55.7188 94.113C56.6668 94.113 57.4228 93.453 57.4228 92.433V92.397C57.4228 91.317 56.4988 90.765 55.1908 90.765H54.8788L54.7468 90.201L57.0748 87.237H53.5107V86.409H58.2268V87.081L55.8748 90.045C57.1708 90.189 58.3348 90.885 58.3348 92.361V92.397C58.3348 93.921 57.1708 94.941 55.7188 94.941ZM59.792 94.809V93.573H60.872V94.809H59.792ZM64.6482 94.941C63.6762 94.941 62.8122 94.497 62.1882 93.897L62.7282 93.225C63.2922 93.753 63.9402 94.113 64.6602 94.113C65.7282 94.113 66.4842 93.333 66.4842 92.229V92.193C66.4842 91.089 65.7042 90.441 64.6602 90.441C64.0602 90.441 63.6042 90.609 63.1962 90.825L62.6202 90.429L62.8362 86.409H67.0362V87.249H63.6162L63.4482 89.925C63.8442 89.757 64.2402 89.625 64.8042 89.625C66.2322 89.625 67.3962 90.513 67.3962 92.157V92.193C67.3962 93.825 66.2322 94.941 64.6482 94.941Z" fill="#6E7079"/>
<path d="M64.7188 137.741C63.5908 137.741 62.7388 137.261 62.1628 136.589L62.7388 135.965C63.2428 136.541 63.8548 136.913 64.7188 136.913C65.6668 136.913 66.4228 136.253 66.4228 135.233V135.197C66.4228 134.117 65.4988 133.565 64.1908 133.565H63.8788L63.7468 133.001L66.0748 130.037H62.5107V129.209H67.2268V129.881L64.8748 132.845C66.1708 132.989 67.3348 133.685 67.3348 135.161V135.197C67.3348 136.721 66.1708 137.741 64.7188 137.741Z" fill="#6E7079"/>
<path d="M53.2696 180.409V179.713L55.9816 176.689C56.9896 175.609 57.3736 174.997 57.3736 174.217C57.3736 173.293 56.7016 172.717 55.8616 172.717C55.0936 172.717 54.5416 173.125 53.9776 173.917L53.3536 173.389C53.9776 172.453 54.7456 171.889 55.9456 171.889C57.3136 171.889 58.3096 172.813 58.3096 174.133V174.169C58.3096 175.249 57.7936 175.957 56.6176 177.193L54.5176 179.569H58.3696V180.409H53.2696ZM59.792 180.409V179.173H60.872V180.409H59.792ZM64.6482 180.541C63.6762 180.541 62.8122 180.097 62.1882 179.497L62.7282 178.825C63.2922 179.353 63.9402 179.713 64.6602 179.713C65.7282 179.713 66.4842 178.933 66.4842 177.829V177.793C66.4842 176.689 65.7042 176.041 64.6602 176.041C64.0602 176.041 63.6042 176.209 63.1962 176.425L62.6202 176.029L62.8362 172.009H67.0362V172.849H63.6162L63.4482 175.525C63.8442 175.357 64.2402 175.225 64.8042 175.225C66.2322 175.225 67.3962 176.113 67.3962 177.757V177.793C67.3962 179.425 66.2322 180.541 64.6482 180.541Z" fill="#6E7079"/>
<path d="M62.2696 223.209V222.513L64.9816 219.489C65.9896 218.409 66.3736 217.797 66.3736 217.017C66.3736 216.093 65.7016 215.517 64.8616 215.517C64.0936 215.517 63.5416 215.925 62.9776 216.717L62.3536 216.189C62.9776 215.253 63.7456 214.689 64.9456 214.689C66.3136 214.689 67.3096 215.613 67.3096 216.933V216.969C67.3096 218.049 66.7936 218.757 65.6176 219.993L63.5176 222.369H67.3696V223.209H62.2696Z" fill="#6E7079"/>
<path d="M57.0157 266.009V258.521L55.6477 259.001L55.4917 258.221L57.2317 257.561H57.9037V266.009H57.0157ZM59.792 266.009V264.773H60.872V266.009H59.792ZM64.6482 266.141C63.6762 266.141 62.8122 265.697 62.1882 265.097L62.7282 264.425C63.2922 264.953 63.9402 265.313 64.6602 265.313C65.7282 265.313 66.4842 264.533 66.4842 263.429V263.393C66.4842 262.289 65.7042 261.641 64.6602 261.641C64.0602 261.641 63.6042 261.809 63.1962 262.025L62.6202 261.629L62.8362 257.609H67.0362V258.449H63.6162L63.4482 261.125C63.8442 260.957 64.2402 260.825 64.8042 260.825C66.2322 260.825 67.3962 261.713 67.3962 263.357V263.393C67.3962 265.025 66.2322 266.141 64.6482 266.141Z" fill="#6E7079"/>
<path d="M66.0391 308.809V301.321L64.6711 301.801L64.5151 301.021L66.2551 300.361H66.9271V308.809H66.0391Z" fill="#6E7079"/>
<path d="M55.4887 351.741C53.6167 351.741 52.4527 349.989 52.4527 347.469V347.373C52.4527 344.853 53.6407 343.077 55.5007 343.077C57.3607 343.077 58.5367 344.829 58.5367 347.349V347.445C58.5367 349.965 57.3487 351.741 55.4887 351.741ZM55.5007 350.925C56.7847 350.925 57.6127 349.485 57.6127 347.469V347.373C57.6127 345.357 56.7607 343.893 55.4887 343.893C54.2047 343.893 53.3767 345.333 53.3767 347.349V347.445C53.3767 349.461 54.2167 350.925 55.5007 350.925ZM59.792 351.609V350.373H60.872V351.609H59.792ZM64.6482 351.741C63.6762 351.741 62.8122 351.297 62.1882 350.697L62.7282 350.025C63.2922 350.553 63.9402 350.913 64.6602 350.913C65.7282 350.913 66.4842 350.133 66.4842 349.029V348.993C66.4842 347.889 65.7042 347.241 64.6602 347.241C64.0602 347.241 63.6042 347.409 63.1962 347.625L62.6202 347.229L62.8362 343.209H67.0362V344.049H63.6162L63.4482 346.725C63.8442 346.557 64.2402 346.425 64.8042 346.425C66.2322 346.425 67.3962 347.313 67.3962 348.957V348.993C67.3962 350.625 66.2322 351.741 64.6482 351.741Z" fill="#6E7079"/>
<path d="M64.3012 394.541C62.4292 394.541 61.2652 392.789 61.2652 390.269V390.173C61.2652 387.653 62.4532 385.877 64.3132 385.877C66.1732 385.877 67.3492 387.629 67.3492 390.149V390.245C67.3492 392.765 66.1612 394.541 64.3012 394.541ZM64.3132 393.725C65.5972 393.725 66.4252 392.285 66.4252 390.269V390.173C66.4252 388.157 65.5732 386.693 64.3012 386.693C63.0172 386.693 62.1892 388.133 62.1892 390.149V390.245C62.1892 392.261 63.0292 393.725 64.3132 393.725Z" fill="#6E7079"/>
<path d="M48.0356 434.053V433.153H51.1196V434.053H48.0356ZM55.4887 437.341C53.6167 437.341 52.4527 435.589 52.4527 433.069V432.973C52.4527 430.453 53.6407 428.677 55.5007 428.677C57.3607 428.677 58.5367 430.429 58.5367 432.949V433.045C58.5367 435.565 57.3487 437.341 55.4887 437.341ZM55.5007 436.525C56.7847 436.525 57.6127 435.085 57.6127 433.069V432.973C57.6127 430.957 56.7607 429.493 55.4887 429.493C54.2047 429.493 53.3767 430.933 53.3767 432.949V433.045C53.3767 435.061 54.2167 436.525 55.5007 436.525ZM59.792 437.209V435.973H60.872V437.209H59.792ZM64.6482 437.341C63.6762 437.341 62.8122 436.897 62.1882 436.297L62.7282 435.625C63.2922 436.153 63.9402 436.513 64.6602 436.513C65.7282 436.513 66.4842 435.733 66.4842 434.629V434.593C66.4842 433.489 65.7042 432.841 64.6602 432.841C64.0602 432.841 63.6042 433.009 63.1962 433.225L62.6202 432.829L62.8362 428.809H67.0362V429.649H63.6162L63.4482 432.325C63.8442 432.157 64.2402 432.025 64.8042 432.025C66.2322 432.025 67.3962 432.913 67.3962 434.557V434.593C67.3962 436.225 66.2322 437.341 64.6482 437.341Z" fill="#6E7079"/>
</g>
<defs>
<clipPath id="clip0_24320_61496">
<rect width="914" height="474" fill="white" transform="translate(0 0.208984)"/>
</clipPath>
</defs>
</svg>
