<svg width="282" height="201" viewBox="0 0 282 201" fill="none" xmlns="http://www.w3.org/2000/svg">
<g clip-path="url(#clip0_20507_7096)">
<path d="M5.65527 139.162L0 147.161V200.262H282V0.261963L277.356 7.19049H273.228L266.52 14.119L261.36 21.0475L256.2 36.2903H250.008L243.817 47.3759L231.433 67.7901L214.9 91.7185L209.245 98.647H197.935L187.057 108.347L181.898 124.975L175.706 141.623L167.966 153.313L164.003 168.08L158.348 152.698L152.692 141.623L147.037 167.465L141.382 173.617L135.727 166.234L130.071 161.312L124.416 166.849L118.761 153.313L113.105 174.848L109.143 166.849H105.015L101.795 177.924L93.1469 160.697H90.4844L84.8291 147.161L73.5186 150.237L67.8633 147.776L62.208 133.009L58.5754 149.006L55.4795 160.697L45.2422 161.927L39.5869 176.694L33.9316 173.617L28.2764 166.234L22.6211 173.617L16.9658 165.619L11.3105 135.47L5.65527 139.162Z" fill="url(#paint0_linear_20507_7096)"/>
<path d="M0 180.161H282" stroke="#CBCBCB" stroke-width="0.4"/>
<path d="M0 151.016H282" stroke="#CBCBCB" stroke-width="0.4"/>
<path d="M0 120.865H282" stroke="#CBCBCB" stroke-width="0.4"/>
<path d="M0 90.7142H282" stroke="#CBCBCB" stroke-width="0.4"/>
<path d="M0 61.5685H282" stroke="#CBCBCB" stroke-width="0.4"/>
<path d="M0 31.4177H282" stroke="#CBCBCB" stroke-width="0.4"/>
<path d="M1.41016 148.267L7.06543 140.208L12.7207 136.488L18.376 166.864L24.0312 174.923L29.6865 167.484L35.3418 174.923L40.9971 178.022L46.6523 163.144L56.8896 161.905L59.9856 150.126L63.6182 134.009L69.2734 148.886L74.9287 151.366L86.2392 148.267L91.8945 161.905H94.5571L103.205 179.262L106.425 168.104H110.553L114.516 176.162L120.171 154.466L125.826 168.104L131.481 162.524L137.137 167.484L142.792 174.923L148.447 168.724L154.103 142.687L159.758 153.846L165.413 169.343L169.376 154.466L177.116 142.687L183.308 125.914L188.468 109.161L199.345 99.3878H210.655L216.311 92.4071L232.843 68.2985L245.227 47.7307L251.419 36.5616H257.611L262.77 21.204L267.93 14.2233L274.638 7.24265H278.766L283.41 0.261963" stroke="#373D43" stroke-linecap="round" stroke-linejoin="round"/>
</g>
<defs>
<linearGradient id="paint0_linear_20507_7096" x1="141.638" y1="131.691" x2="141.215" y2="200.263" gradientUnits="userSpaceOnUse">
<stop stop-color="#ADB5BD"/>
<stop offset="1" stop-color="#D9D9D9" stop-opacity="0"/>
</linearGradient>
<clipPath id="clip0_20507_7096">
<rect width="282" height="200" fill="white" transform="translate(0 0.261963)"/>
</clipPath>
</defs>
</svg>
