<svg xmlns="http://www.w3.org/2000/svg" width="200" height="200" viewBox="0 0 200 200" fill="none">
  <g clip-path="url(#clip0_13565_9761)">
    <path d="M4.01083 138.9L0 146.899V200H200V0L196.706 6.92852H193.779L189.021 13.857L185.362 20.7856L181.702 36.0283H177.311L172.92 47.114L164.137 67.5281L152.412 91.4565L148.401 98.385H140.379L132.665 108.085L129.005 124.713L124.614 141.361L119.125 153.051L116.314 167.818L112.303 152.436L108.292 141.361L104.282 167.203L100.271 173.355L96.26 165.972L92.2491 161.05L88.2383 166.587L84.2275 153.051L80.2166 174.586L77.4061 166.587H74.4785L72.195 177.662L66.0616 160.435H64.1733L60.1625 146.899L52.1408 149.975L48.13 147.514L44.1191 132.747L41.5429 148.744L39.3471 160.435L32.0867 161.665L28.0758 176.432L24.065 173.355L20.0542 165.972L16.0433 173.355L12.0325 165.357L8.02166 135.208L4.01083 138.9Z" fill="url(#paint0_linear_13565_9761)"/>
    <path d="M0 179.899H200" stroke="#CBCBCB" stroke-width="0.4"/>
    <path d="M0 150.754H200" stroke="#CBCBCB" stroke-width="0.4"/>
    <path d="M0 120.603H200" stroke="#CBCBCB" stroke-width="0.4"/>
    <path d="M0 90.4521H200" stroke="#CBCBCB" stroke-width="0.4"/>
    <path d="M0 61.3066H200" stroke="#CBCBCB" stroke-width="0.4"/>
    <path d="M0 31.1558H200" stroke="#CBCBCB" stroke-width="0.4"/>
    <path d="M1 148.005L5.01083 139.946L9.02166 136.226L13.0325 166.602L17.0433 174.661L21.0542 167.222L25.065 174.661L29.0758 177.76L33.0867 162.882L40.3471 161.643L42.5429 149.864L45.1191 133.747L49.13 148.625L53.1408 151.104L61.1625 148.005L65.1733 161.643H67.0616L73.195 179L75.4785 167.842H78.4061L81.2166 175.9L85.2275 154.204L89.2383 167.842L93.2491 162.262L97.26 167.222L101.271 174.661L105.282 168.462L109.292 142.425L113.303 153.584L117.314 169.081L120.125 154.204L125.614 142.425L130.005 125.652L133.665 108.899L141.379 99.1258H149.401L153.412 92.1451L165.137 68.0366L173.92 47.4687L178.311 36.2996H182.702L186.362 20.9421L190.021 13.9614L194.779 6.98069H197.706L201 0" stroke="#373D43" stroke-linecap="round" stroke-linejoin="round"/>
  </g>
  <defs>
    <linearGradient id="paint0_linear_13565_9761" x1="100.452" y1="131.429" x2="99.8561" y2="199.999" gradientUnits="userSpaceOnUse">
      <stop stop-color="#ADB5BD"/>
      <stop offset="1" stop-color="#D9D9D9" stop-opacity="0"/>
    </linearGradient>
    <clipPath id="clip0_13565_9761">
      <rect width="200" height="200" fill="white"/>
    </clipPath>
  </defs>
</svg>