<svg width="914" height="521" viewBox="0 0 914 521" fill="none" xmlns="http://www.w3.org/2000/svg">
<rect x="863.25" y="8.45898" width="24.5" height="13.5" rx="2.75" stroke="black" stroke-width="0.5"/>
<path d="M894.008 19.209V10.809H894.86L899.252 17.421V10.809H900.14V19.209H899.384L894.884 12.441V19.209H894.008ZM900.953 20.637L905.633 9.74098H906.413L901.745 20.637H900.953ZM905.607 19.209L908.811 10.761H909.699L912.903 19.209H911.943L911.127 17.001H907.347L906.531 19.209H905.607ZM907.647 16.185H910.827L909.243 11.925L907.647 16.185Z" fill="#495057"/>
<g clip-path="url(#clip0_15045_56159)">
<path d="M16 288.717H12.688L7.6 291.453V289.485L10.9 287.829L7.6 286.161L7.6 284.241L12.664 286.977H16V288.717ZM13.108 284.434H11.452V280.918H13.108L13.108 284.434ZM16 280.564L7.552 277.552V275.896L16 272.884V274.684L14.176 275.308V278.2L16 278.812V280.564ZM12.64 277.672V275.836L9.904 276.748L12.64 277.672ZM9.568 270.605L11.452 269.597L9.568 268.577V266.813L12.7 268.673L16 266.741V268.553L13.996 269.621L16 270.701V272.477L12.724 270.557L9.568 272.405V270.605ZM8.884 265.821H7.336V264.045H8.884V265.821ZM16 265.785H9.568V264.081H16L16 265.785ZM16.12 260.702C16.12 261.458 15.868 262.358 15.232 263.138L14.032 262.394C14.476 261.818 14.752 261.206 14.752 260.678C14.752 260.198 14.524 259.994 14.26 259.994H14.236C13.864 259.994 13.708 260.474 13.408 261.17C13.012 262.082 12.556 262.862 11.464 262.862H11.44C10.204 262.862 9.472 261.902 9.472 260.654C9.472 259.958 9.712 259.178 10.168 258.53L11.392 259.214C11.08 259.694 10.84 260.222 10.84 260.678C10.84 261.086 11.044 261.302 11.296 261.302H11.32C11.656 261.302 11.848 260.822 12.16 260.138C12.604 259.202 13.072 258.434 14.092 258.434H14.116C15.448 258.434 16.12 259.418 16.12 260.702ZM16.108 252.733C16.108 253.717 15.724 254.437 14.392 254.437H11.008V255.085H9.568V254.437H7.924V252.733H9.568V251.461H11.008V252.733H14.044C14.416 252.733 14.596 252.565 14.596 252.205C14.596 251.941 14.524 251.689 14.416 251.473H15.772C15.964 251.809 16.108 252.217 16.108 252.733ZM8.884 250.317H7.336L7.336 248.541H8.884V250.317ZM16 250.281H9.568V248.577H16V250.281ZM16.108 245.174C16.108 246.158 15.724 246.878 14.392 246.878H11.008V247.526H9.568V246.878H7.924L7.924 245.174H9.568V243.902H11.008V245.174H14.044C14.416 245.174 14.596 245.006 14.596 244.646C14.596 244.382 14.524 244.13 14.416 243.914H15.772C15.964 244.25 16.108 244.658 16.108 245.174ZM16 242.723H7.336V241.019H16V242.723ZM16.144 236.836C16.144 238.54 14.86 239.848 12.856 239.848H12.748C10.84 239.848 9.448 238.66 9.448 237.04C9.448 235.204 10.948 234.304 12.868 234.304C12.964 234.304 13.168 234.304 13.42 234.316V238.156C14.272 238.012 14.716 237.484 14.716 236.764C14.716 236.236 14.476 235.828 14.08 235.42L15.112 234.544C15.76 235.132 16.144 235.876 16.144 236.836ZM12.292 238.168V235.948C11.404 236.02 10.852 236.404 10.852 237.04C10.852 237.664 11.38 238.072 12.292 238.168Z" fill="#6E7079"/>
<mask id="path-4-inside-1_15045_56159" fill="white">
<path d="M24 43.209H75V482.209H24V43.209Z"/>
</mask>
<path d="M74 43.209V482.209H76V43.209H74Z" fill="#373D43" mask="url(#path-4-inside-1_15045_56159)"/>
<path d="M28.102 54.341C26.23 54.341 25.066 52.589 25.066 50.069V49.973C25.066 47.453 26.254 45.677 28.114 45.677C29.974 45.677 31.15 47.429 31.15 49.949V50.045C31.15 52.565 29.962 54.341 28.102 54.341ZM28.114 53.525C29.398 53.525 30.226 52.085 30.226 50.069V49.973C30.226 47.957 29.374 46.493 28.102 46.493C26.818 46.493 25.99 47.933 25.99 49.949V50.045C25.99 52.061 26.83 53.525 28.114 53.525ZM35.4848 54.341C33.6128 54.341 32.4488 52.589 32.4488 50.069V49.973C32.4488 47.453 33.6368 45.677 35.4968 45.677C37.3568 45.677 38.5328 47.429 38.5328 49.949V50.045C38.5328 52.565 37.3448 54.341 35.4848 54.341ZM35.4968 53.525C36.7808 53.525 37.6088 52.085 37.6088 50.069V49.973C37.6088 47.957 36.7568 46.493 35.4848 46.493C34.2008 46.493 33.3728 47.933 33.3728 49.949V50.045C33.3728 52.061 34.2128 53.525 35.4968 53.525ZM42.8676 54.341C40.9956 54.341 39.8316 52.589 39.8316 50.069V49.973C39.8316 47.453 41.0196 45.677 42.8796 45.677C44.7396 45.677 45.9156 47.429 45.9156 49.949V50.045C45.9156 52.565 44.7276 54.341 42.8676 54.341ZM42.8796 53.525C44.1636 53.525 44.9916 52.085 44.9916 50.069V49.973C44.9916 47.957 44.1396 46.493 42.8676 46.493C41.5836 46.493 40.7556 47.933 40.7556 49.949V50.045C40.7556 52.061 41.5956 53.525 42.8796 53.525ZM46.9789 55.661L46.8349 55.253C47.4229 55.037 47.6509 54.713 47.6149 54.209H47.1709V52.973H48.2509V54.029C48.2509 54.977 47.8549 55.433 46.9789 55.661ZM52.5356 54.341C50.6636 54.341 49.4996 52.589 49.4996 50.069V49.973C49.4996 47.453 50.6876 45.677 52.5476 45.677C54.4076 45.677 55.5836 47.429 55.5836 49.949V50.045C55.5836 52.565 54.3956 54.341 52.5356 54.341ZM52.5476 53.525C53.8316 53.525 54.6596 52.085 54.6596 50.069V49.973C54.6596 47.957 53.8076 46.493 52.5356 46.493C51.2516 46.493 50.4236 47.933 50.4236 49.949V50.045C50.4236 52.061 51.2636 53.525 52.5476 53.525ZM59.9184 54.341C58.0464 54.341 56.8824 52.589 56.8824 50.069V49.973C56.8824 47.453 58.0704 45.677 59.9304 45.677C61.7904 45.677 62.9664 47.429 62.9664 49.949V50.045C62.9664 52.565 61.7784 54.341 59.9184 54.341ZM59.9304 53.525C61.2144 53.525 62.0424 52.085 62.0424 50.069V49.973C62.0424 47.957 61.1904 46.493 59.9184 46.493C58.6344 46.493 57.8064 47.933 57.8064 49.949V50.045C57.8064 52.061 58.6464 53.525 59.9304 53.525ZM67.3012 54.341C65.4292 54.341 64.2652 52.589 64.2652 50.069V49.973C64.2652 47.453 65.4532 45.677 67.3132 45.677C69.1732 45.677 70.3492 47.429 70.3492 49.949V50.045C70.3492 52.565 69.1612 54.341 67.3012 54.341ZM67.3132 53.525C68.5972 53.525 69.4252 52.085 69.4252 50.069V49.973C69.4252 47.957 68.5732 46.493 67.3012 46.493C66.0172 46.493 65.1892 47.933 65.1892 49.949V50.045C65.1892 52.061 66.0292 53.525 67.3132 53.525Z" fill="#6E7079"/>
<path d="M28.102 115.055C26.23 115.055 25.066 113.303 25.066 110.783V110.687C25.066 108.167 26.254 106.391 28.114 106.391C29.974 106.391 31.15 108.143 31.15 110.663V110.759C31.15 113.279 29.962 115.055 28.102 115.055ZM28.114 114.239C29.398 114.239 30.226 112.799 30.226 110.783V110.687C30.226 108.671 29.374 107.207 28.102 107.207C26.818 107.207 25.99 108.647 25.99 110.663V110.759C25.99 112.775 26.83 114.239 28.114 114.239ZM35.4848 115.055C33.6128 115.055 32.4488 113.303 32.4488 110.783V110.687C32.4488 108.167 33.6368 106.391 35.4968 106.391C37.3568 106.391 38.5328 108.143 38.5328 110.663V110.759C38.5328 113.279 37.3448 115.055 35.4848 115.055ZM35.4968 114.239C36.7808 114.239 37.6088 112.799 37.6088 110.783V110.687C37.6088 108.671 36.7568 107.207 35.4848 107.207C34.2008 107.207 33.3728 108.647 33.3728 110.663V110.759C33.3728 112.775 34.2128 114.239 35.4968 114.239ZM42.8676 115.055C40.9956 115.055 39.8316 113.303 39.8316 110.783V110.687C39.8316 108.167 41.0196 106.391 42.8796 106.391C44.7396 106.391 45.9156 108.143 45.9156 110.663V110.759C45.9156 113.279 44.7276 115.055 42.8676 115.055ZM42.8796 114.239C44.1636 114.239 44.9916 112.799 44.9916 110.783V110.687C44.9916 108.671 44.1396 107.207 42.8676 107.207C41.5836 107.207 40.7556 108.647 40.7556 110.663V110.759C40.7556 112.775 41.5956 114.239 42.8796 114.239ZM46.9789 116.375L46.8349 115.967C47.4229 115.751 47.6509 115.427 47.6149 114.923H47.1709V113.687H48.2509V114.743C48.2509 115.691 47.8549 116.147 46.9789 116.375ZM52.5356 115.055C50.6636 115.055 49.4996 113.303 49.4996 110.783V110.687C49.4996 108.167 50.6876 106.391 52.5476 106.391C54.4076 106.391 55.5836 108.143 55.5836 110.663V110.759C55.5836 113.279 54.3956 115.055 52.5356 115.055ZM52.5476 114.239C53.8316 114.239 54.6596 112.799 54.6596 110.783V110.687C54.6596 108.671 53.8076 107.207 52.5356 107.207C51.2516 107.207 50.4236 108.647 50.4236 110.663V110.759C50.4236 112.775 51.2636 114.239 52.5476 114.239ZM59.9184 115.055C58.0464 115.055 56.8824 113.303 56.8824 110.783V110.687C56.8824 108.167 58.0704 106.391 59.9304 106.391C61.7904 106.391 62.9664 108.143 62.9664 110.663V110.759C62.9664 113.279 61.7784 115.055 59.9184 115.055ZM59.9304 114.239C61.2144 114.239 62.0424 112.799 62.0424 110.783V110.687C62.0424 108.671 61.1904 107.207 59.9184 107.207C58.6344 107.207 57.8064 108.647 57.8064 110.663V110.759C57.8064 112.775 58.6464 114.239 59.9304 114.239ZM67.3012 115.055C65.4292 115.055 64.2652 113.303 64.2652 110.783V110.687C64.2652 108.167 65.4532 106.391 67.3132 106.391C69.1732 106.391 70.3492 108.143 70.3492 110.663V110.759C70.3492 113.279 69.1612 115.055 67.3012 115.055ZM67.3132 114.239C68.5972 114.239 69.4252 112.799 69.4252 110.783V110.687C69.4252 108.671 68.5732 107.207 67.3012 107.207C66.0172 107.207 65.1892 108.647 65.1892 110.663V110.759C65.1892 112.775 66.0292 114.239 67.3132 114.239Z" fill="#6E7079"/>
<path d="M28.102 175.77C26.23 175.77 25.066 174.018 25.066 171.498V171.402C25.066 168.882 26.254 167.106 28.114 167.106C29.974 167.106 31.15 168.858 31.15 171.378V171.474C31.15 173.994 29.962 175.77 28.102 175.77ZM28.114 174.954C29.398 174.954 30.226 173.514 30.226 171.498V171.402C30.226 169.386 29.374 167.922 28.102 167.922C26.818 167.922 25.99 169.362 25.99 171.378V171.474C25.99 173.49 26.83 174.954 28.114 174.954ZM35.4848 175.77C33.6128 175.77 32.4488 174.018 32.4488 171.498V171.402C32.4488 168.882 33.6368 167.106 35.4968 167.106C37.3568 167.106 38.5328 168.858 38.5328 171.378V171.474C38.5328 173.994 37.3448 175.77 35.4848 175.77ZM35.4968 174.954C36.7808 174.954 37.6088 173.514 37.6088 171.498V171.402C37.6088 169.386 36.7568 167.922 35.4848 167.922C34.2008 167.922 33.3728 169.362 33.3728 171.378V171.474C33.3728 173.49 34.2128 174.954 35.4968 174.954ZM42.8676 175.77C40.9956 175.77 39.8316 174.018 39.8316 171.498V171.402C39.8316 168.882 41.0196 167.106 42.8796 167.106C44.7396 167.106 45.9156 168.858 45.9156 171.378V171.474C45.9156 173.994 44.7276 175.77 42.8676 175.77ZM42.8796 174.954C44.1636 174.954 44.9916 173.514 44.9916 171.498V171.402C44.9916 169.386 44.1396 167.922 42.8676 167.922C41.5836 167.922 40.7556 169.362 40.7556 171.378V171.474C40.7556 173.49 41.5956 174.954 42.8796 174.954ZM46.9789 177.09L46.8349 176.682C47.4229 176.466 47.6509 176.142 47.6149 175.638H47.1709V174.402H48.2509V175.458C48.2509 176.406 47.8549 176.862 46.9789 177.09ZM52.5356 175.77C50.6636 175.77 49.4996 174.018 49.4996 171.498V171.402C49.4996 168.882 50.6876 167.106 52.5476 167.106C54.4076 167.106 55.5836 168.858 55.5836 171.378V171.474C55.5836 173.994 54.3956 175.77 52.5356 175.77ZM52.5476 174.954C53.8316 174.954 54.6596 173.514 54.6596 171.498V171.402C54.6596 169.386 53.8076 167.922 52.5356 167.922C51.2516 167.922 50.4236 169.362 50.4236 171.378V171.474C50.4236 173.49 51.2636 174.954 52.5476 174.954ZM59.9184 175.77C58.0464 175.77 56.8824 174.018 56.8824 171.498V171.402C56.8824 168.882 58.0704 167.106 59.9304 167.106C61.7904 167.106 62.9664 168.858 62.9664 171.378V171.474C62.9664 173.994 61.7784 175.77 59.9184 175.77ZM59.9304 174.954C61.2144 174.954 62.0424 173.514 62.0424 171.498V171.402C62.0424 169.386 61.1904 167.922 59.9184 167.922C58.6344 167.922 57.8064 169.362 57.8064 171.378V171.474C57.8064 173.49 58.6464 174.954 59.9304 174.954ZM67.3012 175.77C65.4292 175.77 64.2652 174.018 64.2652 171.498V171.402C64.2652 168.882 65.4532 167.106 67.3132 167.106C69.1732 167.106 70.3492 168.858 70.3492 171.378V171.474C70.3492 173.994 69.1612 175.77 67.3012 175.77ZM67.3132 174.954C68.5972 174.954 69.4252 173.514 69.4252 171.498V171.402C69.4252 169.386 68.5732 167.922 67.3012 167.922C66.0172 167.922 65.1892 169.362 65.1892 171.378V171.474C65.1892 173.49 66.0292 174.954 67.3132 174.954Z" fill="#6E7079"/>
<path d="M28.102 236.484C26.23 236.484 25.066 234.732 25.066 232.212V232.116C25.066 229.596 26.254 227.82 28.114 227.82C29.974 227.82 31.15 229.572 31.15 232.092V232.188C31.15 234.708 29.962 236.484 28.102 236.484ZM28.114 235.668C29.398 235.668 30.226 234.228 30.226 232.212V232.116C30.226 230.1 29.374 228.636 28.102 228.636C26.818 228.636 25.99 230.076 25.99 232.092V232.188C25.99 234.204 26.83 235.668 28.114 235.668ZM35.4848 236.484C33.6128 236.484 32.4488 234.732 32.4488 232.212V232.116C32.4488 229.596 33.6368 227.82 35.4968 227.82C37.3568 227.82 38.5328 229.572 38.5328 232.092V232.188C38.5328 234.708 37.3448 236.484 35.4848 236.484ZM35.4968 235.668C36.7808 235.668 37.6088 234.228 37.6088 232.212V232.116C37.6088 230.1 36.7568 228.636 35.4848 228.636C34.2008 228.636 33.3728 230.076 33.3728 232.092V232.188C33.3728 234.204 34.2128 235.668 35.4968 235.668ZM42.8676 236.484C40.9956 236.484 39.8316 234.732 39.8316 232.212V232.116C39.8316 229.596 41.0196 227.82 42.8796 227.82C44.7396 227.82 45.9156 229.572 45.9156 232.092V232.188C45.9156 234.708 44.7276 236.484 42.8676 236.484ZM42.8796 235.668C44.1636 235.668 44.9916 234.228 44.9916 232.212V232.116C44.9916 230.1 44.1396 228.636 42.8676 228.636C41.5836 228.636 40.7556 230.076 40.7556 232.092V232.188C40.7556 234.204 41.5956 235.668 42.8796 235.668ZM46.9789 237.804L46.8349 237.396C47.4229 237.18 47.6509 236.856 47.6149 236.352H47.1709V235.116H48.2509V236.172C48.2509 237.12 47.8549 237.576 46.9789 237.804ZM52.5356 236.484C50.6636 236.484 49.4996 234.732 49.4996 232.212V232.116C49.4996 229.596 50.6876 227.82 52.5476 227.82C54.4076 227.82 55.5836 229.572 55.5836 232.092V232.188C55.5836 234.708 54.3956 236.484 52.5356 236.484ZM52.5476 235.668C53.8316 235.668 54.6596 234.228 54.6596 232.212V232.116C54.6596 230.1 53.8076 228.636 52.5356 228.636C51.2516 228.636 50.4236 230.076 50.4236 232.092V232.188C50.4236 234.204 51.2636 235.668 52.5476 235.668ZM59.9184 236.484C58.0464 236.484 56.8824 234.732 56.8824 232.212V232.116C56.8824 229.596 58.0704 227.82 59.9304 227.82C61.7904 227.82 62.9664 229.572 62.9664 232.092V232.188C62.9664 234.708 61.7784 236.484 59.9184 236.484ZM59.9304 235.668C61.2144 235.668 62.0424 234.228 62.0424 232.212V232.116C62.0424 230.1 61.1904 228.636 59.9184 228.636C58.6344 228.636 57.8064 230.076 57.8064 232.092V232.188C57.8064 234.204 58.6464 235.668 59.9304 235.668ZM67.3012 236.484C65.4292 236.484 64.2652 234.732 64.2652 232.212V232.116C64.2652 229.596 65.4532 227.82 67.3132 227.82C69.1732 227.82 70.3492 229.572 70.3492 232.092V232.188C70.3492 234.708 69.1612 236.484 67.3012 236.484ZM67.3132 235.668C68.5972 235.668 69.4252 234.228 69.4252 232.212V232.116C69.4252 230.1 68.5732 228.636 67.3012 228.636C66.0172 228.636 65.1892 230.076 65.1892 232.092V232.188C65.1892 234.204 66.0292 235.668 67.3132 235.668Z" fill="#6E7079"/>
<path d="M28.102 297.198C26.23 297.198 25.066 295.446 25.066 292.926V292.83C25.066 290.31 26.254 288.534 28.114 288.534C29.974 288.534 31.15 290.286 31.15 292.806V292.902C31.15 295.422 29.962 297.198 28.102 297.198ZM28.114 296.382C29.398 296.382 30.226 294.942 30.226 292.926V292.83C30.226 290.814 29.374 289.35 28.102 289.35C26.818 289.35 25.99 290.79 25.99 292.806V292.902C25.99 294.918 26.83 296.382 28.114 296.382ZM35.4848 297.198C33.6128 297.198 32.4488 295.446 32.4488 292.926V292.83C32.4488 290.31 33.6368 288.534 35.4968 288.534C37.3568 288.534 38.5328 290.286 38.5328 292.806V292.902C38.5328 295.422 37.3448 297.198 35.4848 297.198ZM35.4968 296.382C36.7808 296.382 37.6088 294.942 37.6088 292.926V292.83C37.6088 290.814 36.7568 289.35 35.4848 289.35C34.2008 289.35 33.3728 290.79 33.3728 292.806V292.902C33.3728 294.918 34.2128 296.382 35.4968 296.382ZM42.8676 297.198C40.9956 297.198 39.8316 295.446 39.8316 292.926V292.83C39.8316 290.31 41.0196 288.534 42.8796 288.534C44.7396 288.534 45.9156 290.286 45.9156 292.806V292.902C45.9156 295.422 44.7276 297.198 42.8676 297.198ZM42.8796 296.382C44.1636 296.382 44.9916 294.942 44.9916 292.926V292.83C44.9916 290.814 44.1396 289.35 42.8676 289.35C41.5836 289.35 40.7556 290.79 40.7556 292.806V292.902C40.7556 294.918 41.5956 296.382 42.8796 296.382ZM46.9789 298.518L46.8349 298.11C47.4229 297.894 47.6509 297.57 47.6149 297.066H47.1709V295.83H48.2509V296.886C48.2509 297.834 47.8549 298.29 46.9789 298.518ZM52.5356 297.198C50.6636 297.198 49.4996 295.446 49.4996 292.926V292.83C49.4996 290.31 50.6876 288.534 52.5476 288.534C54.4076 288.534 55.5836 290.286 55.5836 292.806V292.902C55.5836 295.422 54.3956 297.198 52.5356 297.198ZM52.5476 296.382C53.8316 296.382 54.6596 294.942 54.6596 292.926V292.83C54.6596 290.814 53.8076 289.35 52.5356 289.35C51.2516 289.35 50.4236 290.79 50.4236 292.806V292.902C50.4236 294.918 51.2636 296.382 52.5476 296.382ZM59.9184 297.198C58.0464 297.198 56.8824 295.446 56.8824 292.926V292.83C56.8824 290.31 58.0704 288.534 59.9304 288.534C61.7904 288.534 62.9664 290.286 62.9664 292.806V292.902C62.9664 295.422 61.7784 297.198 59.9184 297.198ZM59.9304 296.382C61.2144 296.382 62.0424 294.942 62.0424 292.926V292.83C62.0424 290.814 61.1904 289.35 59.9184 289.35C58.6344 289.35 57.8064 290.79 57.8064 292.806V292.902C57.8064 294.918 58.6464 296.382 59.9304 296.382ZM67.3012 297.198C65.4292 297.198 64.2652 295.446 64.2652 292.926V292.83C64.2652 290.31 65.4532 288.534 67.3132 288.534C69.1732 288.534 70.3492 290.286 70.3492 292.806V292.902C70.3492 295.422 69.1612 297.198 67.3012 297.198ZM67.3132 296.382C68.5972 296.382 69.4252 294.942 69.4252 292.926V292.83C69.4252 290.814 68.5732 289.35 67.3012 289.35C66.0172 289.35 65.1892 290.79 65.1892 292.806V292.902C65.1892 294.918 66.0292 296.382 67.3132 296.382Z" fill="#6E7079"/>
<path d="M28.102 357.912C26.23 357.912 25.066 356.16 25.066 353.64V353.544C25.066 351.024 26.254 349.248 28.114 349.248C29.974 349.248 31.15 351 31.15 353.52V353.616C31.15 356.136 29.962 357.912 28.102 357.912ZM28.114 357.096C29.398 357.096 30.226 355.656 30.226 353.64V353.544C30.226 351.528 29.374 350.064 28.102 350.064C26.818 350.064 25.99 351.504 25.99 353.52V353.616C25.99 355.632 26.83 357.096 28.114 357.096ZM35.4848 357.912C33.6128 357.912 32.4488 356.16 32.4488 353.64V353.544C32.4488 351.024 33.6368 349.248 35.4968 349.248C37.3568 349.248 38.5328 351 38.5328 353.52V353.616C38.5328 356.136 37.3448 357.912 35.4848 357.912ZM35.4968 357.096C36.7808 357.096 37.6088 355.656 37.6088 353.64V353.544C37.6088 351.528 36.7568 350.064 35.4848 350.064C34.2008 350.064 33.3728 351.504 33.3728 353.52V353.616C33.3728 355.632 34.2128 357.096 35.4968 357.096ZM42.8676 357.912C40.9956 357.912 39.8316 356.16 39.8316 353.64V353.544C39.8316 351.024 41.0196 349.248 42.8796 349.248C44.7396 349.248 45.9156 351 45.9156 353.52V353.616C45.9156 356.136 44.7276 357.912 42.8676 357.912ZM42.8796 357.096C44.1636 357.096 44.9916 355.656 44.9916 353.64V353.544C44.9916 351.528 44.1396 350.064 42.8676 350.064C41.5836 350.064 40.7556 351.504 40.7556 353.52V353.616C40.7556 355.632 41.5956 357.096 42.8796 357.096ZM46.9789 359.232L46.8349 358.824C47.4229 358.608 47.6509 358.284 47.6149 357.78H47.1709V356.544H48.2509V357.6C48.2509 358.548 47.8549 359.004 46.9789 359.232ZM52.5356 357.912C50.6636 357.912 49.4996 356.16 49.4996 353.64V353.544C49.4996 351.024 50.6876 349.248 52.5476 349.248C54.4076 349.248 55.5836 351 55.5836 353.52V353.616C55.5836 356.136 54.3956 357.912 52.5356 357.912ZM52.5476 357.096C53.8316 357.096 54.6596 355.656 54.6596 353.64V353.544C54.6596 351.528 53.8076 350.064 52.5356 350.064C51.2516 350.064 50.4236 351.504 50.4236 353.52V353.616C50.4236 355.632 51.2636 357.096 52.5476 357.096ZM59.9184 357.912C58.0464 357.912 56.8824 356.16 56.8824 353.64V353.544C56.8824 351.024 58.0704 349.248 59.9304 349.248C61.7904 349.248 62.9664 351 62.9664 353.52V353.616C62.9664 356.136 61.7784 357.912 59.9184 357.912ZM59.9304 357.096C61.2144 357.096 62.0424 355.656 62.0424 353.64V353.544C62.0424 351.528 61.1904 350.064 59.9184 350.064C58.6344 350.064 57.8064 351.504 57.8064 353.52V353.616C57.8064 355.632 58.6464 357.096 59.9304 357.096ZM67.3012 357.912C65.4292 357.912 64.2652 356.16 64.2652 353.64V353.544C64.2652 351.024 65.4532 349.248 67.3132 349.248C69.1732 349.248 70.3492 351 70.3492 353.52V353.616C70.3492 356.136 69.1612 357.912 67.3012 357.912ZM67.3132 357.096C68.5972 357.096 69.4252 355.656 69.4252 353.64V353.544C69.4252 351.528 68.5732 350.064 67.3012 350.064C66.0172 350.064 65.1892 351.504 65.1892 353.52V353.616C65.1892 355.632 66.0292 357.096 67.3132 357.096Z" fill="#6E7079"/>
<path d="M28.102 418.627C26.23 418.627 25.066 416.875 25.066 414.355V414.259C25.066 411.739 26.254 409.963 28.114 409.963C29.974 409.963 31.15 411.715 31.15 414.235V414.331C31.15 416.851 29.962 418.627 28.102 418.627ZM28.114 417.811C29.398 417.811 30.226 416.371 30.226 414.355V414.259C30.226 412.243 29.374 410.779 28.102 410.779C26.818 410.779 25.99 412.219 25.99 414.235V414.331C25.99 416.347 26.83 417.811 28.114 417.811ZM35.4848 418.627C33.6128 418.627 32.4488 416.875 32.4488 414.355V414.259C32.4488 411.739 33.6368 409.963 35.4968 409.963C37.3568 409.963 38.5328 411.715 38.5328 414.235V414.331C38.5328 416.851 37.3448 418.627 35.4848 418.627ZM35.4968 417.811C36.7808 417.811 37.6088 416.371 37.6088 414.355V414.259C37.6088 412.243 36.7568 410.779 35.4848 410.779C34.2008 410.779 33.3728 412.219 33.3728 414.235V414.331C33.3728 416.347 34.2128 417.811 35.4968 417.811ZM42.8676 418.627C40.9956 418.627 39.8316 416.875 39.8316 414.355V414.259C39.8316 411.739 41.0196 409.963 42.8796 409.963C44.7396 409.963 45.9156 411.715 45.9156 414.235V414.331C45.9156 416.851 44.7276 418.627 42.8676 418.627ZM42.8796 417.811C44.1636 417.811 44.9916 416.371 44.9916 414.355V414.259C44.9916 412.243 44.1396 410.779 42.8676 410.779C41.5836 410.779 40.7556 412.219 40.7556 414.235V414.331C40.7556 416.347 41.5956 417.811 42.8796 417.811ZM46.9789 419.947L46.8349 419.539C47.4229 419.323 47.6509 418.999 47.6149 418.495H47.1709V417.259H48.2509V418.315C48.2509 419.263 47.8549 419.719 46.9789 419.947ZM52.5356 418.627C50.6636 418.627 49.4996 416.875 49.4996 414.355V414.259C49.4996 411.739 50.6876 409.963 52.5476 409.963C54.4076 409.963 55.5836 411.715 55.5836 414.235V414.331C55.5836 416.851 54.3956 418.627 52.5356 418.627ZM52.5476 417.811C53.8316 417.811 54.6596 416.371 54.6596 414.355V414.259C54.6596 412.243 53.8076 410.779 52.5356 410.779C51.2516 410.779 50.4236 412.219 50.4236 414.235V414.331C50.4236 416.347 51.2636 417.811 52.5476 417.811ZM59.9184 418.627C58.0464 418.627 56.8824 416.875 56.8824 414.355V414.259C56.8824 411.739 58.0704 409.963 59.9304 409.963C61.7904 409.963 62.9664 411.715 62.9664 414.235V414.331C62.9664 416.851 61.7784 418.627 59.9184 418.627ZM59.9304 417.811C61.2144 417.811 62.0424 416.371 62.0424 414.355V414.259C62.0424 412.243 61.1904 410.779 59.9184 410.779C58.6344 410.779 57.8064 412.219 57.8064 414.235V414.331C57.8064 416.347 58.6464 417.811 59.9304 417.811ZM67.3012 418.627C65.4292 418.627 64.2652 416.875 64.2652 414.355V414.259C64.2652 411.739 65.4532 409.963 67.3132 409.963C69.1732 409.963 70.3492 411.715 70.3492 414.235V414.331C70.3492 416.851 69.1612 418.627 67.3012 418.627ZM67.3132 417.811C68.5972 417.811 69.4252 416.371 69.4252 414.355V414.259C69.4252 412.243 68.5732 410.779 67.3012 410.779C66.0172 410.779 65.1892 412.219 65.1892 414.235V414.331C65.1892 416.347 66.0292 417.811 67.3132 417.811Z" fill="#6E7079"/>
<path d="M67.3012 479.341C65.4292 479.341 64.2652 477.589 64.2652 475.069V474.973C64.2652 472.453 65.4532 470.677 67.3132 470.677C69.1732 470.677 70.3492 472.429 70.3492 474.949V475.045C70.3492 477.565 69.1612 479.341 67.3012 479.341ZM67.3132 478.525C68.5972 478.525 69.4252 477.085 69.4252 475.069V474.973C69.4252 472.957 68.5732 471.493 67.3012 471.493C66.0172 471.493 65.1892 472.933 65.1892 474.949V475.045C65.1892 477.061 66.0292 478.525 67.3132 478.525Z" fill="#6E7079"/>
<mask id="path-14-inside-2_15045_56159" fill="white">
<path d="M75 482.209H910V500.209H75V482.209Z"/>
</mask>
<path d="M75 483.209H910V481.209H75V483.209Z" fill="#373D43" mask="url(#path-14-inside-2_15045_56159)"/>
<path d="M113.423 497.329C112.343 497.329 111.383 496.957 110.507 496.141L111.071 495.457C111.767 496.105 112.487 496.501 113.435 496.501C114.443 496.501 115.115 495.889 115.115 495.085V495.073C115.115 494.377 114.779 493.933 113.255 493.393C111.515 492.745 110.831 492.121 110.831 490.933V490.909C110.831 489.649 111.887 488.689 113.363 488.689C114.335 488.689 115.139 488.989 115.883 489.637L115.343 490.333C114.719 489.793 114.059 489.517 113.327 489.517C112.367 489.517 111.743 490.105 111.743 490.825V490.849C111.743 491.581 112.115 492.001 113.699 492.577C115.403 493.213 116.027 493.897 116.027 495.013V495.037C116.027 496.381 114.923 497.329 113.423 497.329ZM119.949 497.341C118.425 497.341 117.177 496.117 117.177 494.137V494.077C117.177 492.169 118.293 490.837 119.757 490.837C121.329 490.837 122.265 492.181 122.265 494.065C122.265 494.149 122.265 494.317 122.253 494.425H118.053C118.149 495.805 119.001 496.573 119.985 496.573C120.669 496.573 121.173 496.285 121.605 495.853L122.097 496.405C121.533 496.981 120.885 497.341 119.949 497.341ZM118.053 493.753H121.401C121.341 492.565 120.777 491.593 119.757 491.593C118.833 491.593 118.137 492.445 118.053 493.753ZM123.654 497.209V490.957H124.518V492.337C124.89 491.461 125.646 490.825 126.666 490.873V491.809H126.618C125.454 491.809 124.518 492.625 124.518 494.233V497.209H123.654ZM127.885 489.673V488.653H128.845V489.673H127.885ZM127.933 497.209V490.957H128.797V497.209H127.933ZM133.086 497.341C131.562 497.341 130.314 496.117 130.314 494.137V494.077C130.314 492.169 131.43 490.837 132.894 490.837C134.466 490.837 135.402 492.181 135.402 494.065C135.402 494.149 135.402 494.317 135.39 494.425H131.19C131.286 495.805 132.138 496.573 133.122 496.573C133.806 496.573 134.31 496.285 134.742 495.853L135.234 496.405C134.67 496.981 134.022 497.341 133.086 497.341ZM131.19 493.753H134.538C134.478 492.565 133.914 491.593 132.894 491.593C131.97 491.593 131.274 492.445 131.19 493.753ZM138.482 497.317C137.714 497.317 136.886 497.017 136.226 496.441L136.682 495.805C137.27 496.297 137.882 496.561 138.506 496.561C139.19 496.561 139.67 496.177 139.67 495.589V495.577C139.67 495.025 139.154 494.737 138.314 494.389C137.318 493.957 136.526 493.561 136.526 492.589V492.565C136.526 491.545 137.354 490.861 138.47 490.861C139.178 490.861 139.91 491.137 140.438 491.533L140.018 492.193C139.538 491.845 138.998 491.605 138.446 491.605C137.786 491.605 137.366 491.989 137.366 492.481V492.505C137.366 493.033 137.906 493.297 138.758 493.657C139.79 494.113 140.51 494.545 140.51 495.493V495.517C140.51 496.633 139.61 497.317 138.482 497.317ZM145.977 497.209V489.721L144.609 490.201L144.453 489.421L146.193 488.761H146.865V497.209H145.977Z" fill="#6E7079"/>
<path d="M353.037 497.329C351.957 497.329 350.997 496.957 350.121 496.141L350.685 495.457C351.381 496.105 352.101 496.501 353.049 496.501C354.057 496.501 354.729 495.889 354.729 495.085V495.073C354.729 494.377 354.393 493.933 352.869 493.393C351.129 492.745 350.445 492.121 350.445 490.933V490.909C350.445 489.649 351.501 488.689 352.977 488.689C353.949 488.689 354.753 488.989 355.497 489.637L354.957 490.333C354.333 489.793 353.673 489.517 352.941 489.517C351.981 489.517 351.357 490.105 351.357 490.825V490.849C351.357 491.581 351.729 492.001 353.313 492.577C355.017 493.213 355.641 493.897 355.641 495.013V495.037C355.641 496.381 354.537 497.329 353.037 497.329ZM359.564 497.341C358.04 497.341 356.792 496.117 356.792 494.137V494.077C356.792 492.169 357.908 490.837 359.372 490.837C360.944 490.837 361.88 492.181 361.88 494.065C361.88 494.149 361.88 494.317 361.868 494.425H357.668C357.764 495.805 358.616 496.573 359.6 496.573C360.284 496.573 360.788 496.285 361.22 495.853L361.712 496.405C361.148 496.981 360.5 497.341 359.564 497.341ZM357.668 493.753H361.016C360.956 492.565 360.392 491.593 359.372 491.593C358.448 491.593 357.752 492.445 357.668 493.753ZM363.268 497.209V490.957H364.132V492.337C364.504 491.461 365.26 490.825 366.28 490.873V491.809H366.232C365.068 491.809 364.132 492.625 364.132 494.233V497.209H363.268ZM367.499 489.673V488.653H368.459V489.673H367.499ZM367.547 497.209V490.957H368.411V497.209H367.547ZM372.7 497.341C371.176 497.341 369.928 496.117 369.928 494.137V494.077C369.928 492.169 371.044 490.837 372.508 490.837C374.08 490.837 375.016 492.181 375.016 494.065C375.016 494.149 375.016 494.317 375.004 494.425H370.804C370.9 495.805 371.752 496.573 372.736 496.573C373.42 496.573 373.924 496.285 374.356 495.853L374.848 496.405C374.284 496.981 373.636 497.341 372.7 497.341ZM370.804 493.753H374.152C374.092 492.565 373.528 491.593 372.508 491.593C371.584 491.593 370.888 492.445 370.804 493.753ZM378.097 497.317C377.329 497.317 376.501 497.017 375.841 496.441L376.297 495.805C376.885 496.297 377.497 496.561 378.121 496.561C378.805 496.561 379.285 496.177 379.285 495.589V495.577C379.285 495.025 378.769 494.737 377.929 494.389C376.933 493.957 376.141 493.561 376.141 492.589V492.565C376.141 491.545 376.969 490.861 378.085 490.861C378.793 490.861 379.525 491.137 380.053 491.533L379.633 492.193C379.153 491.845 378.613 491.605 378.061 491.605C377.401 491.605 376.981 491.989 376.981 492.481V492.505C376.981 493.033 377.521 493.297 378.373 493.657C379.405 494.113 380.125 494.545 380.125 495.493V495.517C380.125 496.633 379.225 497.317 378.097 497.317ZM384.259 497.209V496.513L386.971 493.489C387.979 492.409 388.363 491.797 388.363 491.017C388.363 490.093 387.691 489.517 386.851 489.517C386.083 489.517 385.531 489.925 384.967 490.717L384.343 490.189C384.967 489.253 385.735 488.689 386.935 488.689C388.303 488.689 389.299 489.613 389.299 490.933V490.969C389.299 492.049 388.783 492.757 387.607 493.993L385.507 496.369H389.359V497.209H384.259Z" fill="#6E7079"/>
<path d="M595.347 497.329C594.267 497.329 593.307 496.957 592.431 496.141L592.995 495.457C593.691 496.105 594.411 496.501 595.359 496.501C596.367 496.501 597.039 495.889 597.039 495.085V495.073C597.039 494.377 596.703 493.933 595.179 493.393C593.439 492.745 592.755 492.121 592.755 490.933V490.909C592.755 489.649 593.811 488.689 595.287 488.689C596.259 488.689 597.063 488.989 597.807 489.637L597.267 490.333C596.643 489.793 595.983 489.517 595.251 489.517C594.291 489.517 593.667 490.105 593.667 490.825V490.849C593.667 491.581 594.039 492.001 595.623 492.577C597.327 493.213 597.951 493.897 597.951 495.013V495.037C597.951 496.381 596.847 497.329 595.347 497.329ZM601.873 497.341C600.349 497.341 599.101 496.117 599.101 494.137V494.077C599.101 492.169 600.217 490.837 601.681 490.837C603.253 490.837 604.189 492.181 604.189 494.065C604.189 494.149 604.189 494.317 604.177 494.425H599.977C600.073 495.805 600.925 496.573 601.909 496.573C602.593 496.573 603.097 496.285 603.529 495.853L604.021 496.405C603.457 496.981 602.809 497.341 601.873 497.341ZM599.977 493.753H603.325C603.265 492.565 602.701 491.593 601.681 491.593C600.757 491.593 600.061 492.445 599.977 493.753ZM605.578 497.209V490.957H606.442V492.337C606.814 491.461 607.57 490.825 608.59 490.873V491.809H608.542C607.378 491.809 606.442 492.625 606.442 494.233V497.209H605.578ZM609.809 489.673V488.653H610.769V489.673H609.809ZM609.857 497.209V490.957H610.721V497.209H609.857ZM615.01 497.341C613.486 497.341 612.238 496.117 612.238 494.137V494.077C612.238 492.169 613.354 490.837 614.818 490.837C616.39 490.837 617.326 492.181 617.326 494.065C617.326 494.149 617.326 494.317 617.314 494.425H613.114C613.21 495.805 614.062 496.573 615.046 496.573C615.73 496.573 616.234 496.285 616.666 495.853L617.158 496.405C616.594 496.981 615.946 497.341 615.01 497.341ZM613.114 493.753H616.462C616.402 492.565 615.838 491.593 614.818 491.593C613.894 491.593 613.198 492.445 613.114 493.753ZM620.407 497.317C619.639 497.317 618.811 497.017 618.151 496.441L618.607 495.805C619.195 496.297 619.807 496.561 620.431 496.561C621.115 496.561 621.595 496.177 621.595 495.589V495.577C621.595 495.025 621.079 494.737 620.239 494.389C619.243 493.957 618.451 493.561 618.451 492.589V492.565C618.451 491.545 619.279 490.861 620.395 490.861C621.103 490.861 621.835 491.137 622.363 491.533L621.943 492.193C621.463 491.845 620.923 491.605 620.371 491.605C619.711 491.605 619.291 491.989 619.291 492.481V492.505C619.291 493.033 619.831 493.297 620.683 493.657C621.715 494.113 622.435 494.545 622.435 495.493V495.517C622.435 496.633 621.535 497.317 620.407 497.317ZM629.065 497.341C627.937 497.341 627.085 496.861 626.509 496.189L627.085 495.565C627.589 496.141 628.201 496.513 629.065 496.513C630.013 496.513 630.769 495.853 630.769 494.833V494.797C630.769 493.717 629.845 493.165 628.537 493.165H628.225L628.093 492.601L630.421 489.637H626.857V488.809H631.573V489.481L629.221 492.445C630.517 492.589 631.681 493.285 631.681 494.761V494.797C631.681 496.321 630.517 497.341 629.065 497.341Z" fill="#6E7079"/>
<path d="M837.364 497.329C836.284 497.329 835.324 496.957 834.448 496.141L835.012 495.457C835.708 496.105 836.428 496.501 837.376 496.501C838.384 496.501 839.056 495.889 839.056 495.085V495.073C839.056 494.377 838.72 493.933 837.196 493.393C835.456 492.745 834.772 492.121 834.772 490.933V490.909C834.772 489.649 835.828 488.689 837.304 488.689C838.276 488.689 839.08 488.989 839.824 489.637L839.284 490.333C838.66 489.793 838 489.517 837.268 489.517C836.308 489.517 835.684 490.105 835.684 490.825V490.849C835.684 491.581 836.056 492.001 837.64 492.577C839.344 493.213 839.968 493.897 839.968 495.013V495.037C839.968 496.381 838.864 497.329 837.364 497.329ZM843.89 497.341C842.366 497.341 841.118 496.117 841.118 494.137V494.077C841.118 492.169 842.234 490.837 843.698 490.837C845.27 490.837 846.206 492.181 846.206 494.065C846.206 494.149 846.206 494.317 846.194 494.425H841.994C842.09 495.805 842.942 496.573 843.926 496.573C844.61 496.573 845.114 496.285 845.546 495.853L846.038 496.405C845.474 496.981 844.826 497.341 843.89 497.341ZM841.994 493.753H845.342C845.282 492.565 844.718 491.593 843.698 491.593C842.774 491.593 842.078 492.445 841.994 493.753ZM847.595 497.209V490.957H848.459V492.337C848.831 491.461 849.587 490.825 850.607 490.873V491.809H850.559C849.395 491.809 848.459 492.625 848.459 494.233V497.209H847.595ZM851.826 489.673V488.653H852.786V489.673H851.826ZM851.874 497.209V490.957H852.738V497.209H851.874ZM857.027 497.341C855.503 497.341 854.255 496.117 854.255 494.137V494.077C854.255 492.169 855.371 490.837 856.835 490.837C858.407 490.837 859.343 492.181 859.343 494.065C859.343 494.149 859.343 494.317 859.331 494.425H855.131C855.227 495.805 856.079 496.573 857.063 496.573C857.747 496.573 858.251 496.285 858.683 495.853L859.175 496.405C858.611 496.981 857.963 497.341 857.027 497.341ZM855.131 493.753H858.479C858.419 492.565 857.855 491.593 856.835 491.593C855.911 491.593 855.215 492.445 855.131 493.753ZM862.424 497.317C861.656 497.317 860.828 497.017 860.168 496.441L860.624 495.805C861.212 496.297 861.824 496.561 862.448 496.561C863.132 496.561 863.612 496.177 863.612 495.589V495.577C863.612 495.025 863.096 494.737 862.256 494.389C861.26 493.957 860.468 493.561 860.468 492.589V492.565C860.468 491.545 861.296 490.861 862.412 490.861C863.12 490.861 863.852 491.137 864.38 491.533L863.96 492.193C863.48 491.845 862.94 491.605 862.388 491.605C861.728 491.605 861.308 491.989 861.308 492.481V492.505C861.308 493.033 861.848 493.297 862.7 493.657C863.732 494.113 864.452 494.545 864.452 495.493V495.517C864.452 496.633 863.552 497.317 862.424 497.317ZM872.522 497.209V495.265H868.67L868.502 494.605L872.582 488.749H873.374V494.509H874.49V495.265H873.374V497.209H872.522ZM869.522 494.509H872.522V490.165L869.522 494.509Z" fill="#6E7079"/>
<path d="M468.256 507.809H470.188L467.788 511.913L470.284 516.209H468.304L466.768 513.329L465.22 516.209H463.288L465.772 511.937L463.396 507.809H465.376L466.804 510.533L468.256 507.809ZM470.584 513.317V511.661H474.1V513.317H470.584ZM474.454 516.209L477.466 507.761H479.122L482.134 516.209H480.334L479.71 514.385H476.818L476.206 516.209H474.454ZM477.346 512.849H479.182L478.27 510.113L477.346 512.849ZM484.412 509.777L485.42 511.661L486.44 509.777H488.204L486.344 512.909L488.276 516.209H486.464L485.396 514.205L484.316 516.209H482.54L484.46 512.933L482.612 509.777H484.412ZM489.196 509.093V507.545H490.972V509.093H489.196ZM489.232 516.209V509.777H490.936V516.209H489.232ZM494.316 516.329C493.56 516.329 492.66 516.077 491.88 515.441L492.624 514.241C493.2 514.685 493.812 514.961 494.34 514.961C494.82 514.961 495.024 514.733 495.024 514.469V514.445C495.024 514.073 494.544 513.917 493.848 513.617C492.936 513.221 492.156 512.765 492.156 511.673V511.649C492.156 510.413 493.116 509.681 494.364 509.681C495.06 509.681 495.84 509.921 496.488 510.377L495.804 511.601C495.324 511.289 494.796 511.049 494.34 511.049C493.932 511.049 493.716 511.253 493.716 511.505V511.529C493.716 511.865 494.196 512.057 494.88 512.369C495.816 512.813 496.584 513.281 496.584 514.301V514.325C496.584 515.657 495.6 516.329 494.316 516.329ZM502.285 516.317C501.301 516.317 500.581 515.933 500.581 514.601V511.217H499.933V509.777H500.581V508.133H502.285V509.777H503.557V511.217H502.285V514.253C502.285 514.625 502.453 514.805 502.813 514.805C503.077 514.805 503.329 514.733 503.545 514.625V515.981C503.209 516.173 502.801 516.317 502.285 516.317ZM504.7 509.093V507.545H506.476V509.093H504.7ZM504.736 516.209V509.777H506.44V516.209H504.736ZM509.843 516.317C508.859 516.317 508.139 515.933 508.139 514.601V511.217H507.491V509.777H508.139V508.133H509.843V509.777H511.115V511.217H509.843V514.253C509.843 514.625 510.011 514.805 510.371 514.805C510.635 514.805 510.887 514.733 511.103 514.625V515.981C510.767 516.173 510.359 516.317 509.843 516.317ZM512.295 516.209V507.545H513.999V516.209H512.295ZM518.182 516.353C516.478 516.353 515.17 515.069 515.17 513.065V512.957C515.17 511.049 516.358 509.657 517.978 509.657C519.814 509.657 520.714 511.157 520.714 513.077C520.714 513.173 520.714 513.377 520.702 513.629H516.862C517.006 514.481 517.534 514.925 518.254 514.925C518.782 514.925 519.19 514.685 519.598 514.289L520.474 515.321C519.886 515.969 519.142 516.353 518.182 516.353ZM516.85 512.501H519.07C518.998 511.613 518.614 511.061 517.978 511.061C517.354 511.061 516.946 511.589 516.85 512.501Z" fill="#6E7079"/>
</g>
<defs>
<clipPath id="clip0_15045_56159">
<rect width="914" height="474" fill="white" transform="translate(0 46.209)"/>
</clipPath>
</defs>
</svg>
