<svg width="896" height="584" viewBox="0 0 896 584" fill="none" xmlns="http://www.w3.org/2000/svg">
<path d="M44.4615 568.825H887.266" stroke="#CFD4DA" stroke-width="0.727864"/>
<path d="M44.4615 490.944H887.266" stroke="#CFD4DA" stroke-width="0.727864"/>
<path d="M44.4615 413.063H887.266" stroke="#CFD4DA" stroke-width="0.727864"/>
<path d="M44.4615 335.181H887.266" stroke="#CFD4DA" stroke-width="0.727864"/>
<path d="M44.4615 257.3H887.266" stroke="#CFD4DA" stroke-width="0.727864"/>
<path d="M44.4615 180.146H887.266" stroke="#CFD4DA" stroke-width="0.727864"/>
<path d="M44.4615 102.265H887.266" stroke="#CFD4DA" stroke-width="0.727864"/>
<path d="M44.4615 24.3834H887.266" stroke="#CFD4DA" stroke-width="0.727864"/>
<path d="M44.4615 568.825H887.266" stroke="#6E7079" stroke-width="0.727864" stroke-linecap="round"/>
<path d="M74.606 568.461V572.101" stroke="#6E7079" stroke-width="0.727864"/>
<path d="M375.942 568.461V572.101" stroke="#6E7079" stroke-width="0.727864"/>
<path d="M676.549 568.461V572.101" stroke="#6E7079" stroke-width="0.727864"/>
<path d="M887.63 568.461V572.101" stroke="#6E7079" stroke-width="0.727864"/>
<path d="M35.1235 570.735C33.7609 570.735 32.9137 569.459 32.9137 567.625V567.555C32.9137 565.721 33.7784 564.428 35.1322 564.428C36.486 564.428 37.342 565.704 37.342 567.538V567.608C37.342 569.442 36.4773 570.735 35.1235 570.735ZM35.1322 570.141C36.0668 570.141 36.6695 569.093 36.6695 567.625V567.555C36.6695 566.088 36.0493 565.022 35.1235 565.022C34.1889 565.022 33.5862 566.07 33.5862 567.538V567.608C33.5862 569.075 34.1976 570.141 35.1322 570.141Z" fill="#6E7079"/>
<path d="M35.4647 494.309C34.1021 494.309 33.2549 493.034 33.2549 491.2V491.13C33.2549 489.295 34.1196 488.003 35.4734 488.003C36.8272 488.003 37.6832 489.278 37.6832 491.112V491.182C37.6832 493.016 36.8185 494.309 35.4647 494.309ZM35.4734 493.715C36.408 493.715 37.0106 492.667 37.0106 491.2V491.13C37.0106 489.662 36.3905 488.597 35.4647 488.597C34.5301 488.597 33.9274 489.645 33.9274 491.112V491.182C33.9274 492.649 34.5388 493.715 35.4734 493.715Z" fill="#6E7079"/>
<path d="M35.7368 416.428C34.3742 416.428 33.527 415.152 33.527 413.318V413.248C33.527 411.414 34.3917 410.121 35.7455 410.121C37.0993 410.121 37.9553 411.397 37.9553 413.231V413.301C37.9553 415.135 37.0906 416.428 35.7368 416.428ZM35.7455 415.834C36.6801 415.834 37.2828 414.785 37.2828 413.318V413.248C37.2828 411.781 36.6626 410.715 35.7368 410.715C34.8022 410.715 34.1995 411.763 34.1995 413.231V413.301C34.1995 414.768 34.8109 415.834 35.7455 415.834Z" fill="#6E7079"/>
<path d="M35.4647 338.546C34.1021 338.546 33.2549 337.271 33.2549 335.437V335.367C33.2549 333.533 34.1196 332.24 35.4734 332.24C36.8272 332.24 37.6832 333.515 37.6832 335.349V335.419C37.6832 337.253 36.8185 338.546 35.4647 338.546ZM35.4734 337.952C36.408 337.952 37.0106 336.904 37.0106 335.437V335.367C37.0106 333.899 36.3905 332.834 35.4647 332.834C34.5301 332.834 33.9274 333.882 33.9274 335.349V335.419C33.9274 336.887 34.5388 337.952 35.4734 337.952Z" fill="#6E7079"/>
<path d="M35.4647 260.665C34.1021 260.665 33.2549 259.39 33.2549 257.555V257.485C33.2549 255.651 34.1196 254.359 35.4734 254.359C36.8272 254.359 37.6832 255.634 37.6832 257.468V257.538C37.6832 259.372 36.8185 260.665 35.4647 260.665ZM35.4734 260.071C36.408 260.071 37.0106 259.023 37.0106 257.555V257.485C37.0106 256.018 36.3905 254.952 35.4647 254.952C34.5301 254.952 33.9274 256.001 33.9274 257.468V257.538C33.9274 259.005 34.5388 260.071 35.4734 260.071Z" fill="#6E7079"/>
<path d="M35.3696 183.511C34.0071 183.511 33.1598 182.236 33.1598 180.402V180.332C33.1598 178.498 34.0245 177.205 35.3783 177.205C36.7322 177.205 37.5881 178.48 37.5881 180.314V180.384C37.5881 182.219 36.7234 183.511 35.3696 183.511ZM35.3783 182.917C36.3129 182.917 36.9156 181.869 36.9156 180.402V180.332C36.9156 178.865 36.2955 177.799 35.3696 177.799C34.435 177.799 33.8324 178.847 33.8324 180.314V180.384C33.8324 181.852 34.4438 182.917 35.3783 182.917Z" fill="#6E7079"/>
<path d="M35.0975 105.63C33.7349 105.63 32.8877 104.355 32.8877 102.52V102.45C32.8877 100.616 33.7524 99.3236 35.1062 99.3236C36.46 99.3236 37.316 100.599 37.316 102.433V102.503C37.316 104.337 36.4513 105.63 35.0975 105.63ZM35.1062 105.036C36.0408 105.036 36.6435 103.988 36.6435 102.52V102.45C36.6435 100.983 36.0233 99.9175 35.0975 99.9175C34.1629 99.9175 33.5602 100.966 33.5602 102.433V102.503C33.5602 103.97 34.1716 105.036 35.1062 105.036Z" fill="#6E7079"/>
<path d="M35.3696 27.7484C34.0071 27.7484 33.1598 26.4732 33.1598 24.639V24.5691C33.1598 22.7349 34.0245 21.4422 35.3783 21.4422C36.7322 21.4422 37.5881 22.7174 37.5881 24.5516V24.6215C37.5881 26.4557 36.7234 27.7484 35.3696 27.7484ZM35.3783 27.1545C36.3129 27.1545 36.9156 26.1063 36.9156 24.639V24.5691C36.9156 23.1017 36.2955 22.0361 35.3696 22.0361C34.435 22.0361 33.8324 23.0842 33.8324 24.5516V24.6215C33.8324 26.0889 34.4438 27.1545 35.3783 27.1545Z" fill="#6E7079"/>
</svg>
