<svg width="914" height="520" viewBox="0 0 914 520" fill="none" xmlns="http://www.w3.org/2000/svg">
<rect x="863.25" y="8.25" width="24.5" height="13.5" rx="2.75" stroke="black" stroke-width="0.5"/>
<path d="M894.008 19V10.6H894.86L899.252 17.212V10.6H900.14V19H899.384L894.884 12.232V19H894.008ZM900.953 20.428L905.633 9.532H906.413L901.745 20.428H900.953ZM905.607 19L908.811 10.552H909.699L912.903 19H911.943L911.127 16.792H907.347L906.531 19H905.607ZM907.647 15.976H910.827L909.243 11.716L907.647 15.976Z" fill="#495057"/>
<path d="M11 291.508H7.688L2.6 294.244L2.6 292.276L5.9 290.62L2.6 288.952L2.6 287.032L7.664 289.768H11V291.508ZM8.108 287.225H6.452V283.709H8.108L8.108 287.225ZM11 283.355L2.552 280.343L2.552 278.687L11 275.675V277.475L9.176 278.099V280.991L11 281.603V283.355ZM7.64 280.463V278.627L4.904 279.539L7.64 280.463ZM4.568 273.396L6.452 272.388L4.568 271.368V269.604L7.7 271.464L11 269.532V271.344L8.996 272.412L11 273.492V275.268L7.724 273.348L4.568 275.196V273.396ZM3.884 268.612H2.336V266.836H3.884V268.612ZM11 268.576H4.568V266.872H11L11 268.576ZM11.12 263.493C11.12 264.249 10.868 265.149 10.232 265.929L9.032 265.185C9.476 264.609 9.752 263.997 9.752 263.469C9.752 262.989 9.524 262.785 9.26 262.785H9.236C8.864 262.785 8.708 263.265 8.408 263.961C8.012 264.873 7.556 265.653 6.464 265.653H6.44C5.204 265.653 4.472 264.693 4.472 263.445C4.472 262.749 4.712 261.969 5.168 261.321L6.392 262.005C6.08 262.485 5.84 263.013 5.84 263.469C5.84 263.877 6.044 264.093 6.296 264.093H6.32C6.656 264.093 6.848 263.613 7.16 262.929C7.604 261.993 8.072 261.225 9.092 261.225H9.116C10.448 261.225 11.12 262.209 11.12 263.493ZM11.108 255.524C11.108 256.508 10.724 257.228 9.392 257.228H6.008V257.876H4.568V257.228H2.924L2.924 255.524H4.568L4.568 254.252H6.008L6.008 255.524H9.044C9.416 255.524 9.596 255.356 9.596 254.996C9.596 254.732 9.524 254.48 9.416 254.264H10.772C10.964 254.6 11.108 255.008 11.108 255.524ZM3.884 253.108H2.336L2.336 251.332H3.884L3.884 253.108ZM11 253.072H4.568V251.368H11V253.072ZM11.108 247.965C11.108 248.949 10.724 249.669 9.392 249.669H6.008V250.317H4.568V249.669H2.924L2.924 247.965H4.568V246.693H6.008V247.965H9.044C9.416 247.965 9.596 247.797 9.596 247.437C9.596 247.173 9.524 246.921 9.416 246.705H10.772C10.964 247.041 11.108 247.449 11.108 247.965ZM11 245.514H2.336V243.81H11V245.514ZM11.144 239.627C11.144 241.331 9.86 242.639 7.856 242.639H7.748C5.84 242.639 4.448 241.451 4.448 239.831C4.448 237.995 5.948 237.095 7.868 237.095C7.964 237.095 8.168 237.095 8.42 237.107V240.947C9.272 240.803 9.716 240.275 9.716 239.555C9.716 239.027 9.476 238.619 9.08 238.211L10.112 237.335C10.76 237.923 11.144 238.667 11.144 239.627ZM7.292 240.959V238.739C6.404 238.811 5.852 239.195 5.852 239.831C5.852 240.455 6.38 240.863 7.292 240.959Z" fill="#6E7079"/>
<path d="M23.102 57.132C21.23 57.132 20.066 55.38 20.066 52.86V52.764C20.066 50.244 21.254 48.468 23.114 48.468C24.974 48.468 26.15 50.22 26.15 52.74V52.836C26.15 55.356 24.962 57.132 23.102 57.132ZM23.114 56.316C24.398 56.316 25.226 54.876 25.226 52.86V52.764C25.226 50.748 24.374 49.284 23.102 49.284C21.818 49.284 20.99 50.724 20.99 52.74V52.836C20.99 54.852 21.83 56.316 23.114 56.316ZM30.4848 57.132C28.6128 57.132 27.4488 55.38 27.4488 52.86V52.764C27.4488 50.244 28.6368 48.468 30.4968 48.468C32.3568 48.468 33.5328 50.22 33.5328 52.74V52.836C33.5328 55.356 32.3448 57.132 30.4848 57.132ZM30.4968 56.316C31.7808 56.316 32.6088 54.876 32.6088 52.86V52.764C32.6088 50.748 31.7568 49.284 30.4848 49.284C29.2008 49.284 28.3728 50.724 28.3728 52.74V52.836C28.3728 54.852 29.2128 56.316 30.4968 56.316ZM37.8676 57.132C35.9956 57.132 34.8316 55.38 34.8316 52.86V52.764C34.8316 50.244 36.0196 48.468 37.8796 48.468C39.7396 48.468 40.9156 50.22 40.9156 52.74V52.836C40.9156 55.356 39.7276 57.132 37.8676 57.132ZM37.8796 56.316C39.1636 56.316 39.9916 54.876 39.9916 52.86V52.764C39.9916 50.748 39.1396 49.284 37.8676 49.284C36.5836 49.284 35.7556 50.724 35.7556 52.74V52.836C35.7556 54.852 36.5956 56.316 37.8796 56.316ZM41.9789 58.452L41.8349 58.044C42.4229 57.828 42.6509 57.504 42.6149 57H42.1709V55.764H43.2509V56.82C43.2509 57.768 42.8549 58.224 41.9789 58.452ZM47.5356 57.132C45.6636 57.132 44.4996 55.38 44.4996 52.86V52.764C44.4996 50.244 45.6876 48.468 47.5476 48.468C49.4076 48.468 50.5836 50.22 50.5836 52.74V52.836C50.5836 55.356 49.3956 57.132 47.5356 57.132ZM47.5476 56.316C48.8316 56.316 49.6596 54.876 49.6596 52.86V52.764C49.6596 50.748 48.8076 49.284 47.5356 49.284C46.2516 49.284 45.4236 50.724 45.4236 52.74V52.836C45.4236 54.852 46.2636 56.316 47.5476 56.316ZM54.9184 57.132C53.0464 57.132 51.8824 55.38 51.8824 52.86V52.764C51.8824 50.244 53.0704 48.468 54.9304 48.468C56.7904 48.468 57.9664 50.22 57.9664 52.74V52.836C57.9664 55.356 56.7784 57.132 54.9184 57.132ZM54.9304 56.316C56.2144 56.316 57.0424 54.876 57.0424 52.86V52.764C57.0424 50.748 56.1904 49.284 54.9184 49.284C53.6344 49.284 52.8064 50.724 52.8064 52.74V52.836C52.8064 54.852 53.6464 56.316 54.9304 56.316ZM62.3012 57.132C60.4292 57.132 59.2652 55.38 59.2652 52.86V52.764C59.2652 50.244 60.4532 48.468 62.3132 48.468C64.1732 48.468 65.3492 50.22 65.3492 52.74V52.836C65.3492 55.356 64.1612 57.132 62.3012 57.132ZM62.3132 56.316C63.5972 56.316 64.4252 54.876 64.4252 52.86V52.764C64.4252 50.748 63.5732 49.284 62.3012 49.284C61.0172 49.284 60.1892 50.724 60.1892 52.74V52.836C60.1892 54.852 61.0292 56.316 62.3132 56.316Z" fill="#6E7079"/>
<path d="M23.102 117.846C21.23 117.846 20.066 116.094 20.066 113.574V113.478C20.066 110.958 21.254 109.182 23.114 109.182C24.974 109.182 26.15 110.934 26.15 113.454V113.55C26.15 116.07 24.962 117.846 23.102 117.846ZM23.114 117.03C24.398 117.03 25.226 115.59 25.226 113.574V113.478C25.226 111.462 24.374 109.998 23.102 109.998C21.818 109.998 20.99 111.438 20.99 113.454V113.55C20.99 115.566 21.83 117.03 23.114 117.03ZM30.4848 117.846C28.6128 117.846 27.4488 116.094 27.4488 113.574V113.478C27.4488 110.958 28.6368 109.182 30.4968 109.182C32.3568 109.182 33.5328 110.934 33.5328 113.454V113.55C33.5328 116.07 32.3448 117.846 30.4848 117.846ZM30.4968 117.03C31.7808 117.03 32.6088 115.59 32.6088 113.574V113.478C32.6088 111.462 31.7568 109.998 30.4848 109.998C29.2008 109.998 28.3728 111.438 28.3728 113.454V113.55C28.3728 115.566 29.2128 117.03 30.4968 117.03ZM37.8676 117.846C35.9956 117.846 34.8316 116.094 34.8316 113.574V113.478C34.8316 110.958 36.0196 109.182 37.8796 109.182C39.7396 109.182 40.9156 110.934 40.9156 113.454V113.55C40.9156 116.07 39.7276 117.846 37.8676 117.846ZM37.8796 117.03C39.1636 117.03 39.9916 115.59 39.9916 113.574V113.478C39.9916 111.462 39.1396 109.998 37.8676 109.998C36.5836 109.998 35.7556 111.438 35.7556 113.454V113.55C35.7556 115.566 36.5956 117.03 37.8796 117.03ZM41.9789 119.166L41.8349 118.758C42.4229 118.542 42.6509 118.218 42.6149 117.714H42.1709V116.478H43.2509V117.534C43.2509 118.482 42.8549 118.938 41.9789 119.166ZM47.5356 117.846C45.6636 117.846 44.4996 116.094 44.4996 113.574V113.478C44.4996 110.958 45.6876 109.182 47.5476 109.182C49.4076 109.182 50.5836 110.934 50.5836 113.454V113.55C50.5836 116.07 49.3956 117.846 47.5356 117.846ZM47.5476 117.03C48.8316 117.03 49.6596 115.59 49.6596 113.574V113.478C49.6596 111.462 48.8076 109.998 47.5356 109.998C46.2516 109.998 45.4236 111.438 45.4236 113.454V113.55C45.4236 115.566 46.2636 117.03 47.5476 117.03ZM54.9184 117.846C53.0464 117.846 51.8824 116.094 51.8824 113.574V113.478C51.8824 110.958 53.0704 109.182 54.9304 109.182C56.7904 109.182 57.9664 110.934 57.9664 113.454V113.55C57.9664 116.07 56.7784 117.846 54.9184 117.846ZM54.9304 117.03C56.2144 117.03 57.0424 115.59 57.0424 113.574V113.478C57.0424 111.462 56.1904 109.998 54.9184 109.998C53.6344 109.998 52.8064 111.438 52.8064 113.454V113.55C52.8064 115.566 53.6464 117.03 54.9304 117.03ZM62.3012 117.846C60.4292 117.846 59.2652 116.094 59.2652 113.574V113.478C59.2652 110.958 60.4532 109.182 62.3132 109.182C64.1732 109.182 65.3492 110.934 65.3492 113.454V113.55C65.3492 116.07 64.1612 117.846 62.3012 117.846ZM62.3132 117.03C63.5972 117.03 64.4252 115.59 64.4252 113.574V113.478C64.4252 111.462 63.5732 109.998 62.3012 109.998C61.0172 109.998 60.1892 111.438 60.1892 113.454V113.55C60.1892 115.566 61.0292 117.03 62.3132 117.03Z" fill="#6E7079"/>
<path d="M23.102 178.561C21.23 178.561 20.066 176.809 20.066 174.289V174.193C20.066 171.673 21.254 169.897 23.114 169.897C24.974 169.897 26.15 171.649 26.15 174.169V174.265C26.15 176.785 24.962 178.561 23.102 178.561ZM23.114 177.745C24.398 177.745 25.226 176.305 25.226 174.289V174.193C25.226 172.177 24.374 170.713 23.102 170.713C21.818 170.713 20.99 172.153 20.99 174.169V174.265C20.99 176.281 21.83 177.745 23.114 177.745ZM30.4848 178.561C28.6128 178.561 27.4488 176.809 27.4488 174.289V174.193C27.4488 171.673 28.6368 169.897 30.4968 169.897C32.3568 169.897 33.5328 171.649 33.5328 174.169V174.265C33.5328 176.785 32.3448 178.561 30.4848 178.561ZM30.4968 177.745C31.7808 177.745 32.6088 176.305 32.6088 174.289V174.193C32.6088 172.177 31.7568 170.713 30.4848 170.713C29.2008 170.713 28.3728 172.153 28.3728 174.169V174.265C28.3728 176.281 29.2128 177.745 30.4968 177.745ZM37.8676 178.561C35.9956 178.561 34.8316 176.809 34.8316 174.289V174.193C34.8316 171.673 36.0196 169.897 37.8796 169.897C39.7396 169.897 40.9156 171.649 40.9156 174.169V174.265C40.9156 176.785 39.7276 178.561 37.8676 178.561ZM37.8796 177.745C39.1636 177.745 39.9916 176.305 39.9916 174.289V174.193C39.9916 172.177 39.1396 170.713 37.8676 170.713C36.5836 170.713 35.7556 172.153 35.7556 174.169V174.265C35.7556 176.281 36.5956 177.745 37.8796 177.745ZM41.9789 179.881L41.8349 179.473C42.4229 179.257 42.6509 178.933 42.6149 178.429H42.1709V177.193H43.2509V178.249C43.2509 179.197 42.8549 179.653 41.9789 179.881ZM47.5356 178.561C45.6636 178.561 44.4996 176.809 44.4996 174.289V174.193C44.4996 171.673 45.6876 169.897 47.5476 169.897C49.4076 169.897 50.5836 171.649 50.5836 174.169V174.265C50.5836 176.785 49.3956 178.561 47.5356 178.561ZM47.5476 177.745C48.8316 177.745 49.6596 176.305 49.6596 174.289V174.193C49.6596 172.177 48.8076 170.713 47.5356 170.713C46.2516 170.713 45.4236 172.153 45.4236 174.169V174.265C45.4236 176.281 46.2636 177.745 47.5476 177.745ZM54.9184 178.561C53.0464 178.561 51.8824 176.809 51.8824 174.289V174.193C51.8824 171.673 53.0704 169.897 54.9304 169.897C56.7904 169.897 57.9664 171.649 57.9664 174.169V174.265C57.9664 176.785 56.7784 178.561 54.9184 178.561ZM54.9304 177.745C56.2144 177.745 57.0424 176.305 57.0424 174.289V174.193C57.0424 172.177 56.1904 170.713 54.9184 170.713C53.6344 170.713 52.8064 172.153 52.8064 174.169V174.265C52.8064 176.281 53.6464 177.745 54.9304 177.745ZM62.3012 178.561C60.4292 178.561 59.2652 176.809 59.2652 174.289V174.193C59.2652 171.673 60.4532 169.897 62.3132 169.897C64.1732 169.897 65.3492 171.649 65.3492 174.169V174.265C65.3492 176.785 64.1612 178.561 62.3012 178.561ZM62.3132 177.745C63.5972 177.745 64.4252 176.305 64.4252 174.289V174.193C64.4252 172.177 63.5732 170.713 62.3012 170.713C61.0172 170.713 60.1892 172.153 60.1892 174.169V174.265C60.1892 176.281 61.0292 177.745 62.3132 177.745Z" fill="#6E7079"/>
<path d="M23.102 239.275C21.23 239.275 20.066 237.523 20.066 235.003V234.907C20.066 232.387 21.254 230.611 23.114 230.611C24.974 230.611 26.15 232.363 26.15 234.883V234.979C26.15 237.499 24.962 239.275 23.102 239.275ZM23.114 238.459C24.398 238.459 25.226 237.019 25.226 235.003V234.907C25.226 232.891 24.374 231.427 23.102 231.427C21.818 231.427 20.99 232.867 20.99 234.883V234.979C20.99 236.995 21.83 238.459 23.114 238.459ZM30.4848 239.275C28.6128 239.275 27.4488 237.523 27.4488 235.003V234.907C27.4488 232.387 28.6368 230.611 30.4968 230.611C32.3568 230.611 33.5328 232.363 33.5328 234.883V234.979C33.5328 237.499 32.3448 239.275 30.4848 239.275ZM30.4968 238.459C31.7808 238.459 32.6088 237.019 32.6088 235.003V234.907C32.6088 232.891 31.7568 231.427 30.4848 231.427C29.2008 231.427 28.3728 232.867 28.3728 234.883V234.979C28.3728 236.995 29.2128 238.459 30.4968 238.459ZM37.8676 239.275C35.9956 239.275 34.8316 237.523 34.8316 235.003V234.907C34.8316 232.387 36.0196 230.611 37.8796 230.611C39.7396 230.611 40.9156 232.363 40.9156 234.883V234.979C40.9156 237.499 39.7276 239.275 37.8676 239.275ZM37.8796 238.459C39.1636 238.459 39.9916 237.019 39.9916 235.003V234.907C39.9916 232.891 39.1396 231.427 37.8676 231.427C36.5836 231.427 35.7556 232.867 35.7556 234.883V234.979C35.7556 236.995 36.5956 238.459 37.8796 238.459ZM41.9789 240.595L41.8349 240.187C42.4229 239.971 42.6509 239.647 42.6149 239.143H42.1709V237.907H43.2509V238.963C43.2509 239.911 42.8549 240.367 41.9789 240.595ZM47.5356 239.275C45.6636 239.275 44.4996 237.523 44.4996 235.003V234.907C44.4996 232.387 45.6876 230.611 47.5476 230.611C49.4076 230.611 50.5836 232.363 50.5836 234.883V234.979C50.5836 237.499 49.3956 239.275 47.5356 239.275ZM47.5476 238.459C48.8316 238.459 49.6596 237.019 49.6596 235.003V234.907C49.6596 232.891 48.8076 231.427 47.5356 231.427C46.2516 231.427 45.4236 232.867 45.4236 234.883V234.979C45.4236 236.995 46.2636 238.459 47.5476 238.459ZM54.9184 239.275C53.0464 239.275 51.8824 237.523 51.8824 235.003V234.907C51.8824 232.387 53.0704 230.611 54.9304 230.611C56.7904 230.611 57.9664 232.363 57.9664 234.883V234.979C57.9664 237.499 56.7784 239.275 54.9184 239.275ZM54.9304 238.459C56.2144 238.459 57.0424 237.019 57.0424 235.003V234.907C57.0424 232.891 56.1904 231.427 54.9184 231.427C53.6344 231.427 52.8064 232.867 52.8064 234.883V234.979C52.8064 236.995 53.6464 238.459 54.9304 238.459ZM62.3012 239.275C60.4292 239.275 59.2652 237.523 59.2652 235.003V234.907C59.2652 232.387 60.4532 230.611 62.3132 230.611C64.1732 230.611 65.3492 232.363 65.3492 234.883V234.979C65.3492 237.499 64.1612 239.275 62.3012 239.275ZM62.3132 238.459C63.5972 238.459 64.4252 237.019 64.4252 235.003V234.907C64.4252 232.891 63.5732 231.427 62.3012 231.427C61.0172 231.427 60.1892 232.867 60.1892 234.883V234.979C60.1892 236.995 61.0292 238.459 62.3132 238.459Z" fill="#6E7079"/>
<path d="M23.102 299.989C21.23 299.989 20.066 298.237 20.066 295.717V295.621C20.066 293.101 21.254 291.325 23.114 291.325C24.974 291.325 26.15 293.077 26.15 295.597V295.693C26.15 298.213 24.962 299.989 23.102 299.989ZM23.114 299.173C24.398 299.173 25.226 297.733 25.226 295.717V295.621C25.226 293.605 24.374 292.141 23.102 292.141C21.818 292.141 20.99 293.581 20.99 295.597V295.693C20.99 297.709 21.83 299.173 23.114 299.173ZM30.4848 299.989C28.6128 299.989 27.4488 298.237 27.4488 295.717V295.621C27.4488 293.101 28.6368 291.325 30.4968 291.325C32.3568 291.325 33.5328 293.077 33.5328 295.597V295.693C33.5328 298.213 32.3448 299.989 30.4848 299.989ZM30.4968 299.173C31.7808 299.173 32.6088 297.733 32.6088 295.717V295.621C32.6088 293.605 31.7568 292.141 30.4848 292.141C29.2008 292.141 28.3728 293.581 28.3728 295.597V295.693C28.3728 297.709 29.2128 299.173 30.4968 299.173ZM37.8676 299.989C35.9956 299.989 34.8316 298.237 34.8316 295.717V295.621C34.8316 293.101 36.0196 291.325 37.8796 291.325C39.7396 291.325 40.9156 293.077 40.9156 295.597V295.693C40.9156 298.213 39.7276 299.989 37.8676 299.989ZM37.8796 299.173C39.1636 299.173 39.9916 297.733 39.9916 295.717V295.621C39.9916 293.605 39.1396 292.141 37.8676 292.141C36.5836 292.141 35.7556 293.581 35.7556 295.597V295.693C35.7556 297.709 36.5956 299.173 37.8796 299.173ZM41.9789 301.309L41.8349 300.901C42.4229 300.685 42.6509 300.361 42.6149 299.857H42.1709V298.621H43.2509V299.677C43.2509 300.625 42.8549 301.081 41.9789 301.309ZM47.5356 299.989C45.6636 299.989 44.4996 298.237 44.4996 295.717V295.621C44.4996 293.101 45.6876 291.325 47.5476 291.325C49.4076 291.325 50.5836 293.077 50.5836 295.597V295.693C50.5836 298.213 49.3956 299.989 47.5356 299.989ZM47.5476 299.173C48.8316 299.173 49.6596 297.733 49.6596 295.717V295.621C49.6596 293.605 48.8076 292.141 47.5356 292.141C46.2516 292.141 45.4236 293.581 45.4236 295.597V295.693C45.4236 297.709 46.2636 299.173 47.5476 299.173ZM54.9184 299.989C53.0464 299.989 51.8824 298.237 51.8824 295.717V295.621C51.8824 293.101 53.0704 291.325 54.9304 291.325C56.7904 291.325 57.9664 293.077 57.9664 295.597V295.693C57.9664 298.213 56.7784 299.989 54.9184 299.989ZM54.9304 299.173C56.2144 299.173 57.0424 297.733 57.0424 295.717V295.621C57.0424 293.605 56.1904 292.141 54.9184 292.141C53.6344 292.141 52.8064 293.581 52.8064 295.597V295.693C52.8064 297.709 53.6464 299.173 54.9304 299.173ZM62.3012 299.989C60.4292 299.989 59.2652 298.237 59.2652 295.717V295.621C59.2652 293.101 60.4532 291.325 62.3132 291.325C64.1732 291.325 65.3492 293.077 65.3492 295.597V295.693C65.3492 298.213 64.1612 299.989 62.3012 299.989ZM62.3132 299.173C63.5972 299.173 64.4252 297.733 64.4252 295.717V295.621C64.4252 293.605 63.5732 292.141 62.3012 292.141C61.0172 292.141 60.1892 293.581 60.1892 295.597V295.693C60.1892 297.709 61.0292 299.173 62.3132 299.173Z" fill="#6E7079"/>
<path d="M23.102 360.703C21.23 360.703 20.066 358.951 20.066 356.431V356.335C20.066 353.815 21.254 352.039 23.114 352.039C24.974 352.039 26.15 353.791 26.15 356.311V356.407C26.15 358.927 24.962 360.703 23.102 360.703ZM23.114 359.887C24.398 359.887 25.226 358.447 25.226 356.431V356.335C25.226 354.319 24.374 352.855 23.102 352.855C21.818 352.855 20.99 354.295 20.99 356.311V356.407C20.99 358.423 21.83 359.887 23.114 359.887ZM30.4848 360.703C28.6128 360.703 27.4488 358.951 27.4488 356.431V356.335C27.4488 353.815 28.6368 352.039 30.4968 352.039C32.3568 352.039 33.5328 353.791 33.5328 356.311V356.407C33.5328 358.927 32.3448 360.703 30.4848 360.703ZM30.4968 359.887C31.7808 359.887 32.6088 358.447 32.6088 356.431V356.335C32.6088 354.319 31.7568 352.855 30.4848 352.855C29.2008 352.855 28.3728 354.295 28.3728 356.311V356.407C28.3728 358.423 29.2128 359.887 30.4968 359.887ZM37.8676 360.703C35.9956 360.703 34.8316 358.951 34.8316 356.431V356.335C34.8316 353.815 36.0196 352.039 37.8796 352.039C39.7396 352.039 40.9156 353.791 40.9156 356.311V356.407C40.9156 358.927 39.7276 360.703 37.8676 360.703ZM37.8796 359.887C39.1636 359.887 39.9916 358.447 39.9916 356.431V356.335C39.9916 354.319 39.1396 352.855 37.8676 352.855C36.5836 352.855 35.7556 354.295 35.7556 356.311V356.407C35.7556 358.423 36.5956 359.887 37.8796 359.887ZM41.9789 362.023L41.8349 361.615C42.4229 361.399 42.6509 361.075 42.6149 360.571H42.1709V359.335H43.2509V360.391C43.2509 361.339 42.8549 361.795 41.9789 362.023ZM47.5356 360.703C45.6636 360.703 44.4996 358.951 44.4996 356.431V356.335C44.4996 353.815 45.6876 352.039 47.5476 352.039C49.4076 352.039 50.5836 353.791 50.5836 356.311V356.407C50.5836 358.927 49.3956 360.703 47.5356 360.703ZM47.5476 359.887C48.8316 359.887 49.6596 358.447 49.6596 356.431V356.335C49.6596 354.319 48.8076 352.855 47.5356 352.855C46.2516 352.855 45.4236 354.295 45.4236 356.311V356.407C45.4236 358.423 46.2636 359.887 47.5476 359.887ZM54.9184 360.703C53.0464 360.703 51.8824 358.951 51.8824 356.431V356.335C51.8824 353.815 53.0704 352.039 54.9304 352.039C56.7904 352.039 57.9664 353.791 57.9664 356.311V356.407C57.9664 358.927 56.7784 360.703 54.9184 360.703ZM54.9304 359.887C56.2144 359.887 57.0424 358.447 57.0424 356.431V356.335C57.0424 354.319 56.1904 352.855 54.9184 352.855C53.6344 352.855 52.8064 354.295 52.8064 356.311V356.407C52.8064 358.423 53.6464 359.887 54.9304 359.887ZM62.3012 360.703C60.4292 360.703 59.2652 358.951 59.2652 356.431V356.335C59.2652 353.815 60.4532 352.039 62.3132 352.039C64.1732 352.039 65.3492 353.791 65.3492 356.311V356.407C65.3492 358.927 64.1612 360.703 62.3012 360.703ZM62.3132 359.887C63.5972 359.887 64.4252 358.447 64.4252 356.431V356.335C64.4252 354.319 63.5732 352.855 62.3012 352.855C61.0172 352.855 60.1892 354.295 60.1892 356.311V356.407C60.1892 358.423 61.0292 359.887 62.3132 359.887Z" fill="#6E7079"/>
<path d="M23.102 421.418C21.23 421.418 20.066 419.666 20.066 417.146V417.05C20.066 414.53 21.254 412.754 23.114 412.754C24.974 412.754 26.15 414.506 26.15 417.026V417.122C26.15 419.642 24.962 421.418 23.102 421.418ZM23.114 420.602C24.398 420.602 25.226 419.162 25.226 417.146V417.05C25.226 415.034 24.374 413.57 23.102 413.57C21.818 413.57 20.99 415.01 20.99 417.026V417.122C20.99 419.138 21.83 420.602 23.114 420.602ZM30.4848 421.418C28.6128 421.418 27.4488 419.666 27.4488 417.146V417.05C27.4488 414.53 28.6368 412.754 30.4968 412.754C32.3568 412.754 33.5328 414.506 33.5328 417.026V417.122C33.5328 419.642 32.3448 421.418 30.4848 421.418ZM30.4968 420.602C31.7808 420.602 32.6088 419.162 32.6088 417.146V417.05C32.6088 415.034 31.7568 413.57 30.4848 413.57C29.2008 413.57 28.3728 415.01 28.3728 417.026V417.122C28.3728 419.138 29.2128 420.602 30.4968 420.602ZM37.8676 421.418C35.9956 421.418 34.8316 419.666 34.8316 417.146V417.05C34.8316 414.53 36.0196 412.754 37.8796 412.754C39.7396 412.754 40.9156 414.506 40.9156 417.026V417.122C40.9156 419.642 39.7276 421.418 37.8676 421.418ZM37.8796 420.602C39.1636 420.602 39.9916 419.162 39.9916 417.146V417.05C39.9916 415.034 39.1396 413.57 37.8676 413.57C36.5836 413.57 35.7556 415.01 35.7556 417.026V417.122C35.7556 419.138 36.5956 420.602 37.8796 420.602ZM41.9789 422.738L41.8349 422.33C42.4229 422.114 42.6509 421.79 42.6149 421.286H42.1709V420.05H43.2509V421.106C43.2509 422.054 42.8549 422.51 41.9789 422.738ZM47.5356 421.418C45.6636 421.418 44.4996 419.666 44.4996 417.146V417.05C44.4996 414.53 45.6876 412.754 47.5476 412.754C49.4076 412.754 50.5836 414.506 50.5836 417.026V417.122C50.5836 419.642 49.3956 421.418 47.5356 421.418ZM47.5476 420.602C48.8316 420.602 49.6596 419.162 49.6596 417.146V417.05C49.6596 415.034 48.8076 413.57 47.5356 413.57C46.2516 413.57 45.4236 415.01 45.4236 417.026V417.122C45.4236 419.138 46.2636 420.602 47.5476 420.602ZM54.9184 421.418C53.0464 421.418 51.8824 419.666 51.8824 417.146V417.05C51.8824 414.53 53.0704 412.754 54.9304 412.754C56.7904 412.754 57.9664 414.506 57.9664 417.026V417.122C57.9664 419.642 56.7784 421.418 54.9184 421.418ZM54.9304 420.602C56.2144 420.602 57.0424 419.162 57.0424 417.146V417.05C57.0424 415.034 56.1904 413.57 54.9184 413.57C53.6344 413.57 52.8064 415.01 52.8064 417.026V417.122C52.8064 419.138 53.6464 420.602 54.9304 420.602ZM62.3012 421.418C60.4292 421.418 59.2652 419.666 59.2652 417.146V417.05C59.2652 414.53 60.4532 412.754 62.3132 412.754C64.1732 412.754 65.3492 414.506 65.3492 417.026V417.122C65.3492 419.642 64.1612 421.418 62.3012 421.418ZM62.3132 420.602C63.5972 420.602 64.4252 419.162 64.4252 417.146V417.05C64.4252 415.034 63.5732 413.57 62.3012 413.57C61.0172 413.57 60.1892 415.01 60.1892 417.026V417.122C60.1892 419.138 61.0292 420.602 62.3132 420.602Z" fill="#6E7079"/>
<path d="M62.3012 482.132C60.4292 482.132 59.2652 480.38 59.2652 477.86V477.764C59.2652 475.244 60.4532 473.468 62.3132 473.468C64.1732 473.468 65.3492 475.22 65.3492 477.74V477.836C65.3492 480.356 64.1612 482.132 62.3012 482.132ZM62.3132 481.316C63.5972 481.316 64.4252 479.876 64.4252 477.86V477.764C64.4252 475.748 63.5732 474.284 62.3012 474.284C61.0172 474.284 60.1892 475.724 60.1892 477.74V477.836C60.1892 479.852 61.0292 481.316 62.3132 481.316Z" fill="#6E7079"/>
<path d="M75 47H910" stroke="#E0E6F1"/>
<path d="M75 109.143H910" stroke="#E0E6F1"/>
<path d="M75 171.286H910" stroke="#E0E6F1"/>
<path d="M75 233.429H910" stroke="#E0E6F1"/>
<path d="M75 295.571H910" stroke="#E0E6F1"/>
<path d="M75 357.714H910" stroke="#E0E6F1"/>
<path d="M75 419.857H910" stroke="#E0E6F1"/>
<path d="M75 482H910" stroke="#6E7079" stroke-linecap="round"/>
<path d="M113.423 497.12C112.343 497.12 111.383 496.748 110.507 495.932L111.071 495.248C111.767 495.896 112.487 496.292 113.435 496.292C114.443 496.292 115.115 495.68 115.115 494.876V494.864C115.115 494.168 114.779 493.724 113.255 493.184C111.515 492.536 110.831 491.912 110.831 490.724V490.7C110.831 489.44 111.887 488.48 113.363 488.48C114.335 488.48 115.139 488.78 115.883 489.428L115.343 490.124C114.719 489.584 114.059 489.308 113.327 489.308C112.367 489.308 111.743 489.896 111.743 490.616V490.64C111.743 491.372 112.115 491.792 113.699 492.368C115.403 493.004 116.027 493.688 116.027 494.804V494.828C116.027 496.172 114.923 497.12 113.423 497.12ZM119.949 497.132C118.425 497.132 117.177 495.908 117.177 493.928V493.868C117.177 491.96 118.293 490.628 119.757 490.628C121.329 490.628 122.265 491.972 122.265 493.856C122.265 493.94 122.265 494.108 122.253 494.216H118.053C118.149 495.596 119.001 496.364 119.985 496.364C120.669 496.364 121.173 496.076 121.605 495.644L122.097 496.196C121.533 496.772 120.885 497.132 119.949 497.132ZM118.053 493.544H121.401C121.341 492.356 120.777 491.384 119.757 491.384C118.833 491.384 118.137 492.236 118.053 493.544ZM123.654 497V490.748H124.518V492.128C124.89 491.252 125.646 490.616 126.666 490.664V491.6H126.618C125.454 491.6 124.518 492.416 124.518 494.024V497H123.654ZM127.885 489.464V488.444H128.845V489.464H127.885ZM127.933 497V490.748H128.797V497H127.933ZM133.086 497.132C131.562 497.132 130.314 495.908 130.314 493.928V493.868C130.314 491.96 131.43 490.628 132.894 490.628C134.466 490.628 135.402 491.972 135.402 493.856C135.402 493.94 135.402 494.108 135.39 494.216H131.19C131.286 495.596 132.138 496.364 133.122 496.364C133.806 496.364 134.31 496.076 134.742 495.644L135.234 496.196C134.67 496.772 134.022 497.132 133.086 497.132ZM131.19 493.544H134.538C134.478 492.356 133.914 491.384 132.894 491.384C131.97 491.384 131.274 492.236 131.19 493.544ZM138.482 497.108C137.714 497.108 136.886 496.808 136.226 496.232L136.682 495.596C137.27 496.088 137.882 496.352 138.506 496.352C139.19 496.352 139.67 495.968 139.67 495.38V495.368C139.67 494.816 139.154 494.528 138.314 494.18C137.318 493.748 136.526 493.352 136.526 492.38V492.356C136.526 491.336 137.354 490.652 138.47 490.652C139.178 490.652 139.91 490.928 140.438 491.324L140.018 491.984C139.538 491.636 138.998 491.396 138.446 491.396C137.786 491.396 137.366 491.78 137.366 492.272V492.296C137.366 492.824 137.906 493.088 138.758 493.448C139.79 493.904 140.51 494.336 140.51 495.284V495.308C140.51 496.424 139.61 497.108 138.482 497.108ZM145.977 497V489.512L144.609 489.992L144.453 489.212L146.193 488.552H146.865V497H145.977Z" fill="#6E7079"/>
<path d="M353.037 497.12C351.957 497.12 350.997 496.748 350.121 495.932L350.685 495.248C351.381 495.896 352.101 496.292 353.049 496.292C354.057 496.292 354.729 495.68 354.729 494.876V494.864C354.729 494.168 354.393 493.724 352.869 493.184C351.129 492.536 350.445 491.912 350.445 490.724V490.7C350.445 489.44 351.501 488.48 352.977 488.48C353.949 488.48 354.753 488.78 355.497 489.428L354.957 490.124C354.333 489.584 353.673 489.308 352.941 489.308C351.981 489.308 351.357 489.896 351.357 490.616V490.64C351.357 491.372 351.729 491.792 353.313 492.368C355.017 493.004 355.641 493.688 355.641 494.804V494.828C355.641 496.172 354.537 497.12 353.037 497.12ZM359.564 497.132C358.04 497.132 356.792 495.908 356.792 493.928V493.868C356.792 491.96 357.908 490.628 359.372 490.628C360.944 490.628 361.88 491.972 361.88 493.856C361.88 493.94 361.88 494.108 361.868 494.216H357.668C357.764 495.596 358.616 496.364 359.6 496.364C360.284 496.364 360.788 496.076 361.22 495.644L361.712 496.196C361.148 496.772 360.5 497.132 359.564 497.132ZM357.668 493.544H361.016C360.956 492.356 360.392 491.384 359.372 491.384C358.448 491.384 357.752 492.236 357.668 493.544ZM363.268 497V490.748H364.132V492.128C364.504 491.252 365.26 490.616 366.28 490.664V491.6H366.232C365.068 491.6 364.132 492.416 364.132 494.024V497H363.268ZM367.499 489.464V488.444H368.459V489.464H367.499ZM367.547 497V490.748H368.411V497H367.547ZM372.7 497.132C371.176 497.132 369.928 495.908 369.928 493.928V493.868C369.928 491.96 371.044 490.628 372.508 490.628C374.08 490.628 375.016 491.972 375.016 493.856C375.016 493.94 375.016 494.108 375.004 494.216H370.804C370.9 495.596 371.752 496.364 372.736 496.364C373.42 496.364 373.924 496.076 374.356 495.644L374.848 496.196C374.284 496.772 373.636 497.132 372.7 497.132ZM370.804 493.544H374.152C374.092 492.356 373.528 491.384 372.508 491.384C371.584 491.384 370.888 492.236 370.804 493.544ZM378.097 497.108C377.329 497.108 376.501 496.808 375.841 496.232L376.297 495.596C376.885 496.088 377.497 496.352 378.121 496.352C378.805 496.352 379.285 495.968 379.285 495.38V495.368C379.285 494.816 378.769 494.528 377.929 494.18C376.933 493.748 376.141 493.352 376.141 492.38V492.356C376.141 491.336 376.969 490.652 378.085 490.652C378.793 490.652 379.525 490.928 380.053 491.324L379.633 491.984C379.153 491.636 378.613 491.396 378.061 491.396C377.401 491.396 376.981 491.78 376.981 492.272V492.296C376.981 492.824 377.521 493.088 378.373 493.448C379.405 493.904 380.125 494.336 380.125 495.284V495.308C380.125 496.424 379.225 497.108 378.097 497.108ZM384.259 497V496.304L386.971 493.28C387.979 492.2 388.363 491.588 388.363 490.808C388.363 489.884 387.691 489.308 386.851 489.308C386.083 489.308 385.531 489.716 384.967 490.508L384.343 489.98C384.967 489.044 385.735 488.48 386.935 488.48C388.303 488.48 389.299 489.404 389.299 490.724V490.76C389.299 491.84 388.783 492.548 387.607 493.784L385.507 496.16H389.359V497H384.259Z" fill="#6E7079"/>
<path d="M595.347 497.12C594.267 497.12 593.307 496.748 592.431 495.932L592.995 495.248C593.691 495.896 594.411 496.292 595.359 496.292C596.367 496.292 597.039 495.68 597.039 494.876V494.864C597.039 494.168 596.703 493.724 595.179 493.184C593.439 492.536 592.755 491.912 592.755 490.724V490.7C592.755 489.44 593.811 488.48 595.287 488.48C596.259 488.48 597.063 488.78 597.807 489.428L597.267 490.124C596.643 489.584 595.983 489.308 595.251 489.308C594.291 489.308 593.667 489.896 593.667 490.616V490.64C593.667 491.372 594.039 491.792 595.623 492.368C597.327 493.004 597.951 493.688 597.951 494.804V494.828C597.951 496.172 596.847 497.12 595.347 497.12ZM601.873 497.132C600.349 497.132 599.101 495.908 599.101 493.928V493.868C599.101 491.96 600.217 490.628 601.681 490.628C603.253 490.628 604.189 491.972 604.189 493.856C604.189 493.94 604.189 494.108 604.177 494.216H599.977C600.073 495.596 600.925 496.364 601.909 496.364C602.593 496.364 603.097 496.076 603.529 495.644L604.021 496.196C603.457 496.772 602.809 497.132 601.873 497.132ZM599.977 493.544H603.325C603.265 492.356 602.701 491.384 601.681 491.384C600.757 491.384 600.061 492.236 599.977 493.544ZM605.578 497V490.748H606.442V492.128C606.814 491.252 607.57 490.616 608.59 490.664V491.6H608.542C607.378 491.6 606.442 492.416 606.442 494.024V497H605.578ZM609.809 489.464V488.444H610.769V489.464H609.809ZM609.857 497V490.748H610.721V497H609.857ZM615.01 497.132C613.486 497.132 612.238 495.908 612.238 493.928V493.868C612.238 491.96 613.354 490.628 614.818 490.628C616.39 490.628 617.326 491.972 617.326 493.856C617.326 493.94 617.326 494.108 617.314 494.216H613.114C613.21 495.596 614.062 496.364 615.046 496.364C615.73 496.364 616.234 496.076 616.666 495.644L617.158 496.196C616.594 496.772 615.946 497.132 615.01 497.132ZM613.114 493.544H616.462C616.402 492.356 615.838 491.384 614.818 491.384C613.894 491.384 613.198 492.236 613.114 493.544ZM620.407 497.108C619.639 497.108 618.811 496.808 618.151 496.232L618.607 495.596C619.195 496.088 619.807 496.352 620.431 496.352C621.115 496.352 621.595 495.968 621.595 495.38V495.368C621.595 494.816 621.079 494.528 620.239 494.18C619.243 493.748 618.451 493.352 618.451 492.38V492.356C618.451 491.336 619.279 490.652 620.395 490.652C621.103 490.652 621.835 490.928 622.363 491.324L621.943 491.984C621.463 491.636 620.923 491.396 620.371 491.396C619.711 491.396 619.291 491.78 619.291 492.272V492.296C619.291 492.824 619.831 493.088 620.683 493.448C621.715 493.904 622.435 494.336 622.435 495.284V495.308C622.435 496.424 621.535 497.108 620.407 497.108ZM629.065 497.132C627.937 497.132 627.085 496.652 626.509 495.98L627.085 495.356C627.589 495.932 628.201 496.304 629.065 496.304C630.013 496.304 630.769 495.644 630.769 494.624V494.588C630.769 493.508 629.845 492.956 628.537 492.956H628.225L628.093 492.392L630.421 489.428H626.857V488.6H631.573V489.272L629.221 492.236C630.517 492.38 631.681 493.076 631.681 494.552V494.588C631.681 496.112 630.517 497.132 629.065 497.132Z" fill="#6E7079"/>
<path d="M837.364 497.12C836.284 497.12 835.324 496.748 834.448 495.932L835.012 495.248C835.708 495.896 836.428 496.292 837.376 496.292C838.384 496.292 839.056 495.68 839.056 494.876V494.864C839.056 494.168 838.72 493.724 837.196 493.184C835.456 492.536 834.772 491.912 834.772 490.724V490.7C834.772 489.44 835.828 488.48 837.304 488.48C838.276 488.48 839.08 488.78 839.824 489.428L839.284 490.124C838.66 489.584 838 489.308 837.268 489.308C836.308 489.308 835.684 489.896 835.684 490.616V490.64C835.684 491.372 836.056 491.792 837.64 492.368C839.344 493.004 839.968 493.688 839.968 494.804V494.828C839.968 496.172 838.864 497.12 837.364 497.12ZM843.89 497.132C842.366 497.132 841.118 495.908 841.118 493.928V493.868C841.118 491.96 842.234 490.628 843.698 490.628C845.27 490.628 846.206 491.972 846.206 493.856C846.206 493.94 846.206 494.108 846.194 494.216H841.994C842.09 495.596 842.942 496.364 843.926 496.364C844.61 496.364 845.114 496.076 845.546 495.644L846.038 496.196C845.474 496.772 844.826 497.132 843.89 497.132ZM841.994 493.544H845.342C845.282 492.356 844.718 491.384 843.698 491.384C842.774 491.384 842.078 492.236 841.994 493.544ZM847.595 497V490.748H848.459V492.128C848.831 491.252 849.587 490.616 850.607 490.664V491.6H850.559C849.395 491.6 848.459 492.416 848.459 494.024V497H847.595ZM851.826 489.464V488.444H852.786V489.464H851.826ZM851.874 497V490.748H852.738V497H851.874ZM857.027 497.132C855.503 497.132 854.255 495.908 854.255 493.928V493.868C854.255 491.96 855.371 490.628 856.835 490.628C858.407 490.628 859.343 491.972 859.343 493.856C859.343 493.94 859.343 494.108 859.331 494.216H855.131C855.227 495.596 856.079 496.364 857.063 496.364C857.747 496.364 858.251 496.076 858.683 495.644L859.175 496.196C858.611 496.772 857.963 497.132 857.027 497.132ZM855.131 493.544H858.479C858.419 492.356 857.855 491.384 856.835 491.384C855.911 491.384 855.215 492.236 855.131 493.544ZM862.424 497.108C861.656 497.108 860.828 496.808 860.168 496.232L860.624 495.596C861.212 496.088 861.824 496.352 862.448 496.352C863.132 496.352 863.612 495.968 863.612 495.38V495.368C863.612 494.816 863.096 494.528 862.256 494.18C861.26 493.748 860.468 493.352 860.468 492.38V492.356C860.468 491.336 861.296 490.652 862.412 490.652C863.12 490.652 863.852 490.928 864.38 491.324L863.96 491.984C863.48 491.636 862.94 491.396 862.388 491.396C861.728 491.396 861.308 491.78 861.308 492.272V492.296C861.308 492.824 861.848 493.088 862.7 493.448C863.732 493.904 864.452 494.336 864.452 495.284V495.308C864.452 496.424 863.552 497.108 862.424 497.108ZM872.522 497V495.056H868.67L868.502 494.396L872.582 488.54H873.374V494.3H874.49V495.056H873.374V497H872.522ZM869.522 494.3H872.522V489.956L869.522 494.3Z" fill="#6E7079"/>
<path d="M468.256 507.6H470.188L467.788 511.704L470.284 516H468.304L466.768 513.12L465.22 516H463.288L465.772 511.728L463.396 507.6H465.376L466.804 510.324L468.256 507.6ZM470.584 513.108V511.452H474.1V513.108H470.584ZM474.454 516L477.466 507.552H479.122L482.134 516H480.334L479.71 514.176H476.818L476.206 516H474.454ZM477.346 512.64H479.182L478.27 509.904L477.346 512.64ZM484.412 509.568L485.42 511.452L486.44 509.568H488.204L486.344 512.7L488.276 516H486.464L485.396 513.996L484.316 516H482.54L484.46 512.724L482.612 509.568H484.412ZM489.196 508.884V507.336H490.972V508.884H489.196ZM489.232 516V509.568H490.936V516H489.232ZM494.316 516.12C493.56 516.12 492.66 515.868 491.88 515.232L492.624 514.032C493.2 514.476 493.812 514.752 494.34 514.752C494.82 514.752 495.024 514.524 495.024 514.26V514.236C495.024 513.864 494.544 513.708 493.848 513.408C492.936 513.012 492.156 512.556 492.156 511.464V511.44C492.156 510.204 493.116 509.472 494.364 509.472C495.06 509.472 495.84 509.712 496.488 510.168L495.804 511.392C495.324 511.08 494.796 510.84 494.34 510.84C493.932 510.84 493.716 511.044 493.716 511.296V511.32C493.716 511.656 494.196 511.848 494.88 512.16C495.816 512.604 496.584 513.072 496.584 514.092V514.116C496.584 515.448 495.6 516.12 494.316 516.12ZM502.285 516.108C501.301 516.108 500.581 515.724 500.581 514.392V511.008H499.933V509.568H500.581V507.924H502.285V509.568H503.557V511.008H502.285V514.044C502.285 514.416 502.453 514.596 502.813 514.596C503.077 514.596 503.329 514.524 503.545 514.416V515.772C503.209 515.964 502.801 516.108 502.285 516.108ZM504.7 508.884V507.336H506.476V508.884H504.7ZM504.736 516V509.568H506.44V516H504.736ZM509.843 516.108C508.859 516.108 508.139 515.724 508.139 514.392V511.008H507.491V509.568H508.139V507.924H509.843V509.568H511.115V511.008H509.843V514.044C509.843 514.416 510.011 514.596 510.371 514.596C510.635 514.596 510.887 514.524 511.103 514.416V515.772C510.767 515.964 510.359 516.108 509.843 516.108ZM512.295 516V507.336H513.999V516H512.295ZM518.182 516.144C516.478 516.144 515.17 514.86 515.17 512.856V512.748C515.17 510.84 516.358 509.448 517.978 509.448C519.814 509.448 520.714 510.948 520.714 512.868C520.714 512.964 520.714 513.168 520.702 513.42H516.862C517.006 514.272 517.534 514.716 518.254 514.716C518.782 514.716 519.19 514.476 519.598 514.08L520.474 515.112C519.886 515.76 519.142 516.144 518.182 516.144ZM516.85 512.292H519.07C518.998 511.404 518.614 510.852 517.978 510.852C517.354 510.852 516.946 511.38 516.85 512.292Z" fill="#6E7079"/>
</svg>
