<svg width="226" height="214" viewBox="0 0 226 214" fill="none" xmlns="http://www.w3.org/2000/svg">
<line x1="0.5" y1="42.2932" x2="225.5" y2="42.2932" stroke="#CFD4DA" stroke-width="0.413664"/>
<line x1="0.5" y1="116.293" x2="225.5" y2="116.293" stroke="#CFD4DA" stroke-width="0.413664"/>
<line x1="0.5" y1="190.293" x2="225.5" y2="190.293" stroke="#CFD4DA" stroke-width="0.413664"/>
<rect x="15.5" y="208.038" width="27" height="5" rx="2.5" fill="#CFD4DA"/>
<rect x="16.5" y="196.142" width="152.642" height="25" rx="12.5" transform="rotate(-90 16.5 196.142)" fill="#373D43"/>
<rect x="72.5" y="208.5" width="27" height="5" rx="2.5" fill="#CFD4DA"/>
<rect x="73.5" y="196.5" width="164" height="25" rx="12.5" transform="rotate(-90 73.5 196.5)" fill="#373D43"/>
<rect x="129.5" y="208.5" width="27" height="5" rx="2.5" fill="#CFD4DA"/>
<rect x="130.5" y="196.5" width="135" height="25" rx="12.5" transform="rotate(-90 130.5 196.5)" fill="#373D43"/>
<rect x="186.5" y="208.5" width="27" height="5" rx="2.5" fill="#CFD4DA"/>
<rect x="187.5" y="196.5" width="196" height="25" rx="12.5" transform="rotate(-90 187.5 196.5)" fill="#373D43"/>
</svg>
