<svg width="318" height="288" viewBox="0 0 318 288" fill="none" xmlns="http://www.w3.org/2000/svg">
<path d="M2.67084 20V4.61072H5.22106V11.0742H11.2668V4.61072H13.8171V20H11.2668V13.4486H5.22106V20H2.67084ZM21.6701 20.2418C18.6802 20.2418 16.3498 17.9554 16.3498 14.306V14.1301C16.3498 10.6345 18.4603 8.12827 21.3183 8.12827C24.4841 8.12827 26.1549 10.7664 26.1549 14.262C26.1549 14.4159 26.1549 14.7676 26.133 15.1194H18.834C19.0539 17.076 20.2631 18.1313 21.78 18.1313C22.8792 18.1313 23.6927 17.6476 24.4621 16.9002L25.7592 18.4391C24.704 19.5603 23.4069 20.2418 21.6701 20.2418ZM18.8121 13.4046H23.7366C23.6047 11.5579 22.7693 10.2168 21.3183 10.2168C19.9553 10.2168 18.9879 11.426 18.8121 13.4046ZM31.3085 20.2198C29.3738 20.2198 27.7469 18.9228 27.7469 16.6583V16.5484C27.7469 14.0421 29.4178 12.811 31.8801 12.811C32.9793 12.811 33.7708 13.0089 34.5622 13.2727V12.789C34.5622 11.2281 33.6388 10.4147 32.0559 10.4147C30.9347 10.4147 30.0114 10.7664 29.2419 11.1182L28.5384 9.13956C29.6596 8.58995 30.8248 8.21621 32.3857 8.21621C33.9027 8.21621 35.0679 8.63392 35.8153 9.40338C36.5848 10.1728 36.9805 11.316 36.9805 12.767V20H34.5402V18.571C33.8587 19.5603 32.8254 20.2198 31.3085 20.2198ZM32.0559 18.3511C33.485 18.3731 34.5842 17.4058 34.5842 16.0867V14.9215C34.0126 14.6797 33.2651 14.5038 32.4297 14.5038C31.0007 14.5038 30.1653 15.2293 30.1653 16.4605V16.5044C30.1653 17.6696 30.9787 18.3292 32.0559 18.3511ZM43.7016 20.2198C41.3713 20.2198 39.1728 18.2632 39.1728 14.328V14.0421C39.1728 10.1069 41.3493 8.12827 43.7016 8.12827C45.3945 8.12827 46.4058 9.09559 47.1093 10.1069V4.12705H49.5935V20H47.1093V18.1313C46.3838 19.2525 45.3725 20.2198 43.7016 20.2198ZM44.3832 18.0214C45.8781 18.0214 47.1532 16.5704 47.1532 14.284V14.0641C47.1532 11.7777 45.8781 10.3267 44.3832 10.3267C42.8662 10.3267 41.6791 11.7338 41.6791 14.0861V14.262C41.6791 16.5924 42.8882 18.0214 44.3832 18.0214ZM57.202 20.2418C54.212 20.2418 51.8817 17.9554 51.8817 14.306V14.1301C51.8817 10.6345 53.9922 8.12827 56.8502 8.12827C60.016 8.12827 61.6868 10.7664 61.6868 14.262C61.6868 14.4159 61.6868 14.7676 61.6649 15.1194H54.3659C54.5858 17.076 55.7949 18.1313 57.3119 18.1313C58.4111 18.1313 59.2246 17.6476 59.994 16.9002L61.2911 18.4391C60.2359 19.5603 58.9388 20.2418 57.202 20.2418ZM54.344 13.4046H59.2685C59.1366 11.5579 58.3012 10.2168 56.8502 10.2168C55.4872 10.2168 54.5198 11.426 54.344 13.4046ZM63.9384 20V8.34811H66.4227V10.6345C67.0382 9.11758 68.1594 8.0843 69.9182 8.17224V10.8764H69.8083C67.7857 10.8764 66.4227 12.1954 66.4227 14.8556V20H63.9384Z" fill="#ADB5BD"/>
<path d="M8.26259 213.706C4.83298 213.706 2.56856 211.617 2.56856 207.594V198.075H5.11878V207.572C5.11878 210.056 6.32794 211.354 8.30656 211.354C10.2412 211.354 11.4724 210.1 11.4724 207.66V198.075H14.0006V207.506C14.0006 211.639 11.7362 213.706 8.26259 213.706ZM16.9086 213.464V201.812H19.3929V203.527C20.0524 202.494 20.9977 201.592 22.5806 201.592C24.8231 201.592 26.1641 203.175 26.1641 205.659V213.464H23.6799V206.363C23.6799 204.736 22.9104 203.835 21.5913 203.835C20.2942 203.835 19.3929 204.802 19.3929 206.407V213.464H16.9086ZM28.911 200.119V197.679H31.5492V200.119H28.911ZM28.999 213.464V201.812H31.4832V213.464H28.999ZM37.9232 213.64C36.2084 213.64 34.9113 212.914 34.9113 210.65V203.945H33.6362V201.812H34.9113V198.668H37.3956V201.812H40.0117V203.945H37.3956V210.144C37.3956 211.046 37.8572 211.419 38.6487 211.419C39.1324 211.419 39.572 211.31 39.9898 211.09V213.134C39.4182 213.442 38.7586 213.64 37.9232 213.64ZM52.7465 213.706C49.6687 213.706 47.4043 211.222 47.4043 207.77V207.572C47.4043 204.143 49.6907 201.592 52.7905 201.592C55.8684 201.592 58.1328 204.099 58.1328 207.55V207.748C58.1328 211.178 55.8464 213.706 52.7465 213.706ZM52.7905 211.529C54.5273 211.529 55.6485 209.903 55.6485 207.726V207.594C55.6485 205.418 54.4394 203.791 52.7465 203.791C51.0098 203.791 49.8885 205.396 49.8885 207.572V207.704C49.8885 209.881 51.0977 211.529 52.7905 211.529ZM60.9547 213.464V203.945H59.6576V201.878H60.9547V200.977C60.9547 199.79 61.2405 198.888 61.8121 198.317C62.3837 197.767 63.1972 197.481 64.2524 197.481C64.9999 197.481 65.5275 197.569 66.0112 197.723V199.812C65.6155 199.702 65.2417 199.614 64.8021 199.614C63.9007 199.614 63.417 200.119 63.417 201.219V201.878H65.9892V203.945H63.439V213.464H60.9547ZM73.594 213.464V198.075H76.2542L80.2114 205.154L84.1467 198.075H86.8288V213.464H84.3006V202.582L80.2114 209.705H80.1455L76.0783 202.626V213.464H73.594ZM94.6758 213.706C91.6859 213.706 89.3555 211.419 89.3555 207.77V207.594C89.3555 204.099 91.466 201.592 94.3241 201.592C97.4899 201.592 99.1607 204.23 99.1607 207.726C99.1607 207.88 99.1607 208.232 99.1387 208.583H91.8398C92.0596 210.54 93.2688 211.595 94.7857 211.595C95.885 211.595 96.6984 211.112 97.4679 210.364L98.765 211.903C97.7097 213.024 96.4126 213.706 94.6758 213.706ZM91.8178 206.869H96.7424C96.6105 205.022 95.775 203.681 94.3241 203.681C92.961 203.681 91.9937 204.89 91.8178 206.869ZM104.314 213.684C102.38 213.684 100.753 212.387 100.753 210.122V210.012C100.753 207.506 102.424 206.275 104.886 206.275C105.985 206.275 106.776 206.473 107.568 206.737V206.253C107.568 204.692 106.645 203.879 105.062 203.879C103.94 203.879 103.017 204.23 102.248 204.582L101.544 202.604C102.665 202.054 103.831 201.68 105.391 201.68C106.908 201.68 108.074 202.098 108.821 202.867C109.591 203.637 109.986 204.78 109.986 206.231V213.464H107.546V212.035C106.864 213.024 105.831 213.684 104.314 213.684ZM105.062 211.815C106.491 211.837 107.59 210.87 107.59 209.551V208.386C107.018 208.144 106.271 207.968 105.435 207.968C104.006 207.968 103.171 208.693 103.171 209.925V209.968C103.171 211.134 103.984 211.793 105.062 211.815ZM116.026 213.684C114.641 213.684 113.036 213.178 111.695 212.057L112.86 210.276C113.915 211.134 115.037 211.639 116.07 211.639C117.103 211.639 117.697 211.09 117.697 210.364V210.342C117.697 209.507 116.795 209.133 115.41 208.539C113.673 207.792 112.223 207.001 112.223 205.088V205.044C112.223 202.955 113.893 201.636 116.07 201.636C117.367 201.636 118.752 202.098 119.851 202.889L118.796 204.714C117.917 204.121 116.949 203.681 116.026 203.681C115.103 203.681 114.553 204.187 114.553 204.824V204.868C114.553 205.638 115.476 206.033 116.839 206.649C118.642 207.462 120.005 208.298 120.005 210.122V210.144C120.005 212.431 118.268 213.684 116.026 213.684ZM125.668 213.684C123.404 213.684 122.085 212.123 122.085 209.617V201.812H124.569V208.913C124.569 210.54 125.338 211.441 126.636 211.441C127.933 211.441 128.834 210.474 128.834 208.869V201.812H131.34V213.464H128.834V211.771C128.174 212.805 127.251 213.684 125.668 213.684ZM134.153 213.464V201.812H136.637V204.099C137.253 202.582 138.374 201.548 140.133 201.636V204.34H140.023C138 204.34 136.637 205.659 136.637 208.32V213.464H134.153ZM146.503 213.706C143.513 213.706 141.183 211.419 141.183 207.77V207.594C141.183 204.099 143.293 201.592 146.151 201.592C149.317 201.592 150.988 204.23 150.988 207.726C150.988 207.88 150.988 208.232 150.966 208.583H143.667C143.887 210.54 145.096 211.595 146.613 211.595C147.712 211.595 148.526 211.112 149.295 210.364L150.592 211.903C149.537 213.024 148.24 213.706 146.503 213.706ZM143.645 206.869H148.57C148.438 205.022 147.602 203.681 146.151 203.681C144.788 203.681 143.821 204.89 143.645 206.869ZM153.239 213.464V201.812H155.724V203.505C156.405 202.472 157.307 201.592 158.845 201.592C160.275 201.592 161.308 202.318 161.857 203.461C162.649 202.406 163.704 201.592 165.265 201.592C167.42 201.592 168.827 203.021 168.827 205.659V213.464H166.342V206.385C166.342 204.714 165.639 203.835 164.364 203.835C163.154 203.835 162.275 204.758 162.275 206.407V213.464H159.791V206.363C159.791 204.714 159.065 203.835 157.834 203.835C156.581 203.835 155.724 204.824 155.724 206.429V213.464H153.239ZM176.367 213.706C173.377 213.706 171.047 211.419 171.047 207.77V207.594C171.047 204.099 173.157 201.592 176.015 201.592C179.181 201.592 180.852 204.23 180.852 207.726C180.852 207.88 180.852 208.232 180.83 208.583H173.531C173.751 210.54 174.96 211.595 176.477 211.595C177.576 211.595 178.39 211.112 179.159 210.364L180.456 211.903C179.401 213.024 178.104 213.706 176.367 213.706ZM173.509 206.869H178.434C178.302 205.022 177.466 203.681 176.015 203.681C174.652 203.681 173.685 204.89 173.509 206.869ZM183.103 213.464V201.812H185.588V203.527C186.247 202.494 187.193 201.592 188.775 201.592C191.018 201.592 192.359 203.175 192.359 205.659V213.464H189.875V206.363C189.875 204.736 189.105 203.835 187.786 203.835C186.489 203.835 185.588 204.802 185.588 206.407V213.464H183.103ZM198.514 213.64C196.8 213.64 195.503 212.914 195.503 210.65V203.945H194.227V201.812H195.503V198.668H197.987V201.812H200.603V203.945H197.987V210.144C197.987 211.046 198.449 211.419 199.24 211.419C199.724 211.419 200.163 211.31 200.581 211.09V213.134C200.009 213.442 199.35 213.64 198.514 213.64Z" fill="#ADB5BD"/>
<path d="M3.81654 255.811C2.70851 255.811 1.42461 255.406 0.351755 254.509L1.28391 253.085C2.12812 253.77 3.02509 254.175 3.85172 254.175C4.67834 254.175 5.15321 253.735 5.15321 253.155V253.137C5.15321 252.469 4.43211 252.17 3.32409 251.695C1.93465 251.097 0.773861 250.464 0.773861 248.934V248.899C0.773861 247.228 2.11053 246.173 3.85172 246.173C4.8894 246.173 5.99742 246.542 6.87681 247.175L6.0326 248.635C5.32909 248.16 4.55523 247.808 3.81654 247.808C3.07786 247.808 2.63816 248.213 2.63816 248.723V248.758C2.63816 249.374 3.37685 249.69 4.46729 250.183C5.90948 250.833 6.99993 251.502 6.99993 252.961V252.979C6.99993 254.808 5.61049 255.811 3.81654 255.811ZM11.5304 255.811C9.71888 255.811 8.66362 254.562 8.66362 252.557V246.313H10.651V251.994C10.651 253.296 11.2666 254.017 12.3043 254.017C13.342 254.017 14.0631 253.243 14.0631 251.959V246.313H16.0681V255.635H14.0631V254.281C13.5354 255.107 12.7967 255.811 11.5304 255.811ZM23.0318 255.811C21.6776 255.811 20.8686 255.054 20.3057 254.228V255.635H18.3183V242.936H20.3057V247.808C20.8861 246.911 21.6952 246.137 23.0318 246.137C24.8962 246.137 26.6549 247.703 26.6549 250.851V251.097C26.6549 254.228 24.9137 255.811 23.0318 255.811ZM22.4866 254.052C23.7002 254.052 24.6499 252.926 24.6499 251.062V250.904C24.6499 249.039 23.6826 247.896 22.4866 247.896C21.2907 247.896 20.2706 249.057 20.2706 250.886V251.062C20.2706 252.891 21.2907 254.052 22.4866 254.052ZM28.5206 255.635V242.936H30.508V247.685C31.0356 246.858 31.7919 246.137 33.0582 246.137C34.8522 246.137 35.925 247.404 35.925 249.391V255.635H33.9376V249.954C33.9376 248.652 33.3221 247.931 32.2668 247.931C31.2291 247.931 30.508 248.705 30.508 249.989V255.635H28.5206ZM41.9215 255.828C39.5296 255.828 37.6653 253.999 37.6653 251.08V250.939C37.6653 248.142 39.3537 246.137 41.6401 246.137C44.1727 246.137 45.5094 248.248 45.5094 251.044C45.5094 251.167 45.5094 251.449 45.4918 251.73H39.6527C39.8286 253.296 40.7959 254.14 42.0094 254.14C42.8888 254.14 43.5396 253.753 44.1551 253.155L45.1928 254.386C44.3486 255.283 43.3109 255.828 41.9215 255.828ZM39.6351 250.358H43.5748C43.4692 248.881 42.8009 247.808 41.6401 247.808C40.5497 247.808 39.7758 248.776 39.6351 250.358ZM49.6322 255.811C48.0845 255.811 46.783 254.773 46.783 252.961V252.873C46.783 250.868 48.1197 249.884 50.0895 249.884C50.9689 249.884 51.6021 250.042 52.2352 250.253V249.866C52.2352 248.617 51.4965 247.967 50.2302 247.967C49.3332 247.967 48.5945 248.248 47.979 248.529L47.4162 246.946C48.3131 246.507 49.2453 246.208 50.494 246.208C51.7076 246.208 52.6397 246.542 53.2377 247.157C53.8533 247.773 54.1699 248.688 54.1699 249.848V255.635H52.2176V254.492C51.6724 255.283 50.8458 255.811 49.6322 255.811ZM50.2302 254.316C51.3734 254.333 52.2528 253.559 52.2528 252.504V251.572C51.7955 251.379 51.1975 251.238 50.5292 251.238C49.386 251.238 48.7177 251.818 48.7177 252.803V252.838C48.7177 253.77 49.3684 254.298 50.2302 254.316ZM59.5468 255.811C57.6825 255.811 55.9237 254.245 55.9237 251.097V250.868C55.9237 247.72 57.6649 246.137 59.5468 246.137C60.901 246.137 61.7101 246.911 62.2729 247.72V242.936H64.2603V255.635H62.2729V254.14C61.6925 255.037 60.8834 255.811 59.5468 255.811ZM60.092 254.052C61.288 254.052 62.308 252.891 62.308 251.062V250.886C62.308 249.057 61.288 247.896 60.092 247.896C58.8784 247.896 57.9287 249.022 57.9287 250.904V251.044C57.9287 252.909 58.896 254.052 60.092 254.052ZM70.347 255.828C67.9551 255.828 66.0908 253.999 66.0908 251.08V250.939C66.0908 248.142 67.7792 246.137 70.0656 246.137C72.5983 246.137 73.9349 248.248 73.9349 251.044C73.9349 251.167 73.9349 251.449 73.9173 251.73H68.0782C68.2541 253.296 69.2214 254.14 70.435 254.14C71.3143 254.14 71.9651 253.753 72.5807 253.155L73.6183 254.386C72.7741 255.283 71.7365 255.828 70.347 255.828ZM68.0606 250.358H72.0003C71.8947 248.881 71.2264 247.808 70.0656 247.808C68.9752 247.808 68.2013 248.776 68.0606 250.358ZM75.7362 255.635V246.313H77.7236V248.142C78.216 246.929 79.113 246.102 80.52 246.173V248.336H80.4321C78.814 248.336 77.7236 249.391 77.7236 251.519V255.635H75.7362Z" fill="#ADB5BD"/>
<path d="M34.5476 151.228C17.0302 151.228 5.8444 136.349 5.8444 113.766V112.394C5.8444 89.8118 17.2413 74.827 34.7587 74.827C52.065 74.827 63.4619 89.7063 63.4619 112.289V113.661C63.4619 136.243 52.065 151.228 34.5476 151.228ZM34.7587 137.299C42.5676 137.299 47.8439 129.068 47.8439 113.555V112.606C47.8439 97.0931 42.3566 88.7565 34.5476 88.7565C26.7386 88.7565 21.4623 96.8821 21.4623 112.5V113.45C21.4623 128.962 26.8442 137.299 34.7587 137.299ZM72.3385 149.962V133.711H88.6951V149.962H72.3385ZM126.368 151.228C108.851 151.228 97.6648 136.349 97.6648 113.766V112.394C97.6648 89.8118 109.062 74.827 126.579 74.827C143.885 74.827 155.282 89.7063 155.282 112.289V113.661C155.282 136.243 143.885 151.228 126.368 151.228ZM126.579 137.299C134.388 137.299 139.664 129.068 139.664 113.555V112.606C139.664 97.0931 134.177 88.7565 126.368 88.7565C118.559 88.7565 113.283 96.8821 113.283 112.5V113.45C113.283 128.962 118.665 137.299 126.579 137.299ZM193.456 151.228C175.938 151.228 164.752 136.349 164.752 113.766V112.394C164.752 89.8118 176.149 74.827 193.667 74.827C210.973 74.827 222.37 89.7063 222.37 112.289V113.661C222.37 136.243 210.973 151.228 193.456 151.228ZM193.667 137.299C201.476 137.299 206.752 129.068 206.752 113.555V112.606C206.752 97.0931 201.265 88.7565 193.456 88.7565C185.647 88.7565 180.37 96.8821 180.37 112.5V113.45C180.37 128.962 185.752 137.299 193.667 137.299Z" fill="#DFE3E6"/>
<line x1="1.0957" y1="28.0314" x2="317.675" y2="28.0314" stroke="#252C34" stroke-width="1.09923"/>
<line x1="1.0957" y1="221.495" x2="317.675" y2="221.495" stroke="#252C34" stroke-width="1.09923"/>
</svg>
