<svg width="182" height="166" viewBox="0 0 182 166" fill="none" xmlns="http://www.w3.org/2000/svg">
<rect x="0.5" y="0.261963" width="181" height="165" rx="12" fill="#CFD4DA"/>
<path d="M20.8736 91.4296C15.0077 91.4296 10.6945 89.1292 7.58899 85.7937L12.5923 79.9278C14.6626 82.1131 17.1355 83.8384 20.7011 83.8384C23.9216 83.8384 26.2795 81.8256 26.2795 78.6051V78.4901C26.2795 75.0395 23.404 73.0267 18.2282 73.0267H15.8128L14.8351 67.7358L23.6916 57.9018H9.71683V50.4831H33.9282V57.0966L24.4967 66.9882C29.6725 68.0234 34.5033 71.2439 34.5033 78.2025V78.375C34.5033 86.0813 29.0399 91.4296 20.8736 91.4296ZM56.9916 90.7395V82.4582H39.6813L38.6462 76.4197L57.5667 50.2531H64.8703V75.4996H69.7586V82.4582H64.8703V90.7395H56.9916ZM47.7901 75.4996H56.9916V62.5025L47.7901 75.4996ZM86.5248 91.4296C81.349 91.4296 77.0933 89.5318 73.6427 86.3113L78.301 80.1003C80.8889 82.3432 83.3043 83.7234 86.3523 83.7234C90.0904 83.7234 92.5057 81.4805 92.5057 77.7999V77.7424C92.5057 74.1769 89.7453 72.049 86.0072 72.049C83.9369 72.049 82.0391 72.6241 80.4863 73.3142L75.8281 70.2662L76.9783 50.4831H99.0043V57.9593H83.8794L83.4193 65.2629C84.742 64.9179 86.0072 64.6879 87.905 64.6879C94.7486 64.6879 100.672 68.3684 100.672 77.3974V77.5699C100.672 86.1388 94.8636 91.4296 86.5248 91.4296Z" fill="#373D43"/>
<line x1="6.09375" y1="24.2886" x2="177.499" y2="24.2886" stroke="#70777E" stroke-width="0.599054"/>
<line x1="6.09375" y1="128.044" x2="177.499" y2="128.044" stroke="#70777E" stroke-width="0.599054"/>
<rect x="5.5" y="9.26196" width="68" height="12" rx="6" fill="#70777E"/>
<rect x="6.5" y="113.262" width="130" height="12" rx="6" fill="#70777E"/>
<rect x="5.5" y="138.262" width="46" height="9" rx="4.5" fill="#70777E"/>
</svg>
