<svg width="200" height="201" viewBox="0 0 200 201" fill="none" xmlns="http://www.w3.org/2000/svg">
<g clip-path="url(#clip0_20507_7310)">
<path d="M0 179.262H200" stroke="#CBCBCB" stroke-width="0.4"/>
<path d="M0 150.262H200" stroke="#CBCBCB" stroke-width="0.4"/>
<path d="M0 120.262H200" stroke="#CBCBCB" stroke-width="0.4"/>
<path d="M0 90.262H200" stroke="#CBCBCB" stroke-width="0.4"/>
<path d="M0 61.262H200" stroke="#CBCBCB" stroke-width="0.4"/>
<path d="M0 31.262H200" stroke="#CBCBCB" stroke-width="0.4"/>
<circle cx="10.9248" cy="133.6" r="9.92481" fill="#ADB5BD"/>
<circle cx="27.0536" cy="106.307" r="16.1278" fill="#ADB5BD"/>
<circle cx="36.9775" cy="165.856" r="9.92481" fill="#868E96"/>
<circle cx="69.2333" cy="158.412" r="16.1278" fill="#868E96"/>
<circle cx="85.3604" cy="128.638" r="9.92481" fill="#ADB5BD"/>
<circle cx="118.856" cy="129.879" r="16.1278" fill="#373D43"/>
<circle cx="122.579" cy="169.578" r="9.92481" fill="#373D43"/>
<circle cx="159.798" cy="128.638" r="9.92481" fill="#868E96"/>
<circle cx="188.331" cy="86.4574" r="9.92481" fill="#868E96"/>
<circle cx="56.8272" cy="113.751" r="9.92481" fill="#ADB5BD"/>
<circle cx="159.176" cy="95.762" r="4.34211" fill="#373D43"/>
<circle cx="89.7034" cy="103.206" r="4.34211" fill="#373D43"/>
<circle cx="52.4847" cy="94.5213" r="4.34211" fill="#868E96"/>
<circle cx="90.9437" cy="151.589" r="4.34211" fill="#ADB5BD"/>
<circle cx="130.643" cy="72.1905" r="4.34211" fill="#ADB5BD"/>
<circle cx="101.489" cy="74.0514" r="16.1278" fill="#868E96"/>
<circle cx="134.985" cy="96.3822" r="9.92481" fill="#868E96"/>
<circle cx="159.798" cy="61.6454" r="16.1278" fill="#ADB5BD"/>
</g>
<defs>
<clipPath id="clip0_20507_7310">
<rect width="200" height="200" fill="white" transform="translate(0 0.261963)"/>
</clipPath>
</defs>
</svg>
