<svg width="521" height="524" viewBox="0 0 521 524" fill="none" xmlns="http://www.w3.org/2000/svg">
<path d="M521 275.963C521 277.567 520.363 279.105 519.229 280.239C518.094 281.373 516.556 282.01 514.952 282.01C513.349 282.01 511.81 281.373 510.676 280.239C509.542 279.105 508.905 277.567 508.905 275.963C508.905 274.359 509.542 272.821 510.676 271.687C511.81 270.553 513.349 269.916 514.952 269.916C516.556 269.915 518.094 270.553 519.229 271.687C520.363 272.821 521 274.359 521 275.963Z" fill="#E9EEF4"/>
<path d="M514.1 295.443C514.1 295.666 514.011 295.881 513.853 296.039C513.695 296.197 513.481 296.286 513.257 296.286C513.033 296.286 512.819 296.197 512.661 296.039C512.503 295.881 512.414 295.666 512.414 295.443C512.414 295.219 512.503 295.005 512.661 294.847C512.819 294.688 513.033 294.6 513.257 294.6C513.481 294.6 513.695 294.688 513.853 294.847C514.011 295.005 514.1 295.219 514.1 295.443Z" fill="#E9EEF4"/>
<path d="M512.855 310.764C512.855 311.294 512.644 311.803 512.269 312.178C511.894 312.553 511.386 312.763 510.855 312.763C510.325 312.763 509.816 312.552 509.441 312.177C509.066 311.802 508.855 311.294 508.855 310.763C508.855 310.233 509.066 309.724 509.441 309.349C509.816 308.974 510.325 308.764 510.855 308.764C511.386 308.764 511.894 308.974 512.269 309.349C512.644 309.724 512.855 310.233 512.855 310.764Z" fill="#E9EEF4"/>
<path d="M509.242 327.031C509.242 327.561 509.031 328.07 508.656 328.445C508.281 328.82 507.773 329.031 507.242 329.031C506.712 329.031 506.203 328.82 505.828 328.445C505.453 328.07 505.243 327.561 505.243 327.031C505.243 326.501 505.453 325.992 505.828 325.617C506.203 325.242 506.712 325.031 507.242 325.031C507.773 325.031 508.281 325.242 508.656 325.617C509.031 325.992 509.242 326.501 509.242 327.031Z" fill="#E9EEF4"/>
<path d="M503.776 341.928C503.776 342.152 503.687 342.366 503.529 342.524C503.371 342.682 503.156 342.771 502.933 342.771C502.709 342.771 502.495 342.682 502.337 342.524C502.179 342.366 502.09 342.152 502.09 341.928C502.09 341.704 502.179 341.49 502.337 341.332C502.495 341.174 502.709 341.085 502.933 341.085C503.156 341.085 503.371 341.174 503.529 341.332C503.687 341.49 503.776 341.704 503.776 341.928Z" fill="#E9EEF4"/>
<path d="M498.989 355.458C498.989 355.681 498.9 355.896 498.742 356.054C498.584 356.212 498.369 356.301 498.146 356.301C497.922 356.301 497.708 356.212 497.55 356.054C497.392 355.896 497.303 355.681 497.303 355.458C497.303 355.234 497.392 355.02 497.55 354.862C497.708 354.704 497.922 354.615 498.146 354.615C498.369 354.615 498.584 354.704 498.742 354.862C498.9 355.02 498.989 355.234 498.989 355.458Z" fill="#E9EEF4"/>
<path d="M493.449 368.698C493.449 368.921 493.36 369.136 493.202 369.294C493.044 369.452 492.83 369.541 492.606 369.541C492.383 369.541 492.168 369.452 492.01 369.294C491.852 369.136 491.763 368.921 491.763 368.698C491.763 368.474 491.852 368.26 492.01 368.101C492.168 367.943 492.383 367.854 492.606 367.854C492.83 367.854 493.044 367.943 493.202 368.101C493.36 368.259 493.449 368.474 493.449 368.698Z" fill="#E9EEF4"/>
<path d="M487.174 381.604C487.174 381.828 487.085 382.042 486.927 382.2C486.769 382.358 486.554 382.447 486.331 382.447C486.107 382.447 485.893 382.358 485.735 382.2C485.577 382.042 485.488 381.828 485.488 381.604C485.488 381.381 485.577 381.166 485.735 381.008C485.893 380.85 486.107 380.761 486.331 380.761C486.554 380.761 486.769 380.85 486.927 381.008C487.085 381.166 487.174 381.381 487.174 381.604Z" fill="#E9EEF4"/>
<path d="M480.183 394.139C480.183 394.363 480.094 394.577 479.936 394.735C479.778 394.893 479.563 394.982 479.34 394.982C479.116 394.982 478.902 394.893 478.743 394.735C478.585 394.577 478.497 394.363 478.497 394.139C478.497 393.915 478.585 393.701 478.743 393.543C478.902 393.385 479.116 393.296 479.34 393.296C479.563 393.296 479.778 393.385 479.936 393.543C480.094 393.701 480.183 393.915 480.183 394.139Z" fill="#E9EEF4"/>
<path d="M472.499 406.26C472.499 406.484 472.41 406.698 472.252 406.856C472.094 407.014 471.879 407.103 471.656 407.103C471.432 407.103 471.218 407.014 471.059 406.856C470.901 406.698 470.812 406.484 470.812 406.26C470.812 406.036 470.901 405.822 471.059 405.664C471.218 405.506 471.432 405.417 471.656 405.417C471.879 405.417 472.094 405.506 472.252 405.664C472.41 405.822 472.499 406.036 472.499 406.26Z" fill="#E9EEF4"/>
<path d="M464.145 417.93C464.145 418.154 464.056 418.368 463.898 418.527C463.74 418.685 463.526 418.773 463.302 418.773C463.078 418.773 462.864 418.685 462.706 418.527C462.548 418.368 462.459 418.154 462.459 417.93C462.459 417.707 462.548 417.492 462.706 417.334C462.864 417.176 463.078 417.087 463.302 417.087C463.526 417.087 463.74 417.176 463.898 417.334C464.056 417.492 464.145 417.707 464.145 417.93Z" fill="#E9EEF4"/>
<path d="M461.649 443.999C461.649 449.59 459.428 454.952 455.474 458.905C451.521 462.858 446.159 465.079 440.568 465.079C434.977 465.079 429.615 462.858 425.662 458.904C421.708 454.951 419.487 449.589 419.487 443.998C419.487 438.407 421.708 433.045 425.662 429.092C429.615 425.138 434.977 422.917 440.568 422.917C446.159 422.917 451.521 425.138 455.474 429.091C459.428 433.044 461.649 438.408 461.649 443.999Z" fill="#E9EEF4"/>
<path d="M415.48 467.104C415.48 467.481 415.33 467.843 415.063 468.11C414.797 468.376 414.435 468.526 414.058 468.526C413.681 468.526 413.319 468.376 413.053 468.11C412.786 467.843 412.636 467.481 412.636 467.104C412.636 466.727 412.786 466.366 413.053 466.099C413.319 465.832 413.681 465.683 414.058 465.683C414.435 465.683 414.797 465.832 415.063 466.099C415.33 466.366 415.48 466.727 415.48 467.104Z" fill="#E9EEF4"/>
<path d="M402.739 475.763C402.739 475.987 402.65 476.201 402.492 476.359C402.334 476.517 402.119 476.606 401.896 476.606C401.672 476.606 401.458 476.517 401.3 476.359C401.142 476.201 401.053 475.987 401.053 475.763C401.053 475.539 401.142 475.325 401.3 475.167C401.458 475.009 401.672 474.92 401.896 474.92C402.119 474.92 402.334 475.009 402.492 475.167C402.65 475.325 402.739 475.539 402.739 475.763Z" fill="#E9EEF4"/>
<path d="M390.589 483.403C390.589 483.626 390.501 483.841 390.342 483.999C390.184 484.157 389.97 484.246 389.746 484.246C389.523 484.246 389.308 484.157 389.15 483.999C388.992 483.841 388.903 483.626 388.903 483.403C388.903 483.179 388.992 482.965 389.15 482.806C389.308 482.648 389.523 482.56 389.746 482.56C389.97 482.56 390.184 482.648 390.342 482.806C390.501 482.965 390.589 483.179 390.589 483.403Z" fill="#E9EEF4"/>
<path d="M378.029 490.347C378.029 490.571 377.94 490.785 377.782 490.944C377.624 491.102 377.41 491.19 377.186 491.19C376.963 491.19 376.748 491.102 376.59 490.944C376.432 490.785 376.343 490.571 376.343 490.347C376.343 490.124 376.432 489.909 376.59 489.751C376.748 489.593 376.963 489.504 377.186 489.504C377.41 489.504 377.624 489.593 377.782 489.751C377.94 489.909 378.029 490.124 378.029 490.347Z" fill="#E9EEF4"/>
<path d="M365.485 498.427C365.485 499.877 364.909 501.268 363.883 502.294C362.858 503.319 361.467 503.896 360.016 503.896C358.565 503.896 357.174 503.319 356.149 502.294C355.123 501.268 354.547 499.877 354.547 498.426C354.547 496.976 355.123 495.585 356.149 494.559C357.174 493.533 358.565 492.957 360.016 492.957C361.467 492.957 362.858 493.533 363.883 494.559C364.909 495.584 365.485 496.976 365.485 498.427Z" fill="#E9EEF4"/>
<path d="M343.315 506.303C343.315 507.447 342.861 508.544 342.052 509.353C341.243 510.162 340.146 510.616 339.002 510.616C337.859 510.616 336.762 510.161 335.953 509.353C335.144 508.544 334.69 507.447 334.69 506.303C334.69 505.16 335.144 504.063 335.953 503.254C336.762 502.445 337.859 501.991 339.002 501.991C340.146 501.991 341.243 502.445 342.052 503.254C342.861 504.062 343.315 505.16 343.315 506.303Z" fill="#E9EEF4"/>
<path d="M322.817 512.042C322.816 513.186 322.362 514.282 321.553 515.091C320.745 515.9 319.648 516.354 318.504 516.354C317.36 516.354 316.263 515.9 315.454 515.091C314.646 514.282 314.191 513.185 314.191 512.042C314.191 510.898 314.646 509.801 315.454 508.992C316.263 508.183 317.36 507.729 318.504 507.729C319.648 507.729 320.745 508.183 321.553 508.992C322.362 509.801 322.816 510.898 322.817 512.042Z" fill="#E9EEF4"/>
<path d="M301.911 516.053C301.911 517.196 301.456 518.293 300.648 519.102C299.839 519.911 298.742 520.365 297.598 520.365C296.454 520.365 295.357 519.91 294.549 519.102C293.74 518.293 293.286 517.196 293.286 516.052C293.286 514.909 293.74 513.812 294.549 513.003C295.357 512.194 296.454 511.74 297.598 511.74C298.742 511.74 299.839 512.194 300.648 513.003C301.456 513.811 301.911 514.909 301.911 516.053Z" fill="#E9EEF4"/>
<path d="M280.744 518.307C280.744 519.451 280.289 520.548 279.481 521.356C278.672 522.165 277.575 522.619 276.431 522.619C275.287 522.619 274.19 522.165 273.382 521.356C272.573 520.547 272.119 519.45 272.119 518.307C272.119 517.163 272.573 516.066 273.382 515.257C274.19 514.449 275.287 513.994 276.431 513.994C277.575 513.994 278.672 514.448 279.481 515.257C280.289 516.066 280.744 517.163 280.744 518.307Z" fill="#E9EEF4"/>
<path d="M259.463 518.79C259.462 519.934 259.008 521.03 258.199 521.839C257.391 522.648 256.294 523.102 255.15 523.102C254.006 523.102 252.909 522.648 252.1 521.839C251.292 521.03 250.837 519.933 250.837 518.79C250.837 517.646 251.292 516.549 252.1 515.74C252.909 514.931 254.006 514.477 255.15 514.477C256.294 514.477 257.391 514.931 258.199 515.74C259.008 516.549 259.462 517.646 259.463 518.79Z" fill="#E9EEF4"/>
<path d="M238.215 517.498C238.215 518.642 237.761 519.739 236.952 520.548C236.143 521.356 235.047 521.811 233.903 521.811C232.759 521.811 231.662 521.356 230.853 520.548C230.045 519.739 229.59 518.642 229.59 517.498C229.59 516.354 230.045 515.257 230.853 514.449C231.662 513.64 232.759 513.186 233.903 513.186C235.047 513.186 236.143 513.64 236.952 514.449C237.761 515.257 238.215 516.355 238.215 517.498Z" fill="#E9EEF4"/>
<path d="M217.235 513.544C217.235 515.915 216.293 518.188 214.617 519.864C212.941 521.54 210.667 522.482 208.297 522.482C205.926 522.482 203.653 521.54 201.977 519.864C200.301 518.188 199.359 515.914 199.359 513.544C199.359 511.173 200.301 508.9 201.977 507.223C203.653 505.547 205.926 504.606 208.297 504.605C210.667 504.605 212.941 505.547 214.617 507.223C216.293 508.899 217.235 511.174 217.235 513.544Z" fill="#E9EEF4"/>
<path d="M187.647 506.309C187.647 508.066 186.949 509.751 185.706 510.993C184.463 512.236 182.778 512.934 181.021 512.934C179.264 512.934 177.579 512.236 176.336 510.993C175.094 509.751 174.396 508.066 174.396 506.308C174.396 504.551 175.094 502.866 176.336 501.624C177.579 500.381 179.264 499.683 181.021 499.683C182.778 499.683 184.463 500.381 185.706 501.623C186.949 502.866 187.647 504.552 187.647 506.309Z" fill="#E9EEF4"/>
<path d="M163.701 495.868C163.701 498.392 162.698 500.812 160.913 502.597C159.128 504.382 156.708 505.384 154.184 505.384C151.66 505.384 149.239 504.382 147.454 502.597C145.67 500.812 144.667 498.391 144.667 495.867C144.667 493.343 145.67 490.923 147.454 489.138C149.239 487.353 151.66 486.351 154.184 486.351C156.708 486.351 159.128 487.353 160.913 489.138C162.698 490.922 163.701 493.344 163.701 495.868Z" fill="#E9EEF4"/>
<path d="M135.319 482.47C135.319 484.228 134.62 485.913 133.378 487.155C132.135 488.398 130.45 489.095 128.693 489.095C126.936 489.095 125.251 488.397 124.008 487.155C122.766 485.912 122.068 484.227 122.068 482.47C122.068 480.713 122.766 479.028 124.008 477.785C125.251 476.543 126.936 475.845 128.693 475.845C130.45 475.845 132.135 476.543 133.378 477.785C134.62 479.028 135.319 480.713 135.319 482.47Z" fill="#E9EEF4"/>
<path d="M114.51 465.935C114.509 468.612 113.446 471.18 111.553 473.073C109.659 474.966 107.092 476.029 104.414 476.029C101.737 476.029 99.1696 474.965 97.2765 473.072C95.3834 471.179 94.3198 468.612 94.3198 465.934C94.3198 463.257 95.3834 460.689 97.2765 458.796C99.1696 456.903 101.737 455.839 104.414 455.839C107.092 455.839 109.659 456.903 111.553 458.796C113.446 460.689 114.509 463.257 114.51 465.935Z" fill="#E9EEF4"/>
<path d="M87.7015 449.515C87.7015 450.199 87.4298 450.855 86.9464 451.338C86.463 451.822 85.8073 452.093 85.1236 452.093C84.44 452.093 83.7843 451.821 83.3009 451.338C82.8175 450.855 82.5459 450.199 82.5459 449.515C82.5459 448.832 82.8175 448.176 83.3009 447.693C83.7843 447.209 84.44 446.938 85.1236 446.938C85.8073 446.937 86.463 447.209 86.9464 447.692C87.4298 448.176 87.7015 448.832 87.7015 449.515Z" fill="#E9EEF4"/>
<path d="M75.9057 435.155C75.9056 436.453 75.3903 437.696 74.4732 438.614C73.556 439.531 72.312 440.046 71.015 440.046C69.7179 440.046 68.474 439.531 67.5569 438.613C66.6398 437.696 66.1245 436.452 66.1245 435.155C66.1245 433.858 66.6398 432.614 67.5569 431.697C68.474 430.78 69.7179 430.265 71.015 430.265C72.312 430.265 73.556 430.78 74.4732 431.697C75.3903 432.614 75.9056 433.858 75.9057 435.155Z" fill="#E9EEF4"/>
<path d="M60.2135 420.642C60.2135 421.019 60.0637 421.381 59.7971 421.647C59.5305 421.914 59.1688 422.064 58.7918 422.064C58.4147 422.064 58.0531 421.914 57.7865 421.647C57.5199 421.381 57.3701 421.019 57.3701 420.642C57.3701 420.265 57.5199 419.903 57.7865 419.637C58.0531 419.37 58.4147 419.22 58.7918 419.22C59.1688 419.22 59.5305 419.37 59.7971 419.637C60.0637 419.903 60.2135 420.265 60.2135 420.642Z" fill="#E9EEF4"/>
<path d="M51.5506 407.179C51.5506 407.862 51.279 408.518 50.7955 409.001C50.3121 409.485 49.6564 409.756 48.9727 409.756C48.2891 409.756 47.6334 409.485 47.15 409.001C46.6666 408.518 46.395 407.862 46.395 407.178C46.395 406.495 46.6666 405.839 47.15 405.356C47.6334 404.872 48.2891 404.601 48.9727 404.601C49.6564 404.601 50.3121 404.872 50.7955 405.356C51.279 405.839 51.5506 406.495 51.5506 407.179Z" fill="#E9EEF4"/>
<path d="M41.1905 393.601C41.1904 393.824 41.1016 394.039 40.9435 394.197C40.7854 394.355 40.571 394.444 40.3474 394.444C40.1238 394.444 39.9094 394.355 39.7513 394.197C39.5932 394.039 39.5044 393.824 39.5044 393.601C39.5044 393.377 39.5932 393.163 39.7513 393.005C39.9094 392.847 40.1238 392.758 40.3474 392.758C40.571 392.758 40.7854 392.847 40.9435 393.005C41.1016 393.163 41.1904 393.377 41.1905 393.601Z" fill="#E9EEF4"/>
<path d="M34.5431 380.536C34.5431 380.913 34.3933 381.275 34.1267 381.541C33.86 381.808 33.4984 381.958 33.1214 381.958C32.7443 381.958 32.3827 381.808 32.1161 381.541C31.8495 381.275 31.6997 380.913 31.6997 380.536C31.6997 380.159 31.8495 379.797 32.1161 379.531C32.3827 379.264 32.7443 379.114 33.1214 379.114C33.4984 379.114 33.86 379.264 34.1267 379.531C34.3933 379.797 34.5431 380.159 34.5431 380.536Z" fill="#E9EEF4"/>
<path d="M29.2493 364.422C29.2492 365.412 28.8558 366.362 28.1554 367.062C27.455 367.763 26.5051 368.156 25.5147 368.156C24.5243 368.156 23.5744 367.763 22.8741 367.062C22.1737 366.362 21.7803 365.412 21.7803 364.422C21.7803 363.431 22.1737 362.481 22.8741 361.781C23.5744 361.081 24.5243 360.687 25.5147 360.687C26.5051 360.687 27.455 361.08 28.1554 361.781C28.8558 362.481 29.2492 363.431 29.2493 364.422Z" fill="#E9EEF4"/>
<path d="M22.0325 345.629C22.0325 346.619 21.639 347.569 20.9386 348.269C20.2382 348.97 19.2883 349.363 18.2979 349.363C17.3075 349.363 16.3576 348.97 15.6573 348.269C14.9569 347.569 14.5635 346.619 14.5635 345.629C14.5635 344.638 14.9569 343.688 15.6573 342.988C16.3576 342.288 17.3075 341.894 18.2979 341.894C19.2883 341.894 20.2382 342.287 20.9386 342.988C21.639 343.688 22.0325 344.638 22.0325 345.629Z" fill="#E9EEF4"/>
<path d="M16.3186 326.326C16.3186 327.316 15.9251 328.266 15.2247 328.966C14.5243 329.666 13.5745 330.06 12.584 330.06C11.5936 330.06 10.6437 329.666 9.94339 328.966C9.24305 328.266 8.84961 327.316 8.84961 326.325C8.84961 325.335 9.24305 324.385 9.94339 323.685C10.6437 322.984 11.5936 322.591 12.584 322.591C13.5745 322.591 14.5243 322.984 15.2247 323.685C15.9251 324.385 16.3186 325.335 16.3186 326.326Z" fill="#E9EEF4"/>
<path d="M12.1438 306.632C12.1438 307.623 11.7503 308.572 11.0499 309.273C10.3495 309.973 9.39966 310.367 8.40922 310.366C7.41879 310.366 6.46892 309.973 5.76859 309.273C5.06825 308.572 4.6748 307.622 4.6748 306.632C4.6748 305.642 5.06825 304.692 5.76859 303.991C6.46892 303.291 7.41879 302.897 8.40922 302.897C9.39966 302.897 10.3495 303.291 11.0499 303.991C11.7503 304.691 12.1438 305.642 12.1438 306.632Z" fill="#E9EEF4"/>
<path d="M9.53397 286.671C9.53392 287.662 9.14043 288.612 8.44005 289.312C7.73968 290.012 6.7898 290.406 5.79936 290.406C4.80892 290.406 3.85906 290.012 3.15872 289.312C2.45839 288.611 2.06494 287.661 2.06494 286.671C2.06494 285.681 2.45839 284.731 3.15872 284.03C3.85906 283.33 4.80892 282.937 5.79936 282.937C6.7898 282.936 7.73968 283.33 8.44005 284.03C9.14043 284.731 9.53392 285.681 9.53397 286.671Z" fill="#E9EEF4"/>
<path d="M6.79686 268.301C6.79684 268.831 6.58613 269.34 6.2111 269.715C5.83606 270.09 5.32742 270.3 4.79706 270.3C4.26671 270.3 3.75807 270.09 3.38306 269.715C3.00804 269.34 2.79736 268.831 2.79736 268.301C2.79736 267.77 3.00804 267.262 3.38306 266.887C3.75807 266.511 4.26671 266.301 4.79706 266.301C5.32742 266.301 5.83606 266.511 6.2111 266.886C6.58613 267.261 6.79684 267.77 6.79686 268.301Z" fill="#E9EEF4"/>
<path d="M5.82474 252.794C5.82472 253.018 5.7359 253.232 5.5778 253.39C5.41969 253.548 5.20527 253.637 4.98168 253.637C4.7581 253.637 4.54368 253.548 4.38558 253.39C4.22749 253.232 4.13867 253.018 4.13867 252.794C4.13867 252.571 4.22749 252.356 4.38558 252.198C4.54368 252.04 4.7581 251.951 4.98168 251.951C5.20527 251.951 5.41969 252.04 5.5778 252.198C5.7359 252.356 5.82472 252.571 5.82474 252.794Z" fill="#E9EEF4"/>
<path d="M13.2507 232.73C13.2506 234.487 12.5525 236.172 11.31 237.414C10.0675 238.657 8.38232 239.355 6.62519 239.355C4.86807 239.355 3.18292 238.657 1.94046 237.414C0.698004 236.172 0 234.486 0 232.729C0 230.972 0.698004 229.287 1.94046 228.045C3.18292 226.802 4.86807 226.104 6.62519 226.104C8.38232 226.104 10.0675 226.802 11.31 228.044C12.5525 229.287 13.2506 230.973 13.2507 232.73Z" fill="#E9EEF4"/>
<path d="M12.0776 211.724C12.0776 212.255 11.8669 212.763 11.4919 213.138C11.1168 213.513 10.6082 213.724 10.0778 213.724C9.54747 213.724 9.03884 213.513 8.66382 213.138C8.28881 212.763 8.07812 212.255 8.07812 211.724C8.07812 211.194 8.28881 210.685 8.66382 210.31C9.03884 209.935 9.54747 209.725 10.0778 209.725C10.6082 209.725 11.1168 209.935 11.4919 210.31C11.8669 210.685 12.0776 211.194 12.0776 211.724Z" fill="#E9EEF4"/>
<path d="M15.9936 195.528C15.9936 196.058 15.7829 196.567 15.4079 196.942C15.0328 197.317 14.5242 197.527 13.9938 197.527C13.4635 197.527 12.9549 197.317 12.5798 196.942C12.2048 196.567 11.9941 196.058 11.9941 195.528C11.9941 194.997 12.2048 194.489 12.5798 194.114C12.9549 193.739 13.4635 193.528 13.9938 193.528C14.5242 193.528 15.0328 193.738 15.4079 194.113C15.7829 194.488 15.9936 194.997 15.9936 195.528Z" fill="#E9EEF4"/>
<path d="M20.1911 180.167C20.1911 180.544 20.0413 180.906 19.7746 181.173C19.508 181.439 19.1464 181.589 18.7693 181.589C18.3923 181.589 18.0307 181.439 17.7641 181.173C17.4974 180.906 17.3477 180.544 17.3477 180.167C17.3477 179.79 17.4974 179.429 17.7641 179.162C18.0307 178.895 18.3923 178.746 18.7693 178.746C19.1464 178.746 19.508 178.895 19.7746 179.162C20.0413 179.429 20.1911 179.79 20.1911 180.167Z" fill="#E9EEF4"/>
<path d="M24.9024 166.206C24.9024 166.429 24.8135 166.644 24.6554 166.802C24.4973 166.96 24.2829 167.049 24.0593 167.049C23.8357 167.049 23.6213 166.96 23.4632 166.802C23.3051 166.644 23.2163 166.429 23.2163 166.206C23.2163 165.982 23.3051 165.768 23.4632 165.61C23.6213 165.452 23.8357 165.363 24.0593 165.363C24.2829 165.363 24.4973 165.452 24.6554 165.61C24.8135 165.768 24.9024 165.982 24.9024 166.206Z" fill="#E9EEF4"/>
<path d="M30.7486 153.099C30.7486 153.323 30.6597 153.537 30.5016 153.695C30.3435 153.853 30.1291 153.942 29.9055 153.942C29.6819 153.942 29.4675 153.853 29.3094 153.695C29.1513 153.537 29.0625 153.322 29.0625 153.099C29.0625 152.875 29.1513 152.661 29.3094 152.503C29.4675 152.345 29.6819 152.256 29.9055 152.256C30.1291 152.256 30.3435 152.345 30.5016 152.503C30.6597 152.661 30.7486 152.875 30.7486 153.099Z" fill="#E9EEF4"/>
<path d="M38.1808 139.835C38.1808 140.212 38.031 140.574 37.7644 140.84C37.4977 141.107 37.1361 141.257 36.7591 141.257C36.382 141.256 36.0204 141.107 35.7538 140.84C35.4872 140.573 35.3374 140.212 35.3374 139.835C35.3374 139.458 35.4872 139.096 35.7538 138.83C36.0204 138.563 36.382 138.413 36.7591 138.413C37.1361 138.413 37.4977 138.563 37.7644 138.829C38.031 139.096 38.1808 139.458 38.1808 139.835Z" fill="#E9EEF4"/>
<path d="M64.1048 116.891C64.1046 120.335 62.7363 123.638 60.301 126.073C57.8656 128.508 54.5627 129.876 51.1187 129.876C47.6747 129.876 44.3718 128.507 41.9366 126.072C39.5014 123.637 38.1333 120.334 38.1333 116.89C38.1333 113.446 39.5014 110.143 41.9366 107.708C44.3718 105.273 47.6747 103.904 51.1187 103.904C54.5627 103.904 57.8656 105.272 60.301 107.707C62.7363 110.143 64.1046 113.447 64.1048 116.891Z" fill="#E9EEF4"/>
<path d="M74.0553 93.4295C74.0552 94.5732 73.6008 95.6701 72.7921 96.4788C71.9833 97.2875 70.8864 97.7418 69.7426 97.7418C68.5989 97.7418 67.502 97.2874 66.6933 96.4787C65.8845 95.6699 65.4302 94.573 65.4302 93.4293C65.4302 92.2855 65.8845 91.1886 66.6933 90.3799C67.502 89.5711 68.5989 89.1167 69.7426 89.1167C70.8864 89.1167 71.9833 89.571 72.7921 90.3797C73.6008 91.1884 74.0552 92.2857 74.0553 93.4295Z" fill="#E9EEF4"/>
<path d="M83.9147 80.1674C83.9147 80.5444 83.7649 80.906 83.4983 81.1726C83.2316 81.4393 82.87 81.589 82.493 81.589C82.1159 81.589 81.7543 81.4392 81.4877 81.1726C81.2211 80.906 81.0713 80.5444 81.0713 80.1673C81.0713 79.7903 81.2211 79.4286 81.4877 79.162C81.7543 78.8954 82.1159 78.7456 82.493 78.7456C82.87 78.7456 83.2316 78.8954 83.4983 79.162C83.7649 79.4286 83.9147 79.7903 83.9147 80.1674Z" fill="#E9EEF4"/>
<path d="M100.479 67.8577C100.479 69.0014 100.024 70.0983 99.2154 70.907C98.4066 71.7157 97.3097 72.1701 96.166 72.17C95.0222 72.17 93.9253 71.7156 93.1166 70.9069C92.3079 70.0981 91.8535 69.0012 91.8535 67.8575C91.8535 66.7137 92.3079 65.6168 93.1166 64.8081C93.9253 63.9993 95.0222 63.545 96.166 63.5449C97.3097 63.5449 98.4066 63.9992 99.2154 64.8079C100.024 65.6166 100.479 66.714 100.479 67.8577Z" fill="#E9EEF4"/>
<path d="M112.111 56.5653C112.111 56.9424 111.962 57.304 111.695 57.5706C111.428 57.8372 111.067 57.987 110.69 57.987C110.313 57.987 109.951 57.8372 109.684 57.5705C109.418 57.3039 109.268 56.9423 109.268 56.5653C109.268 56.1882 109.418 55.8266 109.684 55.56C109.951 55.2934 110.313 55.1436 110.69 55.1436C111.067 55.1435 111.428 55.2933 111.695 55.5599C111.962 55.8265 112.111 56.1883 112.111 56.5653Z" fill="#E9EEF4"/>
<path d="M123.892 48.1893C123.892 48.4128 123.803 48.6273 123.645 48.7854C123.487 48.9435 123.273 49.0323 123.049 49.0323C122.825 49.0323 122.611 48.9434 122.453 48.7853C122.295 48.6272 122.206 48.4128 122.206 48.1892C122.206 47.9656 122.295 47.7512 122.453 47.5931C122.611 47.435 122.825 47.3462 123.049 47.3462C123.273 47.3462 123.487 47.435 123.645 47.5931C123.803 47.7512 123.892 47.9657 123.892 48.1893Z" fill="#E9EEF4"/>
<path d="M139.466 39.9905C139.466 40.6742 139.194 41.3298 138.711 41.8132C138.228 42.2966 137.572 42.5682 136.888 42.5682C136.205 42.5682 135.549 42.2966 135.066 41.8131C134.582 41.3297 134.311 40.6741 134.311 39.9904C134.311 39.3067 134.582 38.6511 135.066 38.1676C135.549 37.6842 136.205 37.4126 136.888 37.4126C137.572 37.4126 138.228 37.6841 138.711 38.1675C139.194 38.651 139.466 39.3069 139.466 39.9905Z" fill="#E9EEF4"/>
<path d="M171.975 28.4356C171.974 31.4195 170.789 34.2811 168.679 36.391C166.569 38.5008 163.707 39.6861 160.723 39.686C157.739 39.6859 154.878 38.5005 152.768 36.3906C150.658 34.2806 149.473 31.4189 149.473 28.4351C149.473 25.4512 150.658 22.5895 152.768 20.4795C154.878 18.3696 157.739 17.1842 160.723 17.1841C163.707 17.184 166.569 18.3693 168.679 20.4791C170.789 22.589 171.974 25.4517 171.975 28.4356Z" fill="#E9EEF4"/>
<path d="M185.944 19.7523C185.944 20.1294 185.794 20.491 185.528 20.7576C185.261 21.0242 184.899 21.174 184.522 21.174C184.145 21.174 183.784 21.0242 183.517 20.7576C183.25 20.4909 183.101 20.1293 183.101 19.7523C183.101 19.3752 183.25 19.0136 183.517 18.747C183.784 18.4804 184.145 18.3306 184.522 18.3306C184.899 18.3306 185.261 18.4803 185.528 18.7469C185.794 19.0135 185.944 19.3753 185.944 19.7523Z" fill="#E9EEF4"/>
<path d="M211.163 14.4362C211.163 16.1934 210.465 17.8785 209.222 19.1209C207.98 20.3633 206.294 21.0613 204.537 21.0613C202.78 21.0612 201.095 20.3632 199.853 19.1207C198.61 17.8782 197.912 16.193 197.912 14.4359C197.912 12.6788 198.61 10.9936 199.853 9.75113C201.095 8.50864 202.78 7.81059 204.537 7.81055C206.294 7.8105 207.98 8.50846 209.222 9.75089C210.465 10.9933 211.163 12.6791 211.163 14.4362Z" fill="#E9EEF4"/>
<path d="M241.317 9.83607C241.317 12.2066 240.375 14.48 238.699 16.1561C237.023 17.8322 234.749 18.7738 232.379 18.7738C230.008 18.7737 227.735 17.832 226.059 16.1558C224.383 14.4796 223.441 12.2061 223.441 9.83562C223.441 7.46512 224.383 5.19169 226.059 3.51547C227.735 1.83924 230.008 0.89752 232.379 0.897461C234.749 0.897402 237.023 1.83901 238.699 3.51515C240.375 5.19129 241.317 7.46556 241.317 9.83607Z" fill="#E9EEF4"/>
<path d="M267.184 8.3376C267.184 10.0947 266.486 11.7799 265.243 13.0223C264.001 14.2647 262.315 14.9627 260.558 14.9626C258.801 14.9626 257.116 14.2645 255.874 13.0221C254.631 11.7796 253.933 10.0944 253.933 8.33727C253.933 6.58015 254.631 4.89499 255.874 3.6525C257.116 2.41 258.801 1.71196 260.558 1.71191C262.315 1.71187 264.001 2.40983 265.243 3.65226C266.486 4.89469 267.184 6.58048 267.184 8.3376Z" fill="#E9EEF4"/>
<path d="M290.749 9.59162C290.749 11.0421 290.173 12.4332 289.147 13.4588C288.121 14.4845 286.73 15.0607 285.28 15.0606C283.829 15.0606 282.438 14.4843 281.412 13.4587C280.387 12.433 279.811 11.0419 279.811 9.59134C279.811 8.14083 280.387 6.74972 281.412 5.72403C282.438 4.69835 283.829 4.12211 285.28 4.12207C286.73 4.12203 288.121 4.69821 289.147 5.72384C290.173 6.74947 290.749 8.1411 290.749 9.59162Z" fill="#E9EEF4"/>
<path d="M316.389 13.2341C316.389 14.9912 315.691 16.6763 314.449 17.9188C313.206 19.1612 311.521 19.8592 309.764 19.8591C308.007 19.8591 306.322 19.161 305.079 17.9185C303.837 16.676 303.139 14.9909 303.139 13.2338C303.139 11.4766 303.837 9.79147 305.079 8.54898C306.322 7.30649 308.007 6.60844 309.764 6.6084C311.521 6.60835 313.206 7.30632 314.449 8.54875C315.691 9.79117 316.389 11.477 316.389 13.2341Z" fill="#E9EEF4"/>
<path d="M343.773 19.9104C343.773 21.9743 342.953 23.9536 341.494 25.413C340.034 26.8723 338.055 27.6921 335.991 27.6921C333.927 27.692 331.948 26.8721 330.488 25.4127C329.029 23.9533 328.209 21.9739 328.209 19.91C328.209 17.8461 329.029 15.8667 330.488 14.4073C331.948 12.9479 333.927 12.128 335.991 12.1279C338.055 12.1279 340.034 12.9477 341.494 14.407C342.953 15.8664 343.773 17.8465 343.773 19.9104Z" fill="#E9EEF4"/>
<path d="M369.099 29.5558C369.099 31.4662 368.34 33.2984 366.989 34.6492C365.638 36 363.806 36.7589 361.895 36.7589C359.985 36.7588 358.153 35.9999 356.802 34.649C355.451 33.2981 354.692 31.4659 354.692 29.5555C354.692 27.645 355.451 25.8128 356.802 24.4619C358.153 23.111 359.985 22.3521 361.895 22.3521C363.806 22.352 365.638 23.1109 366.989 24.4617C368.34 25.8125 369.099 27.6454 369.099 29.5558Z" fill="#E9EEF4"/>
<path d="M394.386 41.946C394.386 44.0099 393.566 45.9893 392.107 47.4486C390.647 48.908 388.668 49.7278 386.604 49.7277C384.54 49.7277 382.561 48.9078 381.102 47.4483C379.642 45.9889 378.822 44.0096 378.822 41.9457C378.822 39.8818 379.642 37.9024 381.102 36.443C382.561 34.9835 384.54 34.1636 386.604 34.1636C388.668 34.1635 390.647 34.9833 392.107 36.4427C393.566 37.902 394.386 39.8821 394.386 41.946Z" fill="#E9EEF4"/>
<path d="M513.431 295.462C361.456 275.685 362.026 269.183 515.14 275.954" stroke="#E9EEF4" stroke-width="1.00063"/>
<path d="M511.068 310.796C360.568 281.3 361.925 269.685 515.14 275.953" stroke="#E9EEF4" stroke-width="1.00063"/>
<path d="M507.448 327.087C359.261 287.3 361.825 270.255 515.14 275.954" stroke="#E9EEF4" stroke-width="1.00063"/>
<path d="M507.448 327.087C359.127 288.44 360.333 283.01 511.068 310.797" stroke="#E9EEF4" stroke-width="1.00063"/>
<path d="M503.124 341.969C357.685 292.73 361.691 270.725 515.14 275.954" stroke="#E9EEF4" stroke-width="1.00063"/>
<path d="M498.347 355.544C355.925 297.724 361.523 271.194 515.14 275.954" stroke="#E9EEF4" stroke-width="1.00063"/>
<path d="M492.766 368.767C353.864 302.567 361.322 271.629 515.14 275.953" stroke="#E9EEF4" stroke-width="1.00063"/>
<path d="M486.482 381.689C351.568 307.311 361.121 272.066 515.14 275.954" stroke="#E9EEF4" stroke-width="1.00063"/>
<path d="M479.493 394.208C349.004 311.886 360.886 272.468 515.14 275.954" stroke="#E9EEF4" stroke-width="1.00063"/>
<path d="M471.8 406.376C346.171 316.344 360.618 272.87 515.14 275.953" stroke="#E9EEF4" stroke-width="1.00063"/>
<path d="M440.728 444.135C334.775 330.204 359.579 274.144 515.14 275.954" stroke="#E9EEF4" stroke-width="1.00063"/>
<path d="M440.728 444.135C334.641 331.377 358.087 286.931 511.067 310.797" stroke="#E9EEF4" stroke-width="1.00063"/>
<path d="M440.728 444.135C334.541 331.914 356.78 292.898 507.448 327.087" stroke="#E9EEF4" stroke-width="1.00063"/>
<path d="M440.728 444.135C333.065 334.93 340.641 326.232 463.454 418.04" stroke="#E9EEF4" stroke-width="1.00063"/>
<path d="M414.181 467.213C322.574 344.265 331.423 336.573 440.728 444.135" stroke="#E9EEF4" stroke-width="1.00063"/>
<path d="M402.014 475.911C318.116 347.466 331.021 336.874 440.728 444.135" stroke="#E9EEF4" stroke-width="1.00063"/>
<path d="M389.846 483.553C313.658 350.248 330.619 337.109 440.728 444.134" stroke="#E9EEF4" stroke-width="1.00063"/>
<path d="M377.277 490.491C309.032 352.796 330.183 337.343 440.728 444.135" stroke="#E9EEF4" stroke-width="1.00063"/>
<path d="M339.066 506.48C292.34 360.471 299.362 357.84 360.132 498.586" stroke="#E9EEF4" stroke-width="1.00063"/>
<path d="M318.551 512.212C284.831 362.583 298.692 358.042 360.132 498.586" stroke="#E9EEF4" stroke-width="1.00063"/>
<path d="M318.552 512.211C284.128 362.851 290.966 360.941 339.066 506.48" stroke="#E9EEF4" stroke-width="1.00063"/>
<path d="M297.636 516.234C277.156 364.058 297.988 358.175 360.132 498.586" stroke="#E9EEF4" stroke-width="1.00063"/>
<path d="M297.636 516.234C276.452 364.326 290.262 361.075 339.065 506.48" stroke="#E9EEF4" stroke-width="1.00063"/>
<path d="M297.636 516.234C275.782 364.527 282.754 363.187 318.552 512.212" stroke="#E9EEF4" stroke-width="1.00063"/>
<path d="M276.469 518.446C269.396 364.863 297.284 358.243 360.132 498.586" stroke="#E9EEF4" stroke-width="1.00063"/>
<path d="M276.469 518.446C268.692 365.131 289.558 361.142 339.065 506.48" stroke="#E9EEF4" stroke-width="1.00063"/>
<path d="M276.469 518.446C268.022 365.332 282.05 363.254 318.552 512.212" stroke="#E9EEF4" stroke-width="1.00063"/>
<path d="M276.469 518.446C267.318 365.466 274.374 364.729 297.636 516.234" stroke="#E9EEF4" stroke-width="1.00063"/>
<path d="M255.201 518.949C261.603 365.064 296.58 358.276 360.132 498.586" stroke="#E9EEF4" stroke-width="1.00063"/>
<path d="M255.201 518.949C260.899 365.332 288.854 361.176 339.065 506.48" stroke="#E9EEF4" stroke-width="1.00063"/>
<path d="M255.201 518.949C260.229 365.499 281.345 363.254 318.551 512.212" stroke="#E9EEF4" stroke-width="1.00063"/>
<path d="M255.201 518.949C259.525 365.634 273.67 364.729 297.636 516.234" stroke="#E9EEF4" stroke-width="1.00063"/>
<path d="M255.201 518.949C258.821 365.734 265.91 365.566 276.468 518.446" stroke="#E9EEF4" stroke-width="1.00063"/>
<path d="M233.933 517.642C253.81 364.561 295.876 358.209 360.132 498.587" stroke="#E9EEF4" stroke-width="1.00063"/>
<path d="M233.933 517.642C253.106 364.829 288.15 361.109 339.065 506.48" stroke="#E9EEF4" stroke-width="1.00063"/>
<path d="M233.933 517.642C252.402 365.03 280.608 363.22 318.552 512.212" stroke="#E9EEF4" stroke-width="1.00063"/>
<path d="M233.933 517.642C251.732 365.164 272.966 364.695 297.636 516.234" stroke="#E9EEF4" stroke-width="1.00063"/>
<path d="M233.933 517.642C250.994 365.231 265.173 365.499 276.469 518.446" stroke="#E9EEF4" stroke-width="1.00063"/>
<path d="M233.933 517.642C250.29 365.265 257.38 365.701 255.201 518.949" stroke="#E9EEF4" stroke-width="1.00063"/>
<path d="M208.292 513.72C247.073 361.31 324.552 338.114 440.728 444.135" stroke="#E9EEF4" stroke-width="1.00063"/>
<path d="M208.292 513.72C246.201 362.081 314.831 346.578 414.181 467.213" stroke="#E9EEF4" stroke-width="1.00063"/>
<path d="M208.292 513.72C244.391 363.153 295.005 358.109 360.132 498.586" stroke="#E9EEF4" stroke-width="1.00063"/>
<path d="M208.292 513.72C243.687 363.388 287.279 360.974 339.066 506.48" stroke="#E9EEF4" stroke-width="1.00063"/>
<path d="M208.292 513.72C243.017 363.589 279.771 363.086 318.552 512.212" stroke="#E9EEF4" stroke-width="1.00063"/>
<path d="M208.292 513.72C242.313 363.723 272.095 364.561 297.636 516.234" stroke="#E9EEF4" stroke-width="1.00063"/>
<path d="M208.292 513.72C241.609 363.79 264.335 365.366 276.469 518.446" stroke="#E9EEF4" stroke-width="1.00063"/>
<path d="M208.292 513.72C240.905 363.823 256.542 365.566 255.201 518.949" stroke="#E9EEF4" stroke-width="1.00063"/>
<path d="M208.292 513.72C240.202 363.79 248.749 365.097 233.933 517.642" stroke="#E9EEF4" stroke-width="1.00063"/>
<path d="M180.99 506.48C237.067 358.661 323.647 337.88 440.728 444.135" stroke="#E9EEF4" stroke-width="1.00063"/>
<path d="M180.99 506.48C229.324 360.974 238.425 363.388 208.291 513.72" stroke="#E9EEF4" stroke-width="1.00063"/>
<path d="M154.142 496.022C227.246 354.84 322.775 337.545 440.728 444.135" stroke="#E9EEF4" stroke-width="1.00063"/>
<path d="M154.142 496.022C219.47 357.153 237.52 363.052 208.291 513.72" stroke="#E9EEF4" stroke-width="1.00063"/>
<path d="M154.142 496.022C218.565 356.919 227.514 360.405 180.99 506.48" stroke="#E9EEF4" stroke-width="1.00063"/>
<path d="M128.65 482.598C217.878 349.897 321.904 337.076 440.728 444.135" stroke="#E9EEF4" stroke-width="1.00063"/>
<path d="M128.65 482.598C215.196 351.74 292.357 357.069 360.132 498.586" stroke="#E9EEF4" stroke-width="1.00063"/>
<path d="M128.65 482.598C209.23 351.974 226.676 359.935 180.99 506.48" stroke="#E9EEF4" stroke-width="1.00063"/>
<path d="M128.65 482.598C208.325 351.639 216.822 356.114 154.142 496.022" stroke="#E9EEF4" stroke-width="1.00063"/>
<path d="M104.366 466.056C208.978 343.846 321.099 336.539 440.728 444.135" stroke="#E9EEF4" stroke-width="1.00063"/>
<path d="M104.366 466.056C201.235 346.159 235.877 362.047 208.291 513.72" stroke="#E9EEF4" stroke-width="1.00063"/>
<path d="M104.366 466.056C200.33 345.924 225.872 359.399 180.99 506.48" stroke="#E9EEF4" stroke-width="1.00063"/>
<path d="M104.366 466.056C199.425 345.589 216.017 355.578 154.141 496.022" stroke="#E9EEF4" stroke-width="1.00063"/>
<path d="M104.366 466.056C198.587 345.12 206.682 350.634 128.65 482.598" stroke="#E9EEF4" stroke-width="1.00063"/>
<path d="M85.0591 449.615C201.906 337.83 320.462 336.003 440.728 444.135" stroke="#E9EEF4" stroke-width="1.00063"/>
<path d="M85.0591 449.615C190.677 338.533 197.113 344.014 104.366 466.056" stroke="#E9EEF4" stroke-width="1.00063"/>
<path d="M70.9312 435.286C196.728 332.55 319.993 335.5 440.728 444.135" stroke="#E9EEF4" stroke-width="1.00063"/>
<path d="M70.9312 435.286C188.985 334.897 234.772 361.041 208.292 513.72" stroke="#E9EEF4" stroke-width="1.00063"/>
<path d="M70.9312 435.286C185.499 333.288 196.644 343.544 104.366 466.056" stroke="#E9EEF4" stroke-width="1.00063"/>
<path d="M58.7134 420.755C184.476 329.55 234.336 360.539 208.291 513.72" stroke="#E9EEF4" stroke-width="1.00063"/>
<path d="M48.8589 407.281C188.633 322.31 319.256 334.595 440.728 444.135" stroke="#E9EEF4" stroke-width="1.00063"/>
<path d="M48.8589 407.281C180.89 324.623 234.034 360.103 208.292 513.72" stroke="#E9EEF4" stroke-width="1.00063"/>
<path d="M48.8589 407.281C177.404 323.014 195.906 342.606 104.366 466.056" stroke="#E9EEF4" stroke-width="1.00063"/>
<path d="M48.8589 407.281C175.896 321.506 179.18 325.997 58.7134 420.755" stroke="#E9EEF4" stroke-width="1.00063"/>
<path d="M40.2612 393.705C185.465 317.316 318.954 334.126 440.728 444.135" stroke="#E9EEF4" stroke-width="1.00063"/>
<path d="M33.021 380.633C182.817 312.523 318.719 333.69 440.728 444.135" stroke="#E9EEF4" stroke-width="1.00063"/>
<path d="M33.021 380.633C171.622 313.26 195.403 341.734 104.366 466.056" stroke="#E9EEF4" stroke-width="1.00063"/>
<path d="M25.3784 364.494C180.001 306.606 318.451 333.153 440.728 444.135" stroke="#E9EEF4" stroke-width="1.00063"/>
<path d="M25.3784 364.494C167.7 306.305 182.884 329.902 70.9306 435.286" stroke="#E9EEF4" stroke-width="1.00063"/>
<path d="M18.189 345.69C177.37 299.702 318.217 332.517 440.728 444.135" stroke="#E9EEF4" stroke-width="1.00063"/>
<path d="M18.189 345.69C165.069 299.4 182.649 329.265 70.931 435.286" stroke="#E9EEF4" stroke-width="1.00063"/>
<path d="M18.189 345.69C163.527 297.054 165.924 303.322 25.3788 364.494" stroke="#E9EEF4" stroke-width="1.00063"/>
<path d="M12.457 326.383C175.292 292.629 318.049 331.88 440.728 444.135" stroke="#E9EEF4" stroke-width="1.00063"/>
<path d="M12.457 326.383C162.957 292.328 182.448 328.629 70.9308 435.286" stroke="#E9EEF4" stroke-width="1.00063"/>
<path d="M12.457 326.383C161.449 289.981 165.756 302.685 25.3786 364.494" stroke="#E9EEF4" stroke-width="1.00063"/>
<path d="M12.457 326.383C161.18 289.345 163.091 295.78 18.1888 345.69" stroke="#E9EEF4" stroke-width="1.00063"/>
<path d="M8.28418 306.674C173.734 285.389 317.882 331.209 440.728 444.135" stroke="#E9EEF4" stroke-width="1.00063"/>
<path d="M8.28418 306.674C161.432 285.121 182.314 327.992 70.931 435.286" stroke="#E9EEF4" stroke-width="1.00063"/>
<path d="M8.28418 306.674C159.89 282.741 165.588 302.015 25.3788 364.494" stroke="#E9EEF4" stroke-width="1.00063"/>
<path d="M8.28418 306.674C159.656 282.138 162.957 295.143 18.189 345.69" stroke="#E9EEF4" stroke-width="1.00063"/>
<path d="M8.28418 306.674C159.488 281.468 160.879 288.037 12.4573 326.383" stroke="#E9EEF4" stroke-width="1.00063"/>
<path d="M5.66943 286.713C172.795 278.099 317.814 330.573 440.728 444.135" stroke="#E9EEF4" stroke-width="1.00063"/>
<path d="M5.66943 286.713C160.46 277.797 182.214 327.321 70.9308 435.286" stroke="#E9EEF4" stroke-width="1.00063"/>
<path d="M5.66943 286.713C158.951 275.417 165.521 301.344 25.3786 364.494" stroke="#E9EEF4" stroke-width="1.00063"/>
<path d="M5.66943 286.713C158.717 274.814 162.89 294.473 18.1887 345.69" stroke="#E9EEF4" stroke-width="1.00063"/>
<path d="M5.66943 286.713C158.516 274.177 160.778 287.4 12.457 326.383" stroke="#E9EEF4" stroke-width="1.00063"/>
<path d="M5.66943 286.713C158.382 273.507 159.253 280.161 8.28391 306.674" stroke="#E9EEF4" stroke-width="1.00063"/>
<path d="M4.66406 268.312C162.873 273.071 212.699 348.975 154.142 496.022" stroke="#E9EEF4" stroke-width="1.00063"/>
<path d="M4.86523 252.775C162.94 267.39 212.699 348.472 154.142 496.022" stroke="#E9EEF4" stroke-width="1.00063"/>
<path d="M6.47412 232.714C164.415 260.367 222.587 351.623 180.99 506.48" stroke="#E9EEF4" stroke-width="1.00063"/>
<path d="M6.47412 232.714C163.544 260.032 212.766 347.802 154.142 496.022" stroke="#E9EEF4" stroke-width="1.00063"/>
<path d="M9.94336 211.698C165.706 252.658 222.721 350.919 180.99 506.48" stroke="#E9EEF4" stroke-width="1.00063"/>
<path d="M9.94336 211.698C164.801 252.323 212.867 347.097 154.142 496.022" stroke="#E9EEF4" stroke-width="1.00063"/>
<path d="M9.94332 211.698C159.873 243.541 158.717 250.546 6.47412 232.714" stroke="#E9EEF4" stroke-width="1.00063"/>
<path d="M13.8652 195.508C175.795 244.647 318.083 327.523 440.729 444.135" stroke="#E9EEF4" stroke-width="1.00063"/>
<path d="M13.8652 195.508C165.404 245.921 203.666 341.617 128.651 482.598" stroke="#E9EEF4" stroke-width="1.00063"/>
<path d="M13.8652 195.508C164.566 245.384 194.733 335.567 104.366 466.056" stroke="#E9EEF4" stroke-width="1.00063"/>
<path d="M18.6411 180.123C177.554 239.016 318.25 327.02 440.728 444.135" stroke="#E9EEF4" stroke-width="1.00063"/>
<path d="M18.6411 180.123C165.689 239.183 187.828 329.014 85.0588 449.615" stroke="#E9EEF4" stroke-width="1.00063"/>
<path d="M23.9204 166.146C167.616 234.055 187.995 328.545 85.0589 449.615" stroke="#E9EEF4" stroke-width="1.00063"/>
<path d="M36.6411 139.75C170.449 214.497 168.169 218.921 29.8032 153.023" stroke="#E9EEF4" stroke-width="1.00063"/>
<path d="M51.0205 116.823C189.42 215.804 319.323 324.908 440.728 444.135" stroke="#E9EEF4" stroke-width="1.00063"/>
<path d="M51.0205 116.823C179.867 217.514 214.241 343.913 154.141 496.022" stroke="#E9EEF4" stroke-width="1.00063"/>
<path d="M51.0205 116.823C178.191 216.508 195.973 332.919 104.366 466.056" stroke="#E9EEF4" stroke-width="1.00063"/>
<path d="M51.0207 116.823C175.946 205.648 171.152 213.29 36.6411 139.75" stroke="#E9EEF4" stroke-width="1.00063"/>
<path d="M69.6743 93.3423C196.242 207.172 319.927 324.103 440.729 444.134" stroke="#E9EEF4" stroke-width="1.00063"/>
<path d="M69.6743 93.3423C185.851 208.48 205.51 338.231 128.651 482.597" stroke="#E9EEF4" stroke-width="1.00063"/>
<path d="M82.3945 80.0693C192.27 204.391 225.135 346.528 180.99 506.48" stroke="#E9EEF4" stroke-width="1.00063"/>
<path d="M82.3947 80.0693C188.549 190.615 184.309 195.039 69.6743 93.3428" stroke="#E9EEF4" stroke-width="1.00063"/>
<path d="M96.0703 67.751C205.945 197.804 320.831 323.266 440.728 444.135" stroke="#E9EEF4" stroke-width="1.00063"/>
<path d="M96.0703 67.751C195.521 199.078 206.381 337.36 128.651 482.598" stroke="#E9EEF4" stroke-width="1.00063"/>
<path d="M96.0705 67.751C193.577 186.106 184.778 194.637 69.6743 93.3427" stroke="#E9EEF4" stroke-width="1.00063"/>
<path d="M110.651 56.4385C196.761 187.799 161.432 258.423 4.66406 268.311" stroke="#E9EEF4" stroke-width="1.00063"/>
<path d="M110.651 56.4385C199.811 181.095 194.951 184.866 96.0703 67.7511" stroke="#E9EEF4" stroke-width="1.00063"/>
<path d="M122.969 48.042C204.32 178.028 195.353 184.598 96.0703 67.7511" stroke="#E9EEF4" stroke-width="1.00063"/>
<path d="M136.846 39.8462C210.487 188.838 207.755 336.421 128.65 482.597" stroke="#E9EEF4" stroke-width="1.00063"/>
<path d="M136.846 39.8462C208.51 175.866 186.119 193.698 69.6743 93.3424" stroke="#E9EEF4" stroke-width="1.00063"/>
<path d="M136.846 39.8462C209.414 175.028 195.823 184.329 96.0703 67.7507" stroke="#E9EEF4" stroke-width="1.00063"/>
<path d="M160.678 28.2827C226.945 185.151 293.429 341.919 360.132 498.587" stroke="#E9EEF4" stroke-width="1.00063"/>
<path d="M160.678 28.2827C220.073 185.051 217.895 340.964 154.142 496.022" stroke="#E9EEF4" stroke-width="1.00063"/>
<path d="M160.678 28.2827C219.235 184.615 208.559 336.053 128.65 482.598" stroke="#E9EEF4" stroke-width="1.00063"/>
<path d="M160.678 28.2827C215.079 177.475 163.074 257.485 4.66406 268.312" stroke="#E9EEF4" stroke-width="1.00063"/>
<path d="M160.678 28.2827C215.146 176.269 163.745 244.413 6.47412 232.715" stroke="#E9EEF4" stroke-width="1.00063"/>
<path d="M160.678 28.2827C216.621 172.414 180.068 201.927 51.0205 116.823" stroke="#E9EEF4" stroke-width="1.00063"/>
<path d="M160.678 28.2827C217.258 171.643 186.923 193.33 69.6743 93.3429" stroke="#E9EEF4" stroke-width="1.00063"/>
<path d="M160.678 28.2827C218.129 170.772 196.594 183.928 96.0703 67.7512" stroke="#E9EEF4" stroke-width="1.00063"/>
<path d="M160.678 28.2827C219.503 169.867 211.559 173.721 136.846 39.8467" stroke="#E9EEF4" stroke-width="1.00063"/>
<path d="M184.51 19.584C226.006 168.441 187.728 193.028 69.6743 93.3423" stroke="#E9EEF4" stroke-width="1.00063"/>
<path d="M184.51 19.584C229.023 166.263 221.079 169.162 160.678 28.2821" stroke="#E9EEF4" stroke-width="1.00063"/>
<path d="M204.521 14.3052C231.235 171.14 165.22 243.943 6.47412 232.714" stroke="#E9EEF4" stroke-width="1.00063"/>
<path d="M204.52 14.3052C232.71 167.285 181.543 201.458 51.0205 116.823" stroke="#E9EEF4" stroke-width="1.00063"/>
<path d="M204.52 14.3052C236.363 164.336 221.749 168.995 160.678 28.2826" stroke="#E9EEF4" stroke-width="1.00063"/>
<path d="M232.375 9.67969C255.905 176.503 325.356 321.322 440.728 444.135" stroke="#E9EEF4" stroke-width="1.00063"/>
<path d="M232.374 9.67969C244.709 177.241 202.04 329.366 104.366 466.056" stroke="#E9EEF4" stroke-width="1.00063"/>
<path d="M232.375 9.67969C242.933 165.61 182.482 201.324 51.0205 116.823" stroke="#E9EEF4" stroke-width="1.00063"/>
<path d="M232.375 9.67969C246.587 162.66 222.688 168.861 160.678 28.2827" stroke="#E9EEF4" stroke-width="1.00063"/>
<path d="M232.375 9.67969C248.028 162.191 238.743 163.733 204.521 14.3053" stroke="#E9EEF4" stroke-width="1.00063"/>
<path d="M260.581 8.1709C253.274 165.039 183.42 201.257 51.0205 116.822" stroke="#E9EEF4" stroke-width="1.00063"/>
<path d="M260.581 8.1709C256.927 162.09 223.626 168.794 160.678 28.2822" stroke="#E9EEF4" stroke-width="1.00063"/>
<path d="M260.581 8.1709C258.369 161.62 239.682 163.665 204.521 14.3049" stroke="#E9EEF4" stroke-width="1.00063"/>
<path d="M260.581 8.1709C259.307 161.486 249.905 161.989 232.375 9.67925" stroke="#E9EEF4" stroke-width="1.00063"/>
<path d="M285.318 9.42822C262.324 165.492 184.225 201.29 51.0205 116.823" stroke="#E9EEF4" stroke-width="1.00063"/>
<path d="M285.318 9.42822C268.391 161.939 250.743 162.023 232.375 9.67961" stroke="#E9EEF4" stroke-width="1.00063"/>
<path d="M285.318 9.42786C269.329 161.872 261.084 161.453 260.581 8.1709" stroke="#E9EEF4" stroke-width="1.00063"/>
<path d="M309.803 13.0981C271.324 166.849 185.063 201.424 51.0205 116.822" stroke="#E9EEF4" stroke-width="1.00063"/>
<path d="M309.803 13.0981C274.977 163.9 225.269 168.961 160.678 28.2822" stroke="#E9EEF4" stroke-width="1.00063"/>
<path d="M309.803 13.0981C276.419 163.43 241.324 163.833 204.521 14.3048" stroke="#E9EEF4" stroke-width="1.00063"/>
<path d="M309.803 13.0986C277.357 163.263 251.547 162.124 232.375 9.67969" stroke="#E9EEF4" stroke-width="1.00063"/>
<path d="M309.804 13.0982C278.296 163.229 261.888 161.587 260.581 8.1709" stroke="#E9EEF4" stroke-width="1.00063"/>
<path d="M309.803 13.0986C279.134 163.263 270.972 162.04 285.318 9.42822" stroke="#E9EEF4" stroke-width="1.00063"/>
<path d="M336.049 19.7856C279.469 173.168 169.611 244.144 6.47412 232.714" stroke="#E9EEF4" stroke-width="1.00063"/>
<path d="M336.049 19.7856C280.943 169.313 185.934 201.659 51.0205 116.823" stroke="#E9EEF4" stroke-width="1.00063"/>
<path d="M336.049 19.7856C284.597 166.364 226.14 169.196 160.678 28.2827" stroke="#E9EEF4" stroke-width="1.00063"/>
<path d="M336.049 19.7855C286.072 165.894 242.229 164.068 204.521 14.3052" stroke="#E9EEF4" stroke-width="1.00063"/>
<path d="M336.048 19.7856C286.977 165.727 252.419 162.358 232.375 9.67969" stroke="#E9EEF4" stroke-width="1.00063"/>
<path d="M336.049 19.7852C287.916 165.693 262.76 161.822 260.581 8.1709" stroke="#E9EEF4" stroke-width="1.00063"/>
<path d="M336.048 19.7856C288.753 165.727 271.843 162.274 285.318 9.42822" stroke="#E9EEF4" stroke-width="1.00063"/>
<path d="M336.048 19.7852C289.558 165.861 280.809 163.632 309.803 13.0981" stroke="#E9EEF4" stroke-width="1.00063"/>
<path d="M361.992 29.3887C290.463 172.816 186.806 201.961 51.0205 116.823" stroke="#E9EEF4" stroke-width="1.00063"/>
<path d="M361.992 29.3888C294.117 169.867 227.012 169.498 160.678 28.2827" stroke="#E9EEF4" stroke-width="1.00063"/>
<path d="M361.992 29.3887C295.558 169.397 243.067 164.369 204.521 14.3052" stroke="#E9EEF4" stroke-width="1.00063"/>
<path d="M361.992 29.3888C296.496 169.263 253.29 162.694 232.375 9.67969" stroke="#E9EEF4" stroke-width="1.00063"/>
<path d="M361.993 29.3884C297.435 169.196 263.631 162.123 260.581 8.1709" stroke="#E9EEF4" stroke-width="1.00063"/>
<path d="M361.992 29.3887C298.273 169.23 272.714 162.576 285.318 9.42822" stroke="#E9EEF4" stroke-width="1.00063"/>
<path d="M361.992 29.3883C299.077 169.363 281.681 163.933 309.803 13.0981" stroke="#E9EEF4" stroke-width="1.00063"/>
<path d="M361.992 29.3888C299.949 169.598 291.301 166.397 336.049 19.7856" stroke="#E9EEF4" stroke-width="1.00063"/>
<path d="M386.729 41.8071C312.518 188.285 330.518 322.394 440.728 444.135" stroke="#E9EEF4" stroke-width="1.00063"/>
<path d="M386.729 41.8071C299.513 177.391 187.61 202.396 51.0205 116.822" stroke="#E9EEF4" stroke-width="1.00063"/>
<path d="M386.729 41.8076C303.167 174.442 227.816 169.934 160.678 28.2827" stroke="#E9EEF4" stroke-width="1.00063"/>
<path d="M386.729 41.8074C304.641 173.972 243.905 164.805 204.521 14.3052" stroke="#E9EEF4" stroke-width="1.00063"/>
<path d="M386.729 41.8076C305.58 173.805 254.128 163.096 232.375 9.67969" stroke="#E9EEF4" stroke-width="1.00063"/>
<path d="M386.729 41.8071C306.519 173.771 264.469 162.559 260.581 8.1709" stroke="#E9EEF4" stroke-width="1.00063"/>
<path d="M386.729 41.8075C307.323 173.805 273.519 163.012 285.318 9.42822" stroke="#E9EEF4" stroke-width="1.00063"/>
<path d="M386.729 41.8071C308.161 173.905 282.519 164.335 309.803 13.0981" stroke="#E9EEF4" stroke-width="1.00063"/>
<path d="M386.729 41.8076C309.032 174.14 292.139 166.8 336.049 19.7856" stroke="#E9EEF4" stroke-width="1.00063"/>
<path d="M386.729 41.8074C309.87 174.475 301.625 170.336 361.992 29.3887" stroke="#E9EEF4" stroke-width="1.00063"/>
<path d="M409.958 56.79C308.027 182.888 188.381 202.899 51.0205 116.822" stroke="#E9EEF4" stroke-width="1.00063"/>
<path d="M409.958 56.7906C311.68 179.905 228.587 170.403 160.678 28.2827" stroke="#E9EEF4" stroke-width="1.00063"/>
<path d="M409.958 56.7904C313.155 179.47 244.676 165.308 204.521 14.3052" stroke="#E9EEF4" stroke-width="1.00063"/>
<path d="M409.958 56.7905C314.094 179.302 254.899 163.599 232.375 9.67969" stroke="#E9EEF4" stroke-width="1.00063"/>
<path d="M409.958 56.7901C315.033 179.235 265.24 163.028 260.581 8.1709" stroke="#E9EEF4" stroke-width="1.00063"/>
<path d="M409.958 56.7904C315.837 179.302 274.29 163.515 285.318 9.42822" stroke="#E9EEF4" stroke-width="1.00063"/>
<path d="M409.958 56.79C316.675 179.402 283.29 164.838 309.803 13.0981" stroke="#E9EEF4" stroke-width="1.00063"/>
<path d="M409.958 56.7905C317.546 179.637 292.91 167.302 336.048 19.7856" stroke="#E9EEF4" stroke-width="1.00063"/>
<path d="M409.958 56.7904C318.418 179.972 302.429 170.838 361.993 29.3887" stroke="#E9EEF4" stroke-width="1.00063"/>
<path d="M409.958 56.7901C319.222 180.374 311.479 175.38 386.729 41.8071" stroke="#E9EEF4" stroke-width="1.00063"/>
<path d="M430.119 73.0806C315.418 188.855 189.051 203.436 51.0205 116.823" stroke="#E9EEF4" stroke-width="1.00063"/>
<path d="M430.119 73.0807C321.485 185.268 255.57 164.135 232.375 9.67969" stroke="#E9EEF4" stroke-width="1.00063"/>
<path d="M430.12 73.0803C322.423 185.235 265.911 163.598 260.581 8.1709" stroke="#E9EEF4" stroke-width="1.00063"/>
<path d="M430.119 73.0806C323.228 185.268 274.96 164.051 285.318 9.42822" stroke="#E9EEF4" stroke-width="1.00063"/>
<path d="M430.119 73.0802C324.066 185.402 283.96 165.408 309.803 13.0981" stroke="#E9EEF4" stroke-width="1.00063"/>
<path d="M430.12 73.0807C324.937 185.604 293.58 167.839 336.049 19.7856" stroke="#E9EEF4" stroke-width="1.00063"/>
<path d="M430.119 73.0806C325.809 185.939 303.1 171.375 361.992 29.3887" stroke="#E9EEF4" stroke-width="1.00063"/>
<path d="M430.119 73.0803C326.613 186.341 312.149 175.916 386.729 41.8071" stroke="#E9EEF4" stroke-width="1.00063"/>
<path d="M430.12 73.0802C327.384 186.843 320.664 181.413 409.958 56.79" stroke="#E9EEF4" stroke-width="1.00063"/>
<path d="M444.248 86.6557C325.725 190.397 245.816 166.28 204.521 14.3052" stroke="#E9EEF4" stroke-width="1.00063"/>
<path d="M457.22 101.287C338.362 210.089 332.865 324.372 440.728 444.135" stroke="#E9EEF4" stroke-width="1.00063"/>
<path d="M457.22 101.287C329.714 212.167 237.637 347.232 180.99 506.48" stroke="#E9EEF4" stroke-width="1.00063"/>
<path d="M457.22 101.287C328.809 211.832 227.783 343.41 154.142 496.022" stroke="#E9EEF4" stroke-width="1.00063"/>
<path d="M457.219 101.287C327.132 210.826 209.515 332.416 104.366 466.056" stroke="#E9EEF4" stroke-width="1.00063"/>
<path d="M457.22 101.287C323.881 203.05 173.633 246.859 6.47412 232.714" stroke="#E9EEF4" stroke-width="1.00063"/>
<path d="M457.219 101.287C325.356 199.195 189.956 204.374 51.0205 116.823" stroke="#E9EEF4" stroke-width="1.00063"/>
<path d="M472.051 121.146C343.808 217.379 333.367 325.042 440.728 444.135" stroke="#E9EEF4" stroke-width="1.00063"/>
<path d="M472.052 121.146C335.127 219.457 238.106 347.902 180.99 506.48" stroke="#E9EEF4" stroke-width="1.00063"/>
<path d="M472.052 121.146C334.255 219.122 228.285 344.081 154.142 496.022" stroke="#E9EEF4" stroke-width="1.00063"/>
<path d="M472.051 121.146C332.579 218.117 210.017 333.087 104.366 466.056" stroke="#E9EEF4" stroke-width="1.00063"/>
<path d="M472.052 121.146C329.328 210.34 174.136 247.53 6.47412 232.714" stroke="#E9EEF4" stroke-width="1.00063"/>
<path d="M472.052 121.147C330.803 206.452 190.459 205.011 51.0205 116.823" stroke="#E9EEF4" stroke-width="1.00063"/>
<path d="M472.052 121.147C344.345 205.949 339.401 199.329 457.22 101.287" stroke="#E9EEF4" stroke-width="1.00063"/>
<path d="M484.822 142.364C348.467 225.156 333.769 325.746 440.728 444.135" stroke="#E9EEF4" stroke-width="1.00063"/>
<path d="M484.822 142.364C339.82 227.234 238.542 348.606 180.99 506.48" stroke="#E9EEF4" stroke-width="1.00063"/>
<path d="M484.822 142.364C338.915 226.899 228.688 344.785 154.142 496.022" stroke="#E9EEF4" stroke-width="1.00063"/>
<path d="M484.822 142.364C337.272 225.893 210.453 333.791 104.366 466.056" stroke="#E9EEF4" stroke-width="1.00063"/>
<path d="M484.823 142.364C334.021 218.117 174.571 248.234 6.47412 232.714" stroke="#E9EEF4" stroke-width="1.00063"/>
<path d="M484.822 142.364C341.529 210.676 257.38 166.448 232.375 9.67969" stroke="#E9EEF4" stroke-width="1.00063"/>
<path d="M484.822 142.364C349.037 213.726 339.836 200.033 457.219 101.287" stroke="#E9EEF4" stroke-width="1.00063"/>
<path d="M484.822 142.364C349.506 214.396 345.25 207.324 472.052 121.146" stroke="#E9EEF4" stroke-width="1.00063"/>
<path d="M495.28 164.134C352.322 233.15 334.138 326.483 440.728 444.134" stroke="#E9EEF4" stroke-width="1.00063"/>
<path d="M495.28 164.134C342.769 234.859 229.056 345.488 154.142 496.022" stroke="#E9EEF4" stroke-width="1.00063"/>
<path d="M495.28 164.134C341.093 233.887 210.788 334.528 104.366 466.056" stroke="#E9EEF4" stroke-width="1.00063"/>
<path d="M495.28 164.135C339.317 222.223 191.23 206.452 51.0205 116.823" stroke="#E9EEF4" stroke-width="1.00063"/>
<path d="M495.28 164.135C352.858 221.72 340.171 200.771 457.219 101.287" stroke="#E9EEF4" stroke-width="1.00063"/>
<path d="M495.28 164.134C353.361 222.39 345.618 208.061 472.052 121.146" stroke="#E9EEF4" stroke-width="1.00063"/>
<path d="M495.28 164.135C353.797 223.095 350.311 215.838 484.822 142.364" stroke="#E9EEF4" stroke-width="1.00063"/>
<path d="M502.42 182.989C354.937 240.071 334.373 327.12 440.728 444.135" stroke="#E9EEF4" stroke-width="1.00063"/>
<path d="M502.42 182.989C344.512 241.345 219.922 341.215 128.65 482.598" stroke="#E9EEF4" stroke-width="1.00063"/>
<path d="M502.42 182.989C343.707 240.775 211.023 335.131 104.366 466.056" stroke="#E9EEF4" stroke-width="1.00063"/>
<path d="M506.995 198.425C343.624 234.793 191.632 207.592 51.0205 116.823" stroke="#E9EEF4" stroke-width="1.00063"/>
<path d="M510.514 213.558C344.898 240.34 191.733 208.095 51.0205 116.823" stroke="#E9EEF4" stroke-width="1.00063"/>
<path d="M510.514 213.558C360.115 243.088 358.942 238.044 506.995 198.424" stroke="#E9EEF4" stroke-width="1.00063"/>
<path d="M513.431 231.708C349.423 259.663 229.66 347.768 154.142 496.022" stroke="#E9EEF4" stroke-width="1.00063"/>
<path d="M513.431 231.709C345.97 246.993 191.833 208.698 51.0205 116.823" stroke="#E9EEF4" stroke-width="1.00063"/>
<path d="M513.43 231.709C359.512 246.491 340.775 203.016 457.219 101.287" stroke="#E9EEF4" stroke-width="1.00063"/>
<path d="M513.431 231.709C360.015 247.161 346.222 210.307 472.052 121.146" stroke="#E9EEF4" stroke-width="1.00063"/>
<path d="M513.431 231.709C360.45 247.865 350.914 218.083 484.822 142.364" stroke="#E9EEF4" stroke-width="1.00063"/>
<path d="M513.43 231.708C360.785 248.602 354.735 226.077 495.28 164.134" stroke="#E9EEF4" stroke-width="1.00063"/>
<path d="M515.241 252.926C346.641 254.803 191.9 209.435 51.0205 116.823" stroke="#E9EEF4" stroke-width="1.00063"/>
<path d="M515.241 252.926C352.674 251.217 258.385 170.135 232.375 9.67969" stroke="#E9EEF4" stroke-width="1.00063"/>
<path d="M515.241 252.926C356.16 251.552 296.43 173.839 336.049 19.7856" stroke="#E9EEF4" stroke-width="1.00063"/>
<path d="M515.241 252.926C356.998 251.887 305.915 177.375 361.992 29.3887" stroke="#E9EEF4" stroke-width="1.00063"/>
<path d="M515.241 252.926C357.836 252.289 314.999 181.916 386.729 41.8071" stroke="#E9EEF4" stroke-width="1.00063"/>
<path d="M515.241 252.926C358.607 252.792 323.513 187.413 409.958 56.79" stroke="#E9EEF4" stroke-width="1.00063"/>
<path d="M515.241 252.926C359.277 253.328 330.903 193.38 430.119 73.0806" stroke="#E9EEF4" stroke-width="1.00063"/>
<path d="M417.032 56.9352C417.032 58.8456 416.273 60.6778 414.922 62.0286C413.571 63.3794 411.739 64.1383 409.828 64.1383C407.918 64.1382 406.086 63.3793 404.735 62.0284C403.384 60.6775 402.625 58.8453 402.625 56.9348C402.625 55.0244 403.384 53.1922 404.735 51.8413C406.086 50.4904 407.918 49.7315 409.828 49.7314C411.739 49.7314 413.571 50.4903 414.922 51.8411C416.273 53.1919 417.032 55.0248 417.032 56.9352Z" fill="#E9EEF4"/>
<path d="M436.053 73.1882C436.053 74.7921 435.415 76.3302 434.281 77.4642C433.147 78.5982 431.609 79.2353 430.005 79.2353C428.401 79.2352 426.863 78.5981 425.729 77.464C424.595 76.3299 423.958 74.7918 423.958 73.1879C423.958 71.5841 424.595 70.046 425.729 68.9119C426.863 67.7778 428.401 67.1407 430.005 67.1406C431.609 67.1406 433.147 67.7777 434.281 68.9117C435.415 70.0457 436.053 71.5844 436.053 73.1882Z" fill="#E9EEF4"/>
<path d="M444.924 86.7606C444.924 86.9841 444.836 87.1986 444.677 87.3566C444.519 87.5147 444.305 87.6036 444.081 87.6035C443.858 87.6035 443.643 87.5147 443.485 87.3566C443.327 87.1985 443.238 86.9841 443.238 86.7605C443.238 86.5369 443.327 86.3225 443.485 86.1644C443.643 86.0063 443.858 85.9175 444.081 85.9175C444.305 85.9175 444.519 86.0063 444.677 86.1644C444.836 86.3225 444.924 86.537 444.924 86.7606Z" fill="#E9EEF4"/>
<path d="M463.125 101.37C463.125 102.974 462.488 104.512 461.354 105.646C460.219 106.78 458.681 107.417 457.077 107.417C455.474 107.417 453.935 106.78 452.801 105.646C451.667 104.512 451.03 102.974 451.03 101.37C451.03 99.7662 451.667 98.2281 452.801 97.094C453.935 95.9599 455.474 95.3228 457.077 95.3228C458.681 95.3227 460.219 95.9598 461.354 97.0938C462.488 98.2278 463.125 99.7666 463.125 101.37Z" fill="#E9EEF4"/>
<path d="M477.911 121.222C477.91 122.826 477.273 124.364 476.139 125.498C475.005 126.632 473.467 127.269 471.863 127.269C470.259 127.269 468.721 126.632 467.587 125.498C466.453 124.364 465.816 122.825 465.816 121.222C465.816 119.618 466.453 118.08 467.587 116.946C468.721 115.812 470.259 115.174 471.863 115.174C473.467 115.174 475.005 115.811 476.139 116.945C477.273 118.079 477.91 119.618 477.911 121.222Z" fill="#E9EEF4"/>
<path d="M490.704 142.413C490.704 144.017 490.067 145.555 488.933 146.689C487.799 147.823 486.26 148.46 484.657 148.46C483.053 148.46 481.515 147.823 480.381 146.689C479.246 145.555 478.609 144.016 478.609 142.413C478.609 140.809 479.246 139.271 480.381 138.137C481.515 137.002 483.053 136.365 484.657 136.365C486.26 136.365 487.799 137.002 488.933 138.136C490.067 139.27 490.704 140.809 490.704 142.413Z" fill="#E9EEF4"/>
<path d="M500.582 164.21C500.582 165.661 500.006 167.052 498.98 168.078C497.954 169.103 496.563 169.679 495.113 169.679C493.662 169.679 492.271 169.103 491.245 168.077C490.22 167.052 489.644 165.661 489.644 164.21C489.644 162.759 490.22 161.368 491.245 160.343C492.271 159.317 493.662 158.741 495.113 158.741C496.563 158.741 497.954 159.317 498.98 160.342C500.006 161.368 500.582 162.76 500.582 164.21Z" fill="#E9EEF4"/>
<path d="M504.213 183.048C504.213 183.578 504.003 184.087 503.628 184.462C503.253 184.837 502.744 185.047 502.214 185.047C501.683 185.047 501.175 184.837 500.8 184.462C500.425 184.087 500.214 183.578 500.214 183.048C500.214 182.517 500.425 182.009 500.8 181.634C501.175 181.259 501.683 181.048 502.214 181.048C502.744 181.048 503.253 181.259 503.628 181.634C504.003 182.009 504.213 182.517 504.213 183.048Z" fill="#E9EEF4"/>
<path d="M508.227 198.464C508.227 198.841 508.077 199.202 507.811 199.469C507.544 199.736 507.183 199.885 506.805 199.885C506.428 199.885 506.067 199.736 505.8 199.469C505.534 199.202 505.384 198.841 505.384 198.464C505.384 198.087 505.534 197.725 505.8 197.458C506.067 197.192 506.428 197.042 506.805 197.042C507.183 197.042 507.544 197.192 507.811 197.458C508.077 197.725 508.227 198.087 508.227 198.464Z" fill="#E9EEF4"/>
<path d="M511.727 213.572C511.727 213.949 511.577 214.31 511.31 214.577C511.044 214.844 510.682 214.993 510.305 214.993C509.928 214.993 509.566 214.844 509.3 214.577C509.033 214.31 508.883 213.949 508.883 213.572C508.883 213.195 509.033 212.833 509.3 212.566C509.566 212.3 509.928 212.15 510.305 212.15C510.682 212.15 511.044 212.3 511.31 212.566C511.577 212.833 511.727 213.195 511.727 213.572Z" fill="#E9EEF4"/>
<path d="M517.569 231.731C517.569 232.874 517.115 233.971 516.306 234.78C515.497 235.589 514.401 236.043 513.257 236.043C512.113 236.043 511.016 235.589 510.207 234.78C509.399 233.971 508.944 232.874 508.944 231.731C508.944 230.587 509.399 229.49 510.207 228.681C511.016 227.872 512.113 227.418 513.257 227.418C514.401 227.418 515.497 227.872 516.306 228.681C517.115 229.49 517.569 230.587 517.569 231.731Z" fill="#E9EEF4"/>
<path d="M519.343 252.943C519.343 254.087 518.889 255.184 518.08 255.992C517.271 256.801 516.174 257.256 515.031 257.255C513.887 257.255 512.79 256.801 511.981 255.992C511.173 255.184 510.718 254.087 510.718 252.943C510.718 251.799 511.173 250.702 511.981 249.894C512.79 249.085 513.887 248.63 515.031 248.63C516.174 248.63 517.271 249.085 518.08 249.893C518.889 250.702 519.343 251.799 519.343 252.943Z" fill="#E9EEF4"/>
</svg>
