<svg width="194" height="196" viewBox="0 0 194 196" fill="none" xmlns="http://www.w3.org/2000/svg">
<path d="M100.5 10.762L97.75 185.762" stroke="black" stroke-width="0.5"/>
<line x1="160.678" y1="39.9373" x2="41.6782" y2="160.937" stroke="black" stroke-width="0.5"/>
<line x1="184.5" y1="99.012" x2="10.5" y2="99.0119" stroke="black" stroke-width="0.5"/>
<line x1="161.279" y1="161.013" x2="38.3229" y2="36.9379" stroke="black" stroke-width="0.5"/>
<path d="M41.0005 160.762C41.0005 160.762 62.8674 126.53 63.5008 100.762C64.1698 73.5468 38.0008 36.762 38.0008 36.762" stroke="black" stroke-width="0.5"/>
<path d="M161.5 42.262C161.5 42.262 133.136 70.9336 132.511 96.7013C131.852 123.917 159.99 160.767 159.99 160.767" stroke="black" stroke-width="0.5"/>
<path d="M39.5 36.762C39.5 36.762 73.7419 63.6165 99.5097 64.2408C126.725 64.9002 163.575 36.762 163.575 36.762" stroke="black" stroke-width="0.5"/>
<path d="M157 157.262C157 157.262 126.333 134.398 100.565 133.773C73.3501 133.114 42.5 162.762 42.5 162.762" stroke="black" stroke-width="0.5"/>
<path d="M184.672 99.2004C184.672 99.2004 141.47 104.424 122.808 122.203C103.098 140.981 96.9376 186.935 96.9376 186.935" stroke="black" stroke-width="0.5"/>
<path d="M98.2344 186.935C98.2344 186.935 93.0107 143.733 75.2316 125.071C56.4537 105.361 10.5001 99.2005 10.5001 99.2005" stroke="black" stroke-width="0.5"/>
<path d="M184.672 98.993C184.672 98.993 141.47 93.6802 122.808 75.598C103.098 56.5 101 12.2619 101 12.2619" stroke="black" stroke-width="0.5"/>
<path d="M99.5005 12.262C99.5005 12.262 96.0111 53.7001 78.232 72.6803C59.4541 92.7267 13.5005 98.9919 13.5005 98.9919" stroke="black" stroke-width="0.5"/>
<circle cx="100.5" cy="12.762" r="12" fill="#ADB5BD"/>
<circle cx="100.5" cy="183.762" r="12" fill="#373D43"/>
<circle cx="181.5" cy="97.762" r="12" transform="rotate(90 181.5 97.762)" fill="#868E96"/>
<circle cx="15.5" cy="98.762" r="12" transform="rotate(90 15.5 98.762)" fill="#868E96"/>
<circle cx="159.725" cy="155.988" r="12" transform="rotate(135 159.725 155.988)" fill="#868E96"/>
<circle cx="38.2755" cy="36.5364" r="12" transform="rotate(135 38.2755 36.5364)" fill="#373D43"/>
<circle cx="41.2734" cy="160.988" r="12" transform="rotate(-135 41.2734 160.988)" fill="#868E96"/>
<circle cx="160.727" cy="39.5365" r="12" transform="rotate(-135 160.727 39.5365)" fill="#373D43"/>
<circle cx="10.4464" cy="125.427" r="7.28127" transform="rotate(-120 10.4464 125.427)" fill="#ADB5BD"/>
<circle cx="183.398" cy="74.6605" r="7.24625" transform="rotate(-120 183.398 74.6605)" fill="#ADB5BD"/>
<circle cx="55.4178" cy="177.679" r="7.28127" transform="rotate(-165 55.4178 177.679)" fill="#373D43"/>
<circle cx="143.374" cy="20.6372" r="7.24625" transform="rotate(-165 143.374 20.6372)" fill="#868E96"/>
<circle cx="99.3742" cy="98.6368" r="7.24625" transform="rotate(-165 99.3742 98.6368)" fill="#868E96"/>
<circle cx="182.91" cy="119.172" r="7.28127" transform="rotate(91.0207 182.91 119.172)" fill="#373D43"/>
<circle cx="10.8739" cy="76.1362" r="7.24625" transform="rotate(91.0207 10.8739 76.1362)" fill="#ADB5BD"/>
<circle cx="180.61" cy="132.872" r="4.31354" transform="rotate(101.899 180.61 132.872)" fill="#ADB5BD"/>
<circle cx="15.4205" cy="61.6833" r="4.15407" transform="rotate(101.899 15.4205 61.6833)" fill="#373D43"/>
<circle cx="174.982" cy="143.243" r="4.31354" transform="rotate(108.962 174.982 143.243)" fill="#868E96"/>
<circle cx="26.7782" cy="50.04" r="4.15407" transform="rotate(108.962 26.7782 50.04)" fill="#868E96"/>
<circle cx="149.599" cy="171.862" r="4.31354" transform="rotate(135.715 149.599 171.862)" fill="#373D43"/>
<circle cx="55.3738" cy="23.6359" r="4.15407" transform="rotate(135.715 55.3738 23.6359)" fill="#868E96"/>
<circle cx="138.544" cy="178.806" r="4.31354" transform="rotate(142.781 138.544 178.806)" fill="#ADB5BD"/>
<circle cx="63.32" cy="16.5826" r="4.15407" transform="rotate(142.781 63.32 16.5826)" fill="#ADB5BD"/>
<circle cx="124.195" cy="184.457" r="4.31354" transform="rotate(155.995 124.195 184.457)" fill="#868E96"/>
<circle cx="78.984" cy="11.2467" r="4.15407" transform="rotate(155.995 78.984 11.2467)" fill="#373D43"/>
<circle cx="82.8858" cy="187.148" r="4.31354" transform="rotate(179.033 82.8858 187.148)" fill="#868E96"/>
<circle cx="122.724" cy="12.9855" r="4.15407" transform="rotate(179.033 122.724 12.9855)" fill="#373D43"/>
<circle cx="24.5875" cy="145.849" r="4.31354" transform="rotate(-131.222 24.5875 145.849)" fill="#868E96"/>
<circle cx="179.362" cy="57.6236" r="4.15407" transform="rotate(-131.222 179.362 57.6236)" fill="#868E96"/>
</svg>
