<svg width="525" height="524" viewBox="0 0 525 524" fill="none" xmlns="http://www.w3.org/2000/svg">
<g opacity="0.5">
<circle cx="262.5" cy="262" r="262" fill="#E9EEF4"/>
</g>
<circle cx="144.598" cy="175.53" r="89.08" fill="white"/>
<circle cx="236.297" cy="377.27" r="120.52" fill="white"/>
<circle cx="415.768" cy="247.58" r="87.77" fill="white"/>
<circle cx="304.418" cy="104.79" r="73.36" fill="white"/>
<g opacity="0.5">
<circle cx="211.257" cy="441.7" r="39.1642" transform="rotate(-105 211.257 441.7)" fill="#E9EEF4"/>
<circle cx="286.496" cy="379.803" r="52.9868" transform="rotate(-105 286.496 379.803)" fill="#E9EEF4"/>
<circle cx="210.998" cy="318.346" r="38.5882" transform="rotate(-105 210.998 318.346)" fill="#E9EEF4"/>
<circle cx="163.03" cy="381.878" r="32.2528" transform="rotate(-105 163.03 381.878)" fill="#E9EEF4"/>
</g>
<g opacity="0.5">
<circle cx="124.898" cy="127.48" r="29.855" transform="rotate(30 124.898 127.48)" fill="#E9EEF4"/>
<circle cx="117.706" cy="201.401" r="40.3921" transform="rotate(30 117.706 201.401)" fill="#E9EEF4"/>
<circle cx="191.529" cy="193.832" r="29.416" transform="rotate(30 191.529 193.832)" fill="#E9EEF4"/>
<circle cx="183.14" cy="133.731" r="24.5865" transform="rotate(30 183.14 133.731)" fill="#E9EEF4"/>
</g>
<g opacity="0.5">
<circle cx="390.277" cy="271.892" r="34.0865" transform="rotate(30 390.277 271.892)" fill="#E9EEF4"/>
<circle cx="451.512" cy="267.613" r="23.2878" transform="rotate(30 451.512 267.613)" fill="#E9EEF4"/>
<circle cx="427.951" cy="207.373" r="34.8102" transform="rotate(30 427.951 207.373)" fill="#E9EEF4"/>
</g>
<g opacity="0.5">
<circle cx="335.507" cy="121.579" r="22.0198" transform="rotate(-180 335.507 121.579)" fill="#E9EEF4"/>
<circle cx="312.84" cy="71.7119" r="29.7915" transform="rotate(-180 312.84 71.7119)" fill="#E9EEF4"/>
<circle cx="268.476" cy="103.768" r="21.696" transform="rotate(-180 268.476 103.768)" fill="#E9EEF4"/>
<circle cx="296" cy="139.066" r="18.134" transform="rotate(-180 296 139.066)" fill="#E9EEF4"/>
<ellipse cx="261.19" cy="140.17" rx="11.79" ry="11.79" transform="rotate(-180 261.19 140.17)" fill="#E9EEF4"/>
<ellipse cx="355.51" cy="90.3902" rx="11.79" ry="11.79" transform="rotate(-180 355.51 90.3902)" fill="#E9EEF4"/>
<ellipse cx="174.73" cy="234.49" rx="11.79" ry="11.79" transform="rotate(-180 174.73 234.49)" fill="#E9EEF4"/>
<ellipse cx="269.05" cy="446.71" rx="11.79" ry="11.79" transform="rotate(-180 269.05 446.71)" fill="#E9EEF4"/>
<ellipse cx="269.05" cy="310.47" rx="11.79" ry="11.79" transform="rotate(-180 269.05 310.47)" fill="#E9EEF4"/>
<ellipse cx="379.09" cy="224.01" rx="11.79" ry="11.79" transform="rotate(-180 379.09 224.01)" fill="#E9EEF4"/>
<ellipse cx="83.0298" cy="153.27" rx="11.79" ry="11.79" transform="rotate(-180 83.0298 153.27)" fill="#E9EEF4"/>
</g>
</svg>
