<svg width="200" height="201" viewBox="0 0 200 201" fill="none" xmlns="http://www.w3.org/2000/svg">
<circle cx="100" cy="100.262" r="100" fill="#ADB5BD"/>
<circle cx="55" cy="67.2581" r="34" fill="#98A1AA"/>
<circle cx="90" cy="144.258" r="46" fill="#98A1AA"/>
<circle cx="158.5" cy="94.7581" r="33.5" fill="#98A1AA"/>
<circle cx="116" cy="40.2581" r="28" fill="#98A1AA"/>
<circle cx="80.441" cy="168.85" r="14.9482" transform="rotate(-105 80.441 168.85)" fill="#373D43"/>
<circle cx="109.158" cy="145.226" r="20.224" transform="rotate(-105 109.158 145.226)" fill="#373D43"/>
<circle cx="80.3422" cy="121.768" r="14.7283" transform="rotate(-105 80.3422 121.768)" fill="#373D43"/>
<circle cx="62.0347" cy="146.017" r="12.3102" transform="rotate(-105 62.0347 146.017)" fill="#373D43"/>
<circle cx="47.4795" cy="48.9187" r="11.395" transform="rotate(30 47.4795 48.9187)" fill="#373D43"/>
<circle cx="44.7347" cy="77.1328" r="15.4168" transform="rotate(30 44.7347 77.1328)" fill="#373D43"/>
<circle cx="72.9123" cy="74.2441" r="11.2275" transform="rotate(30 72.9123 74.2441)" fill="#373D43"/>
<circle cx="69.7102" cy="51.3046" r="9.38416" transform="rotate(30 69.7102 51.3046)" fill="#373D43"/>
<circle cx="148.772" cy="104.037" r="13.0101" transform="rotate(30 148.772 104.037)" fill="#373D43"/>
<circle cx="172.142" cy="102.404" r="8.88847" transform="rotate(30 172.142 102.404)" fill="#373D43"/>
<circle cx="163.15" cy="79.4117" r="13.2863" transform="rotate(30 163.15 79.4117)" fill="#373D43"/>
<circle cx="127.865" cy="46.6661" r="8.40451" transform="rotate(-180 127.865 46.6661)" fill="#373D43"/>
<circle cx="119.213" cy="27.6327" r="11.3708" transform="rotate(-180 119.213 27.6327)" fill="#373D43"/>
<circle cx="102.282" cy="39.8683" r="8.28091" transform="rotate(-180 102.282 39.8683)" fill="#373D43"/>
<circle cx="112.786" cy="53.3403" r="6.92136" transform="rotate(-180 112.786 53.3403)" fill="#373D43"/>
<ellipse cx="99.5" cy="53.7617" rx="4.5" ry="4.5" transform="rotate(-180 99.5 53.7617)" fill="#373D43"/>
<ellipse cx="135.5" cy="34.7616" rx="4.5" ry="4.5" transform="rotate(-180 135.5 34.7616)" fill="#373D43"/>
<ellipse cx="66.5" cy="89.7618" rx="4.5" ry="4.5" transform="rotate(-180 66.5 89.7618)" fill="#373D43"/>
<ellipse cx="102.5" cy="170.762" rx="4.5" ry="4.5" transform="rotate(-180 102.5 170.762)" fill="#373D43"/>
<ellipse cx="102.5" cy="118.762" rx="4.5" ry="4.5" transform="rotate(-180 102.5 118.762)" fill="#373D43"/>
<ellipse cx="144.5" cy="85.7618" rx="4.5" ry="4.5" transform="rotate(-180 144.5 85.7618)" fill="#373D43"/>
<ellipse cx="31.5" cy="58.7618" rx="4.5" ry="4.5" transform="rotate(-180 31.5 58.7618)" fill="#373D43"/>
</svg>
