<svg xmlns="http://www.w3.org/2000/svg" width="193" height="195" viewBox="0 0 193 195" fill="none">
  <path d="M100 10L97.25 185" stroke="black" stroke-width="0.5"/>
  <line x1="160.178" y1="39.1753" x2="41.1782" y2="160.175" stroke="black" stroke-width="0.5"/>
  <line x1="184" y1="98.25" x2="10" y2="98.25" stroke="black" stroke-width="0.5"/>
  <line x1="160.779" y1="160.251" x2="37.8224" y2="36.176" stroke="black" stroke-width="0.5"/>
  <path d="M40.5 160C40.5 160 62.3669 125.767 63.0003 99.9998C63.6693 72.7847 37.5003 35.9998 37.5003 35.9998" stroke="black" stroke-width="0.5"/>
  <path d="M161 41.5C161 41.5 132.636 70.1716 132.011 95.9394C131.352 123.155 159.49 160.005 159.49 160.005" stroke="black" stroke-width="0.5"/>
  <path d="M39 36C39 36 73.2419 62.8545 99.0097 63.4788C126.225 64.1382 163.075 36 163.075 36" stroke="black" stroke-width="0.5"/>
  <path d="M156.5 156.5C156.5 156.5 125.833 133.635 100.065 133.011C72.8501 132.352 42 162 42 162" stroke="black" stroke-width="0.5"/>
  <path d="M184.173 98.4385C184.173 98.4385 140.971 103.662 122.309 121.441C102.599 140.219 96.4385 186.173 96.4385 186.173" stroke="black" stroke-width="0.5"/>
  <path d="M97.7344 186.173C97.7344 186.173 92.5107 142.971 74.7316 124.309C55.9537 104.599 10.0001 98.4386 10.0001 98.4386" stroke="black" stroke-width="0.5"/>
  <path d="M184.172 98.2312C184.172 98.2312 140.97 92.9185 122.308 74.8363C102.598 55.7383 100.5 11.5002 100.5 11.5002" stroke="black" stroke-width="0.5"/>
  <path d="M99 11.5C99 11.5 95.5106 52.9382 77.7315 71.9183C58.9536 91.9648 13 98.2299 13 98.2299" stroke="black" stroke-width="0.5"/>
  <circle cx="100" cy="12" r="12" fill="#ADB5BD"/>
  <circle cx="100" cy="183" r="12" fill="#373D43"/>
  <circle cx="181" cy="97" r="12" transform="rotate(90 181 97)" fill="#868E96"/>
  <circle cx="15" cy="98" r="12" transform="rotate(90 15 98)" fill="#868E96"/>
  <circle cx="159.225" cy="155.226" r="12" transform="rotate(135 159.225 155.226)" fill="#868E96"/>
  <circle cx="37.7746" cy="35.7744" r="12" transform="rotate(135 37.7746 35.7744)" fill="#373D43"/>
  <circle cx="40.7744" cy="160.226" r="12" transform="rotate(-135 40.7744 160.226)" fill="#868E96"/>
  <circle cx="160.226" cy="38.7746" r="12" transform="rotate(-135 160.226 38.7746)" fill="#373D43"/>
  <circle cx="9.94638" cy="124.665" r="7.28127" transform="rotate(-120 9.94638 124.665)" fill="#ADB5BD"/>
  <circle cx="182.898" cy="73.8988" r="7.24625" transform="rotate(-120 182.898 73.8988)" fill="#ADB5BD"/>
  <circle cx="54.9178" cy="176.917" r="7.28127" transform="rotate(-165 54.9178 176.917)" fill="#373D43"/>
  <circle cx="142.875" cy="19.8752" r="7.24625" transform="rotate(-165 142.875 19.8752)" fill="#868E96"/>
  <circle cx="98.8747" cy="97.8747" r="7.24625" transform="rotate(-165 98.8747 97.8747)" fill="#868E96"/>
  <circle cx="182.41" cy="118.41" r="7.28127" transform="rotate(91.0207 182.41 118.41)" fill="#373D43"/>
  <circle cx="10.3743" cy="75.3743" r="7.24625" transform="rotate(91.0207 10.3743 75.3743)" fill="#ADB5BD"/>
  <circle cx="180.11" cy="132.11" r="4.31354" transform="rotate(101.899 180.11 132.11)" fill="#ADB5BD"/>
  <circle cx="14.9214" cy="60.9211" r="4.15407" transform="rotate(101.899 14.9214 60.9211)" fill="#373D43"/>
  <circle cx="174.481" cy="142.481" r="4.31354" transform="rotate(108.962 174.481 142.481)" fill="#868E96"/>
  <circle cx="26.2787" cy="49.2781" r="4.15407" transform="rotate(108.962 26.2787 49.2781)" fill="#868E96"/>
  <circle cx="149.1" cy="171.1" r="4.31354" transform="rotate(135.715 149.1 171.1)" fill="#373D43"/>
  <circle cx="54.8743" cy="22.8739" r="4.15407" transform="rotate(135.715 54.8743 22.8739)" fill="#868E96"/>
  <circle cx="138.044" cy="178.044" r="4.31354" transform="rotate(142.781 138.044 178.044)" fill="#ADB5BD"/>
  <circle cx="62.8205" cy="15.8209" r="4.15407" transform="rotate(142.781 62.8205 15.8209)" fill="#ADB5BD"/>
  <circle cx="123.695" cy="183.695" r="4.31354" transform="rotate(155.995 123.695 183.695)" fill="#868E96"/>
  <circle cx="78.4845" cy="10.4845" r="4.15407" transform="rotate(155.995 78.4845 10.4845)" fill="#373D43"/>
  <circle cx="82.3858" cy="186.386" r="4.31354" transform="rotate(179.033 82.3858 186.386)" fill="#868E96"/>
  <circle cx="122.224" cy="12.2238" r="4.15407" transform="rotate(179.033 122.224 12.2238)" fill="#373D43"/>
  <circle cx="24.087" cy="145.087" r="4.31354" transform="rotate(-131.222 24.087 145.087)" fill="#868E96"/>
  <circle cx="178.862" cy="56.8617" r="4.15407" transform="rotate(-131.222 178.862 56.8617)" fill="#868E96"/>
</svg>