<svg width="914" height="524" viewBox="0 0 914 524" fill="none" xmlns="http://www.w3.org/2000/svg">
<rect x="863.25" y="11.459" width="24.5" height="13.5" rx="2.75" stroke="black" stroke-width="0.5"/>
<path d="M894.008 22.209V13.809H894.86L899.252 20.421V13.809H900.14V22.209H899.384L894.884 15.441V22.209H894.008ZM900.953 23.637L905.633 12.741H906.413L901.745 23.637H900.953ZM905.607 22.209L908.811 13.761H909.699L912.903 22.209H911.943L911.127 20.001H907.347L906.531 22.209H905.607ZM907.647 19.185H910.827L909.243 14.925L907.647 19.185Z" fill="#495057"/>
<rect x="0.5" y="49.709" width="913" height="473" stroke="white"/>
<path d="M692.213 298.252C692.213 299.687 691.639 301.063 690.617 302.078C689.595 303.092 688.209 303.662 686.764 303.662C685.319 303.662 683.933 303.092 682.912 302.078C681.89 301.063 681.316 299.687 681.316 298.252C681.316 296.817 681.89 295.441 682.912 294.427C683.933 293.412 685.319 292.842 686.764 292.842C688.209 292.842 689.595 293.412 690.617 294.426C691.639 295.441 692.213 296.818 692.213 298.252Z" fill="#E9EEF4"/>
<path d="M685.996 315.679C685.996 315.879 685.916 316.071 685.774 316.213C685.631 316.354 685.438 316.433 685.237 316.433C685.035 316.433 684.842 316.354 684.7 316.213C684.557 316.071 684.477 315.879 684.477 315.679C684.477 315.479 684.557 315.287 684.7 315.146C684.842 315.005 685.035 314.925 685.237 314.925C685.438 314.925 685.631 315.004 685.774 315.146C685.916 315.287 685.996 315.479 685.996 315.679Z" fill="#E9EEF4"/>
<path d="M684.874 329.386C684.874 329.86 684.685 330.315 684.347 330.651C684.009 330.986 683.55 331.175 683.073 331.175C682.595 331.175 682.136 330.986 681.798 330.651C681.461 330.315 681.271 329.86 681.271 329.386C681.271 328.911 681.461 328.456 681.798 328.121C682.136 327.785 682.595 327.597 683.073 327.597C683.55 327.597 684.009 327.785 684.347 328.121C684.685 328.456 684.874 328.911 684.874 329.386Z" fill="#E9EEF4"/>
<path d="M681.619 343.939C681.619 344.414 681.429 344.869 681.091 345.204C680.753 345.54 680.295 345.728 679.817 345.728C679.339 345.728 678.881 345.54 678.543 345.204C678.205 344.869 678.015 344.413 678.015 343.939C678.015 343.465 678.205 343.009 678.543 342.674C678.881 342.338 679.339 342.15 679.817 342.15C680.295 342.15 680.753 342.338 681.091 342.674C681.429 343.009 681.619 343.465 681.619 343.939Z" fill="#E9EEF4"/>
<path d="M676.694 357.266C676.694 357.466 676.614 357.658 676.471 357.799C676.329 357.941 676.136 358.02 675.934 358.02C675.733 358.02 675.54 357.941 675.397 357.799C675.255 357.658 675.175 357.466 675.175 357.266C675.175 357.066 675.255 356.874 675.397 356.733C675.54 356.591 675.733 356.512 675.934 356.512C676.136 356.512 676.329 356.591 676.471 356.733C676.614 356.874 676.694 357.066 676.694 357.266Z" fill="#E9EEF4"/>
<path d="M672.381 369.37C672.381 369.57 672.301 369.762 672.158 369.904C672.016 370.045 671.823 370.124 671.621 370.124C671.42 370.124 671.226 370.045 671.084 369.904C670.942 369.762 670.862 369.57 670.862 369.37C670.862 369.17 670.942 368.978 671.084 368.837C671.226 368.696 671.42 368.616 671.621 368.616C671.823 368.616 672.016 368.696 672.158 368.837C672.301 368.978 672.381 369.17 672.381 369.37Z" fill="#E9EEF4"/>
<path d="M667.389 381.215C667.389 381.415 667.309 381.607 667.167 381.748C667.024 381.89 666.831 381.969 666.629 381.969C666.428 381.969 666.235 381.89 666.092 381.748C665.95 381.607 665.87 381.415 665.87 381.215C665.87 381.015 665.95 380.823 666.092 380.682C666.235 380.54 666.428 380.461 666.629 380.461C666.831 380.461 667.024 380.54 667.167 380.682C667.309 380.823 667.389 381.015 667.389 381.215Z" fill="#E9EEF4"/>
<path d="M661.735 392.762C661.735 392.962 661.655 393.154 661.512 393.295C661.37 393.436 661.177 393.516 660.975 393.516C660.774 393.516 660.58 393.436 660.438 393.295C660.296 393.153 660.216 392.962 660.216 392.762C660.216 392.562 660.296 392.37 660.438 392.228C660.58 392.087 660.774 392.007 660.975 392.007C661.177 392.007 661.37 392.087 661.512 392.228C661.655 392.37 661.735 392.562 661.735 392.762Z" fill="#E9EEF4"/>
<path d="M655.436 403.976C655.436 404.176 655.356 404.367 655.214 404.509C655.071 404.65 654.878 404.73 654.677 404.73C654.475 404.73 654.282 404.65 654.14 404.509C653.997 404.367 653.917 404.176 653.917 403.976C653.917 403.775 653.997 403.584 654.14 403.442C654.282 403.301 654.475 403.221 654.677 403.221C654.878 403.221 655.071 403.301 655.214 403.442C655.356 403.584 655.436 403.776 655.436 403.976Z" fill="#E9EEF4"/>
<path d="M648.512 414.819C648.512 415.019 648.432 415.211 648.29 415.353C648.148 415.494 647.954 415.573 647.753 415.573C647.551 415.573 647.358 415.494 647.216 415.353C647.073 415.211 646.993 415.019 646.993 414.819C646.993 414.619 647.073 414.427 647.216 414.286C647.358 414.145 647.551 414.065 647.753 414.065C647.954 414.065 648.148 414.145 648.29 414.286C648.432 414.427 648.512 414.619 648.512 414.819Z" fill="#E9EEF4"/>
<path d="M640.986 425.26C640.986 425.46 640.906 425.652 640.763 425.793C640.621 425.935 640.428 426.014 640.226 426.014C640.025 426.014 639.831 425.935 639.689 425.793C639.547 425.652 639.467 425.46 639.467 425.26C639.467 425.06 639.547 424.868 639.689 424.727C639.831 424.585 640.025 424.506 640.226 424.506C640.428 424.506 640.621 424.585 640.763 424.727C640.906 424.868 640.986 425.06 640.986 425.26Z" fill="#E9EEF4"/>
<path d="M638.737 448.581C638.737 453.583 636.735 458.38 633.173 461.917C629.611 465.453 624.78 467.44 619.742 467.44C614.704 467.44 609.873 465.453 606.311 461.916C602.749 458.379 600.748 453.582 600.748 448.581C600.748 443.579 602.749 438.782 606.311 435.245C609.873 431.708 614.704 429.721 619.742 429.721C624.78 429.721 629.611 431.708 633.173 435.244C636.735 438.781 638.737 443.58 638.737 448.581Z" fill="#E9EEF4"/>
<path d="M597.138 469.252C597.138 469.59 597.003 469.913 596.762 470.152C596.522 470.39 596.196 470.524 595.857 470.524C595.517 470.524 595.191 470.39 594.951 470.152C594.711 469.913 594.576 469.59 594.576 469.252C594.576 468.915 594.711 468.591 594.951 468.353C595.191 468.114 595.517 467.98 595.857 467.98C596.196 467.98 596.522 468.114 596.762 468.353C597.003 468.591 597.138 468.915 597.138 469.252Z" fill="#E9EEF4"/>
<path d="M585.657 476.998C585.657 477.198 585.577 477.39 585.435 477.532C585.292 477.673 585.099 477.753 584.898 477.753C584.696 477.753 584.503 477.673 584.361 477.532C584.218 477.39 584.138 477.198 584.138 476.998C584.138 476.798 584.218 476.607 584.361 476.465C584.503 476.324 584.696 476.244 584.898 476.244C585.099 476.244 585.292 476.324 585.435 476.465C585.577 476.607 585.657 476.798 585.657 476.998Z" fill="#E9EEF4"/>
<path d="M574.711 483.833C574.711 484.033 574.631 484.225 574.488 484.366C574.346 484.508 574.152 484.587 573.951 484.587C573.75 484.587 573.556 484.508 573.414 484.366C573.271 484.225 573.191 484.033 573.191 483.833C573.191 483.633 573.271 483.441 573.414 483.3C573.556 483.158 573.75 483.079 573.951 483.079C574.152 483.079 574.346 483.158 574.488 483.3C574.631 483.441 574.711 483.633 574.711 483.833Z" fill="#E9EEF4"/>
<path d="M563.394 490.046C563.394 490.246 563.314 490.438 563.172 490.579C563.029 490.721 562.836 490.8 562.635 490.8C562.433 490.8 562.24 490.721 562.097 490.579C561.955 490.438 561.875 490.246 561.875 490.046C561.875 489.846 561.955 489.654 562.097 489.513C562.24 489.371 562.433 489.292 562.635 489.292C562.836 489.292 563.029 489.371 563.172 489.513C563.314 489.654 563.394 489.846 563.394 490.046Z" fill="#E9EEF4"/>
<path d="M552.091 497.274C552.091 498.571 551.572 499.816 550.648 500.734C549.724 501.651 548.47 502.167 547.163 502.167C545.856 502.166 544.603 501.651 543.679 500.733C542.755 499.816 542.235 498.571 542.235 497.274C542.235 495.976 542.755 494.731 543.679 493.814C544.603 492.896 545.856 492.381 547.163 492.381C548.47 492.381 549.724 492.896 550.648 493.814C551.572 494.731 552.091 495.976 552.091 497.274Z" fill="#E9EEF4"/>
<path d="M532.115 504.321C532.115 505.344 531.705 506.325 530.977 507.049C530.248 507.772 529.26 508.179 528.229 508.179C527.199 508.179 526.21 507.772 525.482 507.049C524.753 506.325 524.344 505.344 524.344 504.321C524.344 503.297 524.753 502.316 525.482 501.592C526.21 500.869 527.199 500.462 528.229 500.462C529.26 500.462 530.248 500.869 530.977 501.592C531.705 502.316 532.115 503.297 532.115 504.321Z" fill="#E9EEF4"/>
<path d="M513.646 509.454C513.646 510.478 513.236 511.459 512.507 512.182C511.779 512.906 510.79 513.312 509.76 513.312C508.729 513.312 507.741 512.906 507.012 512.182C506.284 511.459 505.874 510.477 505.874 509.454C505.874 508.431 506.284 507.45 507.012 506.726C507.741 506.003 508.729 505.596 509.76 505.596C510.79 505.596 511.779 506.002 512.507 506.726C513.236 507.449 513.646 508.431 513.646 509.454Z" fill="#E9EEF4"/>
<path d="M494.81 513.042C494.81 514.066 494.4 515.047 493.671 515.77C492.943 516.494 491.954 516.9 490.924 516.9C489.893 516.9 488.905 516.494 488.176 515.77C487.448 515.047 487.038 514.065 487.038 513.042C487.038 512.019 487.448 511.038 488.176 510.314C488.905 509.591 489.893 509.184 490.924 509.184C491.954 509.184 492.943 509.591 493.671 510.314C494.4 511.038 494.81 512.019 494.81 513.042Z" fill="#E9EEF4"/>
<path d="M475.738 515.059C475.738 516.083 475.328 517.064 474.6 517.787C473.871 518.511 472.882 518.917 471.852 518.917C470.821 518.917 469.833 518.511 469.104 517.787C468.376 517.064 467.966 516.082 467.966 515.059C467.966 514.036 468.376 513.055 469.104 512.331C469.833 511.608 470.821 511.201 471.852 511.201C472.882 511.201 473.871 511.607 474.6 512.331C475.328 513.054 475.738 514.036 475.738 515.059Z" fill="#E9EEF4"/>
<path d="M456.563 515.491C456.563 516.515 456.153 517.496 455.425 518.219C454.696 518.943 453.708 519.349 452.677 519.349C451.647 519.349 450.658 518.943 449.93 518.219C449.201 517.496 448.792 516.514 448.792 515.491C448.792 514.468 449.201 513.487 449.93 512.763C450.658 512.04 451.647 511.633 452.677 511.633C453.708 511.633 454.696 512.039 455.425 512.763C456.153 513.486 456.563 514.468 456.563 515.491Z" fill="#E9EEF4"/>
<path d="M437.418 514.336C437.418 515.359 437.009 516.34 436.28 517.064C435.551 517.787 434.563 518.194 433.532 518.194C432.502 518.194 431.513 517.787 430.785 517.064C430.056 516.34 429.647 515.359 429.647 514.336C429.647 513.313 430.056 512.331 430.785 511.608C431.513 510.884 432.502 510.478 433.532 510.478C434.563 510.478 435.551 510.884 436.28 511.608C437.009 512.331 437.418 513.313 437.418 514.336Z" fill="#E9EEF4"/>
<path d="M418.515 510.798C418.515 512.919 417.666 514.953 416.156 516.452C414.646 517.952 412.597 518.794 410.461 518.794C408.326 518.794 406.277 517.952 404.767 516.452C403.257 514.953 402.408 512.919 402.408 510.798C402.408 508.677 403.257 506.643 404.767 505.144C406.277 503.644 408.326 502.802 410.461 502.802C412.597 502.802 414.646 503.644 416.156 505.143C417.666 506.643 418.515 508.678 418.515 510.798Z" fill="#E9EEF4"/>
<path d="M391.854 504.325C391.854 505.897 391.225 507.405 390.106 508.516C388.986 509.628 387.468 510.252 385.885 510.252C384.302 510.252 382.783 509.628 381.664 508.516C380.544 507.405 379.915 505.897 379.915 504.325C379.915 502.753 380.544 501.246 381.664 500.134C382.783 499.022 384.302 498.398 385.885 498.398C387.468 498.398 388.986 499.022 390.106 500.134C391.225 501.245 391.854 502.753 391.854 504.325Z" fill="#E9EEF4"/>
<path d="M370.279 494.985C370.279 497.243 369.375 499.408 367.767 501.005C366.159 502.602 363.978 503.498 361.704 503.498C359.43 503.498 357.249 502.601 355.641 501.005C354.033 499.408 353.129 497.242 353.129 494.984C353.129 492.726 354.033 490.561 355.641 488.964C357.249 487.367 359.43 486.47 361.704 486.47C363.978 486.47 366.159 487.367 367.767 488.964C369.375 490.56 370.279 492.727 370.279 494.985Z" fill="#E9EEF4"/>
<path d="M344.706 482.999C344.706 484.571 344.077 486.079 342.957 487.19C341.838 488.302 340.319 488.926 338.736 488.926C337.153 488.926 335.634 488.301 334.515 487.19C333.396 486.078 332.767 484.571 332.767 482.999C332.767 481.427 333.396 479.919 334.515 478.808C335.634 477.696 337.153 477.072 338.736 477.072C340.319 477.071 341.838 477.696 342.957 478.807C344.077 479.919 344.706 481.427 344.706 482.999Z" fill="#E9EEF4"/>
<path d="M325.956 468.206C325.956 470.601 324.998 472.898 323.292 474.592C321.586 476.285 319.273 477.237 316.86 477.237C314.448 477.236 312.135 476.285 310.429 474.591C308.723 472.898 307.765 470.601 307.765 468.205C307.765 465.81 308.723 463.513 310.429 461.819C312.135 460.126 314.448 459.174 316.86 459.174C319.273 459.174 321.586 460.126 323.292 461.819C324.998 463.513 325.956 465.811 325.956 468.206Z" fill="#E9EEF4"/>
<path d="M301.802 453.517C301.802 454.128 301.557 454.715 301.122 455.147C300.686 455.58 300.095 455.823 299.479 455.823C298.863 455.823 298.273 455.58 297.837 455.147C297.402 454.715 297.157 454.128 297.157 453.517C297.157 452.905 297.402 452.318 297.837 451.886C298.273 451.453 298.863 451.21 299.479 451.21C300.095 451.21 300.686 451.453 301.122 451.886C301.557 452.318 301.802 452.905 301.802 453.517Z" fill="#E9EEF4"/>
<path d="M291.174 440.67C291.174 441.83 290.71 442.943 289.884 443.764C289.057 444.584 287.936 445.045 286.768 445.045C285.599 445.045 284.478 444.584 283.652 443.763C282.826 442.943 282.361 441.83 282.361 440.67C282.361 439.509 282.826 438.396 283.652 437.576C284.478 436.755 285.599 436.294 286.768 436.294C287.936 436.294 289.057 436.755 289.884 437.576C290.71 438.396 291.174 439.51 291.174 440.67Z" fill="#E9EEF4"/>
<path d="M277.035 427.686C277.035 428.023 276.9 428.347 276.66 428.585C276.419 428.824 276.094 428.958 275.754 428.958C275.414 428.958 275.088 428.824 274.848 428.585C274.608 428.347 274.473 428.023 274.473 427.686C274.473 427.348 274.608 427.025 274.848 426.786C275.088 426.548 275.414 426.414 275.754 426.414C276.094 426.414 276.419 426.548 276.66 426.786C276.9 427.025 277.035 427.348 277.035 427.686Z" fill="#E9EEF4"/>
<path d="M269.23 415.641C269.23 416.253 268.985 416.839 268.55 417.272C268.114 417.704 267.523 417.947 266.907 417.947C266.291 417.947 265.7 417.704 265.265 417.272C264.829 416.839 264.585 416.252 264.585 415.641C264.585 415.029 264.829 414.443 265.265 414.01C265.7 413.578 266.291 413.335 266.907 413.335C267.523 413.335 268.114 413.578 268.55 414.01C268.985 414.443 269.23 415.029 269.23 415.641Z" fill="#E9EEF4"/>
<path d="M259.894 403.494C259.894 403.694 259.814 403.886 259.672 404.027C259.529 404.169 259.336 404.248 259.135 404.248C258.933 404.248 258.74 404.169 258.598 404.027C258.455 403.886 258.375 403.694 258.375 403.494C258.375 403.294 258.455 403.102 258.598 402.961C258.74 402.819 258.933 402.74 259.135 402.74C259.336 402.74 259.529 402.819 259.672 402.961C259.814 403.102 259.894 403.294 259.894 403.494Z" fill="#E9EEF4"/>
<path d="M253.906 391.806C253.906 392.143 253.771 392.467 253.531 392.705C253.29 392.944 252.964 393.078 252.625 393.078C252.285 393.078 251.959 392.944 251.719 392.705C251.479 392.467 251.344 392.143 251.344 391.806C251.344 391.469 251.479 391.145 251.719 390.907C251.959 390.668 252.285 390.534 252.625 390.534C252.964 390.534 253.29 390.668 253.531 390.906C253.771 391.145 253.906 391.469 253.906 391.806Z" fill="#E9EEF4"/>
<path d="M249.136 377.39C249.135 378.276 248.781 379.126 248.15 379.752C247.519 380.379 246.663 380.731 245.771 380.731C244.878 380.73 244.022 380.378 243.391 379.752C242.76 379.125 242.406 378.276 242.406 377.39C242.406 376.503 242.76 375.654 243.391 375.027C244.022 374.401 244.878 374.049 245.771 374.049C246.663 374.049 247.519 374.4 248.15 375.027C248.781 375.654 249.135 376.504 249.136 377.39Z" fill="#E9EEF4"/>
<path d="M242.633 360.577C242.633 361.463 242.278 362.313 241.647 362.939C241.016 363.566 240.16 363.918 239.268 363.918C238.376 363.918 237.52 363.566 236.889 362.939C236.258 362.313 235.903 361.463 235.903 360.577C235.903 359.691 236.258 358.841 236.889 358.214C237.52 357.588 238.376 357.236 239.268 357.236C240.16 357.236 241.016 357.588 241.647 358.214C242.278 358.841 242.633 359.691 242.633 360.577Z" fill="#E9EEF4"/>
<path d="M237.485 343.308C237.485 344.194 237.13 345.044 236.499 345.67C235.868 346.297 235.012 346.649 234.12 346.649C233.227 346.649 232.371 346.297 231.74 345.67C231.109 345.044 230.755 344.194 230.755 343.308C230.755 342.422 231.109 341.572 231.74 340.945C232.371 340.319 233.227 339.967 234.12 339.967C235.012 339.967 235.868 340.319 236.499 340.945C237.13 341.572 237.485 342.422 237.485 343.308Z" fill="#E9EEF4"/>
<path d="M233.723 325.69C233.723 326.576 233.369 327.426 232.738 328.052C232.106 328.679 231.251 329.031 230.358 329.03C229.466 329.03 228.61 328.678 227.979 328.052C227.348 327.425 226.993 326.576 226.993 325.69C226.993 324.803 227.348 323.954 227.979 323.327C228.61 322.701 229.466 322.349 230.358 322.349C231.251 322.348 232.106 322.7 232.738 323.327C233.369 323.953 233.723 324.804 233.723 325.69Z" fill="#E9EEF4"/>
<path d="M231.372 307.832C231.372 308.718 231.017 309.568 230.386 310.194C229.755 310.821 228.899 311.173 228.007 311.173C227.115 311.173 226.259 310.821 225.628 310.194C224.997 309.568 224.642 308.718 224.642 307.832C224.642 306.946 224.997 306.096 225.628 305.469C226.259 304.843 227.115 304.491 228.007 304.491C228.899 304.491 229.755 304.843 230.386 305.469C231.017 306.096 231.372 306.946 231.372 307.832Z" fill="#E9EEF4"/>
<path d="M228.906 291.397C228.906 291.872 228.716 292.327 228.378 292.662C228.04 292.998 227.582 293.186 227.104 293.186C226.626 293.186 226.168 292.998 225.83 292.662C225.492 292.327 225.302 291.872 225.302 291.397C225.302 290.923 225.492 290.468 225.83 290.132C226.168 289.797 226.626 289.608 227.104 289.608C227.582 289.608 228.04 289.797 228.378 290.132C228.716 290.468 228.906 290.923 228.906 291.397Z" fill="#E9EEF4"/>
<path d="M228.029 277.525C228.029 277.725 227.949 277.917 227.807 278.058C227.664 278.2 227.471 278.279 227.27 278.279C227.068 278.279 226.875 278.2 226.733 278.058C226.59 277.917 226.51 277.725 226.51 277.525C226.51 277.325 226.59 277.133 226.733 276.992C226.875 276.85 227.068 276.771 227.27 276.771C227.471 276.771 227.664 276.85 227.807 276.992C227.949 277.133 228.029 277.325 228.029 277.525Z" fill="#E9EEF4"/>
<path d="M234.72 259.575C234.72 261.147 234.091 262.654 232.972 263.766C231.852 264.877 230.334 265.502 228.751 265.502C227.167 265.501 225.649 264.877 224.53 263.765C223.41 262.654 222.781 261.146 222.781 259.574C222.781 258.002 223.41 256.495 224.53 255.383C225.649 254.272 227.167 253.647 228.751 253.647C230.334 253.647 231.852 254.271 232.972 255.383C234.091 256.494 234.72 258.003 234.72 259.575Z" fill="#E9EEF4"/>
<path d="M233.663 240.783C233.663 241.257 233.474 241.712 233.136 242.048C232.798 242.383 232.339 242.572 231.862 242.572C231.384 242.572 230.925 242.383 230.588 242.048C230.25 241.712 230.06 241.257 230.06 240.783C230.06 240.308 230.25 239.853 230.588 239.518C230.925 239.182 231.384 238.994 231.862 238.994C232.339 238.994 232.798 239.182 233.136 239.518C233.474 239.853 233.663 240.308 233.663 240.783Z" fill="#E9EEF4"/>
<path d="M237.192 226.293C237.192 226.767 237.002 227.222 236.664 227.558C236.326 227.893 235.868 228.082 235.39 228.082C234.912 228.082 234.454 227.893 234.116 227.558C233.778 227.222 233.588 226.767 233.588 226.293C233.588 225.818 233.778 225.363 234.116 225.028C234.454 224.692 234.912 224.504 235.39 224.504C235.868 224.504 236.326 224.692 236.664 225.028C237.002 225.363 237.192 225.818 237.192 226.293Z" fill="#E9EEF4"/>
<path d="M240.974 212.551C240.974 212.888 240.839 213.212 240.599 213.45C240.358 213.689 240.033 213.823 239.693 213.823C239.353 213.823 239.027 213.689 238.787 213.45C238.547 213.212 238.412 212.888 238.412 212.551C238.412 212.214 238.547 211.89 238.787 211.652C239.027 211.413 239.353 211.279 239.693 211.279C240.033 211.279 240.358 211.413 240.599 211.652C240.839 211.89 240.974 212.214 240.974 212.551Z" fill="#E9EEF4"/>
<path d="M245.218 200.061C245.218 200.261 245.138 200.452 244.996 200.594C244.853 200.735 244.66 200.815 244.459 200.815C244.257 200.815 244.064 200.735 243.922 200.594C243.779 200.452 243.699 200.261 243.699 200.061C243.699 199.861 243.779 199.669 243.922 199.527C244.064 199.386 244.257 199.306 244.459 199.306C244.66 199.306 244.853 199.386 244.996 199.527C245.138 199.669 245.218 199.861 245.218 200.061Z" fill="#E9EEF4"/>
<path d="M250.486 188.335C250.486 188.535 250.406 188.727 250.264 188.868C250.121 189.01 249.928 189.089 249.727 189.089C249.525 189.089 249.332 189.01 249.19 188.868C249.047 188.727 248.967 188.535 248.967 188.335C248.967 188.135 249.047 187.943 249.19 187.802C249.332 187.66 249.525 187.581 249.727 187.581C249.928 187.581 250.121 187.66 250.264 187.802C250.406 187.943 250.486 188.135 250.486 188.335Z" fill="#E9EEF4"/>
<path d="M257.183 176.468C257.183 176.806 257.048 177.129 256.808 177.368C256.568 177.606 256.242 177.74 255.902 177.74C255.563 177.74 255.237 177.606 254.997 177.368C254.756 177.129 254.621 176.806 254.621 176.468C254.621 176.131 254.756 175.808 254.997 175.569C255.237 175.331 255.563 175.197 255.902 175.197C256.242 175.197 256.568 175.331 256.808 175.569C257.048 175.808 257.183 176.131 257.183 176.468Z" fill="#E9EEF4"/>
<path d="M280.541 155.942C280.54 159.023 279.308 161.978 277.113 164.156C274.919 166.335 271.943 167.559 268.84 167.559C265.737 167.559 262.761 166.335 260.567 164.156C258.372 161.977 257.14 159.023 257.14 155.941C257.14 152.86 258.372 149.906 260.567 147.727C262.761 145.548 265.737 144.324 268.84 144.324C271.943 144.324 274.919 145.548 277.113 147.726C279.308 149.905 280.54 152.861 280.541 155.942Z" fill="#E9EEF4"/>
<path d="M289.506 134.953C289.506 135.976 289.097 136.958 288.368 137.681C287.639 138.405 286.651 138.811 285.62 138.811C284.59 138.811 283.601 138.404 282.873 137.681C282.144 136.957 281.735 135.976 281.735 134.953C281.735 133.93 282.144 132.948 282.873 132.225C283.601 131.501 284.59 131.095 285.62 131.095C286.651 131.095 287.639 131.501 288.368 132.225C289.097 132.948 289.506 133.93 289.506 134.953Z" fill="#E9EEF4"/>
<path d="M298.39 123.088C298.39 123.426 298.255 123.749 298.015 123.988C297.775 124.226 297.449 124.36 297.109 124.36C296.769 124.36 296.444 124.226 296.203 123.988C295.963 123.749 295.828 123.426 295.828 123.088C295.828 122.751 295.963 122.428 296.203 122.189C296.444 121.95 296.769 121.816 297.109 121.816C297.449 121.816 297.775 121.95 298.015 122.189C298.255 122.427 298.39 122.751 298.39 123.088Z" fill="#E9EEF4"/>
<path d="M313.315 112.076C313.315 113.099 312.905 114.08 312.176 114.804C311.448 115.527 310.459 115.934 309.429 115.934C308.398 115.934 307.41 115.527 306.681 114.804C305.953 114.08 305.543 113.099 305.543 112.076C305.543 111.052 305.953 110.071 306.681 109.348C307.41 108.624 308.398 108.218 309.429 108.218C310.459 108.218 311.448 108.624 312.176 109.347C312.905 110.071 313.315 111.053 313.315 112.076Z" fill="#E9EEF4"/>
<path d="M323.796 101.973C323.796 102.311 323.661 102.634 323.421 102.873C323.181 103.111 322.855 103.245 322.515 103.245C322.176 103.245 321.85 103.111 321.61 102.872C321.369 102.634 321.234 102.31 321.234 101.973C321.234 101.636 321.369 101.312 321.61 101.074C321.85 100.835 322.176 100.701 322.515 100.701C322.855 100.701 323.181 100.835 323.421 101.074C323.661 101.312 323.796 101.636 323.796 101.973Z" fill="#E9EEF4"/>
<path d="M334.411 94.4802C334.411 94.6802 334.331 94.872 334.188 95.0135C334.046 95.1549 333.853 95.2344 333.651 95.2343C333.45 95.2343 333.256 95.1549 333.114 95.0134C332.972 94.872 332.891 94.6802 332.891 94.4802C332.891 94.2801 332.972 94.0883 333.114 93.9469C333.256 93.8054 333.45 93.726 333.651 93.726C333.853 93.7259 334.046 93.8054 334.188 93.9468C334.331 94.0883 334.411 94.2802 334.411 94.4802Z" fill="#E9EEF4"/>
<path d="M348.443 87.1451C348.443 87.7568 348.198 88.3433 347.763 88.7758C347.327 89.2083 346.736 89.4512 346.12 89.4512C345.504 89.4512 344.914 89.2082 344.478 88.7757C344.043 88.3432 343.798 87.7566 343.798 87.145C343.798 86.5334 344.043 85.9468 344.478 85.5143C344.914 85.0819 345.504 84.8389 346.12 84.8389C346.736 84.8389 347.327 85.0818 347.763 85.5143C348.198 85.9467 348.443 86.5335 348.443 87.1451Z" fill="#E9EEF4"/>
<path d="M377.734 76.8079C377.734 79.4773 376.666 82.0374 374.765 83.9249C372.863 85.8125 370.285 86.8728 367.596 86.8728C364.908 86.8727 362.329 85.8122 360.428 83.9246C358.527 82.037 357.459 79.4768 357.459 76.8074C357.459 74.1379 358.527 71.5777 360.428 69.6901C362.329 67.8025 364.908 66.742 367.596 66.7419C370.285 66.7419 372.863 67.8022 374.765 69.6898C376.666 71.5773 377.734 74.1384 377.734 76.8079Z" fill="#E9EEF4"/>
<path d="M390.321 69.0398C390.321 69.3771 390.186 69.7006 389.946 69.9391C389.705 70.1776 389.379 70.3116 389.04 70.3116C388.7 70.3116 388.374 70.1776 388.134 69.9391C387.894 69.7005 387.759 69.377 387.759 69.0397C387.759 68.7024 387.894 68.3789 388.134 68.1404C388.374 67.9018 388.7 67.7678 389.04 67.7678C389.379 67.7678 389.705 67.9018 389.946 68.1403C390.186 68.3788 390.321 68.7025 390.321 69.0398Z" fill="#E9EEF4"/>
<path d="M413.043 64.2834C413.043 65.8554 412.414 67.3629 411.295 68.4744C410.175 69.586 408.657 70.2104 407.074 70.2103C405.49 70.2103 403.972 69.5858 402.853 68.4742C401.733 67.3627 401.104 65.8551 401.104 64.2831C401.104 62.7111 401.733 61.2036 402.853 60.092C403.972 58.9804 405.49 58.3559 407.074 58.3559C408.657 58.3559 410.175 58.9803 411.295 60.0918C412.414 61.2033 413.043 62.7114 413.043 64.2834Z" fill="#E9EEF4"/>
<path d="M440.214 60.1682C440.214 62.2889 439.365 64.3228 437.855 65.8223C436.344 67.3218 434.296 68.1642 432.16 68.1641C430.024 68.1641 427.976 67.3216 426.465 65.822C424.955 64.3224 424.107 62.2885 424.107 60.1678C424.107 58.0471 424.955 56.0132 426.465 54.5136C427.976 53.0141 430.024 52.1716 432.16 52.1715C434.296 52.1715 436.344 53.0138 437.855 54.5134C439.365 56.0129 440.214 58.0475 440.214 60.1682Z" fill="#E9EEF4"/>
<path d="M463.52 58.8274C463.52 60.3994 462.891 61.9069 461.771 63.0185C460.652 64.13 459.133 64.7544 457.55 64.7543C455.967 64.7543 454.449 64.1298 453.329 63.0182C452.21 61.9067 451.581 60.3991 451.581 58.8271C451.581 57.2551 452.21 55.7476 453.329 54.636C454.449 53.5244 455.967 52.8999 457.55 52.8999C459.133 52.8999 460.652 53.5243 461.771 54.6358C462.891 55.7473 463.52 57.2554 463.52 58.8274Z" fill="#E9EEF4"/>
<path d="M484.752 59.9495C484.752 61.2472 484.233 62.4917 483.309 63.4093C482.385 64.3268 481.131 64.8423 479.824 64.8422C478.517 64.8422 477.264 64.3267 476.34 63.4091C475.416 62.4915 474.896 61.247 474.896 59.9493C474.896 58.6516 475.416 57.4071 476.34 56.4895C477.264 55.5719 478.517 55.0564 479.824 55.0563C481.131 55.0563 482.385 55.5718 483.309 56.4893C484.233 57.4069 484.752 58.6519 484.752 59.9495Z" fill="#E9EEF4"/>
<path d="M507.855 63.2082C507.855 64.7801 507.226 66.2877 506.106 67.3992C504.987 68.5107 503.468 69.1351 501.885 69.1351C500.302 69.135 498.783 68.5105 497.664 67.399C496.544 66.2874 495.916 64.7798 495.916 63.2079C495.916 61.6359 496.544 60.1283 497.664 59.0167C498.783 57.9052 500.302 57.2807 501.885 57.2806C503.468 57.2806 504.987 57.905 506.106 59.0165C507.226 60.128 507.855 61.6362 507.855 63.2082Z" fill="#E9EEF4"/>
<path d="M532.528 69.1808C532.528 71.0272 531.789 72.798 530.474 74.1035C529.159 75.4091 527.376 76.1425 525.516 76.1425C523.657 76.1424 521.873 75.4089 520.558 74.1033C519.243 72.7976 518.505 71.0269 518.505 69.1804C518.505 67.334 519.243 65.5632 520.558 64.2576C521.873 62.9519 523.657 62.2184 525.516 62.2184C527.376 62.2183 529.159 62.9518 530.474 64.2573C531.789 65.5629 532.528 67.3344 532.528 69.1808Z" fill="#E9EEF4"/>
<path d="M555.347 77.81C555.347 79.5191 554.663 81.1582 553.446 82.3667C552.229 83.5752 550.578 84.2541 548.857 84.2541C547.135 84.254 545.485 83.575 544.268 82.3665C543.05 81.1579 542.367 79.5188 542.367 77.8097C542.367 76.1006 543.05 74.4615 544.268 73.2529C545.485 72.0444 547.135 71.3654 548.857 71.3654C550.578 71.3653 552.229 72.0442 553.446 73.2527C554.663 74.4612 555.347 76.1009 555.347 77.81Z" fill="#E9EEF4"/>
<path d="M578.132 88.8946C578.132 90.7411 577.393 92.5118 576.078 93.8174C574.763 95.123 572.979 95.8564 571.12 95.8563C569.26 95.8563 567.477 95.1228 566.162 93.8171C564.847 92.5115 564.108 90.7407 564.108 88.8943C564.108 87.0479 564.847 85.2771 566.162 83.9714C567.477 82.6658 569.26 81.9323 571.12 81.9323C572.979 81.9322 574.763 82.6656 576.078 83.9712C577.393 85.2768 578.132 87.0482 578.132 88.8946Z" fill="#E9EEF4"/>
<path d="M685.393 315.697C548.46 298.004 548.974 292.187 686.933 298.244" stroke="#E9EEF4" stroke-width="1.00063"/>
<path d="M683.263 329.415C547.66 303.027 548.883 292.637 686.933 298.244" stroke="#E9EEF4" stroke-width="1.00063"/>
<path d="M680.002 343.989C546.482 308.395 548.792 293.146 686.933 298.244" stroke="#E9EEF4" stroke-width="1.00063"/>
<path d="M680.002 343.989C546.362 309.414 547.449 304.556 683.264 329.415" stroke="#E9EEF4" stroke-width="1.00063"/>
<path d="M676.106 357.303C545.063 313.253 548.672 293.566 686.934 298.244" stroke="#E9EEF4" stroke-width="1.00063"/>
<path d="M671.802 369.448C543.477 317.721 548.521 293.986 686.933 298.244" stroke="#E9EEF4" stroke-width="1.00063"/>
<path d="M666.774 381.278C541.62 322.054 548.34 294.376 686.934 298.244" stroke="#E9EEF4" stroke-width="1.00063"/>
<path d="M661.111 392.838C539.551 326.297 548.159 294.766 686.933 298.244" stroke="#E9EEF4" stroke-width="1.00063"/>
<path d="M654.814 404.038C537.241 330.39 547.947 295.125 686.933 298.244" stroke="#E9EEF4" stroke-width="1.00063"/>
<path d="M647.883 414.923C534.689 334.378 547.705 295.485 686.933 298.244" stroke="#E9EEF4" stroke-width="1.00063"/>
<path d="M619.886 448.703C524.42 346.778 546.769 296.625 686.933 298.244" stroke="#E9EEF4" stroke-width="1.00063"/>
<path d="M619.886 448.703C524.299 347.827 545.425 308.065 683.264 329.415" stroke="#E9EEF4" stroke-width="1.00063"/>
<path d="M619.887 448.703C524.209 348.307 544.248 313.402 680.002 343.989" stroke="#E9EEF4" stroke-width="1.00063"/>
<path d="M619.886 448.703C522.88 351.006 529.706 343.225 640.363 425.359" stroke="#E9EEF4" stroke-width="1.00063"/>
<path d="M595.967 469.349C513.427 359.357 521.401 352.475 619.887 448.703" stroke="#E9EEF4" stroke-width="1.00063"/>
<path d="M585.004 477.131C509.41 362.221 521.038 352.745 619.886 448.703" stroke="#E9EEF4" stroke-width="1.00063"/>
<path d="M574.041 483.968C505.394 364.71 520.675 352.955 619.887 448.703" stroke="#E9EEF4" stroke-width="1.00063"/>
<path d="M562.715 490.175C501.226 366.989 520.283 353.165 619.886 448.703" stroke="#E9EEF4" stroke-width="1.00063"/>
<path d="M528.286 504.479C486.185 373.856 492.512 371.502 547.267 497.417" stroke="#E9EEF4" stroke-width="1.00063"/>
<path d="M509.803 509.607C479.421 375.745 491.909 371.682 547.268 497.417" stroke="#E9EEF4" stroke-width="1.00063"/>
<path d="M509.803 509.607C478.787 375.985 484.948 374.276 528.286 504.479" stroke="#E9EEF4" stroke-width="1.00063"/>
<path d="M490.957 513.205C472.505 377.065 491.275 371.802 547.268 497.417" stroke="#E9EEF4" stroke-width="1.00063"/>
<path d="M490.957 513.205C471.87 377.304 484.313 374.396 528.286 504.479" stroke="#E9EEF4" stroke-width="1.00063"/>
<path d="M490.957 513.205C471.266 377.485 477.548 376.285 509.802 509.607" stroke="#E9EEF4" stroke-width="1.00063"/>
<path d="M471.885 515.184C465.513 377.784 490.64 371.862 547.267 497.417" stroke="#E9EEF4" stroke-width="1.00063"/>
<path d="M471.886 515.184C464.879 378.024 483.679 374.456 528.287 504.479" stroke="#E9EEF4" stroke-width="1.00063"/>
<path d="M471.885 515.184C464.275 378.204 476.914 376.345 509.803 509.606" stroke="#E9EEF4" stroke-width="1.00063"/>
<path d="M471.885 515.184C463.64 378.324 469.998 377.664 490.957 513.205" stroke="#E9EEF4" stroke-width="1.00063"/>
<path d="M452.723 515.634C458.491 377.964 490.006 371.892 547.268 497.417" stroke="#E9EEF4" stroke-width="1.00063"/>
<path d="M452.723 515.634C457.857 378.204 483.045 374.486 528.286 504.479" stroke="#E9EEF4" stroke-width="1.00063"/>
<path d="M452.723 515.634C457.253 378.354 476.28 376.345 509.803 509.607" stroke="#E9EEF4" stroke-width="1.00063"/>
<path d="M452.723 515.634C456.619 378.474 469.364 377.664 490.958 513.205" stroke="#E9EEF4" stroke-width="1.00063"/>
<path d="M452.723 515.634C455.985 378.564 462.372 378.414 471.885 515.184" stroke="#E9EEF4" stroke-width="1.00063"/>
<path d="M433.56 514.465C451.47 377.514 489.372 371.832 547.268 497.417" stroke="#E9EEF4" stroke-width="1.00063"/>
<path d="M433.56 514.464C450.835 377.754 482.411 374.426 528.286 504.479" stroke="#E9EEF4" stroke-width="1.00063"/>
<path d="M433.56 514.465C450.201 377.934 475.615 376.315 509.803 509.607" stroke="#E9EEF4" stroke-width="1.00063"/>
<path d="M433.56 514.464C449.597 378.054 468.73 377.634 490.958 513.205" stroke="#E9EEF4" stroke-width="1.00063"/>
<path d="M433.56 514.465C448.933 378.114 461.708 378.354 471.886 515.184" stroke="#E9EEF4" stroke-width="1.00063"/>
<path d="M433.56 514.464C448.298 378.144 454.686 378.534 452.723 515.634" stroke="#E9EEF4" stroke-width="1.00063"/>
<path d="M410.456 510.956C445.399 374.606 515.209 353.855 619.886 448.703" stroke="#E9EEF4" stroke-width="1.00063"/>
<path d="M410.456 510.956C444.613 375.296 506.45 361.427 595.967 469.349" stroke="#E9EEF4" stroke-width="1.00063"/>
<path d="M410.456 510.956C442.982 376.255 488.586 371.742 547.267 497.417" stroke="#E9EEF4" stroke-width="1.00063"/>
<path d="M410.456 510.956C442.348 376.465 481.625 374.306 528.286 504.479" stroke="#E9EEF4" stroke-width="1.00063"/>
<path d="M410.456 510.956C441.744 376.645 474.86 376.195 509.803 509.607" stroke="#E9EEF4" stroke-width="1.00063"/>
<path d="M410.456 510.956C441.11 376.765 467.944 377.515 490.957 513.205" stroke="#E9EEF4" stroke-width="1.00063"/>
<path d="M410.456 510.956C440.476 376.825 460.952 378.234 471.885 515.185" stroke="#E9EEF4" stroke-width="1.00063"/>
<path d="M410.456 510.956C439.841 376.855 453.93 378.414 452.722 515.634" stroke="#E9EEF4" stroke-width="1.00063"/>
<path d="M410.456 510.956C439.207 376.825 446.909 377.994 433.56 514.464" stroke="#E9EEF4" stroke-width="1.00063"/>
<path d="M385.857 504.479C436.384 372.237 514.394 353.645 619.887 448.703" stroke="#E9EEF4" stroke-width="1.00063"/>
<path d="M385.857 504.479C429.407 374.306 437.607 376.465 410.456 510.956" stroke="#E9EEF4" stroke-width="1.00063"/>
<path d="M361.666 495.123C427.535 368.818 513.608 353.345 619.886 448.703" stroke="#E9EEF4" stroke-width="1.00063"/>
<path d="M361.666 495.123C420.528 370.887 436.791 376.165 410.456 510.956" stroke="#E9EEF4" stroke-width="1.00063"/>
<path d="M361.666 495.123C419.713 370.677 427.776 373.796 385.857 504.479" stroke="#E9EEF4" stroke-width="1.00063"/>
<path d="M338.698 483.113C419.094 364.395 512.823 352.925 619.887 448.703" stroke="#E9EEF4" stroke-width="1.00063"/>
<path d="M338.698 483.113C416.677 366.044 486.201 370.812 547.268 497.417" stroke="#E9EEF4" stroke-width="1.00063"/>
<path d="M338.698 483.113C411.302 366.254 427.021 373.376 385.857 504.479" stroke="#E9EEF4" stroke-width="1.00063"/>
<path d="M338.698 483.113C410.486 365.955 418.142 369.958 361.666 495.123" stroke="#E9EEF4" stroke-width="1.00063"/>
<path d="M316.817 468.314C411.075 358.982 512.098 352.445 619.887 448.703" stroke="#E9EEF4" stroke-width="1.00063"/>
<path d="M316.817 468.315C404.099 361.052 435.312 375.265 410.456 510.956" stroke="#E9EEF4" stroke-width="1.00063"/>
<path d="M316.817 468.315C403.283 360.842 426.297 372.896 385.857 504.479" stroke="#E9EEF4" stroke-width="1.00063"/>
<path d="M316.817 468.315C402.468 360.542 417.418 369.478 361.666 495.123" stroke="#E9EEF4" stroke-width="1.00063"/>
<path d="M316.817 468.315C401.713 360.122 409.007 365.055 338.698 483.113" stroke="#E9EEF4" stroke-width="1.00063"/>
<path d="M299.421 453.606C404.702 353.6 511.524 351.966 619.886 448.703" stroke="#E9EEF4" stroke-width="1.00063"/>
<path d="M299.421 453.606C394.585 354.23 400.383 359.132 316.817 468.315" stroke="#E9EEF4" stroke-width="1.00063"/>
<path d="M286.691 440.787C400.036 348.877 511.102 351.516 619.886 448.704" stroke="#E9EEF4" stroke-width="1.00063"/>
<path d="M286.691 440.787C393.06 350.976 434.315 374.366 410.456 510.956" stroke="#E9EEF4" stroke-width="1.00063"/>
<path d="M286.691 440.787C389.919 349.537 399.961 358.713 316.817 468.315" stroke="#E9EEF4" stroke-width="1.00063"/>
<path d="M275.683 427.788C388.998 346.193 433.922 373.916 410.456 510.956" stroke="#E9EEF4" stroke-width="1.00063"/>
<path d="M266.804 415.733C392.743 339.716 510.437 350.706 619.886 448.703" stroke="#E9EEF4" stroke-width="1.00063"/>
<path d="M266.804 415.733C385.766 341.785 433.65 373.526 410.456 510.956" stroke="#E9EEF4" stroke-width="1.00063"/>
<path d="M266.804 415.733C382.625 340.346 399.296 357.873 316.817 468.315" stroke="#E9EEF4" stroke-width="1.00063"/>
<path d="M266.804 415.733C381.266 338.996 384.226 343.014 275.683 427.787" stroke="#E9EEF4" stroke-width="1.00063"/>
<path d="M259.057 403.588C389.889 335.248 510.165 350.286 619.886 448.703" stroke="#E9EEF4" stroke-width="1.00063"/>
<path d="M252.533 391.893C387.503 330.96 509.954 349.897 619.886 448.703" stroke="#E9EEF4" stroke-width="1.00063"/>
<path d="M252.533 391.893C377.415 331.62 398.843 357.094 316.817 468.315" stroke="#E9EEF4" stroke-width="1.00063"/>
<path d="M245.648 377.454C384.966 325.667 509.713 349.417 619.887 448.703" stroke="#E9EEF4" stroke-width="1.00063"/>
<path d="M245.648 377.454C373.883 325.397 387.564 346.508 286.692 440.786" stroke="#E9EEF4" stroke-width="1.00063"/>
<path d="M239.169 360.632C382.595 319.49 509.501 348.847 619.886 448.703" stroke="#E9EEF4" stroke-width="1.00063"/>
<path d="M239.169 360.632C371.511 319.22 387.352 345.938 286.691 440.786" stroke="#E9EEF4" stroke-width="1.00063"/>
<path d="M239.169 360.632C370.122 317.121 372.281 322.728 245.647 377.454" stroke="#E9EEF4" stroke-width="1.00063"/>
<path d="M234.005 343.359C380.723 313.163 509.35 348.277 619.886 448.703" stroke="#E9EEF4" stroke-width="1.00063"/>
<path d="M234.005 343.359C369.609 312.893 387.171 345.368 286.691 440.787" stroke="#E9EEF4" stroke-width="1.00063"/>
<path d="M234.005 343.359C368.25 310.793 372.131 322.158 245.648 377.454" stroke="#E9EEF4" stroke-width="1.00063"/>
<path d="M234.005 343.359C368.008 310.224 369.73 315.981 239.17 360.632" stroke="#E9EEF4" stroke-width="1.00063"/>
<path d="M230.245 325.727C379.319 306.685 509.199 347.677 619.887 448.703" stroke="#E9EEF4" stroke-width="1.00063"/>
<path d="M230.245 325.727C368.235 306.445 387.05 344.799 286.691 440.787" stroke="#E9EEF4" stroke-width="1.00063"/>
<path d="M230.245 325.727C366.846 304.316 371.98 321.559 245.648 377.454" stroke="#E9EEF4" stroke-width="1.00063"/>
<path d="M230.245 325.727C366.634 303.777 369.609 315.412 239.17 360.632" stroke="#E9EEF4" stroke-width="1.00063"/>
<path d="M230.245 325.727C366.483 303.177 367.737 309.054 234.005 343.359" stroke="#E9EEF4" stroke-width="1.00063"/>
<path d="M227.889 307.87C378.472 300.163 509.138 347.108 619.886 448.703" stroke="#E9EEF4" stroke-width="1.00063"/>
<path d="M227.889 307.87C367.358 299.893 386.959 344.199 286.691 440.787" stroke="#E9EEF4" stroke-width="1.00063"/>
<path d="M227.889 307.87C365.999 297.764 371.919 320.959 245.647 377.454" stroke="#E9EEF4" stroke-width="1.00063"/>
<path d="M227.889 307.87C365.788 297.225 369.548 314.812 239.169 360.632" stroke="#E9EEF4" stroke-width="1.00063"/>
<path d="M227.889 307.87C365.607 296.655 367.645 308.485 234.005 343.36" stroke="#E9EEF4" stroke-width="1.00063"/>
<path d="M227.889 307.87C365.486 296.055 366.271 302.007 230.245 325.727" stroke="#E9EEF4" stroke-width="1.00063"/>
<path d="M226.984 291.407C369.533 295.665 414.428 363.57 361.666 495.123" stroke="#E9EEF4" stroke-width="1.00063"/>
<path d="M227.165 277.508C369.594 290.582 414.428 363.121 361.666 495.123" stroke="#E9EEF4" stroke-width="1.00063"/>
<path d="M228.614 259.561C370.922 284.3 423.337 365.939 385.857 504.479" stroke="#E9EEF4" stroke-width="1.00063"/>
<path d="M228.614 259.561C370.137 284 414.488 362.521 361.666 495.123" stroke="#E9EEF4" stroke-width="1.00063"/>
<path d="M231.74 240.759C372.085 277.403 423.458 365.31 385.857 504.479" stroke="#E9EEF4" stroke-width="1.00063"/>
<path d="M231.74 240.759C371.27 277.103 414.579 361.891 361.666 495.123" stroke="#E9EEF4" stroke-width="1.00063"/>
<path d="M231.74 240.759C366.83 269.247 365.788 275.514 228.614 259.561" stroke="#E9EEF4" stroke-width="1.00063"/>
<path d="M235.274 226.276C381.176 270.237 509.38 344.379 619.887 448.703" stroke="#E9EEF4" stroke-width="1.00063"/>
<path d="M235.274 226.276C371.814 271.376 406.288 356.989 338.698 483.113" stroke="#E9EEF4" stroke-width="1.00063"/>
<path d="M235.274 226.276C371.059 270.896 398.24 351.576 316.817 468.315" stroke="#E9EEF4" stroke-width="1.00063"/>
<path d="M239.578 212.512C382.762 265.199 509.531 343.929 619.887 448.703" stroke="#E9EEF4" stroke-width="1.00063"/>
<path d="M239.578 212.512C372.07 265.349 392.018 345.713 299.421 453.606" stroke="#E9EEF4" stroke-width="1.00063"/>
<path d="M244.334 200.007C373.807 260.76 392.169 345.293 299.421 453.606" stroke="#E9EEF4" stroke-width="1.00063"/>
<path d="M255.795 176.393C376.358 243.263 374.305 247.222 249.634 188.267" stroke="#E9EEF4" stroke-width="1.00063"/>
<path d="M268.752 155.881C393.453 244.433 510.498 342.04 619.886 448.703" stroke="#E9EEF4" stroke-width="1.00063"/>
<path d="M268.752 155.881C384.845 245.962 415.817 359.043 361.666 495.123" stroke="#E9EEF4" stroke-width="1.00063"/>
<path d="M268.752 155.881C383.335 245.062 399.357 349.207 316.817 468.315" stroke="#E9EEF4" stroke-width="1.00063"/>
<path d="M268.751 155.881C381.311 235.347 376.993 242.184 255.795 176.392" stroke="#E9EEF4" stroke-width="1.00063"/>
<path d="M285.559 134.875C399.599 236.711 511.041 341.32 619.887 448.703" stroke="#E9EEF4" stroke-width="1.00063"/>
<path d="M285.559 134.875C390.236 237.88 407.949 353.96 338.698 483.113" stroke="#E9EEF4" stroke-width="1.00063"/>
<path d="M297.02 123.001C396.02 234.222 425.632 361.381 385.857 504.479" stroke="#E9EEF4" stroke-width="1.00063"/>
<path d="M297.02 123.001C392.667 221.897 388.847 225.856 285.559 134.876" stroke="#E9EEF4" stroke-width="1.00063"/>
<path d="M309.343 111.981C408.342 228.33 511.857 340.57 619.887 448.703" stroke="#E9EEF4" stroke-width="1.00063"/>
<path d="M309.343 111.981C398.95 229.469 408.735 353.18 338.698 483.113" stroke="#E9EEF4" stroke-width="1.00063"/>
<path d="M309.342 111.981C397.198 217.864 389.27 225.496 285.559 134.876" stroke="#E9EEF4" stroke-width="1.00063"/>
<path d="M322.48 101.86C400.067 219.379 368.235 282.561 226.984 291.407" stroke="#E9EEF4" stroke-width="1.00063"/>
<path d="M322.48 101.86C402.815 213.381 398.436 216.755 309.343 111.981" stroke="#E9EEF4" stroke-width="1.00063"/>
<path d="M333.579 94.3482C406.877 210.637 398.799 216.515 309.343 111.98" stroke="#E9EEF4" stroke-width="1.00063"/>
<path d="M346.082 87.0165C412.434 220.308 409.973 352.34 338.698 483.113" stroke="#E9EEF4" stroke-width="1.00063"/>
<path d="M346.082 87.0165C410.652 208.703 390.478 224.656 285.559 134.876" stroke="#E9EEF4" stroke-width="1.00063"/>
<path d="M346.082 87.0165C411.468 207.954 399.221 216.275 309.343 111.981" stroke="#E9EEF4" stroke-width="1.00063"/>
<path d="M367.555 76.6713C427.263 217.01 487.167 357.258 547.268 497.417" stroke="#E9EEF4" stroke-width="1.00063"/>
<path d="M367.555 76.6713C421.072 216.92 419.109 356.404 361.666 495.123" stroke="#E9EEF4" stroke-width="1.00063"/>
<path d="M367.555 76.6713C420.317 216.53 410.698 352.011 338.698 483.113" stroke="#E9EEF4" stroke-width="1.00063"/>
<path d="M367.555 76.6713C416.572 210.143 369.715 281.722 226.984 291.407" stroke="#E9EEF4" stroke-width="1.00063"/>
<path d="M367.555 76.6713C416.632 209.063 370.318 270.027 228.614 259.561" stroke="#E9EEF4" stroke-width="1.00063"/>
<path d="M367.555 76.6713C417.961 205.615 385.026 232.018 268.752 155.882" stroke="#E9EEF4" stroke-width="1.00063"/>
<path d="M367.555 76.6713C418.535 204.925 391.203 224.327 285.559 134.876" stroke="#E9EEF4" stroke-width="1.00063"/>
<path d="M367.555 76.6713C419.32 204.145 399.916 215.915 309.343 111.981" stroke="#E9EEF4" stroke-width="1.00063"/>
<path d="M367.555 76.6713C420.558 203.336 413.401 206.784 346.082 87.0167" stroke="#E9EEF4" stroke-width="1.00063"/>
<path d="M389.028 68.8894C426.417 202.061 391.927 224.056 285.559 134.876" stroke="#E9EEF4" stroke-width="1.00063"/>
<path d="M389.028 68.8894C429.136 200.112 421.978 202.706 367.555 76.671" stroke="#E9EEF4" stroke-width="1.00063"/>
<path d="M407.058 64.1666C431.128 204.475 371.647 269.607 228.614 259.561" stroke="#E9EEF4" stroke-width="1.00063"/>
<path d="M407.058 64.1666C432.458 201.027 386.355 231.598 268.752 155.881" stroke="#E9EEF4" stroke-width="1.00063"/>
<path d="M407.058 64.1666C435.75 198.388 422.582 202.556 367.555 76.6711" stroke="#E9EEF4" stroke-width="1.00063"/>
<path d="M432.156 60.0286C453.357 209.273 515.934 338.832 619.887 448.703" stroke="#E9EEF4" stroke-width="1.00063"/>
<path d="M432.156 60.0286C443.27 209.933 404.824 346.028 316.817 468.315" stroke="#E9EEF4" stroke-width="1.00063"/>
<path d="M432.156 60.0286C441.669 199.528 387.201 231.479 268.752 155.882" stroke="#E9EEF4" stroke-width="1.00063"/>
<path d="M432.156 60.0286C444.961 196.889 423.427 202.436 367.555 76.6713" stroke="#E9EEF4" stroke-width="1.00063"/>
<path d="M432.156 60.0286C446.26 196.469 437.894 197.848 407.058 64.1668" stroke="#E9EEF4" stroke-width="1.00063"/>
<path d="M457.57 58.679C450.986 199.018 388.047 231.418 268.752 155.881" stroke="#E9EEF4" stroke-width="1.00063"/>
<path d="M457.57 58.679C454.278 196.379 424.273 202.376 367.555 76.6711" stroke="#E9EEF4" stroke-width="1.00063"/>
<path d="M457.57 58.679C455.577 195.959 438.739 197.788 407.058 64.1666" stroke="#E9EEF4" stroke-width="1.00063"/>
<path d="M457.57 58.679C456.423 195.839 447.951 196.289 432.156 60.0284" stroke="#E9EEF4" stroke-width="1.00063"/>
<path d="M479.858 59.8036C459.14 199.422 388.771 231.448 268.752 155.882" stroke="#E9EEF4" stroke-width="1.00063"/>
<path d="M479.859 59.8036C464.607 196.244 448.706 196.319 432.156 60.0285" stroke="#E9EEF4" stroke-width="1.00063"/>
<path d="M479.859 59.8035C465.453 196.184 458.023 195.809 457.57 58.679" stroke="#E9EEF4" stroke-width="1.00063"/>
<path d="M501.92 63.087C467.249 200.637 389.526 231.568 268.752 155.881" stroke="#E9EEF4" stroke-width="1.00063"/>
<path d="M501.921 63.087C470.541 197.998 425.753 202.526 367.555 76.671" stroke="#E9EEF4" stroke-width="1.00063"/>
<path d="M501.92 63.087C471.84 197.578 440.219 197.938 407.058 64.1665" stroke="#E9EEF4" stroke-width="1.00063"/>
<path d="M501.921 63.0872C472.686 197.428 449.431 196.409 432.156 60.0286" stroke="#E9EEF4" stroke-width="1.00063"/>
<path d="M501.921 63.087C473.531 197.398 458.748 195.929 457.57 58.679" stroke="#E9EEF4" stroke-width="1.00063"/>
<path d="M501.921 63.0872C474.286 197.428 466.932 196.334 479.859 59.8036" stroke="#E9EEF4" stroke-width="1.00063"/>
<path d="M525.568 69.0696C474.588 206.29 375.603 269.787 228.614 259.561" stroke="#E9EEF4" stroke-width="1.00063"/>
<path d="M525.568 69.0696C475.917 202.841 390.312 231.778 268.752 155.882" stroke="#E9EEF4" stroke-width="1.00063"/>
<path d="M525.568 69.0696C479.209 200.202 426.538 202.736 367.555 76.6713" stroke="#E9EEF4" stroke-width="1.00063"/>
<path d="M525.568 69.0695C480.538 199.782 441.035 198.148 407.058 64.1666" stroke="#E9EEF4" stroke-width="1.00063"/>
<path d="M525.568 69.0696C481.354 199.632 450.216 196.619 432.156 60.0286" stroke="#E9EEF4" stroke-width="1.00063"/>
<path d="M525.568 69.0694C482.199 199.602 459.533 196.139 457.57 58.679" stroke="#E9EEF4" stroke-width="1.00063"/>
<path d="M525.568 69.0695C482.954 199.632 467.717 196.544 479.858 59.8036" stroke="#E9EEF4" stroke-width="1.00063"/>
<path d="M525.568 69.0694C483.679 199.752 475.797 197.758 501.921 63.087" stroke="#E9EEF4" stroke-width="1.00063"/>
<path d="M548.944 77.6607C484.494 205.975 391.097 232.048 268.752 155.881" stroke="#E9EEF4" stroke-width="1.00063"/>
<path d="M548.944 77.6608C487.786 203.336 427.323 203.006 367.555 76.6713" stroke="#E9EEF4" stroke-width="1.00063"/>
<path d="M548.944 77.6607C489.085 202.916 441.79 198.418 407.058 64.1666" stroke="#E9EEF4" stroke-width="1.00063"/>
<path d="M548.944 77.6609C489.931 202.796 451.001 196.919 432.156 60.0286" stroke="#E9EEF4" stroke-width="1.00063"/>
<path d="M548.944 77.6607C490.776 202.736 460.318 196.409 457.57 58.679" stroke="#E9EEF4" stroke-width="1.00063"/>
<path d="M548.944 77.6608C491.531 202.766 468.503 196.814 479.859 59.8036" stroke="#E9EEF4" stroke-width="1.00063"/>
<path d="M548.944 77.6606C492.256 202.886 476.582 198.028 501.92 63.087" stroke="#E9EEF4" stroke-width="1.00063"/>
<path d="M548.943 77.6608C493.041 203.096 485.249 200.232 525.568 69.0696" stroke="#E9EEF4" stroke-width="1.00063"/>
<path d="M571.232 88.7708C504.367 219.813 520.585 339.791 619.886 448.703" stroke="#E9EEF4" stroke-width="1.00063"/>
<path d="M571.232 88.7708C492.649 210.068 391.822 232.438 268.752 155.881" stroke="#E9EEF4" stroke-width="1.00063"/>
<path d="M571.232 88.771C495.941 207.429 428.048 203.396 367.555 76.6713" stroke="#E9EEF4" stroke-width="1.00063"/>
<path d="M571.232 88.7708C497.269 207.009 442.545 198.808 407.058 64.1666" stroke="#E9EEF4" stroke-width="1.00063"/>
<path d="M571.233 88.771C498.115 206.859 451.756 197.279 432.156 60.0286" stroke="#E9EEF4" stroke-width="1.00063"/>
<path d="M571.232 88.7708C498.961 206.829 461.073 196.799 457.57 58.679" stroke="#E9EEF4" stroke-width="1.00063"/>
<path d="M571.232 88.7709C499.686 206.859 469.228 197.203 479.859 59.8036" stroke="#E9EEF4" stroke-width="1.00063"/>
<path d="M571.232 88.7707C500.44 206.949 477.336 198.388 501.92 63.087" stroke="#E9EEF4" stroke-width="1.00063"/>
<path d="M571.233 88.771C501.226 207.159 486.005 200.592 525.568 69.0696" stroke="#E9EEF4" stroke-width="1.00063"/>
<path d="M571.233 88.7708C501.981 207.459 494.552 203.756 548.944 77.6607" stroke="#E9EEF4" stroke-width="1.00063"/>
<path d="M592.162 102.175C500.32 214.985 392.516 232.888 268.752 155.881" stroke="#E9EEF4" stroke-width="1.00063"/>
<path d="M592.162 102.175C503.612 212.317 428.743 203.816 367.555 76.6713" stroke="#E9EEF4" stroke-width="1.00063"/>
<path d="M592.162 102.175C504.941 211.927 443.239 199.258 407.058 64.1666" stroke="#E9EEF4" stroke-width="1.00063"/>
<path d="M592.162 102.175C505.787 211.777 452.451 197.728 432.156 60.0286" stroke="#E9EEF4" stroke-width="1.00063"/>
<path d="M592.162 102.175C506.632 211.717 461.768 197.218 457.57 58.679" stroke="#E9EEF4" stroke-width="1.00063"/>
<path d="M592.162 102.175C507.357 211.777 469.922 197.653 479.859 59.8036" stroke="#E9EEF4" stroke-width="1.00063"/>
<path d="M592.161 102.175C508.111 211.867 478.031 198.838 501.92 63.087" stroke="#E9EEF4" stroke-width="1.00063"/>
<path d="M592.162 102.175C508.897 212.077 486.699 201.042 525.568 69.0696" stroke="#E9EEF4" stroke-width="1.00063"/>
<path d="M592.162 102.175C509.682 212.377 495.276 204.205 548.944 77.6607" stroke="#E9EEF4" stroke-width="1.00063"/>
<path d="M592.162 102.175C510.407 212.737 503.431 208.269 571.233 88.7708" stroke="#E9EEF4" stroke-width="1.00063"/>
<path d="M610.328 116.749C506.979 220.323 393.12 233.368 268.752 155.881" stroke="#E9EEF4" stroke-width="1.00063"/>
<path d="M610.328 116.749C512.446 217.115 453.055 198.208 432.156 60.0286" stroke="#E9EEF4" stroke-width="1.00063"/>
<path d="M610.328 116.749C513.291 217.085 462.372 197.728 457.57 58.679" stroke="#E9EEF4" stroke-width="1.00063"/>
<path d="M610.328 116.749C514.016 217.115 470.526 198.133 479.858 59.8036" stroke="#E9EEF4" stroke-width="1.00063"/>
<path d="M610.328 116.748C514.771 217.235 478.635 199.347 501.92 63.087" stroke="#E9EEF4" stroke-width="1.00063"/>
<path d="M610.327 116.749C515.556 217.415 487.303 201.522 525.568 69.0696" stroke="#E9EEF4" stroke-width="1.00063"/>
<path d="M610.328 116.749C516.342 217.714 495.881 204.685 548.944 77.6607" stroke="#E9EEF4" stroke-width="1.00063"/>
<path d="M610.328 116.749C517.066 218.074 504.034 208.748 571.232 88.7708" stroke="#E9EEF4" stroke-width="1.00063"/>
<path d="M610.328 116.748C517.761 218.524 511.706 213.666 592.162 102.175" stroke="#E9EEF4" stroke-width="1.00063"/>
<path d="M623.058 128.893C516.266 221.703 444.266 200.127 407.058 64.1666" stroke="#E9EEF4" stroke-width="1.00063"/>
<path d="M634.745 141.982C527.652 239.32 522.699 341.56 619.886 448.703" stroke="#E9EEF4" stroke-width="1.00063"/>
<path d="M634.746 141.982C519.86 241.179 436.897 362.011 385.857 504.479" stroke="#E9EEF4" stroke-width="1.00063"/>
<path d="M634.746 141.982C519.045 240.879 428.018 358.593 361.666 495.123" stroke="#E9EEF4" stroke-width="1.00063"/>
<path d="M634.746 141.982C517.535 239.98 411.559 348.757 316.817 468.315" stroke="#E9EEF4" stroke-width="1.00063"/>
<path d="M634.745 141.982C514.605 233.023 379.228 272.215 228.614 259.561" stroke="#E9EEF4" stroke-width="1.00063"/>
<path d="M634.745 141.982C515.934 229.574 393.936 234.207 268.752 155.881" stroke="#E9EEF4" stroke-width="1.00063"/>
<path d="M648.109 159.75C532.559 245.842 523.152 342.16 619.886 448.703" stroke="#E9EEF4" stroke-width="1.00063"/>
<path d="M648.11 159.75C524.738 247.701 437.32 362.611 385.857 504.479" stroke="#E9EEF4" stroke-width="1.00063"/>
<path d="M648.11 159.75C523.952 247.401 428.471 359.193 361.666 495.123" stroke="#E9EEF4" stroke-width="1.00063"/>
<path d="M648.11 159.75C522.442 246.502 412.012 349.357 316.817 468.315" stroke="#E9EEF4" stroke-width="1.00063"/>
<path d="M648.109 159.75C519.512 239.545 379.681 272.815 228.614 259.561" stroke="#E9EEF4" stroke-width="1.00063"/>
<path d="M648.11 159.75C520.841 236.066 394.389 234.777 268.752 155.881" stroke="#E9EEF4" stroke-width="1.00063"/>
<path d="M648.11 159.75C533.043 235.617 528.588 229.694 634.746 141.982" stroke="#E9EEF4" stroke-width="1.00063"/>
<path d="M659.617 178.731C536.758 252.799 523.515 342.79 619.887 448.703" stroke="#E9EEF4" stroke-width="1.00063"/>
<path d="M659.616 178.731C528.966 254.658 437.713 363.241 385.857 504.479" stroke="#E9EEF4" stroke-width="1.00063"/>
<path d="M659.616 178.731C528.15 254.358 428.833 359.822 361.666 495.123" stroke="#E9EEF4" stroke-width="1.00063"/>
<path d="M659.616 178.731C526.671 253.459 412.404 349.986 316.817 468.315" stroke="#E9EEF4" stroke-width="1.00063"/>
<path d="M659.616 178.731C523.741 246.502 380.073 273.445 228.614 259.561" stroke="#E9EEF4" stroke-width="1.00063"/>
<path d="M659.617 178.732C530.506 239.845 454.686 200.277 432.156 60.0286" stroke="#E9EEF4" stroke-width="1.00063"/>
<path d="M659.616 178.731C537.271 242.573 528.981 230.324 634.745 141.982" stroke="#E9EEF4" stroke-width="1.00063"/>
<path d="M659.616 178.732C537.694 243.173 533.858 236.846 648.11 159.75" stroke="#E9EEF4" stroke-width="1.00063"/>
<path d="M669.039 198.208C540.231 259.951 523.847 343.449 619.887 448.703" stroke="#E9EEF4" stroke-width="1.00063"/>
<path d="M669.039 198.208C531.623 261.48 429.166 360.452 361.666 495.123" stroke="#E9EEF4" stroke-width="1.00063"/>
<path d="M669.039 198.208C530.114 260.611 412.706 350.646 316.817 468.315" stroke="#E9EEF4" stroke-width="1.00063"/>
<path d="M669.039 198.208C528.513 250.175 395.084 236.066 268.752 155.881" stroke="#E9EEF4" stroke-width="1.00063"/>
<path d="M669.039 198.208C540.714 249.725 529.283 230.984 634.746 141.982" stroke="#E9EEF4" stroke-width="1.00063"/>
<path d="M669.039 198.208C541.167 250.325 534.19 237.506 648.109 159.75" stroke="#E9EEF4" stroke-width="1.00063"/>
<path d="M669.039 198.208C541.56 250.955 538.419 244.463 659.616 178.731" stroke="#E9EEF4" stroke-width="1.00063"/>
<path d="M675.472 215.076C542.587 266.143 524.058 344.019 619.887 448.703" stroke="#E9EEF4" stroke-width="1.00063"/>
<path d="M675.472 215.076C533.194 267.283 420.936 356.629 338.698 483.113" stroke="#E9EEF4" stroke-width="1.00063"/>
<path d="M675.472 215.076C532.469 266.773 412.918 351.186 316.817 468.315" stroke="#E9EEF4" stroke-width="1.00063"/>
<path d="M679.594 228.885C532.393 261.42 395.446 237.086 268.752 155.881" stroke="#E9EEF4" stroke-width="1.00063"/>
<path d="M682.765 242.424C533.541 266.383 395.537 237.536 268.752 155.881" stroke="#E9EEF4" stroke-width="1.00063"/>
<path d="M682.765 242.424C547.252 268.842 546.195 264.329 679.594 228.885" stroke="#E9EEF4" stroke-width="1.00063"/>
<path d="M685.393 258.661C537.618 283.67 429.709 362.491 361.666 495.123" stroke="#E9EEF4" stroke-width="1.00063"/>
<path d="M685.393 258.661C534.508 272.336 395.627 238.076 268.752 155.881" stroke="#E9EEF4" stroke-width="1.00063"/>
<path d="M685.393 258.661C546.709 271.886 529.827 232.993 634.746 141.982" stroke="#E9EEF4" stroke-width="1.00063"/>
<path d="M685.393 258.662C547.162 272.485 534.734 239.515 648.11 159.75" stroke="#E9EEF4" stroke-width="1.00063"/>
<path d="M685.393 258.661C547.555 273.115 538.963 246.472 659.617 178.731" stroke="#E9EEF4" stroke-width="1.00063"/>
<path d="M685.393 258.661C547.856 273.775 542.405 253.624 669.039 198.208" stroke="#E9EEF4" stroke-width="1.00063"/>
<path d="M687.024 277.643C535.112 279.322 395.688 238.735 268.752 155.881" stroke="#E9EEF4" stroke-width="1.00063"/>
<path d="M687.024 277.643C540.548 276.114 455.592 203.576 432.156 60.0286" stroke="#E9EEF4" stroke-width="1.00063"/>
<path d="M687.024 277.643C543.689 276.414 489.87 206.889 525.568 69.0696" stroke="#E9EEF4" stroke-width="1.00063"/>
<path d="M687.024 277.643C544.444 276.714 498.417 210.053 548.944 77.6607" stroke="#E9EEF4" stroke-width="1.00063"/>
<path d="M687.023 277.643C545.198 277.073 506.601 214.116 571.232 88.7708" stroke="#E9EEF4" stroke-width="1.00063"/>
<path d="M687.024 277.643C545.894 277.523 514.273 219.034 592.162 102.175" stroke="#E9EEF4" stroke-width="1.00063"/>
<path d="M687.023 277.643C546.497 278.003 520.932 224.372 610.327 116.749" stroke="#E9EEF4" stroke-width="1.00063"/>
<path d="M598.536 102.305C598.535 104.014 597.852 105.653 596.634 106.861C595.417 108.07 593.766 108.749 592.045 108.749C590.324 108.749 588.673 108.07 587.456 106.861C586.238 105.653 585.555 104.014 585.555 102.304C585.555 100.595 586.238 98.9562 587.456 97.7477C588.673 96.5391 590.324 95.8602 592.045 95.8601C593.766 95.8601 595.417 96.539 596.634 97.7474C597.852 98.9559 598.535 100.596 598.536 102.305Z" fill="#E9EEF4"/>
<path d="M615.674 116.845C615.674 118.28 615.1 119.656 614.078 120.67C613.056 121.685 611.67 122.255 610.225 122.254C608.78 122.254 607.394 121.684 606.372 120.67C605.35 119.655 604.776 118.279 604.776 116.844C604.776 115.41 605.35 114.034 606.372 113.019C607.394 112.004 608.78 111.434 610.225 111.434C611.67 111.434 613.056 112.004 614.078 113.019C615.1 114.033 615.674 115.41 615.674 116.845Z" fill="#E9EEF4"/>
<path d="M623.667 128.987C623.667 129.187 623.587 129.379 623.445 129.52C623.302 129.662 623.109 129.741 622.908 129.741C622.706 129.741 622.513 129.662 622.371 129.52C622.228 129.379 622.148 129.187 622.148 128.987C622.148 128.787 622.228 128.595 622.371 128.454C622.513 128.312 622.706 128.233 622.908 128.233C623.109 128.233 623.302 128.312 623.445 128.453C623.587 128.595 623.667 128.787 623.667 128.987Z" fill="#E9EEF4"/>
<path d="M640.067 142.057C640.067 143.492 639.492 144.868 638.471 145.882C637.449 146.897 636.063 147.467 634.618 147.467C633.173 147.467 631.787 146.897 630.765 145.882C629.743 144.868 629.169 143.492 629.169 142.057C629.169 140.622 629.743 139.246 630.765 138.231C631.787 137.217 633.173 136.647 634.618 136.647C636.063 136.647 637.449 137.217 638.471 138.231C639.492 139.246 640.067 140.622 640.067 142.057Z" fill="#E9EEF4"/>
<path d="M653.389 159.817C653.389 161.252 652.815 162.628 651.793 163.642C650.771 164.657 649.385 165.227 647.94 165.227C646.495 165.227 645.109 164.657 644.088 163.642C643.066 162.628 642.492 161.251 642.492 159.817C642.492 158.382 643.066 157.006 644.088 155.991C645.109 154.977 646.495 154.407 647.94 154.407C649.385 154.407 650.771 154.976 651.793 155.991C652.815 157.006 653.389 158.382 653.389 159.817Z" fill="#E9EEF4"/>
<path d="M664.916 178.775C664.916 180.21 664.342 181.586 663.32 182.6C662.298 183.615 660.912 184.185 659.467 184.185C658.022 184.185 656.636 183.615 655.614 182.6C654.592 181.585 654.018 180.209 654.018 178.775C654.018 177.34 654.592 175.964 655.614 174.949C656.636 173.935 658.022 173.365 659.467 173.365C660.912 173.364 662.298 173.934 663.32 174.949C664.342 175.963 664.916 177.34 664.916 178.775Z" fill="#E9EEF4"/>
<path d="M673.816 198.275C673.816 199.573 673.297 200.818 672.373 201.735C671.449 202.653 670.195 203.168 668.888 203.168C667.581 203.168 666.328 202.653 665.404 201.735C664.48 200.817 663.96 199.573 663.96 198.275C663.96 196.977 664.48 195.733 665.404 194.815C666.328 193.898 667.581 193.382 668.888 193.382C670.195 193.382 671.449 193.898 672.373 194.815C673.297 195.733 673.816 196.978 673.816 198.275Z" fill="#E9EEF4"/>
<path d="M677.088 215.128C677.088 215.602 676.898 216.057 676.56 216.393C676.222 216.728 675.764 216.917 675.286 216.917C674.808 216.917 674.35 216.728 674.012 216.393C673.674 216.057 673.484 215.602 673.484 215.128C673.484 214.653 673.674 214.198 674.012 213.863C674.35 213.527 674.808 213.339 675.286 213.339C675.764 213.339 676.222 213.527 676.56 213.863C676.898 214.198 677.088 214.653 677.088 215.128Z" fill="#E9EEF4"/>
<path d="M680.705 228.919C680.705 229.257 680.57 229.58 680.329 229.819C680.089 230.057 679.763 230.191 679.424 230.191C679.084 230.191 678.758 230.057 678.518 229.819C678.278 229.58 678.143 229.257 678.143 228.919C678.143 228.582 678.278 228.259 678.518 228.02C678.758 227.781 679.084 227.647 679.424 227.647C679.763 227.647 680.089 227.781 680.329 228.02C680.57 228.258 680.705 228.582 680.705 228.919Z" fill="#E9EEF4"/>
<path d="M683.857 242.435C683.857 242.773 683.722 243.096 683.482 243.335C683.242 243.573 682.916 243.707 682.576 243.707C682.237 243.707 681.911 243.573 681.671 243.335C681.43 243.096 681.295 242.773 681.295 242.435C681.295 242.098 681.43 241.774 681.671 241.536C681.911 241.297 682.237 241.163 682.576 241.163C682.916 241.163 683.242 241.297 683.482 241.536C683.722 241.774 683.857 242.098 683.857 242.435Z" fill="#E9EEF4"/>
<path d="M689.122 258.681C689.122 259.704 688.713 260.685 687.984 261.409C687.255 262.132 686.267 262.539 685.236 262.539C684.206 262.539 683.218 262.132 682.489 261.409C681.76 260.685 681.351 259.704 681.351 258.681C681.351 257.658 681.76 256.676 682.489 255.953C683.218 255.229 684.206 254.823 685.236 254.823C686.267 254.823 687.255 255.229 687.984 255.953C688.713 256.676 689.122 257.658 689.122 258.681Z" fill="#E9EEF4"/>
<path d="M690.721 277.658C690.721 278.681 690.312 279.663 689.583 280.386C688.854 281.11 687.866 281.516 686.835 281.516C685.805 281.516 684.816 281.109 684.088 280.386C683.359 279.662 682.95 278.681 682.95 277.658C682.95 276.635 683.359 275.653 684.088 274.93C684.816 274.206 685.805 273.8 686.835 273.8C687.866 273.8 688.854 274.206 689.583 274.93C690.312 275.653 690.721 276.635 690.721 277.658Z" fill="#E9EEF4"/>
</svg>
