<svg xmlns="http://www.w3.org/2000/svg" width="16" height="17" viewBox="0 0 16 17" fill="none">
  <mask id="mask0_20528_4269" style="mask-type:alpha" maskUnits="userSpaceOnUse" x="0" y="0" width="16" height="17">
    <rect y="0.5" width="16" height="16" fill="#D9D9D9"/>
  </mask>
  <g mask="url(#mask0_20528_4269)">
    <path d="M10.2007 11.6334L11.134 10.7L8.66732 8.23337V5.16671H7.33398V8.76671L10.2007 11.6334ZM8.00065 15.1667C7.07843 15.1667 6.21176 14.9917 5.40065 14.6417C4.58954 14.2917 3.88398 13.8167 3.28398 13.2167C2.68398 12.6167 2.20898 11.9112 1.85898 11.1C1.50898 10.2889 1.33398 9.42226 1.33398 8.50004C1.33398 7.57782 1.50898 6.71115 1.85898 5.90004C2.20898 5.08893 2.68398 4.38337 3.28398 3.78337C3.88398 3.18337 4.58954 2.70837 5.40065 2.35837C6.21176 2.00837 7.07843 1.83337 8.00065 1.83337C8.92287 1.83337 9.78954 2.00837 10.6007 2.35837C11.4118 2.70837 12.1173 3.18337 12.7173 3.78337C13.3173 4.38337 13.7923 5.08893 14.1423 5.90004C14.4923 6.71115 14.6673 7.57782 14.6673 8.50004C14.6673 9.42226 14.4923 10.2889 14.1423 11.1C13.7923 11.9112 13.3173 12.6167 12.7173 13.2167C12.1173 13.8167 11.4118 14.2917 10.6007 14.6417C9.78954 14.9917 8.92287 15.1667 8.00065 15.1667ZM8.00065 13.8334C9.47843 13.8334 10.7368 13.3139 11.7757 12.275C12.8145 11.2362 13.334 9.97782 13.334 8.50004C13.334 7.02226 12.8145 5.76393 11.7757 4.72504C10.7368 3.68615 9.47843 3.16671 8.00065 3.16671C6.52287 3.16671 5.26454 3.68615 4.22565 4.72504C3.18676 5.76393 2.66732 7.02226 2.66732 8.50004C2.66732 9.97782 3.18676 11.2362 4.22565 12.275C5.26454 13.3139 6.52287 13.8334 8.00065 13.8334Z" fill="#868E96"/>
  </g>
</svg>