<svg width="914" height="521" viewBox="0 0 914 521" fill="none" xmlns="http://www.w3.org/2000/svg">
<g clip-path="url(#clip0_15045_56157)">
<path d="M0 2.20898C0 1.10441 0.895431 0.208984 2 0.208984H63V24.209H2C0.89543 24.209 0 23.3136 0 22.209V2.20898Z" fill="#DFE3E6"/>
<path d="M17.3026 15.209V6.80898H18.2026V14.381H22.1026V15.209H17.3026ZM26.0263 15.341C24.5023 15.341 23.2543 14.117 23.2543 12.137V12.077C23.2543 10.169 24.3703 8.83698 25.8343 8.83698C27.4063 8.83698 28.3423 10.181 28.3423 12.065C28.3423 12.149 28.3423 12.317 28.3303 12.425H24.1303C24.2263 13.805 25.0783 14.573 26.0623 14.573C26.7463 14.573 27.2503 14.285 27.6823 13.853L28.1743 14.405C27.6103 14.981 26.9623 15.341 26.0263 15.341ZM24.1303 11.753H27.4783C27.4183 10.565 26.8543 9.59298 25.8343 9.59298C24.9103 9.59298 24.2143 10.445 24.1303 11.753ZM31.5515 15.257L29.2475 8.95698H30.1835L31.9355 14.093L33.7115 8.95698H34.6235L32.3315 15.257H31.5515ZM38.2908 15.341C36.7668 15.341 35.5188 14.117 35.5188 12.137V12.077C35.5188 10.169 36.6348 8.83698 38.0988 8.83698C39.6708 8.83698 40.6068 10.181 40.6068 12.065C40.6068 12.149 40.6068 12.317 40.5948 12.425H36.3948C36.4908 13.805 37.3428 14.573 38.3268 14.573C39.0108 14.573 39.5148 14.285 39.9468 13.853L40.4388 14.405C39.8748 14.981 39.2268 15.341 38.2908 15.341ZM36.3948 11.753H39.7428C39.6828 10.565 39.1188 9.59298 38.0988 9.59298C37.1748 9.59298 36.4788 10.445 36.3948 11.753ZM42.3696 15.209V6.54498H43.2336V15.209H42.3696ZM49.7445 15.209V7.72098L48.3765 8.20098L48.2205 7.42098L49.9605 6.76098H50.6325V15.209H49.7445Z" fill="black"/>
<path d="M63 0.208984H65.6389L71 12.209L65.6389 24.209H63L63 0.208984Z" fill="#DFE3E6"/>
</g>
<rect x="863.25" y="48.459" width="24.5" height="13.5" rx="2.75" stroke="black" stroke-width="0.5"/>
<path d="M894.008 59.209V50.809H894.86L899.252 57.421V50.809H900.14V59.209H899.384L894.884 52.441V59.209H894.008ZM900.953 60.637L905.633 49.741H906.413L901.745 60.637H900.953ZM905.607 59.209L908.811 50.761H909.699L912.903 59.209H911.943L911.127 57.001H907.347L906.531 59.209H905.607ZM907.647 56.185H910.827L909.243 51.925L907.647 56.185Z" fill="#495057"/>
<rect x="0.5" y="86.709" width="913" height="433" stroke="white"/>
<path d="M691.468 358.143L637.78 352.472" stroke="#EBEBEB" stroke-opacity="0.5" stroke-width="0.999636"/>
<path d="M568.078 360.222L637.78 352.473" stroke="#EBEBEB" stroke-opacity="0.5" stroke-width="0.999636"/>
<path d="M571.67 333.099L637.78 352.472" stroke="#EBEBEB" stroke-opacity="0.5" stroke-width="0.999636"/>
<path d="M571.671 333.099L568.078 360.222" stroke="#EBEBEB" stroke-opacity="0.5" stroke-width="0.999636"/>
<path d="M672.271 292.083L637.78 352.472" stroke="#EBEBEB" stroke-opacity="0.5" stroke-width="0.999636"/>
<path d="M666.42 411.349L637.78 352.472" stroke="#EBEBEB" stroke-opacity="0.5" stroke-width="0.999636"/>
<path d="M695.677 310.89L637.78 352.472" stroke="#EBEBEB" stroke-opacity="0.5" stroke-width="0.999636"/>
<path d="M695.369 401.71L637.78 352.472" stroke="#EBEBEB" stroke-opacity="0.5" stroke-width="0.999636"/>
<path d="M717.234 334.327L637.78 352.472" stroke="#EBEBEB" stroke-opacity="0.5" stroke-width="0.999636"/>
<path d="M719.184 376.099L637.78 352.473" stroke="#EBEBEB" stroke-opacity="0.5" stroke-width="0.999636"/>
<path d="M430.827 346.33L637.778 352.472" stroke="#EBEBEB" stroke-opacity="0.5" stroke-width="0.999636"/>
<path d="M430.827 346.33L568.076 360.222" stroke="#EBEBEB" stroke-opacity="0.5" stroke-width="0.999636"/>
<path d="M430.827 346.33L571.669 333.099" stroke="#EBEBEB" stroke-opacity="0.5" stroke-width="0.999636"/>
<path d="M430.827 346.33L497.758 267.89" stroke="#EBEBEB" stroke-opacity="0.5" stroke-width="0.999636"/>
<path d="M427.03 436.582L430.828 346.329" stroke="#EBEBEB" stroke-opacity="0.5" stroke-width="0.999636"/>
<path d="M513.464 300.872L430.827 346.33" stroke="#EBEBEB" stroke-opacity="0.5" stroke-width="0.999636"/>
<path d="M544.568 296.147L430.827 346.33" stroke="#EBEBEB" stroke-opacity="0.5" stroke-width="0.999636"/>
<path d="M531.634 262.692L430.827 346.33" stroke="#EBEBEB" stroke-opacity="0.5" stroke-width="0.999636"/>
<path d="M340.492 486.197L318.832 443.386" stroke="#EBEBEB" stroke-opacity="0.5" stroke-width="0.999636"/>
<path d="M303.434 477.787L318.832 443.387" stroke="#EBEBEB" stroke-opacity="0.5" stroke-width="0.999636"/>
<path d="M303.434 477.786L340.493 486.197" stroke="#EBEBEB" stroke-opacity="0.5" stroke-width="0.999636"/>
<path d="M319.653 492.624L318.832 443.387" stroke="#EBEBEB" stroke-opacity="0.5" stroke-width="0.999636"/>
<path d="M319.654 492.624L340.493 486.198" stroke="#EBEBEB" stroke-opacity="0.5" stroke-width="0.999636"/>
<path d="M319.654 492.624L303.434 477.787" stroke="#EBEBEB" stroke-opacity="0.5" stroke-width="0.999636"/>
<path d="M340.697 509.351L318.832 443.387" stroke="#EBEBEB" stroke-opacity="0.5" stroke-width="0.999636"/>
<path d="M340.595 509.351L340.595 486.198" stroke="#EBEBEB" stroke-opacity="0.5" stroke-width="0.999636"/>
<path d="M340.698 509.351L303.434 477.787" stroke="#EBEBEB" stroke-opacity="0.5" stroke-width="0.999636"/>
<path d="M340.698 509.351L319.654 492.624" stroke="#EBEBEB" stroke-opacity="0.5" stroke-width="0.999636"/>
<path d="M293.887 498.956L318.832 443.387" stroke="#EBEBEB" stroke-opacity="0.5" stroke-width="0.999636"/>
<path d="M293.887 498.956L340.492 486.198" stroke="#EBEBEB" stroke-opacity="0.5" stroke-width="0.999636"/>
<path d="M293.887 498.956L303.434 477.787" stroke="#EBEBEB" stroke-opacity="0.5" stroke-width="0.999636"/>
<path d="M293.887 498.956L319.653 492.624" stroke="#EBEBEB" stroke-opacity="0.5" stroke-width="0.999636"/>
<path d="M293.887 498.956L340.697 509.351" stroke="#EBEBEB" stroke-opacity="0.5" stroke-width="0.999636"/>
<path d="M314.727 516.251L318.833 443.387" stroke="#EBEBEB" stroke-opacity="0.5" stroke-width="0.999636"/>
<path d="M314.727 516.251L340.493 486.198" stroke="#EBEBEB" stroke-opacity="0.5" stroke-width="0.999636"/>
<path d="M314.726 516.251L303.434 477.787" stroke="#EBEBEB" stroke-opacity="0.5" stroke-width="0.999636"/>
<path d="M314.727 516.251L319.654 492.624" stroke="#EBEBEB" stroke-opacity="0.5" stroke-width="0.999636"/>
<path d="M314.727 516.251L340.698 509.352" stroke="#EBEBEB" stroke-opacity="0.5" stroke-width="0.999636"/>
<path d="M314.726 516.251L293.887 498.956" stroke="#EBEBEB" stroke-opacity="0.5" stroke-width="0.999636"/>
<path d="M365.232 436.488L430.828 346.329" stroke="#EBEBEB" stroke-opacity="0.5" stroke-width="0.999636"/>
<path d="M365.232 436.393L427.03 436.393" stroke="#EBEBEB" stroke-opacity="0.5" stroke-width="0.999636"/>
<path d="M365.232 436.488L318.832 443.387" stroke="#EBEBEB" stroke-opacity="0.5" stroke-width="0.999636"/>
<path d="M365.232 436.487L340.492 486.197" stroke="#EBEBEB" stroke-opacity="0.5" stroke-width="0.999636"/>
<path d="M365.232 436.488L303.434 477.787" stroke="#EBEBEB" stroke-opacity="0.5" stroke-width="0.999636"/>
<path d="M365.232 436.488L319.654 492.624" stroke="#EBEBEB" stroke-opacity="0.5" stroke-width="0.999636"/>
<path d="M365.232 436.488L340.697 509.351" stroke="#EBEBEB" stroke-opacity="0.5" stroke-width="0.999636"/>
<path d="M365.232 436.488L293.887 498.956" stroke="#EBEBEB" stroke-opacity="0.5" stroke-width="0.999636"/>
<path d="M365.232 436.488L314.727 516.251" stroke="#EBEBEB" stroke-opacity="0.5" stroke-width="0.999636"/>
<path d="M361.537 349.637L430.828 346.329" stroke="#EBEBEB" stroke-opacity="0.5" stroke-width="0.999636"/>
<path d="M361.537 349.637L365.232 436.488" stroke="#EBEBEB" stroke-opacity="0.5" stroke-width="0.999636"/>
<path d="M350.348 317.789L430.829 346.33" stroke="#EBEBEB" stroke-opacity="0.5" stroke-width="0.999636"/>
<path d="M350.348 317.789L365.233 436.488" stroke="#EBEBEB" stroke-opacity="0.5" stroke-width="0.999636"/>
<path d="M350.348 317.789L361.537 349.637" stroke="#EBEBEB" stroke-opacity="0.5" stroke-width="0.999636"/>
<path d="M345.215 370.806L430.829 346.329" stroke="#EBEBEB" stroke-opacity="0.5" stroke-width="0.999636"/>
<path d="M345.214 370.806L318.832 443.387" stroke="#EBEBEB" stroke-opacity="0.5" stroke-width="0.999636"/>
<path d="M345.215 370.806L361.537 349.637" stroke="#EBEBEB" stroke-opacity="0.5" stroke-width="0.999636"/>
<path d="M345.215 370.806L350.348 317.789" stroke="#EBEBEB" stroke-opacity="0.5" stroke-width="0.999636"/>
<path d="M404.857 344.439L430.828 346.33" stroke="#EBEBEB" stroke-opacity="0.5" stroke-width="0.999636"/>
<path d="M404.856 344.439L365.232 436.488" stroke="#EBEBEB" stroke-opacity="0.5" stroke-width="0.999636"/>
<path d="M404.857 344.439L361.537 349.637" stroke="#EBEBEB" stroke-opacity="0.5" stroke-width="0.999636"/>
<path d="M404.857 344.439L350.348 317.788" stroke="#EBEBEB" stroke-opacity="0.5" stroke-width="0.999636"/>
<path d="M404.857 344.439L345.215 370.806" stroke="#EBEBEB" stroke-opacity="0.5" stroke-width="0.999636"/>
<path d="M503.301 386.778L430.827 346.329" stroke="#EBEBEB" stroke-opacity="0.5" stroke-width="0.999636"/>
<path d="M503.302 386.778L404.857 344.439" stroke="#EBEBEB" stroke-opacity="0.5" stroke-width="0.999636"/>
<path d="M450.845 412.956L430.827 346.329" stroke="#EBEBEB" stroke-opacity="0.5" stroke-width="0.999636"/>
<path d="M450.845 412.956L365.232 436.488" stroke="#EBEBEB" stroke-opacity="0.5" stroke-width="0.999636"/>
<path d="M450.846 412.956L404.857 344.439" stroke="#EBEBEB" stroke-opacity="0.5" stroke-width="0.999636"/>
<path d="M400.647 493.475L365.232 436.488" stroke="#EBEBEB" stroke-opacity="0.5" stroke-width="0.999636"/>
<path d="M405.575 427.131L430.828 346.329" stroke="#EBEBEB" stroke-opacity="0.5" stroke-width="0.999636"/>
<path d="M405.575 427.132L365.232 436.488" stroke="#EBEBEB" stroke-opacity="0.5" stroke-width="0.999636"/>
<path d="M405.575 427.131L404.857 344.439" stroke="#EBEBEB" stroke-opacity="0.5" stroke-width="0.999636"/>
<path d="M405.575 427.132L400.648 493.475" stroke="#EBEBEB" stroke-opacity="0.5" stroke-width="0.999636"/>
<path d="M523.114 339.431L430.827 346.33" stroke="#EBEBEB" stroke-opacity="0.5" stroke-width="0.999636"/>
<path d="M474.969 332.626L430.827 346.33" stroke="#EBEBEB" stroke-opacity="0.5" stroke-width="0.999636"/>
<path d="M474.97 332.626L404.857 344.439" stroke="#EBEBEB" stroke-opacity="0.5" stroke-width="0.999636"/>
<path d="M479.691 414.279L430.827 346.329" stroke="#EBEBEB" stroke-opacity="0.5" stroke-width="0.999636"/>
<path d="M479.692 414.279L450.846 412.956" stroke="#EBEBEB" stroke-opacity="0.5" stroke-width="0.999636"/>
<path d="M502.275 412.011L430.827 346.33" stroke="#EBEBEB" stroke-opacity="0.5" stroke-width="0.999636"/>
<path d="M502.276 412.011L450.846 412.956" stroke="#EBEBEB" stroke-opacity="0.5" stroke-width="0.999636"/>
<path d="M502.275 412.011L479.692 414.279" stroke="#EBEBEB" stroke-opacity="0.5" stroke-width="0.999636"/>
<path d="M470.041 440.835L430.827 346.33" stroke="#EBEBEB" stroke-opacity="0.5" stroke-width="0.999636"/>
<path d="M470.042 440.835L450.846 412.956" stroke="#EBEBEB" stroke-opacity="0.5" stroke-width="0.999636"/>
<path d="M470.042 440.835L479.691 414.279" stroke="#EBEBEB" stroke-opacity="0.5" stroke-width="0.999636"/>
<path d="M470.042 440.835L502.275 412.011" stroke="#EBEBEB" stroke-opacity="0.5" stroke-width="0.999636"/>
<path d="M507.921 434.503L430.827 346.329" stroke="#EBEBEB" stroke-opacity="0.5" stroke-width="0.999636"/>
<path d="M507.922 434.503L450.846 412.956" stroke="#EBEBEB" stroke-opacity="0.5" stroke-width="0.999636"/>
<path d="M507.921 434.503L479.692 414.279" stroke="#EBEBEB" stroke-opacity="0.5" stroke-width="0.999636"/>
<path d="M507.921 434.503L502.275 412.011" stroke="#EBEBEB" stroke-opacity="0.5" stroke-width="0.999636"/>
<path d="M507.921 434.503L470.042 440.835" stroke="#EBEBEB" stroke-opacity="0.5" stroke-width="0.999636"/>
<path d="M490.47 451.798L430.827 346.329" stroke="#EBEBEB" stroke-opacity="0.5" stroke-width="0.999636"/>
<path d="M490.471 451.798L450.846 412.956" stroke="#EBEBEB" stroke-opacity="0.5" stroke-width="0.999636"/>
<path d="M490.47 451.798L479.692 414.279" stroke="#EBEBEB" stroke-opacity="0.5" stroke-width="0.999636"/>
<path d="M490.47 451.798L502.275 412.011" stroke="#EBEBEB" stroke-opacity="0.5" stroke-width="0.999636"/>
<path d="M490.47 451.798L470.042 440.835" stroke="#EBEBEB" stroke-opacity="0.5" stroke-width="0.999636"/>
<path d="M490.47 451.798L507.921 434.503" stroke="#EBEBEB" stroke-opacity="0.5" stroke-width="0.999636"/>
<path d="M250.978 316.654L350.347 317.788" stroke="#EBEBEB" stroke-opacity="0.5" stroke-width="0.999636"/>
<path d="M232.5 286.318L350.347 317.788" stroke="#EBEBEB" stroke-opacity="0.5" stroke-width="0.999636"/>
<path d="M350.758 286.885L361.537 349.637" stroke="#EBEBEB" stroke-opacity="0.5" stroke-width="0.999636"/>
<path d="M350.758 286.885L350.348 317.788" stroke="#EBEBEB" stroke-opacity="0.5" stroke-width="0.999636"/>
<path d="M304.358 320.435L361.536 349.637" stroke="#EBEBEB" stroke-opacity="0.5" stroke-width="0.999636"/>
<path d="M304.358 320.435L350.347 317.789" stroke="#EBEBEB" stroke-opacity="0.5" stroke-width="0.999636"/>
<path d="M304.358 320.435L350.757 286.885" stroke="#EBEBEB" stroke-opacity="0.5" stroke-width="0.999636"/>
<path d="M410.913 390.652L430.828 346.329" stroke="#EBEBEB" stroke-opacity="0.5" stroke-width="0.999636"/>
<path d="M410.914 390.652L345.215 370.806" stroke="#EBEBEB" stroke-opacity="0.5" stroke-width="0.999636"/>
<path d="M410.913 390.652L404.857 344.439" stroke="#EBEBEB" stroke-opacity="0.5" stroke-width="0.999636"/>
<path d="M540.77 396.039L430.827 346.329" stroke="#EBEBEB" stroke-opacity="0.5" stroke-width="0.999636"/>
<path d="M540.771 396.039L503.302 386.778" stroke="#EBEBEB" stroke-opacity="0.5" stroke-width="0.999636"/>
<path d="M569.309 457.563L503.302 386.778" stroke="#EBEBEB" stroke-opacity="0.5" stroke-width="0.999636"/>
<path d="M460.393 143.52L502.379 90.2193" stroke="#EBEBEB" stroke-opacity="0.5" stroke-width="0.999636"/>
<path d="M377.859 234.151L430.828 346.33" stroke="#EBEBEB" stroke-opacity="0.5" stroke-width="0.999636"/>
<path d="M377.859 234.151L350.348 317.788" stroke="#EBEBEB" stroke-opacity="0.5" stroke-width="0.999636"/>
<path d="M377.859 234.151L404.857 344.439" stroke="#EBEBEB" stroke-opacity="0.5" stroke-width="0.999636"/>
<path d="M377.859 234.151L460.393 143.52" stroke="#EBEBEB" stroke-opacity="0.5" stroke-width="0.999636"/>
<path d="M312.981 358.71L430.829 346.33" stroke="#EBEBEB" stroke-opacity="0.5" stroke-width="0.999636"/>
<path d="M312.981 358.71L345.215 370.806" stroke="#EBEBEB" stroke-opacity="0.5" stroke-width="0.999636"/>
<path d="M286.907 401.237L361.536 349.637" stroke="#EBEBEB" stroke-opacity="0.5" stroke-width="0.999636"/>
<path d="M286.907 401.237L312.981 358.71" stroke="#EBEBEB" stroke-opacity="0.5" stroke-width="0.999636"/>
<path d="M282.288 372.885L430.828 346.329" stroke="#EBEBEB" stroke-opacity="0.5" stroke-width="0.999636"/>
<path d="M282.288 372.885L345.215 370.806" stroke="#EBEBEB" stroke-opacity="0.5" stroke-width="0.999636"/>
<path d="M282.288 372.885L312.981 358.71" stroke="#EBEBEB" stroke-opacity="0.5" stroke-width="0.999636"/>
<path d="M201.499 357.67L250.978 316.655" stroke="#EBEBEB" stroke-opacity="0.5" stroke-width="0.999636"/>
<path d="M201.499 357.67L282.288 372.885" stroke="#EBEBEB" stroke-opacity="0.5" stroke-width="0.999636"/>
<path d="M195.237 413.239L282.288 372.885" stroke="#EBEBEB" stroke-opacity="0.5" stroke-width="0.999636"/>
<path d="M276.333 347.841L345.214 370.806" stroke="#EBEBEB" stroke-opacity="0.5" stroke-width="0.999636"/>
<path d="M276.333 347.842L312.98 358.71" stroke="#EBEBEB" stroke-opacity="0.5" stroke-width="0.999636"/>
<path d="M276.333 347.841L282.287 372.885" stroke="#EBEBEB" stroke-opacity="0.5" stroke-width="0.999636"/>
<path d="M316.472 290.949L430.829 346.33" stroke="#EBEBEB" stroke-opacity="0.5" stroke-width="0.999636"/>
<path d="M316.472 290.949L318.833 443.387" stroke="#EBEBEB" stroke-opacity="0.5" stroke-width="0.999636"/>
<path d="M316.472 290.949L350.348 317.788" stroke="#EBEBEB" stroke-opacity="0.5" stroke-width="0.999636"/>
<path d="M316.472 290.949L345.215 370.806" stroke="#EBEBEB" stroke-opacity="0.5" stroke-width="0.999636"/>
<path d="M316.471 290.949L250.978 316.655" stroke="#EBEBEB" stroke-opacity="0.5" stroke-width="0.999636"/>
<path d="M316.472 290.949L350.758 286.886" stroke="#EBEBEB" stroke-opacity="0.5" stroke-width="0.999636"/>
<path d="M316.472 290.949L377.859 234.152" stroke="#EBEBEB" stroke-opacity="0.5" stroke-width="0.999636"/>
<path d="M316.472 290.949L312.981 358.71" stroke="#EBEBEB" stroke-opacity="0.5" stroke-width="0.999636"/>
<path d="M316.471 290.949L282.288 372.885" stroke="#EBEBEB" stroke-opacity="0.5" stroke-width="0.999636"/>
<path d="M316.471 290.949L276.333 347.842" stroke="#EBEBEB" stroke-opacity="0.5" stroke-width="0.999636"/>
<path d="M242.047 340.754L312.981 358.71" stroke="#EBEBEB" stroke-opacity="0.5" stroke-width="0.999636"/>
<path d="M242.047 340.754L316.472 290.949" stroke="#EBEBEB" stroke-opacity="0.5" stroke-width="0.999636"/>
<path d="M293.169 240.767L350.758 286.886" stroke="#EBEBEB" stroke-opacity="0.5" stroke-width="0.999636"/>
<path d="M293.169 240.766L377.858 234.151" stroke="#EBEBEB" stroke-opacity="0.5" stroke-width="0.999636"/>
<path d="M293.169 240.767L316.471 290.949" stroke="#EBEBEB" stroke-opacity="0.5" stroke-width="0.999636"/>
<path d="M351.784 256.644L430.828 346.33" stroke="#EBEBEB" stroke-opacity="0.5" stroke-width="0.999636"/>
<path d="M351.784 256.643L404.856 344.439" stroke="#EBEBEB" stroke-opacity="0.5" stroke-width="0.999636"/>
<path d="M351.784 256.643L377.858 234.151" stroke="#EBEBEB" stroke-opacity="0.5" stroke-width="0.999636"/>
<path d="M351.785 256.644L316.472 290.949" stroke="#EBEBEB" stroke-opacity="0.5" stroke-width="0.999636"/>
<path d="M351.784 256.643L293.169 240.766" stroke="#EBEBEB" stroke-opacity="0.5" stroke-width="0.999636"/>
<path d="M341.108 220.448L377.858 234.151" stroke="#EBEBEB" stroke-opacity="0.5" stroke-width="0.999636"/>
<path d="M341.109 220.448L316.472 290.949" stroke="#EBEBEB" stroke-opacity="0.5" stroke-width="0.999636"/>
<path d="M341.108 220.448L293.169 240.766" stroke="#EBEBEB" stroke-opacity="0.5" stroke-width="0.999636"/>
<path d="M341.108 220.448L351.784 256.643" stroke="#EBEBEB" stroke-opacity="0.5" stroke-width="0.999636"/>
<path d="M341.417 196.254L377.859 234.151" stroke="#EBEBEB" stroke-opacity="0.5" stroke-width="0.999636"/>
<path d="M341.417 196.254L351.785 256.643" stroke="#EBEBEB" stroke-opacity="0.5" stroke-width="0.999636"/>
<path d="M341.416 196.255L341.108 220.448" stroke="#EBEBEB" stroke-opacity="0.5" stroke-width="0.999636"/>
<path d="M312.878 233.584L377.858 234.151" stroke="#EBEBEB" stroke-opacity="0.5" stroke-width="0.999636"/>
<path d="M312.878 233.585L316.471 290.949" stroke="#EBEBEB" stroke-opacity="0.5" stroke-width="0.999636"/>
<path d="M312.878 233.584L293.169 240.766" stroke="#EBEBEB" stroke-opacity="0.5" stroke-width="0.999636"/>
<path d="M312.878 233.584L351.784 256.643" stroke="#EBEBEB" stroke-opacity="0.5" stroke-width="0.999636"/>
<path d="M312.878 233.584L341.108 220.448" stroke="#EBEBEB" stroke-opacity="0.5" stroke-width="0.999636"/>
<path d="M312.878 233.584L341.416 196.254" stroke="#EBEBEB" stroke-opacity="0.5" stroke-width="0.999636"/>
<path d="M329.508 236.703L350.758 286.886" stroke="#EBEBEB" stroke-opacity="0.5" stroke-width="0.999636"/>
<path d="M329.508 236.703L377.858 234.151" stroke="#EBEBEB" stroke-opacity="0.5" stroke-width="0.999636"/>
<path d="M329.509 236.703L316.472 290.949" stroke="#EBEBEB" stroke-opacity="0.5" stroke-width="0.999636"/>
<path d="M329.508 236.703L293.169 240.766" stroke="#EBEBEB" stroke-opacity="0.5" stroke-width="0.999636"/>
<path d="M329.508 236.703L351.784 256.643" stroke="#EBEBEB" stroke-opacity="0.5" stroke-width="0.999636"/>
<path d="M329.508 236.703L341.108 220.448" stroke="#EBEBEB" stroke-opacity="0.5" stroke-width="0.999636"/>
<path d="M329.508 236.703L341.416 196.254" stroke="#EBEBEB" stroke-opacity="0.5" stroke-width="0.999636"/>
<path d="M329.508 236.703L312.878 233.584" stroke="#EBEBEB" stroke-opacity="0.5" stroke-width="0.999636"/>
<path d="M305.59 214.494L377.858 234.151" stroke="#EBEBEB" stroke-opacity="0.5" stroke-width="0.999636"/>
<path d="M305.59 214.494L316.471 290.949" stroke="#EBEBEB" stroke-opacity="0.5" stroke-width="0.999636"/>
<path d="M305.59 214.494L293.169 240.766" stroke="#EBEBEB" stroke-opacity="0.5" stroke-width="0.999636"/>
<path d="M305.59 214.494L351.784 256.643" stroke="#EBEBEB" stroke-opacity="0.5" stroke-width="0.999636"/>
<path d="M305.59 214.494L341.108 220.448" stroke="#EBEBEB" stroke-opacity="0.5" stroke-width="0.999636"/>
<path d="M305.59 214.494L341.416 196.254" stroke="#EBEBEB" stroke-opacity="0.5" stroke-width="0.999636"/>
<path d="M305.59 214.494L312.878 233.584" stroke="#EBEBEB" stroke-opacity="0.5" stroke-width="0.999636"/>
<path d="M305.59 214.494L329.508 236.703" stroke="#EBEBEB" stroke-opacity="0.5" stroke-width="0.999636"/>
<path d="M351.989 238.593L430.828 346.33" stroke="#EBEBEB" stroke-opacity="0.5" stroke-width="0.999636"/>
<path d="M351.99 238.593L377.858 234.152" stroke="#EBEBEB" stroke-opacity="0.5" stroke-width="0.999636"/>
<path d="M351.99 238.593L316.472 290.949" stroke="#EBEBEB" stroke-opacity="0.5" stroke-width="0.999636"/>
<path d="M351.989 238.593L293.169 240.766" stroke="#EBEBEB" stroke-opacity="0.5" stroke-width="0.999636"/>
<path d="M351.887 238.593L351.887 256.643" stroke="#EBEBEB" stroke-opacity="0.5" stroke-width="0.999636"/>
<path d="M351.989 238.593L341.108 220.448" stroke="#EBEBEB" stroke-opacity="0.5" stroke-width="0.999636"/>
<path d="M351.99 238.593L341.417 196.255" stroke="#EBEBEB" stroke-opacity="0.5" stroke-width="0.999636"/>
<path d="M351.989 238.593L312.878 233.585" stroke="#EBEBEB" stroke-opacity="0.5" stroke-width="0.999636"/>
<path d="M351.989 238.593L329.508 236.703" stroke="#EBEBEB" stroke-opacity="0.5" stroke-width="0.999636"/>
<path d="M351.99 238.593L305.59 214.494" stroke="#EBEBEB" stroke-opacity="0.5" stroke-width="0.999636"/>
<path d="M320.783 208.446L377.859 234.151" stroke="#EBEBEB" stroke-opacity="0.5" stroke-width="0.999636"/>
<path d="M320.783 208.446L316.472 290.949" stroke="#EBEBEB" stroke-opacity="0.5" stroke-width="0.999636"/>
<path d="M320.783 208.446L293.169 240.766" stroke="#EBEBEB" stroke-opacity="0.5" stroke-width="0.999636"/>
<path d="M320.783 208.445L351.784 256.643" stroke="#EBEBEB" stroke-opacity="0.5" stroke-width="0.999636"/>
<path d="M320.783 208.446L341.108 220.448" stroke="#EBEBEB" stroke-opacity="0.5" stroke-width="0.999636"/>
<path d="M320.783 208.445L341.416 196.254" stroke="#EBEBEB" stroke-opacity="0.5" stroke-width="0.999636"/>
<path d="M320.783 208.446L312.878 233.584" stroke="#EBEBEB" stroke-opacity="0.5" stroke-width="0.999636"/>
<path d="M320.783 208.446L329.508 236.703" stroke="#EBEBEB" stroke-opacity="0.5" stroke-width="0.999636"/>
<path d="M320.783 208.446L305.59 214.494" stroke="#EBEBEB" stroke-opacity="0.5" stroke-width="0.999636"/>
<path d="M320.783 208.446L351.99 238.593" stroke="#EBEBEB" stroke-opacity="0.5" stroke-width="0.999636"/>
<path d="M361.537 200.507L377.859 234.151" stroke="#EBEBEB" stroke-opacity="0.5" stroke-width="0.999636"/>
<path d="M361.536 200.507L351.784 256.643" stroke="#EBEBEB" stroke-opacity="0.5" stroke-width="0.999636"/>
<path d="M361.536 200.507L341.108 220.448" stroke="#EBEBEB" stroke-opacity="0.5" stroke-width="0.999636"/>
<path d="M361.537 200.507L341.417 196.255" stroke="#EBEBEB" stroke-opacity="0.5" stroke-width="0.999636"/>
<path d="M361.536 200.507L312.878 233.584" stroke="#EBEBEB" stroke-opacity="0.5" stroke-width="0.999636"/>
<path d="M361.536 200.507L329.508 236.703" stroke="#EBEBEB" stroke-opacity="0.5" stroke-width="0.999636"/>
<path d="M361.536 200.507L305.59 214.494" stroke="#EBEBEB" stroke-opacity="0.5" stroke-width="0.999636"/>
<path d="M361.536 200.508L351.99 238.593" stroke="#EBEBEB" stroke-opacity="0.5" stroke-width="0.999636"/>
<path d="M361.536 200.507L320.783 208.445" stroke="#EBEBEB" stroke-opacity="0.5" stroke-width="0.999636"/>
<path d="M223.158 183.402L293.169 240.766" stroke="#EBEBEB" stroke-opacity="0.5" stroke-width="0.999636"/>
<path d="M401.982 307.204L430.828 346.33" stroke="#EBEBEB" stroke-opacity="0.5" stroke-width="0.999636"/>
<path d="M401.983 307.204L361.537 349.637" stroke="#EBEBEB" stroke-opacity="0.5" stroke-width="0.999636"/>
<path d="M401.983 307.204L350.348 317.788" stroke="#EBEBEB" stroke-opacity="0.5" stroke-width="0.999636"/>
<path d="M401.982 307.204L404.856 344.439" stroke="#EBEBEB" stroke-opacity="0.5" stroke-width="0.999636"/>
<path d="M401.983 307.204L350.758 286.886" stroke="#EBEBEB" stroke-opacity="0.5" stroke-width="0.999636"/>
<path d="M401.982 307.204L377.859 234.151" stroke="#EBEBEB" stroke-opacity="0.5" stroke-width="0.999636"/>
<path d="M385.045 295.108L430.828 346.33" stroke="#EBEBEB" stroke-opacity="0.5" stroke-width="0.999636"/>
<path d="M385.045 295.107L361.537 349.637" stroke="#EBEBEB" stroke-opacity="0.5" stroke-width="0.999636"/>
<path d="M385.045 295.107L350.348 317.788" stroke="#EBEBEB" stroke-opacity="0.5" stroke-width="0.999636"/>
<path d="M385.045 295.107L404.857 344.439" stroke="#EBEBEB" stroke-opacity="0.5" stroke-width="0.999636"/>
<path d="M385.045 295.107L350.758 286.885" stroke="#EBEBEB" stroke-opacity="0.5" stroke-width="0.999636"/>
<path d="M385.044 295.107L377.859 234.151" stroke="#EBEBEB" stroke-opacity="0.5" stroke-width="0.999636"/>
<path d="M385.045 295.107L401.983 307.204" stroke="#EBEBEB" stroke-opacity="0.5" stroke-width="0.999636"/>
<path d="M379.604 313.442L430.828 346.33" stroke="#EBEBEB" stroke-opacity="0.5" stroke-width="0.999636"/>
<path d="M379.604 313.441L361.537 349.637" stroke="#EBEBEB" stroke-opacity="0.5" stroke-width="0.999636"/>
<path d="M379.604 313.441L350.348 317.788" stroke="#EBEBEB" stroke-opacity="0.5" stroke-width="0.999636"/>
<path d="M379.604 313.441L404.857 344.439" stroke="#EBEBEB" stroke-opacity="0.5" stroke-width="0.999636"/>
<path d="M379.604 313.442L350.758 286.885" stroke="#EBEBEB" stroke-opacity="0.5" stroke-width="0.999636"/>
<path d="M379.603 313.442L351.784 256.644" stroke="#EBEBEB" stroke-opacity="0.5" stroke-width="0.999636"/>
<path d="M379.604 313.442L401.982 307.204" stroke="#EBEBEB" stroke-opacity="0.5" stroke-width="0.999636"/>
<path d="M379.604 313.442L385.044 295.107" stroke="#EBEBEB" stroke-opacity="0.5" stroke-width="0.999636"/>
<path d="M412.556 288.303L430.828 346.33" stroke="#EBEBEB" stroke-opacity="0.5" stroke-width="0.999636"/>
<path d="M412.556 288.303L350.348 317.788" stroke="#EBEBEB" stroke-opacity="0.5" stroke-width="0.999636"/>
<path d="M412.556 288.303L404.857 344.439" stroke="#EBEBEB" stroke-opacity="0.5" stroke-width="0.999636"/>
<path d="M412.556 288.303L350.758 286.886" stroke="#EBEBEB" stroke-opacity="0.5" stroke-width="0.999636"/>
<path d="M412.556 288.303L377.859 234.151" stroke="#EBEBEB" stroke-opacity="0.5" stroke-width="0.999636"/>
<path d="M412.555 288.303L401.982 307.204" stroke="#EBEBEB" stroke-opacity="0.5" stroke-width="0.999636"/>
<path d="M412.556 288.303L385.045 295.107" stroke="#EBEBEB" stroke-opacity="0.5" stroke-width="0.999636"/>
<path d="M412.556 288.303L379.604 313.442" stroke="#EBEBEB" stroke-opacity="0.5" stroke-width="0.999636"/>
<path d="M386.995 383.659L430.828 346.329" stroke="#EBEBEB" stroke-opacity="0.5" stroke-width="0.999636"/>
<path d="M386.995 383.659L345.215 370.806" stroke="#EBEBEB" stroke-opacity="0.5" stroke-width="0.999636"/>
<path d="M386.995 383.659L404.856 344.439" stroke="#EBEBEB" stroke-opacity="0.5" stroke-width="0.999636"/>
<path d="M382.786 138.984L377.859 234.151" stroke="#EBEBEB" stroke-opacity="0.5" stroke-width="0.999636"/>
<path d="M415.122 151.364L377.859 234.151" stroke="#EBEBEB" stroke-opacity="0.5" stroke-width="0.999636"/>
<path d="M415.122 151.364L382.786 138.984" stroke="#EBEBEB" stroke-opacity="0.5" stroke-width="0.999636"/>
<path d="M394.9 266.85L350.348 317.788" stroke="#EBEBEB" stroke-opacity="0.5" stroke-width="0.999636"/>
<path d="M394.9 266.85L350.758 286.886" stroke="#EBEBEB" stroke-opacity="0.5" stroke-width="0.999636"/>
<path d="M394.899 266.85L377.859 234.151" stroke="#EBEBEB" stroke-opacity="0.5" stroke-width="0.999636"/>
<path d="M394.899 266.85L401.982 307.204" stroke="#EBEBEB" stroke-opacity="0.5" stroke-width="0.999636"/>
<path d="M394.899 266.85L385.045 295.107" stroke="#EBEBEB" stroke-opacity="0.5" stroke-width="0.999636"/>
<path d="M394.899 266.85L379.604 313.442" stroke="#EBEBEB" stroke-opacity="0.5" stroke-width="0.999636"/>
<path d="M394.899 266.85L412.556 288.303" stroke="#EBEBEB" stroke-opacity="0.5" stroke-width="0.999636"/>
<path d="M335.052 182.929L377.858 234.151" stroke="#EBEBEB" stroke-opacity="0.5" stroke-width="0.999636"/>
<path d="M335.052 182.929L351.784 256.643" stroke="#EBEBEB" stroke-opacity="0.5" stroke-width="0.999636"/>
<path d="M335.052 182.929L329.508 236.703" stroke="#EBEBEB" stroke-opacity="0.5" stroke-width="0.999636"/>
<path d="M335.052 182.929L305.59 214.494" stroke="#EBEBEB" stroke-opacity="0.5" stroke-width="0.999636"/>
<path d="M335.052 182.929L351.989 238.593" stroke="#EBEBEB" stroke-opacity="0.5" stroke-width="0.999636"/>
<path d="M335.052 182.929L320.783 208.445" stroke="#EBEBEB" stroke-opacity="0.5" stroke-width="0.999636"/>
<path d="M335.052 182.929L361.536 200.507" stroke="#EBEBEB" stroke-opacity="0.5" stroke-width="0.999636"/>
<path d="M637.895 349.451C638.752 349.451 639.573 349.764 640.178 350.321C640.783 350.879 641.123 351.634 641.123 352.423C641.123 353.211 640.783 353.967 640.178 354.524C639.572 355.081 638.751 355.394 637.895 355.394C637.039 355.394 636.218 355.081 635.613 354.524C635.007 353.967 634.667 353.211 634.667 352.423C634.667 351.634 635.007 350.879 635.613 350.321C636.218 349.764 637.039 349.451 637.895 349.451Z" fill="#E9EEF4"/>
<path d="M691.587 355.152C692.443 355.152 693.264 355.465 693.87 356.022C694.475 356.58 694.815 357.336 694.815 358.124C694.815 358.912 694.475 359.668 693.87 360.225C693.264 360.782 692.443 361.096 691.587 361.096C690.731 361.096 689.91 360.782 689.304 360.225C688.699 359.668 688.359 358.912 688.359 358.124C688.359 357.336 688.699 356.58 689.304 356.022C689.91 355.465 690.731 355.152 691.587 355.152Z" fill="#E9EEF4"/>
<path d="M568.155 357.26C569.011 357.26 569.832 357.574 570.437 358.131C571.043 358.688 571.383 359.444 571.383 360.232C571.383 361.021 571.042 361.776 570.437 362.334C569.832 362.891 569.011 363.204 568.155 363.204C567.298 363.204 566.477 362.891 565.872 362.334C565.267 361.776 564.926 361.021 564.926 360.232C564.926 359.444 565.266 358.688 565.872 358.131C566.477 357.574 567.299 357.26 568.155 357.26Z" fill="#E9EEF4"/>
<path d="M571.724 330.139C572.58 330.139 573.401 330.452 574.007 331.01C574.612 331.567 574.952 332.323 574.952 333.111C574.952 333.899 574.612 334.655 574.007 335.213C573.401 335.77 572.58 336.083 571.724 336.083C570.868 336.083 570.047 335.77 569.441 335.213C568.836 334.655 568.496 333.899 568.496 333.111C568.496 332.323 568.836 331.567 569.441 331.01C570.047 330.452 570.868 330.139 571.724 330.139Z" fill="#E9EEF4"/>
<path d="M672.381 289.036C673.237 289.036 674.058 289.349 674.663 289.906C675.268 290.464 675.608 291.22 675.608 292.008C675.608 292.796 675.268 293.552 674.663 294.109C674.058 294.666 673.236 294.979 672.38 294.979C671.524 294.979 670.703 294.666 670.098 294.109C669.492 293.552 669.152 292.796 669.152 292.008C669.152 291.22 669.492 290.464 670.098 289.906C670.703 289.349 671.524 289.036 672.381 289.036Z" fill="#E9EEF4"/>
<path d="M666.531 408.384C667.387 408.384 668.208 408.697 668.813 409.254C669.419 409.812 669.759 410.568 669.759 411.356C669.759 412.144 669.419 412.9 668.813 413.457C668.208 414.014 667.387 414.328 666.531 414.328C665.675 414.328 664.854 414.014 664.248 413.457C663.643 412.9 663.303 412.144 663.303 411.356C663.303 410.568 663.643 409.812 664.248 409.254C664.853 408.697 665.675 408.384 666.531 408.384Z" fill="#E9EEF4"/>
<path d="M695.787 307.893C696.643 307.893 697.464 308.206 698.07 308.764C698.675 309.321 699.015 310.077 699.015 310.865C699.015 311.653 698.675 312.409 698.069 312.966C697.464 313.524 696.643 313.837 695.787 313.837C694.931 313.837 694.11 313.524 693.504 312.966C692.899 312.409 692.559 311.653 692.559 310.865C692.559 310.077 692.899 309.321 693.504 308.764C694.109 308.206 694.931 307.893 695.787 307.893Z" fill="#E9EEF4"/>
<path d="M695.456 398.758C696.312 398.758 697.133 399.071 697.738 399.629C698.344 400.186 698.684 400.942 698.684 401.73C698.684 402.518 698.344 403.274 697.738 403.832C697.133 404.389 696.312 404.702 695.456 404.702C694.6 404.702 693.779 404.389 693.173 403.832C692.568 403.274 692.228 402.518 692.228 401.73C692.228 400.942 692.568 400.186 693.173 399.629C693.778 399.071 694.6 398.758 695.456 398.758Z" fill="#E9EEF4"/>
<path d="M717.319 331.351C718.175 331.351 718.997 331.664 719.602 332.221C720.207 332.778 720.547 333.534 720.547 334.323C720.547 335.111 720.207 335.867 719.602 336.424C718.996 336.981 718.175 337.294 717.319 337.294C716.463 337.294 715.642 336.981 715.037 336.424C714.431 335.867 714.091 335.111 714.091 334.323C714.091 333.534 714.431 332.778 715.036 332.221C715.642 331.664 716.463 331.351 717.319 331.351Z" fill="#E9EEF4"/>
<path d="M719.299 373.144C720.155 373.144 720.977 373.457 721.582 374.014C722.187 374.572 722.527 375.328 722.527 376.116C722.527 376.904 722.187 377.66 721.582 378.217C720.976 378.774 720.155 379.088 719.299 379.088C718.443 379.088 717.622 378.774 717.017 378.217C716.411 377.66 716.071 376.904 716.071 376.116C716.071 375.328 716.411 374.572 717.016 374.014C717.622 373.457 718.443 373.144 719.299 373.144Z" fill="#E9EEF4"/>
<path d="M497.797 264.822C498.653 264.822 499.474 265.135 500.079 265.692C500.685 266.25 501.025 267.006 501.025 267.794C501.025 268.582 500.685 269.338 500.079 269.895C499.474 270.453 498.653 270.766 497.797 270.766C496.941 270.766 496.12 270.453 495.514 269.895C494.909 269.338 494.569 268.582 494.569 267.794C494.569 267.006 494.909 266.25 495.514 265.692C496.119 265.135 496.941 264.822 497.797 264.822Z" fill="#E9EEF4"/>
<path d="M430.808 343.361C431.664 343.361 432.485 343.674 433.091 344.231C433.696 344.788 434.036 345.544 434.036 346.333C434.036 347.121 433.696 347.877 433.091 348.434C432.485 348.991 431.664 349.304 430.808 349.304C429.952 349.304 429.131 348.991 428.525 348.434C427.92 347.877 427.58 347.121 427.58 346.333C427.58 345.544 427.92 344.788 428.525 344.231C429.131 343.674 429.952 343.361 430.808 343.361Z" fill="#E9EEF4"/>
<path d="M427.04 433.578C427.896 433.579 428.717 433.892 429.323 434.449C429.928 435.006 430.268 435.762 430.268 436.55C430.268 437.339 429.928 438.094 429.322 438.652C428.717 439.209 427.896 439.522 427.04 439.522C426.184 439.522 425.363 439.209 424.757 438.652C424.152 438.094 423.812 437.339 423.812 436.55C423.812 435.762 424.152 435.006 424.757 434.449C425.363 433.892 426.184 433.579 427.04 433.578Z" fill="#E9EEF4"/>
<path d="M513.539 297.868C514.395 297.868 515.216 298.181 515.821 298.739C516.427 299.296 516.767 300.052 516.767 300.84C516.767 301.628 516.427 302.384 515.821 302.941C515.216 303.499 514.395 303.812 513.539 303.812C512.683 303.812 511.861 303.499 511.256 302.941C510.651 302.384 510.311 301.628 510.311 300.84C510.311 300.052 510.651 299.296 511.256 298.739C511.861 298.181 512.683 297.868 513.539 297.868Z" fill="#E9EEF4"/>
<path d="M544.632 293.164C545.488 293.164 546.309 293.477 546.914 294.034C547.52 294.592 547.86 295.347 547.86 296.136C547.86 296.924 547.52 297.68 546.914 298.237C546.309 298.794 545.488 299.107 544.632 299.107C543.775 299.107 542.954 298.794 542.349 298.237C541.744 297.68 541.403 296.924 541.403 296.136C541.403 295.347 541.743 294.592 542.349 294.034C542.954 293.477 543.776 293.164 544.632 293.164Z" fill="#E9EEF4"/>
<path d="M531.662 259.699C532.518 259.7 533.339 260.013 533.945 260.57C534.55 261.127 534.89 261.883 534.89 262.671C534.89 263.46 534.55 264.216 533.945 264.773C533.339 265.33 532.518 265.643 531.662 265.643C530.806 265.643 529.985 265.33 529.379 264.773C528.774 264.216 528.434 263.46 528.434 262.671C528.434 261.883 528.774 261.127 529.379 260.57C529.985 260.013 530.806 259.7 531.662 259.699Z" fill="#E9EEF4"/>
<path d="M318.753 440.468C319.609 440.468 320.43 440.781 321.035 441.338C321.641 441.896 321.981 442.652 321.981 443.44C321.981 444.228 321.641 444.984 321.035 445.541C320.43 446.098 319.609 446.411 318.753 446.411C317.897 446.411 317.075 446.098 316.47 445.541C315.865 444.984 315.525 444.228 315.525 443.44C315.525 442.652 315.865 441.896 316.47 441.338C317.075 440.781 317.897 440.468 318.753 440.468Z" fill="#E9EEF4"/>
<path d="M340.51 483.231C341.367 483.231 342.188 483.545 342.793 484.102C343.398 484.659 343.738 485.415 343.738 486.203C343.738 486.992 343.398 487.747 342.793 488.305C342.187 488.862 341.366 489.175 340.51 489.175C339.654 489.175 338.833 488.862 338.228 488.305C337.622 487.747 337.282 486.992 337.282 486.203C337.282 485.415 337.622 484.659 338.228 484.102C338.833 483.545 339.654 483.231 340.51 483.231Z" fill="#E9EEF4"/>
<path d="M303.366 474.845C304.222 474.845 305.043 475.158 305.648 475.716C306.254 476.273 306.594 477.029 306.594 477.817C306.594 478.605 306.254 479.361 305.648 479.919C305.043 480.476 304.222 480.789 303.366 480.789C302.509 480.789 301.688 480.476 301.083 479.919C300.478 479.361 300.137 478.605 300.137 477.817C300.137 477.029 300.478 476.273 301.083 475.716C301.688 475.158 302.51 474.845 303.366 474.845Z" fill="#E9EEF4"/>
<path d="M319.575 489.674C320.431 489.674 321.252 489.987 321.857 490.544C322.463 491.102 322.803 491.858 322.803 492.646C322.803 493.434 322.462 494.19 321.857 494.747C321.252 495.305 320.431 495.618 319.574 495.618C318.718 495.618 317.897 495.305 317.292 494.747C316.686 494.19 316.346 493.434 316.346 492.646C316.346 491.858 316.686 491.102 317.292 490.544C317.897 489.987 318.718 489.674 319.575 489.674Z" fill="#E9EEF4"/>
<path d="M340.627 506.443C341.483 506.443 342.304 506.756 342.909 507.313C343.515 507.871 343.855 508.627 343.855 509.415C343.855 510.203 343.515 510.959 342.909 511.516C342.304 512.073 341.483 512.387 340.627 512.387C339.771 512.387 338.949 512.073 338.344 511.516C337.739 510.959 337.399 510.203 337.399 509.415C337.399 508.627 337.739 507.871 338.344 507.313C338.949 506.756 339.771 506.443 340.627 506.443Z" fill="#E9EEF4"/>
<path d="M293.87 496.022C294.726 496.022 295.547 496.335 296.152 496.893C296.758 497.45 297.098 498.206 297.098 498.994C297.098 499.782 296.757 500.538 296.152 501.095C295.547 501.653 294.726 501.966 293.869 501.966C293.013 501.966 292.192 501.653 291.587 501.095C290.981 500.538 290.641 499.782 290.641 498.994C290.641 498.206 290.981 497.45 291.587 496.893C292.192 496.335 293.014 496.022 293.87 496.022Z" fill="#E9EEF4"/>
<path d="M314.699 513.35C315.555 513.35 316.376 513.663 316.981 514.22C317.587 514.777 317.927 515.533 317.927 516.322C317.927 517.11 317.586 517.866 316.981 518.423C316.376 518.98 315.555 519.293 314.698 519.293C313.842 519.293 313.021 518.98 312.416 518.423C311.81 517.866 311.47 517.11 311.47 516.322C311.47 515.533 311.81 514.777 312.416 514.22C313.021 513.663 313.842 513.35 314.699 513.35Z" fill="#E9EEF4"/>
<path d="M365.235 433.473C366.092 433.473 366.913 433.786 367.518 434.343C368.123 434.901 368.463 435.657 368.463 436.445C368.463 437.233 368.123 437.989 367.518 438.546C366.913 439.103 366.091 439.417 365.235 439.417C364.379 439.417 363.558 439.103 362.953 438.546C362.347 437.989 362.007 437.233 362.007 436.445C362.007 435.657 362.347 434.901 362.953 434.343C363.558 433.786 364.379 433.473 365.235 433.473Z" fill="#E9EEF4"/>
<path d="M361.515 346.617C362.371 346.617 363.192 346.93 363.797 347.487C364.403 348.045 364.743 348.801 364.743 349.589C364.743 350.377 364.403 351.133 363.797 351.69C363.192 352.248 362.371 352.561 361.515 352.561C360.659 352.561 359.838 352.248 359.232 351.69C358.627 351.133 358.287 350.377 358.287 349.589C358.287 348.801 358.627 348.045 359.232 347.487C359.837 346.93 360.659 346.617 361.515 346.617Z" fill="#E9EEF4"/>
<path d="M350.332 314.738C351.188 314.738 352.009 315.051 352.615 315.608C353.22 316.166 353.56 316.921 353.56 317.71C353.56 318.498 353.22 319.254 352.614 319.811C352.009 320.368 351.188 320.681 350.332 320.681C349.476 320.681 348.655 320.368 348.049 319.811C347.444 319.254 347.104 318.498 347.104 317.71C347.104 316.921 347.444 316.166 348.049 315.608C348.655 315.051 349.476 314.738 350.332 314.738Z" fill="#E9EEF4"/>
<path d="M345.204 367.852C346.06 367.852 346.881 368.166 347.486 368.723C348.092 369.28 348.432 370.036 348.432 370.824C348.432 371.613 348.091 372.368 347.486 372.926C346.881 373.483 346.06 373.796 345.203 373.796C344.347 373.796 343.526 373.483 342.921 372.926C342.315 372.368 341.975 371.613 341.975 370.824C341.975 370.036 342.315 369.28 342.921 368.723C343.526 368.166 344.347 367.852 345.204 367.852Z" fill="#E9EEF4"/>
<path d="M404.888 341.435C405.744 341.435 406.565 341.748 407.171 342.305C407.776 342.863 408.116 343.618 408.116 344.407C408.116 345.195 407.776 345.951 407.17 346.508C406.565 347.065 405.744 347.378 404.888 347.378C404.032 347.378 403.211 347.065 402.605 346.508C402 345.951 401.66 345.195 401.66 344.407C401.66 343.618 402 342.863 402.605 342.305C403.21 341.748 404.032 341.435 404.888 341.435Z" fill="#E9EEF4"/>
<path d="M503.371 383.772C504.227 383.772 505.048 384.085 505.654 384.642C506.259 385.2 506.599 385.956 506.599 386.744C506.599 387.532 506.259 388.288 505.653 388.845C505.048 389.402 504.227 389.716 503.371 389.716C502.515 389.716 501.694 389.402 501.088 388.845C500.483 388.288 500.143 387.532 500.143 386.744C500.143 385.956 500.483 385.2 501.088 384.642C501.693 384.085 502.515 383.772 503.371 383.772Z" fill="#E9EEF4"/>
<path d="M450.821 410.003C451.677 410.003 452.498 410.316 453.103 410.874C453.709 411.431 454.049 412.187 454.049 412.975C454.049 413.763 453.709 414.519 453.103 415.076C452.498 415.634 451.677 415.947 450.821 415.947C449.964 415.947 449.143 415.634 448.538 415.076C447.933 414.519 447.592 413.763 447.592 412.975C447.592 412.187 447.932 411.431 448.538 410.874C449.143 410.316 449.965 410.003 450.821 410.003Z" fill="#E9EEF4"/>
<path d="M400.675 490.542C401.531 490.542 402.352 490.855 402.957 491.413C403.563 491.97 403.903 492.726 403.903 493.514C403.903 494.302 403.563 495.058 402.957 495.616C402.352 496.173 401.531 496.486 400.675 496.486C399.819 496.486 398.997 496.173 398.392 495.616C397.787 495.058 397.447 494.302 397.447 493.514C397.447 492.726 397.787 491.97 398.392 491.413C398.997 490.855 399.819 490.542 400.675 490.542Z" fill="#E9EEF4"/>
<path d="M405.546 424.164C406.403 424.164 407.224 424.477 407.829 425.034C408.434 425.592 408.774 426.348 408.774 427.136C408.774 427.924 408.434 428.68 407.829 429.237C407.223 429.794 406.402 430.108 405.546 430.108C404.69 430.108 403.869 429.794 403.264 429.237C402.658 428.68 402.318 427.924 402.318 427.136C402.318 426.348 402.658 425.592 403.264 425.034C403.869 424.477 404.69 424.164 405.546 424.164Z" fill="#E9EEF4"/>
<path d="M523.16 336.39C524.016 336.39 524.837 336.703 525.443 337.26C526.048 337.817 526.388 338.573 526.388 339.361C526.388 340.15 526.048 340.906 525.443 341.463C524.837 342.02 524.016 342.333 523.16 342.333C522.304 342.333 521.483 342.02 520.877 341.463C520.272 340.906 519.932 340.15 519.932 339.361C519.932 338.573 520.272 337.817 520.877 337.26C521.483 336.703 522.304 336.39 523.16 336.39Z" fill="#E9EEF4"/>
<path d="M475.015 329.637C475.872 329.637 476.693 329.95 477.298 330.507C477.903 331.064 478.243 331.82 478.243 332.609C478.243 333.397 477.903 334.153 477.298 334.71C476.692 335.267 475.871 335.58 475.015 335.58C474.159 335.58 473.338 335.267 472.733 334.71C472.127 334.153 471.787 333.397 471.787 332.609C471.787 331.82 472.127 331.064 472.733 330.507C473.338 329.95 474.159 329.637 475.015 329.637Z" fill="#E9EEF4"/>
<path d="M479.715 411.306C480.571 411.306 481.392 411.619 481.997 412.177C482.603 412.734 482.943 413.49 482.943 414.278C482.943 415.066 482.603 415.822 481.997 416.38C481.392 416.937 480.571 417.25 479.715 417.25C478.859 417.25 478.037 416.937 477.432 416.38C476.827 415.822 476.487 415.066 476.487 414.278C476.487 413.49 476.827 412.734 477.432 412.177C478.037 411.619 478.859 411.306 479.715 411.306Z" fill="#E9EEF4"/>
<path d="M502.351 409.072C503.207 409.072 504.028 409.385 504.633 409.943C505.239 410.5 505.579 411.256 505.579 412.044C505.579 412.832 505.238 413.588 504.633 414.145C504.028 414.703 503.207 415.016 502.35 415.016C501.494 415.016 500.673 414.703 500.068 414.145C499.462 413.588 499.122 412.832 499.122 412.044C499.122 411.256 499.462 410.5 500.068 409.943C500.673 409.385 501.494 409.072 502.351 409.072Z" fill="#E9EEF4"/>
<path d="M470.031 437.839C470.887 437.839 471.708 438.152 472.313 438.71C472.919 439.267 473.259 440.023 473.259 440.811C473.259 441.599 472.919 442.355 472.313 442.912C471.708 443.47 470.887 443.783 470.031 443.783C469.174 443.783 468.353 443.47 467.748 442.912C467.143 442.355 466.803 441.599 466.802 440.811C466.802 440.023 467.143 439.267 467.748 438.71C468.353 438.152 469.175 437.839 470.031 437.839Z" fill="#E9EEF4"/>
<path d="M507.92 431.487C508.777 431.487 509.598 431.8 510.203 432.358C510.808 432.915 511.148 433.671 511.148 434.459C511.148 435.247 510.808 436.003 510.203 436.56C509.597 437.118 508.776 437.431 507.92 437.431C507.064 437.431 506.243 437.118 505.638 436.56C505.032 436.003 504.692 435.247 504.692 434.459C504.692 433.671 505.032 432.915 505.638 432.358C506.243 431.8 507.064 431.487 507.92 431.487Z" fill="#E9EEF4"/>
<path d="M490.503 448.846C491.359 448.846 492.18 449.159 492.786 449.716C493.391 450.274 493.731 451.03 493.731 451.818C493.731 452.606 493.391 453.362 492.786 453.919C492.18 454.477 491.359 454.79 490.503 454.79C489.647 454.79 488.826 454.477 488.22 453.919C487.615 453.362 487.275 452.606 487.275 451.818C487.275 451.03 487.615 450.274 488.22 449.716C488.826 449.159 489.647 448.846 490.503 448.846Z" fill="#E9EEF4"/>
<path d="M250.876 313.644C251.732 313.644 252.553 313.957 253.159 314.514C253.764 315.072 254.104 315.827 254.104 316.616C254.104 317.404 253.764 318.16 253.159 318.717C252.553 319.274 251.732 319.587 250.876 319.587C250.02 319.587 249.199 319.274 248.593 318.717C247.988 318.16 247.648 317.404 247.648 316.616C247.648 315.827 247.988 315.072 248.593 314.514C249.199 313.957 250.02 313.644 250.876 313.644Z" fill="#E9EEF4"/>
<path d="M232.409 283.34C233.266 283.34 234.087 283.653 234.692 284.21C235.297 284.768 235.637 285.524 235.637 286.312C235.637 287.1 235.297 287.856 234.692 288.413C234.086 288.97 233.265 289.284 232.409 289.284C231.553 289.284 230.732 288.97 230.127 288.413C229.521 287.856 229.181 287.1 229.181 286.312C229.181 285.524 229.521 284.768 230.127 284.21C230.732 283.653 231.553 283.34 232.409 283.34Z" fill="#E9EEF4"/>
<path d="M350.756 283.864C351.612 283.864 352.433 284.178 353.038 284.735C353.644 285.292 353.984 286.048 353.984 286.836C353.984 287.624 353.644 288.38 353.038 288.938C352.433 289.495 351.612 289.808 350.756 289.808C349.899 289.808 349.078 289.495 348.473 288.938C347.868 288.38 347.527 287.624 347.527 286.836C347.527 286.048 347.868 285.292 348.473 284.735C349.078 284.178 349.9 283.864 350.756 283.864Z" fill="#E9EEF4"/>
<path d="M304.32 317.396C305.176 317.396 305.997 317.709 306.602 318.266C307.208 318.823 307.548 319.579 307.548 320.368C307.548 321.156 307.208 321.912 306.602 322.469C305.997 323.026 305.176 323.339 304.32 323.339C303.464 323.339 302.642 323.026 302.037 322.469C301.432 321.912 301.092 321.156 301.092 320.368C301.092 319.579 301.432 318.823 302.037 318.266C302.642 317.709 303.464 317.396 304.32 317.396Z" fill="#E9EEF4"/>
<path d="M410.961 387.623C411.817 387.623 412.638 387.936 413.243 388.493C413.849 389.051 414.189 389.807 414.189 390.595C414.189 391.383 413.849 392.139 413.243 392.696C412.638 393.254 411.817 393.567 410.961 393.567C410.105 393.567 409.283 393.254 408.678 392.696C408.073 392.139 407.733 391.383 407.733 390.595C407.733 389.807 408.073 389.051 408.678 388.493C409.283 387.936 410.105 387.623 410.961 387.623Z" fill="#E9EEF4"/>
<path d="M540.834 393.043C541.69 393.043 542.511 393.356 543.116 393.913C543.721 394.471 544.061 395.226 544.061 396.015C544.061 396.803 543.721 397.559 543.116 398.116C542.511 398.673 541.689 398.986 540.833 398.986C539.977 398.986 539.156 398.673 538.551 398.116C537.945 397.559 537.605 396.803 537.605 396.015C537.605 395.226 537.945 394.471 538.551 393.913C539.156 393.356 539.977 393.043 540.834 393.043Z" fill="#E9EEF4"/>
<path d="M569.389 454.574C570.245 454.574 571.066 454.887 571.671 455.445C572.277 456.002 572.617 456.758 572.617 457.546C572.617 458.334 572.277 459.09 571.671 459.648C571.066 460.205 570.245 460.518 569.389 460.518C568.532 460.518 567.711 460.205 567.106 459.648C566.501 459.09 566.16 458.334 566.16 457.546C566.16 456.758 566.5 456.002 567.106 455.445C567.711 454.887 568.533 454.574 569.389 454.574Z" fill="#E9EEF4"/>
<path d="M502.39 87.1245C503.247 87.1246 504.068 87.4377 504.673 87.9951C505.278 88.5524 505.618 89.3083 505.618 90.0965C505.618 90.8847 505.278 91.6406 504.673 92.1979C504.067 92.7552 503.246 93.0683 502.39 93.0683C501.534 93.0683 500.713 92.7552 500.108 92.1979C499.502 91.6406 499.162 90.8847 499.162 90.0965C499.162 89.3083 499.502 88.5524 500.108 87.9951C500.713 87.4377 501.534 87.1246 502.39 87.1245Z" fill="#E9EEF4"/>
<path d="M460.41 140.428C461.266 140.428 462.087 140.741 462.693 141.299C463.298 141.856 463.638 142.612 463.638 143.4C463.638 144.188 463.298 144.944 462.693 145.501C462.087 146.059 461.266 146.372 460.41 146.372C459.554 146.372 458.733 146.059 458.128 145.501C457.522 144.944 457.182 144.188 457.182 143.4C457.182 142.612 457.522 141.856 458.127 141.299C458.733 140.741 459.554 140.428 460.41 140.428Z" fill="#E9EEF4"/>
<path d="M377.824 231.098C378.681 231.098 379.502 231.411 380.107 231.968C380.712 232.525 381.052 233.281 381.052 234.069C381.052 234.858 380.712 235.614 380.107 236.171C379.502 236.728 378.68 237.041 377.824 237.041C376.968 237.041 376.147 236.728 375.542 236.171C374.936 235.614 374.596 234.858 374.596 234.069C374.596 233.281 374.936 232.525 375.542 231.968C376.147 231.411 376.968 231.098 377.824 231.098Z" fill="#E9EEF4"/>
<path d="M312.962 355.672C313.818 355.672 314.639 355.986 315.245 356.543C315.85 357.1 316.19 357.856 316.19 358.644C316.19 359.432 315.85 360.188 315.245 360.746C314.639 361.303 313.818 361.616 312.962 361.616C312.106 361.616 311.285 361.303 310.68 360.746C310.074 360.188 309.734 359.432 309.734 358.644C309.734 357.856 310.074 357.1 310.679 356.543C311.285 355.986 312.106 355.672 312.962 355.672Z" fill="#E9EEF4"/>
<path d="M286.882 398.21C287.738 398.21 288.559 398.523 289.165 399.08C289.77 399.638 290.11 400.393 290.11 401.182C290.11 401.97 289.77 402.726 289.165 403.283C288.559 403.84 287.738 404.153 286.882 404.153C286.026 404.153 285.205 403.84 284.599 403.283C283.994 402.726 283.654 401.97 283.654 401.182C283.654 400.393 283.994 399.638 284.599 399.08C285.205 398.523 286.026 398.21 286.882 398.21Z" fill="#E9EEF4"/>
<path d="M282.207 369.918C283.063 369.918 283.884 370.231 284.489 370.788C285.095 371.346 285.435 372.101 285.435 372.89C285.435 373.678 285.095 374.434 284.489 374.991C283.884 375.548 283.063 375.861 282.207 375.861C281.35 375.861 280.529 375.548 279.924 374.991C279.319 374.434 278.978 373.678 278.978 372.89C278.978 372.101 279.318 371.346 279.924 370.788C280.529 370.231 281.351 369.918 282.207 369.918Z" fill="#E9EEF4"/>
<path d="M201.475 354.642C202.331 354.642 203.153 354.955 203.758 355.512C204.363 356.069 204.703 356.825 204.703 357.613C204.703 358.402 204.363 359.158 203.758 359.715C203.152 360.272 202.331 360.585 201.475 360.585C200.619 360.585 199.798 360.272 199.193 359.715C198.587 359.158 198.247 358.402 198.247 357.613C198.247 356.825 198.587 356.069 199.192 355.512C199.798 354.955 200.619 354.642 201.475 354.642Z" fill="#E9EEF4"/>
<path d="M195.178 410.279C196.034 410.279 196.855 410.592 197.461 411.149C198.066 411.707 198.406 412.463 198.406 413.251C198.406 414.039 198.066 414.795 197.461 415.352C196.855 415.909 196.034 416.223 195.178 416.223C194.322 416.223 193.501 415.909 192.895 415.352C192.29 414.795 191.95 414.039 191.95 413.251C191.95 412.463 192.29 411.707 192.895 411.149C193.501 410.592 194.322 410.279 195.178 410.279Z" fill="#E9EEF4"/>
<path d="M276.312 344.851C277.168 344.851 277.989 345.164 278.595 345.722C279.2 346.279 279.54 347.035 279.54 347.823C279.54 348.611 279.2 349.367 278.594 349.925C277.989 350.482 277.168 350.795 276.312 350.795C275.456 350.795 274.635 350.482 274.029 349.925C273.424 349.367 273.084 348.611 273.084 347.823C273.084 347.035 273.424 346.279 274.029 345.722C274.635 345.164 275.456 344.851 276.312 344.851Z" fill="#E9EEF4"/>
<path d="M316.393 287.955C317.249 287.955 318.071 288.268 318.676 288.826C319.281 289.383 319.621 290.139 319.621 290.927C319.621 291.715 319.281 292.471 318.676 293.029C318.07 293.586 317.249 293.899 316.393 293.899C315.537 293.899 314.716 293.586 314.111 293.029C313.505 292.471 313.165 291.715 313.165 290.927C313.165 290.139 313.505 289.383 314.11 288.826C314.716 288.268 315.537 287.955 316.393 287.955Z" fill="#E9EEF4"/>
<path d="M242.017 337.772C242.873 337.772 243.694 338.085 244.299 338.643C244.905 339.2 245.245 339.956 245.245 340.744C245.245 341.532 244.904 342.288 244.299 342.845C243.694 343.403 242.873 343.716 242.016 343.716C241.16 343.716 240.339 343.403 239.734 342.845C239.128 342.288 238.788 341.532 238.788 340.744C238.788 339.956 239.128 339.2 239.734 338.643C240.339 338.085 241.16 337.772 242.017 337.772Z" fill="#E9EEF4"/>
<path d="M293.132 237.723C293.988 237.723 294.809 238.036 295.414 238.593C296.02 239.15 296.36 239.906 296.36 240.695C296.36 241.483 296.02 242.239 295.414 242.796C294.809 243.353 293.988 243.666 293.132 243.666C292.275 243.666 291.454 243.353 290.849 242.796C290.244 242.239 289.903 241.483 289.903 240.695C289.903 239.906 290.243 239.15 290.849 238.593C291.454 238.036 292.276 237.723 293.132 237.723Z" fill="#E9EEF4"/>
<path d="M351.811 253.606C352.667 253.606 353.488 253.919 354.093 254.476C354.699 255.034 355.039 255.79 355.039 256.578C355.039 257.366 354.699 258.122 354.093 258.679C353.488 259.236 352.667 259.55 351.811 259.55C350.954 259.55 350.133 259.236 349.528 258.679C348.923 258.122 348.582 257.366 348.582 256.578C348.582 255.79 348.922 255.034 349.528 254.476C350.133 253.919 350.955 253.606 351.811 253.606Z" fill="#E9EEF4"/>
<path d="M341.044 217.419C341.901 217.419 342.722 217.733 343.327 218.29C343.932 218.847 344.272 219.603 344.272 220.391C344.272 221.179 343.932 221.935 343.327 222.493C342.721 223.05 341.9 223.363 341.044 223.363C340.188 223.363 339.367 223.05 338.762 222.493C338.156 221.935 337.816 221.179 337.816 220.391C337.816 219.603 338.156 218.847 338.762 218.29C339.367 217.733 340.188 217.419 341.044 217.419Z" fill="#E9EEF4"/>
<path d="M341.366 193.169C342.222 193.169 343.043 193.482 343.648 194.039C344.254 194.597 344.594 195.353 344.594 196.141C344.594 196.929 344.254 197.685 343.648 198.242C343.043 198.8 342.222 199.113 341.366 199.113C340.509 199.113 339.688 198.8 339.083 198.242C338.478 197.685 338.137 196.929 338.137 196.141C338.137 195.353 338.478 194.597 339.083 194.039C339.688 193.482 340.51 193.169 341.366 193.169Z" fill="#E9EEF4"/>
<path d="M312.798 230.513C313.654 230.513 314.475 230.827 315.081 231.384C315.686 231.941 316.026 232.697 316.026 233.485C316.026 234.273 315.686 235.029 315.081 235.587C314.475 236.144 313.654 236.457 312.798 236.457C311.942 236.457 311.121 236.144 310.515 235.587C309.91 235.029 309.57 234.273 309.57 233.485C309.57 232.697 309.91 231.941 310.515 231.384C311.121 230.827 311.942 230.513 312.798 230.513Z" fill="#E9EEF4"/>
<path d="M329.442 233.687C330.298 233.687 331.119 234 331.725 234.557C332.33 235.115 332.67 235.87 332.67 236.659C332.67 237.447 332.33 238.203 331.725 238.76C331.119 239.317 330.298 239.63 329.442 239.63C328.586 239.63 327.765 239.317 327.16 238.76C326.554 238.203 326.214 237.447 326.214 236.659C326.214 235.87 326.554 235.115 327.159 234.557C327.765 234 328.586 233.687 329.442 233.687Z" fill="#E9EEF4"/>
<path d="M305.558 211.483C306.414 211.483 307.236 211.796 307.841 212.354C308.446 212.911 308.786 213.667 308.786 214.455C308.786 215.243 308.446 215.999 307.841 216.556C307.235 217.114 306.414 217.427 305.558 217.427C304.702 217.427 303.881 217.114 303.276 216.556C302.67 215.999 302.33 215.243 302.33 214.455C302.33 213.667 302.67 212.911 303.275 212.354C303.881 211.796 304.702 211.483 305.558 211.483Z" fill="#E9EEF4"/>
<path d="M351.963 235.574C352.819 235.574 353.64 235.888 354.246 236.445C354.851 237.002 355.191 237.758 355.191 238.546C355.191 239.335 354.851 240.09 354.246 240.648C353.64 241.205 352.819 241.518 351.963 241.518C351.107 241.518 350.286 241.205 349.681 240.648C349.075 240.09 348.735 239.335 348.735 238.546C348.735 237.758 349.075 237.002 349.68 236.445C350.286 235.888 351.107 235.574 351.963 235.574Z" fill="#E9EEF4"/>
<path d="M320.718 205.435C321.574 205.435 322.395 205.748 323 206.305C323.606 206.863 323.946 207.618 323.946 208.407C323.946 209.195 323.605 209.951 323 210.508C322.395 211.065 321.574 211.378 320.718 211.378C319.861 211.378 319.04 211.065 318.435 210.508C317.83 209.951 317.489 209.195 317.489 208.407C317.489 207.618 317.829 206.863 318.435 206.305C319.04 205.748 319.862 205.435 320.718 205.435Z" fill="#E9EEF4"/>
<path d="M361.504 197.497C362.361 197.497 363.182 197.81 363.787 198.368C364.392 198.925 364.732 199.681 364.732 200.469C364.732 201.257 364.392 202.013 363.787 202.571C363.181 203.128 362.36 203.441 361.504 203.441C360.648 203.441 359.827 203.128 359.222 202.571C358.616 202.013 358.276 201.257 358.276 200.469C358.276 199.681 358.616 198.925 359.222 198.368C359.827 197.81 360.648 197.497 361.504 197.497Z" fill="#E9EEF4"/>
<path d="M223.117 180.341C223.973 180.341 224.795 180.654 225.4 181.211C226.005 181.769 226.345 182.525 226.345 183.313C226.345 184.101 226.005 184.857 225.4 185.414C224.794 185.972 223.973 186.285 223.117 186.285C222.261 186.285 221.44 185.972 220.835 185.414C220.229 184.857 219.889 184.101 219.889 183.313C219.889 182.525 220.229 181.769 220.834 181.211C221.44 180.654 222.261 180.341 223.117 180.341Z" fill="#E9EEF4"/>
<path d="M402.025 304.192C402.881 304.192 403.702 304.505 404.308 305.062C404.913 305.619 405.253 306.375 405.253 307.164C405.253 307.952 404.913 308.708 404.308 309.265C403.702 309.822 402.881 310.135 402.025 310.135C401.169 310.135 400.348 309.822 399.743 309.265C399.137 308.708 398.797 307.952 398.797 307.164C398.797 306.375 399.137 305.619 399.742 305.062C400.348 304.505 401.169 304.192 402.025 304.192Z" fill="#E9EEF4"/>
<path d="M385.003 292.105C385.86 292.105 386.681 292.418 387.286 292.976C387.891 293.533 388.231 294.289 388.231 295.077C388.231 295.865 387.891 296.621 387.286 297.178C386.68 297.736 385.859 298.049 385.003 298.049C384.147 298.049 383.326 297.736 382.721 297.178C382.115 296.621 381.775 295.865 381.775 295.077C381.775 294.289 382.115 293.533 382.721 292.976C383.326 292.418 384.147 292.105 385.003 292.105Z" fill="#E9EEF4"/>
<path d="M379.584 310.426C380.44 310.426 381.261 310.739 381.866 311.296C382.472 311.854 382.812 312.609 382.812 313.398C382.812 314.186 382.472 314.942 381.866 315.499C381.261 316.056 380.44 316.369 379.584 316.369C378.727 316.369 377.906 316.056 377.301 315.499C376.696 314.942 376.355 314.186 376.355 313.398C376.355 312.609 376.696 311.854 377.301 311.296C377.906 310.739 378.728 310.426 379.584 310.426Z" fill="#E9EEF4"/>
<path d="M412.529 285.234C413.385 285.234 414.206 285.547 414.811 286.105C415.416 286.662 415.757 287.418 415.757 288.206C415.757 288.994 415.416 289.75 414.811 290.308C414.206 290.865 413.385 291.178 412.528 291.178C411.672 291.178 410.851 290.865 410.246 290.308C409.64 289.75 409.3 288.994 409.3 288.206C409.3 287.418 409.64 286.662 410.246 286.105C410.851 285.547 411.672 285.234 412.529 285.234Z" fill="#E9EEF4"/>
<path d="M387.012 380.629C387.869 380.629 388.69 380.942 389.295 381.5C389.9 382.057 390.24 382.813 390.24 383.601C390.24 384.389 389.9 385.145 389.295 385.702C388.69 386.26 387.868 386.573 387.012 386.573C386.156 386.573 385.335 386.26 384.73 385.702C384.124 385.145 383.784 384.389 383.784 383.601C383.784 382.813 384.124 382.057 384.73 381.5C385.335 380.942 386.156 380.629 387.012 380.629Z" fill="#E9EEF4"/>
<path d="M382.777 135.902C383.633 135.902 384.455 136.215 385.06 136.773C385.665 137.33 386.005 138.086 386.005 138.874C386.005 139.662 385.665 140.418 385.06 140.976C384.454 141.533 383.633 141.846 382.777 141.846C381.921 141.846 381.1 141.533 380.495 140.976C379.889 140.418 379.549 139.662 379.549 138.874C379.549 138.086 379.889 137.33 380.494 136.773C381.1 136.215 381.921 135.902 382.777 135.902Z" fill="#E9EEF4"/>
<path d="M415.094 148.332C415.95 148.332 416.771 148.645 417.376 149.202C417.982 149.76 418.322 150.516 418.322 151.304C418.322 152.092 417.981 152.848 417.376 153.405C416.771 153.962 415.95 154.276 415.093 154.276C414.237 154.276 413.416 153.962 412.811 153.405C412.205 152.848 411.865 152.092 411.865 151.304C411.865 150.516 412.205 149.76 412.811 149.202C413.416 148.645 414.238 148.332 415.094 148.332Z" fill="#E9EEF4"/>
<path d="M394.888 263.831C395.744 263.831 396.565 264.144 397.17 264.702C397.776 265.259 398.116 266.015 398.116 266.803C398.116 267.591 397.776 268.347 397.17 268.904C396.565 269.462 395.744 269.775 394.888 269.775C394.032 269.775 393.21 269.462 392.605 268.904C392 268.347 391.66 267.591 391.66 266.803C391.66 266.015 392 265.259 392.605 264.702C393.21 264.144 394.032 263.831 394.888 263.831Z" fill="#E9EEF4"/>
<path d="M335.075 179.856C335.931 179.856 336.752 180.169 337.357 180.726C337.963 181.284 338.303 182.04 338.303 182.828C338.303 183.616 337.963 184.372 337.357 184.929C336.752 185.487 335.931 185.8 335.075 185.8C334.218 185.8 333.397 185.487 332.792 184.929C332.187 184.372 331.846 183.616 331.846 182.828C331.846 182.04 332.186 181.284 332.792 180.726C333.397 180.169 334.219 179.856 335.075 179.856Z" fill="#E9EEF4"/>
<defs>
<clipPath id="clip0_15045_56157">
<rect y="0.208984" width="914" height="24" rx="2" fill="white"/>
</clipPath>
</defs>
</svg>
