<svg xmlns="http://www.w3.org/2000/svg" width="200" height="189" viewBox="0 0 200 189" fill="none">
  <circle cx="102.857" cy="108.572" r="11.4286" fill="#262C34"/>
  <circle cx="40.4286" cy="170.429" r="11.4286" fill="#262C34"/>
  <circle cx="170.429" cy="158.429" r="11.4286" fill="#262C34"/>
  <circle cx="131.429" cy="17.1415" r="11.4286" fill="#262C34"/>
  <circle cx="68.5721" cy="17.1415" r="11.4286" fill="#262C34"/>
  <circle cx="57" cy="61" r="6" fill="#DFE3E5"/>
  <circle cx="16" cy="113" r="6" fill="#262C34"/>
  <circle cx="16" cy="113" r="6" fill="#262C34"/>
  <circle cx="153" cy="58" r="6" fill="#262C34"/>
  <circle cx="107" cy="183" r="6" fill="#262C34"/>
  <circle cx="62" cy="116" r="6" fill="#262C34"/>
  <line x1="102.616" y1="61.5234" x2="102.616" y2="16.1895" stroke="#262C34" stroke-width="2"/>
  <line x1="102.842" y1="55.6821" x2="73.6985" y2="20.0625" stroke="#262C34" stroke-width="2"/>
  <line x1="101.055" y1="57.4969" x2="56.0552" y2="62.4969" stroke="#262C34"/>
  <line x1="16.7393" y1="113.573" x2="52.7393" y2="91.5734" stroke="#262C34"/>
  <line x1="62.5385" y1="116.192" x2="52.5385" y2="92.1923" stroke="#262C34"/>
  <line x1="80.3659" y1="153.659" x2="107.366" y2="182.659" stroke="#262C34"/>
  <line x1="148.505" y1="88.9293" x2="152.505" y2="60.9293" stroke="#262C34"/>
  <line x1="106.092" y1="54.006" x2="135.236" y2="18.7943" stroke="#262C34" stroke-width="2"/>
  <line x1="102.616" y1="103.618" x2="102.616" y2="67.9986" stroke="#262C34" stroke-width="2"/>
  <line x1="188.14" y1="75.4225" x2="103.948" y2="104.566" stroke="#262C34" stroke-width="2"/>
  <line x1="101.285" y1="110.514" x2="80.9071" y2="154.421" stroke="#262C34" stroke-width="2"/>
  <line x1="39.5896" y1="171.088" x2="79.5896" y2="153.088" stroke="#262C34" stroke-width="2"/>
  <line x1="96.8926" y1="104.586" x2="9.46278" y2="81.9192" stroke="#262C34" stroke-width="2"/>
  <line x1="130.161" y1="149.545" x2="102.786" y2="107.401" stroke="#262C34" stroke-width="2"/>
  <line x1="131.225" y1="148.026" x2="170.225" y2="157.026" stroke="#262C34" stroke-width="2"/>
  <circle cx="188.572" cy="74.285" r="11.4286" fill="#ADB5BD"/>
  <circle cx="102.857" cy="11.4286" r="11.4286" fill="#868E96"/>
  <circle cx="11.4286" cy="82.6688" r="11.4286" fill="#ADB5BD"/>
  <circle cx="102.857" cy="57.1415" r="11.4286" fill="#868E96"/>
  <circle cx="148.572" cy="91.4286" r="11.4286" fill="#868E96"/>
  <circle cx="131.429" cy="148.572" r="11.4286" fill="#868E96"/>
  <circle cx="79.4315" cy="153.899" r="11.4286" fill="#868E96"/>
  <circle cx="51.4286" cy="91.4286" r="11.4286" fill="#868E96"/>
  <circle cx="16" cy="113" r="6" fill="#ADB5BD"/>
  <circle cx="56" cy="62" r="6" fill="#252C34"/>
</svg>