<svg width="200" height="190" viewBox="0 0 200 190" fill="none" xmlns="http://www.w3.org/2000/svg">
<circle cx="102.856" cy="109.334" r="11.4286" fill="#262C34"/>
<circle cx="40.4286" cy="171.191" r="11.4286" fill="#262C34"/>
<circle cx="170.429" cy="159.191" r="11.4286" fill="#262C34"/>
<circle cx="131.429" cy="17.9034" r="11.4286" fill="#262C34"/>
<circle cx="68.5731" cy="17.9034" r="11.4286" fill="#262C34"/>
<circle cx="57" cy="61.762" r="6" fill="#DFE3E5"/>
<circle cx="16" cy="113.762" r="6" fill="#262C34"/>
<circle cx="16" cy="113.762" r="6" fill="#262C34"/>
<circle cx="153" cy="58.762" r="6" fill="#262C34"/>
<circle cx="107" cy="183.762" r="6" fill="#262C34"/>
<circle cx="62" cy="116.762" r="6" fill="#262C34"/>
<line x1="102.615" y1="62.2854" x2="102.615" y2="16.9514" stroke="#262C34" stroke-width="2"/>
<line x1="102.841" y1="56.444" x2="73.698" y2="20.8245" stroke="#262C34" stroke-width="2"/>
<line x1="101.055" y1="58.2589" x2="56.0552" y2="63.2589" stroke="#262C34"/>
<line x1="16.7393" y1="114.335" x2="52.7393" y2="92.3353" stroke="#262C34"/>
<line x1="62.5385" y1="116.954" x2="52.5385" y2="92.9543" stroke="#262C34"/>
<line x1="80.3659" y1="154.421" x2="107.366" y2="183.421" stroke="#262C34"/>
<line x1="148.505" y1="89.6913" x2="152.505" y2="61.6912" stroke="#262C34"/>
<line x1="106.093" y1="54.7679" x2="135.236" y2="19.5563" stroke="#262C34" stroke-width="2"/>
<line x1="102.615" y1="104.38" x2="102.615" y2="68.7606" stroke="#262C34" stroke-width="2"/>
<line x1="188.14" y1="76.1845" x2="103.948" y2="105.328" stroke="#262C34" stroke-width="2"/>
<line x1="101.286" y1="111.276" x2="80.9076" y2="155.183" stroke="#262C34" stroke-width="2"/>
<line x1="39.5896" y1="171.85" x2="79.5896" y2="153.85" stroke="#262C34" stroke-width="2"/>
<line x1="96.8936" y1="105.348" x2="9.46376" y2="82.6811" stroke="#262C34" stroke-width="2"/>
<line x1="130.161" y1="150.307" x2="102.786" y2="108.163" stroke="#262C34" stroke-width="2"/>
<line x1="131.225" y1="148.788" x2="170.225" y2="157.788" stroke="#262C34" stroke-width="2"/>
<circle cx="188.573" cy="75.047" r="11.4286" fill="#ADB5BD"/>
<circle cx="102.856" cy="12.1905" r="11.4286" fill="#868E96"/>
<circle cx="11.4286" cy="83.4308" r="11.4286" fill="#ADB5BD"/>
<circle cx="102.856" cy="57.9034" r="11.4286" fill="#868E96"/>
<circle cx="148.573" cy="92.1905" r="11.4286" fill="#868E96"/>
<circle cx="131.429" cy="149.334" r="11.4286" fill="#868E96"/>
<circle cx="79.4325" cy="154.661" r="11.4286" fill="#868E96"/>
<circle cx="51.4286" cy="92.1905" r="11.4286" fill="#868E96"/>
<circle cx="16" cy="113.762" r="6" fill="#ADB5BD"/>
<circle cx="56" cy="62.762" r="6" fill="#252C34"/>
</svg>
