<svg xmlns="http://www.w3.org/2000/svg" width="200" height="182" viewBox="0 0 200 182" fill="none">
  <circle cx="120.949" cy="39.6984" r="28.1252" transform="rotate(-48.5555 120.949 39.6984)" fill="#252C34"/>
  <circle cx="143.753" cy="143.757" r="31.2502" transform="rotate(90 143.753 143.757)" fill="#ADB5BD"/>
  <circle cx="67.4616" cy="105.201" r="31.2502" transform="rotate(-120 67.4616 105.201)" fill="#868E96"/>
  <circle cx="140.805" cy="84.5591" r="15.6251" transform="rotate(-48.5555 140.805 84.5591)" fill="#868E96"/>
  <circle cx="67.0542" cy="47.0562" r="15.6251" transform="rotate(-48.5555 67.0542 47.0562)" fill="#868E96"/>
  <circle cx="172.055" cy="40.8091" r="15.6251" transform="rotate(-48.5555 172.055 40.8091)" fill="#ADB5BD"/>
  <ellipse cx="181.253" cy="112.506" rx="12.5001" ry="12.5001" transform="rotate(90 181.253 112.506)" fill="#252C34"/>
  <ellipse cx="50.6132" cy="151.009" rx="12.5001" ry="12.5001" transform="rotate(-120 50.6132 151.009)" fill="#868E96"/>
  <ellipse cx="187.5" cy="168.762" rx="12.5001" ry="12.5001" transform="rotate(90 187.5 168.762)" fill="#ADB5BD"/>
  <ellipse cx="17.0753" cy="105.418" rx="12.5001" ry="12.5001" transform="rotate(-120 17.0753 105.418)" fill="#252C34"/>
  <ellipse cx="37.0749" cy="62.0785" rx="12.5001" ry="12.5001" transform="rotate(-120 37.0749 62.0785)" fill="#252C34"/>
  <ellipse cx="37.0749" cy="22.0767" rx="12.5001" ry="12.5001" transform="rotate(-120 37.0749 22.0767)" fill="#ADB5BD"/>
</svg>