<svg width="200" height="182" viewBox="0 0 200 182" fill="none" xmlns="http://www.w3.org/2000/svg">
<circle cx="120.948" cy="40.3292" r="28.1252" transform="rotate(-48.5555 120.948 40.3292)" fill="#252C34"/>
<circle cx="143.754" cy="144.387" r="31.2502" transform="rotate(90 143.754 144.387)" fill="#ADB5BD"/>
<circle cx="67.4618" cy="105.832" r="31.2502" transform="rotate(-120 67.4618 105.832)" fill="#868E96"/>
<circle cx="140.805" cy="85.1899" r="15.6251" transform="rotate(-48.5555 140.805 85.1899)" fill="#868E96"/>
<circle cx="67.0547" cy="47.687" r="15.6251" transform="rotate(-48.5555 67.0547 47.687)" fill="#868E96"/>
<circle cx="172.055" cy="41.4399" r="15.6251" transform="rotate(-48.5555 172.055 41.4399)" fill="#ADB5BD"/>
<ellipse cx="181.254" cy="113.137" rx="12.5001" ry="12.5001" transform="rotate(90 181.254 113.137)" fill="#252C34"/>
<ellipse cx="50.6125" cy="151.64" rx="12.5001" ry="12.5001" transform="rotate(-120 50.6125 151.64)" fill="#868E96"/>
<ellipse cx="187.5" cy="169.393" rx="12.5001" ry="12.5001" transform="rotate(90 187.5 169.393)" fill="#ADB5BD"/>
<ellipse cx="17.0753" cy="106.049" rx="12.5001" ry="12.5001" transform="rotate(-120 17.0753 106.049)" fill="#252C34"/>
<ellipse cx="37.0753" cy="62.7093" rx="12.5001" ry="12.5001" transform="rotate(-120 37.0753 62.7093)" fill="#252C34"/>
<ellipse cx="37.0753" cy="22.7075" rx="12.5001" ry="12.5001" transform="rotate(-120 37.0753 22.7075)" fill="#ADB5BD"/>
</svg>
