<svg width="587" height="520" viewBox="0 0 587 520" fill="none" xmlns="http://www.w3.org/2000/svg">
<path d="M552.638 326.016L493.24 319.202" stroke="#EBEBEB" stroke-opacity="0.5" stroke-width="0.999636"/>
<path d="M416.126 328.515L493.24 319.202" stroke="#EBEBEB" stroke-opacity="0.5" stroke-width="0.999636"/>
<path d="M420.1 295.92L493.24 319.202" stroke="#EBEBEB" stroke-opacity="0.5" stroke-width="0.999636"/>
<path d="M420.101 295.92L416.126 328.515" stroke="#EBEBEB" stroke-opacity="0.5" stroke-width="0.999636"/>
<path d="M531.4 246.63L493.24 319.202" stroke="#EBEBEB" stroke-opacity="0.5" stroke-width="0.999636"/>
<path d="M524.926 389.956L493.24 319.201" stroke="#EBEBEB" stroke-opacity="0.5" stroke-width="0.999636"/>
<path d="M557.294 269.231L493.24 319.202" stroke="#EBEBEB" stroke-opacity="0.5" stroke-width="0.999636"/>
<path d="M556.953 378.372L493.24 319.202" stroke="#EBEBEB" stroke-opacity="0.5" stroke-width="0.999636"/>
<path d="M581.144 297.396L493.24 319.202" stroke="#EBEBEB" stroke-opacity="0.5" stroke-width="0.999636"/>
<path d="M583.302 347.594L493.24 319.202" stroke="#EBEBEB" stroke-opacity="0.5" stroke-width="0.999636"/>
<path d="M264.281 311.82L493.239 319.202" stroke="#EBEBEB" stroke-opacity="0.5" stroke-width="0.999636"/>
<path d="M264.281 311.82L416.125 328.515" stroke="#EBEBEB" stroke-opacity="0.5" stroke-width="0.999636"/>
<path d="M264.281 311.82L420.1 295.92" stroke="#EBEBEB" stroke-opacity="0.5" stroke-width="0.999636"/>
<path d="M264.281 311.82L338.329 217.556" stroke="#EBEBEB" stroke-opacity="0.5" stroke-width="0.999636"/>
<path d="M260.079 420.28L264.281 311.819" stroke="#EBEBEB" stroke-opacity="0.5" stroke-width="0.999636"/>
<path d="M355.705 257.192L264.281 311.82" stroke="#EBEBEB" stroke-opacity="0.5" stroke-width="0.999636"/>
<path d="M390.117 251.513L264.281 311.82" stroke="#EBEBEB" stroke-opacity="0.5" stroke-width="0.999636"/>
<path d="M375.807 211.309L264.281 311.82" stroke="#EBEBEB" stroke-opacity="0.5" stroke-width="0.999636"/>
<path d="M164.339 479.904L140.375 428.456" stroke="#EBEBEB" stroke-opacity="0.5" stroke-width="0.999636"/>
<path d="M123.34 469.797L140.375 428.457" stroke="#EBEBEB" stroke-opacity="0.5" stroke-width="0.999636"/>
<path d="M123.34 469.796L164.339 479.904" stroke="#EBEBEB" stroke-opacity="0.5" stroke-width="0.999636"/>
<path d="M141.284 487.627L140.375 428.457" stroke="#EBEBEB" stroke-opacity="0.5" stroke-width="0.999636"/>
<path d="M141.284 487.627L164.339 479.904" stroke="#EBEBEB" stroke-opacity="0.5" stroke-width="0.999636"/>
<path d="M141.284 487.627L123.34 469.796" stroke="#EBEBEB" stroke-opacity="0.5" stroke-width="0.999636"/>
<path d="M164.566 507.729L140.375 428.456" stroke="#EBEBEB" stroke-opacity="0.5" stroke-width="0.999636"/>
<path d="M164.452 507.729L164.452 479.904" stroke="#EBEBEB" stroke-opacity="0.5" stroke-width="0.999636"/>
<path d="M164.566 507.729L123.34 469.796" stroke="#EBEBEB" stroke-opacity="0.5" stroke-width="0.999636"/>
<path d="M164.566 507.729L141.284 487.627" stroke="#EBEBEB" stroke-opacity="0.5" stroke-width="0.999636"/>
<path d="M112.778 495.237L140.375 428.457" stroke="#EBEBEB" stroke-opacity="0.5" stroke-width="0.999636"/>
<path d="M112.778 495.237L164.339 479.905" stroke="#EBEBEB" stroke-opacity="0.5" stroke-width="0.999636"/>
<path d="M112.778 495.237L123.34 469.797" stroke="#EBEBEB" stroke-opacity="0.5" stroke-width="0.999636"/>
<path d="M112.778 495.237L141.284 487.627" stroke="#EBEBEB" stroke-opacity="0.5" stroke-width="0.999636"/>
<path d="M112.778 495.236L164.566 507.729" stroke="#EBEBEB" stroke-opacity="0.5" stroke-width="0.999636"/>
<path d="M135.833 516.02L140.376 428.457" stroke="#EBEBEB" stroke-opacity="0.5" stroke-width="0.999636"/>
<path d="M135.833 516.02L164.339 479.904" stroke="#EBEBEB" stroke-opacity="0.5" stroke-width="0.999636"/>
<path d="M135.833 516.02L123.34 469.796" stroke="#EBEBEB" stroke-opacity="0.5" stroke-width="0.999636"/>
<path d="M135.833 516.02L141.284 487.627" stroke="#EBEBEB" stroke-opacity="0.5" stroke-width="0.999636"/>
<path d="M135.833 516.02L164.566 507.729" stroke="#EBEBEB" stroke-opacity="0.5" stroke-width="0.999636"/>
<path d="M135.833 516.02L112.778 495.236" stroke="#EBEBEB" stroke-opacity="0.5" stroke-width="0.999636"/>
<path d="M191.709 420.166L264.281 311.819" stroke="#EBEBEB" stroke-opacity="0.5" stroke-width="0.999636"/>
<path d="M191.709 420.052L260.079 420.052" stroke="#EBEBEB" stroke-opacity="0.5" stroke-width="0.999636"/>
<path d="M191.709 420.166L140.375 428.457" stroke="#EBEBEB" stroke-opacity="0.5" stroke-width="0.999636"/>
<path d="M191.709 420.166L164.338 479.904" stroke="#EBEBEB" stroke-opacity="0.5" stroke-width="0.999636"/>
<path d="M191.709 420.166L123.34 469.797" stroke="#EBEBEB" stroke-opacity="0.5" stroke-width="0.999636"/>
<path d="M191.71 420.166L141.284 487.627" stroke="#EBEBEB" stroke-opacity="0.5" stroke-width="0.999636"/>
<path d="M191.709 420.166L164.566 507.729" stroke="#EBEBEB" stroke-opacity="0.5" stroke-width="0.999636"/>
<path d="M191.709 420.166L112.778 495.237" stroke="#EBEBEB" stroke-opacity="0.5" stroke-width="0.999636"/>
<path d="M191.71 420.166L135.833 516.02" stroke="#EBEBEB" stroke-opacity="0.5" stroke-width="0.999636"/>
<path d="M187.621 315.794L264.281 311.819" stroke="#EBEBEB" stroke-opacity="0.5" stroke-width="0.999636"/>
<path d="M187.621 315.794L191.71 420.166" stroke="#EBEBEB" stroke-opacity="0.5" stroke-width="0.999636"/>
<path d="M175.242 277.521L264.281 311.82" stroke="#EBEBEB" stroke-opacity="0.5" stroke-width="0.999636"/>
<path d="M175.242 277.521L191.71 420.166" stroke="#EBEBEB" stroke-opacity="0.5" stroke-width="0.999636"/>
<path d="M175.242 277.521L187.621 315.794" stroke="#EBEBEB" stroke-opacity="0.5" stroke-width="0.999636"/>
<path d="M169.563 341.234L264.281 311.819" stroke="#EBEBEB" stroke-opacity="0.5" stroke-width="0.999636"/>
<path d="M169.563 341.234L140.375 428.457" stroke="#EBEBEB" stroke-opacity="0.5" stroke-width="0.999636"/>
<path d="M169.563 341.234L187.621 315.794" stroke="#EBEBEB" stroke-opacity="0.5" stroke-width="0.999636"/>
<path d="M169.563 341.234L175.242 277.521" stroke="#EBEBEB" stroke-opacity="0.5" stroke-width="0.999636"/>
<path d="M235.548 309.548L264.281 311.82" stroke="#EBEBEB" stroke-opacity="0.5" stroke-width="0.999636"/>
<path d="M235.548 309.548L191.709 420.166" stroke="#EBEBEB" stroke-opacity="0.5" stroke-width="0.999636"/>
<path d="M235.548 309.548L187.621 315.794" stroke="#EBEBEB" stroke-opacity="0.5" stroke-width="0.999636"/>
<path d="M235.548 309.548L175.242 277.521" stroke="#EBEBEB" stroke-opacity="0.5" stroke-width="0.999636"/>
<path d="M235.548 309.548L169.563 341.234" stroke="#EBEBEB" stroke-opacity="0.5" stroke-width="0.999636"/>
<path d="M344.462 360.428L264.281 311.819" stroke="#EBEBEB" stroke-opacity="0.5" stroke-width="0.999636"/>
<path d="M344.462 360.428L235.548 309.548" stroke="#EBEBEB" stroke-opacity="0.5" stroke-width="0.999636"/>
<path d="M286.427 391.887L264.281 311.819" stroke="#EBEBEB" stroke-opacity="0.5" stroke-width="0.999636"/>
<path d="M286.427 391.887L191.709 420.166" stroke="#EBEBEB" stroke-opacity="0.5" stroke-width="0.999636"/>
<path d="M286.427 391.887L235.548 309.548" stroke="#EBEBEB" stroke-opacity="0.5" stroke-width="0.999636"/>
<path d="M230.891 488.649L191.709 420.166" stroke="#EBEBEB" stroke-opacity="0.5" stroke-width="0.999636"/>
<path d="M236.343 408.922L264.281 311.819" stroke="#EBEBEB" stroke-opacity="0.5" stroke-width="0.999636"/>
<path d="M236.343 408.922L191.709 420.166" stroke="#EBEBEB" stroke-opacity="0.5" stroke-width="0.999636"/>
<path d="M236.343 408.922L235.548 309.548" stroke="#EBEBEB" stroke-opacity="0.5" stroke-width="0.999636"/>
<path d="M236.343 408.922L230.892 488.649" stroke="#EBEBEB" stroke-opacity="0.5" stroke-width="0.999636"/>
<path d="M366.381 303.529L264.281 311.82" stroke="#EBEBEB" stroke-opacity="0.5" stroke-width="0.999636"/>
<path d="M313.116 295.352L264.281 311.82" stroke="#EBEBEB" stroke-opacity="0.5" stroke-width="0.999636"/>
<path d="M313.116 295.351L235.548 309.548" stroke="#EBEBEB" stroke-opacity="0.5" stroke-width="0.999636"/>
<path d="M318.34 393.477L264.281 311.819" stroke="#EBEBEB" stroke-opacity="0.5" stroke-width="0.999636"/>
<path d="M318.341 393.477L286.428 391.887" stroke="#EBEBEB" stroke-opacity="0.5" stroke-width="0.999636"/>
<path d="M343.326 390.751L264.281 311.82" stroke="#EBEBEB" stroke-opacity="0.5" stroke-width="0.999636"/>
<path d="M343.327 390.751L286.428 391.887" stroke="#EBEBEB" stroke-opacity="0.5" stroke-width="0.999636"/>
<path d="M343.326 390.751L318.341 393.477" stroke="#EBEBEB" stroke-opacity="0.5" stroke-width="0.999636"/>
<path d="M307.665 425.39L264.281 311.82" stroke="#EBEBEB" stroke-opacity="0.5" stroke-width="0.999636"/>
<path d="M307.665 425.39L286.428 391.887" stroke="#EBEBEB" stroke-opacity="0.5" stroke-width="0.999636"/>
<path d="M307.665 425.39L318.341 393.477" stroke="#EBEBEB" stroke-opacity="0.5" stroke-width="0.999636"/>
<path d="M307.665 425.39L343.326 390.751" stroke="#EBEBEB" stroke-opacity="0.5" stroke-width="0.999636"/>
<path d="M349.572 417.781L264.281 311.819" stroke="#EBEBEB" stroke-opacity="0.5" stroke-width="0.999636"/>
<path d="M349.573 417.781L286.428 391.887" stroke="#EBEBEB" stroke-opacity="0.5" stroke-width="0.999636"/>
<path d="M349.573 417.781L318.341 393.477" stroke="#EBEBEB" stroke-opacity="0.5" stroke-width="0.999636"/>
<path d="M349.572 417.781L343.326 390.751" stroke="#EBEBEB" stroke-opacity="0.5" stroke-width="0.999636"/>
<path d="M349.573 417.781L307.665 425.39" stroke="#EBEBEB" stroke-opacity="0.5" stroke-width="0.999636"/>
<path d="M330.265 438.564L264.281 311.819" stroke="#EBEBEB" stroke-opacity="0.5" stroke-width="0.999636"/>
<path d="M330.266 438.564L286.428 391.887" stroke="#EBEBEB" stroke-opacity="0.5" stroke-width="0.999636"/>
<path d="M330.266 438.564L318.341 393.477" stroke="#EBEBEB" stroke-opacity="0.5" stroke-width="0.999636"/>
<path d="M330.266 438.564L343.327 390.751" stroke="#EBEBEB" stroke-opacity="0.5" stroke-width="0.999636"/>
<path d="M330.266 438.564L307.665 425.39" stroke="#EBEBEB" stroke-opacity="0.5" stroke-width="0.999636"/>
<path d="M330.266 438.564L349.573 417.781" stroke="#EBEBEB" stroke-opacity="0.5" stroke-width="0.999636"/>
<path d="M65.3051 276.158L175.242 277.521" stroke="#EBEBEB" stroke-opacity="0.5" stroke-width="0.999636"/>
<path d="M44.8623 239.702L175.242 277.521" stroke="#EBEBEB" stroke-opacity="0.5" stroke-width="0.999636"/>
<path d="M175.696 240.383L187.621 315.794" stroke="#EBEBEB" stroke-opacity="0.5" stroke-width="0.999636"/>
<path d="M175.696 240.383L175.242 277.521" stroke="#EBEBEB" stroke-opacity="0.5" stroke-width="0.999636"/>
<path d="M124.362 280.701L187.621 315.794" stroke="#EBEBEB" stroke-opacity="0.5" stroke-width="0.999636"/>
<path d="M124.362 280.701L175.241 277.521" stroke="#EBEBEB" stroke-opacity="0.5" stroke-width="0.999636"/>
<path d="M124.362 280.701L175.696 240.383" stroke="#EBEBEB" stroke-opacity="0.5" stroke-width="0.999636"/>
<path d="M242.248 365.084L264.281 311.819" stroke="#EBEBEB" stroke-opacity="0.5" stroke-width="0.999636"/>
<path d="M242.248 365.084L169.563 341.234" stroke="#EBEBEB" stroke-opacity="0.5" stroke-width="0.999636"/>
<path d="M242.248 365.084L235.548 309.548" stroke="#EBEBEB" stroke-opacity="0.5" stroke-width="0.999636"/>
<path d="M385.915 371.558L264.281 311.819" stroke="#EBEBEB" stroke-opacity="0.5" stroke-width="0.999636"/>
<path d="M385.916 371.558L344.462 360.428" stroke="#EBEBEB" stroke-opacity="0.5" stroke-width="0.999636"/>
<path d="M417.488 445.492L344.462 360.428" stroke="#EBEBEB" stroke-opacity="0.5" stroke-width="0.999636"/>
<path d="M296.99 68.0968L343.44 4.04288" stroke="#EBEBEB" stroke-opacity="0.5" stroke-width="0.999636"/>
<path d="M205.679 177.011L264.281 311.82" stroke="#EBEBEB" stroke-opacity="0.5" stroke-width="0.999636"/>
<path d="M205.679 177.011L175.242 277.521" stroke="#EBEBEB" stroke-opacity="0.5" stroke-width="0.999636"/>
<path d="M205.679 177.011L235.548 309.548" stroke="#EBEBEB" stroke-opacity="0.5" stroke-width="0.999636"/>
<path d="M205.679 177.011L296.99 68.0964" stroke="#EBEBEB" stroke-opacity="0.5" stroke-width="0.999636"/>
<path d="M133.902 326.698L264.281 311.82" stroke="#EBEBEB" stroke-opacity="0.5" stroke-width="0.999636"/>
<path d="M133.902 326.697L169.563 341.234" stroke="#EBEBEB" stroke-opacity="0.5" stroke-width="0.999636"/>
<path d="M105.054 377.804L187.62 315.795" stroke="#EBEBEB" stroke-opacity="0.5" stroke-width="0.999636"/>
<path d="M105.054 377.804L133.901 326.697" stroke="#EBEBEB" stroke-opacity="0.5" stroke-width="0.999636"/>
<path d="M99.9443 343.733L264.281 311.819" stroke="#EBEBEB" stroke-opacity="0.5" stroke-width="0.999636"/>
<path d="M99.9443 343.733L169.563 341.234" stroke="#EBEBEB" stroke-opacity="0.5" stroke-width="0.999636"/>
<path d="M99.9443 343.733L133.902 326.697" stroke="#EBEBEB" stroke-opacity="0.5" stroke-width="0.999636"/>
<path d="M10.5642 325.448L65.3053 276.159" stroke="#EBEBEB" stroke-opacity="0.5" stroke-width="0.999636"/>
<path d="M10.5642 325.448L99.9444 343.733" stroke="#EBEBEB" stroke-opacity="0.5" stroke-width="0.999636"/>
<path d="M3.63626 392.227L99.9443 343.733" stroke="#EBEBEB" stroke-opacity="0.5" stroke-width="0.999636"/>
<path d="M93.3567 313.636L169.563 341.234" stroke="#EBEBEB" stroke-opacity="0.5" stroke-width="0.999636"/>
<path d="M93.3567 313.637L133.902 326.698" stroke="#EBEBEB" stroke-opacity="0.5" stroke-width="0.999636"/>
<path d="M93.3567 313.636L99.9438 343.733" stroke="#EBEBEB" stroke-opacity="0.5" stroke-width="0.999636"/>
<path d="M137.764 245.267L264.281 311.82" stroke="#EBEBEB" stroke-opacity="0.5" stroke-width="0.999636"/>
<path d="M137.764 245.267L140.376 428.457" stroke="#EBEBEB" stroke-opacity="0.5" stroke-width="0.999636"/>
<path d="M137.764 245.267L175.242 277.521" stroke="#EBEBEB" stroke-opacity="0.5" stroke-width="0.999636"/>
<path d="M137.764 245.267L169.563 341.234" stroke="#EBEBEB" stroke-opacity="0.5" stroke-width="0.999636"/>
<path d="M137.763 245.267L65.3051 276.158" stroke="#EBEBEB" stroke-opacity="0.5" stroke-width="0.999636"/>
<path d="M137.764 245.267L175.696 240.384" stroke="#EBEBEB" stroke-opacity="0.5" stroke-width="0.999636"/>
<path d="M137.764 245.267L205.679 177.011" stroke="#EBEBEB" stroke-opacity="0.5" stroke-width="0.999636"/>
<path d="M137.763 245.267L133.902 326.698" stroke="#EBEBEB" stroke-opacity="0.5" stroke-width="0.999636"/>
<path d="M137.763 245.267L99.9443 343.733" stroke="#EBEBEB" stroke-opacity="0.5" stroke-width="0.999636"/>
<path d="M137.763 245.267L93.3567 313.637" stroke="#EBEBEB" stroke-opacity="0.5" stroke-width="0.999636"/>
<path d="M55.4245 305.119L133.902 326.698" stroke="#EBEBEB" stroke-opacity="0.5" stroke-width="0.999636"/>
<path d="M55.4245 305.119L137.763 245.267" stroke="#EBEBEB" stroke-opacity="0.5" stroke-width="0.999636"/>
<path d="M111.982 184.961L175.696 240.384" stroke="#EBEBEB" stroke-opacity="0.5" stroke-width="0.999636"/>
<path d="M111.982 184.961L205.678 177.011" stroke="#EBEBEB" stroke-opacity="0.5" stroke-width="0.999636"/>
<path d="M111.982 184.961L137.763 245.267" stroke="#EBEBEB" stroke-opacity="0.5" stroke-width="0.999636"/>
<path d="M176.831 204.041L264.281 311.82" stroke="#EBEBEB" stroke-opacity="0.5" stroke-width="0.999636"/>
<path d="M176.831 204.04L235.548 309.548" stroke="#EBEBEB" stroke-opacity="0.5" stroke-width="0.999636"/>
<path d="M176.831 204.041L205.678 177.011" stroke="#EBEBEB" stroke-opacity="0.5" stroke-width="0.999636"/>
<path d="M176.832 204.041L137.764 245.267" stroke="#EBEBEB" stroke-opacity="0.5" stroke-width="0.999636"/>
<path d="M176.831 204.041L111.982 184.961" stroke="#EBEBEB" stroke-opacity="0.5" stroke-width="0.999636"/>
<path d="M165.02 160.543L205.678 177.011" stroke="#EBEBEB" stroke-opacity="0.5" stroke-width="0.999636"/>
<path d="M165.021 160.544L137.764 245.267" stroke="#EBEBEB" stroke-opacity="0.5" stroke-width="0.999636"/>
<path d="M165.02 160.543L111.982 184.961" stroke="#EBEBEB" stroke-opacity="0.5" stroke-width="0.999636"/>
<path d="M165.02 160.543L176.831 204.041" stroke="#EBEBEB" stroke-opacity="0.5" stroke-width="0.999636"/>
<path d="M165.361 131.469L205.679 177.011" stroke="#EBEBEB" stroke-opacity="0.5" stroke-width="0.999636"/>
<path d="M165.361 131.469L176.832 204.041" stroke="#EBEBEB" stroke-opacity="0.5" stroke-width="0.999636"/>
<path d="M165.361 131.469L165.02 160.543" stroke="#EBEBEB" stroke-opacity="0.5" stroke-width="0.999636"/>
<path d="M133.788 176.329L205.679 177.011" stroke="#EBEBEB" stroke-opacity="0.5" stroke-width="0.999636"/>
<path d="M133.788 176.33L137.763 245.267" stroke="#EBEBEB" stroke-opacity="0.5" stroke-width="0.999636"/>
<path d="M133.788 176.329L111.982 184.961" stroke="#EBEBEB" stroke-opacity="0.5" stroke-width="0.999636"/>
<path d="M133.788 176.329L176.832 204.041" stroke="#EBEBEB" stroke-opacity="0.5" stroke-width="0.999636"/>
<path d="M133.788 176.329L165.02 160.543" stroke="#EBEBEB" stroke-opacity="0.5" stroke-width="0.999636"/>
<path d="M133.788 176.329L165.361 131.469" stroke="#EBEBEB" stroke-opacity="0.5" stroke-width="0.999636"/>
<path d="M152.187 180.078L175.696 240.384" stroke="#EBEBEB" stroke-opacity="0.5" stroke-width="0.999636"/>
<path d="M152.187 180.077L205.678 177.011" stroke="#EBEBEB" stroke-opacity="0.5" stroke-width="0.999636"/>
<path d="M152.187 180.078L137.764 245.267" stroke="#EBEBEB" stroke-opacity="0.5" stroke-width="0.999636"/>
<path d="M152.187 180.077L111.982 184.961" stroke="#EBEBEB" stroke-opacity="0.5" stroke-width="0.999636"/>
<path d="M152.187 180.077L176.831 204.041" stroke="#EBEBEB" stroke-opacity="0.5" stroke-width="0.999636"/>
<path d="M152.187 180.077L165.02 160.543" stroke="#EBEBEB" stroke-opacity="0.5" stroke-width="0.999636"/>
<path d="M152.187 180.077L165.361 131.469" stroke="#EBEBEB" stroke-opacity="0.5" stroke-width="0.999636"/>
<path d="M152.187 180.077L133.788 176.329" stroke="#EBEBEB" stroke-opacity="0.5" stroke-width="0.999636"/>
<path d="M125.725 153.388L205.679 177.011" stroke="#EBEBEB" stroke-opacity="0.5" stroke-width="0.999636"/>
<path d="M125.725 153.389L137.763 245.267" stroke="#EBEBEB" stroke-opacity="0.5" stroke-width="0.999636"/>
<path d="M125.725 153.388L111.982 184.961" stroke="#EBEBEB" stroke-opacity="0.5" stroke-width="0.999636"/>
<path d="M125.725 153.388L176.832 204.041" stroke="#EBEBEB" stroke-opacity="0.5" stroke-width="0.999636"/>
<path d="M125.725 153.388L165.02 160.543" stroke="#EBEBEB" stroke-opacity="0.5" stroke-width="0.999636"/>
<path d="M125.725 153.388L165.361 131.469" stroke="#EBEBEB" stroke-opacity="0.5" stroke-width="0.999636"/>
<path d="M125.725 153.388L133.788 176.329" stroke="#EBEBEB" stroke-opacity="0.5" stroke-width="0.999636"/>
<path d="M125.725 153.388L152.187 180.077" stroke="#EBEBEB" stroke-opacity="0.5" stroke-width="0.999636"/>
<path d="M177.059 182.349L264.281 311.82" stroke="#EBEBEB" stroke-opacity="0.5" stroke-width="0.999636"/>
<path d="M177.059 182.349L205.679 177.011" stroke="#EBEBEB" stroke-opacity="0.5" stroke-width="0.999636"/>
<path d="M177.059 182.349L137.764 245.267" stroke="#EBEBEB" stroke-opacity="0.5" stroke-width="0.999636"/>
<path d="M177.059 182.349L111.982 184.961" stroke="#EBEBEB" stroke-opacity="0.5" stroke-width="0.999636"/>
<path d="M176.945 182.349L176.945 204.041" stroke="#EBEBEB" stroke-opacity="0.5" stroke-width="0.999636"/>
<path d="M177.058 182.349L165.02 160.543" stroke="#EBEBEB" stroke-opacity="0.5" stroke-width="0.999636"/>
<path d="M177.059 182.349L165.361 131.469" stroke="#EBEBEB" stroke-opacity="0.5" stroke-width="0.999636"/>
<path d="M177.059 182.349L133.788 176.33" stroke="#EBEBEB" stroke-opacity="0.5" stroke-width="0.999636"/>
<path d="M177.059 182.349L152.187 180.078" stroke="#EBEBEB" stroke-opacity="0.5" stroke-width="0.999636"/>
<path d="M177.059 182.349L125.725 153.388" stroke="#EBEBEB" stroke-opacity="0.5" stroke-width="0.999636"/>
<path d="M142.533 146.119L205.679 177.011" stroke="#EBEBEB" stroke-opacity="0.5" stroke-width="0.999636"/>
<path d="M142.534 146.12L137.764 245.267" stroke="#EBEBEB" stroke-opacity="0.5" stroke-width="0.999636"/>
<path d="M142.533 146.119L111.982 184.961" stroke="#EBEBEB" stroke-opacity="0.5" stroke-width="0.999636"/>
<path d="M142.533 146.119L176.832 204.041" stroke="#EBEBEB" stroke-opacity="0.5" stroke-width="0.999636"/>
<path d="M142.533 146.12L165.02 160.543" stroke="#EBEBEB" stroke-opacity="0.5" stroke-width="0.999636"/>
<path d="M142.533 146.12L165.361 131.469" stroke="#EBEBEB" stroke-opacity="0.5" stroke-width="0.999636"/>
<path d="M142.533 146.119L133.788 176.329" stroke="#EBEBEB" stroke-opacity="0.5" stroke-width="0.999636"/>
<path d="M142.533 146.119L152.187 180.077" stroke="#EBEBEB" stroke-opacity="0.5" stroke-width="0.999636"/>
<path d="M142.533 146.119L125.725 153.388" stroke="#EBEBEB" stroke-opacity="0.5" stroke-width="0.999636"/>
<path d="M142.533 146.12L177.059 182.349" stroke="#EBEBEB" stroke-opacity="0.5" stroke-width="0.999636"/>
<path d="M187.621 136.58L205.679 177.011" stroke="#EBEBEB" stroke-opacity="0.5" stroke-width="0.999636"/>
<path d="M187.621 136.579L176.831 204.041" stroke="#EBEBEB" stroke-opacity="0.5" stroke-width="0.999636"/>
<path d="M187.621 136.58L165.02 160.543" stroke="#EBEBEB" stroke-opacity="0.5" stroke-width="0.999636"/>
<path d="M187.621 136.58L165.361 131.469" stroke="#EBEBEB" stroke-opacity="0.5" stroke-width="0.999636"/>
<path d="M187.621 136.579L133.788 176.329" stroke="#EBEBEB" stroke-opacity="0.5" stroke-width="0.999636"/>
<path d="M187.621 136.58L152.187 180.077" stroke="#EBEBEB" stroke-opacity="0.5" stroke-width="0.999636"/>
<path d="M187.621 136.579L125.725 153.388" stroke="#EBEBEB" stroke-opacity="0.5" stroke-width="0.999636"/>
<path d="M187.621 136.58L177.059 182.349" stroke="#EBEBEB" stroke-opacity="0.5" stroke-width="0.999636"/>
<path d="M187.621 136.58L142.533 146.12" stroke="#EBEBEB" stroke-opacity="0.5" stroke-width="0.999636"/>
<path d="M34.5275 116.023L111.983 184.961" stroke="#EBEBEB" stroke-opacity="0.5" stroke-width="0.999636"/>
<path d="M232.368 264.801L264.281 311.82" stroke="#EBEBEB" stroke-opacity="0.5" stroke-width="0.999636"/>
<path d="M232.368 264.801L187.621 315.794" stroke="#EBEBEB" stroke-opacity="0.5" stroke-width="0.999636"/>
<path d="M232.368 264.801L175.242 277.521" stroke="#EBEBEB" stroke-opacity="0.5" stroke-width="0.999636"/>
<path d="M232.368 264.801L235.548 309.548" stroke="#EBEBEB" stroke-opacity="0.5" stroke-width="0.999636"/>
<path d="M232.368 264.801L175.696 240.384" stroke="#EBEBEB" stroke-opacity="0.5" stroke-width="0.999636"/>
<path d="M232.368 264.801L205.679 177.011" stroke="#EBEBEB" stroke-opacity="0.5" stroke-width="0.999636"/>
<path d="M213.629 250.264L264.281 311.82" stroke="#EBEBEB" stroke-opacity="0.5" stroke-width="0.999636"/>
<path d="M213.629 250.264L187.621 315.794" stroke="#EBEBEB" stroke-opacity="0.5" stroke-width="0.999636"/>
<path d="M213.629 250.264L175.242 277.521" stroke="#EBEBEB" stroke-opacity="0.5" stroke-width="0.999636"/>
<path d="M213.629 250.264L235.548 309.548" stroke="#EBEBEB" stroke-opacity="0.5" stroke-width="0.999636"/>
<path d="M213.628 250.264L175.696 240.383" stroke="#EBEBEB" stroke-opacity="0.5" stroke-width="0.999636"/>
<path d="M213.629 250.264L205.679 177.011" stroke="#EBEBEB" stroke-opacity="0.5" stroke-width="0.999636"/>
<path d="M213.629 250.264L232.368 264.801" stroke="#EBEBEB" stroke-opacity="0.5" stroke-width="0.999636"/>
<path d="M207.609 272.297L264.281 311.82" stroke="#EBEBEB" stroke-opacity="0.5" stroke-width="0.999636"/>
<path d="M207.609 272.297L187.621 315.794" stroke="#EBEBEB" stroke-opacity="0.5" stroke-width="0.999636"/>
<path d="M207.609 272.296L175.242 277.521" stroke="#EBEBEB" stroke-opacity="0.5" stroke-width="0.999636"/>
<path d="M207.609 272.296L235.547 309.548" stroke="#EBEBEB" stroke-opacity="0.5" stroke-width="0.999636"/>
<path d="M207.609 272.297L175.696 240.383" stroke="#EBEBEB" stroke-opacity="0.5" stroke-width="0.999636"/>
<path d="M207.609 272.297L176.831 204.041" stroke="#EBEBEB" stroke-opacity="0.5" stroke-width="0.999636"/>
<path d="M207.609 272.297L232.367 264.801" stroke="#EBEBEB" stroke-opacity="0.5" stroke-width="0.999636"/>
<path d="M207.609 272.297L213.628 250.264" stroke="#EBEBEB" stroke-opacity="0.5" stroke-width="0.999636"/>
<path d="M244.065 242.087L264.281 311.82" stroke="#EBEBEB" stroke-opacity="0.5" stroke-width="0.999636"/>
<path d="M244.066 242.087L175.242 277.521" stroke="#EBEBEB" stroke-opacity="0.5" stroke-width="0.999636"/>
<path d="M244.065 242.087L235.548 309.548" stroke="#EBEBEB" stroke-opacity="0.5" stroke-width="0.999636"/>
<path d="M244.065 242.087L175.696 240.384" stroke="#EBEBEB" stroke-opacity="0.5" stroke-width="0.999636"/>
<path d="M244.066 242.087L205.679 177.011" stroke="#EBEBEB" stroke-opacity="0.5" stroke-width="0.999636"/>
<path d="M244.065 242.087L232.368 264.801" stroke="#EBEBEB" stroke-opacity="0.5" stroke-width="0.999636"/>
<path d="M244.066 242.087L213.629 250.264" stroke="#EBEBEB" stroke-opacity="0.5" stroke-width="0.999636"/>
<path d="M244.065 242.087L207.609 272.297" stroke="#EBEBEB" stroke-opacity="0.5" stroke-width="0.999636"/>
<path d="M215.786 356.68L264.281 311.819" stroke="#EBEBEB" stroke-opacity="0.5" stroke-width="0.999636"/>
<path d="M215.786 356.68L169.563 341.234" stroke="#EBEBEB" stroke-opacity="0.5" stroke-width="0.999636"/>
<path d="M215.786 356.68L235.548 309.548" stroke="#EBEBEB" stroke-opacity="0.5" stroke-width="0.999636"/>
<path d="M211.13 62.6449L205.679 177.011" stroke="#EBEBEB" stroke-opacity="0.5" stroke-width="0.999636"/>
<path d="M246.905 77.5227L205.679 177.011" stroke="#EBEBEB" stroke-opacity="0.5" stroke-width="0.999636"/>
<path d="M246.905 77.5226L211.13 62.6448" stroke="#EBEBEB" stroke-opacity="0.5" stroke-width="0.999636"/>
<path d="M224.531 216.306L175.242 277.521" stroke="#EBEBEB" stroke-opacity="0.5" stroke-width="0.999636"/>
<path d="M224.531 216.307L175.696 240.384" stroke="#EBEBEB" stroke-opacity="0.5" stroke-width="0.999636"/>
<path d="M224.532 216.307L205.679 177.011" stroke="#EBEBEB" stroke-opacity="0.5" stroke-width="0.999636"/>
<path d="M224.531 216.307L232.368 264.801" stroke="#EBEBEB" stroke-opacity="0.5" stroke-width="0.999636"/>
<path d="M224.532 216.306L213.629 250.264" stroke="#EBEBEB" stroke-opacity="0.5" stroke-width="0.999636"/>
<path d="M224.531 216.306L207.609 272.297" stroke="#EBEBEB" stroke-opacity="0.5" stroke-width="0.999636"/>
<path d="M224.531 216.307L244.066 242.087" stroke="#EBEBEB" stroke-opacity="0.5" stroke-width="0.999636"/>
<path d="M158.319 115.455L205.678 177.011" stroke="#EBEBEB" stroke-opacity="0.5" stroke-width="0.999636"/>
<path d="M158.319 115.455L176.831 204.041" stroke="#EBEBEB" stroke-opacity="0.5" stroke-width="0.999636"/>
<path d="M158.319 115.455L152.187 180.077" stroke="#EBEBEB" stroke-opacity="0.5" stroke-width="0.999636"/>
<path d="M158.32 115.455L125.725 153.388" stroke="#EBEBEB" stroke-opacity="0.5" stroke-width="0.999636"/>
<path d="M158.319 115.456L177.059 182.349" stroke="#EBEBEB" stroke-opacity="0.5" stroke-width="0.999636"/>
<path d="M158.32 115.455L142.533 146.12" stroke="#EBEBEB" stroke-opacity="0.5" stroke-width="0.999636"/>
<path d="M158.319 115.456L187.621 136.58" stroke="#EBEBEB" stroke-opacity="0.5" stroke-width="0.999636"/>
<path d="M493.369 315.57C494.316 315.57 495.224 315.947 495.894 316.616C496.564 317.286 496.94 318.195 496.94 319.142C496.94 320.089 496.564 320.997 495.894 321.667C495.224 322.337 494.316 322.713 493.368 322.713C492.421 322.713 491.513 322.337 490.843 321.667C490.173 320.997 489.797 320.089 489.797 319.142C489.797 318.195 490.173 317.286 490.843 316.616C491.513 315.947 492.421 315.57 493.369 315.57Z" fill="#E9EEF4"/>
<path d="M552.77 322.422C553.717 322.422 554.625 322.798 555.295 323.468C555.965 324.138 556.341 325.046 556.341 325.993C556.341 326.94 555.965 327.849 555.295 328.518C554.625 329.188 553.717 329.564 552.77 329.564C551.822 329.564 550.914 329.188 550.244 328.518C549.574 327.849 549.198 326.94 549.198 325.993C549.198 325.046 549.574 324.138 550.244 323.468C550.914 322.798 551.823 322.422 552.77 322.422Z" fill="#E9EEF4"/>
<path d="M416.211 324.956C417.158 324.956 418.066 325.332 418.736 326.002C419.406 326.671 419.782 327.58 419.782 328.527C419.782 329.474 419.406 330.383 418.736 331.052C418.066 331.722 417.158 332.098 416.211 332.098C415.263 332.098 414.355 331.722 413.685 331.052C413.016 330.383 412.639 329.474 412.639 328.527C412.639 327.58 413.015 326.671 413.685 326.002C414.355 325.332 415.264 324.956 416.211 324.956Z" fill="#E9EEF4"/>
<path d="M420.16 292.363C421.107 292.363 422.016 292.739 422.686 293.409C423.355 294.079 423.732 294.987 423.732 295.935C423.732 296.882 423.355 297.79 422.685 298.46C422.016 299.13 421.107 299.506 420.16 299.506C419.213 299.506 418.305 299.13 417.635 298.46C416.965 297.79 416.589 296.882 416.589 295.935C416.589 294.987 416.965 294.079 417.635 293.409C418.304 292.739 419.213 292.363 420.16 292.363Z" fill="#E9EEF4"/>
<path d="M531.521 242.968C532.468 242.968 533.377 243.344 534.047 244.014C534.716 244.683 535.093 245.592 535.093 246.539C535.093 247.486 534.716 248.395 534.046 249.064C533.377 249.734 532.468 250.11 531.521 250.11C530.574 250.11 529.666 249.734 528.996 249.064C528.326 248.395 527.95 247.486 527.95 246.539C527.95 245.592 528.326 244.683 528.996 244.014C529.665 243.344 530.574 242.968 531.521 242.968Z" fill="#E9EEF4"/>
<path d="M525.049 386.392C525.996 386.392 526.904 386.769 527.574 387.438C528.244 388.108 528.62 389.017 528.62 389.964C528.62 390.911 528.244 391.819 527.574 392.489C526.904 393.159 525.996 393.535 525.049 393.535C524.101 393.535 523.193 393.159 522.523 392.489C521.854 391.819 521.477 390.911 521.477 389.964C521.477 389.017 521.853 388.108 522.523 387.438C523.193 386.769 524.102 386.392 525.049 386.392Z" fill="#E9EEF4"/>
<path d="M557.417 265.629C558.364 265.629 559.272 266.006 559.942 266.675C560.612 267.345 560.988 268.253 560.988 269.201C560.988 270.148 560.612 271.056 559.942 271.726C559.272 272.396 558.364 272.772 557.417 272.772C556.469 272.772 555.561 272.396 554.891 271.726C554.222 271.056 553.845 270.148 553.845 269.201C553.845 268.253 554.221 267.345 554.891 266.675C555.561 266.006 556.47 265.629 557.417 265.629Z" fill="#E9EEF4"/>
<path d="M557.05 374.825C557.997 374.825 558.905 375.201 559.575 375.871C560.245 376.541 560.621 377.449 560.621 378.396C560.621 379.344 560.245 380.252 559.575 380.922C558.905 381.592 557.997 381.968 557.05 381.968C556.103 381.968 555.194 381.592 554.524 380.922C553.855 380.252 553.478 379.344 553.478 378.396C553.478 377.449 553.855 376.541 554.524 375.871C555.194 375.201 556.103 374.825 557.05 374.825Z" fill="#E9EEF4"/>
<path d="M581.239 293.819C582.186 293.819 583.094 294.195 583.764 294.865C584.434 295.535 584.81 296.443 584.81 297.39C584.81 298.338 584.433 299.246 583.764 299.916C583.094 300.585 582.186 300.962 581.238 300.962C580.291 300.962 579.383 300.585 578.713 299.916C578.043 299.246 577.667 298.338 577.667 297.39C577.667 296.443 578.043 295.535 578.713 294.865C579.383 294.195 580.291 293.819 581.239 293.819Z" fill="#E9EEF4"/>
<path d="M583.429 344.043C584.376 344.043 585.284 344.42 585.954 345.089C586.624 345.759 587 346.668 587 347.615C587 348.562 586.624 349.47 585.954 350.14C585.284 350.81 584.376 351.186 583.429 351.186C582.481 351.186 581.573 350.81 580.903 350.14C580.234 349.47 579.857 348.562 579.857 347.615C579.857 346.668 580.233 345.759 580.903 345.089C581.573 344.42 582.482 344.043 583.429 344.043Z" fill="#E9EEF4"/>
<path d="M338.372 213.869C339.319 213.869 340.227 214.245 340.897 214.915C341.567 215.585 341.943 216.493 341.943 217.44C341.943 218.388 341.566 219.296 340.897 219.966C340.227 220.635 339.319 221.012 338.371 221.012C337.424 221.012 336.516 220.635 335.846 219.966C335.176 219.296 334.8 218.388 334.8 217.44C334.8 216.493 335.176 215.585 335.846 214.915C336.516 214.245 337.424 213.869 338.372 213.869Z" fill="#E9EEF4"/>
<path d="M264.259 308.252C265.206 308.252 266.115 308.628 266.785 309.298C267.454 309.968 267.83 310.876 267.83 311.823C267.83 312.77 267.454 313.679 266.784 314.349C266.115 315.018 265.206 315.395 264.259 315.395C263.312 315.395 262.403 315.018 261.734 314.349C261.064 313.679 260.688 312.77 260.688 311.823C260.688 310.876 261.064 309.968 261.734 309.298C262.403 308.628 263.312 308.252 264.259 308.252Z" fill="#E9EEF4"/>
<path d="M260.09 416.67C261.037 416.67 261.946 417.046 262.615 417.716C263.285 418.386 263.661 419.294 263.661 420.241C263.661 421.188 263.285 422.097 262.615 422.766C261.945 423.436 261.037 423.812 260.09 423.812C259.143 423.812 258.234 423.436 257.565 422.766C256.895 422.097 256.518 421.188 256.518 420.241C256.518 419.294 256.895 418.386 257.564 417.716C258.234 417.046 259.143 416.67 260.09 416.67Z" fill="#E9EEF4"/>
<path d="M355.788 253.582C356.735 253.582 357.643 253.958 358.313 254.628C358.983 255.298 359.359 256.206 359.359 257.153C359.359 258.1 358.983 259.009 358.313 259.679C357.643 260.348 356.735 260.725 355.788 260.725C354.84 260.725 353.932 260.348 353.262 259.679C352.592 259.009 352.216 258.1 352.216 257.153C352.216 256.206 352.592 255.298 353.262 254.628C353.932 253.958 354.841 253.582 355.788 253.582Z" fill="#E9EEF4"/>
<path d="M390.187 247.928C391.134 247.928 392.043 248.305 392.712 248.974C393.382 249.644 393.758 250.553 393.758 251.5C393.758 252.447 393.382 253.355 392.712 254.025C392.042 254.695 391.134 255.071 390.187 255.071C389.24 255.071 388.331 254.695 387.661 254.025C386.992 253.355 386.615 252.447 386.615 251.5C386.615 250.553 386.992 249.644 387.661 248.974C388.331 248.305 389.24 247.928 390.187 247.928Z" fill="#E9EEF4"/>
<path d="M375.838 207.713C376.785 207.713 377.693 208.089 378.363 208.759C379.033 209.429 379.409 210.337 379.409 211.285C379.409 212.232 379.033 213.14 378.363 213.81C377.693 214.48 376.785 214.856 375.838 214.856C374.891 214.856 373.982 214.48 373.312 213.81C372.643 213.14 372.266 212.232 372.266 211.285C372.266 210.337 372.643 209.429 373.312 208.759C373.982 208.089 374.891 207.713 375.838 207.713Z" fill="#E9EEF4"/>
<path d="M140.287 424.949C141.235 424.949 142.143 425.325 142.813 425.995C143.482 426.665 143.859 427.573 143.859 428.52C143.859 429.467 143.482 430.376 142.813 431.046C142.143 431.715 141.234 432.092 140.287 432.092C139.34 432.092 138.432 431.715 137.762 431.046C137.092 430.376 136.716 429.467 136.716 428.52C136.716 427.573 137.092 426.665 137.762 425.995C138.432 425.325 139.34 424.949 140.287 424.949Z" fill="#E9EEF4"/>
<path d="M164.359 476.339C165.306 476.339 166.214 476.716 166.884 477.385C167.554 478.055 167.93 478.964 167.93 479.911C167.93 480.858 167.554 481.766 166.884 482.436C166.214 483.106 165.306 483.482 164.359 483.482C163.412 483.482 162.503 483.106 161.833 482.436C161.164 481.766 160.787 480.858 160.787 479.911C160.787 478.964 161.164 478.055 161.833 477.385C162.503 476.716 163.412 476.339 164.359 476.339Z" fill="#E9EEF4"/>
<path d="M123.264 466.261C124.211 466.262 125.12 466.638 125.789 467.308C126.459 467.977 126.835 468.886 126.835 469.833C126.835 470.78 126.459 471.689 125.789 472.358C125.119 473.028 124.211 473.404 123.264 473.404C122.317 473.404 121.408 473.028 120.738 472.358C120.069 471.689 119.692 470.78 119.692 469.833C119.692 468.886 120.069 467.977 120.738 467.308C121.408 466.638 122.317 466.262 123.264 466.261Z" fill="#E9EEF4"/>
<path d="M141.197 484.082C142.144 484.082 143.053 484.458 143.722 485.128C144.392 485.797 144.768 486.706 144.768 487.653C144.768 488.6 144.392 489.509 143.722 490.178C143.052 490.848 142.144 491.224 141.197 491.224C140.25 491.224 139.341 490.848 138.672 490.178C138.002 489.509 137.625 488.6 137.625 487.653C137.625 486.706 138.002 485.797 138.671 485.128C139.341 484.458 140.25 484.082 141.197 484.082Z" fill="#E9EEF4"/>
<path d="M164.487 504.233C165.434 504.233 166.343 504.61 167.013 505.28C167.682 505.949 168.058 506.858 168.058 507.805C168.058 508.752 167.682 509.66 167.012 510.33C166.343 511 165.434 511.376 164.487 511.376C163.54 511.376 162.631 511 161.962 510.33C161.292 509.66 160.916 508.752 160.916 507.805C160.916 506.858 161.292 505.949 161.962 505.28C162.631 504.61 163.54 504.233 164.487 504.233Z" fill="#E9EEF4"/>
<path d="M112.758 491.71C113.705 491.711 114.613 492.087 115.283 492.757C115.953 493.426 116.329 494.335 116.329 495.282C116.329 496.229 115.953 497.138 115.283 497.807C114.613 498.477 113.705 498.853 112.757 498.853C111.81 498.853 110.902 498.477 110.232 497.807C109.562 497.138 109.186 496.229 109.186 495.282C109.186 494.335 109.562 493.426 110.232 492.757C110.902 492.087 111.81 491.711 112.758 491.71Z" fill="#E9EEF4"/>
<path d="M135.802 512.533C136.749 512.533 137.657 512.91 138.327 513.58C138.997 514.249 139.373 515.158 139.373 516.105C139.373 517.052 138.996 517.961 138.327 518.63C137.657 519.3 136.749 519.676 135.801 519.676C134.854 519.676 133.946 519.3 133.276 518.63C132.606 517.961 132.23 517.052 132.23 516.105C132.23 515.158 132.606 514.249 133.276 513.58C133.946 512.91 134.854 512.533 135.802 512.533Z" fill="#E9EEF4"/>
<path d="M191.713 416.543C192.66 416.543 193.569 416.919 194.238 417.589C194.908 418.259 195.284 419.167 195.284 420.114C195.284 421.061 194.908 421.97 194.238 422.64C193.568 423.309 192.66 423.686 191.713 423.686C190.766 423.686 189.857 423.309 189.187 422.64C188.518 421.97 188.141 421.061 188.141 420.114C188.141 419.167 188.518 418.259 189.187 417.589C189.857 416.919 190.766 416.543 191.713 416.543Z" fill="#E9EEF4"/>
<path d="M187.597 312.165C188.544 312.165 189.452 312.541 190.122 313.211C190.792 313.881 191.168 314.789 191.168 315.736C191.168 316.683 190.792 317.592 190.122 318.262C189.452 318.931 188.544 319.308 187.597 319.308C186.649 319.308 185.741 318.931 185.071 318.262C184.401 317.592 184.025 316.683 184.025 315.736C184.025 314.789 184.401 313.881 185.071 313.211C185.741 312.541 186.65 312.165 187.597 312.165Z" fill="#E9EEF4"/>
<path d="M175.224 273.854C176.172 273.855 177.08 274.231 177.75 274.901C178.419 275.57 178.796 276.479 178.796 277.426C178.796 278.373 178.419 279.282 177.75 279.951C177.08 280.621 176.171 280.997 175.224 280.997C174.277 280.997 173.369 280.621 172.699 279.951C172.029 279.282 171.653 278.373 171.653 277.426C171.653 276.479 172.029 275.57 172.699 274.901C173.369 274.231 174.277 273.855 175.224 273.854Z" fill="#E9EEF4"/>
<path d="M169.551 337.684C170.499 337.684 171.407 338.061 172.077 338.73C172.746 339.4 173.123 340.309 173.123 341.256C173.123 342.203 172.746 343.111 172.077 343.781C171.407 344.451 170.498 344.827 169.551 344.827C168.604 344.827 167.696 344.451 167.026 343.781C166.356 343.111 165.98 342.203 165.98 341.256C165.98 340.309 166.356 339.4 167.026 338.73C167.695 338.061 168.604 337.684 169.551 337.684Z" fill="#E9EEF4"/>
<path d="M235.582 305.937C236.529 305.937 237.438 306.314 238.107 306.983C238.777 307.653 239.153 308.562 239.153 309.509C239.153 310.456 238.777 311.364 238.107 312.034C237.437 312.704 236.529 313.08 235.582 313.08C234.635 313.08 233.726 312.704 233.056 312.034C232.387 311.364 232.01 310.456 232.01 309.509C232.01 308.562 232.387 307.653 233.056 306.983C233.726 306.314 234.635 305.937 235.582 305.937Z" fill="#E9EEF4"/>
<path d="M344.539 356.815C345.486 356.815 346.394 357.192 347.064 357.861C347.734 358.531 348.11 359.44 348.11 360.387C348.11 361.334 347.733 362.242 347.064 362.912C346.394 363.582 345.486 363.958 344.538 363.958C343.591 363.958 342.683 363.582 342.013 362.912C341.343 362.242 340.967 361.334 340.967 360.387C340.967 359.44 341.343 358.531 342.013 357.861C342.683 357.192 343.591 356.815 344.539 356.815Z" fill="#E9EEF4"/>
<path d="M286.4 388.338C287.347 388.338 288.255 388.715 288.925 389.385C289.595 390.054 289.971 390.963 289.971 391.91C289.971 392.857 289.595 393.765 288.925 394.435C288.255 395.105 287.347 395.481 286.4 395.481C285.453 395.481 284.544 395.105 283.874 394.435C283.205 393.765 282.828 392.857 282.828 391.91C282.828 390.963 283.205 390.054 283.874 389.385C284.544 388.715 285.453 388.338 286.4 388.338Z" fill="#E9EEF4"/>
<path d="M230.921 485.125C231.868 485.125 232.777 485.501 233.446 486.171C234.116 486.841 234.492 487.749 234.492 488.697C234.492 489.644 234.116 490.552 233.446 491.222C232.776 491.892 231.868 492.268 230.921 492.268C229.974 492.268 229.065 491.892 228.395 491.222C227.726 490.552 227.349 489.644 227.349 488.697C227.349 487.749 227.726 486.841 228.395 486.171C229.065 485.501 229.974 485.125 230.921 485.125Z" fill="#E9EEF4"/>
<path d="M236.311 405.356C237.258 405.356 238.166 405.732 238.836 406.402C239.506 407.072 239.882 407.98 239.882 408.927C239.882 409.874 239.506 410.783 238.836 411.453C238.166 412.122 237.258 412.499 236.311 412.499C235.364 412.499 234.455 412.122 233.785 411.453C233.116 410.783 232.739 409.874 232.739 408.927C232.739 407.98 233.116 407.072 233.785 406.402C234.455 405.732 235.364 405.356 236.311 405.356Z" fill="#E9EEF4"/>
<path d="M366.432 299.874C367.379 299.874 368.287 300.251 368.957 300.92C369.627 301.59 370.003 302.499 370.003 303.446C370.003 304.393 369.626 305.301 368.957 305.971C368.287 306.641 367.379 307.017 366.431 307.017C365.484 307.017 364.576 306.641 363.906 305.971C363.236 305.301 362.86 304.393 362.86 303.446C362.86 302.499 363.236 301.59 363.906 300.92C364.576 300.251 365.484 299.874 366.432 299.874Z" fill="#E9EEF4"/>
<path d="M313.167 291.759C314.115 291.759 315.023 292.135 315.693 292.805C316.362 293.475 316.739 294.383 316.739 295.331C316.739 296.278 316.362 297.186 315.692 297.856C315.023 298.526 314.114 298.902 313.167 298.902C312.22 298.902 311.312 298.526 310.642 297.856C309.972 297.186 309.596 296.278 309.596 295.331C309.596 294.383 309.972 293.475 310.642 292.805C311.311 292.135 312.22 291.759 313.167 291.759Z" fill="#E9EEF4"/>
<path d="M318.366 389.904C319.313 389.904 320.222 390.281 320.891 390.95C321.561 391.62 321.937 392.529 321.937 393.476C321.937 394.423 321.561 395.331 320.891 396.001C320.221 396.671 319.313 397.047 318.366 397.047C317.419 397.047 316.51 396.671 315.841 396.001C315.171 395.331 314.795 394.423 314.794 393.476C314.794 392.529 315.171 391.62 315.84 390.95C316.51 390.281 317.419 389.904 318.366 389.904Z" fill="#E9EEF4"/>
<path d="M343.409 387.219C344.356 387.22 345.265 387.596 345.934 388.266C346.604 388.935 346.98 389.844 346.98 390.791C346.98 391.738 346.604 392.647 345.934 393.316C345.265 393.986 344.356 394.362 343.409 394.362C342.462 394.362 341.553 393.986 340.884 393.316C340.214 392.647 339.838 391.738 339.838 390.791C339.838 389.844 340.214 388.935 340.884 388.266C341.553 387.596 342.462 387.22 343.409 387.219Z" fill="#E9EEF4"/>
<path d="M307.653 421.79C308.6 421.79 309.508 422.166 310.178 422.836C310.848 423.506 311.224 424.414 311.224 425.361C311.224 426.308 310.847 427.217 310.178 427.887C309.508 428.556 308.6 428.933 307.652 428.933C306.705 428.933 305.797 428.556 305.127 427.887C304.457 427.217 304.081 426.308 304.081 425.361C304.081 424.414 304.457 423.506 305.127 422.836C305.797 422.166 306.705 421.79 307.653 421.79Z" fill="#E9EEF4"/>
<path d="M349.571 414.156C350.518 414.157 351.427 414.533 352.097 415.203C352.766 415.872 353.143 416.781 353.143 417.728C353.142 418.675 352.766 419.584 352.096 420.253C351.427 420.923 350.518 421.299 349.571 421.299C348.624 421.299 347.716 420.923 347.046 420.253C346.376 419.584 346 418.675 346 417.728C346 416.781 346.376 415.872 347.046 415.203C347.715 414.533 348.624 414.157 349.571 414.156Z" fill="#E9EEF4"/>
<path d="M330.302 435.017C331.25 435.017 332.158 435.393 332.828 436.063C333.497 436.733 333.874 437.641 333.874 438.589C333.874 439.536 333.497 440.444 332.828 441.114C332.158 441.784 331.249 442.16 330.302 442.16C329.355 442.16 328.447 441.784 327.777 441.114C327.107 440.444 326.731 439.536 326.731 438.589C326.731 437.641 327.107 436.733 327.777 436.063C328.446 435.393 329.355 435.017 330.302 435.017Z" fill="#E9EEF4"/>
<path d="M65.193 272.54C66.1402 272.54 67.0486 272.916 67.7183 273.586C68.388 274.256 68.7643 275.164 68.7642 276.111C68.7642 277.058 68.3879 277.967 67.7182 278.637C67.0484 279.306 66.14 279.683 65.1928 279.683C64.2457 279.683 63.3373 279.306 62.6675 278.637C61.9977 277.967 61.6215 277.058 61.6214 276.111C61.6214 275.164 61.9976 274.256 62.6674 273.586C63.3371 272.916 64.2458 272.54 65.193 272.54Z" fill="#E9EEF4"/>
<path d="M44.762 236.123C45.7092 236.123 46.6176 236.499 47.2873 237.169C47.9571 237.838 48.3333 238.747 48.3333 239.694C48.3332 240.641 47.957 241.55 47.2872 242.219C46.6174 242.889 45.709 243.265 44.7619 243.265C43.8147 243.265 42.9063 242.889 42.2365 242.219C41.5668 241.55 41.1905 240.641 41.1905 239.694C41.1904 238.747 41.5667 237.838 42.2364 237.169C42.9061 236.499 43.8149 236.123 44.762 236.123Z" fill="#E9EEF4"/>
<path d="M175.694 236.753C176.641 236.753 177.549 237.129 178.219 237.799C178.889 238.469 179.265 239.377 179.265 240.324C179.265 241.272 178.889 242.18 178.219 242.85C177.549 243.519 176.641 243.896 175.694 243.896C174.747 243.896 173.838 243.519 173.168 242.85C172.499 242.18 172.122 241.272 172.122 240.324C172.122 239.377 172.499 238.469 173.168 237.799C173.838 237.129 174.747 236.753 175.694 236.753Z" fill="#E9EEF4"/>
<path d="M124.32 277.049C125.267 277.049 126.176 277.425 126.845 278.095C127.515 278.765 127.891 279.673 127.891 280.62C127.891 281.567 127.515 282.476 126.845 283.145C126.175 283.815 125.267 284.191 124.32 284.191C123.373 284.191 122.464 283.815 121.795 283.145C121.125 282.476 120.748 281.567 120.748 280.62C120.748 279.673 121.125 278.765 121.794 278.095C122.464 277.425 123.373 277.049 124.32 277.049Z" fill="#E9EEF4"/>
<path d="M242.301 361.443C243.248 361.443 244.156 361.82 244.826 362.49C245.496 363.159 245.872 364.068 245.872 365.015C245.872 365.962 245.496 366.87 244.826 367.54C244.156 368.21 243.248 368.586 242.301 368.586C241.353 368.586 240.445 368.21 239.775 367.54C239.105 366.87 238.729 365.962 238.729 365.015C238.729 364.068 239.105 363.159 239.775 362.49C240.445 361.82 241.354 361.443 242.301 361.443Z" fill="#E9EEF4"/>
<path d="M385.984 367.956C386.931 367.956 387.84 368.333 388.51 369.002C389.179 369.672 389.556 370.581 389.556 371.528C389.555 372.475 389.179 373.383 388.509 374.053C387.84 374.723 386.931 375.099 385.984 375.099C385.037 375.099 384.129 374.723 383.459 374.053C382.789 373.383 382.413 372.475 382.413 371.528C382.413 370.581 382.789 369.672 383.459 369.002C384.128 368.333 385.037 367.956 385.984 367.956Z" fill="#E9EEF4"/>
<path d="M417.577 441.901C418.524 441.901 419.432 442.277 420.102 442.947C420.772 443.617 421.148 444.525 421.148 445.473C421.148 446.42 420.772 447.328 420.102 447.998C419.432 448.668 418.524 449.044 417.576 449.044C416.629 449.044 415.721 448.668 415.051 447.998C414.381 447.328 414.005 446.42 414.005 445.473C414.005 444.525 414.381 443.617 415.051 442.947C415.721 442.277 416.629 441.901 417.577 441.901Z" fill="#E9EEF4"/>
<path d="M343.453 0.323736C344.4 0.323783 345.309 0.700088 345.978 1.36987C346.648 2.03965 347.024 2.94805 347.024 3.89523C347.024 4.84241 346.648 5.75079 345.978 6.42054C345.309 7.09029 344.4 7.46655 343.453 7.46655C342.506 7.46655 341.597 7.09029 340.928 6.42054C340.258 5.75079 339.882 4.84241 339.882 3.89523C339.882 2.94805 340.258 2.03966 340.928 1.36987C341.597 0.700088 342.506 0.323783 343.453 0.323736Z" fill="#E9EEF4"/>
<path d="M297.009 64.3803C297.957 64.3803 298.865 64.7566 299.535 65.4264C300.204 66.0962 300.581 67.0046 300.581 67.9518C300.581 68.8989 300.204 69.8073 299.535 70.4771C298.865 71.1468 297.956 71.5231 297.009 71.5231C296.062 71.5231 295.154 71.1468 294.484 70.4771C293.814 69.8073 293.438 68.8989 293.438 67.9518C293.438 67.0046 293.814 66.0962 294.484 65.4264C295.154 64.7566 296.062 64.3803 297.009 64.3803Z" fill="#E9EEF4"/>
<path d="M205.641 173.341C206.588 173.341 207.496 173.717 208.166 174.387C208.836 175.057 209.212 175.965 209.212 176.912C209.212 177.86 208.836 178.768 208.166 179.438C207.496 180.108 206.588 180.484 205.641 180.484C204.693 180.484 203.785 180.108 203.115 179.438C202.445 178.768 202.069 177.86 202.069 176.912C202.069 175.965 202.445 175.057 203.115 174.387C203.785 173.717 204.694 173.341 205.641 173.341Z" fill="#E9EEF4"/>
<path d="M133.881 323.047C134.828 323.047 135.737 323.423 136.407 324.093C137.076 324.763 137.452 325.671 137.452 326.619C137.452 327.566 137.076 328.474 136.406 329.144C135.737 329.814 134.828 330.19 133.881 330.19C132.934 330.19 132.025 329.814 131.356 329.144C130.686 328.474 130.31 327.566 130.31 326.619C130.31 325.671 130.686 324.763 131.356 324.093C132.025 323.423 132.934 323.047 133.881 323.047Z" fill="#E9EEF4"/>
<path d="M105.027 374.166C105.975 374.166 106.883 374.542 107.553 375.212C108.222 375.882 108.599 376.79 108.599 377.737C108.599 378.684 108.222 379.593 107.553 380.263C106.883 380.932 105.974 381.309 105.027 381.309C104.08 381.309 103.172 380.932 102.502 380.263C101.832 379.593 101.456 378.684 101.456 377.737C101.456 376.79 101.832 375.882 102.502 375.212C103.172 374.542 104.08 374.166 105.027 374.166Z" fill="#E9EEF4"/>
<path d="M99.8552 340.166C100.802 340.166 101.711 340.543 102.38 341.212C103.05 341.882 103.426 342.791 103.426 343.738C103.426 344.685 103.05 345.593 102.38 346.263C101.711 346.933 100.802 347.309 99.855 347.309C98.9078 347.309 97.9995 346.933 97.3297 346.263C96.6599 345.593 96.2836 344.685 96.2836 343.738C96.2836 342.791 96.6598 341.882 97.3296 341.212C97.9993 340.543 98.908 340.166 99.8552 340.166Z" fill="#E9EEF4"/>
<path d="M10.5386 321.808C11.4858 321.808 12.3942 322.185 13.0639 322.854C13.7336 323.524 14.1099 324.433 14.1098 325.38C14.1098 326.327 13.7335 327.235 13.0638 327.905C12.394 328.575 11.4856 328.951 10.5384 328.951C9.59124 328.951 8.68286 328.575 8.01309 327.905C7.34332 327.235 6.96704 326.327 6.96702 325.38C6.96699 324.433 7.34323 323.524 8.01296 322.854C8.6827 322.185 9.59142 321.808 10.5386 321.808Z" fill="#E9EEF4"/>
<path d="M3.57157 388.67C4.51875 388.67 5.42712 389.046 6.09685 389.716C6.76658 390.386 7.14282 391.294 7.1428 392.241C7.14277 393.188 6.76649 394.097 6.09672 394.766C5.42696 395.436 4.51857 395.812 3.57139 395.812C2.62421 395.812 1.71582 395.436 1.04605 394.766C0.376285 394.097 2.5851e-06 393.188 -2.11358e-05 392.241C-4.48568e-05 391.294 0.376192 390.386 1.04593 389.716C1.71566 389.046 2.62438 388.67 3.57157 388.67Z" fill="#E9EEF4"/>
<path d="M93.3332 310.043C94.2804 310.043 95.1887 310.419 95.8585 311.089C96.5282 311.759 96.9045 312.667 96.9044 313.614C96.9044 314.562 96.5281 315.47 95.8584 316.14C95.1886 316.81 94.2802 317.186 93.333 317.186C92.3858 317.186 91.4775 316.81 90.8077 316.14C90.1379 315.47 89.7616 314.562 89.7616 313.614C89.7616 312.667 90.1378 311.759 90.8076 311.089C91.4773 310.419 92.386 310.043 93.3332 310.043Z" fill="#E9EEF4"/>
<path d="M137.677 241.669C138.624 241.669 139.532 242.046 140.202 242.715C140.872 243.385 141.248 244.294 141.248 245.241C141.248 246.188 140.871 247.096 140.202 247.766C139.532 248.436 138.624 248.812 137.676 248.812C136.729 248.812 135.821 248.436 135.151 247.766C134.481 247.096 134.105 246.188 134.105 245.241C134.105 244.294 134.481 243.385 135.151 242.715C135.821 242.046 136.729 241.669 137.677 241.669Z" fill="#E9EEF4"/>
<path d="M55.3912 301.536C56.3383 301.536 57.2467 301.912 57.9165 302.582C58.5862 303.252 58.9624 304.16 58.9624 305.107C58.9624 306.054 58.5861 306.963 57.9163 307.632C57.2466 308.302 56.3382 308.678 55.391 308.678C54.4438 308.678 53.5354 308.302 52.8657 307.632C52.1959 306.963 51.8196 306.054 51.8196 305.107C51.8196 304.16 52.1958 303.252 52.8655 302.582C53.5353 301.912 54.444 301.536 55.3912 301.536Z" fill="#E9EEF4"/>
<path d="M111.941 181.303C112.889 181.303 113.797 181.679 114.467 182.349C115.137 183.019 115.513 183.927 115.513 184.874C115.513 185.821 115.136 186.73 114.467 187.4C113.797 188.069 112.888 188.446 111.941 188.446C110.994 188.446 110.086 188.069 109.416 187.4C108.746 186.73 108.37 185.821 108.37 184.874C108.37 183.927 108.746 183.019 109.416 182.349C110.086 181.679 110.994 181.303 111.941 181.303Z" fill="#E9EEF4"/>
<path d="M176.861 200.39C177.808 200.39 178.716 200.766 179.386 201.436C180.056 202.106 180.432 203.014 180.432 203.962C180.432 204.909 180.056 205.817 179.386 206.487C178.716 207.157 177.808 207.533 176.861 207.533C175.914 207.533 175.005 207.157 174.335 206.487C173.666 205.817 173.289 204.909 173.289 203.962C173.289 203.014 173.666 202.106 174.335 201.436C175.005 200.766 175.914 200.39 176.861 200.39Z" fill="#E9EEF4"/>
<path d="M164.95 156.903C165.897 156.903 166.805 157.28 167.475 157.95C168.145 158.619 168.521 159.528 168.521 160.475C168.521 161.422 168.145 162.331 167.475 163C166.805 163.67 165.897 164.046 164.95 164.046C164.002 164.046 163.094 163.67 162.424 163C161.754 162.331 161.378 161.422 161.378 160.475C161.378 159.528 161.754 158.619 162.424 157.95C163.094 157.28 164.003 156.903 164.95 156.903Z" fill="#E9EEF4"/>
<path d="M165.305 127.761C166.252 127.761 167.16 128.137 167.83 128.807C168.5 129.477 168.876 130.385 168.876 131.332C168.876 132.28 168.5 133.188 167.83 133.858C167.16 134.527 166.252 134.904 165.305 134.904C164.357 134.904 163.449 134.527 162.779 133.858C162.109 133.188 161.733 132.28 161.733 131.332C161.733 130.385 162.109 129.477 162.779 128.807C163.449 128.137 164.358 127.761 165.305 127.761Z" fill="#E9EEF4"/>
<path d="M133.7 172.639C134.647 172.639 135.555 173.016 136.225 173.685C136.895 174.355 137.271 175.264 137.271 176.211C137.271 177.158 136.895 178.066 136.225 178.736C135.555 179.406 134.647 179.782 133.7 179.782C132.753 179.782 131.844 179.406 131.174 178.736C130.505 178.066 130.128 177.158 130.128 176.211C130.128 175.264 130.505 174.355 131.174 173.685C131.844 173.016 132.753 172.639 133.7 172.639Z" fill="#E9EEF4"/>
<path d="M152.114 176.453C153.061 176.453 153.969 176.829 154.639 177.499C155.309 178.169 155.685 179.077 155.685 180.024C155.685 180.971 155.308 181.88 154.639 182.55C153.969 183.219 153.061 183.596 152.113 183.596C151.166 183.596 150.258 183.219 149.588 182.55C148.918 181.88 148.542 180.971 148.542 180.024C148.542 179.077 148.918 178.169 149.588 177.499C150.258 176.829 151.166 176.453 152.114 176.453Z" fill="#E9EEF4"/>
<path d="M125.69 149.77C126.637 149.77 127.546 150.146 128.215 150.816C128.885 151.486 129.261 152.394 129.261 153.341C129.261 154.288 128.885 155.197 128.215 155.866C127.545 156.536 126.637 156.912 125.69 156.912C124.743 156.912 123.834 156.536 123.164 155.866C122.495 155.197 122.118 154.288 122.118 153.341C122.118 152.394 122.495 151.486 123.164 150.816C123.834 150.146 124.743 149.77 125.69 149.77Z" fill="#E9EEF4"/>
<path d="M177.03 178.721C177.977 178.721 178.885 179.098 179.555 179.767C180.225 180.437 180.601 181.346 180.601 182.293C180.601 183.24 180.225 184.148 179.555 184.818C178.885 185.488 177.977 185.864 177.03 185.864C176.082 185.864 175.174 185.488 174.504 184.818C173.834 184.148 173.458 183.24 173.458 182.293C173.458 181.346 173.834 180.437 174.504 179.767C175.174 179.098 176.083 178.721 177.03 178.721Z" fill="#E9EEF4"/>
<path d="M142.462 142.501C143.409 142.501 144.317 142.878 144.987 143.547C145.657 144.217 146.033 145.126 146.033 146.073C146.033 147.02 145.657 147.928 144.987 148.598C144.317 149.268 143.409 149.644 142.462 149.644C141.514 149.644 140.606 149.268 139.936 148.598C139.266 147.928 138.89 147.02 138.89 146.073C138.89 145.126 139.266 144.217 139.936 143.547C140.606 142.878 141.515 142.501 142.462 142.501Z" fill="#E9EEF4"/>
<path d="M187.586 132.962C188.533 132.962 189.441 133.339 190.111 134.009C190.781 134.678 191.157 135.587 191.157 136.534C191.157 137.481 190.781 138.389 190.111 139.059C189.441 139.729 188.533 140.105 187.585 140.105C186.638 140.105 185.73 139.729 185.06 139.059C184.39 138.389 184.014 137.481 184.014 136.534C184.014 135.587 184.39 134.678 185.06 134.009C185.73 133.339 186.638 132.962 187.586 132.962Z" fill="#E9EEF4"/>
<path d="M34.4817 112.345C35.4289 112.345 36.3372 112.722 37.007 113.391C37.6767 114.061 38.0529 114.97 38.0529 115.917C38.0529 116.864 37.6766 117.772 37.0068 118.442C36.3371 119.112 35.4287 119.488 34.4815 119.488C33.5343 119.488 32.6259 119.112 31.9562 118.442C31.2864 117.772 30.9101 116.864 30.9101 115.917C30.9101 114.97 31.2863 114.061 31.956 113.391C32.6258 112.722 33.5345 112.345 34.4817 112.345Z" fill="#E9EEF4"/>
<path d="M232.415 261.181C233.362 261.181 234.271 261.557 234.94 262.227C235.61 262.897 235.986 263.805 235.986 264.752C235.986 265.7 235.61 266.608 234.94 267.278C234.271 267.947 233.362 268.324 232.415 268.324C231.468 268.324 230.559 267.947 229.89 267.278C229.22 266.608 228.844 265.7 228.844 264.752C228.844 263.805 229.22 262.897 229.889 262.227C230.559 261.557 231.468 261.181 232.415 261.181Z" fill="#E9EEF4"/>
<path d="M213.583 246.656C214.53 246.656 215.438 247.032 216.108 247.702C216.778 248.372 217.154 249.28 217.154 250.228C217.154 251.175 216.778 252.083 216.108 252.753C215.438 253.423 214.53 253.799 213.583 253.799C212.636 253.799 211.727 253.423 211.057 252.753C210.388 252.083 210.011 251.175 210.011 250.228C210.011 249.28 210.388 248.372 211.057 247.702C211.727 247.032 212.636 246.656 213.583 246.656Z" fill="#E9EEF4"/>
<path d="M207.587 268.673C208.534 268.673 209.442 269.049 210.112 269.719C210.782 270.389 211.158 271.297 211.158 272.244C211.158 273.191 210.782 274.1 210.112 274.769C209.442 275.439 208.534 275.815 207.587 275.815C206.64 275.815 205.731 275.439 205.061 274.769C204.392 274.1 204.015 273.191 204.015 272.244C204.015 271.297 204.392 270.389 205.061 269.719C205.731 269.049 206.64 268.673 207.587 268.673Z" fill="#E9EEF4"/>
<path d="M244.035 238.399C244.983 238.399 245.891 238.776 246.561 239.445C247.231 240.115 247.607 241.023 247.607 241.971C247.607 242.918 247.23 243.826 246.561 244.496C245.891 245.166 244.982 245.542 244.035 245.542C243.088 245.542 242.18 245.166 241.51 244.496C240.84 243.826 240.464 242.918 240.464 241.971C240.464 241.023 240.84 240.115 241.51 239.445C242.18 238.776 243.088 238.399 244.035 238.399Z" fill="#E9EEF4"/>
<path d="M215.806 353.039C216.753 353.039 217.662 353.415 218.331 354.085C219.001 354.754 219.377 355.663 219.377 356.61C219.377 357.557 219.001 358.466 218.331 359.135C217.661 359.805 216.753 360.181 215.806 360.181C214.859 360.181 213.95 359.805 213.28 359.135C212.611 358.466 212.234 357.557 212.234 356.61C212.234 355.663 212.611 354.754 213.28 354.085C213.95 353.415 214.859 353.039 215.806 353.039Z" fill="#E9EEF4"/>
<path d="M211.12 58.9415C212.067 58.9416 212.975 59.3179 213.645 59.9877C214.315 60.6575 214.691 61.5658 214.691 62.513C214.691 63.4602 214.315 64.3686 213.645 65.0383C212.975 65.7081 212.067 66.0844 211.12 66.0844C210.173 66.0844 209.264 65.7081 208.594 65.0383C207.925 64.3686 207.548 63.4602 207.548 62.513C207.548 61.5659 207.925 60.6575 208.594 59.9877C209.264 59.3179 210.173 58.9416 211.12 58.9415Z" fill="#E9EEF4"/>
<path d="M246.874 73.8787C247.821 73.8787 248.729 74.255 249.399 74.9248C250.069 75.5946 250.445 76.503 250.445 77.4502C250.445 78.3973 250.069 79.3057 249.399 79.9755C248.729 80.6452 247.821 81.0215 246.874 81.0215C245.926 81.0215 245.018 80.6452 244.348 79.9755C243.678 79.3057 243.302 78.3973 243.302 77.4502C243.302 76.503 243.678 75.5946 244.348 74.9248C245.018 74.255 245.927 73.8787 246.874 73.8787Z" fill="#E9EEF4"/>
<path d="M224.519 212.678C225.466 212.678 226.375 213.055 227.044 213.724C227.714 214.394 228.09 215.303 228.09 216.25C228.09 217.197 227.714 218.105 227.044 218.775C226.374 219.445 225.466 219.821 224.519 219.821C223.572 219.821 222.663 219.445 221.993 218.775C221.324 218.105 220.947 217.197 220.947 216.25C220.947 215.303 221.324 214.394 221.993 213.724C222.663 213.055 223.572 212.678 224.519 212.678Z" fill="#E9EEF4"/>
<path d="M158.345 111.762C159.293 111.762 160.201 112.138 160.871 112.808C161.54 113.478 161.917 114.386 161.917 115.334C161.917 116.281 161.54 117.189 160.871 117.859C160.201 118.529 159.292 118.905 158.345 118.905C157.398 118.905 156.49 118.529 155.82 117.859C155.15 117.189 154.774 116.281 154.774 115.334C154.774 114.386 155.15 113.478 155.82 112.808C156.489 112.138 157.398 111.762 158.345 111.762Z" fill="#E9EEF4"/>
</svg>
