<svg width="856" height="527" viewBox="0 0 856 527" fill="none" xmlns="http://www.w3.org/2000/svg">
<path d="M4 524.109V1.24097" stroke="#6E7079" stroke-linecap="round"/>
<path d="M3 524.109H855" stroke="#6E7079" stroke-linecap="round"/>
<path d="M3 524.109H0" stroke="#6E7079"/>
<path d="M3 471.116H0" stroke="#6E7079"/>
<path d="M3 419.006H0" stroke="#6E7079"/>
<path d="M3 366.896H0" stroke="#6E7079"/>
<path d="M3 314.785H0" stroke="#6E7079"/>
<path d="M3 262.675H0" stroke="#6E7079"/>
<path d="M3 209.682H0" stroke="#6E7079"/>
<path d="M3 157.572H0" stroke="#6E7079"/>
<path d="M3 106.345H0" stroke="#6E7079"/>
<path d="M3 53.3512H0" stroke="#6E7079"/>
<path d="M3 1.24097H0" stroke="#6E7079"/>
<path d="M4 524.109V526.759" stroke="#6E7079"/>
<path d="M81 524.109V526.759" stroke="#6E7079"/>
<path d="M158 524.109V526.759" stroke="#6E7079"/>
<path d="M237 524.109V526.759" stroke="#6E7079"/>
<path d="M313 524.109V526.759" stroke="#6E7079"/>
<path d="M390 524.109V526.759" stroke="#6E7079"/>
<path d="M468 524.109V526.759" stroke="#6E7079"/>
<path d="M545 524.109V526.759" stroke="#6E7079"/>
<path d="M623 524.109V526.759" stroke="#6E7079"/>
<path d="M700 524.109V526.759" stroke="#6E7079"/>
<path d="M778 524.109V526.759" stroke="#6E7079"/>
<path d="M855 524.109V526.759" stroke="#6E7079"/>
</svg>
