<svg width="914" height="521" viewBox="0 0 914 521" fill="none" xmlns="http://www.w3.org/2000/svg">
<rect x="824" y="11.209" width="85" height="13" fill="url(#paint0_linear_15045_56162)"/>
<rect x="822.19" y="9.39898" width="3.62" height="16.62" rx="1.81" fill="#DADFEA" stroke="white" stroke-width="0.38"/>
<rect x="907.19" y="9.39898" width="3.62" height="16.62" rx="1.81" fill="#2A2C2F" stroke="white" stroke-width="0.38"/>
<path d="M823.842 6.27498C822.906 6.27498 822.324 5.39898 822.324 4.13898V4.09098C822.324 2.83098 822.918 1.94298 823.848 1.94298C824.778 1.94298 825.366 2.81898 825.366 4.07898V4.12698C825.366 5.38698 824.772 6.27498 823.842 6.27498ZM823.848 5.86698C824.49 5.86698 824.904 5.14698 824.904 4.13898V4.09098C824.904 3.08298 824.478 2.35098 823.842 2.35098C823.2 2.35098 822.786 3.07098 822.786 4.07898V4.12698C822.786 5.13498 823.206 5.86698 823.848 5.86698Z" fill="#373D43"/>
<path d="M903.504 6.20898V2.00898H903.93L906.126 5.31498V2.00898H906.57V6.20898H906.192L903.942 2.82498V6.20898H903.504ZM906.976 6.92298L909.316 1.47498H909.706L907.372 6.92298H906.976ZM909.303 6.20898L910.905 1.98498H911.349L912.951 6.20898H912.471L912.063 5.10498H910.173L909.765 6.20898H909.303ZM910.323 4.69698H911.913L911.121 2.56698L910.323 4.69698Z" fill="#373D43"/>
<g clip-path="url(#clip0_15045_56162)">
<path d="M19 289.717H15.688L10.6 292.453V290.485L13.9 288.829L10.6 287.161V285.241L15.664 287.977H19V289.717ZM16.108 285.434H14.452V281.918H16.108V285.434ZM19 281.564L10.552 278.552V276.896L19 273.884V275.684L17.176 276.308V279.2L19 279.812V281.564ZM15.64 278.672V276.836L12.904 277.748L15.64 278.672ZM12.568 271.605L14.452 270.597L12.568 269.577V267.813L15.7 269.673L19 267.741V269.553L16.996 270.621L19 271.701V273.477L15.724 271.557L12.568 273.405V271.605ZM11.884 266.821H10.336V265.045H11.884V266.821ZM19 266.785H12.568V265.081H19L19 266.785ZM19.12 261.702C19.12 262.458 18.868 263.358 18.232 264.138L17.032 263.394C17.476 262.818 17.752 262.206 17.752 261.678C17.752 261.198 17.524 260.994 17.26 260.994H17.236C16.864 260.994 16.708 261.474 16.408 262.17C16.012 263.082 15.556 263.862 14.464 263.862H14.44C13.204 263.862 12.472 262.902 12.472 261.654C12.472 260.958 12.712 260.178 13.168 259.53L14.392 260.214C14.08 260.694 13.84 261.222 13.84 261.678C13.84 262.086 14.044 262.302 14.296 262.302H14.32C14.656 262.302 14.848 261.822 15.16 261.138C15.604 260.202 16.072 259.434 17.092 259.434H17.116C18.448 259.434 19.12 260.418 19.12 261.702ZM19.108 253.733C19.108 254.717 18.724 255.437 17.392 255.437H14.008V256.085H12.568V255.437H10.924V253.733H12.568V252.461H14.008V253.733H17.044C17.416 253.733 17.596 253.565 17.596 253.205C17.596 252.941 17.524 252.689 17.416 252.473H18.772C18.964 252.809 19.108 253.217 19.108 253.733ZM11.884 251.317H10.336V249.541H11.884V251.317ZM19 251.281H12.568V249.577H19V251.281ZM19.108 246.174C19.108 247.158 18.724 247.878 17.392 247.878H14.008V248.526H12.568V247.878H10.924L10.924 246.174H12.568V244.902H14.008V246.174H17.044C17.416 246.174 17.596 246.006 17.596 245.646C17.596 245.382 17.524 245.13 17.416 244.914H18.772C18.964 245.25 19.108 245.658 19.108 246.174ZM19 243.723H10.336V242.019H19V243.723ZM19.144 237.836C19.144 239.54 17.86 240.848 15.856 240.848H15.748C13.84 240.848 12.448 239.66 12.448 238.04C12.448 236.204 13.948 235.304 15.868 235.304C15.964 235.304 16.168 235.304 16.42 235.316V239.156C17.272 239.012 17.716 238.484 17.716 237.764C17.716 237.236 17.476 236.828 17.08 236.42L18.112 235.544C18.76 236.132 19.144 236.876 19.144 237.836ZM15.292 239.168V236.948C14.404 237.02 13.852 237.404 13.852 238.04C13.852 238.664 14.38 239.072 15.292 239.168Z" fill="#6E7079"/>
<line x1="70.7769" y1="45.7867" x2="75" y2="45.7867" stroke="#868E96" stroke-width="0.844621"/>
<path d="M33.1022 72.079C32.0222 72.079 31.0622 71.707 30.1862 70.891L30.7502 70.207C31.4462 70.855 32.1662 71.251 33.1142 71.251C34.1222 71.251 34.7942 70.639 34.7942 69.835V69.823C34.7942 69.127 34.4582 68.683 32.9342 68.143C31.1942 67.495 30.5102 66.871 30.5102 65.683V65.659C30.5102 64.399 31.5662 63.439 33.0422 63.439C34.0142 63.439 34.8182 63.739 35.5622 64.387L35.0222 65.083C34.3982 64.543 33.7382 64.267 33.0062 64.267C32.0462 64.267 31.4222 64.855 31.4222 65.575V65.599C31.4222 66.331 31.7942 66.751 33.3782 67.327C35.0822 67.963 35.7062 68.647 35.7062 69.763V69.787C35.7062 71.131 34.6022 72.079 33.1022 72.079ZM39.6287 72.091C38.1047 72.091 36.8567 70.867 36.8567 68.887V68.827C36.8567 66.919 37.9727 65.587 39.4367 65.587C41.0087 65.587 41.9447 66.931 41.9447 68.815C41.9447 68.899 41.9447 69.067 41.9327 69.175H37.7327C37.8287 70.555 38.6807 71.323 39.6647 71.323C40.3487 71.323 40.8527 71.035 41.2847 70.603L41.7767 71.155C41.2127 71.731 40.5647 72.091 39.6287 72.091ZM37.7327 68.503H41.0807C41.0207 67.315 40.4567 66.343 39.4367 66.343C38.5127 66.343 37.8167 67.195 37.7327 68.503ZM43.3333 71.959V65.707H44.1973V67.087C44.5693 66.211 45.3253 65.575 46.3453 65.623V66.559H46.2973C45.1333 66.559 44.1973 67.375 44.1973 68.983V71.959H43.3333ZM47.5643 64.423V63.403H48.5243V64.423H47.5643ZM47.6123 71.959V65.707H48.4763V71.959H47.6123ZM52.7654 72.091C51.2414 72.091 49.9934 70.867 49.9934 68.887V68.827C49.9934 66.919 51.1094 65.587 52.5734 65.587C54.1454 65.587 55.0814 66.931 55.0814 68.815C55.0814 68.899 55.0814 69.067 55.0694 69.175H50.8694C50.9654 70.555 51.8174 71.323 52.8014 71.323C53.4854 71.323 53.9894 71.035 54.4214 70.603L54.9134 71.155C54.3494 71.731 53.7014 72.091 52.7654 72.091ZM50.8694 68.503H54.2174C54.1574 67.315 53.5934 66.343 52.5734 66.343C51.6494 66.343 50.9534 67.195 50.8694 68.503ZM58.162 72.067C57.394 72.067 56.566 71.767 55.906 71.191L56.362 70.555C56.95 71.047 57.562 71.311 58.186 71.311C58.87 71.311 59.35 70.927 59.35 70.339V70.327C59.35 69.775 58.834 69.487 57.994 69.139C56.998 68.707 56.206 68.311 56.206 67.339V67.315C56.206 66.295 57.034 65.611 58.15 65.611C58.858 65.611 59.59 65.887 60.118 66.283L59.698 66.943C59.218 66.595 58.678 66.355 58.126 66.355C57.466 66.355 57.046 66.739 57.046 67.231V67.255C57.046 67.783 57.586 68.047 58.438 68.407C59.47 68.863 60.19 69.295 60.19 70.243V70.267C60.19 71.383 59.29 72.067 58.162 72.067ZM65.6563 71.959V64.471L64.2883 64.951L64.1323 64.171L65.8723 63.511H66.5443V71.959H65.6563ZM71.3012 72.091C69.4292 72.091 68.2652 70.339 68.2652 67.819V67.723C68.2652 65.203 69.4532 63.427 71.3132 63.427C73.1732 63.427 74.3492 65.179 74.3492 67.699V67.795C74.3492 70.315 73.1612 72.091 71.3012 72.091ZM71.3132 71.275C72.5972 71.275 73.4252 69.835 73.4252 67.819V67.723C73.4252 65.707 72.5732 64.243 71.3012 64.243C70.0172 64.243 69.1892 65.683 69.1892 67.699V67.795C69.1892 69.811 70.0292 71.275 71.3132 71.275Z" fill="#6E7079"/>
<line x1="70.7769" y1="89.2867" x2="75" y2="89.2867" stroke="#868E96" stroke-width="0.844621"/>
<path d="M37.5436 115.579C36.4636 115.579 35.5036 115.207 34.6276 114.391L35.1916 113.707C35.8876 114.355 36.6076 114.751 37.5556 114.751C38.5636 114.751 39.2356 114.139 39.2356 113.335V113.323C39.2356 112.627 38.8996 112.183 37.3756 111.643C35.6356 110.995 34.9516 110.371 34.9516 109.183V109.159C34.9516 107.899 36.0076 106.939 37.4836 106.939C38.4556 106.939 39.2596 107.239 40.0036 107.887L39.4636 108.583C38.8396 108.043 38.1796 107.767 37.4476 107.767C36.4876 107.767 35.8636 108.355 35.8636 109.075V109.099C35.8636 109.831 36.2356 110.251 37.8196 110.827C39.5236 111.463 40.1476 112.147 40.1476 113.263V113.287C40.1476 114.631 39.0436 115.579 37.5436 115.579ZM44.0701 115.591C42.5461 115.591 41.2981 114.367 41.2981 112.387V112.327C41.2981 110.419 42.4141 109.087 43.8781 109.087C45.4501 109.087 46.3861 110.431 46.3861 112.315C46.3861 112.399 46.3861 112.567 46.3741 112.675H42.1741C42.2701 114.055 43.1221 114.823 44.1061 114.823C44.7901 114.823 45.2941 114.535 45.7261 114.103L46.2181 114.655C45.6541 115.231 45.0061 115.591 44.0701 115.591ZM42.1741 112.003H45.5221C45.4621 110.815 44.8981 109.843 43.8781 109.843C42.9541 109.843 42.2581 110.695 42.1741 112.003ZM47.7747 115.459V109.207H48.6387V110.587C49.0107 109.711 49.7667 109.075 50.7867 109.123V110.059H50.7387C49.5747 110.059 48.6387 110.875 48.6387 112.483V115.459H47.7747ZM52.0058 107.923V106.903H52.9658V107.923H52.0058ZM52.0538 115.459V109.207H52.9178V115.459H52.0538ZM57.2068 115.591C55.6828 115.591 54.4348 114.367 54.4348 112.387V112.327C54.4348 110.419 55.5508 109.087 57.0148 109.087C58.5868 109.087 59.5228 110.431 59.5228 112.315C59.5228 112.399 59.5228 112.567 59.5108 112.675H55.3108C55.4068 114.055 56.2588 114.823 57.2428 114.823C57.9268 114.823 58.4308 114.535 58.8628 114.103L59.3548 114.655C58.7908 115.231 58.1428 115.591 57.2068 115.591ZM55.3108 112.003H58.6588C58.5988 110.815 58.0348 109.843 57.0148 109.843C56.0908 109.843 55.3948 110.695 55.3108 112.003ZM62.6034 115.567C61.8354 115.567 61.0074 115.267 60.3474 114.691L60.8034 114.055C61.3914 114.547 62.0034 114.811 62.6274 114.811C63.3114 114.811 63.7914 114.427 63.7914 113.839V113.827C63.7914 113.275 63.2754 112.987 62.4354 112.639C61.4394 112.207 60.6474 111.811 60.6474 110.839V110.815C60.6474 109.795 61.4754 109.111 62.5914 109.111C63.2994 109.111 64.0314 109.387 64.5594 109.783L64.1394 110.443C63.6594 110.095 63.1194 109.855 62.5674 109.855C61.9074 109.855 61.4874 110.239 61.4874 110.731V110.755C61.4874 111.283 62.0274 111.547 62.8794 111.907C63.9114 112.363 64.6314 112.795 64.6314 113.743V113.767C64.6314 114.883 63.7314 115.567 62.6034 115.567ZM71.2737 114.763C72.6537 114.763 73.4457 113.215 73.4577 111.235C73.0137 111.955 72.3177 112.399 71.4297 112.399C69.9897 112.399 68.8857 111.415 68.8857 109.795V109.771C68.8857 108.139 70.0137 106.927 71.5377 106.927C72.3177 106.927 72.9297 107.191 73.3857 107.659C73.9737 108.247 74.3577 109.171 74.3577 110.923V111.019C74.3577 113.875 73.1097 115.591 71.2497 115.591C70.3977 115.591 69.7377 115.267 69.1137 114.763L69.5817 114.043C70.1217 114.499 70.6377 114.763 71.2737 114.763ZM71.5377 111.631C72.5937 111.631 73.3257 110.815 73.3257 109.735V109.711C73.3257 108.583 72.6177 107.731 71.5137 107.731C70.4457 107.731 69.7977 108.631 69.7977 109.735V109.759C69.7977 110.899 70.5177 111.631 71.5377 111.631Z" fill="#6E7079"/>
<line x1="70.7769" y1="132.787" x2="75" y2="132.787" stroke="#868E96" stroke-width="0.844621"/>
<path d="M37.7428 159.079C36.6628 159.079 35.7028 158.707 34.8268 157.891L35.3908 157.207C36.0868 157.855 36.8068 158.251 37.7548 158.251C38.7628 158.251 39.4348 157.639 39.4348 156.835V156.823C39.4348 156.127 39.0988 155.683 37.5748 155.143C35.8348 154.495 35.1508 153.871 35.1508 152.683V152.659C35.1508 151.399 36.2068 150.439 37.6828 150.439C38.6548 150.439 39.4588 150.739 40.2028 151.387L39.6628 152.083C39.0388 151.543 38.3788 151.267 37.6468 151.267C36.6868 151.267 36.0628 151.855 36.0628 152.575V152.599C36.0628 153.331 36.4348 153.751 38.0188 154.327C39.7228 154.963 40.3468 155.647 40.3468 156.763V156.787C40.3468 158.131 39.2428 159.079 37.7428 159.079ZM44.2693 159.091C42.7453 159.091 41.4973 157.867 41.4973 155.887V155.827C41.4973 153.919 42.6133 152.587 44.0773 152.587C45.6493 152.587 46.5853 153.931 46.5853 155.815C46.5853 155.899 46.5853 156.067 46.5733 156.175H42.3733C42.4693 157.555 43.3213 158.323 44.3053 158.323C44.9893 158.323 45.4933 158.035 45.9253 157.603L46.4173 158.155C45.8533 158.731 45.2053 159.091 44.2693 159.091ZM42.3733 155.503H45.7213C45.6613 154.315 45.0973 153.343 44.0773 153.343C43.1533 153.343 42.4573 154.195 42.3733 155.503ZM47.9739 158.959V152.707H48.8379V154.087C49.2099 153.211 49.9659 152.575 50.9859 152.623V153.559H50.9379C49.7739 153.559 48.8379 154.375 48.8379 155.983V158.959H47.9739ZM52.205 151.423V150.403H53.165V151.423H52.205ZM52.253 158.959V152.707H53.117V158.959H52.253ZM57.406 159.091C55.882 159.091 54.634 157.867 54.634 155.887V155.827C54.634 153.919 55.75 152.587 57.214 152.587C58.786 152.587 59.722 153.931 59.722 155.815C59.722 155.899 59.722 156.067 59.71 156.175H55.51C55.606 157.555 56.458 158.323 57.442 158.323C58.126 158.323 58.63 158.035 59.062 157.603L59.554 158.155C58.99 158.731 58.342 159.091 57.406 159.091ZM55.51 155.503H58.858C58.798 154.315 58.234 153.343 57.214 153.343C56.29 153.343 55.594 154.195 55.51 155.503ZM62.8027 159.067C62.0347 159.067 61.2067 158.767 60.5467 158.191L61.0027 157.555C61.5907 158.047 62.2027 158.311 62.8267 158.311C63.5107 158.311 63.9907 157.927 63.9907 157.339V157.327C63.9907 156.775 63.4747 156.487 62.6347 156.139C61.6387 155.707 60.8467 155.311 60.8467 154.339V154.315C60.8467 153.295 61.6747 152.611 62.7907 152.611C63.4987 152.611 64.2307 152.887 64.7587 153.283L64.3387 153.943C63.8587 153.595 63.3187 153.355 62.7667 153.355C62.1067 153.355 61.6867 153.739 61.6867 154.231V154.255C61.6867 154.783 62.2267 155.047 63.0787 155.407C64.1107 155.863 64.8307 156.295 64.8307 157.243V157.267C64.8307 158.383 63.9307 159.067 62.8027 159.067ZM71.7249 159.079C70.1649 159.079 68.9889 158.119 68.9889 156.727V156.691C68.9889 155.683 69.6129 154.963 70.5129 154.615C69.8049 154.267 69.2289 153.643 69.2289 152.683V152.647C69.2289 151.327 70.3809 150.439 71.7249 150.439C73.0809 150.439 74.2209 151.327 74.2209 152.647V152.683C74.2209 153.643 73.6569 154.267 72.9489 154.615C73.8249 154.975 74.4729 155.683 74.4729 156.679V156.715C74.4729 158.131 73.2969 159.079 71.7249 159.079ZM71.7249 154.279C72.6369 154.279 73.3449 153.619 73.3449 152.719V152.695C73.3449 151.831 72.6489 151.219 71.7249 151.219C70.8129 151.219 70.1169 151.819 70.1169 152.695V152.719C70.1169 153.619 70.8249 154.279 71.7249 154.279ZM71.7249 158.299C72.8769 158.299 73.5729 157.591 73.5729 156.691V156.667C73.5729 155.707 72.7569 155.023 71.7249 155.023C70.6929 155.023 69.8889 155.707 69.8889 156.667V156.691C69.8889 157.579 70.5849 158.299 71.7249 158.299Z" fill="#6E7079"/>
<line x1="70.7769" y1="176.287" x2="75" y2="176.287" stroke="#868E96" stroke-width="0.844621"/>
<path d="M38.1413 202.579C37.0613 202.579 36.1013 202.207 35.2253 201.391L35.7893 200.707C36.4853 201.355 37.2053 201.751 38.1533 201.751C39.1613 201.751 39.8333 201.139 39.8333 200.335V200.323C39.8333 199.627 39.4973 199.183 37.9733 198.643C36.2333 197.995 35.5493 197.371 35.5493 196.183V196.159C35.5493 194.899 36.6053 193.939 38.0813 193.939C39.0533 193.939 39.8573 194.239 40.6013 194.887L40.0613 195.583C39.4373 195.043 38.7773 194.767 38.0453 194.767C37.0853 194.767 36.4613 195.355 36.4613 196.075V196.099C36.4613 196.831 36.8333 197.251 38.4173 197.827C40.1213 198.463 40.7453 199.147 40.7453 200.263V200.287C40.7453 201.631 39.6413 202.579 38.1413 202.579ZM44.6678 202.591C43.1438 202.591 41.8958 201.367 41.8958 199.387V199.327C41.8958 197.419 43.0118 196.087 44.4758 196.087C46.0478 196.087 46.9838 197.431 46.9838 199.315C46.9838 199.399 46.9838 199.567 46.9718 199.675H42.7718C42.8678 201.055 43.7198 201.823 44.7038 201.823C45.3878 201.823 45.8918 201.535 46.3238 201.103L46.8158 201.655C46.2518 202.231 45.6038 202.591 44.6678 202.591ZM42.7718 199.003H46.1198C46.0598 197.815 45.4958 196.843 44.4758 196.843C43.5518 196.843 42.8558 197.695 42.7718 199.003ZM48.3724 202.459V196.207H49.2364V197.587C49.6084 196.711 50.3644 196.075 51.3844 196.123V197.059H51.3364C50.1724 197.059 49.2364 197.875 49.2364 199.483V202.459H48.3724ZM52.6034 194.923V193.903H53.5634V194.923H52.6034ZM52.6514 202.459V196.207H53.5154V202.459H52.6514ZM57.8045 202.591C56.2805 202.591 55.0325 201.367 55.0325 199.387V199.327C55.0325 197.419 56.1485 196.087 57.6125 196.087C59.1845 196.087 60.1205 197.431 60.1205 199.315C60.1205 199.399 60.1205 199.567 60.1085 199.675H55.9085C56.0045 201.055 56.8565 201.823 57.8405 201.823C58.5245 201.823 59.0285 201.535 59.4605 201.103L59.9525 201.655C59.3885 202.231 58.7405 202.591 57.8045 202.591ZM55.9085 199.003H59.2565C59.1965 197.815 58.6325 196.843 57.6125 196.843C56.6885 196.843 55.9925 197.695 55.9085 199.003ZM63.2011 202.567C62.4331 202.567 61.6051 202.267 60.9451 201.691L61.4011 201.055C61.9891 201.547 62.6011 201.811 63.2251 201.811C63.9091 201.811 64.3891 201.427 64.3891 200.839V200.827C64.3891 200.275 63.8731 199.987 63.0331 199.639C62.0371 199.207 61.2451 198.811 61.2451 197.839V197.815C61.2451 196.795 62.0731 196.111 63.1891 196.111C63.8971 196.111 64.6291 196.387 65.1571 196.783L64.7371 197.443C64.2571 197.095 63.7171 196.855 63.1651 196.855C62.5051 196.855 62.0851 197.239 62.0851 197.731V197.755C62.0851 198.283 62.6251 198.547 63.4771 198.907C64.5091 199.363 65.2291 199.795 65.2291 200.743V200.767C65.2291 201.883 64.3291 202.567 63.2011 202.567ZM70.2274 202.459L73.4674 194.899H69.5314V194.059H74.4394V194.743L71.1994 202.459H70.2274Z" fill="#6E7079"/>
<line x1="70.7769" y1="219.787" x2="75" y2="219.787" stroke="#868E96" stroke-width="0.844621"/>
<path d="M37.5436 246.079C36.4636 246.079 35.5036 245.707 34.6276 244.891L35.1916 244.207C35.8876 244.855 36.6076 245.251 37.5556 245.251C38.5636 245.251 39.2356 244.639 39.2356 243.835V243.823C39.2356 243.127 38.8996 242.683 37.3756 242.143C35.6356 241.495 34.9516 240.871 34.9516 239.683V239.659C34.9516 238.399 36.0076 237.439 37.4836 237.439C38.4556 237.439 39.2596 237.739 40.0036 238.387L39.4636 239.083C38.8396 238.543 38.1796 238.267 37.4476 238.267C36.4876 238.267 35.8636 238.855 35.8636 239.575V239.599C35.8636 240.331 36.2356 240.751 37.8196 241.327C39.5236 241.963 40.1476 242.647 40.1476 243.763V243.787C40.1476 245.131 39.0436 246.079 37.5436 246.079ZM44.0701 246.091C42.5461 246.091 41.2981 244.867 41.2981 242.887V242.827C41.2981 240.919 42.4141 239.587 43.8781 239.587C45.4501 239.587 46.3861 240.931 46.3861 242.815C46.3861 242.899 46.3861 243.067 46.3741 243.175H42.1741C42.2701 244.555 43.1221 245.323 44.1061 245.323C44.7901 245.323 45.2941 245.035 45.7261 244.603L46.2181 245.155C45.6541 245.731 45.0061 246.091 44.0701 246.091ZM42.1741 242.503H45.5221C45.4621 241.315 44.8981 240.343 43.8781 240.343C42.9541 240.343 42.2581 241.195 42.1741 242.503ZM47.7747 245.959V239.707H48.6387V241.087C49.0107 240.211 49.7667 239.575 50.7867 239.623V240.559H50.7387C49.5747 240.559 48.6387 241.375 48.6387 242.983V245.959H47.7747ZM52.0058 238.423V237.403H52.9658V238.423H52.0058ZM52.0538 245.959V239.707H52.9178V245.959H52.0538ZM57.2068 246.091C55.6828 246.091 54.4348 244.867 54.4348 242.887V242.827C54.4348 240.919 55.5508 239.587 57.0148 239.587C58.5868 239.587 59.5228 240.931 59.5228 242.815C59.5228 242.899 59.5228 243.067 59.5108 243.175H55.3108C55.4068 244.555 56.2588 245.323 57.2428 245.323C57.9268 245.323 58.4308 245.035 58.8628 244.603L59.3548 245.155C58.7908 245.731 58.1428 246.091 57.2068 246.091ZM55.3108 242.503H58.6588C58.5988 241.315 58.0348 240.343 57.0148 240.343C56.0908 240.343 55.3948 241.195 55.3108 242.503ZM62.6034 246.067C61.8354 246.067 61.0074 245.767 60.3474 245.191L60.8034 244.555C61.3914 245.047 62.0034 245.311 62.6274 245.311C63.3114 245.311 63.7914 244.927 63.7914 244.339V244.327C63.7914 243.775 63.2754 243.487 62.4354 243.139C61.4394 242.707 60.6474 242.311 60.6474 241.339V241.315C60.6474 240.295 61.4754 239.611 62.5914 239.611C63.2994 239.611 64.0314 239.887 64.5594 240.283L64.1394 240.943C63.6594 240.595 63.1194 240.355 62.5674 240.355C61.9074 240.355 61.4874 240.739 61.4874 241.231V241.255C61.4874 241.783 62.0274 242.047 62.8794 242.407C63.9114 242.863 64.6314 243.295 64.6314 244.243V244.267C64.6314 245.383 63.7314 246.067 62.6034 246.067ZM71.7297 246.091C70.9737 246.091 70.3377 245.827 69.8817 245.371C69.2697 244.747 68.9097 243.871 68.9097 242.095V241.999C68.9097 239.215 70.0977 237.427 72.0177 237.427C72.8217 237.427 73.4337 237.703 74.0457 238.183L73.5657 238.903C73.1097 238.519 72.6177 238.255 71.9817 238.255C70.5897 238.255 69.8217 239.791 69.8097 241.843C70.2537 241.135 70.9497 240.703 71.8497 240.703C73.2057 240.703 74.3817 241.639 74.3817 243.271V243.295C74.3817 244.927 73.2177 246.091 71.7297 246.091ZM71.7417 245.287C72.7977 245.287 73.4697 244.423 73.4697 243.331V243.307C73.4697 242.203 72.7497 241.483 71.7297 241.483C70.6857 241.483 69.9417 242.275 69.9417 243.319V243.343C69.9417 244.447 70.6617 245.287 71.7417 245.287Z" fill="#6E7079"/>
<line x1="70.7769" y1="263.287" x2="75" y2="263.287" stroke="#868E96" stroke-width="0.844621"/>
<path d="M37.942 289.579C36.862 289.579 35.902 289.207 35.026 288.391L35.59 287.707C36.286 288.355 37.006 288.751 37.954 288.751C38.962 288.751 39.634 288.139 39.634 287.335V287.323C39.634 286.627 39.298 286.183 37.774 285.643C36.034 284.995 35.35 284.371 35.35 283.183V283.159C35.35 281.899 36.406 280.939 37.882 280.939C38.854 280.939 39.658 281.239 40.402 281.887L39.862 282.583C39.238 282.043 38.578 281.767 37.846 281.767C36.886 281.767 36.262 282.355 36.262 283.075V283.099C36.262 283.831 36.634 284.251 38.218 284.827C39.922 285.463 40.546 286.147 40.546 287.263V287.287C40.546 288.631 39.442 289.579 37.942 289.579ZM44.4685 289.591C42.9445 289.591 41.6965 288.367 41.6965 286.387V286.327C41.6965 284.419 42.8125 283.087 44.2765 283.087C45.8485 283.087 46.7845 284.431 46.7845 286.315C46.7845 286.399 46.7845 286.567 46.7725 286.675H42.5725C42.6685 288.055 43.5205 288.823 44.5045 288.823C45.1885 288.823 45.6925 288.535 46.1245 288.103L46.6165 288.655C46.0525 289.231 45.4045 289.591 44.4685 289.591ZM42.5725 286.003H45.9205C45.8605 284.815 45.2965 283.843 44.2765 283.843C43.3525 283.843 42.6565 284.695 42.5725 286.003ZM48.1732 289.459V283.207H49.0372V284.587C49.4092 283.711 50.1652 283.075 51.1852 283.123V284.059H51.1372C49.9732 284.059 49.0372 284.875 49.0372 286.483V289.459H48.1732ZM52.4042 281.923V280.903H53.3642V281.923H52.4042ZM52.4522 289.459V283.207H53.3162V289.459H52.4522ZM57.6053 289.591C56.0813 289.591 54.8333 288.367 54.8333 286.387V286.327C54.8333 284.419 55.9493 283.087 57.4133 283.087C58.9853 283.087 59.9213 284.431 59.9213 286.315C59.9213 286.399 59.9213 286.567 59.9093 286.675H55.7093C55.8053 288.055 56.6573 288.823 57.6413 288.823C58.3253 288.823 58.8293 288.535 59.2613 288.103L59.7533 288.655C59.1893 289.231 58.5413 289.591 57.6053 289.591ZM55.7093 286.003H59.0573C58.9973 284.815 58.4333 283.843 57.4133 283.843C56.4893 283.843 55.7933 284.695 55.7093 286.003ZM63.0019 289.567C62.2339 289.567 61.4059 289.267 60.7459 288.691L61.2019 288.055C61.7899 288.547 62.4019 288.811 63.0259 288.811C63.7099 288.811 64.1899 288.427 64.1899 287.839V287.827C64.1899 287.275 63.6739 286.987 62.8339 286.639C61.8379 286.207 61.0459 285.811 61.0459 284.839V284.815C61.0459 283.795 61.8739 283.111 62.9899 283.111C63.6979 283.111 64.4299 283.387 64.9579 283.783L64.5379 284.443C64.0579 284.095 63.5179 283.855 62.9659 283.855C62.3059 283.855 61.8859 284.239 61.8859 284.731V284.755C61.8859 285.283 62.4259 285.547 63.2779 285.907C64.3099 286.363 65.0299 286.795 65.0299 287.743V287.767C65.0299 288.883 64.1299 289.567 63.0019 289.567ZM71.6482 289.591C70.6762 289.591 69.8122 289.147 69.1882 288.547L69.7282 287.875C70.2922 288.403 70.9402 288.763 71.6602 288.763C72.7282 288.763 73.4842 287.983 73.4842 286.879V286.843C73.4842 285.739 72.7042 285.091 71.6602 285.091C71.0602 285.091 70.6042 285.259 70.1962 285.475L69.6202 285.079L69.8362 281.059H74.0362V281.899H70.6162L70.4482 284.575C70.8442 284.407 71.2402 284.275 71.8042 284.275C73.2322 284.275 74.3962 285.163 74.3962 286.807V286.843C74.3962 288.475 73.2322 289.591 71.6482 289.591Z" fill="#6E7079"/>
<line x1="70.7769" y1="306.787" x2="75" y2="306.787" stroke="#868E96" stroke-width="0.844621"/>
<path d="M37.3678 333.079C36.2878 333.079 35.3278 332.707 34.4518 331.891L35.0158 331.207C35.7118 331.855 36.4318 332.251 37.3798 332.251C38.3878 332.251 39.0598 331.639 39.0598 330.835V330.823C39.0598 330.127 38.7238 329.683 37.1998 329.143C35.4598 328.495 34.7758 327.871 34.7758 326.683V326.659C34.7758 325.399 35.8318 324.439 37.3078 324.439C38.2798 324.439 39.0838 324.739 39.8278 325.387L39.2878 326.083C38.6638 325.543 38.0038 325.267 37.2718 325.267C36.3118 325.267 35.6878 325.855 35.6878 326.575V326.599C35.6878 327.331 36.0598 327.751 37.6438 328.327C39.3478 328.963 39.9718 329.647 39.9718 330.763V330.787C39.9718 332.131 38.8678 333.079 37.3678 333.079ZM43.8943 333.091C42.3703 333.091 41.1223 331.867 41.1223 329.887V329.827C41.1223 327.919 42.2383 326.587 43.7023 326.587C45.2743 326.587 46.2103 327.931 46.2103 329.815C46.2103 329.899 46.2103 330.067 46.1983 330.175H41.9983C42.0943 331.555 42.9463 332.323 43.9303 332.323C44.6143 332.323 45.1183 332.035 45.5503 331.603L46.0423 332.155C45.4783 332.731 44.8303 333.091 43.8943 333.091ZM41.9983 329.503H45.3463C45.2863 328.315 44.7223 327.343 43.7023 327.343C42.7783 327.343 42.0823 328.195 41.9983 329.503ZM47.5989 332.959V326.707H48.4629V328.087C48.8349 327.211 49.5909 326.575 50.6109 326.623V327.559H50.5629C49.3989 327.559 48.4629 328.375 48.4629 329.983V332.959H47.5989ZM51.83 325.423V324.403H52.79V325.423H51.83ZM51.878 332.959V326.707H52.742V332.959H51.878ZM57.031 333.091C55.507 333.091 54.259 331.867 54.259 329.887V329.827C54.259 327.919 55.375 326.587 56.839 326.587C58.411 326.587 59.347 327.931 59.347 329.815C59.347 329.899 59.347 330.067 59.335 330.175H55.135C55.231 331.555 56.083 332.323 57.067 332.323C57.751 332.323 58.255 332.035 58.687 331.603L59.179 332.155C58.615 332.731 57.967 333.091 57.031 333.091ZM55.135 329.503H58.483C58.423 328.315 57.859 327.343 56.839 327.343C55.915 327.343 55.219 328.195 55.135 329.503ZM62.4277 333.067C61.6597 333.067 60.8317 332.767 60.1717 332.191L60.6277 331.555C61.2157 332.047 61.8277 332.311 62.4517 332.311C63.1357 332.311 63.6157 331.927 63.6157 331.339V331.327C63.6157 330.775 63.0997 330.487 62.2597 330.139C61.2637 329.707 60.4717 329.311 60.4717 328.339V328.315C60.4717 327.295 61.2997 326.611 62.4157 326.611C63.1237 326.611 63.8557 326.887 64.3837 327.283L63.9637 327.943C63.4837 327.595 62.9437 327.355 62.3917 327.355C61.7317 327.355 61.3117 327.739 61.3117 328.231V328.255C61.3117 328.783 61.8517 329.047 62.7037 329.407C63.7357 329.863 64.4557 330.295 64.4557 331.243V331.267C64.4557 332.383 63.5557 333.067 62.4277 333.067ZM72.5259 332.959V331.015H68.6739L68.5059 330.355L72.5859 324.499H73.3779V330.259H74.4939V331.015H73.3779V332.959H72.5259ZM69.5259 330.259H72.5259V325.915L69.5259 330.259Z" fill="#6E7079"/>
<line x1="70.7769" y1="350.287" x2="75" y2="350.287" stroke="#868E96" stroke-width="0.844621"/>
<path d="M38.0006 376.579C36.9206 376.579 35.9606 376.207 35.0846 375.391L35.6486 374.707C36.3446 375.355 37.0646 375.751 38.0126 375.751C39.0206 375.751 39.6926 375.139 39.6926 374.335V374.323C39.6926 373.627 39.3566 373.183 37.8326 372.643C36.0926 371.995 35.4086 371.371 35.4086 370.183V370.159C35.4086 368.899 36.4646 367.939 37.9406 367.939C38.9126 367.939 39.7166 368.239 40.4606 368.887L39.9206 369.583C39.2966 369.043 38.6366 368.767 37.9046 368.767C36.9446 368.767 36.3206 369.355 36.3206 370.075V370.099C36.3206 370.831 36.6926 371.251 38.2766 371.827C39.9806 372.463 40.6046 373.147 40.6046 374.263V374.287C40.6046 375.631 39.5006 376.579 38.0006 376.579ZM44.5271 376.591C43.0031 376.591 41.7551 375.367 41.7551 373.387V373.327C41.7551 371.419 42.8711 370.087 44.3351 370.087C45.9071 370.087 46.8431 371.431 46.8431 373.315C46.8431 373.399 46.8431 373.567 46.8311 373.675H42.6311C42.7271 375.055 43.5791 375.823 44.5631 375.823C45.2471 375.823 45.7511 375.535 46.1831 375.103L46.6751 375.655C46.1111 376.231 45.4631 376.591 44.5271 376.591ZM42.6311 373.003H45.9791C45.9191 371.815 45.3551 370.843 44.3351 370.843C43.4111 370.843 42.7151 371.695 42.6311 373.003ZM48.2318 376.459V370.207H49.0958V371.587C49.4678 370.711 50.2238 370.075 51.2438 370.123V371.059H51.1958C50.0318 371.059 49.0958 371.875 49.0958 373.483V376.459H48.2318ZM52.4628 368.923V367.903H53.4228V368.923H52.4628ZM52.5108 376.459V370.207H53.3748V376.459H52.5108ZM57.6638 376.591C56.1398 376.591 54.8918 375.367 54.8918 373.387V373.327C54.8918 371.419 56.0078 370.087 57.4718 370.087C59.0438 370.087 59.9798 371.431 59.9798 373.315C59.9798 373.399 59.9798 373.567 59.9678 373.675H55.7678C55.8638 375.055 56.7158 375.823 57.6998 375.823C58.3838 375.823 58.8878 375.535 59.3198 375.103L59.8118 375.655C59.2478 376.231 58.5998 376.591 57.6638 376.591ZM55.7678 373.003H59.1158C59.0558 371.815 58.4918 370.843 57.4718 370.843C56.5478 370.843 55.8518 371.695 55.7678 373.003ZM63.0605 376.567C62.2925 376.567 61.4645 376.267 60.8045 375.691L61.2605 375.055C61.8485 375.547 62.4605 375.811 63.0845 375.811C63.7685 375.811 64.2485 375.427 64.2485 374.839V374.827C64.2485 374.275 63.7325 373.987 62.8925 373.639C61.8965 373.207 61.1045 372.811 61.1045 371.839V371.815C61.1045 370.795 61.9325 370.111 63.0485 370.111C63.7565 370.111 64.4885 370.387 65.0165 370.783L64.5965 371.443C64.1165 371.095 63.5765 370.855 63.0245 370.855C62.3645 370.855 61.9445 371.239 61.9445 371.731V371.755C61.9445 372.283 62.4845 372.547 63.3365 372.907C64.3685 373.363 65.0885 373.795 65.0885 374.743V374.767C65.0885 375.883 64.1885 376.567 63.0605 376.567ZM71.7188 376.591C70.5908 376.591 69.7388 376.111 69.1628 375.439L69.7388 374.815C70.2428 375.391 70.8548 375.763 71.7188 375.763C72.6668 375.763 73.4228 375.103 73.4228 374.083V374.047C73.4228 372.967 72.4988 372.415 71.1908 372.415H70.8788L70.7468 371.851L73.0748 368.887H69.5107V368.059H74.2268V368.731L71.8748 371.695C73.1708 371.839 74.3348 372.535 74.3348 374.011V374.047C74.3348 375.571 73.1708 376.591 71.7188 376.591Z" fill="#6E7079"/>
<line x1="70.7769" y1="393.787" x2="75" y2="393.787" stroke="#868E96" stroke-width="0.844621"/>
<path d="M38.0475 420.079C36.9675 420.079 36.0075 419.707 35.1315 418.891L35.6955 418.207C36.3915 418.855 37.1115 419.251 38.0595 419.251C39.0675 419.251 39.7395 418.639 39.7395 417.835V417.823C39.7395 417.127 39.4035 416.683 37.8795 416.143C36.1395 415.495 35.4555 414.871 35.4555 413.683V413.659C35.4555 412.399 36.5115 411.439 37.9875 411.439C38.9595 411.439 39.7635 411.739 40.5075 412.387L39.9675 413.083C39.3435 412.543 38.6835 412.267 37.9515 412.267C36.9915 412.267 36.3675 412.855 36.3675 413.575V413.599C36.3675 414.331 36.7395 414.751 38.3235 415.327C40.0275 415.963 40.6515 416.647 40.6515 417.763V417.787C40.6515 419.131 39.5475 420.079 38.0475 420.079ZM44.574 420.091C43.05 420.091 41.802 418.867 41.802 416.887V416.827C41.802 414.919 42.918 413.587 44.382 413.587C45.954 413.587 46.89 414.931 46.89 416.815C46.89 416.899 46.89 417.067 46.878 417.175H42.678C42.774 418.555 43.626 419.323 44.61 419.323C45.294 419.323 45.798 419.035 46.23 418.603L46.722 419.155C46.158 419.731 45.51 420.091 44.574 420.091ZM42.678 416.503H46.026C45.966 415.315 45.402 414.343 44.382 414.343C43.458 414.343 42.762 415.195 42.678 416.503ZM48.2786 419.959V413.707H49.1426V415.087C49.5146 414.211 50.2706 413.575 51.2906 413.623V414.559H51.2426C50.0786 414.559 49.1426 415.375 49.1426 416.983V419.959H48.2786ZM52.5097 412.423V411.403H53.4697V412.423H52.5097ZM52.5577 419.959V413.707H53.4217V419.959H52.5577ZM57.7107 420.091C56.1867 420.091 54.9387 418.867 54.9387 416.887V416.827C54.9387 414.919 56.0547 413.587 57.5187 413.587C59.0907 413.587 60.0267 414.931 60.0267 416.815C60.0267 416.899 60.0267 417.067 60.0147 417.175H55.8147C55.9107 418.555 56.7627 419.323 57.7467 419.323C58.4307 419.323 58.9347 419.035 59.3667 418.603L59.8587 419.155C59.2947 419.731 58.6467 420.091 57.7107 420.091ZM55.8147 416.503H59.1627C59.1027 415.315 58.5387 414.343 57.5187 414.343C56.5947 414.343 55.8987 415.195 55.8147 416.503ZM63.1073 420.067C62.3393 420.067 61.5113 419.767 60.8513 419.191L61.3073 418.555C61.8953 419.047 62.5073 419.311 63.1313 419.311C63.8153 419.311 64.2953 418.927 64.2953 418.339V418.327C64.2953 417.775 63.7793 417.487 62.9393 417.139C61.9433 416.707 61.1513 416.311 61.1513 415.339V415.315C61.1513 414.295 61.9793 413.611 63.0953 413.611C63.8033 413.611 64.5353 413.887 65.0633 414.283L64.6433 414.943C64.1633 414.595 63.6233 414.355 63.0713 414.355C62.4113 414.355 61.9913 414.739 61.9913 415.231V415.255C61.9913 415.783 62.5313 416.047 63.3833 416.407C64.4153 416.863 65.1353 417.295 65.1353 418.243V418.267C65.1353 419.383 64.2353 420.067 63.1073 420.067ZM69.2696 419.959V419.263L71.9816 416.239C72.9896 415.159 73.3736 414.547 73.3736 413.767C73.3736 412.843 72.7016 412.267 71.8616 412.267C71.0936 412.267 70.5416 412.675 69.9776 413.467L69.3536 412.939C69.9776 412.003 70.7456 411.439 71.9456 411.439C73.3136 411.439 74.3096 412.363 74.3096 413.683V413.719C74.3096 414.799 73.7936 415.507 72.6176 416.743L70.5176 419.119H74.3696V419.959H69.2696Z" fill="#6E7079"/>
<line x1="70.7769" y1="437.287" x2="75" y2="437.287" stroke="#868E96" stroke-width="0.844621"/>
<path d="M40.485 463.579C39.405 463.579 38.445 463.207 37.569 462.391L38.133 461.707C38.829 462.355 39.549 462.751 40.497 462.751C41.505 462.751 42.177 462.139 42.177 461.335V461.323C42.177 460.627 41.841 460.183 40.317 459.643C38.577 458.995 37.893 458.371 37.893 457.183V457.159C37.893 455.899 38.949 454.939 40.425 454.939C41.397 454.939 42.201 455.239 42.945 455.887L42.405 456.583C41.781 456.043 41.121 455.767 40.389 455.767C39.429 455.767 38.805 456.355 38.805 457.075V457.099C38.805 457.831 39.177 458.251 40.761 458.827C42.465 459.463 43.089 460.147 43.089 461.263V461.287C43.089 462.631 41.985 463.579 40.485 463.579ZM47.0115 463.591C45.4875 463.591 44.2395 462.367 44.2395 460.387V460.327C44.2395 458.419 45.3555 457.087 46.8195 457.087C48.3915 457.087 49.3275 458.431 49.3275 460.315C49.3275 460.399 49.3275 460.567 49.3155 460.675H45.1155C45.2115 462.055 46.0635 462.823 47.0475 462.823C47.7315 462.823 48.2355 462.535 48.6675 462.103L49.1595 462.655C48.5955 463.231 47.9475 463.591 47.0115 463.591ZM45.1155 460.003H48.4635C48.4035 458.815 47.8395 457.843 46.8195 457.843C45.8955 457.843 45.1995 458.695 45.1155 460.003ZM50.7161 463.459V457.207H51.5801V458.587C51.9521 457.711 52.7081 457.075 53.7281 457.123V458.059H53.6801C52.5161 458.059 51.5801 458.875 51.5801 460.483V463.459H50.7161ZM54.9472 455.923V454.903H55.9072V455.923H54.9472ZM54.9952 463.459V457.207H55.8592V463.459H54.9952ZM60.1482 463.591C58.6242 463.591 57.3762 462.367 57.3762 460.387V460.327C57.3762 458.419 58.4922 457.087 59.9562 457.087C61.5282 457.087 62.4642 458.431 62.4642 460.315C62.4642 460.399 62.4642 460.567 62.4522 460.675H58.2522C58.3482 462.055 59.2002 462.823 60.1842 462.823C60.8682 462.823 61.3722 462.535 61.8042 462.103L62.2962 462.655C61.7322 463.231 61.0842 463.591 60.1482 463.591ZM58.2522 460.003H61.6002C61.5402 458.815 60.9762 457.843 59.9562 457.843C59.0322 457.843 58.3362 458.695 58.2522 460.003ZM65.5448 463.567C64.7768 463.567 63.9488 463.267 63.2888 462.691L63.7448 462.055C64.3328 462.547 64.9448 462.811 65.5688 462.811C66.2528 462.811 66.7328 462.427 66.7328 461.839V461.827C66.7328 461.275 66.2168 460.987 65.3768 460.639C64.3808 460.207 63.5888 459.811 63.5888 458.839V458.815C63.5888 457.795 64.4168 457.111 65.5328 457.111C66.2408 457.111 66.9728 457.387 67.5008 457.783L67.0808 458.443C66.6008 458.095 66.0608 457.855 65.5088 457.855C64.8488 457.855 64.4288 458.239 64.4288 458.731V458.755C64.4288 459.283 64.9688 459.547 65.8208 459.907C66.8528 460.363 67.5728 460.795 67.5728 461.743V461.767C67.5728 462.883 66.6728 463.567 65.5448 463.567ZM73.0391 463.459V455.971L71.6711 456.451L71.5151 455.671L73.2551 455.011H73.9271V463.459H73.0391Z" fill="#6E7079"/>
<line x1="70.7769" y1="480.787" x2="75" y2="480.787" stroke="#868E96" stroke-width="0.844621"/>
<path d="M75 482.209L75 47.209" stroke="#373D43"/>
<path d="M151.727 482.209L151.727 47.209" stroke="#E0E6F1"/>
<path d="M228.455 482.209L228.455 47.209" stroke="#E0E6F1"/>
<path d="M305.182 482.209L305.182 47.209" stroke="#E0E6F1"/>
<path d="M381.909 482.209L381.909 47.209" stroke="#E0E6F1"/>
<path d="M458.636 482.209L458.636 47.209" stroke="#E0E6F1"/>
<path d="M535.364 482.209V47.209" stroke="#E0E6F1"/>
<path d="M612.091 482.209V47.209" stroke="#E0E6F1"/>
<path d="M688.818 482.209V47.209" stroke="#E0E6F1"/>
<path d="M765.545 482.209V47.209" stroke="#E0E6F1"/>
<path d="M842.273 482.209V47.209" stroke="#E0E6F1"/>
<path d="M75 47.209H919" stroke="#E0E6F1"/>
<path d="M75 90.709H919" stroke="#E0E6F1"/>
<path d="M75 134.209H919" stroke="#E0E6F1"/>
<path d="M75 177.709H919" stroke="#E0E6F1"/>
<path d="M75 221.209H919" stroke="#E0E6F1"/>
<path d="M75 264.709H919" stroke="#E0E6F1"/>
<path d="M75 308.209H919" stroke="#E0E6F1"/>
<path d="M75 351.709H919" stroke="#E0E6F1"/>
<path d="M75 395.209H919" stroke="#E0E6F1"/>
<path d="M75 438.709H919" stroke="#E0E6F1"/>
<path d="M75 482.209H919" stroke="#6E7079" stroke-linecap="round"/>
<line x1="74.5777" y1="486.432" x2="74.5777" y2="482.209" stroke="#868E96" stroke-width="0.844621"/>
<path d="M97.7861 493.329C96.7061 493.329 95.7461 492.957 94.8701 492.141L95.4341 491.457C96.1301 492.105 96.8501 492.501 97.7981 492.501C98.8061 492.501 99.4781 491.889 99.4781 491.085V491.073C99.4781 490.377 99.1421 489.933 97.6181 489.393C95.8781 488.745 95.1941 488.121 95.1941 486.933V486.909C95.1941 485.649 96.2501 484.689 97.7261 484.689C98.6981 484.689 99.5021 484.989 100.246 485.637L99.7061 486.333C99.0821 485.793 98.4221 485.517 97.6901 485.517C96.7301 485.517 96.1061 486.105 96.1061 486.825V486.849C96.1061 487.581 96.4781 488.001 98.0621 488.577C99.7661 489.213 100.39 489.897 100.39 491.013V491.037C100.39 492.381 99.2861 493.329 97.7861 493.329ZM104.313 493.341C102.789 493.341 101.541 492.117 101.541 490.137V490.077C101.541 488.169 102.657 486.837 104.121 486.837C105.693 486.837 106.629 488.181 106.629 490.065C106.629 490.149 106.629 490.317 106.617 490.425H102.417C102.513 491.805 103.365 492.573 104.349 492.573C105.033 492.573 105.537 492.285 105.969 491.853L106.461 492.405C105.897 492.981 105.249 493.341 104.313 493.341ZM102.417 489.753H105.765C105.705 488.565 105.141 487.593 104.121 487.593C103.197 487.593 102.501 488.445 102.417 489.753ZM108.017 493.209V486.957H108.881V488.337C109.253 487.461 110.009 486.825 111.029 486.873V487.809H110.981C109.817 487.809 108.881 488.625 108.881 490.233V493.209H108.017ZM112.248 485.673V484.653H113.208V485.673H112.248ZM112.296 493.209V486.957H113.16V493.209H112.296ZM117.449 493.341C115.925 493.341 114.677 492.117 114.677 490.137V490.077C114.677 488.169 115.793 486.837 117.257 486.837C118.829 486.837 119.765 488.181 119.765 490.065C119.765 490.149 119.765 490.317 119.753 490.425H115.553C115.649 491.805 116.501 492.573 117.485 492.573C118.169 492.573 118.673 492.285 119.105 491.853L119.597 492.405C119.033 492.981 118.385 493.341 117.449 493.341ZM115.553 489.753H118.901C118.841 488.565 118.277 487.593 117.257 487.593C116.333 487.593 115.637 488.445 115.553 489.753ZM122.846 493.317C122.078 493.317 121.25 493.017 120.59 492.441L121.046 491.805C121.634 492.297 122.246 492.561 122.87 492.561C123.554 492.561 124.034 492.177 124.034 491.589V491.577C124.034 491.025 123.518 490.737 122.678 490.389C121.682 489.957 120.89 489.561 120.89 488.589V488.565C120.89 487.545 121.718 486.861 122.834 486.861C123.542 486.861 124.274 487.137 124.802 487.533L124.382 488.193C123.902 487.845 123.362 487.605 122.81 487.605C122.15 487.605 121.73 487.989 121.73 488.481V488.505C121.73 489.033 122.27 489.297 123.122 489.657C124.154 490.113 124.874 490.545 124.874 491.493V491.517C124.874 492.633 123.974 493.317 122.846 493.317ZM130.34 493.209V485.721L128.972 486.201L128.816 485.421L130.556 484.761H131.228V493.209H130.34Z" fill="#6E7079"/>
<line x1="151.305" y1="486.432" x2="151.305" y2="482.209" stroke="#868E96" stroke-width="0.844621"/>
<path d="M173.295 493.329C172.215 493.329 171.255 492.957 170.379 492.141L170.943 491.457C171.639 492.105 172.359 492.501 173.307 492.501C174.315 492.501 174.987 491.889 174.987 491.085V491.073C174.987 490.377 174.651 489.933 173.127 489.393C171.387 488.745 170.703 488.121 170.703 486.933V486.909C170.703 485.649 171.759 484.689 173.235 484.689C174.207 484.689 175.011 484.989 175.755 485.637L175.215 486.333C174.591 485.793 173.931 485.517 173.199 485.517C172.239 485.517 171.615 486.105 171.615 486.825V486.849C171.615 487.581 171.987 488.001 173.571 488.577C175.275 489.213 175.899 489.897 175.899 491.013V491.037C175.899 492.381 174.795 493.329 173.295 493.329ZM179.821 493.341C178.297 493.341 177.049 492.117 177.049 490.137V490.077C177.049 488.169 178.165 486.837 179.629 486.837C181.201 486.837 182.137 488.181 182.137 490.065C182.137 490.149 182.137 490.317 182.125 490.425H177.925C178.021 491.805 178.873 492.573 179.857 492.573C180.541 492.573 181.045 492.285 181.477 491.853L181.969 492.405C181.405 492.981 180.757 493.341 179.821 493.341ZM177.925 489.753H181.273C181.213 488.565 180.649 487.593 179.629 487.593C178.705 487.593 178.009 488.445 177.925 489.753ZM183.526 493.209V486.957H184.39V488.337C184.762 487.461 185.518 486.825 186.538 486.873V487.809H186.49C185.326 487.809 184.39 488.625 184.39 490.233V493.209H183.526ZM187.757 485.673V484.653H188.717V485.673H187.757ZM187.805 493.209V486.957H188.669V493.209H187.805ZM192.958 493.341C191.434 493.341 190.186 492.117 190.186 490.137V490.077C190.186 488.169 191.302 486.837 192.766 486.837C194.338 486.837 195.274 488.181 195.274 490.065C195.274 490.149 195.274 490.317 195.262 490.425H191.062C191.158 491.805 192.01 492.573 192.994 492.573C193.678 492.573 194.182 492.285 194.614 491.853L195.106 492.405C194.542 492.981 193.894 493.341 192.958 493.341ZM191.062 489.753H194.41C194.35 488.565 193.786 487.593 192.766 487.593C191.842 487.593 191.146 488.445 191.062 489.753ZM198.355 493.317C197.587 493.317 196.759 493.017 196.099 492.441L196.555 491.805C197.143 492.297 197.755 492.561 198.379 492.561C199.063 492.561 199.543 492.177 199.543 491.589V491.577C199.543 491.025 199.027 490.737 198.187 490.389C197.191 489.957 196.399 489.561 196.399 488.589V488.565C196.399 487.545 197.227 486.861 198.343 486.861C199.051 486.861 199.783 487.137 200.311 487.533L199.891 488.193C199.411 487.845 198.871 487.605 198.319 487.605C197.659 487.605 197.239 487.989 197.239 488.481V488.505C197.239 489.033 197.779 489.297 198.631 489.657C199.663 490.113 200.383 490.545 200.383 491.493V491.517C200.383 492.633 199.483 493.317 198.355 493.317ZM204.517 493.209V492.513L207.229 489.489C208.237 488.409 208.621 487.797 208.621 487.017C208.621 486.093 207.949 485.517 207.109 485.517C206.341 485.517 205.789 485.925 205.225 486.717L204.601 486.189C205.225 485.253 205.993 484.689 207.193 484.689C208.561 484.689 209.557 485.613 209.557 486.933V486.969C209.557 488.049 209.041 488.757 207.865 489.993L205.765 492.369H209.617V493.209H204.517Z" fill="#6E7079"/>
<line x1="228.032" y1="486.432" x2="228.032" y2="482.209" stroke="#868E96" stroke-width="0.844621"/>
<path d="M249.998 493.329C248.918 493.329 247.958 492.957 247.082 492.141L247.646 491.457C248.342 492.105 249.062 492.501 250.01 492.501C251.018 492.501 251.69 491.889 251.69 491.085V491.073C251.69 490.377 251.354 489.933 249.83 489.393C248.09 488.745 247.406 488.121 247.406 486.933V486.909C247.406 485.649 248.462 484.689 249.938 484.689C250.91 484.689 251.714 484.989 252.458 485.637L251.918 486.333C251.294 485.793 250.634 485.517 249.902 485.517C248.942 485.517 248.318 486.105 248.318 486.825V486.849C248.318 487.581 248.69 488.001 250.274 488.577C251.978 489.213 252.602 489.897 252.602 491.013V491.037C252.602 492.381 251.498 493.329 249.998 493.329ZM256.525 493.341C255.001 493.341 253.753 492.117 253.753 490.137V490.077C253.753 488.169 254.869 486.837 256.333 486.837C257.905 486.837 258.841 488.181 258.841 490.065C258.841 490.149 258.841 490.317 258.829 490.425H254.629C254.725 491.805 255.577 492.573 256.561 492.573C257.245 492.573 257.749 492.285 258.181 491.853L258.673 492.405C258.109 492.981 257.461 493.341 256.525 493.341ZM254.629 489.753H257.977C257.917 488.565 257.353 487.593 256.333 487.593C255.409 487.593 254.713 488.445 254.629 489.753ZM260.23 493.209V486.957H261.094V488.337C261.466 487.461 262.222 486.825 263.242 486.873V487.809H263.194C262.03 487.809 261.094 488.625 261.094 490.233V493.209H260.23ZM264.461 485.673V484.653H265.421V485.673H264.461ZM264.509 493.209V486.957H265.373V493.209H264.509ZM269.662 493.341C268.138 493.341 266.89 492.117 266.89 490.137V490.077C266.89 488.169 268.006 486.837 269.47 486.837C271.042 486.837 271.978 488.181 271.978 490.065C271.978 490.149 271.978 490.317 271.966 490.425H267.766C267.862 491.805 268.714 492.573 269.698 492.573C270.382 492.573 270.886 492.285 271.318 491.853L271.81 492.405C271.246 492.981 270.598 493.341 269.662 493.341ZM267.766 489.753H271.114C271.054 488.565 270.49 487.593 269.47 487.593C268.546 487.593 267.85 488.445 267.766 489.753ZM275.058 493.317C274.29 493.317 273.462 493.017 272.802 492.441L273.258 491.805C273.846 492.297 274.458 492.561 275.082 492.561C275.766 492.561 276.246 492.177 276.246 491.589V491.577C276.246 491.025 275.73 490.737 274.89 490.389C273.894 489.957 273.102 489.561 273.102 488.589V488.565C273.102 487.545 273.93 486.861 275.046 486.861C275.754 486.861 276.486 487.137 277.014 487.533L276.594 488.193C276.114 487.845 275.574 487.605 275.022 487.605C274.362 487.605 273.942 487.989 273.942 488.481V488.505C273.942 489.033 274.482 489.297 275.334 489.657C276.366 490.113 277.086 490.545 277.086 491.493V491.517C277.086 492.633 276.186 493.317 275.058 493.317ZM283.717 493.341C282.589 493.341 281.737 492.861 281.161 492.189L281.737 491.565C282.241 492.141 282.853 492.513 283.717 492.513C284.665 492.513 285.421 491.853 285.421 490.833V490.797C285.421 489.717 284.497 489.165 283.189 489.165H282.877L282.745 488.601L285.073 485.637H281.509V484.809H286.225V485.481L283.873 488.445C285.169 488.589 286.333 489.285 286.333 490.761V490.797C286.333 492.321 285.169 493.341 283.717 493.341Z" fill="#6E7079"/>
<line x1="304.759" y1="486.432" x2="304.759" y2="482.209" stroke="#868E96" stroke-width="0.844621"/>
<path d="M326.409 493.329C325.329 493.329 324.369 492.957 323.493 492.141L324.057 491.457C324.753 492.105 325.473 492.501 326.421 492.501C327.429 492.501 328.101 491.889 328.101 491.085V491.073C328.101 490.377 327.765 489.933 326.241 489.393C324.501 488.745 323.817 488.121 323.817 486.933V486.909C323.817 485.649 324.873 484.689 326.349 484.689C327.321 484.689 328.125 484.989 328.869 485.637L328.329 486.333C327.705 485.793 327.045 485.517 326.313 485.517C325.353 485.517 324.729 486.105 324.729 486.825V486.849C324.729 487.581 325.101 488.001 326.685 488.577C328.389 489.213 329.013 489.897 329.013 491.013V491.037C329.013 492.381 327.909 493.329 326.409 493.329ZM332.936 493.341C331.412 493.341 330.164 492.117 330.164 490.137V490.077C330.164 488.169 331.28 486.837 332.744 486.837C334.316 486.837 335.252 488.181 335.252 490.065C335.252 490.149 335.252 490.317 335.24 490.425H331.04C331.136 491.805 331.988 492.573 332.972 492.573C333.656 492.573 334.16 492.285 334.592 491.853L335.084 492.405C334.52 492.981 333.872 493.341 332.936 493.341ZM331.04 489.753H334.388C334.328 488.565 333.764 487.593 332.744 487.593C331.82 487.593 331.124 488.445 331.04 489.753ZM336.64 493.209V486.957H337.504V488.337C337.876 487.461 338.632 486.825 339.652 486.873V487.809H339.604C338.44 487.809 337.504 488.625 337.504 490.233V493.209H336.64ZM340.871 485.673V484.653H341.831V485.673H340.871ZM340.919 493.209V486.957H341.783V493.209H340.919ZM346.073 493.341C344.549 493.341 343.301 492.117 343.301 490.137V490.077C343.301 488.169 344.417 486.837 345.881 486.837C347.453 486.837 348.389 488.181 348.389 490.065C348.389 490.149 348.389 490.317 348.377 490.425H344.177C344.273 491.805 345.125 492.573 346.109 492.573C346.793 492.573 347.297 492.285 347.729 491.853L348.221 492.405C347.657 492.981 347.009 493.341 346.073 493.341ZM344.177 489.753H347.525C347.465 488.565 346.901 487.593 345.881 487.593C344.957 487.593 344.261 488.445 344.177 489.753ZM351.469 493.317C350.701 493.317 349.873 493.017 349.213 492.441L349.669 491.805C350.257 492.297 350.869 492.561 351.493 492.561C352.177 492.561 352.657 492.177 352.657 491.589V491.577C352.657 491.025 352.141 490.737 351.301 490.389C350.305 489.957 349.513 489.561 349.513 488.589V488.565C349.513 487.545 350.341 486.861 351.457 486.861C352.165 486.861 352.897 487.137 353.425 487.533L353.005 488.193C352.525 487.845 351.985 487.605 351.433 487.605C350.773 487.605 350.353 487.989 350.353 488.481V488.505C350.353 489.033 350.893 489.297 351.745 489.657C352.777 490.113 353.497 490.545 353.497 491.493V491.517C353.497 492.633 352.597 493.317 351.469 493.317ZM361.567 493.209V491.265H357.715L357.547 490.605L361.627 484.749H362.419V490.509H363.535V491.265H362.419V493.209H361.567ZM358.567 490.509H361.567V486.165L358.567 490.509Z" fill="#6E7079"/>
<line x1="381.487" y1="486.432" x2="381.487" y2="482.209" stroke="#868E96" stroke-width="0.844621"/>
<path d="M403.424 493.329C402.344 493.329 401.384 492.957 400.508 492.141L401.072 491.457C401.768 492.105 402.488 492.501 403.436 492.501C404.444 492.501 405.116 491.889 405.116 491.085V491.073C405.116 490.377 404.78 489.933 403.256 489.393C401.516 488.745 400.832 488.121 400.832 486.933V486.909C400.832 485.649 401.888 484.689 403.364 484.689C404.336 484.689 405.14 484.989 405.884 485.637L405.344 486.333C404.72 485.793 404.06 485.517 403.328 485.517C402.368 485.517 401.744 486.105 401.744 486.825V486.849C401.744 487.581 402.116 488.001 403.7 488.577C405.404 489.213 406.028 489.897 406.028 491.013V491.037C406.028 492.381 404.924 493.329 403.424 493.329ZM409.95 493.341C408.426 493.341 407.178 492.117 407.178 490.137V490.077C407.178 488.169 408.294 486.837 409.758 486.837C411.33 486.837 412.266 488.181 412.266 490.065C412.266 490.149 412.266 490.317 412.254 490.425H408.054C408.15 491.805 409.002 492.573 409.986 492.573C410.67 492.573 411.174 492.285 411.606 491.853L412.098 492.405C411.534 492.981 410.886 493.341 409.95 493.341ZM408.054 489.753H411.402C411.342 488.565 410.778 487.593 409.758 487.593C408.834 487.593 408.138 488.445 408.054 489.753ZM413.655 493.209V486.957H414.519V488.337C414.891 487.461 415.647 486.825 416.667 486.873V487.809H416.619C415.455 487.809 414.519 488.625 414.519 490.233V493.209H413.655ZM417.886 485.673V484.653H418.846V485.673H417.886ZM417.934 493.209V486.957H418.798V493.209H417.934ZM423.087 493.341C421.563 493.341 420.315 492.117 420.315 490.137V490.077C420.315 488.169 421.431 486.837 422.895 486.837C424.467 486.837 425.403 488.181 425.403 490.065C425.403 490.149 425.403 490.317 425.391 490.425H421.191C421.287 491.805 422.139 492.573 423.123 492.573C423.807 492.573 424.311 492.285 424.743 491.853L425.235 492.405C424.671 492.981 424.023 493.341 423.087 493.341ZM421.191 489.753H424.539C424.479 488.565 423.915 487.593 422.895 487.593C421.971 487.593 421.275 488.445 421.191 489.753ZM428.484 493.317C427.716 493.317 426.888 493.017 426.228 492.441L426.684 491.805C427.272 492.297 427.884 492.561 428.508 492.561C429.192 492.561 429.672 492.177 429.672 491.589V491.577C429.672 491.025 429.156 490.737 428.316 490.389C427.32 489.957 426.528 489.561 426.528 488.589V488.565C426.528 487.545 427.356 486.861 428.472 486.861C429.18 486.861 429.912 487.137 430.44 487.533L430.02 488.193C429.54 487.845 429 487.605 428.448 487.605C427.788 487.605 427.368 487.989 427.368 488.481V488.505C427.368 489.033 427.908 489.297 428.76 489.657C429.792 490.113 430.512 490.545 430.512 491.493V491.517C430.512 492.633 429.612 493.317 428.484 493.317ZM437.13 493.341C436.158 493.341 435.294 492.897 434.67 492.297L435.21 491.625C435.774 492.153 436.422 492.513 437.142 492.513C438.21 492.513 438.966 491.733 438.966 490.629V490.593C438.966 489.489 438.186 488.841 437.142 488.841C436.542 488.841 436.086 489.009 435.678 489.225L435.102 488.829L435.318 484.809H439.518V485.649H436.098L435.93 488.325C436.326 488.157 436.722 488.025 437.286 488.025C438.714 488.025 439.878 488.913 439.878 490.557V490.593C439.878 492.225 438.714 493.341 437.13 493.341Z" fill="#6E7079"/>
<line x1="458.214" y1="486.432" x2="458.214" y2="482.209" stroke="#868E96" stroke-width="0.844621"/>
<path d="M479.952 493.329C478.872 493.329 477.912 492.957 477.036 492.141L477.6 491.457C478.296 492.105 479.016 492.501 479.964 492.501C480.972 492.501 481.644 491.889 481.644 491.085V491.073C481.644 490.377 481.308 489.933 479.784 489.393C478.044 488.745 477.36 488.121 477.36 486.933V486.909C477.36 485.649 478.416 484.689 479.892 484.689C480.864 484.689 481.668 484.989 482.412 485.637L481.872 486.333C481.248 485.793 480.588 485.517 479.856 485.517C478.896 485.517 478.272 486.105 478.272 486.825V486.849C478.272 487.581 478.644 488.001 480.228 488.577C481.932 489.213 482.556 489.897 482.556 491.013V491.037C482.556 492.381 481.452 493.329 479.952 493.329ZM486.478 493.341C484.954 493.341 483.706 492.117 483.706 490.137V490.077C483.706 488.169 484.822 486.837 486.286 486.837C487.858 486.837 488.794 488.181 488.794 490.065C488.794 490.149 488.794 490.317 488.782 490.425H484.582C484.678 491.805 485.53 492.573 486.514 492.573C487.198 492.573 487.702 492.285 488.134 491.853L488.626 492.405C488.062 492.981 487.414 493.341 486.478 493.341ZM484.582 489.753H487.93C487.87 488.565 487.306 487.593 486.286 487.593C485.362 487.593 484.666 488.445 484.582 489.753ZM490.183 493.209V486.957H491.047V488.337C491.419 487.461 492.175 486.825 493.195 486.873V487.809H493.147C491.983 487.809 491.047 488.625 491.047 490.233V493.209H490.183ZM494.414 485.673V484.653H495.374V485.673H494.414ZM494.462 493.209V486.957H495.326V493.209H494.462ZM499.615 493.341C498.091 493.341 496.843 492.117 496.843 490.137V490.077C496.843 488.169 497.959 486.837 499.423 486.837C500.995 486.837 501.931 488.181 501.931 490.065C501.931 490.149 501.931 490.317 501.919 490.425H497.719C497.815 491.805 498.667 492.573 499.651 492.573C500.335 492.573 500.839 492.285 501.271 491.853L501.763 492.405C501.199 492.981 500.551 493.341 499.615 493.341ZM497.719 489.753H501.067C501.007 488.565 500.443 487.593 499.423 487.593C498.499 487.593 497.803 488.445 497.719 489.753ZM505.012 493.317C504.244 493.317 503.416 493.017 502.756 492.441L503.212 491.805C503.8 492.297 504.412 492.561 505.036 492.561C505.72 492.561 506.2 492.177 506.2 491.589V491.577C506.2 491.025 505.684 490.737 504.844 490.389C503.848 489.957 503.056 489.561 503.056 488.589V488.565C503.056 487.545 503.884 486.861 505 486.861C505.708 486.861 506.44 487.137 506.968 487.533L506.548 488.193C506.068 487.845 505.528 487.605 504.976 487.605C504.316 487.605 503.896 487.989 503.896 488.481V488.505C503.896 489.033 504.436 489.297 505.288 489.657C506.32 490.113 507.04 490.545 507.04 491.493V491.517C507.04 492.633 506.14 493.317 505.012 493.317ZM514.138 493.341C513.382 493.341 512.746 493.077 512.29 492.621C511.678 491.997 511.318 491.121 511.318 489.345V489.249C511.318 486.465 512.506 484.677 514.426 484.677C515.23 484.677 515.842 484.953 516.454 485.433L515.974 486.153C515.518 485.769 515.026 485.505 514.39 485.505C512.998 485.505 512.23 487.041 512.218 489.093C512.662 488.385 513.358 487.953 514.258 487.953C515.614 487.953 516.79 488.889 516.79 490.521V490.545C516.79 492.177 515.626 493.341 514.138 493.341ZM514.15 492.537C515.206 492.537 515.878 491.673 515.878 490.581V490.557C515.878 489.453 515.158 488.733 514.138 488.733C513.094 488.733 512.35 489.525 512.35 490.569V490.593C512.35 491.697 513.07 492.537 514.15 492.537Z" fill="#6E7079"/>
<line x1="534.941" y1="486.432" x2="534.941" y2="482.209" stroke="#868E96" stroke-width="0.844621"/>
<path d="M556.978 493.329C555.898 493.329 554.938 492.957 554.062 492.141L554.626 491.457C555.322 492.105 556.042 492.501 556.99 492.501C557.998 492.501 558.67 491.889 558.67 491.085V491.073C558.67 490.377 558.334 489.933 556.81 489.393C555.07 488.745 554.386 488.121 554.386 486.933V486.909C554.386 485.649 555.442 484.689 556.918 484.689C557.89 484.689 558.694 484.989 559.438 485.637L558.898 486.333C558.274 485.793 557.614 485.517 556.882 485.517C555.922 485.517 555.298 486.105 555.298 486.825V486.849C555.298 487.581 555.67 488.001 557.254 488.577C558.958 489.213 559.582 489.897 559.582 491.013V491.037C559.582 492.381 558.478 493.329 556.978 493.329ZM563.504 493.341C561.98 493.341 560.732 492.117 560.732 490.137V490.077C560.732 488.169 561.848 486.837 563.312 486.837C564.884 486.837 565.82 488.181 565.82 490.065C565.82 490.149 565.82 490.317 565.808 490.425H561.608C561.704 491.805 562.556 492.573 563.54 492.573C564.224 492.573 564.728 492.285 565.16 491.853L565.652 492.405C565.088 492.981 564.44 493.341 563.504 493.341ZM561.608 489.753H564.956C564.896 488.565 564.332 487.593 563.312 487.593C562.388 487.593 561.692 488.445 561.608 489.753ZM567.209 493.209V486.957H568.073V488.337C568.445 487.461 569.201 486.825 570.221 486.873V487.809H570.173C569.009 487.809 568.073 488.625 568.073 490.233V493.209H567.209ZM571.44 485.673V484.653H572.4V485.673H571.44ZM571.488 493.209V486.957H572.352V493.209H571.488ZM576.641 493.341C575.117 493.341 573.869 492.117 573.869 490.137V490.077C573.869 488.169 574.985 486.837 576.449 486.837C578.021 486.837 578.957 488.181 578.957 490.065C578.957 490.149 578.957 490.317 578.945 490.425H574.745C574.841 491.805 575.693 492.573 576.677 492.573C577.361 492.573 577.865 492.285 578.297 491.853L578.789 492.405C578.225 492.981 577.577 493.341 576.641 493.341ZM574.745 489.753H578.093C578.033 488.565 577.469 487.593 576.449 487.593C575.525 487.593 574.829 488.445 574.745 489.753ZM582.038 493.317C581.27 493.317 580.442 493.017 579.782 492.441L580.238 491.805C580.826 492.297 581.438 492.561 582.062 492.561C582.746 492.561 583.226 492.177 583.226 491.589V491.577C583.226 491.025 582.71 490.737 581.87 490.389C580.874 489.957 580.082 489.561 580.082 488.589V488.565C580.082 487.545 580.91 486.861 582.026 486.861C582.734 486.861 583.466 487.137 583.994 487.533L583.574 488.193C583.094 487.845 582.554 487.605 582.002 487.605C581.342 487.605 580.922 487.989 580.922 488.481V488.505C580.922 489.033 581.462 489.297 582.314 489.657C583.346 490.113 584.066 490.545 584.066 491.493V491.517C584.066 492.633 583.166 493.317 582.038 493.317ZM589.064 493.209L592.304 485.649H588.368V484.809H593.276V485.493L590.036 493.209H589.064Z" fill="#6E7079"/>
<line x1="611.669" y1="486.432" x2="611.669" y2="482.209" stroke="#868E96" stroke-width="0.844621"/>
<path d="M633.506 493.329C632.426 493.329 631.466 492.957 630.59 492.141L631.154 491.457C631.85 492.105 632.57 492.501 633.518 492.501C634.526 492.501 635.198 491.889 635.198 491.085V491.073C635.198 490.377 634.862 489.933 633.338 489.393C631.598 488.745 630.914 488.121 630.914 486.933V486.909C630.914 485.649 631.97 484.689 633.446 484.689C634.418 484.689 635.222 484.989 635.966 485.637L635.426 486.333C634.802 485.793 634.142 485.517 633.41 485.517C632.45 485.517 631.826 486.105 631.826 486.825V486.849C631.826 487.581 632.198 488.001 633.782 488.577C635.486 489.213 636.11 489.897 636.11 491.013V491.037C636.11 492.381 635.006 493.329 633.506 493.329ZM640.032 493.341C638.508 493.341 637.26 492.117 637.26 490.137V490.077C637.26 488.169 638.376 486.837 639.84 486.837C641.412 486.837 642.348 488.181 642.348 490.065C642.348 490.149 642.348 490.317 642.336 490.425H638.136C638.232 491.805 639.084 492.573 640.068 492.573C640.752 492.573 641.256 492.285 641.688 491.853L642.18 492.405C641.616 492.981 640.968 493.341 640.032 493.341ZM638.136 489.753H641.484C641.424 488.565 640.86 487.593 639.84 487.593C638.916 487.593 638.22 488.445 638.136 489.753ZM643.737 493.209V486.957H644.601V488.337C644.973 487.461 645.729 486.825 646.749 486.873V487.809H646.701C645.537 487.809 644.601 488.625 644.601 490.233V493.209H643.737ZM647.968 485.673V484.653H648.928V485.673H647.968ZM648.016 493.209V486.957H648.88V493.209H648.016ZM653.169 493.341C651.645 493.341 650.397 492.117 650.397 490.137V490.077C650.397 488.169 651.513 486.837 652.977 486.837C654.549 486.837 655.485 488.181 655.485 490.065C655.485 490.149 655.485 490.317 655.473 490.425H651.273C651.369 491.805 652.221 492.573 653.205 492.573C653.889 492.573 654.393 492.285 654.825 491.853L655.317 492.405C654.753 492.981 654.105 493.341 653.169 493.341ZM651.273 489.753H654.621C654.561 488.565 653.997 487.593 652.977 487.593C652.053 487.593 651.357 488.445 651.273 489.753ZM658.566 493.317C657.798 493.317 656.97 493.017 656.31 492.441L656.766 491.805C657.354 492.297 657.966 492.561 658.59 492.561C659.274 492.561 659.754 492.177 659.754 491.589V491.577C659.754 491.025 659.238 490.737 658.398 490.389C657.402 489.957 656.61 489.561 656.61 488.589V488.565C656.61 487.545 657.438 486.861 658.554 486.861C659.262 486.861 659.994 487.137 660.522 487.533L660.102 488.193C659.622 487.845 659.082 487.605 658.53 487.605C657.87 487.605 657.45 487.989 657.45 488.481V488.505C657.45 489.033 657.99 489.297 658.842 489.657C659.874 490.113 660.594 490.545 660.594 491.493V491.517C660.594 492.633 659.694 493.317 658.566 493.317ZM667.488 493.329C665.928 493.329 664.752 492.369 664.752 490.977V490.941C664.752 489.933 665.376 489.213 666.276 488.865C665.568 488.517 664.992 487.893 664.992 486.933V486.897C664.992 485.577 666.144 484.689 667.488 484.689C668.844 484.689 669.984 485.577 669.984 486.897V486.933C669.984 487.893 669.42 488.517 668.712 488.865C669.588 489.225 670.236 489.933 670.236 490.929V490.965C670.236 492.381 669.06 493.329 667.488 493.329ZM667.488 488.529C668.4 488.529 669.108 487.869 669.108 486.969V486.945C669.108 486.081 668.412 485.469 667.488 485.469C666.576 485.469 665.88 486.069 665.88 486.945V486.969C665.88 487.869 666.588 488.529 667.488 488.529ZM667.488 492.549C668.64 492.549 669.336 491.841 669.336 490.941V490.917C669.336 489.957 668.52 489.273 667.488 489.273C666.456 489.273 665.652 489.957 665.652 490.917V490.941C665.652 491.829 666.348 492.549 667.488 492.549Z" fill="#6E7079"/>
<line x1="688.396" y1="486.432" x2="688.396" y2="482.209" stroke="#868E96" stroke-width="0.844621"/>
<path d="M710.134 493.329C709.054 493.329 708.094 492.957 707.218 492.141L707.782 491.457C708.478 492.105 709.198 492.501 710.146 492.501C711.154 492.501 711.826 491.889 711.826 491.085V491.073C711.826 490.377 711.49 489.933 709.966 489.393C708.226 488.745 707.542 488.121 707.542 486.933V486.909C707.542 485.649 708.598 484.689 710.074 484.689C711.046 484.689 711.85 484.989 712.594 485.637L712.054 486.333C711.43 485.793 710.77 485.517 710.038 485.517C709.078 485.517 708.454 486.105 708.454 486.825V486.849C708.454 487.581 708.826 488.001 710.41 488.577C712.114 489.213 712.738 489.897 712.738 491.013V491.037C712.738 492.381 711.634 493.329 710.134 493.329ZM716.66 493.341C715.136 493.341 713.888 492.117 713.888 490.137V490.077C713.888 488.169 715.004 486.837 716.468 486.837C718.04 486.837 718.976 488.181 718.976 490.065C718.976 490.149 718.976 490.317 718.964 490.425H714.764C714.86 491.805 715.712 492.573 716.696 492.573C717.38 492.573 717.884 492.285 718.316 491.853L718.808 492.405C718.244 492.981 717.596 493.341 716.66 493.341ZM714.764 489.753H718.112C718.052 488.565 717.488 487.593 716.468 487.593C715.544 487.593 714.848 488.445 714.764 489.753ZM720.365 493.209V486.957H721.229V488.337C721.601 487.461 722.357 486.825 723.377 486.873V487.809H723.329C722.165 487.809 721.229 488.625 721.229 490.233V493.209H720.365ZM724.596 485.673V484.653H725.556V485.673H724.596ZM724.644 493.209V486.957H725.508V493.209H724.644ZM729.797 493.341C728.273 493.341 727.025 492.117 727.025 490.137V490.077C727.025 488.169 728.141 486.837 729.605 486.837C731.177 486.837 732.113 488.181 732.113 490.065C732.113 490.149 732.113 490.317 732.101 490.425H727.901C727.997 491.805 728.849 492.573 729.833 492.573C730.517 492.573 731.021 492.285 731.453 491.853L731.945 492.405C731.381 492.981 730.733 493.341 729.797 493.341ZM727.901 489.753H731.249C731.189 488.565 730.625 487.593 729.605 487.593C728.681 487.593 727.985 488.445 727.901 489.753ZM735.194 493.317C734.426 493.317 733.598 493.017 732.938 492.441L733.394 491.805C733.982 492.297 734.594 492.561 735.218 492.561C735.902 492.561 736.382 492.177 736.382 491.589V491.577C736.382 491.025 735.866 490.737 735.026 490.389C734.03 489.957 733.238 489.561 733.238 488.589V488.565C733.238 487.545 734.066 486.861 735.182 486.861C735.89 486.861 736.622 487.137 737.15 487.533L736.73 488.193C736.25 487.845 735.71 487.605 735.158 487.605C734.498 487.605 734.078 487.989 734.078 488.481V488.505C734.078 489.033 734.618 489.297 735.47 489.657C736.502 490.113 737.222 490.545 737.222 491.493V491.517C737.222 492.633 736.322 493.317 735.194 493.317ZM743.864 492.513C745.244 492.513 746.036 490.965 746.048 488.985C745.604 489.705 744.908 490.149 744.02 490.149C742.58 490.149 741.476 489.165 741.476 487.545V487.521C741.476 485.889 742.604 484.677 744.128 484.677C744.908 484.677 745.52 484.941 745.976 485.409C746.564 485.997 746.948 486.921 746.948 488.673V488.769C746.948 491.625 745.7 493.341 743.84 493.341C742.988 493.341 742.328 493.017 741.704 492.513L742.172 491.793C742.712 492.249 743.228 492.513 743.864 492.513ZM744.128 489.381C745.184 489.381 745.916 488.565 745.916 487.485V487.461C745.916 486.333 745.208 485.481 744.104 485.481C743.036 485.481 742.388 486.381 742.388 487.485V487.509C742.388 488.649 743.108 489.381 744.128 489.381Z" fill="#6E7079"/>
<line x1="765.123" y1="486.432" x2="765.123" y2="482.209" stroke="#868E96" stroke-width="0.844621"/>
<path d="M784.64 493.329C783.56 493.329 782.6 492.957 781.724 492.141L782.288 491.457C782.984 492.105 783.704 492.501 784.652 492.501C785.66 492.501 786.332 491.889 786.332 491.085V491.073C786.332 490.377 785.996 489.933 784.472 489.393C782.732 488.745 782.048 488.121 782.048 486.933V486.909C782.048 485.649 783.104 484.689 784.58 484.689C785.552 484.689 786.356 484.989 787.1 485.637L786.56 486.333C785.936 485.793 785.276 485.517 784.544 485.517C783.584 485.517 782.96 486.105 782.96 486.825V486.849C782.96 487.581 783.332 488.001 784.916 488.577C786.62 489.213 787.244 489.897 787.244 491.013V491.037C787.244 492.381 786.14 493.329 784.64 493.329ZM791.167 493.341C789.643 493.341 788.395 492.117 788.395 490.137V490.077C788.395 488.169 789.511 486.837 790.975 486.837C792.547 486.837 793.483 488.181 793.483 490.065C793.483 490.149 793.483 490.317 793.471 490.425H789.271C789.367 491.805 790.219 492.573 791.203 492.573C791.887 492.573 792.391 492.285 792.823 491.853L793.315 492.405C792.751 492.981 792.103 493.341 791.167 493.341ZM789.271 489.753H792.619C792.559 488.565 791.995 487.593 790.975 487.593C790.051 487.593 789.355 488.445 789.271 489.753ZM794.871 493.209V486.957H795.735V488.337C796.107 487.461 796.863 486.825 797.883 486.873V487.809H797.835C796.671 487.809 795.735 488.625 795.735 490.233V493.209H794.871ZM799.102 485.673V484.653H800.062V485.673H799.102ZM799.15 493.209V486.957H800.014V493.209H799.15ZM804.303 493.341C802.779 493.341 801.531 492.117 801.531 490.137V490.077C801.531 488.169 802.647 486.837 804.111 486.837C805.683 486.837 806.619 488.181 806.619 490.065C806.619 490.149 806.619 490.317 806.607 490.425H802.407C802.503 491.805 803.355 492.573 804.339 492.573C805.023 492.573 805.527 492.285 805.959 491.853L806.451 492.405C805.887 492.981 805.239 493.341 804.303 493.341ZM802.407 489.753H805.755C805.695 488.565 805.131 487.593 804.111 487.593C803.187 487.593 802.491 488.445 802.407 489.753ZM809.7 493.317C808.932 493.317 808.104 493.017 807.444 492.441L807.9 491.805C808.488 492.297 809.1 492.561 809.724 492.561C810.408 492.561 810.888 492.177 810.888 491.589V491.577C810.888 491.025 810.372 490.737 809.532 490.389C808.536 489.957 807.744 489.561 807.744 488.589V488.565C807.744 487.545 808.572 486.861 809.688 486.861C810.396 486.861 811.128 487.137 811.656 487.533L811.236 488.193C810.756 487.845 810.216 487.605 809.664 487.605C809.004 487.605 808.584 487.989 808.584 488.481V488.505C808.584 489.033 809.124 489.297 809.976 489.657C811.008 490.113 811.728 490.545 811.728 491.493V491.517C811.728 492.633 810.828 493.317 809.7 493.317ZM817.194 493.209V485.721L815.826 486.201L815.67 485.421L817.41 484.761H818.082V493.209H817.194ZM822.839 493.341C820.967 493.341 819.803 491.589 819.803 489.069V488.973C819.803 486.453 820.991 484.677 822.851 484.677C824.711 484.677 825.887 486.429 825.887 488.949V489.045C825.887 491.565 824.699 493.341 822.839 493.341ZM822.851 492.525C824.135 492.525 824.963 491.085 824.963 489.069V488.973C824.963 486.957 824.111 485.493 822.839 485.493C821.555 485.493 820.727 486.933 820.727 488.949V489.045C820.727 491.061 821.567 492.525 822.851 492.525Z" fill="#6E7079"/>
<line x1="841.851" y1="486.432" x2="841.851" y2="482.209" stroke="#868E96" stroke-width="0.844621"/>
<path d="M863.161 493.329C862.081 493.329 861.121 492.957 860.245 492.141L860.809 491.457C861.505 492.105 862.225 492.501 863.173 492.501C864.181 492.501 864.853 491.889 864.853 491.085V491.073C864.853 490.377 864.517 489.933 862.993 489.393C861.253 488.745 860.569 488.121 860.569 486.933V486.909C860.569 485.649 861.625 484.689 863.101 484.689C864.073 484.689 864.877 484.989 865.621 485.637L865.081 486.333C864.457 485.793 863.797 485.517 863.065 485.517C862.105 485.517 861.481 486.105 861.481 486.825V486.849C861.481 487.581 861.853 488.001 863.437 488.577C865.141 489.213 865.765 489.897 865.765 491.013V491.037C865.765 492.381 864.661 493.329 863.161 493.329ZM869.687 493.341C868.163 493.341 866.915 492.117 866.915 490.137V490.077C866.915 488.169 868.031 486.837 869.495 486.837C871.067 486.837 872.003 488.181 872.003 490.065C872.003 490.149 872.003 490.317 871.991 490.425H867.791C867.887 491.805 868.739 492.573 869.723 492.573C870.407 492.573 870.911 492.285 871.343 491.853L871.835 492.405C871.271 492.981 870.623 493.341 869.687 493.341ZM867.791 489.753H871.139C871.079 488.565 870.515 487.593 869.495 487.593C868.571 487.593 867.875 488.445 867.791 489.753ZM873.392 493.209V486.957H874.256V488.337C874.628 487.461 875.384 486.825 876.404 486.873V487.809H876.356C875.192 487.809 874.256 488.625 874.256 490.233V493.209H873.392ZM877.623 485.673V484.653H878.583V485.673H877.623ZM877.671 493.209V486.957H878.535V493.209H877.671ZM882.824 493.341C881.3 493.341 880.052 492.117 880.052 490.137V490.077C880.052 488.169 881.168 486.837 882.632 486.837C884.204 486.837 885.14 488.181 885.14 490.065C885.14 490.149 885.14 490.317 885.128 490.425H880.928C881.024 491.805 881.876 492.573 882.86 492.573C883.544 492.573 884.048 492.285 884.48 491.853L884.972 492.405C884.408 492.981 883.76 493.341 882.824 493.341ZM880.928 489.753H884.276C884.216 488.565 883.652 487.593 882.632 487.593C881.708 487.593 881.012 488.445 880.928 489.753ZM888.22 493.317C887.452 493.317 886.624 493.017 885.964 492.441L886.42 491.805C887.008 492.297 887.62 492.561 888.244 492.561C888.928 492.561 889.408 492.177 889.408 491.589V491.577C889.408 491.025 888.892 490.737 888.052 490.389C887.056 489.957 886.264 489.561 886.264 488.589V488.565C886.264 487.545 887.092 486.861 888.208 486.861C888.916 486.861 889.648 487.137 890.176 487.533L889.756 488.193C889.276 487.845 888.736 487.605 888.184 487.605C887.524 487.605 887.104 487.989 887.104 488.481V488.505C887.104 489.033 887.644 489.297 888.496 489.657C889.528 490.113 890.248 490.545 890.248 491.493V491.517C890.248 492.633 889.348 493.317 888.22 493.317ZM895.715 493.209V485.721L894.347 486.201L894.191 485.421L895.931 484.761H896.603V493.209H895.715ZM899.512 493.209V485.721L898.144 486.201L897.988 485.421L899.728 484.761H900.4V493.209H899.512Z" fill="#6E7079"/>
<path d="M472.756 503.809H474.688L472.288 507.913L474.784 512.209H472.804L471.268 509.329L469.72 512.209H467.788L470.272 507.937L467.896 503.809H469.876L471.304 506.533L472.756 503.809ZM475.084 509.317V507.661H478.6V509.317H475.084ZM478.954 512.209L481.966 503.761H483.622L486.634 512.209H484.834L484.21 510.385H481.318L480.706 512.209H478.954ZM481.846 508.849H483.682L482.77 506.113L481.846 508.849ZM488.912 505.777L489.92 507.661L490.94 505.777H492.704L490.844 508.909L492.776 512.209H490.964L489.896 510.205L488.816 512.209H487.04L488.96 508.933L487.112 505.777H488.912ZM493.696 505.093V503.545H495.472V505.093H493.696ZM493.732 512.209V505.777H495.436V512.209H493.732ZM498.816 512.329C498.06 512.329 497.16 512.077 496.38 511.441L497.124 510.241C497.7 510.685 498.312 510.961 498.84 510.961C499.32 510.961 499.524 510.733 499.524 510.469V510.445C499.524 510.073 499.044 509.917 498.348 509.617C497.436 509.221 496.656 508.765 496.656 507.673V507.649C496.656 506.413 497.616 505.681 498.864 505.681C499.56 505.681 500.34 505.921 500.988 506.377L500.304 507.601C499.824 507.289 499.296 507.049 498.84 507.049C498.432 507.049 498.216 507.253 498.216 507.505V507.529C498.216 507.865 498.696 508.057 499.38 508.369C500.316 508.813 501.084 509.281 501.084 510.301V510.325C501.084 511.657 500.1 512.329 498.816 512.329ZM506.785 512.317C505.801 512.317 505.081 511.933 505.081 510.601V507.217H504.433V505.777H505.081V504.133H506.785V505.777H508.057V507.217H506.785V510.253C506.785 510.625 506.953 510.805 507.313 510.805C507.577 510.805 507.829 510.733 508.045 510.625V511.981C507.709 512.173 507.301 512.317 506.785 512.317ZM509.2 505.093V503.545H510.976V505.093H509.2ZM509.236 512.209V505.777H510.94V512.209H509.236ZM514.343 512.317C513.359 512.317 512.639 511.933 512.639 510.601V507.217H511.991V505.777H512.639V504.133H514.343V505.777H515.615V507.217H514.343V510.253C514.343 510.625 514.511 510.805 514.871 510.805C515.135 510.805 515.387 510.733 515.603 510.625V511.981C515.267 512.173 514.859 512.317 514.343 512.317ZM516.795 512.209V503.545H518.499V512.209H516.795ZM522.682 512.353C520.978 512.353 519.67 511.069 519.67 509.065V508.957C519.67 507.049 520.858 505.657 522.478 505.657C524.314 505.657 525.214 507.157 525.214 509.077C525.214 509.173 525.214 509.377 525.202 509.629H521.362C521.506 510.481 522.034 510.925 522.754 510.925C523.282 510.925 523.69 510.685 524.098 510.289L524.974 511.321C524.386 511.969 523.642 512.353 522.682 512.353ZM521.35 508.501H523.57C523.498 507.613 523.114 507.061 522.478 507.061C521.854 507.061 521.446 507.589 521.35 508.501Z" fill="#6E7079"/>
</g>
<defs>
<linearGradient id="paint0_linear_15045_56162" x1="824" y1="17.709" x2="909" y2="17.709" gradientUnits="userSpaceOnUse">
<stop stop-color="#E0E6F1"/>
<stop offset="1" stop-color="#202124"/>
</linearGradient>
<clipPath id="clip0_15045_56162">
<rect width="914" height="475" fill="white" transform="translate(0 45.209)"/>
</clipPath>
</defs>
</svg>
