<svg width="16" height="16" viewBox="0 0 16 16" fill="none" xmlns="http://www.w3.org/2000/svg">
<path d="M7.33301 11.333H8.66634V7.33301H7.33301V11.333ZM7.99967 5.99967C8.18856 5.99967 8.34701 5.93567 8.47501 5.80767C8.60301 5.67967 8.66679 5.52145 8.66634 5.33301C8.66634 5.14412 8.60234 4.98567 8.47434 4.85767C8.34634 4.72967 8.18812 4.6659 7.99967 4.66634C7.81079 4.66634 7.65234 4.73034 7.52434 4.85834C7.39634 4.98634 7.33256 5.14456 7.33301 5.33301C7.33301 5.5219 7.39701 5.68034 7.52501 5.80834C7.65301 5.93634 7.81123 6.00012 7.99967 5.99967ZM7.99967 14.6663C7.07745 14.6663 6.21079 14.4912 5.39967 14.141C4.58856 13.7908 3.88301 13.3159 3.28301 12.7163C2.68301 12.1163 2.20812 11.4108 1.85834 10.5997C1.50856 9.78856 1.33345 8.9219 1.33301 7.99967C1.33301 7.07745 1.50812 6.21079 1.85834 5.39967C2.20856 4.58856 2.68345 3.88301 3.28301 3.28301C3.88301 2.68301 4.58856 2.20812 5.39967 1.85834C6.21079 1.50856 7.07745 1.33345 7.99967 1.33301C8.9219 1.33301 9.78856 1.50812 10.5997 1.85834C11.4108 2.20856 12.1163 2.68345 12.7163 3.28301C13.3163 3.88301 13.7915 4.58856 14.1417 5.39967C14.4919 6.21079 14.6668 7.07745 14.6663 7.99967C14.6663 8.9219 14.4912 9.78856 14.141 10.5997C13.7908 11.4108 13.3159 12.1163 12.7163 12.7163C12.1163 13.3163 11.4108 13.7915 10.5997 14.1417C9.78856 14.4919 8.9219 14.6668 7.99967 14.6663ZM7.99967 13.333C9.48856 13.333 10.7497 12.8163 11.783 11.783C12.8163 10.7497 13.333 9.48856 13.333 7.99967C13.333 6.51079 12.8163 5.24967 11.783 4.21634C10.7497 3.18301 9.48856 2.66634 7.99967 2.66634C6.51079 2.66634 5.24967 3.18301 4.21634 4.21634C3.18301 5.24967 2.66634 6.51079 2.66634 7.99967C2.66634 9.48856 3.18301 10.7497 4.21634 11.783C5.24967 12.8163 6.51079 13.333 7.99967 13.333Z" fill="#231D2C"/>
</svg>
