<svg width="25" height="24" viewBox="0 0 25 24" fill="none" xmlns="http://www.w3.org/2000/svg">
<g clip-path="url(#clip0_12124_3208)">
<path fill-rule="evenodd" clip-rule="evenodd" d="M12.5 20C16.9183 20 20.5 16.4183 20.5 12C20.5 7.58172 16.9183 4 12.5 4C8.08172 4 4.5 7.58172 4.5 12C4.5 16.4183 8.08172 20 12.5 20ZM12.5 22C18.0228 22 22.5 17.5228 22.5 12C22.5 6.47715 18.0228 2 12.5 2C6.97715 2 2.5 6.47715 2.5 12C2.5 17.5228 6.97715 22 12.5 22Z" fill="white"/>
<path d="M11.4282 9H13.5004L13.5307 7H11.4585L11.4282 9ZM11.5024 17H13.4906L13.4882 11H11.5L11.5024 17Z" fill="white"/>
</g>
<defs>
<clipPath id="clip0_12124_3208">
<rect width="24" height="24" fill="white" transform="translate(0.5)"/>
</clipPath>
</defs>
</svg>
