<svg width="226" height="183" viewBox="0 0 226 183" fill="none" xmlns="http://www.w3.org/2000/svg">
<path d="M1.5 182.631L225.5 182.631" stroke="#CBCBCB" stroke-width="0.4"/>
<path d="M0.5 152.631H225.5" stroke="#CBCBCB" stroke-width="0.4"/>
<path d="M0.5 123.631H225.5" stroke="#CBCBCB" stroke-width="0.4"/>
<path d="M0.5 93.631H225.5" stroke="#CBCBCB" stroke-width="0.4"/>
<path d="M0.5 63.631H225.5" stroke="#CBCBCB" stroke-width="0.4"/>
<path d="M0.5 34.631H225.5" stroke="#CBCBCB" stroke-width="0.4"/>
<path d="M0.5 4.63098H225.5" stroke="#CBCBCB" stroke-width="0.4"/>
<path d="M1.5 143.021L5.93197 135.322L10.3639 131.769L14.7959 160.787L19.2279 168.486L23.6598 161.379L28.0918 168.486L32.5238 171.447L36.9558 157.234L44.9786 156.049L47.4049 144.797L50.2517 129.4L54.6836 143.613L59.1156 145.982L67.9795 143.021L72.4115 156.049H74.4981L81.2754 172.631L83.7988 161.971H87.0338L90.1394 169.67L94.5714 148.943L99.0033 161.971L103.435 156.642L107.867 161.379L112.299 168.486L116.731 162.564L121.163 137.691L125.595 148.351L130.027 163.156L133.133 148.943L139.198 137.691L144.051 121.668L148.095 105.663L156.619 96.3266H165.483L169.915 89.6579L182.871 66.6268L192.576 46.9782L197.429 36.3082H202.281L206.325 21.6371L210.369 14.9684L215.626 8.29969H218.861L222.5 1.63098" stroke="#373D43" stroke-width="2.5" stroke-linecap="round" stroke-linejoin="round"/>
</svg>
