<svg width="881" height="487" viewBox="0 0 881 487" fill="none" xmlns="http://www.w3.org/2000/svg">
<g clip-path="url(#clip0_13832_43157)">
<path d="M36.2625 476.295H879.556" stroke="#CFD4DA" stroke-width="0.68755"/>
<path d="M36.2625 410.602H879.556" stroke="#CFD4DA" stroke-width="0.68755"/>
<path d="M36.2625 345.465H879.556" stroke="#CFD4DA" stroke-width="0.68755"/>
<path d="M36.2625 279.772H879.556" stroke="#CFD4DA" stroke-width="0.68755"/>
<path d="M36.2625 214.636H879.556" stroke="#CFD4DA" stroke-width="0.68755"/>
<path d="M36.2625 149.499H879.556" stroke="#CFD4DA" stroke-width="0.68755"/>
<path d="M36.2625 83.8061H879.556" stroke="#CFD4DA" stroke-width="0.68755"/>
<path d="M36.2625 18.6699H879.556" stroke="#CFD4DA" stroke-width="0.68755"/>
<path d="M36.2625 476.295H879.556" stroke="#6E7079" stroke-width="0.68755" stroke-linecap="round"/>
<path d="M36.648 476.017V478.8" stroke="#6E7079" stroke-width="0.68755"/>
<path d="M74.4536 476.017V478.8" stroke="#6E7079" stroke-width="0.68755"/>
<path d="M113.031 476.017V478.8" stroke="#6E7079" stroke-width="0.68755"/>
<path d="M151.608 476.017V478.8" stroke="#6E7079" stroke-width="0.68755"/>
<path d="M189.413 476.017V478.8" stroke="#6E7079" stroke-width="0.68755"/>
<path d="M227.99 476.017V478.8" stroke="#6E7079" stroke-width="0.68755"/>
<path d="M266.567 476.017V478.8" stroke="#6E7079" stroke-width="0.68755"/>
<path d="M305.144 476.017V478.8" stroke="#6E7079" stroke-width="0.68755"/>
<path d="M342.95 476.017V478.8" stroke="#6E7079" stroke-width="0.68755"/>
<path d="M381.527 476.017V478.8" stroke="#6E7079" stroke-width="0.68755"/>
<path d="M420.104 476.017V478.8" stroke="#6E7079" stroke-width="0.68755"/>
<path d="M457.909 476.017V478.8" stroke="#6E7079" stroke-width="0.68755"/>
<path d="M496.486 476.017V478.8" stroke="#6E7079" stroke-width="0.68755"/>
<path d="M535.063 476.017V478.8" stroke="#6E7079" stroke-width="0.68755"/>
<path d="M572.869 476.017V478.8" stroke="#6E7079" stroke-width="0.68755"/>
<path d="M611.446 476.017V478.8" stroke="#6E7079" stroke-width="0.68755"/>
<path d="M650.023 476.017V478.8" stroke="#6E7079" stroke-width="0.68755"/>
<path d="M687.828 476.017V478.8" stroke="#6E7079" stroke-width="0.68755"/>
<path d="M726.405 476.017V478.8" stroke="#6E7079" stroke-width="0.68755"/>
<path d="M764.982 476.017V478.8" stroke="#6E7079" stroke-width="0.68755"/>
<path d="M802.788 476.017V478.8" stroke="#6E7079" stroke-width="0.68755"/>
<path d="M841.365 476.017V478.8" stroke="#6E7079" stroke-width="0.68755"/>
<path d="M879.942 476.017V478.8" stroke="#6E7079" stroke-width="0.68755"/>
<path d="M27.0053 479.104C25.6147 479.104 24.7499 477.803 24.7499 475.931V475.859C24.7499 473.987 25.6325 472.668 27.0143 472.668C28.396 472.668 29.2697 473.97 29.2697 475.842V475.913C29.2697 477.785 28.3871 479.104 27.0053 479.104ZM27.0143 478.498C27.9681 478.498 28.5833 477.428 28.5833 475.931V475.859C28.5833 474.362 27.9503 473.274 27.0053 473.274C26.0515 473.274 25.4364 474.344 25.4364 475.842V475.913C25.4364 477.411 26.0604 478.498 27.0143 478.498Z" fill="#6E7079"/>
<path d="M27.0771 415.082C25.6864 415.082 24.8216 413.78 24.8216 411.908V411.837C24.8216 409.965 25.7042 408.645 27.086 408.645C28.4677 408.645 29.3414 409.947 29.3414 411.819V411.89C29.3414 413.762 28.4588 415.082 27.0771 415.082ZM27.086 414.475C28.0398 414.475 28.655 413.406 28.655 411.908V411.837C28.655 410.339 28.022 409.251 27.0771 409.251C26.1232 409.251 25.5081 410.321 25.5081 411.819V411.89C25.5081 413.388 26.1321 414.475 27.086 414.475Z" fill="#6E7079"/>
<path d="M27.2633 349.945C25.8727 349.945 25.0079 348.643 25.0079 346.771V346.7C25.0079 344.828 25.8905 343.508 27.2723 343.508C28.654 343.508 29.5277 344.81 29.5277 346.682V346.753C29.5277 348.625 28.6451 349.945 27.2633 349.945ZM27.2723 349.338C28.2261 349.338 28.8413 348.269 28.8413 346.771V346.7C28.8413 345.202 28.2083 344.114 27.2633 344.114C26.3095 344.114 25.6944 345.184 25.6944 346.682V346.753C25.6944 348.251 26.3184 349.338 27.2723 349.338Z" fill="#6E7079"/>
<path d="M27.2633 284.252C25.8727 284.252 25.0079 282.95 25.0079 281.078V281.007C25.0079 279.135 25.8905 277.815 27.2723 277.815C28.654 277.815 29.5277 279.117 29.5277 280.989V281.06C29.5277 282.932 28.6451 284.252 27.2633 284.252ZM27.2723 283.645C28.2261 283.645 28.8413 282.576 28.8413 281.078V281.007C28.8413 279.509 28.2083 278.421 27.2633 278.421C26.3095 278.421 25.6944 279.491 25.6944 280.989V281.06C25.6944 282.558 26.3184 283.645 27.2723 283.645Z" fill="#6E7079"/>
<path d="M27.2633 219.115C25.8727 219.115 25.0079 217.814 25.0079 215.942V215.87C25.0079 213.998 25.8905 212.679 27.2723 212.679C28.654 212.679 29.5277 213.98 29.5277 215.853V215.924C29.5277 217.796 28.6451 219.115 27.2633 219.115ZM27.2723 218.509C28.2261 218.509 28.8413 217.439 28.8413 215.942V215.87C28.8413 214.373 28.2083 213.285 27.2633 213.285C26.3095 213.285 25.6944 214.355 25.6944 215.853V215.924C25.6944 217.422 26.3184 218.509 27.2723 218.509Z" fill="#6E7079"/>
<path d="M27.2633 153.979C25.8727 153.979 25.0079 152.677 25.0079 150.805V150.734C25.0079 148.862 25.8905 147.542 27.2723 147.542C28.654 147.542 29.5277 148.844 29.5277 150.716V150.787C29.5277 152.659 28.6451 153.979 27.2633 153.979ZM27.2723 153.373C28.2261 153.373 28.8413 152.303 28.8413 150.805V150.734C28.8413 149.236 28.2083 148.149 27.2633 148.149C26.3095 148.149 25.6944 149.218 25.6944 150.716V150.787C25.6944 152.285 26.3184 153.373 27.2723 153.373Z" fill="#6E7079"/>
<path d="M27.2633 88.2856C25.8727 88.2856 25.0079 86.9841 25.0079 85.112V85.0407C25.0079 83.1686 25.8905 81.8492 27.2723 81.8492C28.654 81.8492 29.5277 83.1508 29.5277 85.0228V85.0942C29.5277 86.9662 28.6451 88.2856 27.2633 88.2856ZM27.2723 87.6794C28.2261 87.6794 28.8413 86.6097 28.8413 85.112V85.0407C28.8413 83.543 28.2083 82.4554 27.2633 82.4554C26.3095 82.4554 25.6944 83.5252 25.6944 85.0228V85.0942C25.6944 86.5918 26.3184 87.6794 27.2723 87.6794Z" fill="#6E7079"/>
<path d="M27.2013 22.0357C25.8106 22.0357 24.9458 20.7341 24.9458 18.862V18.7907C24.9458 16.9186 25.8284 15.5993 27.2102 15.5993C28.5919 15.5993 29.4656 16.9008 29.4656 18.7729V18.8442C29.4656 20.7163 28.583 22.0357 27.2013 22.0357ZM27.2102 21.4295C28.164 21.4295 28.7792 20.3597 28.7792 18.862V18.7907C28.7792 17.2931 28.1462 16.2055 27.2013 16.2055C26.2474 16.2055 25.6323 17.2752 25.6323 18.7729V18.8442C25.6323 20.3419 26.2563 21.4295 27.2102 21.4295Z" fill="#6E7079"/>
</g>
<defs>
<clipPath id="clip0_13832_43157">
<rect width="880.328" height="486.595" fill="white"/>
</clipPath>
</defs>
</svg>
