<svg width="254" height="214" viewBox="0 0 254 214" fill="none" xmlns="http://www.w3.org/2000/svg">
<line y1="42.0551" x2="225" y2="42.0551" stroke="#CFD4DA" stroke-width="0.413664"/>
<line y1="116.055" x2="225" y2="116.055" stroke="#CFD4DA" stroke-width="0.413664"/>
<line y1="190.055" x2="225" y2="190.055" stroke="#CFD4DA" stroke-width="0.413664"/>
<rect x="11" y="207.8" width="27" height="5" rx="2.5" fill="#CFD4DA"/>
<rect x="25" y="195.904" width="152.642" height="25" rx="12.5" transform="rotate(-90 25 195.904)" fill="#98A1AA"/>
<rect x="0.5" y="196.721" width="74.4595" height="25" rx="12.5" transform="rotate(-90 0.5 196.721)" fill="#373D43"/>
<rect x="80.5" y="208.262" width="27" height="5" rx="2.5" fill="#CFD4DA"/>
<rect x="94.5" y="196.262" width="164" height="25" rx="12.5" transform="rotate(-90 94.5 196.262)" fill="#98A1AA"/>
<rect x="70" y="196.262" width="102" height="25" rx="12.5" transform="rotate(-90 70 196.262)" fill="#373D43"/>
<rect x="146.5" y="208.262" width="27" height="5" rx="2.5" fill="#CFD4DA"/>
<rect x="159.5" y="196.262" width="135" height="25" rx="12.5" transform="rotate(-90 159.5 196.262)" fill="#98A1AA"/>
<rect x="135" y="196.262" width="58" height="25" rx="12.5" transform="rotate(-90 135 196.262)" fill="#373D43"/>
<rect x="216.5" y="208.262" width="27" height="5" rx="2.5" fill="#CFD4DA"/>
<rect x="229" y="196.262" width="196" height="25" rx="12.5" transform="rotate(-90 229 196.262)" fill="#98A1AA"/>
<rect x="205" y="196.262" width="94" height="25" rx="12.5" transform="rotate(-90 205 196.262)" fill="#373D43"/>
</svg>
