<svg width="16" height="17" viewBox="0 0 16 17" fill="none" xmlns="http://www.w3.org/2000/svg">
<mask id="mask0_20528_4268" style="mask-type:alpha" maskUnits="userSpaceOnUse" x="0" y="0" width="16" height="17">
<rect y="0.5" width="16" height="16" fill="#D9D9D9"/>
</mask>
<g mask="url(#mask0_20528_4268)">
<path d="M4 13.8333L4.66667 11.1666H2L2.33333 9.83329H5L5.66667 7.16663H3L3.33333 5.83329H6L6.66667 3.16663H8L7.33333 5.83329H10L10.6667 3.16663H12L11.3333 5.83329H14L13.6667 7.16663H11L10.3333 9.83329H13L12.6667 11.1666H10L9.33333 13.8333H8L8.66667 11.1666H6L5.33333 13.8333H4ZM6.33333 9.83329H9L9.66667 7.16663H7L6.33333 9.83329Z" fill="#868E96"/>
</g>
</svg>
