<svg width="525" height="524" viewBox="0 0 525 524" fill="none" xmlns="http://www.w3.org/2000/svg">
<mask id="path-1-inside-1_13441_40817" fill="white">
<path d="M524.875 262C524.875 200.403 503.173 140.776 463.579 93.5902C423.986 46.4043 369.033 14.6771 308.372 3.98061C247.711 -6.71586 185.221 4.30239 131.877 35.1003C78.5323 65.8982 37.7444 114.506 16.6765 172.388L262.875 262H524.875Z"/>
</mask>
<path d="M524.875 262C524.875 200.403 503.173 140.776 463.579 93.5902C423.986 46.4043 369.033 14.6771 308.372 3.98061C247.711 -6.71586 185.221 4.30239 131.877 35.1003C78.5323 65.8982 37.7444 114.506 16.6765 172.388L262.875 262H524.875Z" fill="#E9EEF4" stroke="white" stroke-width="6" mask="url(#path-1-inside-1_13441_40817)"/>
<path d="M113.858 46.5057C76.7391 72.1736 46.8801 106.994 27.1737 147.593C7.46742 188.192 -1.41799 233.193 1.37851 278.235C4.17502 323.278 18.5586 366.834 43.1355 404.683C67.7125 442.533 101.649 473.393 141.658 494.272C181.666 515.152 226.389 525.343 271.494 523.858C316.599 522.374 360.555 509.264 399.104 485.798C437.652 462.333 469.487 429.309 491.521 389.925C513.556 350.541 525.045 306.133 524.873 261.005L262.875 262L113.858 46.5057Z" fill="#E9EEF4"/>
<mask id="path-3-inside-2_13441_40817" fill="white">
<path d="M139.799 30.3098C107.248 47.4956 78.6842 71.3475 55.9681 100.311C33.2521 129.274 16.8939 162.699 7.95965 198.408C-0.974575 234.116 -2.28434 271.306 4.11572 307.555C10.5158 343.803 24.482 378.296 45.1043 408.786L262.125 262L139.799 30.3098Z"/>
</mask>
<path d="M139.799 30.3098C107.248 47.4956 78.6842 71.3475 55.9681 100.311C33.2521 129.274 16.8939 162.699 7.95965 198.408C-0.974575 234.116 -2.28434 271.306 4.11572 307.555C10.5158 343.803 24.482 378.296 45.1043 408.786L262.125 262L139.799 30.3098Z" fill="#E9EEF4" stroke="white" stroke-width="6" mask="url(#path-3-inside-2_13441_40817)"/>
</svg>
