<svg width="914" height="521" viewBox="0 0 914 521" fill="none" xmlns="http://www.w3.org/2000/svg">
<rect x="863.25" y="8.45923" width="24.5" height="13.5" rx="2.75" stroke="black" stroke-width="0.5"/>
<path d="M894.008 19.2092V10.8092H894.86L899.252 17.4212V10.8092H900.14V19.2092H899.384L894.884 12.4412V19.2092H894.008ZM900.953 20.6372L905.633 9.74123H906.413L901.745 20.6372H900.953ZM905.607 19.2092L908.811 10.7612H909.699L912.903 19.2092H911.943L911.127 17.0012H907.347L906.531 19.2092H905.607ZM907.647 16.1852H910.827L909.243 11.9252L907.647 16.1852Z" fill="#495057"/>
<rect x="-2" y="46.7092" width="918" height="473" stroke="white"/>
<rect x="222.676" y="48.7092" width="469.324" height="469.324" stroke="white" stroke-width="3"/>
<mask id="path-5-inside-1_15045_56155" fill="white">
<path d="M693.5 283.371C693.5 227.849 673.938 174.102 638.249 131.57C602.56 89.0372 553.027 60.4389 498.348 50.7973C443.67 41.1557 387.342 51.0873 339.259 78.848C291.175 106.609 254.409 150.423 235.419 202.597L457.338 283.371H693.5Z"/>
</mask>
<path d="M693.5 283.371C693.5 227.849 673.938 174.102 638.249 131.57C602.56 89.0372 553.027 60.4389 498.348 50.7973C443.67 41.1557 387.342 51.0873 339.259 78.848C291.175 106.609 254.409 150.423 235.419 202.597L457.338 283.371H693.5Z" fill="#E9EEF4" stroke="white" stroke-width="6" mask="url(#path-5-inside-1_15045_56155)"/>
<path d="M323.016 89.1286C289.559 112.265 262.644 143.652 244.881 180.247C227.118 216.842 219.109 257.405 221.63 298.005C224.151 338.606 237.116 377.866 259.269 411.983C281.422 446.1 312.012 473.917 348.075 492.737C384.138 511.557 424.451 520.744 465.107 519.405C505.763 518.067 545.385 506.25 580.132 485.099C614.879 463.948 643.574 434.18 663.436 398.68C683.297 363.181 693.653 323.152 693.498 282.474L457.338 283.371L323.016 89.1286Z" fill="#E9EEF4"/>
<mask id="path-7-inside-2_15045_56155" fill="white">
<path d="M346.4 74.5299C317.059 90.0209 291.312 111.521 270.836 137.628C250.36 163.735 235.615 193.864 227.562 226.05C219.509 258.237 218.328 291.76 224.097 324.433C229.866 357.107 242.455 388.198 261.043 415.681L456.662 283.371L346.4 74.5299Z"/>
</mask>
<path d="M346.4 74.5299C317.059 90.0209 291.312 111.521 270.836 137.628C250.36 163.735 235.615 193.864 227.562 226.05C219.509 258.237 218.328 291.76 224.097 324.433C229.866 357.107 242.455 388.198 261.043 415.681L456.662 283.371L346.4 74.5299Z" fill="#E9EEF4" stroke="white" stroke-width="6" mask="url(#path-7-inside-2_15045_56155)"/>
</svg>
