<svg width="200" height="201" viewBox="0 0 200 201" fill="none" xmlns="http://www.w3.org/2000/svg">
<path d="M200 100.262C200 81.7694 194.872 63.6391 185.187 47.8859C175.501 32.1327 161.637 19.3738 145.135 11.0272C128.633 2.68064 110.14 -0.926726 91.7113 0.606069C73.2824 2.13886 55.6394 8.75178 40.7433 19.7099L100 100.262H200Z" fill="#ADB5BD"/>
<path d="M43.1231 18.0122C28.6804 27.9996 17.1221 41.6139 9.61083 57.4858C2.09951 73.3578 -1.10001 90.9278 0.33404 108.429C1.76809 125.93 7.78517 142.744 17.7801 157.182C27.775 171.619 41.3954 183.171 57.2713 190.674C73.1472 198.177 90.7189 201.367 108.219 199.924C125.719 198.48 142.531 192.455 156.963 182.452C171.395 172.45 182.939 158.823 190.434 142.943C197.929 127.063 201.11 109.49 199.657 91.9907L100 100.262L43.1231 18.0122Z" fill="#373D43"/>
<path d="M48.2908 14.669C36.2656 21.9337 25.9062 31.6508 17.8876 43.187C9.86901 54.7231 4.37121 67.8195 1.75251 81.6225C-0.866197 95.4255 -0.547037 109.625 2.68919 123.297C5.92541 136.968 12.0061 149.804 20.5349 160.969L100 100.262L48.2908 14.669Z" fill="#868E96"/>
</svg>
