<svg width="457" height="528" viewBox="0 0 457 528" fill="none" xmlns="http://www.w3.org/2000/svg">
<path d="M228.5 211.6L183.12 237.8V290.2L228.5 316.4L273.88 290.2V237.8L228.5 211.6ZM228.5 106.8L92.3608 185.4V342.6L228.5 421.2L364.639 342.6V185.4L228.5 106.8V159.2L319.26 211.6V316.4L228.5 368.8L137.741 316.4V211.6L228.5 159.2V106.8ZM228.5 2L1.60133 133V395L228.5 526L455.399 395V133L228.5 2V54.4L410.019 159.2V368.8L228.5 473.6L46.9811 368.8V159.2L228.5 54.4V2Z" fill="#E9EEF4"/>
<path d="M228.5 159.2L137.741 211.6V316.4L228.5 368.8L319.259 316.4V211.6L228.5 159.2V211.6L273.88 237.8V290.2L228.5 316.4L183.12 290.2V237.8L228.5 211.6V159.2ZM228.5 54.4L46.9811 159.2V368.8L228.5 473.6L410.019 368.8V159.2L228.5 54.4V106.8L364.639 185.4V342.6L228.5 421.2L92.3609 342.6V185.4L228.5 106.8V54.4Z" fill="#E9EEF4"/>
<path d="M228.5 211.6L183.12 237.8V290.2L228.5 316.4L273.88 290.2V237.8L228.5 211.6ZM228.5 159.2L137.741 211.6V316.4L228.5 368.8L319.259 316.4V211.6L228.5 159.2ZM228.5 106.8L92.3608 185.4V342.6L228.5 421.2L364.639 342.6V185.4L228.5 106.8ZM228.5 54.4L46.9811 159.2V368.8L228.5 473.6L410.019 368.8V159.2L228.5 54.4ZM228.5 2L1.60133 133V395L228.5 526L455.399 395V133L228.5 2Z" stroke="#F8FAFE" stroke-width="2"/>
<path d="M228.5 264V2" stroke="white" stroke-width="2" stroke-linecap="round"/>
<path d="M228.5 264L1.60133 133" stroke="white" stroke-width="2" stroke-linecap="round"/>
<path d="M228.5 264L1.60133 395" stroke="white" stroke-width="2" stroke-linecap="round"/>
<path d="M228.5 264V526" stroke="white" stroke-width="2" stroke-linecap="round"/>
<path d="M228.5 264L455.399 395" stroke="white" stroke-width="2" stroke-linecap="round"/>
<path d="M228.5 264L455.399 133" stroke="white" stroke-width="2" stroke-linecap="round"/>
</svg>
