<svg width="180" height="183" viewBox="0 0 180 183" fill="none" xmlns="http://www.w3.org/2000/svg">
<path d="M89.9991 0.361938L0 69.117L34.3765 180.362H145.623L180 69.117L89.9991 0.361938ZM91.0203 8.69789L171.706 70.3332L151.13 75.1903C150.477 73.5309 148.925 72.3576 147.109 72.3576C146.732 72.3576 146.374 72.426 146.025 72.5177L94.2249 26.6309C94.3029 26.2873 94.3549 25.934 94.3549 25.567C94.3549 23.4098 92.9308 21.6137 91.0203 21.1296V8.69789ZM120.486 147.463L51.4654 156.801C51.3188 156.484 51.1368 156.192 50.927 155.92L62.4997 137.195C62.936 137.347 63.3965 137.45 63.8829 137.45C66.2892 137.45 68.2406 135.399 68.2406 132.87C68.2406 132.867 68.2406 132.863 68.2406 132.863L104.637 123.394C105.395 124.741 106.776 125.659 108.375 125.659C109.002 125.659 109.595 125.514 110.131 125.263L121.767 144.084C120.97 144.916 120.478 146.063 120.478 147.332C120.475 147.379 120.486 147.424 120.486 147.463ZM63.7845 83.2237C63.6936 82.7708 63.5246 82.351 63.3185 81.9586L87.1899 63.725C87.7005 64.1779 88.3039 64.5176 88.9761 64.6894V89.1525L63.7845 83.2237ZM88.4617 91.2336L65.3776 128.585C65.1195 128.486 64.8521 128.414 64.5736 128.365L60.9958 88.4654C62.3103 87.9656 63.3204 86.8294 63.7029 85.4043L88.4617 91.2336ZM85.6433 60.2481C85.6433 60.8689 85.7621 61.4565 85.9756 61.9953L61.9371 80.3617C61.2465 79.8776 60.4184 79.5906 59.5272 79.5906C58.1142 79.5906 56.8703 80.3071 56.0756 81.4062L36.1626 76.7208C36.1162 76.5081 36.0531 76.3011 35.9788 76.1039L88.2761 29.774C88.5007 29.8736 88.7365 29.9458 88.9761 30.0102V55.8126C87.0674 56.2929 85.6433 58.0889 85.6433 60.2481ZM36.1162 78.9112L55.2401 83.415C55.2011 83.6629 55.1677 83.9108 55.1677 84.1705C55.1677 86.4956 56.8238 88.399 58.959 88.6918L62.5313 128.537C60.7897 129.136 59.5216 130.84 59.5216 132.872C59.5216 134.114 59.9951 135.233 60.7563 136.058L49.2968 154.599C49.0685 154.495 48.8271 154.415 48.5802 154.355L34.707 81.2383C35.3866 80.6409 35.8841 79.8346 36.1162 78.9112ZM107.257 116.669L91.6608 91.4327L116.358 85.6054C116.661 86.5698 117.246 87.4053 118.031 87.9656L109.186 116.589C108.921 116.538 108.649 116.501 108.373 116.501C107.981 116.501 107.613 116.567 107.257 116.669ZM111.75 123.937C112.352 123.152 112.725 122.164 112.725 121.077C112.725 119.617 112.066 118.332 111.054 117.493L119.953 88.6977C120.126 88.7211 120.296 88.7504 120.475 88.7504C122.879 88.7504 124.83 86.6986 124.83 84.1705C124.83 83.9792 124.797 83.7976 124.777 83.6102L143.355 79.2275C143.719 79.8873 144.227 80.4359 144.847 80.8361L125.683 142.846C125.406 142.792 125.122 142.754 124.829 142.754C124.37 142.754 123.937 142.852 123.522 142.987L111.75 123.937ZM91.0203 30.0083C91.2635 29.9438 91.4993 29.8716 91.7239 29.772L143.065 75.2528C142.868 75.776 142.749 76.3441 142.749 76.9414C142.749 77.0176 142.768 77.0898 142.772 77.162L124.06 81.5819C123.276 80.3852 121.96 79.5945 120.473 79.5945C119.582 79.5945 118.752 79.8776 118.061 80.3617L94.0225 61.9953C94.2323 61.4584 94.3549 60.8708 94.3549 60.2481C94.3549 58.0909 92.9308 56.2948 91.0203 55.8107V30.0083ZM91.0203 64.6913C91.6942 64.5195 92.2977 64.1798 92.8082 63.7269L116.68 81.9645C116.44 82.4174 116.267 82.9094 116.184 83.4443L91.0184 89.3848L91.0203 64.6913ZM105.454 117.7C104.574 118.541 104.015 119.736 104.015 121.077C104.015 121.165 104.036 121.249 104.039 121.333L67.7374 130.778C67.5592 130.415 67.342 130.083 67.0802 129.778L89.9991 92.6978L105.454 117.7ZM88.9761 8.69789V21.1276C87.0674 21.6118 85.6433 23.4078 85.6433 25.565C85.6433 25.932 85.6953 26.2854 85.7733 26.629L33.049 73.3357C32.6888 73.2322 32.3156 73.16 31.9238 73.16C30.5369 73.16 29.3152 73.853 28.5187 74.917L8.4702 70.1985L88.9761 8.69789ZM7.01827 72.0648L27.6442 76.918C27.5978 77.1855 27.5662 77.4588 27.5662 77.7419C27.5662 79.9069 28.9977 81.7107 30.9175 82.187L44.7869 155.28C43.8252 156.119 43.1995 157.369 43.1995 158.788C43.1995 160.131 43.7565 161.324 44.6291 162.163L38.1177 172.696L7.01827 72.0648ZM39.5957 174.255L46.4283 163.198C46.7885 163.302 47.1635 163.374 47.5553 163.374C49.2151 163.374 50.6411 162.386 51.3763 160.951L122.686 151.305C123.321 151.686 124.045 151.922 124.829 151.922C125.386 151.922 125.913 151.801 126.403 151.602L140.404 174.255H39.5957ZM141.882 172.694L128.078 150.364C128.759 149.552 129.184 148.506 129.184 147.336C129.184 146.768 129.071 146.229 128.895 145.724L148.854 81.1328C150.28 80.4769 151.29 79.0323 151.429 77.3241L172.922 72.2483L141.882 172.694Z" fill="#868E96"/>
<circle cx="63.9004" cy="132.662" r="4.5" fill="#373D43"/>
<circle cx="108" cy="120.962" r="4.5" fill="#373D43"/>
<circle cx="120.6" cy="84.0619" r="4.5" fill="#373D43"/>
<circle cx="90" cy="59.762" r="4.5" fill="#373D43"/>
<circle cx="59.4004" cy="84.0619" r="4.5" fill="#373D43"/>
<ellipse cx="31.95" cy="77.3119" rx="4.95" ry="4.95" fill="#868E96"/>
<ellipse cx="4.95" cy="69.212" rx="4.95" ry="4.95" fill="#ADB5BD"/>
<ellipse cx="89.5496" cy="5.31194" rx="4.95" ry="4.95" fill="#ADB5BD"/>
<ellipse cx="175.05" cy="69.212" rx="4.95" ry="4.95" fill="#ADB5BD"/>
<ellipse cx="142.649" cy="177.212" rx="4.95" ry="4.95" fill="#ADB5BD"/>
<ellipse cx="36.45" cy="177.212" rx="4.95" ry="4.95" fill="#ADB5BD"/>
<ellipse cx="89.5496" cy="26.0119" rx="4.95" ry="4.95" fill="#868E96"/>
<ellipse cx="148.05" cy="77.3119" rx="4.95" ry="4.95" fill="#868E96"/>
<ellipse cx="124.649" cy="146.612" rx="4.95" ry="4.95" fill="#868E96"/>
<ellipse cx="48.1492" cy="158.312" rx="4.95" ry="4.95" fill="#868E96"/>
</svg>
