<svg width="914" height="461" viewBox="0 0 914 461" fill="none" xmlns="http://www.w3.org/2000/svg">
<rect x="863.25" y="8.45898" width="24.5" height="13.5" rx="2.75" stroke="black" stroke-width="0.5"/>
<path d="M894.008 19.209V10.809H894.86L899.252 17.421V10.809H900.14V19.209H899.384L894.884 12.441V19.209H894.008ZM900.953 20.637L905.633 9.74098H906.413L901.745 20.637H900.953ZM905.607 19.209L908.811 10.761H909.699L912.903 19.209H911.943L911.127 17.001H907.347L906.531 19.209H905.607ZM907.647 16.185H910.827L909.243 11.925L907.647 16.185Z" fill="#495057"/>
<path d="M457 211.409L419.1 232.059V273.359L457 294.009L494.9 273.359V232.059L457 211.409ZM457 128.809L343.3 190.759V314.659L457 376.609L570.7 314.659V190.759L457 128.809V170.109L532.8 211.409V294.009L457 335.309L381.2 294.009V211.409L457 170.109V128.809ZM457 46.209L267.5 149.459V355.959L457 459.209L646.5 355.959V149.459L457 46.209V87.509L608.6 170.109V335.309L457 417.909L305.4 335.309V170.109L457 87.509V46.209Z" fill="#E9EEF4"/>
<path d="M457 170.109L381.2 211.409V294.009L457 335.309L532.8 294.009V211.409L457 170.109V211.409L494.9 232.059V273.359L457 294.009L419.1 273.359V232.059L457 211.409V170.109ZM457 87.5088L305.4 170.109V335.309L457 417.909L608.6 335.309V170.109L457 87.5088V128.809L570.7 190.759V314.659L457 376.609L343.3 314.659V190.759L457 128.809V87.5088Z" fill="#E9EEF4"/>
<path d="M457 211.409L419.1 232.059V273.359L457 294.009L494.9 273.359V232.059L457 211.409ZM457 170.109L381.2 211.409V294.009L457 335.309L532.8 294.009V211.409L457 170.109ZM457 128.809L343.3 190.759V314.659L457 376.609L570.7 314.659V190.759L457 128.809ZM457 87.509L305.4 170.109V335.309L457 417.909L608.6 335.309V170.109L457 87.509ZM457 46.209L267.5 149.459V355.959L457 459.209L646.5 355.959V149.459L457 46.209Z" stroke="#F8FAFE" stroke-width="2"/>
<path d="M457 252.709V46.209" stroke="white" stroke-width="2" stroke-linecap="round"/>
<path d="M457 252.709L267.5 149.459" stroke="white" stroke-width="2" stroke-linecap="round"/>
<path d="M457 252.709L267.5 355.959" stroke="white" stroke-width="2" stroke-linecap="round"/>
<path d="M457 252.709V459.209" stroke="white" stroke-width="2" stroke-linecap="round"/>
<path d="M457 252.709L646.5 355.959" stroke="white" stroke-width="2" stroke-linecap="round"/>
<path d="M457 252.709L646.5 149.459" stroke="white" stroke-width="2" stroke-linecap="round"/>
</svg>
