<svg width="791" height="481" viewBox="0 0 791 481" fill="none" xmlns="http://www.w3.org/2000/svg">
<path d="M289.79 166.204C130.102 162.465 168.09 180.732 19.3203 180.732V321.162C170.819 321.162 61.8595 337.699 289.79 337.699V297.92C131.467 297.92 171.73 294.915 61.8595 278.187C91.2039 278.187 250.892 278.313 289.79 278.313V205.911C239.291 205.911 98.0282 204.364 52.9879 204.364C115.771 204.364 173.869 181.699 289.881 184.607L289.79 166.204Z" fill="url(#paint0_linear_13703_93366)"/>
<path d="M19.3203 136.712V32.3631C115.853 41.4803 136.808 -2.78271 289.881 1.75988V45.5739C256.784 45.5739 203.691 42.7444 136.808 71.0396C187.143 71.0396 246.442 70.044 289.881 70.044V136.482C178.869 136.482 62.0705 136.712 19.3203 136.712Z" fill="url(#paint1_linear_13703_93366)"/>
<path d="M19.3203 455.111V360.398C109.882 360.398 185.594 357.994 289.881 357.994V429.948C264.56 430.825 185.917 429.692 136.202 429.692C193.832 440.092 193.826 449.895 289.881 445.495V476.793C149.232 493.964 179.861 448.778 19.3203 455.111Z" fill="url(#paint2_linear_13703_93366)"/>
<path d="M774 0.712891C774 0.712891 467.964 1.98321 303 1.98321V45.4116C303 45.4116 578.99 45.7129 771.967 45.7129L774 0.712891Z" fill="url(#paint3_linear_13703_93366)"/>
<path d="M771 445.713H303V477.334C303 477.334 508.92 479.713 771 479.713V445.713Z" fill="url(#paint4_linear_13703_93366)"/>
<path d="M771.923 359.918C771.923 359.918 544.603 357.713 303 357.713V430.548C303 430.548 450.467 430.713 773 430.713L771.923 359.918Z" fill="url(#paint5_linear_13703_93366)"/>
<path d="M771 296.713C771 296.713 544.127 297.702 303 297.702V321.713C303 321.713 449.102 320.713 771 320.713L771 310.082V296.713Z" fill="url(#paint6_linear_13703_93366)"/>
<path d="M771 173.713C771 173.713 543.575 175.587 303 175.587V182.39C303 182.39 449.838 182.713 771 182.713V173.713Z" fill="url(#paint7_linear_13703_93366)"/>
<path d="M771 191.463C771 191.463 584.56 181.713 303 181.713V183.463C303 183.463 616.34 187.588 771 197.213V191.463Z" fill="url(#paint8_linear_13703_93366)"/>
<path d="M771 103.713C771 103.713 543.575 105.459 303 105.459V135.713C303 135.713 449.838 134.868 771 134.868V103.713Z" fill="url(#paint9_linear_13703_93366)"/>
<path d="M771 204.713C771 204.713 544.127 206.634 303 206.634V278.479C303 278.479 449.101 278.713 771 278.713V204.713Z" fill="url(#paint10_linear_13703_93366)"/>
<path d="M771 147.554V142.713C612.587 142.713 529.794 169.786 303 167.58V175.713H388.381C617.843 174.019 570.888 163.046 771 163.046V156.269C562.883 154.998 573.819 169.786 401.722 169.786C427.07 168.092 501.778 164.705 529.794 162.165C557.81 159.625 665.608 147.554 771 147.554Z" fill="url(#paint11_linear_13703_93366)"/>
<path d="M772.979 82.3823V62.7129C346.594 62.7129 531.377 73.4393 303 70.8827V104.713H388.742C628.559 95.7515 629.442 95.5884 774 98.3051L772.979 84.2555C563.983 82.7504 509.511 86.7901 380.745 94.9722C491.29 76.6597 737.751 82.3823 772.979 82.3823Z" fill="url(#paint12_linear_13703_93366)"/>
<path d="M598.018 329.305C718.868 335.569 743.749 328.713 771 328.713L771 343.213C705.835 349.086 518.635 334.546 303 337.678V321.73L337.176 321.799C348.553 321.714 359.978 321.633 370.534 321.866C469.379 324.051 563.631 327.161 598.018 329.305Z" fill="url(#paint13_linear_13703_93366)"/>
<rect x="284.419" y="445.604" width="18.8212" height="31.5977" fill="#DFE3E6" stroke="#DFE3E6" stroke-width="0.289887"/>
<rect x="0.144943" y="32.0317" width="18.8212" height="104.069" fill="#DFE3E6" stroke="#DFE3E6" stroke-width="0.289887"/>
<rect x="0.144943" y="180.842" width="18.8212" height="139.822" fill="#DFE3E6" stroke="#DFE3E6" stroke-width="0.289887"/>
<rect x="0.144943" y="359.602" width="18.8212" height="96.3391" fill="#DFE3E6" stroke="#DFE3E6" stroke-width="0.289887"/>
<rect x="289.202" y="1.11369" width="18.8212" height="44.1594" fill="#DFE3E6" stroke="#DFE3E6" stroke-width="0.289887"/>
<rect x="771.145" y="0.144943" width="18.8212" height="45.1257" fill="#DFE3E6" stroke="#DFE3E6" stroke-width="0.289887"/>
<rect x="771.145" y="61.9906" width="18.8212" height="20.0022" fill="#DFE3E6" stroke="#DFE3E6" stroke-width="0.289887"/>
<rect x="771.145" y="84.2133" width="18.8212" height="14.2045" fill="#DFE3E6" stroke="#DFE3E6" stroke-width="0.289887"/>
<rect x="771.145" y="103.538" width="18.8212" height="31.5977" fill="#DFE3E6" stroke="#DFE3E6" stroke-width="0.289887"/>
<rect x="771.145" y="142.194" width="18.8212" height="4.54156" fill="#DFE3E6" stroke="#DFE3E6" stroke-width="0.289887"/>
<rect x="771.145" y="155.719" width="18.8212" height="6.47414" fill="#DFE3E6" stroke="#DFE3E6" stroke-width="0.289887"/>
<rect x="771.145" y="173.112" width="18.8212" height="9.37301" fill="#DFE3E6" stroke="#DFE3E6" stroke-width="0.289887"/>
<rect x="771.145" y="191.469" width="18.8212" height="5.50785" fill="#DFE3E6" stroke="#DFE3E6" stroke-width="0.289887"/>
<rect x="771.145" y="204.034" width="18.8212" height="74.1144" fill="#DFE3E6" stroke="#DFE3E6" stroke-width="0.289887"/>
<rect x="771.145" y="296.799" width="18.8212" height="23.8674" fill="#DFE3E6" stroke="#DFE3E6" stroke-width="0.289887"/>
<rect x="771.145" y="328.686" width="18.8212" height="14.2045" fill="#DFE3E6" stroke="#DFE3E6" stroke-width="0.289887"/>
<rect x="771.145" y="359.602" width="18.8212" height="70.2493" fill="#DFE3E6" stroke="#DFE3E6" stroke-width="0.289887"/>
<rect x="771.145" y="445.604" width="18.8212" height="33.5303" fill="#DFE3E6" stroke="#DFE3E6" stroke-width="0.289887"/>
<rect x="289.202" y="69.7172" width="18.8212" height="66.3841" fill="#DFE3E6" stroke="#DFE3E6" stroke-width="0.289887"/>
<rect x="289.202" y="166.344" width="18.8212" height="18.0696" fill="#DFE3E6" stroke="#DFE3E6" stroke-width="0.289887"/>
<rect x="289.202" y="205" width="18.8212" height="73.1481" fill="#DFE3E6" stroke="#DFE3E6" stroke-width="0.289887"/>
<rect x="289.202" y="297.766" width="18.8212" height="39.328" fill="#DFE3E6" stroke="#DFE3E6" stroke-width="0.289887"/>
<rect x="285.632" y="357.678" width="18.8212" height="72.1818" fill="#DFE3E6" stroke="#DFE3E6" stroke-width="0.289887"/>
<defs>
<linearGradient id="paint0_linear_13703_93366" x1="-15.1331" y1="272.188" x2="497.854" y2="269.241" gradientUnits="userSpaceOnUse">
<stop stop-color="#C7CDD1"/>
<stop offset="0.734375" stop-color="white"/>
</linearGradient>
<linearGradient id="paint1_linear_13703_93366" x1="-15.1331" y1="85.1871" x2="497.843" y2="81.4397" gradientUnits="userSpaceOnUse">
<stop stop-color="#C7CDD1"/>
<stop offset="0.734375" stop-color="white"/>
</linearGradient>
<linearGradient id="paint2_linear_13703_93366" x1="-15.1331" y1="433.972" x2="497.837" y2="429.841" gradientUnits="userSpaceOnUse">
<stop stop-color="#C7CDD1"/>
<stop offset="0.734375" stop-color="white"/>
</linearGradient>
<linearGradient id="paint3_linear_13703_93366" x1="243.023" y1="28.5735" x2="1134.77" y2="-5.51875" gradientUnits="userSpaceOnUse">
<stop stop-color="#C7CDD1"/>
<stop offset="0.734375" stop-color="white"/>
</linearGradient>
<linearGradient id="paint4_linear_13703_93366" x1="243.405" y1="466.763" x2="1128.53" y2="422.261" gradientUnits="userSpaceOnUse">
<stop stop-color="#C7CDD1"/>
<stop offset="0.734375" stop-color="white"/>
</linearGradient>
<linearGradient id="paint5_linear_13703_93366" x1="243.15" y1="402.909" x2="1133.81" y2="381.963" gradientUnits="userSpaceOnUse">
<stop stop-color="#C7CDD1"/>
<stop offset="0.734375" stop-color="white"/>
</linearGradient>
<linearGradient id="paint6_linear_13703_93366" x1="243.405" y1="312.191" x2="1126.64" y2="251.798" gradientUnits="userSpaceOnUse">
<stop stop-color="#C7CDD1"/>
<stop offset="0.734375" stop-color="white"/>
</linearGradient>
<linearGradient id="paint7_linear_13703_93366" x1="243.405" y1="179.285" x2="1099.87" y2="16.611" gradientUnits="userSpaceOnUse">
<stop stop-color="#C7CDD1"/>
<stop offset="0.734375" stop-color="white"/>
</linearGradient>
<linearGradient id="paint8_linear_13703_93366" x1="243.405" y1="191.309" x2="1120.1" y2="94.6219" gradientUnits="userSpaceOnUse">
<stop stop-color="#C7CDD1"/>
<stop offset="0.734375" stop-color="white"/>
</linearGradient>
<linearGradient id="paint9_linear_13703_93366" x1="243.405" y1="123.525" x2="1128.24" y2="76.2572" gradientUnits="userSpaceOnUse">
<stop stop-color="#C7CDD1"/>
<stop offset="0.734375" stop-color="white"/>
</linearGradient>
<linearGradient id="paint10_linear_13703_93366" x1="243.405" y1="250.528" x2="1130.29" y2="230.041" gradientUnits="userSpaceOnUse">
<stop stop-color="#C7CDD1"/>
<stop offset="0.734375" stop-color="white"/>
</linearGradient>
<linearGradient id="paint11_linear_13703_93366" x1="243.405" y1="163.144" x2="1128.39" y2="117.301" gradientUnits="userSpaceOnUse">
<stop stop-color="#C7CDD1"/>
<stop offset="0.734375" stop-color="white"/>
</linearGradient>
<linearGradient id="paint12_linear_13703_93366" x1="243.023" y1="88.7161" x2="1134.58" y2="52.1966" gradientUnits="userSpaceOnUse">
<stop stop-color="#C7CDD1"/>
<stop offset="0.734375" stop-color="white"/>
</linearGradient>
<linearGradient id="paint13_linear_13703_93366" x1="243.405" y1="335.899" x2="1125.85" y2="270.062" gradientUnits="userSpaceOnUse">
<stop stop-color="#C7CDD1"/>
<stop offset="0.734375" stop-color="white"/>
</linearGradient>
</defs>
</svg>
