<svg width="226" height="165" viewBox="0 0 226 165" fill="none" xmlns="http://www.w3.org/2000/svg">
<path d="M54.2889 43.448H4.76367V87.6077H67.6342L111.764 66.1077V17.1077L54.2889 43.448Z" fill="#98A1AA"/>
<path d="M142.06 17.7462H114.598V41.4306H141.1L216.767 30.2537V3.10982L142.06 17.7462Z" fill="#98A1AA"/>
<path d="M148.255 126.201H120.51V147.704H147.285L216.768 160.457V138.954L148.255 126.201Z" fill="#98A1AA"/>
<path d="M168.295 41.431H117.131V65.2363H172.142L216.767 65.2363V41.431L168.295 41.431Z" fill="#98A1AA"/>
<path d="M170.418 103.557H118.82V126.782H174.298L219.301 126.782V103.557L170.418 103.557Z" fill="#98A1AA"/>
<path d="M66.2478 87.2986H9.05273V124.079H66.2478L115.444 148.263V103.729L66.2478 87.2986Z" fill="#98A1AA"/>
<rect x="12.2539" y="40.668" width="85.6325" height="12.0186" rx="5.80618" transform="rotate(90 12.2539 40.668)" fill="#373D43"/>
<path d="M114.795 97.6077C118.002 97.6077 120.602 100.207 120.602 103.414L120.602 147.388C120.602 150.594 118.002 153.194 114.795 153.194L114.209 153.194C111.002 153.194 108.403 150.594 108.403 147.388L108.403 103.414C108.403 100.207 111.002 97.6077 114.209 97.6077L114.795 97.6077Z" fill="#373D43"/>
<rect x="120.602" y="13.6264" width="55.586" height="12.1989" rx="5.80618" transform="rotate(90 120.602 13.6264)" fill="#373D43"/>
<rect x="225.582" y="0.607727" width="30.0465" height="12.0186" rx="5.80618" transform="rotate(90 225.582 0.607727)" fill="#373D43"/>
<rect x="225.764" y="37.6077" width="30.0465" height="12.1989" rx="5.80618" transform="rotate(90 225.764 37.6077)" fill="#373D43"/>
<rect x="225.764" y="100.608" width="30.0465" height="12.1989" rx="5.80618" transform="rotate(90 225.764 100.608)" fill="#373D43"/>
<rect x="225.764" y="134.608" width="30.0465" height="12.1989" rx="5.80618" transform="rotate(90 225.764 134.608)" fill="#373D43"/>
</svg>
