<svg width="226" height="165" viewBox="0 0 226 165" fill="none" xmlns="http://www.w3.org/2000/svg">
<path d="M54.5252 42.8403H5V87H67.8705L112 65.5V16.5L54.5252 42.8403Z" fill="#98A1AA"/>
<path d="M142.296 17.1385H114.834V40.8228H141.336L217.003 29.6459V2.50208L142.296 17.1385Z" fill="#98A1AA"/>
<path d="M148.491 125.593H120.745V147.096H147.521L217.004 159.85V138.347L148.491 125.593Z" fill="#98A1AA"/>
<path d="M168.532 40.8233H117.367V64.6286H172.379L217.003 64.6286V40.8233L168.532 40.8233Z" fill="#98A1AA"/>
<path d="M170.654 102.949H119.056V126.174H174.534L219.537 126.174V102.949L170.654 102.949Z" fill="#98A1AA"/>
<path d="M66.4832 86.6908H9.28809V123.471H66.4832L115.679 147.656V103.122L66.4832 86.6908Z" fill="#98A1AA"/>
<rect x="12.489" y="40.0602" width="85.6325" height="12.0186" rx="5.80618" transform="rotate(90 12.489 40.0602)" fill="#373D43"/>
<path d="M115.031 97C118.237 97 120.837 99.5995 120.837 102.806L120.837 146.78C120.837 149.986 118.237 152.586 115.031 152.586L114.444 152.586C111.238 152.586 108.638 149.986 108.638 146.78L108.638 102.806C108.638 99.5995 111.238 97 114.444 97L115.031 97Z" fill="#373D43"/>
<rect x="120.837" y="13.0187" width="55.586" height="12.1989" rx="5.80618" transform="rotate(90 120.837 13.0187)" fill="#373D43"/>
<rect x="225.819" width="30.0465" height="12.0186" rx="5.80618" transform="rotate(90 225.819 0)" fill="#373D43"/>
<rect x="226" y="37" width="30.0465" height="12.1989" rx="5.80618" transform="rotate(90 226 37)" fill="#373D43"/>
<rect x="226" y="100" width="30.0465" height="12.1989" rx="5.80618" transform="rotate(90 226 100)" fill="#373D43"/>
<rect x="226" y="134" width="30.0465" height="12.1989" rx="5.80618" transform="rotate(90 226 134)" fill="#373D43"/>
</svg>
