<svg width="200" height="200" viewBox="0 0 200 200" fill="none" xmlns="http://www.w3.org/2000/svg">
<g clip-path="url(#clip0_13733_6060)">
<path d="M0 179H200" stroke="#CBCBCB" stroke-width="0.4"/>
<path d="M0 150H200" stroke="#CBCBCB" stroke-width="0.4"/>
<path d="M0 120H200" stroke="#CBCBCB" stroke-width="0.4"/>
<path d="M0 90H200" stroke="#CBCBCB" stroke-width="0.4"/>
<path d="M0 61H200" stroke="#CBCBCB" stroke-width="0.4"/>
<path d="M0 31H200" stroke="#CBCBCB" stroke-width="0.4"/>
<circle cx="17" cy="161" r="4" fill="#ADB5BD"/>
<circle cx="55" cy="147" r="4" fill="#ADB5BD"/>
<circle cx="35" cy="116" r="4" fill="#ADB5BD"/>
<circle cx="65" cy="168" r="4" fill="#868E96"/>
<circle cx="73" cy="163" r="4" fill="#868E96"/>
<circle cx="125" cy="94" r="4" fill="#868E96"/>
<circle cx="55" cy="168" r="4" fill="#868E96"/>
<circle cx="96" cy="115" r="4" fill="#868E96"/>
<circle cx="76" cy="132" r="4" fill="#868E96"/>
<circle cx="59" cy="125" r="4" fill="#868E96"/>
<circle cx="79.436" cy="122.451" r="4" fill="#ADB5BD"/>
<circle cx="118" cy="131" r="4" fill="#373D43"/>
<circle cx="110" cy="116" r="4" fill="#373D43"/>
<circle cx="123" cy="117" r="4" fill="#373D43"/>
<circle cx="88" cy="151" r="4" fill="#373D43"/>
<circle cx="155" cy="119" r="4" fill="#868E96"/>
<circle cx="170" cy="107" r="4" fill="#868E96"/>
<circle cx="49" cy="113" r="4" fill="#ADB5BD"/>
<circle cx="137" cy="107" r="4" fill="#ADB5BD"/>
<circle cx="107" cy="140" r="4" fill="#ADB5BD"/>
<circle cx="160" cy="110" r="4" fill="#373D43"/>
<circle cx="91" cy="106.602" r="4" fill="#373D43"/>
<circle cx="95.6392" cy="97" r="4" fill="#373D43"/>
<circle cx="100.639" cy="105" r="4" fill="#373D43"/>
<circle cx="56" cy="101.917" r="4" fill="#868E96"/>
<circle cx="74" cy="98" r="4" fill="#868E96"/>
<circle cx="59" cy="114" r="4" fill="#868E96"/>
<circle cx="77" cy="154" r="4" fill="#ADB5BD"/>
<circle cx="82" cy="143" r="4" fill="#ADB5BD"/>
<circle cx="94" cy="141" r="4" fill="#ADB5BD"/>
<circle cx="130" cy="74" r="4" fill="#ADB5BD"/>
<circle cx="135" cy="83" r="4" fill="#ADB5BD"/>
<circle cx="124" cy="83" r="4" fill="#ADB5BD"/>
<circle cx="112" cy="81" r="4" fill="#ADB5BD"/>
<circle cx="134" cy="95" r="4" fill="#868E96"/>
<circle cx="101" cy="127" r="4" fill="#868E96"/>
<circle cx="116" cy="103" r="4" fill="#868E96"/>
<circle cx="147" cy="75" r="4" fill="#ADB5BD"/>
<circle cx="33" cy="146" r="4" fill="#ADB5BD"/>
<circle cx="24" cy="168" r="4" fill="#ADB5BD"/>
<circle cx="55" cy="147" r="4" fill="#ADB5BD"/>
<circle cx="47" cy="141" r="4" fill="#ADB5BD"/>
<circle cx="34" cy="167" r="4" fill="#ADB5BD"/>
<circle cx="27" cy="158" r="4" fill="#ADB5BD"/>
<circle cx="65" cy="168" r="4" fill="#868E96"/>
<circle cx="58" cy="158" r="4" fill="#868E96"/>
<circle cx="73" cy="163" r="4" fill="#868E96"/>
<circle cx="66" cy="153" r="4" fill="#868E96"/>
<circle cx="153" cy="90" r="4" fill="#868E96"/>
<circle cx="160" cy="63" r="4" fill="#868E96"/>
<circle cx="55" cy="168" r="4" fill="#868E96"/>
<circle cx="48" cy="158" r="4" fill="#868E96"/>
<circle cx="96" cy="115" r="4" fill="#868E96"/>
<circle cx="99" cy="149" r="4" fill="#868E96"/>
<circle cx="123" cy="151" r="4" fill="#868E96"/>
<circle cx="37" cy="138" r="4" fill="#868E96"/>
<circle cx="47" cy="124" r="4" fill="#868E96"/>
<circle cx="79.436" cy="122.451" r="4" fill="#ADB5BD"/>
<circle cx="68" cy="120" r="4" fill="#ADB5BD"/>
<circle cx="126" cy="126" r="4" fill="#373D43"/>
<circle cx="110" cy="125" r="4" fill="#373D43"/>
<circle cx="126" cy="108" r="4" fill="#373D43"/>
<circle cx="118" cy="141" r="4" fill="#373D43"/>
<circle cx="88" cy="151" r="4" fill="#373D43"/>
<circle cx="182" cy="45" r="4" fill="#868E96"/>
<circle cx="146.872" cy="112.451" r="4" fill="#868E96"/>
<circle cx="163" cy="100" r="4" fill="#868E96"/>
<circle cx="49" cy="113" r="4" fill="#ADB5BD"/>
<circle cx="42" cy="103" r="4" fill="#ADB5BD"/>
<circle cx="137" cy="107" r="4" fill="#ADB5BD"/>
<circle cx="134" cy="117" r="4" fill="#ADB5BD"/>
<circle cx="134" cy="153" r="4" fill="#ADB5BD"/>
<circle cx="143" cy="123" r="4" fill="#373D43"/>
<circle cx="153" cy="100" r="4" fill="#373D43"/>
<circle cx="84" cy="96.6016" r="4" fill="#373D43"/>
<circle cx="95.6392" cy="97" r="4" fill="#373D43"/>
<circle cx="88.6392" cy="87" r="4" fill="#373D43"/>
<circle cx="42" cy="149" r="4" fill="#373D43"/>
<circle cx="38" cy="159" r="4" fill="#373D43"/>
<circle cx="56" cy="101.917" r="4" fill="#868E96"/>
<circle cx="49" cy="91.917" r="4" fill="#868E96"/>
<circle cx="79" cy="106" r="4" fill="#868E96"/>
<circle cx="58.8569" cy="88" r="4" fill="#868E96"/>
<circle cx="75" cy="114" r="4" fill="#868E96"/>
<circle cx="67" cy="107" r="4" fill="#868E96"/>
<circle cx="77" cy="154" r="4" fill="#ADB5BD"/>
<circle cx="129" cy="143" r="4" fill="#ADB5BD"/>
<circle cx="94" cy="141" r="4" fill="#ADB5BD"/>
<circle cx="87" cy="131" r="4" fill="#ADB5BD"/>
<circle cx="160" cy="82" r="4" fill="#ADB5BD"/>
<circle cx="168" cy="57" r="4" fill="#ADB5BD"/>
<circle cx="113.562" cy="91.5617" r="4" transform="rotate(8.7463 113.562 91.5617)" fill="#ADB5BD"/>
<circle cx="150" cy="65" r="4" fill="#ADB5BD"/>
<circle cx="156" cy="73" r="4" fill="#ADB5BD"/>
<circle cx="45" cy="167" r="4" fill="#ADB5BD"/>
<circle cx="178" cy="55" r="4" fill="#ADB5BD"/>
<circle cx="161" cy="49" r="4" fill="#ADB5BD"/>
<circle cx="142" cy="90" r="4" fill="#868E96"/>
<circle cx="171" cy="47" r="4" fill="#868E96"/>
<circle cx="91" cy="122" r="4" fill="#868E96"/>
<circle cx="143" cy="100" r="4" fill="#868E96"/>
<circle cx="106" cy="98" r="4" fill="#868E96"/>
<circle cx="166" cy="75" r="4" fill="#ADB5BD"/>
<circle cx="170" cy="66" r="4" fill="#ADB5BD"/>
</g>
<defs>
<clipPath id="clip0_13733_6060">
<rect width="200" height="200" fill="white"/>
</clipPath>
</defs>
</svg>
