<svg width="914" height="521" viewBox="0 0 914 521" fill="none" xmlns="http://www.w3.org/2000/svg">
<rect x="863.25" y="8.45898" width="24.5" height="13.5" rx="2.75" stroke="black" stroke-width="0.5"/>
<path d="M894.008 19.209V10.809H894.86L899.252 17.421V10.809H900.14V19.209H899.384L894.884 12.441V19.209H894.008ZM900.953 20.637L905.633 9.74098H906.413L901.745 20.637H900.953ZM905.607 19.209L908.811 10.761H909.699L912.903 19.209H911.943L911.127 17.001H907.347L906.531 19.209H905.607ZM907.647 16.185H910.827L909.243 11.925L907.647 16.185Z" fill="#495057"/>
<g clip-path="url(#clip0_15045_56163)">
<path d="M11 291.717H7.688L2.6 294.453L2.6 292.485L5.9 290.829L2.6 289.161L2.6 287.241L7.664 289.977H11V291.717ZM8.108 287.434H6.452V283.918H8.108L8.108 287.434ZM11 283.564L2.552 280.552L2.552 278.896L11 275.884V277.684L9.176 278.308V281.2L11 281.812V283.564ZM7.64 280.672V278.836L4.904 279.748L7.64 280.672ZM4.568 273.605L6.452 272.597L4.568 271.577V269.813L7.7 271.673L11 269.741V271.553L8.996 272.621L11 273.701V275.477L7.724 273.557L4.568 275.405V273.605ZM3.884 268.821H2.336V267.045H3.884V268.821ZM11 268.785H4.568V267.081H11L11 268.785ZM11.12 263.702C11.12 264.458 10.868 265.358 10.232 266.138L9.032 265.394C9.476 264.818 9.752 264.206 9.752 263.678C9.752 263.198 9.524 262.994 9.26 262.994H9.236C8.864 262.994 8.708 263.474 8.408 264.17C8.012 265.082 7.556 265.862 6.464 265.862H6.44C5.204 265.862 4.472 264.902 4.472 263.654C4.472 262.958 4.712 262.178 5.168 261.53L6.392 262.214C6.08 262.694 5.84 263.222 5.84 263.678C5.84 264.086 6.044 264.302 6.296 264.302H6.32C6.656 264.302 6.848 263.822 7.16 263.138C7.604 262.202 8.072 261.434 9.092 261.434H9.116C10.448 261.434 11.12 262.418 11.12 263.702ZM11.108 255.733C11.108 256.717 10.724 257.437 9.392 257.437H6.008V258.085H4.568V257.437H2.924L2.924 255.733H4.568L4.568 254.461H6.008L6.008 255.733H9.044C9.416 255.733 9.596 255.565 9.596 255.205C9.596 254.941 9.524 254.689 9.416 254.473H10.772C10.964 254.809 11.108 255.217 11.108 255.733ZM3.884 253.317H2.336L2.336 251.541H3.884L3.884 253.317ZM11 253.281H4.568V251.577H11V253.281ZM11.108 248.174C11.108 249.158 10.724 249.878 9.392 249.878H6.008V250.526H4.568V249.878H2.924L2.924 248.174H4.568V246.902H6.008V248.174H9.044C9.416 248.174 9.596 248.006 9.596 247.646C9.596 247.382 9.524 247.13 9.416 246.914H10.772C10.964 247.25 11.108 247.658 11.108 248.174ZM11 245.723H2.336V244.019H11V245.723ZM11.144 239.836C11.144 241.54 9.86 242.848 7.856 242.848H7.748C5.84 242.848 4.448 241.66 4.448 240.04C4.448 238.204 5.948 237.304 7.868 237.304C7.964 237.304 8.168 237.304 8.42 237.316V241.156C9.272 241.012 9.716 240.484 9.716 239.764C9.716 239.236 9.476 238.828 9.08 238.42L10.112 237.544C10.76 238.132 11.144 238.876 11.144 239.836ZM7.292 241.168V238.948C6.404 239.02 5.852 239.404 5.852 240.04C5.852 240.664 6.38 241.072 7.292 241.168Z" fill="#6E7079"/>
<path d="M23.102 57.341C21.23 57.341 20.066 55.589 20.066 53.069V52.973C20.066 50.453 21.254 48.677 23.114 48.677C24.974 48.677 26.15 50.429 26.15 52.949V53.045C26.15 55.565 24.962 57.341 23.102 57.341ZM23.114 56.525C24.398 56.525 25.226 55.085 25.226 53.069V52.973C25.226 50.957 24.374 49.493 23.102 49.493C21.818 49.493 20.99 50.933 20.99 52.949V53.045C20.99 55.061 21.83 56.525 23.114 56.525ZM30.4848 57.341C28.6128 57.341 27.4488 55.589 27.4488 53.069V52.973C27.4488 50.453 28.6368 48.677 30.4968 48.677C32.3568 48.677 33.5328 50.429 33.5328 52.949V53.045C33.5328 55.565 32.3448 57.341 30.4848 57.341ZM30.4968 56.525C31.7808 56.525 32.6088 55.085 32.6088 53.069V52.973C32.6088 50.957 31.7568 49.493 30.4848 49.493C29.2008 49.493 28.3728 50.933 28.3728 52.949V53.045C28.3728 55.061 29.2128 56.525 30.4968 56.525ZM37.8676 57.341C35.9956 57.341 34.8316 55.589 34.8316 53.069V52.973C34.8316 50.453 36.0196 48.677 37.8796 48.677C39.7396 48.677 40.9156 50.429 40.9156 52.949V53.045C40.9156 55.565 39.7276 57.341 37.8676 57.341ZM37.8796 56.525C39.1636 56.525 39.9916 55.085 39.9916 53.069V52.973C39.9916 50.957 39.1396 49.493 37.8676 49.493C36.5836 49.493 35.7556 50.933 35.7556 52.949V53.045C35.7556 55.061 36.5956 56.525 37.8796 56.525ZM41.9789 58.661L41.8349 58.253C42.4229 58.037 42.6509 57.713 42.6149 57.209H42.1709V55.973H43.2509V57.029C43.2509 57.977 42.8549 58.433 41.9789 58.661ZM47.5356 57.341C45.6636 57.341 44.4996 55.589 44.4996 53.069V52.973C44.4996 50.453 45.6876 48.677 47.5476 48.677C49.4076 48.677 50.5836 50.429 50.5836 52.949V53.045C50.5836 55.565 49.3956 57.341 47.5356 57.341ZM47.5476 56.525C48.8316 56.525 49.6596 55.085 49.6596 53.069V52.973C49.6596 50.957 48.8076 49.493 47.5356 49.493C46.2516 49.493 45.4236 50.933 45.4236 52.949V53.045C45.4236 55.061 46.2636 56.525 47.5476 56.525ZM54.9184 57.341C53.0464 57.341 51.8824 55.589 51.8824 53.069V52.973C51.8824 50.453 53.0704 48.677 54.9304 48.677C56.7904 48.677 57.9664 50.429 57.9664 52.949V53.045C57.9664 55.565 56.7784 57.341 54.9184 57.341ZM54.9304 56.525C56.2144 56.525 57.0424 55.085 57.0424 53.069V52.973C57.0424 50.957 56.1904 49.493 54.9184 49.493C53.6344 49.493 52.8064 50.933 52.8064 52.949V53.045C52.8064 55.061 53.6464 56.525 54.9304 56.525ZM62.3012 57.341C60.4292 57.341 59.2652 55.589 59.2652 53.069V52.973C59.2652 50.453 60.4532 48.677 62.3132 48.677C64.1732 48.677 65.3492 50.429 65.3492 52.949V53.045C65.3492 55.565 64.1612 57.341 62.3012 57.341ZM62.3132 56.525C63.5972 56.525 64.4252 55.085 64.4252 53.069V52.973C64.4252 50.957 63.5732 49.493 62.3012 49.493C61.0172 49.493 60.1892 50.933 60.1892 52.949V53.045C60.1892 55.061 61.0292 56.525 62.3132 56.525Z" fill="#6E7079"/>
<path d="M23.102 118.055C21.23 118.055 20.066 116.303 20.066 113.783V113.687C20.066 111.167 21.254 109.391 23.114 109.391C24.974 109.391 26.15 111.143 26.15 113.663V113.759C26.15 116.279 24.962 118.055 23.102 118.055ZM23.114 117.239C24.398 117.239 25.226 115.799 25.226 113.783V113.687C25.226 111.671 24.374 110.207 23.102 110.207C21.818 110.207 20.99 111.647 20.99 113.663V113.759C20.99 115.775 21.83 117.239 23.114 117.239ZM30.4848 118.055C28.6128 118.055 27.4488 116.303 27.4488 113.783V113.687C27.4488 111.167 28.6368 109.391 30.4968 109.391C32.3568 109.391 33.5328 111.143 33.5328 113.663V113.759C33.5328 116.279 32.3448 118.055 30.4848 118.055ZM30.4968 117.239C31.7808 117.239 32.6088 115.799 32.6088 113.783V113.687C32.6088 111.671 31.7568 110.207 30.4848 110.207C29.2008 110.207 28.3728 111.647 28.3728 113.663V113.759C28.3728 115.775 29.2128 117.239 30.4968 117.239ZM37.8676 118.055C35.9956 118.055 34.8316 116.303 34.8316 113.783V113.687C34.8316 111.167 36.0196 109.391 37.8796 109.391C39.7396 109.391 40.9156 111.143 40.9156 113.663V113.759C40.9156 116.279 39.7276 118.055 37.8676 118.055ZM37.8796 117.239C39.1636 117.239 39.9916 115.799 39.9916 113.783V113.687C39.9916 111.671 39.1396 110.207 37.8676 110.207C36.5836 110.207 35.7556 111.647 35.7556 113.663V113.759C35.7556 115.775 36.5956 117.239 37.8796 117.239ZM41.9789 119.375L41.8349 118.967C42.4229 118.751 42.6509 118.427 42.6149 117.923H42.1709V116.687H43.2509V117.743C43.2509 118.691 42.8549 119.147 41.9789 119.375ZM47.5356 118.055C45.6636 118.055 44.4996 116.303 44.4996 113.783V113.687C44.4996 111.167 45.6876 109.391 47.5476 109.391C49.4076 109.391 50.5836 111.143 50.5836 113.663V113.759C50.5836 116.279 49.3956 118.055 47.5356 118.055ZM47.5476 117.239C48.8316 117.239 49.6596 115.799 49.6596 113.783V113.687C49.6596 111.671 48.8076 110.207 47.5356 110.207C46.2516 110.207 45.4236 111.647 45.4236 113.663V113.759C45.4236 115.775 46.2636 117.239 47.5476 117.239ZM54.9184 118.055C53.0464 118.055 51.8824 116.303 51.8824 113.783V113.687C51.8824 111.167 53.0704 109.391 54.9304 109.391C56.7904 109.391 57.9664 111.143 57.9664 113.663V113.759C57.9664 116.279 56.7784 118.055 54.9184 118.055ZM54.9304 117.239C56.2144 117.239 57.0424 115.799 57.0424 113.783V113.687C57.0424 111.671 56.1904 110.207 54.9184 110.207C53.6344 110.207 52.8064 111.647 52.8064 113.663V113.759C52.8064 115.775 53.6464 117.239 54.9304 117.239ZM62.3012 118.055C60.4292 118.055 59.2652 116.303 59.2652 113.783V113.687C59.2652 111.167 60.4532 109.391 62.3132 109.391C64.1732 109.391 65.3492 111.143 65.3492 113.663V113.759C65.3492 116.279 64.1612 118.055 62.3012 118.055ZM62.3132 117.239C63.5972 117.239 64.4252 115.799 64.4252 113.783V113.687C64.4252 111.671 63.5732 110.207 62.3012 110.207C61.0172 110.207 60.1892 111.647 60.1892 113.663V113.759C60.1892 115.775 61.0292 117.239 62.3132 117.239Z" fill="#6E7079"/>
<path d="M23.102 178.77C21.23 178.77 20.066 177.018 20.066 174.498V174.402C20.066 171.882 21.254 170.106 23.114 170.106C24.974 170.106 26.15 171.858 26.15 174.378V174.474C26.15 176.994 24.962 178.77 23.102 178.77ZM23.114 177.954C24.398 177.954 25.226 176.514 25.226 174.498V174.402C25.226 172.386 24.374 170.922 23.102 170.922C21.818 170.922 20.99 172.362 20.99 174.378V174.474C20.99 176.49 21.83 177.954 23.114 177.954ZM30.4848 178.77C28.6128 178.77 27.4488 177.018 27.4488 174.498V174.402C27.4488 171.882 28.6368 170.106 30.4968 170.106C32.3568 170.106 33.5328 171.858 33.5328 174.378V174.474C33.5328 176.994 32.3448 178.77 30.4848 178.77ZM30.4968 177.954C31.7808 177.954 32.6088 176.514 32.6088 174.498V174.402C32.6088 172.386 31.7568 170.922 30.4848 170.922C29.2008 170.922 28.3728 172.362 28.3728 174.378V174.474C28.3728 176.49 29.2128 177.954 30.4968 177.954ZM37.8676 178.77C35.9956 178.77 34.8316 177.018 34.8316 174.498V174.402C34.8316 171.882 36.0196 170.106 37.8796 170.106C39.7396 170.106 40.9156 171.858 40.9156 174.378V174.474C40.9156 176.994 39.7276 178.77 37.8676 178.77ZM37.8796 177.954C39.1636 177.954 39.9916 176.514 39.9916 174.498V174.402C39.9916 172.386 39.1396 170.922 37.8676 170.922C36.5836 170.922 35.7556 172.362 35.7556 174.378V174.474C35.7556 176.49 36.5956 177.954 37.8796 177.954ZM41.9789 180.09L41.8349 179.682C42.4229 179.466 42.6509 179.142 42.6149 178.638H42.1709V177.402H43.2509V178.458C43.2509 179.406 42.8549 179.862 41.9789 180.09ZM47.5356 178.77C45.6636 178.77 44.4996 177.018 44.4996 174.498V174.402C44.4996 171.882 45.6876 170.106 47.5476 170.106C49.4076 170.106 50.5836 171.858 50.5836 174.378V174.474C50.5836 176.994 49.3956 178.77 47.5356 178.77ZM47.5476 177.954C48.8316 177.954 49.6596 176.514 49.6596 174.498V174.402C49.6596 172.386 48.8076 170.922 47.5356 170.922C46.2516 170.922 45.4236 172.362 45.4236 174.378V174.474C45.4236 176.49 46.2636 177.954 47.5476 177.954ZM54.9184 178.77C53.0464 178.77 51.8824 177.018 51.8824 174.498V174.402C51.8824 171.882 53.0704 170.106 54.9304 170.106C56.7904 170.106 57.9664 171.858 57.9664 174.378V174.474C57.9664 176.994 56.7784 178.77 54.9184 178.77ZM54.9304 177.954C56.2144 177.954 57.0424 176.514 57.0424 174.498V174.402C57.0424 172.386 56.1904 170.922 54.9184 170.922C53.6344 170.922 52.8064 172.362 52.8064 174.378V174.474C52.8064 176.49 53.6464 177.954 54.9304 177.954ZM62.3012 178.77C60.4292 178.77 59.2652 177.018 59.2652 174.498V174.402C59.2652 171.882 60.4532 170.106 62.3132 170.106C64.1732 170.106 65.3492 171.858 65.3492 174.378V174.474C65.3492 176.994 64.1612 178.77 62.3012 178.77ZM62.3132 177.954C63.5972 177.954 64.4252 176.514 64.4252 174.498V174.402C64.4252 172.386 63.5732 170.922 62.3012 170.922C61.0172 170.922 60.1892 172.362 60.1892 174.378V174.474C60.1892 176.49 61.0292 177.954 62.3132 177.954Z" fill="#6E7079"/>
<path d="M23.102 239.484C21.23 239.484 20.066 237.732 20.066 235.212V235.116C20.066 232.596 21.254 230.82 23.114 230.82C24.974 230.82 26.15 232.572 26.15 235.092V235.188C26.15 237.708 24.962 239.484 23.102 239.484ZM23.114 238.668C24.398 238.668 25.226 237.228 25.226 235.212V235.116C25.226 233.1 24.374 231.636 23.102 231.636C21.818 231.636 20.99 233.076 20.99 235.092V235.188C20.99 237.204 21.83 238.668 23.114 238.668ZM30.4848 239.484C28.6128 239.484 27.4488 237.732 27.4488 235.212V235.116C27.4488 232.596 28.6368 230.82 30.4968 230.82C32.3568 230.82 33.5328 232.572 33.5328 235.092V235.188C33.5328 237.708 32.3448 239.484 30.4848 239.484ZM30.4968 238.668C31.7808 238.668 32.6088 237.228 32.6088 235.212V235.116C32.6088 233.1 31.7568 231.636 30.4848 231.636C29.2008 231.636 28.3728 233.076 28.3728 235.092V235.188C28.3728 237.204 29.2128 238.668 30.4968 238.668ZM37.8676 239.484C35.9956 239.484 34.8316 237.732 34.8316 235.212V235.116C34.8316 232.596 36.0196 230.82 37.8796 230.82C39.7396 230.82 40.9156 232.572 40.9156 235.092V235.188C40.9156 237.708 39.7276 239.484 37.8676 239.484ZM37.8796 238.668C39.1636 238.668 39.9916 237.228 39.9916 235.212V235.116C39.9916 233.1 39.1396 231.636 37.8676 231.636C36.5836 231.636 35.7556 233.076 35.7556 235.092V235.188C35.7556 237.204 36.5956 238.668 37.8796 238.668ZM41.9789 240.804L41.8349 240.396C42.4229 240.18 42.6509 239.856 42.6149 239.352H42.1709V238.116H43.2509V239.172C43.2509 240.12 42.8549 240.576 41.9789 240.804ZM47.5356 239.484C45.6636 239.484 44.4996 237.732 44.4996 235.212V235.116C44.4996 232.596 45.6876 230.82 47.5476 230.82C49.4076 230.82 50.5836 232.572 50.5836 235.092V235.188C50.5836 237.708 49.3956 239.484 47.5356 239.484ZM47.5476 238.668C48.8316 238.668 49.6596 237.228 49.6596 235.212V235.116C49.6596 233.1 48.8076 231.636 47.5356 231.636C46.2516 231.636 45.4236 233.076 45.4236 235.092V235.188C45.4236 237.204 46.2636 238.668 47.5476 238.668ZM54.9184 239.484C53.0464 239.484 51.8824 237.732 51.8824 235.212V235.116C51.8824 232.596 53.0704 230.82 54.9304 230.82C56.7904 230.82 57.9664 232.572 57.9664 235.092V235.188C57.9664 237.708 56.7784 239.484 54.9184 239.484ZM54.9304 238.668C56.2144 238.668 57.0424 237.228 57.0424 235.212V235.116C57.0424 233.1 56.1904 231.636 54.9184 231.636C53.6344 231.636 52.8064 233.076 52.8064 235.092V235.188C52.8064 237.204 53.6464 238.668 54.9304 238.668ZM62.3012 239.484C60.4292 239.484 59.2652 237.732 59.2652 235.212V235.116C59.2652 232.596 60.4532 230.82 62.3132 230.82C64.1732 230.82 65.3492 232.572 65.3492 235.092V235.188C65.3492 237.708 64.1612 239.484 62.3012 239.484ZM62.3132 238.668C63.5972 238.668 64.4252 237.228 64.4252 235.212V235.116C64.4252 233.1 63.5732 231.636 62.3012 231.636C61.0172 231.636 60.1892 233.076 60.1892 235.092V235.188C60.1892 237.204 61.0292 238.668 62.3132 238.668Z" fill="#6E7079"/>
<path d="M23.102 300.198C21.23 300.198 20.066 298.446 20.066 295.926V295.83C20.066 293.31 21.254 291.534 23.114 291.534C24.974 291.534 26.15 293.286 26.15 295.806V295.902C26.15 298.422 24.962 300.198 23.102 300.198ZM23.114 299.382C24.398 299.382 25.226 297.942 25.226 295.926V295.83C25.226 293.814 24.374 292.35 23.102 292.35C21.818 292.35 20.99 293.79 20.99 295.806V295.902C20.99 297.918 21.83 299.382 23.114 299.382ZM30.4848 300.198C28.6128 300.198 27.4488 298.446 27.4488 295.926V295.83C27.4488 293.31 28.6368 291.534 30.4968 291.534C32.3568 291.534 33.5328 293.286 33.5328 295.806V295.902C33.5328 298.422 32.3448 300.198 30.4848 300.198ZM30.4968 299.382C31.7808 299.382 32.6088 297.942 32.6088 295.926V295.83C32.6088 293.814 31.7568 292.35 30.4848 292.35C29.2008 292.35 28.3728 293.79 28.3728 295.806V295.902C28.3728 297.918 29.2128 299.382 30.4968 299.382ZM37.8676 300.198C35.9956 300.198 34.8316 298.446 34.8316 295.926V295.83C34.8316 293.31 36.0196 291.534 37.8796 291.534C39.7396 291.534 40.9156 293.286 40.9156 295.806V295.902C40.9156 298.422 39.7276 300.198 37.8676 300.198ZM37.8796 299.382C39.1636 299.382 39.9916 297.942 39.9916 295.926V295.83C39.9916 293.814 39.1396 292.35 37.8676 292.35C36.5836 292.35 35.7556 293.79 35.7556 295.806V295.902C35.7556 297.918 36.5956 299.382 37.8796 299.382ZM41.9789 301.518L41.8349 301.11C42.4229 300.894 42.6509 300.57 42.6149 300.066H42.1709V298.83H43.2509V299.886C43.2509 300.834 42.8549 301.29 41.9789 301.518ZM47.5356 300.198C45.6636 300.198 44.4996 298.446 44.4996 295.926V295.83C44.4996 293.31 45.6876 291.534 47.5476 291.534C49.4076 291.534 50.5836 293.286 50.5836 295.806V295.902C50.5836 298.422 49.3956 300.198 47.5356 300.198ZM47.5476 299.382C48.8316 299.382 49.6596 297.942 49.6596 295.926V295.83C49.6596 293.814 48.8076 292.35 47.5356 292.35C46.2516 292.35 45.4236 293.79 45.4236 295.806V295.902C45.4236 297.918 46.2636 299.382 47.5476 299.382ZM54.9184 300.198C53.0464 300.198 51.8824 298.446 51.8824 295.926V295.83C51.8824 293.31 53.0704 291.534 54.9304 291.534C56.7904 291.534 57.9664 293.286 57.9664 295.806V295.902C57.9664 298.422 56.7784 300.198 54.9184 300.198ZM54.9304 299.382C56.2144 299.382 57.0424 297.942 57.0424 295.926V295.83C57.0424 293.814 56.1904 292.35 54.9184 292.35C53.6344 292.35 52.8064 293.79 52.8064 295.806V295.902C52.8064 297.918 53.6464 299.382 54.9304 299.382ZM62.3012 300.198C60.4292 300.198 59.2652 298.446 59.2652 295.926V295.83C59.2652 293.31 60.4532 291.534 62.3132 291.534C64.1732 291.534 65.3492 293.286 65.3492 295.806V295.902C65.3492 298.422 64.1612 300.198 62.3012 300.198ZM62.3132 299.382C63.5972 299.382 64.4252 297.942 64.4252 295.926V295.83C64.4252 293.814 63.5732 292.35 62.3012 292.35C61.0172 292.35 60.1892 293.79 60.1892 295.806V295.902C60.1892 297.918 61.0292 299.382 62.3132 299.382Z" fill="#6E7079"/>
<path d="M23.102 360.912C21.23 360.912 20.066 359.16 20.066 356.64V356.544C20.066 354.024 21.254 352.248 23.114 352.248C24.974 352.248 26.15 354 26.15 356.52V356.616C26.15 359.136 24.962 360.912 23.102 360.912ZM23.114 360.096C24.398 360.096 25.226 358.656 25.226 356.64V356.544C25.226 354.528 24.374 353.064 23.102 353.064C21.818 353.064 20.99 354.504 20.99 356.52V356.616C20.99 358.632 21.83 360.096 23.114 360.096ZM30.4848 360.912C28.6128 360.912 27.4488 359.16 27.4488 356.64V356.544C27.4488 354.024 28.6368 352.248 30.4968 352.248C32.3568 352.248 33.5328 354 33.5328 356.52V356.616C33.5328 359.136 32.3448 360.912 30.4848 360.912ZM30.4968 360.096C31.7808 360.096 32.6088 358.656 32.6088 356.64V356.544C32.6088 354.528 31.7568 353.064 30.4848 353.064C29.2008 353.064 28.3728 354.504 28.3728 356.52V356.616C28.3728 358.632 29.2128 360.096 30.4968 360.096ZM37.8676 360.912C35.9956 360.912 34.8316 359.16 34.8316 356.64V356.544C34.8316 354.024 36.0196 352.248 37.8796 352.248C39.7396 352.248 40.9156 354 40.9156 356.52V356.616C40.9156 359.136 39.7276 360.912 37.8676 360.912ZM37.8796 360.096C39.1636 360.096 39.9916 358.656 39.9916 356.64V356.544C39.9916 354.528 39.1396 353.064 37.8676 353.064C36.5836 353.064 35.7556 354.504 35.7556 356.52V356.616C35.7556 358.632 36.5956 360.096 37.8796 360.096ZM41.9789 362.232L41.8349 361.824C42.4229 361.608 42.6509 361.284 42.6149 360.78H42.1709V359.544H43.2509V360.6C43.2509 361.548 42.8549 362.004 41.9789 362.232ZM47.5356 360.912C45.6636 360.912 44.4996 359.16 44.4996 356.64V356.544C44.4996 354.024 45.6876 352.248 47.5476 352.248C49.4076 352.248 50.5836 354 50.5836 356.52V356.616C50.5836 359.136 49.3956 360.912 47.5356 360.912ZM47.5476 360.096C48.8316 360.096 49.6596 358.656 49.6596 356.64V356.544C49.6596 354.528 48.8076 353.064 47.5356 353.064C46.2516 353.064 45.4236 354.504 45.4236 356.52V356.616C45.4236 358.632 46.2636 360.096 47.5476 360.096ZM54.9184 360.912C53.0464 360.912 51.8824 359.16 51.8824 356.64V356.544C51.8824 354.024 53.0704 352.248 54.9304 352.248C56.7904 352.248 57.9664 354 57.9664 356.52V356.616C57.9664 359.136 56.7784 360.912 54.9184 360.912ZM54.9304 360.096C56.2144 360.096 57.0424 358.656 57.0424 356.64V356.544C57.0424 354.528 56.1904 353.064 54.9184 353.064C53.6344 353.064 52.8064 354.504 52.8064 356.52V356.616C52.8064 358.632 53.6464 360.096 54.9304 360.096ZM62.3012 360.912C60.4292 360.912 59.2652 359.16 59.2652 356.64V356.544C59.2652 354.024 60.4532 352.248 62.3132 352.248C64.1732 352.248 65.3492 354 65.3492 356.52V356.616C65.3492 359.136 64.1612 360.912 62.3012 360.912ZM62.3132 360.096C63.5972 360.096 64.4252 358.656 64.4252 356.64V356.544C64.4252 354.528 63.5732 353.064 62.3012 353.064C61.0172 353.064 60.1892 354.504 60.1892 356.52V356.616C60.1892 358.632 61.0292 360.096 62.3132 360.096Z" fill="#6E7079"/>
<path d="M23.102 421.627C21.23 421.627 20.066 419.875 20.066 417.355V417.259C20.066 414.739 21.254 412.963 23.114 412.963C24.974 412.963 26.15 414.715 26.15 417.235V417.331C26.15 419.851 24.962 421.627 23.102 421.627ZM23.114 420.811C24.398 420.811 25.226 419.371 25.226 417.355V417.259C25.226 415.243 24.374 413.779 23.102 413.779C21.818 413.779 20.99 415.219 20.99 417.235V417.331C20.99 419.347 21.83 420.811 23.114 420.811ZM30.4848 421.627C28.6128 421.627 27.4488 419.875 27.4488 417.355V417.259C27.4488 414.739 28.6368 412.963 30.4968 412.963C32.3568 412.963 33.5328 414.715 33.5328 417.235V417.331C33.5328 419.851 32.3448 421.627 30.4848 421.627ZM30.4968 420.811C31.7808 420.811 32.6088 419.371 32.6088 417.355V417.259C32.6088 415.243 31.7568 413.779 30.4848 413.779C29.2008 413.779 28.3728 415.219 28.3728 417.235V417.331C28.3728 419.347 29.2128 420.811 30.4968 420.811ZM37.8676 421.627C35.9956 421.627 34.8316 419.875 34.8316 417.355V417.259C34.8316 414.739 36.0196 412.963 37.8796 412.963C39.7396 412.963 40.9156 414.715 40.9156 417.235V417.331C40.9156 419.851 39.7276 421.627 37.8676 421.627ZM37.8796 420.811C39.1636 420.811 39.9916 419.371 39.9916 417.355V417.259C39.9916 415.243 39.1396 413.779 37.8676 413.779C36.5836 413.779 35.7556 415.219 35.7556 417.235V417.331C35.7556 419.347 36.5956 420.811 37.8796 420.811ZM41.9789 422.947L41.8349 422.539C42.4229 422.323 42.6509 421.999 42.6149 421.495H42.1709V420.259H43.2509V421.315C43.2509 422.263 42.8549 422.719 41.9789 422.947ZM47.5356 421.627C45.6636 421.627 44.4996 419.875 44.4996 417.355V417.259C44.4996 414.739 45.6876 412.963 47.5476 412.963C49.4076 412.963 50.5836 414.715 50.5836 417.235V417.331C50.5836 419.851 49.3956 421.627 47.5356 421.627ZM47.5476 420.811C48.8316 420.811 49.6596 419.371 49.6596 417.355V417.259C49.6596 415.243 48.8076 413.779 47.5356 413.779C46.2516 413.779 45.4236 415.219 45.4236 417.235V417.331C45.4236 419.347 46.2636 420.811 47.5476 420.811ZM54.9184 421.627C53.0464 421.627 51.8824 419.875 51.8824 417.355V417.259C51.8824 414.739 53.0704 412.963 54.9304 412.963C56.7904 412.963 57.9664 414.715 57.9664 417.235V417.331C57.9664 419.851 56.7784 421.627 54.9184 421.627ZM54.9304 420.811C56.2144 420.811 57.0424 419.371 57.0424 417.355V417.259C57.0424 415.243 56.1904 413.779 54.9184 413.779C53.6344 413.779 52.8064 415.219 52.8064 417.235V417.331C52.8064 419.347 53.6464 420.811 54.9304 420.811ZM62.3012 421.627C60.4292 421.627 59.2652 419.875 59.2652 417.355V417.259C59.2652 414.739 60.4532 412.963 62.3132 412.963C64.1732 412.963 65.3492 414.715 65.3492 417.235V417.331C65.3492 419.851 64.1612 421.627 62.3012 421.627ZM62.3132 420.811C63.5972 420.811 64.4252 419.371 64.4252 417.355V417.259C64.4252 415.243 63.5732 413.779 62.3012 413.779C61.0172 413.779 60.1892 415.219 60.1892 417.235V417.331C60.1892 419.347 61.0292 420.811 62.3132 420.811Z" fill="#6E7079"/>
<path d="M62.3012 482.341C60.4292 482.341 59.2652 480.589 59.2652 478.069V477.973C59.2652 475.453 60.4532 473.677 62.3132 473.677C64.1732 473.677 65.3492 475.429 65.3492 477.949V478.045C65.3492 480.565 64.1612 482.341 62.3012 482.341ZM62.3132 481.525C63.5972 481.525 64.4252 480.085 64.4252 478.069V477.973C64.4252 475.957 63.5732 474.493 62.3012 474.493C61.0172 474.493 60.1892 475.933 60.1892 477.949V478.045C60.1892 480.061 61.0292 481.525 62.3132 481.525Z" fill="#6E7079"/>
<path d="M75 482.281L75 47.2805" stroke="#E0E6F1"/>
<path d="M195.571 482.281L195.571 47.2805" stroke="#E0E6F1"/>
<path d="M316.143 482.281L316.143 47.2805" stroke="#E0E6F1"/>
<path d="M436.714 482.281L436.714 47.2805" stroke="#E0E6F1"/>
<path d="M557.286 482.281V47.2805" stroke="#E0E6F1"/>
<path d="M677.857 482.281V47.2805" stroke="#E0E6F1"/>
<path d="M798.428 482.281V47.2805" stroke="#E0E6F1"/>
<path d="M75 47.4235H919" stroke="#E0E6F1"/>
<path d="M75 109.566H919" stroke="#E0E6F1"/>
<path d="M75 171.709H919" stroke="#E0E6F1"/>
<path d="M75 233.852H919" stroke="#E0E6F1"/>
<path d="M75 295.995H919" stroke="#E0E6F1"/>
<path d="M75 358.138H919" stroke="#E0E6F1"/>
<path d="M75 420.281H919" stroke="#E0E6F1"/>
<path d="M75 482.423H919" stroke="#6E7079" stroke-linecap="round"/>
<path d="M75 482.423V486.138" stroke="#6E7079"/>
<path d="M177.429 482.423V486.138" stroke="#6E7079"/>
<path d="M158.113 497.258C157.033 497.258 156.073 496.886 155.197 496.07L155.761 495.386C156.457 496.034 157.177 496.43 158.125 496.43C159.133 496.43 159.805 495.818 159.805 495.014V495.002C159.805 494.306 159.469 493.862 157.945 493.322C156.205 492.674 155.521 492.05 155.521 490.862V490.838C155.521 489.578 156.577 488.618 158.053 488.618C159.025 488.618 159.829 488.918 160.573 489.566L160.033 490.262C159.409 489.722 158.749 489.446 158.017 489.446C157.057 489.446 156.433 490.034 156.433 490.754V490.778C156.433 491.51 156.805 491.93 158.389 492.506C160.093 493.142 160.717 493.826 160.717 494.942V494.966C160.717 496.31 159.613 497.258 158.113 497.258ZM164.639 497.27C163.115 497.27 161.867 496.046 161.867 494.066V494.006C161.867 492.098 162.983 490.766 164.447 490.766C166.019 490.766 166.955 492.11 166.955 493.994C166.955 494.078 166.955 494.246 166.943 494.354H162.743C162.839 495.734 163.691 496.502 164.675 496.502C165.359 496.502 165.863 496.214 166.295 495.782L166.787 496.334C166.223 496.91 165.575 497.27 164.639 497.27ZM162.743 493.682H166.091C166.031 492.494 165.467 491.522 164.447 491.522C163.523 491.522 162.827 492.374 162.743 493.682ZM170.768 497.27C169.196 497.27 168.008 495.974 168.008 494.078V493.994C168.008 492.098 169.232 490.766 170.792 490.766C171.68 490.766 172.28 491.138 172.76 491.618L172.244 492.266C171.872 491.894 171.428 491.558 170.78 491.558C169.736 491.558 168.896 492.542 168.896 493.994V494.054C168.896 495.53 169.76 496.478 170.816 496.478C171.428 496.478 171.884 496.166 172.28 495.758L172.784 496.334C172.316 496.862 171.692 497.27 170.768 497.27ZM175.875 497.234C174.987 497.234 174.315 496.802 174.315 495.686V491.654H173.559V490.886H174.315V489.062H175.179V490.886H176.811V491.654H175.179V495.542C175.179 496.202 175.539 496.442 176.079 496.442C176.319 496.442 176.559 496.382 176.811 496.274V497.018C176.535 497.15 176.235 497.234 175.875 497.234ZM178.223 489.602V488.582H179.183V489.602H178.223ZM178.271 497.138V490.886H179.135V497.138H178.271ZM183.424 497.27C181.816 497.27 180.652 495.89 180.652 494.066V493.982C180.652 492.158 181.828 490.766 183.436 490.766C185.044 490.766 186.208 492.146 186.208 493.97V494.042C186.208 495.866 185.032 497.27 183.424 497.27ZM183.436 496.49C184.54 496.49 185.332 495.434 185.332 494.054V493.994C185.332 492.59 184.492 491.546 183.424 491.546C182.32 491.546 181.54 492.59 181.54 493.982V494.042C181.54 495.446 182.368 496.49 183.436 496.49ZM187.645 497.138V490.886H188.509V491.906C188.857 491.282 189.421 490.766 190.357 490.766C191.629 490.766 192.397 491.642 192.397 493.046V497.138H191.533V493.286C191.533 492.17 191.005 491.546 190.093 491.546C189.181 491.546 188.509 492.266 188.509 493.334V497.138H187.645ZM198.143 497.138V489.65L196.775 490.13L196.619 489.35L198.359 488.69H199.031V497.138H198.143Z" fill="#6E7079"/>
<path d="M303.857 482.423V486.138" stroke="#6E7079"/>
<path d="M283.323 497.258C282.243 497.258 281.283 496.886 280.407 496.07L280.971 495.386C281.667 496.034 282.387 496.43 283.335 496.43C284.343 496.43 285.015 495.818 285.015 495.014V495.002C285.015 494.306 284.679 493.862 283.155 493.322C281.415 492.674 280.731 492.05 280.731 490.862V490.838C280.731 489.578 281.787 488.618 283.263 488.618C284.235 488.618 285.039 488.918 285.783 489.566L285.243 490.262C284.619 489.722 283.959 489.446 283.227 489.446C282.267 489.446 281.643 490.034 281.643 490.754V490.778C281.643 491.51 282.015 491.93 283.599 492.506C285.303 493.142 285.927 493.826 285.927 494.942V494.966C285.927 496.31 284.823 497.258 283.323 497.258ZM289.849 497.27C288.325 497.27 287.077 496.046 287.077 494.066V494.006C287.077 492.098 288.193 490.766 289.657 490.766C291.229 490.766 292.165 492.11 292.165 493.994C292.165 494.078 292.165 494.246 292.153 494.354H287.953C288.049 495.734 288.901 496.502 289.885 496.502C290.569 496.502 291.073 496.214 291.505 495.782L291.997 496.334C291.433 496.91 290.785 497.27 289.849 497.27ZM287.953 493.682H291.301C291.241 492.494 290.677 491.522 289.657 491.522C288.733 491.522 288.037 492.374 287.953 493.682ZM295.978 497.27C294.406 497.27 293.218 495.974 293.218 494.078V493.994C293.218 492.098 294.442 490.766 296.002 490.766C296.89 490.766 297.49 491.138 297.97 491.618L297.454 492.266C297.082 491.894 296.638 491.558 295.99 491.558C294.946 491.558 294.106 492.542 294.106 493.994V494.054C294.106 495.53 294.97 496.478 296.026 496.478C296.638 496.478 297.094 496.166 297.49 495.758L297.994 496.334C297.526 496.862 296.902 497.27 295.978 497.27ZM301.085 497.234C300.197 497.234 299.525 496.802 299.525 495.686V491.654H298.769V490.886H299.525V489.062H300.389V490.886H302.021V491.654H300.389V495.542C300.389 496.202 300.749 496.442 301.289 496.442C301.529 496.442 301.769 496.382 302.021 496.274V497.018C301.745 497.15 301.445 497.234 301.085 497.234ZM303.433 489.602V488.582H304.393V489.602H303.433ZM303.481 497.138V490.886H304.345V497.138H303.481ZM308.634 497.27C307.026 497.27 305.862 495.89 305.862 494.066V493.982C305.862 492.158 307.038 490.766 308.646 490.766C310.254 490.766 311.418 492.146 311.418 493.97V494.042C311.418 495.866 310.242 497.27 308.634 497.27ZM308.646 496.49C309.75 496.49 310.542 495.434 310.542 494.054V493.994C310.542 492.59 309.702 491.546 308.634 491.546C307.53 491.546 306.75 492.59 306.75 493.982V494.042C306.75 495.446 307.578 496.49 308.646 496.49ZM312.855 497.138V490.886H313.719V491.906C314.067 491.282 314.631 490.766 315.567 490.766C316.839 490.766 317.607 491.642 317.607 493.046V497.138H316.743V493.286C316.743 492.17 316.215 491.546 315.303 491.546C314.391 491.546 313.719 492.266 313.719 493.334V497.138H312.855ZM322.021 497.138V496.442L324.733 493.418C325.741 492.338 326.125 491.726 326.125 490.946C326.125 490.022 325.453 489.446 324.613 489.446C323.845 489.446 323.293 489.854 322.729 490.646L322.105 490.118C322.729 489.182 323.497 488.618 324.697 488.618C326.065 488.618 327.061 489.542 327.061 490.862V490.898C327.061 491.978 326.545 492.686 325.369 493.922L323.269 496.298H327.121V497.138H322.021Z" fill="#6E7079"/>
<path d="M431.286 482.423V486.138" stroke="#6E7079"/>
<path d="M410.728 497.258C409.648 497.258 408.688 496.886 407.812 496.07L408.376 495.386C409.072 496.034 409.792 496.43 410.74 496.43C411.748 496.43 412.42 495.818 412.42 495.014V495.002C412.42 494.306 412.084 493.862 410.56 493.322C408.82 492.674 408.136 492.05 408.136 490.862V490.838C408.136 489.578 409.192 488.618 410.668 488.618C411.64 488.618 412.444 488.918 413.188 489.566L412.648 490.262C412.024 489.722 411.364 489.446 410.632 489.446C409.672 489.446 409.048 490.034 409.048 490.754V490.778C409.048 491.51 409.42 491.93 411.004 492.506C412.708 493.142 413.332 493.826 413.332 494.942V494.966C413.332 496.31 412.228 497.258 410.728 497.258ZM417.254 497.27C415.73 497.27 414.482 496.046 414.482 494.066V494.006C414.482 492.098 415.598 490.766 417.062 490.766C418.634 490.766 419.57 492.11 419.57 493.994C419.57 494.078 419.57 494.246 419.558 494.354H415.358C415.454 495.734 416.306 496.502 417.29 496.502C417.974 496.502 418.478 496.214 418.91 495.782L419.402 496.334C418.838 496.91 418.19 497.27 417.254 497.27ZM415.358 493.682H418.706C418.646 492.494 418.082 491.522 417.062 491.522C416.138 491.522 415.442 492.374 415.358 493.682ZM423.383 497.27C421.811 497.27 420.623 495.974 420.623 494.078V493.994C420.623 492.098 421.847 490.766 423.407 490.766C424.295 490.766 424.895 491.138 425.375 491.618L424.859 492.266C424.487 491.894 424.043 491.558 423.395 491.558C422.351 491.558 421.511 492.542 421.511 493.994V494.054C421.511 495.53 422.375 496.478 423.431 496.478C424.043 496.478 424.499 496.166 424.895 495.758L425.399 496.334C424.931 496.862 424.307 497.27 423.383 497.27ZM428.49 497.234C427.602 497.234 426.93 496.802 426.93 495.686V491.654H426.174V490.886H426.93V489.062H427.794V490.886H429.426V491.654H427.794V495.542C427.794 496.202 428.154 496.442 428.694 496.442C428.934 496.442 429.174 496.382 429.426 496.274V497.018C429.15 497.15 428.85 497.234 428.49 497.234ZM430.838 489.602V488.582H431.798V489.602H430.838ZM430.886 497.138V490.886H431.75V497.138H430.886ZM436.039 497.27C434.431 497.27 433.267 495.89 433.267 494.066V493.982C433.267 492.158 434.443 490.766 436.051 490.766C437.659 490.766 438.823 492.146 438.823 493.97V494.042C438.823 495.866 437.647 497.27 436.039 497.27ZM436.051 496.49C437.155 496.49 437.947 495.434 437.947 494.054V493.994C437.947 492.59 437.107 491.546 436.039 491.546C434.935 491.546 434.155 492.59 434.155 493.982V494.042C434.155 495.446 434.983 496.49 436.051 496.49ZM440.26 497.138V490.886H441.124V491.906C441.472 491.282 442.036 490.766 442.972 490.766C444.244 490.766 445.012 491.642 445.012 493.046V497.138H444.148V493.286C444.148 492.17 443.62 491.546 442.708 491.546C441.796 491.546 441.124 492.266 441.124 493.334V497.138H440.26ZM451.922 497.27C450.794 497.27 449.942 496.79 449.366 496.118L449.942 495.494C450.446 496.07 451.058 496.442 451.922 496.442C452.87 496.442 453.626 495.782 453.626 494.762V494.726C453.626 493.646 452.702 493.094 451.394 493.094H451.082L450.95 492.53L453.278 489.566H449.714V488.738H454.43V489.41L452.078 492.374C453.374 492.518 454.538 493.214 454.538 494.69V494.726C454.538 496.25 453.374 497.27 451.922 497.27Z" fill="#6E7079"/>
<path d="M559.214 482.423V486.138" stroke="#6E7079"/>
<path d="M538.34 497.258C537.26 497.258 536.3 496.886 535.424 496.07L535.988 495.386C536.684 496.034 537.404 496.43 538.352 496.43C539.36 496.43 540.032 495.818 540.032 495.014V495.002C540.032 494.306 539.696 493.862 538.172 493.322C536.432 492.674 535.748 492.05 535.748 490.862V490.838C535.748 489.578 536.804 488.618 538.28 488.618C539.252 488.618 540.056 488.918 540.8 489.566L540.26 490.262C539.636 489.722 538.976 489.446 538.244 489.446C537.284 489.446 536.66 490.034 536.66 490.754V490.778C536.66 491.51 537.032 491.93 538.616 492.506C540.32 493.142 540.944 493.826 540.944 494.942V494.966C540.944 496.31 539.84 497.258 538.34 497.258ZM544.866 497.27C543.342 497.27 542.094 496.046 542.094 494.066V494.006C542.094 492.098 543.21 490.766 544.674 490.766C546.246 490.766 547.182 492.11 547.182 493.994C547.182 494.078 547.182 494.246 547.17 494.354H542.97C543.066 495.734 543.918 496.502 544.902 496.502C545.586 496.502 546.09 496.214 546.522 495.782L547.014 496.334C546.45 496.91 545.802 497.27 544.866 497.27ZM542.97 493.682H546.318C546.258 492.494 545.694 491.522 544.674 491.522C543.75 491.522 543.054 492.374 542.97 493.682ZM550.995 497.27C549.423 497.27 548.235 495.974 548.235 494.078V493.994C548.235 492.098 549.459 490.766 551.019 490.766C551.907 490.766 552.507 491.138 552.987 491.618L552.471 492.266C552.099 491.894 551.655 491.558 551.007 491.558C549.963 491.558 549.123 492.542 549.123 493.994V494.054C549.123 495.53 549.987 496.478 551.043 496.478C551.655 496.478 552.111 496.166 552.507 495.758L553.011 496.334C552.543 496.862 551.919 497.27 550.995 497.27ZM556.102 497.234C555.214 497.234 554.542 496.802 554.542 495.686V491.654H553.786V490.886H554.542V489.062H555.406V490.886H557.038V491.654H555.406V495.542C555.406 496.202 555.766 496.442 556.306 496.442C556.546 496.442 556.786 496.382 557.038 496.274V497.018C556.762 497.15 556.462 497.234 556.102 497.234ZM558.451 489.602V488.582H559.411V489.602H558.451ZM558.499 497.138V490.886H559.363V497.138H558.499ZM563.652 497.27C562.044 497.27 560.88 495.89 560.88 494.066V493.982C560.88 492.158 562.056 490.766 563.664 490.766C565.272 490.766 566.436 492.146 566.436 493.97V494.042C566.436 495.866 565.26 497.27 563.652 497.27ZM563.664 496.49C564.768 496.49 565.56 495.434 565.56 494.054V493.994C565.56 492.59 564.72 491.546 563.652 491.546C562.548 491.546 561.768 492.59 561.768 493.982V494.042C561.768 495.446 562.596 496.49 563.664 496.49ZM567.872 497.138V490.886H568.736V491.906C569.084 491.282 569.648 490.766 570.584 490.766C571.856 490.766 572.624 491.642 572.624 493.046V497.138H571.76V493.286C571.76 492.17 571.232 491.546 570.32 491.546C569.408 491.546 568.736 492.266 568.736 493.334V497.138H567.872ZM580.975 497.138V495.194H577.123L576.955 494.534L581.035 488.678H581.827V494.438H582.943V495.194H581.827V497.138H580.975ZM577.975 494.438H580.975V490.094L577.975 494.438Z" fill="#6E7079"/>
<path d="M687.143 482.423V486.138" stroke="#6E7079"/>
<path d="M666.556 497.258C665.476 497.258 664.516 496.886 663.64 496.07L664.204 495.386C664.9 496.034 665.62 496.43 666.568 496.43C667.576 496.43 668.248 495.818 668.248 495.014V495.002C668.248 494.306 667.912 493.862 666.388 493.322C664.648 492.674 663.964 492.05 663.964 490.862V490.838C663.964 489.578 665.02 488.618 666.496 488.618C667.468 488.618 668.272 488.918 669.016 489.566L668.476 490.262C667.852 489.722 667.192 489.446 666.46 489.446C665.5 489.446 664.876 490.034 664.876 490.754V490.778C664.876 491.51 665.248 491.93 666.832 492.506C668.536 493.142 669.16 493.826 669.16 494.942V494.966C669.16 496.31 668.056 497.258 666.556 497.258ZM673.082 497.27C671.558 497.27 670.31 496.046 670.31 494.066V494.006C670.31 492.098 671.426 490.766 672.89 490.766C674.462 490.766 675.398 492.11 675.398 493.994C675.398 494.078 675.398 494.246 675.386 494.354H671.186C671.282 495.734 672.134 496.502 673.118 496.502C673.802 496.502 674.306 496.214 674.738 495.782L675.23 496.334C674.666 496.91 674.018 497.27 673.082 497.27ZM671.186 493.682H674.534C674.474 492.494 673.91 491.522 672.89 491.522C671.966 491.522 671.27 492.374 671.186 493.682ZM679.211 497.27C677.639 497.27 676.451 495.974 676.451 494.078V493.994C676.451 492.098 677.675 490.766 679.235 490.766C680.123 490.766 680.723 491.138 681.203 491.618L680.687 492.266C680.315 491.894 679.871 491.558 679.223 491.558C678.179 491.558 677.339 492.542 677.339 493.994V494.054C677.339 495.53 678.203 496.478 679.259 496.478C679.871 496.478 680.327 496.166 680.723 495.758L681.227 496.334C680.759 496.862 680.135 497.27 679.211 497.27ZM684.318 497.234C683.43 497.234 682.758 496.802 682.758 495.686V491.654H682.002V490.886H682.758V489.062H683.622V490.886H685.254V491.654H683.622V495.542C683.622 496.202 683.982 496.442 684.522 496.442C684.762 496.442 685.002 496.382 685.254 496.274V497.018C684.978 497.15 684.678 497.234 684.318 497.234ZM686.666 489.602V488.582H687.626V489.602H686.666ZM686.714 497.138V490.886H687.578V497.138H686.714ZM691.867 497.27C690.259 497.27 689.095 495.89 689.095 494.066V493.982C689.095 492.158 690.271 490.766 691.879 490.766C693.487 490.766 694.651 492.146 694.651 493.97V494.042C694.651 495.866 693.475 497.27 691.867 497.27ZM691.879 496.49C692.983 496.49 693.775 495.434 693.775 494.054V493.994C693.775 492.59 692.935 491.546 691.867 491.546C690.763 491.546 689.983 492.59 689.983 493.982V494.042C689.983 495.446 690.811 496.49 691.879 496.49ZM696.087 497.138V490.886H696.951V491.906C697.299 491.282 697.863 490.766 698.799 490.766C700.071 490.766 700.839 491.642 700.839 493.046V497.138H699.975V493.286C699.975 492.17 699.447 491.546 698.535 491.546C697.623 491.546 696.951 492.266 696.951 493.334V497.138H696.087ZM707.738 497.27C706.766 497.27 705.902 496.826 705.278 496.226L705.818 495.554C706.382 496.082 707.03 496.442 707.75 496.442C708.818 496.442 709.574 495.662 709.574 494.558V494.522C709.574 493.418 708.794 492.77 707.75 492.77C707.15 492.77 706.694 492.938 706.286 493.154L705.71 492.758L705.926 488.738H710.126V489.578H706.706L706.538 492.254C706.934 492.086 707.33 491.954 707.894 491.954C709.322 491.954 710.486 492.842 710.486 494.486V494.522C710.486 496.154 709.322 497.27 707.738 497.27Z" fill="#6E7079"/>
<path d="M815.072 482.423V486.138" stroke="#6E7079"/>
<path d="M794.285 497.258C793.205 497.258 792.245 496.886 791.369 496.07L791.933 495.386C792.629 496.034 793.349 496.43 794.297 496.43C795.305 496.43 795.977 495.818 795.977 495.014V495.002C795.977 494.306 795.641 493.862 794.117 493.322C792.377 492.674 791.693 492.05 791.693 490.862V490.838C791.693 489.578 792.749 488.618 794.225 488.618C795.197 488.618 796.001 488.918 796.745 489.566L796.205 490.262C795.581 489.722 794.921 489.446 794.189 489.446C793.229 489.446 792.605 490.034 792.605 490.754V490.778C792.605 491.51 792.977 491.93 794.561 492.506C796.265 493.142 796.889 493.826 796.889 494.942V494.966C796.889 496.31 795.785 497.258 794.285 497.258ZM800.812 497.27C799.288 497.27 798.04 496.046 798.04 494.066V494.006C798.04 492.098 799.156 490.766 800.62 490.766C802.192 490.766 803.128 492.11 803.128 493.994C803.128 494.078 803.128 494.246 803.116 494.354H798.916C799.012 495.734 799.864 496.502 800.848 496.502C801.532 496.502 802.036 496.214 802.468 495.782L802.96 496.334C802.396 496.91 801.748 497.27 800.812 497.27ZM798.916 493.682H802.264C802.204 492.494 801.64 491.522 800.62 491.522C799.696 491.522 799 492.374 798.916 493.682ZM806.94 497.27C805.368 497.27 804.18 495.974 804.18 494.078V493.994C804.18 492.098 805.404 490.766 806.964 490.766C807.852 490.766 808.452 491.138 808.932 491.618L808.416 492.266C808.044 491.894 807.6 491.558 806.952 491.558C805.908 491.558 805.068 492.542 805.068 493.994V494.054C805.068 495.53 805.932 496.478 806.988 496.478C807.6 496.478 808.056 496.166 808.452 495.758L808.956 496.334C808.488 496.862 807.864 497.27 806.94 497.27ZM812.047 497.234C811.159 497.234 810.487 496.802 810.487 495.686V491.654H809.731V490.886H810.487V489.062H811.351V490.886H812.983V491.654H811.351V495.542C811.351 496.202 811.711 496.442 812.251 496.442C812.491 496.442 812.731 496.382 812.983 496.274V497.018C812.707 497.15 812.407 497.234 812.047 497.234ZM814.396 489.602V488.582H815.356V489.602H814.396ZM814.444 497.138V490.886H815.308V497.138H814.444ZM819.597 497.27C817.989 497.27 816.825 495.89 816.825 494.066V493.982C816.825 492.158 818.001 490.766 819.609 490.766C821.217 490.766 822.381 492.146 822.381 493.97V494.042C822.381 495.866 821.205 497.27 819.597 497.27ZM819.609 496.49C820.713 496.49 821.505 495.434 821.505 494.054V493.994C821.505 492.59 820.665 491.546 819.597 491.546C818.493 491.546 817.713 492.59 817.713 493.982V494.042C817.713 495.446 818.541 496.49 819.609 496.49ZM823.817 497.138V490.886H824.681V491.906C825.029 491.282 825.593 490.766 826.529 490.766C827.801 490.766 828.569 491.642 828.569 493.046V497.138H827.705V493.286C827.705 492.17 827.177 491.546 826.265 491.546C825.353 491.546 824.681 492.266 824.681 493.334V497.138H823.817ZM835.948 497.27C835.192 497.27 834.556 497.006 834.1 496.55C833.488 495.926 833.128 495.05 833.128 493.274V493.178C833.128 490.394 834.316 488.606 836.236 488.606C837.04 488.606 837.652 488.882 838.264 489.362L837.784 490.082C837.328 489.698 836.836 489.434 836.2 489.434C834.808 489.434 834.04 490.97 834.028 493.022C834.472 492.314 835.168 491.882 836.068 491.882C837.424 491.882 838.6 492.818 838.6 494.45V494.474C838.6 496.106 837.436 497.27 835.948 497.27ZM835.96 496.466C837.016 496.466 837.688 495.602 837.688 494.51V494.486C837.688 493.382 836.968 492.662 835.948 492.662C834.904 492.662 834.16 493.454 834.16 494.498V494.522C834.16 495.626 834.88 496.466 835.96 496.466Z" fill="#6E7079"/>
<path d="M472.756 507.738H474.688L472.288 511.842L474.784 516.138H472.804L471.268 513.258L469.72 516.138H467.788L470.272 511.866L467.896 507.738H469.876L471.304 510.462L472.756 507.738ZM475.084 513.246V511.59H478.6V513.246H475.084ZM478.954 516.138L481.966 507.69H483.622L486.634 516.138H484.834L484.21 514.314H481.318L480.706 516.138H478.954ZM481.846 512.778H483.682L482.77 510.042L481.846 512.778ZM488.912 509.706L489.92 511.59L490.94 509.706H492.704L490.844 512.838L492.776 516.138H490.964L489.896 514.134L488.816 516.138H487.04L488.96 512.862L487.112 509.706H488.912ZM493.696 509.022V507.474H495.472V509.022H493.696ZM493.732 516.138V509.706H495.436V516.138H493.732ZM498.816 516.258C498.06 516.258 497.16 516.006 496.38 515.37L497.124 514.17C497.7 514.614 498.312 514.89 498.84 514.89C499.32 514.89 499.524 514.662 499.524 514.398V514.374C499.524 514.002 499.044 513.846 498.348 513.546C497.436 513.15 496.656 512.694 496.656 511.602V511.578C496.656 510.342 497.616 509.61 498.864 509.61C499.56 509.61 500.34 509.85 500.988 510.306L500.304 511.53C499.824 511.218 499.296 510.978 498.84 510.978C498.432 510.978 498.216 511.182 498.216 511.434V511.458C498.216 511.794 498.696 511.986 499.38 512.298C500.316 512.742 501.084 513.21 501.084 514.23V514.254C501.084 515.586 500.1 516.258 498.816 516.258ZM506.785 516.246C505.801 516.246 505.081 515.862 505.081 514.53V511.146H504.433V509.706H505.081V508.062H506.785V509.706H508.057V511.146H506.785V514.182C506.785 514.554 506.953 514.734 507.313 514.734C507.577 514.734 507.829 514.662 508.045 514.554V515.91C507.709 516.102 507.301 516.246 506.785 516.246ZM509.2 509.022V507.474H510.976V509.022H509.2ZM509.236 516.138V509.706H510.94V516.138H509.236ZM514.343 516.246C513.359 516.246 512.639 515.862 512.639 514.53V511.146H511.991V509.706H512.639V508.062H514.343V509.706H515.615V511.146H514.343V514.182C514.343 514.554 514.511 514.734 514.871 514.734C515.135 514.734 515.387 514.662 515.603 514.554V515.91C515.267 516.102 514.859 516.246 514.343 516.246ZM516.795 516.138V507.474H518.499V516.138H516.795ZM522.682 516.282C520.978 516.282 519.67 514.998 519.67 512.994V512.886C519.67 510.978 520.858 509.586 522.478 509.586C524.314 509.586 525.214 511.086 525.214 513.006C525.214 513.102 525.214 513.306 525.202 513.558H521.362C521.506 514.41 522.034 514.854 522.754 514.854C523.282 514.854 523.69 514.614 524.098 514.218L524.974 515.25C524.386 515.898 523.642 516.282 522.682 516.282ZM521.35 512.43H523.57C523.498 511.542 523.114 510.99 522.478 510.99C521.854 510.99 521.446 511.518 521.35 512.43Z" fill="#6E7079"/>
</g>
<defs>
<clipPath id="clip0_15045_56163">
<rect width="914" height="474" fill="white" transform="translate(0 46.209)"/>
</clipPath>
</defs>
</svg>
