<svg width="200" height="201" viewBox="0 0 200 201" fill="none" xmlns="http://www.w3.org/2000/svg">
<g clip-path="url(#clip0_20507_7735)">
<path d="M0 179.262H200" stroke="#CBCBCB" stroke-width="0.4"/>
<path d="M0 150.262H200" stroke="#CBCBCB" stroke-width="0.4"/>
<path d="M0 120.262H200" stroke="#CBCBCB" stroke-width="0.4"/>
<path d="M0 90.262H200" stroke="#CBCBCB" stroke-width="0.4"/>
<path d="M0 61.262H200" stroke="#CBCBCB" stroke-width="0.4"/>
<path d="M0 31.262H200" stroke="#CBCBCB" stroke-width="0.4"/>
<circle cx="17" cy="161.262" r="4" fill="#ADB5BD"/>
<circle cx="55" cy="147.262" r="4" fill="#ADB5BD"/>
<circle cx="35" cy="116.262" r="4" fill="#ADB5BD"/>
<circle cx="65" cy="168.262" r="4" fill="#868E96"/>
<circle cx="73" cy="163.262" r="4" fill="#868E96"/>
<circle cx="125" cy="94.262" r="4" fill="#868E96"/>
<circle cx="55" cy="168.262" r="4" fill="#868E96"/>
<circle cx="96" cy="115.262" r="4" fill="#868E96"/>
<circle cx="76" cy="132.262" r="4" fill="#868E96"/>
<circle cx="59" cy="125.262" r="4" fill="#868E96"/>
<circle cx="79.4355" cy="122.713" r="4" fill="#ADB5BD"/>
<circle cx="118" cy="131.262" r="4" fill="#373D43"/>
<circle cx="110" cy="116.262" r="4" fill="#373D43"/>
<circle cx="123" cy="117.262" r="4" fill="#373D43"/>
<circle cx="88" cy="151.262" r="4" fill="#373D43"/>
<circle cx="155" cy="119.262" r="4" fill="#868E96"/>
<circle cx="170" cy="107.262" r="4" fill="#868E96"/>
<circle cx="49" cy="113.262" r="4" fill="#ADB5BD"/>
<circle cx="137" cy="107.262" r="4" fill="#ADB5BD"/>
<circle cx="107" cy="140.262" r="4" fill="#ADB5BD"/>
<circle cx="160" cy="110.262" r="4" fill="#373D43"/>
<circle cx="91" cy="106.864" r="4" fill="#373D43"/>
<circle cx="95.6387" cy="97.262" r="4" fill="#373D43"/>
<circle cx="100.639" cy="105.262" r="4" fill="#373D43"/>
<circle cx="56" cy="102.179" r="4" fill="#868E96"/>
<circle cx="74" cy="98.262" r="4" fill="#868E96"/>
<circle cx="59" cy="114.262" r="4" fill="#868E96"/>
<circle cx="77" cy="154.262" r="4" fill="#ADB5BD"/>
<circle cx="82" cy="143.262" r="4" fill="#ADB5BD"/>
<circle cx="94" cy="141.262" r="4" fill="#ADB5BD"/>
<circle cx="130" cy="74.262" r="4" fill="#ADB5BD"/>
<circle cx="135" cy="83.262" r="4" fill="#ADB5BD"/>
<circle cx="124" cy="83.262" r="4" fill="#ADB5BD"/>
<circle cx="112" cy="81.262" r="4" fill="#ADB5BD"/>
<circle cx="134" cy="95.262" r="4" fill="#868E96"/>
<circle cx="101" cy="127.262" r="4" fill="#868E96"/>
<circle cx="116" cy="103.262" r="4" fill="#868E96"/>
<circle cx="147" cy="75.262" r="4" fill="#ADB5BD"/>
<circle cx="33" cy="146.262" r="4" fill="#ADB5BD"/>
<circle cx="24" cy="168.262" r="4" fill="#ADB5BD"/>
<circle cx="55" cy="147.262" r="4" fill="#ADB5BD"/>
<circle cx="47" cy="141.262" r="4" fill="#ADB5BD"/>
<circle cx="34" cy="167.262" r="4" fill="#ADB5BD"/>
<circle cx="27" cy="158.262" r="4" fill="#ADB5BD"/>
<circle cx="65" cy="168.262" r="4" fill="#868E96"/>
<circle cx="58" cy="158.262" r="4" fill="#868E96"/>
<circle cx="73" cy="163.262" r="4" fill="#868E96"/>
<circle cx="66" cy="153.262" r="4" fill="#868E96"/>
<circle cx="153" cy="90.262" r="4" fill="#868E96"/>
<circle cx="160" cy="63.262" r="4" fill="#868E96"/>
<circle cx="55" cy="168.262" r="4" fill="#868E96"/>
<circle cx="48" cy="158.262" r="4" fill="#868E96"/>
<circle cx="96" cy="115.262" r="4" fill="#868E96"/>
<circle cx="99" cy="149.262" r="4" fill="#868E96"/>
<circle cx="123" cy="151.262" r="4" fill="#868E96"/>
<circle cx="37" cy="138.262" r="4" fill="#868E96"/>
<circle cx="47" cy="124.262" r="4" fill="#868E96"/>
<circle cx="79.4355" cy="122.713" r="4" fill="#ADB5BD"/>
<circle cx="68" cy="120.262" r="4" fill="#ADB5BD"/>
<circle cx="126" cy="126.262" r="4" fill="#373D43"/>
<circle cx="110" cy="125.262" r="4" fill="#373D43"/>
<circle cx="126" cy="108.262" r="4" fill="#373D43"/>
<circle cx="118" cy="141.262" r="4" fill="#373D43"/>
<circle cx="88" cy="151.262" r="4" fill="#373D43"/>
<circle cx="182" cy="45.262" r="4" fill="#868E96"/>
<circle cx="146.871" cy="112.713" r="4" fill="#868E96"/>
<circle cx="163" cy="100.262" r="4" fill="#868E96"/>
<circle cx="49" cy="113.262" r="4" fill="#ADB5BD"/>
<circle cx="42" cy="103.262" r="4" fill="#ADB5BD"/>
<circle cx="137" cy="107.262" r="4" fill="#ADB5BD"/>
<circle cx="134" cy="117.262" r="4" fill="#ADB5BD"/>
<circle cx="134" cy="153.262" r="4" fill="#ADB5BD"/>
<circle cx="143" cy="123.262" r="4" fill="#373D43"/>
<circle cx="153" cy="100.262" r="4" fill="#373D43"/>
<circle cx="84" cy="96.8635" r="4" fill="#373D43"/>
<circle cx="95.6387" cy="97.262" r="4" fill="#373D43"/>
<circle cx="88.6387" cy="87.262" r="4" fill="#373D43"/>
<circle cx="42" cy="149.262" r="4" fill="#373D43"/>
<circle cx="38" cy="159.262" r="4" fill="#373D43"/>
<circle cx="56" cy="102.179" r="4" fill="#868E96"/>
<circle cx="49" cy="92.179" r="4" fill="#868E96"/>
<circle cx="79" cy="106.262" r="4" fill="#868E96"/>
<circle cx="58.8574" cy="88.262" r="4" fill="#868E96"/>
<circle cx="75" cy="114.262" r="4" fill="#868E96"/>
<circle cx="67" cy="107.262" r="4" fill="#868E96"/>
<circle cx="77" cy="154.262" r="4" fill="#ADB5BD"/>
<circle cx="129" cy="143.262" r="4" fill="#ADB5BD"/>
<circle cx="94" cy="141.262" r="4" fill="#ADB5BD"/>
<circle cx="87" cy="131.262" r="4" fill="#ADB5BD"/>
<circle cx="160" cy="82.262" r="4" fill="#ADB5BD"/>
<circle cx="168" cy="57.262" r="4" fill="#ADB5BD"/>
<circle cx="113.562" cy="91.8237" r="4" transform="rotate(8.7463 113.562 91.8237)" fill="#ADB5BD"/>
<circle cx="150" cy="65.262" r="4" fill="#ADB5BD"/>
<circle cx="156" cy="73.262" r="4" fill="#ADB5BD"/>
<circle cx="45" cy="167.262" r="4" fill="#ADB5BD"/>
<circle cx="178" cy="55.262" r="4" fill="#ADB5BD"/>
<circle cx="161" cy="49.262" r="4" fill="#ADB5BD"/>
<circle cx="142" cy="90.262" r="4" fill="#868E96"/>
<circle cx="171" cy="47.262" r="4" fill="#868E96"/>
<circle cx="91" cy="122.262" r="4" fill="#868E96"/>
<circle cx="143" cy="100.262" r="4" fill="#868E96"/>
<circle cx="106" cy="98.262" r="4" fill="#868E96"/>
<circle cx="166" cy="75.262" r="4" fill="#ADB5BD"/>
<circle cx="170" cy="66.262" r="4" fill="#ADB5BD"/>
</g>
<defs>
<clipPath id="clip0_20507_7735">
<rect width="200" height="200" fill="white" transform="translate(0 0.261963)"/>
</clipPath>
</defs>
</svg>
