<svg width="851" height="506" viewBox="0 0 851 506" fill="none" xmlns="http://www.w3.org/2000/svg">
<path d="M0.91626 1.31165V504.404" stroke="#E0E6F1"/>
<path d="M0.91626 252.858V255.703" stroke="#6E7079"/>
<path d="M107.028 1.31165V504.404" stroke="#E0E6F1"/>
<path d="M213.139 1.31165V504.404" stroke="#E0E6F1"/>
<path d="M319.25 1.31165V504.404" stroke="#E0E6F1"/>
<path d="M425.361 1.31165V504.404" stroke="#E0E6F1"/>
<path d="M531.473 1.31165V504.404" stroke="#E0E6F1"/>
<path d="M637.584 1.31165V504.404" stroke="#E0E6F1"/>
<path d="M744.389 1.31165V504.404" stroke="#E0E6F1"/>
<path d="M425.361 504.404V1.31165" stroke="#6E7079" stroke-linecap="round"/>
<path d="M425.327 1.59607H421.859" stroke="#6E7079"/>
<path d="M0.5 504.688H850.153" stroke="#E0E6F1"/>
<path d="M0.5 441.518H850.153" stroke="#E0E6F1"/>
<path d="M0.5 378.916H850.153" stroke="#E0E6F1"/>
<path d="M0.5 315.744H850.153" stroke="#E0E6F1"/>
<path d="M0.5 253.142H850.153" stroke="#E0E6F1"/>
<path d="M0.5 189.971H850.153" stroke="#E0E6F1"/>
<path d="M0.5 127.369H850.153" stroke="#E0E6F1"/>
<path d="M0.5 64.1981H850.153" stroke="#E0E6F1"/>
<path d="M0.5 1.59619H850.153" stroke="#E0E6F1"/>
<path d="M850.5 1.31165V504.404" stroke="#E0E6F1"/>
<path d="M0.5 253.142H850.153" stroke="#6E7079" stroke-linecap="round"/>
<path d="M850.5 252.858V255.703" stroke="#6E7079"/>
</svg>
