<svg xmlns="http://www.w3.org/2000/svg" width="16" height="17" viewBox="0 0 16 17" fill="none">
  <mask id="mask0_20528_4270" style="mask-type:alpha" maskUnits="userSpaceOnUse" x="0" y="0" width="16" height="17">
    <rect y="0.5" width="16" height="16" fill="#D9D9D9"/>
  </mask>
  <g mask="url(#mask0_20528_4270)">
    <path d="M2 13.2778L5.09971 3.5H6.58382L9.68353 13.2778H8.25578L7.52312 10.7889H4.17919L3.42775 13.2778H2ZM4.61127 9.36667H7.07225L5.86994 5.32222H5.7948L4.61127 9.36667ZM12.0318 13.5C11.3931 13.5 10.8858 13.2963 10.5101 12.8889C10.1344 12.4815 9.94653 11.9444 9.94653 11.2778C9.94653 10.6259 10.1626 10.0889 10.5947 9.66667C11.0267 9.24444 11.5809 9.03333 12.2572 9.03333C12.5453 9.03333 12.8271 9.06296 13.1026 9.12222C13.3781 9.18148 13.6161 9.26296 13.8165 9.36667V9.1C13.8165 8.67037 13.6881 8.32222 13.4314 8.05556C13.1746 7.78889 12.8333 7.65556 12.4075 7.65556C12.1195 7.65556 11.8565 7.72593 11.6185 7.86667C11.3805 8.00741 11.1739 8.21111 10.9986 8.47778L10.1156 7.7C10.4162 7.27037 10.7575 6.95185 11.1395 6.74444C11.5214 6.53704 11.9504 6.43333 12.4263 6.43333C13.2905 6.43333 13.9355 6.67407 14.3613 7.15556C14.7871 7.63704 15 8.35926 15 9.32222V13.2778H13.8165V12.4556H13.7413C13.566 12.7963 13.328 13.0556 13.0275 13.2333C12.7269 13.4111 12.395 13.5 12.0318 13.5ZM12.2572 12.3C12.6956 12.3 13.0682 12.1222 13.375 11.7667C13.6818 11.4111 13.8353 10.9963 13.8353 10.5222C13.6599 10.4037 13.4501 10.3111 13.2059 10.2444C12.9617 10.1778 12.7206 10.1444 12.4827 10.1444C12.0819 10.1444 11.7688 10.2481 11.5434 10.4556C11.3179 10.663 11.2052 10.937 11.2052 11.2778C11.2052 11.5741 11.3054 11.8185 11.5058 12.0111C11.7062 12.2037 11.9566 12.3 12.2572 12.3Z" fill="#868E96"/>
  </g>
</svg>