<svg xmlns="http://www.w3.org/2000/svg" width="200" height="200" viewBox="0 0 200 200" fill="none">
  <path d="M198.614 116.592C201.842 97.4035 199.403 77.69 191.594 59.8676C183.785 42.0452 170.946 26.8882 154.65 16.2543C138.355 5.62033 119.311 -0.0284957 99.853 0.000108047C80.3949 0.0287118 61.3678 5.7335 45.1038 16.4153C28.8397 27.0971 16.0454 42.2918 8.28879 60.1371C0.532207 77.9823 -1.84961 97.7029 1.43527 116.882C4.72015 136.061 13.529 153.865 26.7822 168.111C40.0354 182.358 57.1572 192.429 76.0489 197.089L81.1122 176.565C66.2141 172.889 52.7119 164.948 42.2605 153.713C31.809 142.478 24.8623 128.437 22.2719 113.313C19.6814 98.1885 21.5597 82.6369 27.6765 68.5641C33.7934 54.4913 43.883 42.5087 56.7088 34.0851C69.5346 25.6614 84.5394 21.1626 99.8841 21.1401C115.229 21.1175 130.247 25.5722 143.097 33.9581C155.948 42.344 166.073 54.2968 172.231 68.3516C178.389 82.4063 180.313 97.9524 177.767 113.084L198.614 116.592Z" fill="#ADB5BD"/>
  <path d="M168.448 66.9724C160.003 49.4696 145.173 35.867 127.008 28.9608C108.843 22.0546 88.722 22.3696 70.7817 29.841C52.8415 37.3123 38.4449 51.3724 30.5514 69.131C22.658 86.8895 21.8673 106.997 28.3421 125.321C34.8168 143.644 48.0649 158.791 65.3632 167.648C82.6614 176.505 102.695 178.399 121.347 172.94C139.998 167.482 155.85 155.086 165.644 138.3C175.437 121.514 178.429 101.615 174.003 82.6916L151.326 87.9955C154.395 101.12 152.321 114.922 145.528 126.564C138.736 138.205 127.741 146.803 114.805 150.589C101.869 154.375 87.9746 153.061 75.9771 146.918C63.9797 140.776 54.7913 130.27 50.3006 117.562C45.81 104.853 46.3583 90.9071 51.833 78.5903C57.3076 66.2736 67.2925 56.5221 79.7352 51.3402C92.178 46.1583 106.133 45.9399 118.732 50.7298C131.331 55.5197 141.616 64.9539 147.473 77.0933L168.448 66.9724Z" fill="#868E96"/>
  <path d="M51.7638 91.3819C49.5871 103.565 52.1014 116.121 58.8016 126.527C65.5019 136.933 75.8917 144.418 87.8839 147.478C99.876 150.539 112.582 148.948 123.449 143.025C134.316 137.102 142.54 127.286 146.467 115.549C150.395 103.813 149.735 91.0245 144.622 79.7539C139.508 68.4833 130.319 59.5654 118.9 54.7916C107.481 50.0179 94.6789 49.742 83.0651 54.0195C71.4513 58.2969 61.8863 66.8108 56.2918 77.8506L85.6096 92.7076C87.4516 89.0729 90.6007 86.2698 94.4244 84.8615C98.2481 83.4532 102.463 83.544 106.223 85.1157C109.982 86.6874 113.007 89.6235 114.691 93.3342C116.375 97.0449 116.592 101.255 115.299 105.119C114.006 108.984 111.298 112.215 107.72 114.165C104.142 116.115 99.9592 116.639 96.0109 115.632C92.0627 114.624 88.6419 112.16 86.436 108.734C84.23 105.308 83.4022 101.174 84.1189 97.1626L51.7638 91.3819Z" fill="#373D43"/>
  <path d="M66.766 66.766C65.9849 65.9849 64.7153 65.9822 63.9668 66.7945C60.0654 71.028 56.937 75.9201 54.7299 81.2485C52.2674 87.1935 51 93.5652 51 100C51 106.435 52.2674 112.807 54.7299 118.751C56.937 124.08 60.0654 128.972 63.9668 133.206C64.7153 134.018 65.9849 134.015 66.766 133.234L87.1783 112.822C87.9593 112.041 87.9479 110.781 87.2695 109.909C86.3823 108.77 85.6504 107.514 85.0954 106.174C84.2846 104.216 83.8674 102.119 83.8674 100C83.8674 97.8814 84.2846 95.7836 85.0954 93.8263C85.6504 92.4864 86.3823 91.2303 87.2695 90.0907C87.9479 89.219 87.9593 87.9593 87.1783 87.1783L66.766 66.766Z" fill="#ADB5BD"/>
  <path d="M135.177 37.1781C136.256 35.2505 138.7 34.554 140.568 35.7332C150.437 41.9628 158.755 50.3922 164.857 60.3821C170.959 70.372 174.662 81.6206 175.699 93.2448C175.896 95.4452 174.16 97.3018 171.952 97.3821L156.676 97.9379C154.468 98.0182 152.629 96.2905 152.382 94.0952C151.522 86.4663 149.004 79.1001 144.985 72.521C140.966 65.942 135.562 60.3386 129.167 56.0908C127.327 54.8684 126.629 52.4434 127.708 50.5159L135.177 37.1781Z" fill="#373D43"/>
  <path d="M195.934 96.45C198.142 96.3683 200.006 98.0923 200 100.301C199.954 115.468 196.458 130.445 189.756 144.089C182.465 158.932 171.607 171.735 158.154 181.352C144.701 190.969 129.073 197.099 112.669 199.194C97.5901 201.12 82.288 199.581 67.9227 194.716C65.8303 194.007 64.8024 191.685 65.5941 189.623L70.3018 177.36C71.0936 175.297 73.4047 174.278 75.5046 174.964C86.6003 178.589 98.3797 179.712 109.992 178.229C122.928 176.577 135.253 171.742 145.863 164.158C156.472 156.573 165.035 146.477 170.785 134.771C175.947 124.264 178.697 112.755 178.857 101.083C178.887 98.8742 180.6 97.0174 182.808 96.9357L195.934 96.45Z" fill="#373D43"/>
</svg>