<svg width="525" height="524" viewBox="0 0 525 524" fill="none" xmlns="http://www.w3.org/2000/svg">
<path d="M419.7 262C419.7 292.635 410.749 322.602 393.947 348.218C377.145 373.834 353.224 393.983 325.125 406.187C297.026 418.391 265.974 422.119 235.785 416.913C205.596 411.707 177.585 397.793 155.197 376.882L208.849 319.441C220.043 329.897 234.048 336.853 249.142 339.456C264.237 342.06 279.763 340.195 293.813 334.093C307.862 327.991 319.822 317.917 328.223 305.109C336.624 292.301 341.1 277.317 341.1 262H419.7Z" fill="#E9EEF4"/>
<path d="M151.343 373.157C132.188 354.002 118.308 330.222 111.049 304.124C103.79 278.025 103.398 250.494 109.912 224.199C116.426 197.905 129.624 173.74 148.227 154.048C166.829 134.356 190.205 119.806 216.086 111.808L239.293 186.904C226.352 190.903 214.665 198.178 205.363 208.024C196.062 217.87 189.463 229.952 186.206 243.1C182.949 256.247 183.145 270.013 186.774 283.062C190.404 296.111 197.344 308.001 206.921 317.578L151.343 373.157Z" fill="#E9EEF4"/>
<path d="M220.278 110.576C243.329 104.149 267.542 103.069 291.073 107.418C314.604 111.768 336.831 121.432 356.061 135.674C375.29 149.916 391.015 168.36 402.036 189.601C413.056 210.841 419.083 234.318 419.655 258.24L341.077 260.12C340.791 248.159 337.778 236.421 332.268 225.8C326.757 215.18 318.895 205.958 309.28 198.837C299.665 191.716 288.552 186.884 276.786 184.709C265.021 182.534 252.914 183.074 241.389 186.288L220.278 110.576Z" fill="#E9EEF4"/>
<path d="M524.5 262C524.5 296.406 517.723 330.476 504.556 362.263C491.39 394.05 472.091 422.933 447.762 447.262C423.433 471.591 394.55 490.89 362.763 504.056C330.976 517.223 296.906 524 262.5 524V429.68C284.52 429.68 306.324 425.343 326.668 416.916C347.012 408.489 365.497 396.138 381.068 380.568C396.638 364.997 408.989 346.512 417.416 326.168C425.843 305.824 430.18 284.02 430.18 262H524.5Z" fill="#E9EEF4"/>
<path d="M257.203 523.946C193.071 522.65 131.643 497.871 84.5606 454.306L148.619 385.076C178.751 412.957 218.065 428.816 259.11 429.646L257.203 523.946Z" fill="#E9EEF4"/>
<path d="M79.965 449.949C42.7898 413.845 17.1564 367.527 6.30665 316.854C-4.54312 266.181 -0.121894 213.428 19.0112 165.267L106.667 200.091C94.422 230.914 91.5924 264.676 98.5363 297.107C105.48 329.538 121.885 359.181 145.678 382.288L79.965 449.949Z" fill="#E9EEF4"/>
<path d="M20.4728 161.666C35.3012 125.897 57.8736 93.859 86.5661 67.8576C115.259 41.8562 149.358 22.5378 186.41 11.2924L213.802 101.547C190.089 108.744 168.265 121.108 149.902 137.749C131.539 154.39 117.093 174.894 107.603 197.787L20.4728 161.666Z" fill="#E9EEF4"/>
<path d="M191.67 9.75575C231.561 -1.44547 273.54 -3.02615 314.16 5.14347C354.78 13.3131 392.883 31.0001 425.342 56.7524L366.719 130.642C345.945 114.16 321.559 102.84 295.562 97.6118C269.565 92.3833 242.699 93.3949 217.169 100.564L191.67 9.75575Z" fill="#E9EEF4"/>
<path d="M429.099 59.7906C458.318 83.8636 481.972 113.983 498.434 148.074C514.896 182.166 523.774 219.42 524.457 257.272L430.153 258.974C429.715 234.749 424.033 210.906 413.498 189.088C402.962 167.269 387.823 147.993 369.124 132.586L429.099 59.7906Z" fill="#E9EEF4"/>
</svg>
