<svg width="200" height="201" viewBox="0 0 200 201" fill="none" xmlns="http://www.w3.org/2000/svg">
<path d="M198.614 116.854C201.842 97.6655 199.403 77.952 191.594 60.1296C183.785 42.3071 170.946 27.1501 154.65 16.5162C138.355 5.88229 119.311 0.233467 99.853 0.262071C80.3949 0.290675 61.3678 5.99547 45.1038 16.6772C28.8397 27.359 16.0454 42.5537 8.28879 60.399C0.532207 78.2443 -1.84961 97.9649 1.43527 117.144C4.72015 136.323 13.529 154.126 26.7822 168.373C40.0354 182.62 57.1572 192.691 76.0489 197.351L81.1122 176.827C66.2141 173.151 52.7119 165.21 42.2605 153.975C31.809 142.74 24.8623 128.699 22.2719 113.575C19.6814 98.4505 21.5597 82.8988 27.6765 68.826C33.7934 54.7532 43.883 42.7707 56.7088 34.3471C69.5346 25.9234 84.5394 21.4246 99.8841 21.402C115.229 21.3795 130.247 25.8342 143.097 34.2201C155.948 42.606 166.073 54.5588 172.231 68.6135C178.389 82.6683 180.313 98.2144 177.767 113.346L198.614 116.854Z" fill="#ADB5BD"/>
<path d="M168.448 67.2344C160.003 49.7316 145.173 36.129 127.008 29.2228C108.843 22.3166 88.722 22.6316 70.7817 30.1029C52.8415 37.5743 38.4449 51.6343 30.5514 69.3929C22.658 87.1515 21.8673 107.259 28.3421 125.583C34.8168 143.906 48.0649 159.053 65.3632 167.91C82.6614 176.767 102.695 178.661 121.347 173.202C139.998 167.744 155.85 155.348 165.644 138.562C175.437 121.776 178.429 101.877 174.003 82.9535L151.326 88.2575C154.395 101.382 152.321 115.184 145.528 126.826C138.736 138.467 127.741 147.065 114.805 150.851C101.869 154.637 87.9746 153.323 75.9771 147.18C63.9797 141.038 54.7913 130.532 50.3006 117.824C45.81 105.115 46.3583 91.169 51.833 78.8523C57.3076 66.5356 67.2925 56.784 79.7352 51.6022C92.178 46.4203 106.133 46.2019 118.732 50.9917C131.331 55.7816 141.616 65.2159 147.473 77.3552L168.448 67.2344Z" fill="#868E96"/>
<path d="M51.7638 91.6438C49.5871 103.827 52.1014 116.383 58.8016 126.789C65.5019 137.195 75.8917 144.68 87.8839 147.74C99.876 150.801 112.582 149.21 123.449 143.287C134.316 137.364 142.54 127.548 146.467 115.811C150.395 104.075 149.735 91.2865 144.622 80.0159C139.508 68.7453 130.319 59.8273 118.9 55.0536C107.481 50.2799 94.6789 50.004 83.0651 54.2814C71.4513 58.5589 61.8863 67.0727 56.2918 78.1126L85.6096 92.9695C87.4516 89.3348 90.6007 86.5317 94.4244 85.1235C98.2481 83.7152 102.463 83.806 106.223 85.3777C109.982 86.9494 113.007 89.8855 114.691 93.5962C116.375 97.3069 116.592 101.517 115.299 105.381C114.006 109.246 111.298 112.477 107.72 114.427C104.142 116.377 99.9592 116.901 96.0109 115.894C92.0627 114.886 88.6419 112.422 86.436 108.996C84.23 105.57 83.4022 101.436 84.1189 97.4246L51.7638 91.6438Z" fill="#373D43"/>
<path d="M66.766 67.0279C65.9849 66.2469 64.7153 66.2442 63.9668 67.0564C60.0654 71.29 56.937 76.182 54.7299 81.5105C52.2674 87.4554 51 93.8272 51 100.262C51 106.697 52.2674 113.069 54.7299 119.013C56.937 124.342 60.0654 129.234 63.9668 133.467C64.7153 134.28 65.9849 134.277 66.766 133.496L87.1783 113.084C87.9593 112.303 87.9479 111.043 87.2695 110.171C86.3823 109.032 85.6504 107.776 85.0954 106.436C84.2846 104.478 83.8674 102.381 83.8674 100.262C83.8674 98.1434 84.2846 96.0456 85.0954 94.0883C85.6504 92.7484 86.3823 91.4923 87.2695 90.3526C87.9479 89.481 87.9593 88.2213 87.1783 87.4403L66.766 67.0279Z" fill="#ADB5BD"/>
<path d="M135.177 37.44C136.256 35.5125 138.7 34.816 140.568 35.9952C150.437 42.2247 158.755 50.6542 164.857 60.6441C170.959 70.634 174.662 81.8825 175.699 93.5068C175.896 95.7072 174.16 97.5637 171.952 97.6441L156.676 98.1999C154.468 98.2802 152.629 96.5524 152.382 94.3572C151.522 86.7282 149.004 79.3621 144.985 72.783C140.966 66.2039 135.562 60.6006 129.167 56.3527C127.327 55.1304 126.629 52.7054 127.708 50.7778L135.177 37.44Z" fill="#373D43"/>
<path d="M195.934 96.712C198.142 96.6303 200.006 98.3543 200 100.563C199.954 115.73 196.458 130.707 189.756 144.351C182.465 159.194 171.607 171.997 158.154 181.614C144.701 191.231 129.073 197.361 112.669 199.456C97.5901 201.382 82.288 199.843 67.9227 194.978C65.8303 194.269 64.8024 191.947 65.5941 189.885L70.3018 177.622C71.0936 175.559 73.4047 174.54 75.5046 175.226C86.6003 178.851 98.3797 179.974 109.992 178.491C122.928 176.839 135.253 172.004 145.863 164.42C156.472 156.835 165.035 146.738 170.785 135.033C175.947 124.526 178.697 113.017 178.857 101.345C178.887 99.1361 180.6 97.2794 182.808 97.1977L195.934 96.712Z" fill="#373D43"/>
</svg>
