<svg width="914" height="527" viewBox="0 0 914 527" fill="none" xmlns="http://www.w3.org/2000/svg">
<g clip-path="url(#clip0_15045_56154)">
<path d="M0 8.20923C0 7.10466 0.895431 6.20923 2 6.20923H63V30.2092H2C0.89543 30.2092 0 29.3138 0 28.2092V8.20923Z" fill="#262C34"/>
<path d="M17.3026 21.2092V12.8092H18.2026V20.3812H22.1026V21.2092H17.3026ZM26.0263 21.3412C24.5023 21.3412 23.2543 20.1172 23.2543 18.1372V18.0772C23.2543 16.1692 24.3703 14.8372 25.8343 14.8372C27.4063 14.8372 28.3423 16.1812 28.3423 18.0652C28.3423 18.1492 28.3423 18.3172 28.3303 18.4252H24.1303C24.2263 19.8052 25.0783 20.5732 26.0623 20.5732C26.7463 20.5732 27.2503 20.2852 27.6823 19.8532L28.1743 20.4052C27.6103 20.9812 26.9623 21.3412 26.0263 21.3412ZM24.1303 17.7532H27.4783C27.4183 16.5652 26.8543 15.5932 25.8343 15.5932C24.9103 15.5932 24.2143 16.4452 24.1303 17.7532ZM31.5515 21.2572L29.2475 14.9572H30.1835L31.9355 20.0932L33.7115 14.9572H34.6235L32.3315 21.2572H31.5515ZM38.2908 21.3412C36.7668 21.3412 35.5188 20.1172 35.5188 18.1372V18.0772C35.5188 16.1692 36.6348 14.8372 38.0988 14.8372C39.6708 14.8372 40.6068 16.1812 40.6068 18.0652C40.6068 18.1492 40.6068 18.3172 40.5948 18.4252H36.3948C36.4908 19.8052 37.3428 20.5732 38.3268 20.5732C39.0108 20.5732 39.5148 20.2852 39.9468 19.8532L40.4388 20.4052C39.8748 20.9812 39.2268 21.3412 38.2908 21.3412ZM36.3948 17.7532H39.7428C39.6828 16.5652 39.1188 15.5932 38.0988 15.5932C37.1748 15.5932 36.4788 16.4452 36.3948 17.7532ZM42.3696 21.2092V12.5452H43.2336V21.2092H42.3696ZM49.7445 21.2092V13.7212L48.3765 14.2012L48.2205 13.4212L49.9605 12.7612H50.6325V21.2092H49.7445Z" fill="white"/>
<path d="M63 6.20923H65.6389L71 18.2092L65.6389 30.2092H63L63 6.20923Z" fill="#262C34"/>
</g>
<rect x="0.5" y="46.7092" width="913" height="479" stroke="white"/>
<path d="M601.6 286.209C601.6 313.804 593.537 340.797 578.402 363.871C563.268 386.945 541.721 405.094 516.41 416.088C491.1 427.081 463.129 430.439 435.936 425.75C408.743 421.06 383.512 408.527 363.346 389.691L411.673 337.95C421.756 347.368 434.371 353.635 447.968 355.979C461.564 358.324 475.55 356.645 488.205 351.148C500.86 345.652 511.634 336.577 519.201 325.04C526.768 313.503 530.8 300.007 530.8 286.209H601.6Z" fill="#E9EEF4"/>
<path d="M359.873 386.336C342.619 369.081 330.117 347.662 323.578 324.153C317.04 300.644 316.687 275.845 322.554 252.16C328.422 228.475 340.31 206.708 357.067 188.971C373.823 171.233 394.879 158.126 418.192 150.922L439.096 218.566C427.439 222.168 416.912 228.721 408.533 237.59C400.155 246.459 394.211 257.342 391.277 269.185C388.343 281.027 388.52 293.427 391.789 305.181C395.058 316.935 401.31 327.645 409.937 336.272L359.873 386.336Z" fill="#E9EEF4"/>
<path d="M421.968 149.812C442.731 144.023 464.542 143.05 485.737 146.968C506.933 150.886 526.955 159.591 544.276 172.42C561.597 185.248 575.761 201.862 585.689 220.995C595.616 240.128 601.044 261.274 601.559 282.823L530.78 284.516C530.522 273.742 527.808 263.168 522.844 253.602C517.881 244.036 510.799 235.729 502.138 229.314C493.477 222.9 483.466 218.548 472.869 216.589C462.271 214.63 451.365 215.116 440.984 218.011L421.968 149.812Z" fill="#E9EEF4"/>
<path d="M696 286.209C696 317.201 689.896 347.89 678.036 376.523C666.175 405.155 648.792 431.172 626.877 453.086C604.963 475.001 578.946 492.385 550.313 504.245C521.68 516.105 490.992 522.209 460 522.209L460 437.249C479.835 437.249 499.475 433.342 517.801 425.752C536.126 418.162 552.776 407.036 566.801 393.011C580.827 378.985 591.952 362.335 599.543 344.01C607.133 325.685 611.04 306.044 611.04 286.209H696Z" fill="#E9EEF4"/>
<path d="M455.228 522.161C397.461 520.993 342.128 498.673 299.719 459.431L357.42 397.071C384.562 422.186 419.975 436.471 456.946 437.218L455.228 522.161Z" fill="#E9EEF4"/>
<path d="M295.579 455.507C262.093 422.986 239.003 381.264 229.23 335.62C219.457 289.975 223.44 242.457 240.674 199.076L319.631 230.444C308.601 258.208 306.053 288.619 312.307 317.832C318.562 347.045 333.34 373.746 354.771 394.56L295.579 455.507Z" fill="#E9EEF4"/>
<path d="M241.991 195.832C255.348 163.613 275.68 134.754 301.525 111.333C327.37 87.9118 358.086 70.5105 391.461 60.381L416.135 141.679C394.775 148.162 375.117 159.299 358.576 174.288C342.035 189.278 329.022 207.747 320.474 228.368L241.991 195.832Z" fill="#E9EEF4"/>
<path d="M396.199 58.9969C432.131 48.9072 469.944 47.4834 506.533 54.8423C543.122 62.2012 577.444 78.133 606.682 101.33L553.876 167.886C535.164 153.04 513.198 142.844 489.781 138.134C466.364 133.425 442.164 134.336 419.168 140.793L396.199 58.9969Z" fill="#E9EEF4"/>
<path d="M610.067 104.066C636.386 125.751 657.693 152.881 672.521 183.589C687.349 214.298 695.346 247.855 695.962 281.95L611.015 283.484C610.622 261.662 605.503 240.186 596.013 220.532C586.523 200.879 572.887 183.516 556.043 169.638L610.067 104.066Z" fill="#E9EEF4"/>
<defs>
<clipPath id="clip0_15045_56154">
<rect y="6.20923" width="914" height="24" rx="2" fill="white"/>
</clipPath>
</defs>
</svg>
