<svg width="225" height="233" viewBox="0 0 225 233" fill="none" xmlns="http://www.w3.org/2000/svg">
<path d="M16 57.8945C16 48.6399 20.2921 39.7644 27.9322 33.2204C35.5722 26.6764 45.9343 23 56.7389 23H91.2103V216.262H56.7389C45.9343 216.262 35.5722 212.586 27.9322 206.042C20.2921 199.498 16 190.622 16 181.367V57.8945Z" fill="#373D43"/>
<path d="M96.9141 215.309H174.482C183.704 215.309 192.548 211.041 199.069 203.445C205.59 195.849 209.254 185.547 209.254 174.804V146.763H96.9141V215.309Z" fill="#868E96"/>
<path d="M209.254 142.004V58.1602C209.254 48.8351 205.59 39.892 199.069 33.2982C192.548 26.7044 183.704 23 174.482 23H96.9141V142.004H209.254Z" fill="#ADB5BD"/>
</svg>
