<svg width="194" height="194" viewBox="0 0 194 194" fill="none" xmlns="http://www.w3.org/2000/svg">
<path d="M0.373047 34.8945C0.373047 25.6399 4.66517 16.7644 12.3052 10.2204C19.9452 3.67637 30.3073 0 41.112 0H75.5834V193.262H41.112C30.3073 193.262 19.9452 189.586 12.3052 183.042C4.66517 176.498 0.373047 167.622 0.373047 158.367V34.8945Z" fill="#373D43"/>
<path d="M81.2871 192.309H158.855C168.077 192.309 176.921 188.041 183.442 180.445C189.963 172.849 193.627 162.547 193.627 151.804V123.763H81.2871V192.309Z" fill="#868E96"/>
<path d="M193.627 119.004V35.1602C193.627 25.8351 189.963 16.892 183.442 10.2982C176.921 3.70436 168.077 0 158.855 0H81.2871V119.004H193.627Z" fill="#ADB5BD"/>
</svg>
