<svg width="40" height="41" viewBox="0 0 40 41" fill="none" xmlns="http://www.w3.org/2000/svg">
<ellipse cx="20" cy="20.5" rx="20" ry="20.5" fill="#DADAF8"/>
<path d="M28.3271 16.1114H25.1271L28.5925 12.728C28.8561 12.4707 28.8561 12.0546 28.5925 11.7991C28.329 11.5418 27.9028 11.5418 27.6411 11.7991L24.3458 15.0165V11.9324C24.3458 11.5692 24.0449 11.2754 23.6729 11.2754C23.3009 11.2754 23 11.5692 23 11.9324V16.7684C23 17.1316 23.3009 17.4254 23.6729 17.4254H28.3271C28.6991 17.4254 29 17.1316 29 16.7684C29 16.4053 28.6991 16.1114 28.3271 16.1114Z" fill="black"/>
<path d="M15.7181 11.965L15.7181 15.245L12.4172 11.693C12.1662 11.4228 11.7602 11.4228 11.511 11.693C11.2599 11.9631 11.2599 12.3999 11.511 12.6681L14.6499 16.0459L11.6409 16.0459C11.2866 16.0459 11 16.3543 11 16.7356C11 17.1168 11.2866 17.4253 11.6409 17.4253L16.3591 17.4253C16.7134 17.4253 17 17.1168 17 16.7356L17 11.965C17 11.5838 16.7134 11.2753 16.3591 11.2753C16.0047 11.2753 15.7181 11.5838 15.7181 11.965Z" fill="black"/>
<path d="M11.6729 24.8895L14.8729 24.8895L11.4075 28.2729C11.1439 28.5303 11.1439 28.9463 11.4075 29.2018C11.671 29.4591 12.0972 29.4591 12.3589 29.2018L15.6542 25.9845L15.6542 29.0686C15.6542 29.4318 15.9551 29.7256 16.3271 29.7256C16.6991 29.7256 17 29.4318 17 29.0686L17 24.2326C17 23.8694 16.6991 23.5756 16.3271 23.5756L11.6729 23.5756C11.3009 23.5756 11 23.8694 11 24.2326C11 24.5957 11.3009 24.8895 11.6729 24.8895Z" fill="black"/>
<path d="M24.2819 29.0355L24.2819 25.7555L27.5828 29.3075C27.8338 29.5777 28.2398 29.5777 28.489 29.3075C28.7401 29.0374 28.7401 28.6006 28.489 28.3323L25.3501 24.9546L28.3591 24.9546C28.7134 24.9546 29 24.6462 29 24.2649C29 23.8837 28.7134 23.5752 28.3591 23.5752L23.641 23.5752C23.2866 23.5752 23 23.8837 23 24.2649L23 29.0355C23 29.4167 23.2866 29.7252 23.641 29.7252C23.9953 29.7252 24.2819 29.4167 24.2819 29.0355Z" fill="black"/>
</svg>
