<svg width="100" height="60" viewBox="0 0 100 60" fill="none" xmlns="http://www.w3.org/2000/svg">
<path d="M5 5V25C5 26.3261 5.52678 27.5979 6.46447 28.5355C7.40215 29.4732 8.67392 30 10 30H25M25 5V55M75 5V25C75 26.3261 75.5268 27.5979 76.4645 28.5355C77.4021 29.4732 78.6739 30 80 30H95M95 5V55M40 10V50C40 51.3261 40.5268 52.5979 41.4645 53.5355C42.4021 54.4732 43.6739 55 45 55H55C56.3261 55 57.5979 54.4732 58.5355 53.5355C59.4732 52.5979 60 51.3261 60 50V10C60 8.67392 59.4732 7.40215 58.5355 6.46447C57.5979 5.52679 56.3261 5 55 5H45C43.6739 5 42.4021 5.52679 41.4645 6.46447C40.5268 7.40215 40 8.67392 40 10Z" stroke="black" stroke-width="10" stroke-linecap="round" stroke-linejoin="round"/>
</svg>
