<svg width="20" height="20" viewBox="0 0 20 20" fill="none" xmlns="http://www.w3.org/2000/svg">
<rect width="20" height="20" fill="white" fill-opacity="0.01" style="mix-blend-mode:multiply"/>
<path d="M5.22992 4.44412H7.22214C7.36948 4.44412 7.51079 4.38559 7.61498 4.2814C7.71916 4.17721 7.7777 4.03591 7.7777 3.88856C7.7777 3.74122 7.71916 3.59991 7.61498 3.49573C7.51079 3.39154 7.36948 3.33301 7.22214 3.33301H3.88881C3.74146 3.33301 3.60016 3.39154 3.49597 3.49573C3.39178 3.59991 3.33325 3.74122 3.33325 3.88856V7.2219C3.33325 7.36924 3.39178 7.51055 3.49597 7.61473C3.60016 7.71892 3.74146 7.77745 3.88881 7.77745C4.03615 7.77745 4.17746 7.71892 4.28164 7.61473C4.38583 7.51055 4.44436 7.36924 4.44436 7.2219V5.22967L6.82908 7.6144C6.88035 7.66744 6.94167 7.70974 7.00946 7.73883C7.07725 7.76792 7.15016 7.78322 7.22392 7.78384C7.29769 7.78445 7.37084 7.77037 7.4391 7.74241C7.50737 7.71446 7.56938 7.67318 7.62153 7.621C7.67367 7.56882 7.7149 7.50678 7.74281 7.43849C7.77072 7.37021 7.78475 7.29705 7.78408 7.22328C7.78342 7.14951 7.76807 7.07662 7.73893 7.00885C7.70979 6.94108 7.66744 6.87979 7.61436 6.82856L5.22992 4.44412ZM15.5555 5.22967V7.2219C15.5555 7.36924 15.614 7.51055 15.7182 7.61473C15.8224 7.71892 15.9637 7.77745 16.111 7.77745C16.2584 7.77745 16.3997 7.71892 16.5039 7.61473C16.6081 7.51055 16.6666 7.36924 16.6666 7.2219V3.88856C16.6666 3.74122 16.6081 3.59991 16.5039 3.49573C16.3997 3.39154 16.2584 3.33301 16.111 3.33301H12.7777C12.6304 3.33301 12.489 3.39154 12.3849 3.49573C12.2807 3.59991 12.2221 3.74122 12.2221 3.88856C12.2221 4.03591 12.2807 4.17721 12.3849 4.2814C12.489 4.38559 12.6304 4.44412 12.7777 4.44412H14.7699L12.3852 6.82884C12.3322 6.88011 12.2899 6.94143 12.2608 7.00922C12.2317 7.07701 12.2164 7.14991 12.2158 7.22368C12.2151 7.29744 12.2292 7.37059 12.2572 7.43886C12.2851 7.50713 12.3264 7.56914 12.3786 7.62128C12.4308 7.67343 12.4928 7.71466 12.5611 7.74257C12.6294 7.77048 12.7025 7.78451 12.7763 7.78384C12.8501 7.78317 12.923 7.76782 12.9907 7.73868C13.0585 7.70954 13.1198 7.6672 13.171 7.61412L15.5555 5.22967ZM5.22992 15.5552H7.22214C7.36948 15.5552 7.51079 15.6138 7.61498 15.7179C7.71916 15.8221 7.7777 15.9634 7.7777 16.1108C7.7777 16.2581 7.71916 16.3994 7.61498 16.5036C7.51079 16.6078 7.36948 16.6663 7.22214 16.6663H3.88881C3.74146 16.6663 3.60016 16.6078 3.49597 16.5036C3.39178 16.3994 3.33325 16.2581 3.33325 16.1108V12.7775C3.33325 12.6301 3.39178 12.4888 3.49597 12.3846C3.60016 12.2804 3.74146 12.2219 3.88881 12.2219C4.03615 12.2219 4.17746 12.2804 4.28164 12.3846C4.38583 12.4888 4.44436 12.6301 4.44436 12.7775V14.7697L6.82908 12.385C6.88035 12.3319 6.94167 12.2896 7.00946 12.2605C7.07725 12.2314 7.15016 12.2161 7.22392 12.2155C7.29769 12.2149 7.37084 12.229 7.4391 12.2569C7.50737 12.2849 7.56938 12.3262 7.62153 12.3783C7.67367 12.4305 7.7149 12.4926 7.74281 12.5609C7.77072 12.6291 7.78475 12.7023 7.78408 12.7761C7.78342 12.8498 7.76807 12.9227 7.73893 12.9905C7.70979 13.0583 7.66744 13.1196 7.61436 13.1708L5.22992 15.5552ZM15.5555 14.7697V12.7775C15.5555 12.6301 15.614 12.4888 15.7182 12.3846C15.8224 12.2804 15.9637 12.2219 16.111 12.2219C16.2584 12.2219 16.3997 12.2804 16.5039 12.3846C16.6081 12.4888 16.6666 12.6301 16.6666 12.7775V16.1108C16.6666 16.2581 16.6081 16.3994 16.5039 16.5036C16.3997 16.6078 16.2584 16.6663 16.111 16.6663H12.7777C12.6304 16.6663 12.489 16.6078 12.3849 16.5036C12.2807 16.3994 12.2221 16.2581 12.2221 16.1108C12.2221 15.9634 12.2807 15.8221 12.3849 15.7179C12.489 15.6138 12.6304 15.5552 12.7777 15.5552H14.7699L12.3852 13.1705C12.3322 13.1192 12.2899 13.0579 12.2608 12.9901C12.2317 12.9223 12.2164 12.8494 12.2158 12.7757C12.2151 12.7019 12.2292 12.6288 12.2572 12.5605C12.2851 12.4922 12.3264 12.4302 12.3786 12.3781C12.4308 12.3259 12.4928 12.2847 12.5611 12.2568C12.6294 12.2289 12.7025 12.2148 12.7763 12.2155C12.8501 12.2162 12.923 12.2315 12.9907 12.2607C13.0585 12.2898 13.1198 12.3322 13.171 12.3852L15.5555 14.7697Z" fill="white"/>
</svg>
