<svg width="40" height="40" viewBox="0 0 40 40" fill="none" xmlns="http://www.w3.org/2000/svg">
<circle cx="20" cy="20" r="20" fill="#DADAF8"/>
<path d="M13.5605 12.5H16.25C16.4489 12.5 16.6397 12.421 16.7803 12.2803C16.921 12.1397 17 11.9489 17 11.75C17 11.5511 16.921 11.3603 16.7803 11.2197C16.6397 11.079 16.4489 11 16.25 11H11.75C11.5511 11 11.3603 11.079 11.2197 11.2197C11.079 11.3603 11 11.5511 11 11.75V16.25C11 16.4489 11.079 16.6397 11.2197 16.7803C11.3603 16.921 11.5511 17 11.75 17C11.9489 17 12.1397 16.921 12.2803 16.7803C12.421 16.6397 12.5 16.4489 12.5 16.25V13.5605L15.7194 16.7799C15.7886 16.8515 15.8714 16.9086 15.9629 16.9479C16.0544 16.9871 16.1528 17.0078 16.2524 17.0086C16.352 17.0095 16.4507 16.9904 16.5429 16.9527C16.6351 16.915 16.7188 16.8592 16.7892 16.7888C16.8596 16.7183 16.9152 16.6346 16.9529 16.5424C16.9906 16.4502 17.0095 16.3515 17.0086 16.2519C17.0077 16.1523 16.987 16.0539 16.9477 15.9624C16.9083 15.8709 16.8512 15.7882 16.7795 15.719L13.5605 12.5ZM27.5 13.5605V16.25C27.5 16.4489 27.579 16.6397 27.7197 16.7803C27.8603 16.921 28.0511 17 28.25 17C28.4489 17 28.6397 16.921 28.7803 16.7803C28.921 16.6397 29 16.4489 29 16.25V11.75C29 11.5511 28.921 11.3603 28.7803 11.2197C28.6397 11.079 28.4489 11 28.25 11H23.75C23.5511 11 23.3603 11.079 23.2197 11.2197C23.079 11.3603 23 11.5511 23 11.75C23 11.9489 23.079 12.1397 23.2197 12.2803C23.3603 12.421 23.5511 12.5 23.75 12.5H26.4395L23.2201 15.7194C23.1485 15.7886 23.0914 15.8714 23.0521 15.9629C23.0129 16.0544 22.9922 16.1528 22.9914 16.2524C22.9905 16.352 23.0096 16.4507 23.0473 16.5429C23.085 16.6351 23.1408 16.7188 23.2112 16.7892C23.2817 16.8596 23.3654 16.9152 23.4576 16.9529C23.5498 16.9906 23.6485 17.0095 23.7481 17.0086C23.8477 17.0077 23.9461 16.987 24.0376 16.9477C24.1291 16.9083 24.2118 16.8512 24.281 16.7795L27.5 13.5605ZM13.5605 27.5H16.25C16.4489 27.5 16.6397 27.579 16.7803 27.7197C16.921 27.8603 17 28.0511 17 28.25C17 28.4489 16.921 28.6397 16.7803 28.7803C16.6397 28.921 16.4489 29 16.25 29H11.75C11.5511 29 11.3603 28.921 11.2197 28.7803C11.079 28.6397 11 28.4489 11 28.25V23.75C11 23.5511 11.079 23.3603 11.2197 23.2197C11.3603 23.079 11.5511 23 11.75 23C11.9489 23 12.1397 23.079 12.2803 23.2197C12.421 23.3603 12.5 23.5511 12.5 23.75V26.4395L15.7194 23.2201C15.7886 23.1485 15.8714 23.0914 15.9629 23.0521C16.0544 23.0129 16.1528 22.9922 16.2524 22.9914C16.352 22.9905 16.4507 23.0096 16.5429 23.0473C16.6351 23.085 16.7188 23.1408 16.7892 23.2112C16.8596 23.2817 16.9152 23.3654 16.9529 23.4576C16.9906 23.5498 17.0095 23.6485 17.0086 23.7481C17.0077 23.8477 16.987 23.9461 16.9477 24.0376C16.9083 24.1291 16.8512 24.2118 16.7795 24.281L13.5605 27.5ZM27.5 26.4395V23.75C27.5 23.5511 27.579 23.3603 27.7197 23.2197C27.8603 23.079 28.0511 23 28.25 23C28.4489 23 28.6397 23.079 28.7803 23.2197C28.921 23.3603 29 23.5511 29 23.75V28.25C29 28.4489 28.921 28.6397 28.7803 28.7803C28.6397 28.921 28.4489 29 28.25 29H23.75C23.5511 29 23.3603 28.921 23.2197 28.7803C23.079 28.6397 23 28.4489 23 28.25C23 28.0511 23.079 27.8603 23.2197 27.7197C23.3603 27.579 23.5511 27.5 23.75 27.5H26.4395L23.2201 24.2806C23.1485 24.2114 23.0914 24.1286 23.0521 24.0371C23.0129 23.9456 22.9922 23.8472 22.9914 23.7476C22.9905 23.648 23.0096 23.5493 23.0473 23.4571C23.085 23.3649 23.1408 23.2812 23.2112 23.2108C23.2817 23.1404 23.3654 23.0848 23.4576 23.0471C23.5498 23.0094 23.6485 22.9905 23.7481 22.9914C23.8477 22.9923 23.9461 23.013 24.0376 23.0523C24.1291 23.0917 24.2118 23.1488 24.281 23.2205L27.5 26.4395Z" fill="black"/>
</svg>
