<svg width="25" height="16" viewBox="0 0 25 16" fill="none" xmlns="http://www.w3.org/2000/svg">
<path d="M20.9343 6.61873L24.8017 0.265137H22.5918H21.2106L19.2769 3.8563L20.9343 6.61873Z" fill="#6061E5"/>
<path d="M19 12.1437L21.0995 15.7349H23.1437H24.5249L20.6575 9.10503L19 12.1437Z" fill="#6061E5"/>
<path d="M0 15.7347V0.265137H4.99447C9.48066 0.265137 12.3757 3.35906 12.3757 7.88945V8.08834C12.3757 12.6187 9.48066 15.7347 4.99447 15.7347H0ZM4.97238 3.16017H3.20442V12.8397H4.97238C7.40332 12.8397 9.06077 11.1381 9.06077 8.06624V7.95575C9.06077 4.88392 7.40332 3.16017 4.97238 3.16017Z" fill="#231D2C"/>
<path d="M20.2127 7.82315L15.4834 15.7347H11.9254L16.5 7.86735L12.1243 0.265137H15.7707L20.2127 7.82315Z" fill="#231D2C"/>
</svg>
