<svg xmlns="http://www.w3.org/2000/svg" width="150" height="16" viewBox="0 0 150 16" fill="none">
  <path d="M65.8567 6.61922L69.7241 0.265625H67.5141H66.1329L64.1992 3.85679L65.8567 6.61922Z" fill="#CEA8BC"/>
  <path d="M63.9224 12.1432L66.0218 15.7344H68.066H69.4473L65.5799 9.10454L63.9224 12.1432Z" fill="#CEA8BC"/>
  <path d="M0 15.7348V0.265193H4.99447C9.48066 0.265193 12.3757 3.35912 12.3757 7.8895V8.0884C12.3757 12.6188 9.48066 15.7348 4.99447 15.7348H0ZM4.97238 3.16022H3.20442V12.8398H4.97238C7.40332 12.8398 9.06077 11.1381 9.06077 8.0663V7.9558C9.06077 4.88398 7.40332 3.16022 4.97238 3.16022Z" fill="#231D2C"/>
  <path d="M12.8783 15.7348L18.4252 0.176795H21.475L27.0219 15.7348H23.707L22.5578 12.3757H17.2319L16.1048 15.7348H12.8783ZM18.2042 9.54696H21.5855L19.9059 4.50829L18.2042 9.54696Z" fill="#231D2C"/>
  <path d="M30.3051 15.7348V3.22652H26.4156V0.265193H37.3769V3.22652H33.4874V15.7348H30.3051Z" fill="#231D2C"/>
  <path d="M36.769 15.7348L42.316 0.176795H45.3657L50.9126 15.7348H47.5977L46.4486 12.3757H41.1226L39.9955 15.7348H36.769ZM42.095 9.54696H45.4762L43.7966 4.50829L42.095 9.54696Z" fill="#231D2C"/>
  <path d="M65.0444 7.8232L60.3151 15.7348H56.7571L61.3317 7.8674L56.956 0.265193H60.6024L65.0444 7.8232Z" fill="#231D2C"/>
  <path fill-rule="evenodd" clip-rule="evenodd" d="M71.7153 15.7348V0.265193H76.8645C80.3341 0.265193 82.5219 2.27624 82.5219 5.56906V5.61326C82.5219 9.17127 79.9805 10.9613 76.7319 11.0276H74.9197V15.7348H71.7153ZM76.7098 8.1547H74.9197V3.16022H76.6656C78.3672 3.16022 79.2954 4.0442 79.2954 5.65746V5.67956C79.2954 7.11602 78.3672 8.1547 76.7098 8.1547Z" fill="#CEA8BC"/>
  <path d="M84.621 15.7348V0.265193H87.8254V12.7956H94.0796V15.7348H84.621Z" fill="#CEA8BC"/>
  <path fill-rule="evenodd" clip-rule="evenodd" d="M101.864 16C97.7538 16 94.8809 12.7735 94.8809 8.1547V7.8895C94.8809 3.24862 97.798 0 101.886 0C105.997 0 108.87 3.22652 108.87 7.8453V8.1105C108.87 12.7293 105.953 16 101.864 16ZM105.555 8.0884C105.555 11.1381 104.03 13.0387 101.886 13.0387C99.7428 13.0387 98.1737 11.116 98.1737 8.0663V7.9116C98.1737 4.86188 99.6985 2.96133 101.864 2.96133C104.008 2.96133 105.555 4.88398 105.555 7.9337V8.0884Z" fill="#CEA8BC"/>
  <path fill-rule="evenodd" clip-rule="evenodd" d="M111.404 15.7348V0.265193H117.216C119.006 0.265193 120.442 0.77348 121.415 1.74586C122.254 2.58563 122.719 3.8011 122.719 5.32597V5.41436C122.719 7.75691 121.547 9.23757 119.846 9.98895L123.138 15.7348H119.47L116.619 10.6519H114.608V15.7348H111.404ZM116.973 7.8232H114.608V3.16022H116.906C118.542 3.16022 119.492 3.9337 119.492 5.48066V5.50276C119.492 6.89503 118.608 7.8232 116.973 7.8232Z" fill="#CEA8BC"/>
  <path d="M125.259 15.7348V0.265193H135.226V3.16022H128.441V6.49724H134.408V9.39227H128.441V12.8398H135.314V15.7348H125.259Z" fill="#CEA8BC"/>
  <path fill-rule="evenodd" clip-rule="evenodd" d="M137.841 15.7348V0.265193H143.653C145.443 0.265193 146.88 0.77348 147.852 1.74586C148.692 2.58563 149.156 3.8011 149.156 5.32597V5.41436C149.156 7.75691 147.985 9.23757 146.283 9.98895L149.576 15.7348H145.907L143.056 10.6519H141.045V15.7348H137.841ZM143.41 7.8232H141.045V3.16022H143.344C144.979 3.16022 145.929 3.9337 145.929 5.48066V5.50276C145.929 6.89503 145.045 7.8232 143.41 7.8232Z" fill="#CEA8BC"/>
</svg>