<svg xmlns="http://www.w3.org/2000/svg" width="154" height="17" viewBox="0 0 154 17" fill="none">
  <path d="M67.6924 7.08021L71.6676 0.5495H69.3961H67.9764L65.9888 4.24077L67.6924 7.08021Z" fill="#6061E5"/>
  <path d="M65.7044 12.7592L67.8624 16.4505H69.9636H71.3833L67.4081 9.63585L65.7044 12.7592Z" fill="#6061E5"/>
  <path d="M0 16.4504V0.549563H5.13371C9.74496 0.549563 12.7207 3.72974 12.7207 8.38642V8.59086C12.7207 13.2475 9.74496 16.4504 5.13371 16.4504H0ZM5.11099 3.5253H3.29375V13.4747H5.11099C7.6097 13.4747 9.31336 11.7256 9.31336 8.56814V8.45456C9.31336 5.29711 7.6097 3.5253 5.11099 3.5253Z" fill="#231D2C"/>
  <path d="M13.2373 16.4504L18.9389 0.458701H22.0736L27.7752 16.4504H24.3679L23.1867 12.9977H17.7122L16.5538 16.4504H13.2373ZM18.7117 10.0901H22.1872L20.4608 4.91094L18.7117 10.0901Z" fill="#231D2C"/>
  <path d="M31.1499 16.4504V3.59344H27.152V0.549563H38.4189V3.59344H34.4209V16.4504H31.1499Z" fill="#231D2C"/>
  <path d="M37.794 16.4504L43.4956 0.458701H46.6303L52.3319 16.4504H48.9246L47.7434 12.9977H42.269L41.1105 16.4504H37.794ZM43.2684 10.0901H46.7439L45.0175 4.91094L43.2684 10.0901Z" fill="#231D2C"/>
  <path d="M66.8576 8.31827L61.9965 16.4504H58.3393L63.0414 8.3637L58.5437 0.549563H62.2918L66.8576 8.31827Z" fill="#231D2C"/>
  <path fill-rule="evenodd" clip-rule="evenodd" d="M73.7145 16.4504V0.549563H79.0072C82.5736 0.549563 84.8224 2.61668 84.8224 6.00129V6.04672C84.8224 9.70392 82.2101 11.5439 78.8709 11.612H77.0083V16.4504H73.7145ZM78.8482 8.659H77.0083V3.5253H78.8028C80.5519 3.5253 81.5059 4.43392 81.5059 6.09215V6.11486C81.5059 7.59137 80.5519 8.659 78.8482 8.659Z" fill="#6061E5"/>
  <path d="M86.98 16.4504V0.549563H90.2738V13.4293H96.7023V16.4504H86.98Z" fill="#6061E5"/>
  <path fill-rule="evenodd" clip-rule="evenodd" d="M104.704 16.723C100.479 16.723 97.5259 13.4065 97.5259 8.659V8.38642C97.5259 3.61616 100.524 0.276978 104.727 0.276978C108.952 0.276978 111.905 3.59344 111.905 8.34099V8.61357C111.905 13.3611 108.906 16.723 104.704 16.723ZM108.497 8.59086C108.497 11.7256 106.93 13.6791 104.727 13.6791C102.523 13.6791 100.91 11.7029 100.91 8.56814V8.40913C100.91 5.27439 102.478 3.32086 104.704 3.32086C106.907 3.32086 108.497 5.29711 108.497 8.43185V8.59086Z" fill="#6061E5"/>
  <path fill-rule="evenodd" clip-rule="evenodd" d="M114.509 16.4504V0.549563H120.483C122.323 0.549563 123.8 1.07202 124.799 2.0715C125.663 2.93469 126.14 4.18405 126.14 5.75142V5.84228C126.14 8.25012 124.936 9.77206 123.187 10.5444L126.571 16.4504H122.8L119.87 11.2259H117.803V16.4504H114.509ZM120.234 8.31827H117.803V3.5253H120.165C121.846 3.5253 122.823 4.32034 122.823 5.91043V5.93314C122.823 7.36422 121.915 8.31827 120.234 8.31827Z" fill="#6061E5"/>
  <path d="M128.751 16.4504V0.549563H138.996V3.5253H132.022V6.95534H138.155V9.93107H132.022V13.4747H139.086V16.4504H128.751Z" fill="#6061E5"/>
  <path fill-rule="evenodd" clip-rule="evenodd" d="M141.684 16.4504V0.549563H147.658C149.498 0.549563 150.974 1.07202 151.974 2.0715C152.837 2.93469 153.314 4.18405 153.314 5.75142V5.84228C153.314 8.25012 152.11 9.77206 150.361 10.5444L153.746 16.4504H149.975L147.044 11.2259H144.977V16.4504H141.684ZM147.408 8.31827H144.977V3.5253H147.34C149.021 3.5253 149.997 4.32034 149.997 5.91043V5.93314C149.997 7.36422 149.089 8.31827 147.408 8.31827Z" fill="#6061E5"/>
</svg>