<svg width="129" height="29" viewBox="0 0 271 29" fill="none" xmlns="http://www.w3.org/2000/svg">
<path d="M119.2 11.98L126.2 0.47998H122.2H119.7L116.2 6.97998L119.2 11.98Z" fill="#CEA8BC"/>
<path d="M115.7 21.98L119.5 28.48H123.2H125.7L118.7 16.48L115.7 21.98Z" fill="#CEA8BC"/>
<path d="M0 28.48V0.479999H9.04C17.16 0.479999 22.4 6.08 22.4 14.28V14.64C22.4 22.84 17.16 28.48 9.04 28.48H0ZM9 5.72H5.8V23.24H9C13.4 23.24 16.4 20.16 16.4 14.6V14.4C16.4 8.84 13.4 5.72 9 5.72Z" fill="#231D2C"/>
<path d="M23.3097 28.48L33.3497 0.319998H38.8697L48.9097 28.48H42.9097L40.8297 22.4H31.1897L29.1497 28.48H23.3097ZM32.9497 17.28H39.0697L36.0297 8.16L32.9497 17.28Z" fill="#231D2C"/>
<path d="M54.8522 28.48V5.84H47.8122V0.479999H67.6522V5.84H60.6122V28.48H54.8522Z" fill="#231D2C"/>
<path d="M66.5519 28.48L76.5919 0.319998H82.1119L92.1519 28.48H86.1519L84.0719 22.4H74.4319L72.3919 28.48H66.5519ZM76.1919 17.28H82.3119L79.2719 8.16L76.1919 17.28Z" fill="#231D2C"/>
<path d="M117.73 14.16L109.17 28.48H102.73L111.01 14.24L103.09 0.479999H109.69L117.73 14.16Z" fill="#231D2C"/>
<path fill-rule="evenodd" clip-rule="evenodd" d="M129.805 28.48V0.479999H139.125C145.405 0.479999 149.365 4.12 149.365 10.08V10.16C149.365 16.6 144.765 19.84 138.885 19.96H135.605V28.48H129.805ZM138.845 14.76H135.605V5.72H138.765C141.845 5.72 143.525 7.32 143.525 10.24V10.28C143.525 12.88 141.845 14.76 138.845 14.76Z" fill="#CEA8BC"/>
<path d="M153.164 28.48V0.479999H158.964V23.16H170.284V28.48H153.164Z" fill="#CEA8BC"/>
<path fill-rule="evenodd" clip-rule="evenodd" d="M184.374 28.96C176.934 28.96 171.734 23.12 171.734 14.76V14.28C171.734 5.88 177.014 0 184.414 0C191.854 0 197.054 5.84 197.054 14.2V14.68C197.054 23.04 191.774 28.96 184.374 28.96ZM191.054 14.64C191.054 20.16 188.294 23.6 184.414 23.6C180.534 23.6 177.694 20.12 177.694 14.6V14.32C177.694 8.8 180.454 5.36 184.374 5.36C188.254 5.36 191.054 8.84 191.054 14.36V14.64Z" fill="#CEA8BC"/>
<path fill-rule="evenodd" clip-rule="evenodd" d="M201.641 28.48V0.479999H212.161C215.401 0.479999 218.001 1.4 219.761 3.16C221.281 4.68 222.121 6.88 222.121 9.64V9.8C222.121 14.04 220.001 16.72 216.921 18.08L222.881 28.48H216.241L211.081 19.28H207.441V28.48H201.641ZM211.721 14.16H207.441V5.72H211.601C214.561 5.72 216.281 7.12 216.281 9.92V9.96C216.281 12.48 214.681 14.16 211.721 14.16Z" fill="#CEA8BC"/>
<path d="M226.719 28.48V0.479999H244.759V5.72H232.479V11.76H243.279V17H232.479V23.24H244.919V28.48H226.719Z" fill="#CEA8BC"/>
<path fill-rule="evenodd" clip-rule="evenodd" d="M249.492 28.48V0.479999H260.012C263.252 0.479999 265.852 1.4 267.612 3.16C269.132 4.68 269.972 6.88 269.972 9.64V9.8C269.972 14.04 267.852 16.72 264.772 18.08L270.732 28.48H264.092L258.932 19.28H255.292V28.48H249.492ZM259.572 14.16H255.292V5.72H259.452C262.412 5.72 264.132 7.12 264.132 9.92V9.96C264.132 12.48 262.532 14.16 259.572 14.16Z" fill="#CEA8BC"/>
</svg>
