     <svg
            width="17"
            height="18"
            viewBox="0 0 17 18"
            fill="none"
            xmlns="http://www.w3.org/2000/svg"
          >
            <rect
              width="16"
              height="16"
              transform="translate(0.333252 1)"
              fill="white"
              fill-opacity="0.01"
              style="mix-blend-mode:multiply"
            />
            <path
              d="M4.18335 3.34997C3.60984 3.79006 3.1044 4.31235 2.68335 4.89997L3.48335 5.49997C3.85057 4.99069 4.28827 4.53615 4.78335 4.14997L4.18335 3.34997Z"
              fill="#231D2C"
            />
            <path
              d="M2.63335 7.14997L1.68335 6.84997C1.44183 7.54065 1.32336 8.26835 1.33335 8.99997H2.33335C2.33132 8.37103 2.43267 7.74604 2.63335 7.14997Z"
              fill="#231D2C"
            />
            <path
              d="M1.68335 11.2C1.91523 11.8972 2.25247 12.5548 2.68335 13.15L3.48335 12.55C3.12189 12.0439 2.83558 11.4881 2.63335 10.9L1.68335 11.2Z"
              fill="#231D2C"
            />
            <path
              d="M4.23335 14.65C4.82851 15.0809 5.48613 15.4181 6.18335 15.65L6.48335 14.7C5.89522 14.4977 5.33945 14.2114 4.83335 13.85L4.23335 14.65Z"
              fill="#231D2C"
            />
            <path
              d="M6.18335 2.34997L6.48335 3.29997C7.07941 3.09929 7.70441 2.99794 8.33335 2.99997V1.99997C7.60172 1.98999 6.87403 2.10845 6.18335 2.34997Z"
              fill="#231D2C"
            />
            <path
              d="M12.4333 14.65C13.0223 14.211 13.5444 13.6889 13.9833 13.1L13.1833 12.5C12.8115 13.0219 12.3552 13.4781 11.8333 13.85L12.4333 14.65Z"
              fill="#231D2C"
            />
            <path
              d="M14.0333 10.85L14.9833 11.15C15.2008 10.4534 15.3187 9.72956 15.3333 8.99997H14.3333C14.3354 9.62891 14.234 10.2539 14.0333 10.85Z"
              fill="#231D2C"
            />
            <path
              d="M14.9333 6.79997C14.7015 6.10275 14.3642 5.44514 13.9333 4.84997L13.1333 5.44997C13.4948 5.95608 13.7811 6.51184 13.9833 7.09997L14.9333 6.79997Z"
              fill="#231D2C"
            />
            <path
              d="M12.3833 3.29997C11.7882 2.86909 11.1306 2.53185 10.4333 2.29997L10.1333 3.24997C10.7215 3.45221 11.2772 3.73851 11.7833 4.09997L12.3833 3.29997Z"
              fill="#231D2C"
            />
            <path
              d="M10.4833 15.65L10.1833 14.7C9.58728 14.9007 8.96228 15.002 8.33335 15V16C9.06005 15.9567 9.78044 15.8394 10.4833 15.65Z"
              fill="#231D2C"
            />
          </svg>