   <svg
              width="16"
              height="18"
              viewBox="0 0 16 18"
              fill="none"
              xmlns="http://www.w3.org/2000/svg"
            >
              <rect
                width="16"
                height="16"
                transform="translate(0 1)"
                fill="white"
                fill-opacity="0.01"
                style="mix-blend-mode:multiply"
              />
              <path
                d="M11.8821 4.42965L12.5246 3.6639C11.904 3.13853 11.1963 2.72553 10.4336 2.4435L10.0918 3.3823C10.745 3.62459 11.3508 3.97902 11.8821 4.42965Z"
                fill="#6061E5"
              />
              <path
                d="M13.905 8L14.8889 7.7936C14.7506 6.99468 14.4734 6.22616 14.07 5.52285L13.2044 6C13.5499 6.622 13.7868 7.29836 13.905 8Z"
                fill="#6061E5"
              />
              <path
                d="M10.0918 14.6177L10.4336 15.5565C11.1963 15.2745 11.904 14.8615 12.5246 14.3361L11.8821 13.5703C11.3508 14.021 10.745 14.3754 10.0918 14.6177Z"
                fill="#6061E5"
              />
              <path
                d="M13.2044 12L14.07 12.5C14.4737 11.7886 14.7508 11.0126 14.8891 10.2064L13.905 10.033C13.7867 10.7242 13.5497 11.3897 13.2044 12Z"
                fill="#6061E5"
              />
              <path
                d="M8 16V2C6.14348 2 4.36301 2.7375 3.05025 4.05025C1.7375 5.36301 1 7.14348 1 9C1 10.8565 1.7375 12.637 3.05025 13.9497C4.36301 15.2625 6.14348 16 8 16Z"
                fill="#6061E5"
              />
            </svg>