<svg width="80" height="81" viewBox="0 0 80 81" fill="none" xmlns="http://www.w3.org/2000/svg">
<path d="M39.8958 45.331C36.3472 45.331 33.0122 46.1122 29.8906 47.6747C26.7691 49.2372 24.1319 51.4421 21.9792 54.2893C21.0069 55.5393 20.8507 56.8588 21.5104 58.2477C22.1701 59.6366 23.2986 60.331 24.8958 60.331C25.5208 60.331 26.1111 60.1921 26.6667 59.9143C27.2222 59.6366 27.7083 59.2546 28.125 58.7685C29.5833 56.9629 31.3372 55.522 33.3865 54.4456C35.4365 53.3692 37.6066 52.831 39.8969 52.831C42.1879 52.831 44.3712 53.3372 46.4469 54.3497C48.5226 55.3629 50.2625 56.7664 51.6667 58.5602C52.0139 59.0463 52.4455 59.4629 52.9615 59.8102C53.4774 60.1574 54.0528 60.331 54.6875 60.331C56.2847 60.331 57.4653 59.6192 58.2292 58.1956C58.9931 56.772 58.8889 55.4004 57.9167 54.081C55.8333 51.1643 53.1979 48.9768 50.0104 47.5185C46.8236 46.0602 43.4521 45.331 39.8958 45.331ZM53.75 37.831C55.4861 37.831 56.9618 37.2234 58.1771 36.0081C59.3924 34.7928 60 33.3171 60 31.581C60 29.8449 59.3924 28.3692 58.1771 27.1539C56.9618 25.9386 55.4861 25.331 53.75 25.331C52.0139 25.331 50.5382 25.9386 49.3229 27.1539C48.1076 28.3692 47.5 29.8449 47.5 31.581C47.5 33.3171 48.1076 34.7928 49.3229 36.0081C50.5382 37.2234 52.0139 37.831 53.75 37.831ZM26.25 37.831C27.9861 37.831 29.4618 37.2234 30.6771 36.0081C31.8924 34.7928 32.5 33.3171 32.5 31.581C32.5 29.8449 31.8924 28.3692 30.6771 27.1539C29.4618 25.9386 27.9861 25.331 26.25 25.331C24.5139 25.331 23.0382 25.9386 21.8229 27.1539C20.6076 28.3692 20 29.8449 20 31.581C20 33.3171 20.6076 34.7928 21.8229 36.0081C23.0382 37.2234 24.5139 37.831 26.25 37.831ZM40.0292 80.331C34.5236 80.331 29.3403 79.2893 24.4792 77.206C19.6181 75.1227 15.3646 72.2581 11.7188 68.6122C8.07292 64.9664 5.20833 60.7143 3.125 55.856C1.04167 50.9977 0 45.8067 0 40.2831C0 34.7595 1.04167 29.5845 3.125 24.7581C5.20833 19.9317 8.07292 15.6956 11.7188 12.0497C15.3646 8.40391 19.6167 5.53933 24.475 3.45599C29.3333 1.37266 34.5243 0.330994 40.0479 0.330994C45.5715 0.330994 50.7465 1.37266 55.5729 3.45599C60.3993 5.53933 64.6354 8.40391 68.2812 12.0497C71.9271 15.6956 74.7917 19.9393 76.875 24.781C78.9583 29.6234 80 34.797 80 40.3018C80 45.8074 78.9583 50.9907 76.875 55.8518C74.7917 60.7129 71.9271 64.9664 68.2812 68.6122C64.6354 72.2581 60.3917 75.1227 55.55 77.206C50.7076 79.2893 45.534 80.331 40.0292 80.331ZM40 72.831C49.0278 72.831 56.7014 69.6713 63.0208 63.3518C69.3403 57.0324 72.5 49.3588 72.5 40.331C72.5 31.3032 69.3403 23.6296 63.0208 17.3102C56.7014 10.9907 49.0278 7.83099 40 7.83099C30.9722 7.83099 23.2986 10.9907 16.9792 17.3102C10.6597 23.6296 7.5 31.3032 7.5 40.331C7.5 49.3588 10.6597 57.0324 16.9792 63.3518C23.2986 69.6713 30.9722 72.831 40 72.831Z" fill="#231D2C"/>
</svg>
