<svg width="566" height="327" viewBox="0 0 566 327" fill="none" xmlns="http://www.w3.org/2000/svg">
<g clip-path="url(#clip0_23820_1310)">
<rect y="0.546631" width="566" height="326" rx="16" fill="#FBFBFB"/>
<path d="M273.968 61.233L277.836 54.8794H275.626H274.245L272.311 58.4706L273.968 61.233Z" fill="#CEA8BC"/>
<path d="M272.035 66.758L274.134 70.3491H276.178H277.56L273.692 63.7193L272.035 66.758Z" fill="#CEA8BC"/>
<path d="M208.112 70.3491V54.8795H213.107C217.593 54.8795 220.488 57.9734 220.488 62.5038V62.7027C220.488 67.233 217.593 70.3491 213.107 70.3491H208.112ZM213.084 57.7745H211.316V67.454H213.084C215.515 67.454 217.173 65.7524 217.173 62.6806V62.5701C217.173 59.4982 215.515 57.7745 213.084 57.7745Z" fill="#231D2C"/>
<path d="M220.99 70.3491L226.537 54.7911H229.587L235.134 70.3491H231.819L230.67 66.9899H225.344L224.217 70.3491H220.99ZM226.316 64.1612H229.698L228.018 59.1225L226.316 64.1612Z" fill="#231D2C"/>
<path d="M238.417 70.3491V57.8408H234.528V54.8795H245.489V57.8408H241.599V70.3491H238.417Z" fill="#231D2C"/>
<path d="M244.881 70.3491L250.428 54.7911H253.478L259.025 70.3491H255.71L254.561 66.9899H249.235L248.108 70.3491H244.881ZM250.207 64.1612H253.588L251.909 59.1225L250.207 64.1612Z" fill="#231D2C"/>
<path d="M273.156 62.4375L268.427 70.3491H264.869L269.444 62.4817L265.068 54.8795H268.714L273.156 62.4375Z" fill="#231D2C"/>
<path fill-rule="evenodd" clip-rule="evenodd" d="M279.827 70.3491V54.8795H284.977C288.446 54.8795 290.634 56.8905 290.634 60.1833V60.2275C290.634 63.7855 288.093 65.5756 284.844 65.6419H283.032V70.3491H279.827ZM284.822 62.769H283.032V57.7745H284.778C286.479 57.7745 287.407 58.6585 287.407 60.2717V60.2938C287.407 61.7303 286.479 62.769 284.822 62.769Z" fill="#CEA8BC"/>
<path d="M292.733 70.3491V54.8795H295.938V67.4098H302.192V70.3491H292.733Z" fill="#CEA8BC"/>
<path fill-rule="evenodd" clip-rule="evenodd" d="M309.976 70.6143C305.866 70.6143 302.993 67.3877 302.993 62.769V62.5038C302.993 57.8629 305.91 54.6143 309.998 54.6143C314.109 54.6143 316.982 57.8408 316.982 62.4596V62.7248C316.982 67.3435 314.065 70.6143 309.976 70.6143ZM313.667 62.7027C313.667 65.7524 312.142 67.6529 309.998 67.6529C307.855 67.6529 306.286 65.7303 306.286 62.6806V62.5259C306.286 59.4761 307.811 57.5756 309.976 57.5756C312.12 57.5756 313.667 59.4982 313.667 62.548V62.7027Z" fill="#CEA8BC"/>
<path fill-rule="evenodd" clip-rule="evenodd" d="M319.516 70.3491V54.8795H325.328C327.118 54.8795 328.554 55.3877 329.527 56.3601C330.367 57.1999 330.831 58.4154 330.831 59.9402V60.0286C330.831 62.3712 329.659 63.8518 327.958 64.6032L331.251 70.3491H327.582L324.731 65.2662H322.72V70.3491H319.516ZM325.085 62.4375H322.72V57.7745H325.018C326.654 57.7745 327.604 58.548 327.604 60.0949V60.117C327.604 61.5093 326.72 62.4375 325.085 62.4375Z" fill="#CEA8BC"/>
<path d="M333.371 70.3491V54.8795H343.338V57.7745H336.553V61.1115H342.52V64.0065H336.553V67.454H343.426V70.3491H333.371Z" fill="#CEA8BC"/>
<path fill-rule="evenodd" clip-rule="evenodd" d="M345.953 70.3491V54.8795H351.765C353.555 54.8795 354.992 55.3877 355.964 56.3601C356.804 57.1999 357.268 58.4154 357.268 59.9402V60.0286C357.268 62.3712 356.097 63.8518 354.395 64.6032L357.688 70.3491H354.019L351.169 65.2662H349.157V70.3491H345.953ZM351.522 62.4375H349.157V57.7745H351.456C353.091 57.7745 354.041 58.548 354.041 60.0949V60.117C354.041 61.5093 353.157 62.4375 351.522 62.4375Z" fill="#CEA8BC"/>
<rect x="100.137" y="86.6143" width="365.527" height="20.2654" rx="10.1327" fill="#EAEDF3"/>
<rect x="109.588" y="93.418" width="44" height="7" rx="3.40824" fill="#565656"/>
<rect x="164.588" y="93.418" width="30" height="7" rx="3.40824" fill="#565656"/>
<g clip-path="url(#clip1_23820_1310)">
<path d="M449.464 97.9979H448.97L448.795 97.829C449.408 97.116 449.777 96.1903 449.777 95.1833C449.777 92.9378 447.957 91.1177 445.711 91.1177C443.466 91.1177 441.646 92.9378 441.646 95.1833C441.646 97.4287 443.466 99.2488 445.711 99.2488C446.718 99.2488 447.644 98.8798 448.357 98.2668L448.526 98.442V98.9361L451.653 102.057L452.585 101.125L449.464 97.9979ZM445.711 97.9979C444.154 97.9979 442.897 96.7407 442.897 95.1833C442.897 93.6258 444.154 92.3686 445.711 92.3686C447.269 92.3686 448.526 93.6258 448.526 95.1833C448.526 96.7407 447.269 97.9979 445.711 97.9979Z" fill="#565656"/>
</g>
<rect x="251.9" y="122.88" width="62" height="12" rx="6" fill="#565656"/>
<g filter="url(#filter0_d_23820_1310)">
<rect x="43" y="150.88" width="113.2" height="41.7682" fill="#DFE3E6"/>
</g>
<rect x="47.9716" y="157.229" width="43.0563" height="2.25719" rx="1.1286" fill="#565656"/>
<rect x="47.9716" y="164.627" width="64.8714" height="2.25719" rx="1.1286" fill="#565656"/>
<g filter="url(#filter1_d_23820_1310)">
<rect x="165.2" y="150.88" width="113.2" height="41.7682" fill="#DFE3E6"/>
</g>
<rect x="170.172" y="157.229" width="43.0563" height="2.25719" rx="1.1286" fill="#565656"/>
<rect x="170.172" y="164.627" width="64.8714" height="2.25719" rx="1.1286" fill="#565656"/>
<g filter="url(#filter2_d_23820_1310)">
<rect x="287.4" y="150.88" width="113.2" height="41.7682" fill="#DFE3E6"/>
</g>
<rect x="292.372" y="157.229" width="43.0563" height="2.25719" rx="1.1286" fill="#565656"/>
<rect x="292.372" y="164.627" width="64.8714" height="2.25719" rx="1.1286" fill="#565656"/>
<g filter="url(#filter3_d_23820_1310)">
<rect x="409.6" y="150.88" width="113.2" height="41.7682" fill="#DFE3E6"/>
</g>
<rect x="414.572" y="157.229" width="43.0563" height="2.25719" rx="1.1286" fill="#565656"/>
<rect x="414.572" y="164.627" width="64.8714" height="2.25719" rx="1.1286" fill="#565656"/>
<g filter="url(#filter4_d_23820_1310)">
<rect x="43" y="205.648" width="113.2" height="41.7682" fill="#DFE3E6"/>
</g>
<rect x="47.9716" y="211.997" width="43.0563" height="2.25719" rx="1.1286" fill="#565656"/>
<rect x="47.9716" y="219.395" width="64.8714" height="2.25719" rx="1.1286" fill="#565656"/>
<g filter="url(#filter5_d_23820_1310)">
<rect x="165.2" y="205.648" width="113.2" height="41.7682" fill="#DFE3E6"/>
</g>
<rect x="170.172" y="211.997" width="43.0563" height="2.25719" rx="1.1286" fill="#565656"/>
<rect x="170.172" y="219.395" width="64.8714" height="2.25719" rx="1.1286" fill="#565656"/>
<g filter="url(#filter6_d_23820_1310)">
<rect x="287.4" y="205.648" width="113.2" height="41.7682" fill="#DFE3E6"/>
</g>
<rect x="292.372" y="211.997" width="43.0563" height="2.25719" rx="1.1286" fill="#565656"/>
<rect x="292.372" y="219.395" width="64.8714" height="2.25719" rx="1.1286" fill="#565656"/>
<g filter="url(#filter7_d_23820_1310)">
<rect x="409.6" y="205.648" width="113.2" height="41.7682" fill="#DFE3E6"/>
</g>
<rect x="414.572" y="211.997" width="43.0563" height="2.25719" rx="1.1286" fill="#565656"/>
<rect x="414.572" y="219.395" width="64.8714" height="2.25719" rx="1.1286" fill="#565656"/>
<g filter="url(#filter8_d_23820_1310)">
<rect x="43" y="260.416" width="113.2" height="41.7682" fill="#DFE3E6"/>
</g>
<rect x="47.9716" y="266.765" width="43.0563" height="2.25719" rx="1.1286" fill="#565656"/>
<rect x="47.9716" y="274.163" width="64.8714" height="2.25719" rx="1.1286" fill="#565656"/>
<g filter="url(#filter9_d_23820_1310)">
<rect x="288.146" y="206.8" width="113.2" height="41.3468" fill="#DFE3E6"/>
</g>
<rect x="293.117" y="213.085" width="43.0563" height="2.23442" rx="1.11721" fill="#565656"/>
<rect x="293.117" y="220.409" width="64.8714" height="2.23442" rx="1.11721" fill="#565656"/>
<rect y="0.546631" width="566" height="33" fill="#6061E5"/>
<circle cx="22.1645" cy="16.9646" r="6.15672" fill="white"/>
<circle cx="46.7905" cy="16.9646" r="6.15672" fill="white"/>
<circle cx="71.4184" cy="16.9646" r="6.15672" fill="white"/>
</g>
<defs>
<filter id="filter0_d_23820_1310" x="39.6554" y="147.535" width="119.889" height="48.4575" filterUnits="userSpaceOnUse" color-interpolation-filters="sRGB">
<feFlood flood-opacity="0" result="BackgroundImageFix"/>
<feColorMatrix in="SourceAlpha" type="matrix" values="0 0 0 0 0 0 0 0 0 0 0 0 0 0 0 0 0 0 127 0" result="hardAlpha"/>
<feOffset/>
<feGaussianBlur stdDeviation="1.6723"/>
<feColorMatrix type="matrix" values="0 0 0 0 0.596078 0 0 0 0 0.631373 0 0 0 0 0.666667 0 0 0 0.05 0"/>
<feBlend mode="multiply" in2="BackgroundImageFix" result="effect1_dropShadow_23820_1310"/>
<feBlend mode="normal" in="SourceGraphic" in2="effect1_dropShadow_23820_1310" result="shape"/>
</filter>
<filter id="filter1_d_23820_1310" x="161.855" y="147.535" width="119.889" height="48.4575" filterUnits="userSpaceOnUse" color-interpolation-filters="sRGB">
<feFlood flood-opacity="0" result="BackgroundImageFix"/>
<feColorMatrix in="SourceAlpha" type="matrix" values="0 0 0 0 0 0 0 0 0 0 0 0 0 0 0 0 0 0 127 0" result="hardAlpha"/>
<feOffset/>
<feGaussianBlur stdDeviation="1.6723"/>
<feColorMatrix type="matrix" values="0 0 0 0 0.596078 0 0 0 0 0.631373 0 0 0 0 0.666667 0 0 0 0.05 0"/>
<feBlend mode="multiply" in2="BackgroundImageFix" result="effect1_dropShadow_23820_1310"/>
<feBlend mode="normal" in="SourceGraphic" in2="effect1_dropShadow_23820_1310" result="shape"/>
</filter>
<filter id="filter2_d_23820_1310" x="284.055" y="147.535" width="119.889" height="48.4575" filterUnits="userSpaceOnUse" color-interpolation-filters="sRGB">
<feFlood flood-opacity="0" result="BackgroundImageFix"/>
<feColorMatrix in="SourceAlpha" type="matrix" values="0 0 0 0 0 0 0 0 0 0 0 0 0 0 0 0 0 0 127 0" result="hardAlpha"/>
<feOffset/>
<feGaussianBlur stdDeviation="1.6723"/>
<feColorMatrix type="matrix" values="0 0 0 0 0.596078 0 0 0 0 0.631373 0 0 0 0 0.666667 0 0 0 0.05 0"/>
<feBlend mode="multiply" in2="BackgroundImageFix" result="effect1_dropShadow_23820_1310"/>
<feBlend mode="normal" in="SourceGraphic" in2="effect1_dropShadow_23820_1310" result="shape"/>
</filter>
<filter id="filter3_d_23820_1310" x="406.255" y="147.535" width="119.889" height="48.4575" filterUnits="userSpaceOnUse" color-interpolation-filters="sRGB">
<feFlood flood-opacity="0" result="BackgroundImageFix"/>
<feColorMatrix in="SourceAlpha" type="matrix" values="0 0 0 0 0 0 0 0 0 0 0 0 0 0 0 0 0 0 127 0" result="hardAlpha"/>
<feOffset/>
<feGaussianBlur stdDeviation="1.6723"/>
<feColorMatrix type="matrix" values="0 0 0 0 0.596078 0 0 0 0 0.631373 0 0 0 0 0.666667 0 0 0 0.05 0"/>
<feBlend mode="multiply" in2="BackgroundImageFix" result="effect1_dropShadow_23820_1310"/>
<feBlend mode="normal" in="SourceGraphic" in2="effect1_dropShadow_23820_1310" result="shape"/>
</filter>
<filter id="filter4_d_23820_1310" x="39.6554" y="202.303" width="119.889" height="48.4575" filterUnits="userSpaceOnUse" color-interpolation-filters="sRGB">
<feFlood flood-opacity="0" result="BackgroundImageFix"/>
<feColorMatrix in="SourceAlpha" type="matrix" values="0 0 0 0 0 0 0 0 0 0 0 0 0 0 0 0 0 0 127 0" result="hardAlpha"/>
<feOffset/>
<feGaussianBlur stdDeviation="1.6723"/>
<feColorMatrix type="matrix" values="0 0 0 0 0.596078 0 0 0 0 0.631373 0 0 0 0 0.666667 0 0 0 0.05 0"/>
<feBlend mode="multiply" in2="BackgroundImageFix" result="effect1_dropShadow_23820_1310"/>
<feBlend mode="normal" in="SourceGraphic" in2="effect1_dropShadow_23820_1310" result="shape"/>
</filter>
<filter id="filter5_d_23820_1310" x="161.855" y="202.303" width="119.889" height="48.4575" filterUnits="userSpaceOnUse" color-interpolation-filters="sRGB">
<feFlood flood-opacity="0" result="BackgroundImageFix"/>
<feColorMatrix in="SourceAlpha" type="matrix" values="0 0 0 0 0 0 0 0 0 0 0 0 0 0 0 0 0 0 127 0" result="hardAlpha"/>
<feOffset/>
<feGaussianBlur stdDeviation="1.6723"/>
<feColorMatrix type="matrix" values="0 0 0 0 0.596078 0 0 0 0 0.631373 0 0 0 0 0.666667 0 0 0 0.05 0"/>
<feBlend mode="multiply" in2="BackgroundImageFix" result="effect1_dropShadow_23820_1310"/>
<feBlend mode="normal" in="SourceGraphic" in2="effect1_dropShadow_23820_1310" result="shape"/>
</filter>
<filter id="filter6_d_23820_1310" x="284.055" y="202.303" width="119.889" height="48.4575" filterUnits="userSpaceOnUse" color-interpolation-filters="sRGB">
<feFlood flood-opacity="0" result="BackgroundImageFix"/>
<feColorMatrix in="SourceAlpha" type="matrix" values="0 0 0 0 0 0 0 0 0 0 0 0 0 0 0 0 0 0 127 0" result="hardAlpha"/>
<feOffset/>
<feGaussianBlur stdDeviation="1.6723"/>
<feColorMatrix type="matrix" values="0 0 0 0 0.596078 0 0 0 0 0.631373 0 0 0 0 0.666667 0 0 0 0.05 0"/>
<feBlend mode="multiply" in2="BackgroundImageFix" result="effect1_dropShadow_23820_1310"/>
<feBlend mode="normal" in="SourceGraphic" in2="effect1_dropShadow_23820_1310" result="shape"/>
</filter>
<filter id="filter7_d_23820_1310" x="406.255" y="202.303" width="119.889" height="48.4575" filterUnits="userSpaceOnUse" color-interpolation-filters="sRGB">
<feFlood flood-opacity="0" result="BackgroundImageFix"/>
<feColorMatrix in="SourceAlpha" type="matrix" values="0 0 0 0 0 0 0 0 0 0 0 0 0 0 0 0 0 0 127 0" result="hardAlpha"/>
<feOffset/>
<feGaussianBlur stdDeviation="1.6723"/>
<feColorMatrix type="matrix" values="0 0 0 0 0.596078 0 0 0 0 0.631373 0 0 0 0 0.666667 0 0 0 0.05 0"/>
<feBlend mode="multiply" in2="BackgroundImageFix" result="effect1_dropShadow_23820_1310"/>
<feBlend mode="normal" in="SourceGraphic" in2="effect1_dropShadow_23820_1310" result="shape"/>
</filter>
<filter id="filter8_d_23820_1310" x="39.6554" y="257.071" width="119.889" height="48.4575" filterUnits="userSpaceOnUse" color-interpolation-filters="sRGB">
<feFlood flood-opacity="0" result="BackgroundImageFix"/>
<feColorMatrix in="SourceAlpha" type="matrix" values="0 0 0 0 0 0 0 0 0 0 0 0 0 0 0 0 0 0 127 0" result="hardAlpha"/>
<feOffset/>
<feGaussianBlur stdDeviation="1.6723"/>
<feColorMatrix type="matrix" values="0 0 0 0 0.596078 0 0 0 0 0.631373 0 0 0 0 0.666667 0 0 0 0.05 0"/>
<feBlend mode="multiply" in2="BackgroundImageFix" result="effect1_dropShadow_23820_1310"/>
<feBlend mode="normal" in="SourceGraphic" in2="effect1_dropShadow_23820_1310" result="shape"/>
</filter>
<filter id="filter9_d_23820_1310" x="284.801" y="203.456" width="119.889" height="48.0359" filterUnits="userSpaceOnUse" color-interpolation-filters="sRGB">
<feFlood flood-opacity="0" result="BackgroundImageFix"/>
<feColorMatrix in="SourceAlpha" type="matrix" values="0 0 0 0 0 0 0 0 0 0 0 0 0 0 0 0 0 0 127 0" result="hardAlpha"/>
<feOffset/>
<feGaussianBlur stdDeviation="1.6723"/>
<feColorMatrix type="matrix" values="0 0 0 0 0.596078 0 0 0 0 0.631373 0 0 0 0 0.666667 0 0 0 0.05 0"/>
<feBlend mode="multiply" in2="BackgroundImageFix" result="effect1_dropShadow_23820_1310"/>
<feBlend mode="normal" in="SourceGraphic" in2="effect1_dropShadow_23820_1310" result="shape"/>
</filter>
<clipPath id="clip0_23820_1310">
<rect y="0.546631" width="566" height="326" rx="16" fill="white"/>
</clipPath>
<clipPath id="clip1_23820_1310">
<rect width="15.0114" height="15.0114" fill="white" transform="translate(439.769 89.2412)"/>
</clipPath>
</defs>
</svg>
