<svg width="566" height="327" viewBox="0 0 566 327" fill="none" xmlns="http://www.w3.org/2000/svg">
<g clip-path="url(#clip0_23820_155)">
<rect y="0.0466309" width="566" height="326" rx="16" fill="#FBFBFB"/>
<rect x="41" y="55.0466" width="335" height="166" rx="18.9011" fill="#F1F3F5"/>
<path d="M164.263 103.126H128.787V143.676H172.946L197.755 126.209V78.48L164.263 103.126Z" fill="#CFD4DA"/>
<path d="M219.59 79.1314H202.065V101.11H218.977L267.261 90.7383V65.5488L219.59 79.1314Z" fill="#CFD4DA"/>
<path d="M223.542 179.776H205.837V199.731H222.923L267.261 211.566V191.611L223.542 179.776Z" fill="#CFD4DA"/>
<path d="M236.331 101.109H203.682V123.2H238.786L267.261 123.2V101.109L236.331 101.109Z" fill="#CFD4DA"/>
<path d="M237.685 158.764H204.759V180.316H240.161L268.878 180.316V158.764L237.685 158.764Z" fill="#CFD4DA"/>
<path d="M171.212 143.675H134.714V177.807H171.212L202.605 200.25V158.923L171.212 143.675Z" fill="#CFD4DA"/>
<rect x="138" y="101.047" width="79" height="11" rx="5.38812" transform="rotate(90 138 101.047)" fill="#868E96"/>
<path d="M201.612 156.047C204.588 156.047 207 158.459 207 161.435L207 197.659C207 200.634 204.588 203.047 201.612 203.047L201.388 203.047C198.412 203.047 196 200.634 196 197.659L196 161.435C196 158.459 198.412 156.047 201.388 156.047L201.612 156.047Z" fill="#868E96"/>
<rect x="207" y="76.0466" width="50" height="11" rx="5.38812" transform="rotate(90 207 76.0466)" fill="#868E96"/>
<rect x="275" y="64.0466" width="27" height="12" rx="5.38812" transform="rotate(90 275 64.0466)" fill="#868E96"/>
<rect x="275" y="101.047" width="22" height="12" rx="5.38812" transform="rotate(90 275 101.047)" fill="#868E96"/>
<rect x="274.266" y="158.764" width="21.5525" height="11.8539" rx="5.38812" transform="rotate(90 274.266 158.764)" fill="#868E96"/>
<rect x="274" y="190.047" width="25" height="12" rx="5.38812" transform="rotate(90 274 190.047)" fill="#868E96"/>
<rect x="398" y="55.0466" width="126" height="249" rx="13.7854" fill="#EAEDF3"/>
<rect x="408.178" y="84.7942" width="105.919" height="5.94945" rx="2.97473" fill="#359C96"/>
<rect x="408.178" y="66.9456" width="82.0021" height="5.94945" rx="2.97473" fill="#359C96"/>
<rect x="408.92" y="105.617" width="104.434" height="5.94945" rx="2.97473" fill="#359C96"/>
<rect x="409.688" y="124.375" width="102.819" height="6.54655" rx="3.27328" fill="#359C96"/>
<rect x="408.92" y="165.112" width="104.434" height="5.94945" rx="2.97473" fill="#359C96"/>
<rect x="408.92" y="185.935" width="104.434" height="5.94945" rx="2.97473" fill="#359C96"/>
<rect x="408.92" y="206.758" width="104.434" height="5.94945" rx="2.97473" fill="#359C96"/>
<rect x="408.92" y="144.288" width="104.434" height="5.94945" rx="2.97473" fill="#359C96"/>
<rect y="0.0466309" width="566" height="33" fill="#70777E"/>
<circle cx="22.1645" cy="16.4646" r="6.15672" fill="white"/>
<circle cx="46.7905" cy="16.4646" r="6.15672" fill="white"/>
<circle cx="71.4184" cy="16.4646" r="6.15672" fill="white"/>
</g>
<defs>
<clipPath id="clip0_23820_155">
<rect y="0.0466309" width="566" height="326" rx="16" fill="white"/>
</clipPath>
</defs>
</svg>
