<svg width="35" height="36" viewBox="0 0 35 36" fill="none" xmlns="http://www.w3.org/2000/svg">
<path d="M19.25 9.61396H15.75V16.5962H8.75V20.0874H15.75V27.0697H19.25V20.0874H26.25V16.5962H19.25V9.61396ZM17.5 0.886108C7.84 0.886108 0 8.70627 0 18.3418C0 27.9774 7.84 35.7975 17.5 35.7975C27.16 35.7975 35 27.9774 35 18.3418C35 8.70627 27.16 0.886108 17.5 0.886108ZM17.5 32.3064C9.7825 32.3064 3.5 26.0398 3.5 18.3418C3.5 10.6439 9.7825 4.37725 17.5 4.37725C25.2175 4.37725 31.5 10.6439 31.5 18.3418C31.5 26.0398 25.2175 32.3064 17.5 32.3064Z" fill="white"/>
</svg>
