<svg width="62" height="66" viewBox="0 0 62 66" fill="none" xmlns="http://www.w3.org/2000/svg">
<path opacity="0.2" fill-rule="evenodd" clip-rule="evenodd" d="M34.7769 48.5798H10.2507V44.5864H34.7769V48.5798Z" fill="#DADAF8"/>
<path opacity="0.2" fill-rule="evenodd" clip-rule="evenodd" d="M34.7769 37.2649H10.2507V33.2715H34.7769V37.2649Z" fill="#DADAF8"/>
<path opacity="0.2" fill-rule="evenodd" clip-rule="evenodd" d="M34.7769 25.9504H10.2507V21.957H34.7769V25.9504Z" fill="#DADAF8"/>
<path fill-rule="evenodd" clip-rule="evenodd" d="M7.8822 57.8974C7.8822 57.6369 8.09337 57.4258 8.35386 57.4258H23.4622C23.7227 57.4258 23.9339 57.6369 23.9339 57.8974V61.6578C23.9339 61.9183 23.7227 62.1295 23.4622 62.1295H8.35386C8.09337 62.1295 7.8822 61.9183 7.8822 61.6578V57.8974ZM8.82551 58.3691V61.1862H22.9906V58.3691H8.82551Z" fill="#DADAF8"/>
<path fill-rule="evenodd" clip-rule="evenodd" d="M7.8822 20.1596C7.8822 19.8992 8.09337 19.688 8.35386 19.688H36.6405C36.901 19.688 37.1121 19.8992 37.1121 20.1596V27.7138C37.1121 27.9743 36.901 28.1855 36.6405 28.1855H8.35386C8.09337 28.1855 7.8822 27.9743 7.8822 27.7138V20.1596ZM8.82551 20.6313V27.2422H36.1688V20.6313H8.82551Z" fill="#DADAF8"/>
<path fill-rule="evenodd" clip-rule="evenodd" d="M7.8822 31.4746C7.8822 31.2141 8.09337 31.0029 8.35386 31.0029H36.6405C36.901 31.0029 37.1121 31.2141 37.1121 31.4746V39.0288C37.1121 39.2892 36.901 39.5004 36.6405 39.5004H8.35386C8.09337 39.5004 7.8822 39.2892 7.8822 39.0288V31.4746ZM8.82551 31.9462V38.5571H36.1688V31.9462H8.82551Z" fill="#DADAF8"/>
<path fill-rule="evenodd" clip-rule="evenodd" d="M7.8822 42.8222C7.8822 42.5618 8.09337 42.3506 8.35386 42.3506H36.6405C36.901 42.3506 37.1121 42.5618 37.1121 42.8222V50.3764C37.1121 50.6369 36.901 50.8481 36.6405 50.8481H8.35386C8.09337 50.8481 7.8822 50.6369 7.8822 50.3764V42.8222ZM8.82551 43.2939V49.9048H36.1688V43.2939H8.82551Z" fill="#DADAF8"/>
<path fill-rule="evenodd" clip-rule="evenodd" d="M0.361694 1.29099C0.361694 1.0305 0.572861 0.819336 0.833349 0.819336H61.2003C61.4608 0.819336 61.672 1.0305 61.672 1.29099V65.4517C61.672 65.7122 61.4608 65.9234 61.2003 65.9234H0.833349C0.572861 65.9234 0.361694 65.7122 0.361694 65.4517V1.29099ZM1.305 1.76264V64.9801H60.7287V1.76264H1.305Z" fill="#DADAF8"/>
<path fill-rule="evenodd" clip-rule="evenodd" d="M0.328003 54.1372C0.328003 53.8767 0.53917 53.6655 0.799657 53.6655H61.1999C61.4604 53.6655 61.6716 53.8767 61.6716 54.1372C61.6716 54.3977 61.4604 54.6088 61.1999 54.6088H0.799657C0.53917 54.6088 0.328003 54.3977 0.328003 54.1372Z" fill="#DADAF8"/>
<path fill-rule="evenodd" clip-rule="evenodd" d="M15.4364 10.7422C15.4364 10.4817 15.6476 10.2705 15.9081 10.2705H60.0352C60.2957 10.2705 60.5069 10.4817 60.5069 10.7422C60.5069 11.0026 60.2957 11.2138 60.0352 11.2138H15.9081C15.6476 11.2138 15.4364 11.0026 15.4364 10.7422Z" fill="#DADAF8"/>
<path fill-rule="evenodd" clip-rule="evenodd" d="M12.3254 7.45279C10.4305 7.36533 8.85871 8.8818 8.85871 10.742C8.85871 12.5475 10.3142 14.0308 12.1475 14.0308H12.2473C14.0168 14.0308 15.4363 12.6114 15.4363 10.8419C15.4363 9.03986 14.0483 7.51026 12.3315 7.45303L12.3254 7.45283L12.3254 7.45279ZM12.3659 6.51035C9.93598 6.39988 7.91541 8.34362 7.91541 10.742C7.91541 13.063 9.78777 14.9742 12.1475 14.9742H12.2473C14.5378 14.9742 16.3796 13.1323 16.3796 10.8419C16.3796 8.58494 14.641 6.5879 12.3659 6.51035Z" fill="#DADAF8"/>
<path fill-rule="evenodd" clip-rule="evenodd" d="M12.1476 9.31684C11.8935 9.31684 11.6874 9.52286 11.6874 9.777C11.6874 10.0311 11.8935 10.2372 12.1476 10.2372C12.4017 10.2372 12.6077 10.0311 12.6077 9.777C12.6077 9.52286 12.4017 9.31684 12.1476 9.31684ZM10.7441 9.777C10.7441 9.00191 11.3725 8.37354 12.1476 8.37354C12.9227 8.37354 13.551 9.00191 13.551 9.777C13.551 10.5521 12.9227 11.1805 12.1476 11.1805C11.3725 11.1805 10.7441 10.5521 10.7441 9.777Z" fill="#DADAF8"/>
<path fill-rule="evenodd" clip-rule="evenodd" d="M10.9496 13.0776C10.8061 13.0776 10.6635 13.1306 10.5124 13.2313L9.98914 12.4464C10.2373 12.2809 10.5607 12.1343 10.9496 12.1343H13.2458C13.654 12.1343 14.0457 12.2728 14.3447 12.5719L13.6777 13.2389C13.5774 13.1386 13.4366 13.0776 13.2458 13.0776H10.9496Z" fill="#DADAF8"/>
<path fill-rule="evenodd" clip-rule="evenodd" d="M0.361328 10.7422C0.361328 10.4817 0.572495 10.2705 0.832983 10.2705H8.35389C8.61438 10.2705 8.82554 10.4817 8.82554 10.7422C8.82554 11.0026 8.61438 11.2138 8.35389 11.2138H0.832983C0.572495 11.2138 0.361328 11.0026 0.361328 10.7422Z" fill="#DADAF8"/>
<path opacity="0.4" fill-rule="evenodd" clip-rule="evenodd" d="M53.6457 26.3118H42.3311V21.5952H53.6457V26.3118Z" fill="#DADAF8"/>
<path opacity="0.4" fill-rule="evenodd" clip-rule="evenodd" d="M53.6457 37.6268H42.3311V32.9102H53.6457V37.6268Z" fill="#DADAF8"/>
<path opacity="0.4" fill-rule="evenodd" clip-rule="evenodd" d="M53.6457 48.9412H42.3311V44.2246H53.6457V48.9412Z" fill="#DADAF8"/>
<path opacity="0.4" fill-rule="evenodd" clip-rule="evenodd" d="M53.6457 62.1526H29.1195V57.436H53.6457V62.1526Z" fill="#DADAF8"/>
</svg>
