<svg width="25" height="25" viewBox="0 0 25 25" fill="none" xmlns="http://www.w3.org/2000/svg">
<path fill-rule="evenodd" clip-rule="evenodd" d="M0 12.8392L4.68101 7.22202C6.53085 5.00222 9.27111 3.71875 12.1606 3.71875C15.0502 3.71875 17.7904 5.00222 19.6403 7.22202L24.3213 12.8392L19.6403 18.4564C17.7904 20.6762 15.0502 21.9597 12.1606 21.9597C9.27111 21.9597 6.53085 20.6763 4.68101 18.4564L0 12.8392ZM12.1606 17.3995C14.6792 17.3995 16.7209 15.3578 16.7209 12.8392C16.7209 10.3207 14.6792 8.27899 12.1606 8.27899C9.64209 8.27899 7.6004 10.3207 7.6004 12.8392C7.6004 15.3578 9.64209 17.3995 12.1606 17.3995Z" fill="white"/>
</svg>
