<svg width="70" height="46" viewBox="0 0 70 46" fill="none" xmlns="http://www.w3.org/2000/svg">
<path opacity="0.1" fill-rule="evenodd" clip-rule="evenodd" d="M10.9506 2.88758C9.1222 2.88758 7.64002 4.36975 7.64002 6.19811C7.64002 8.02647 9.1222 9.50865 10.9506 9.50865C12.7789 9.50865 14.2611 8.02647 14.2611 6.19811C14.2611 4.36975 12.7789 2.88758 10.9506 2.88758ZM4.81006 6.19811C4.81006 2.80679 7.55927 0.0576172 10.9506 0.0576172C14.3419 0.0576172 17.0911 2.8068 17.0911 6.19811C17.0911 9.58943 14.3419 12.3386 10.9506 12.3386C7.55927 12.3386 4.81006 9.58943 4.81006 6.19811Z" fill="#DADAF8"/>
<path opacity="0.1" d="M4.32821 37.3468C2.26495 37.3468 0.567749 35.6163 0.567749 33.4865V23.7692C0.567749 19.8091 3.7292 16.5811 7.58949 16.5811H9.98554L4.32821 37.3468Z" fill="#DADAF8"/>
<path opacity="0.1" fill-rule="evenodd" clip-rule="evenodd" d="M37.3737 2.88758C35.5453 2.88758 34.0631 4.36975 34.0631 6.19811C34.0631 8.02647 35.5453 9.50865 37.3737 9.50865C39.202 9.50865 40.6842 8.02647 40.6842 6.19811C40.6842 4.36975 39.202 2.88758 37.3737 2.88758ZM31.2332 6.19811C31.2332 2.80679 33.9824 0.0576172 37.3737 0.0576172C40.765 0.0576172 43.5142 2.80679 43.5142 6.19811C43.5142 9.58943 40.765 12.3386 37.3737 12.3386C33.9824 12.3386 31.2332 9.58943 31.2332 6.19811Z" fill="#DADAF8"/>
<path opacity="0.1" d="M30.7512 37.3468C28.6879 37.3468 26.9907 35.6163 26.9907 33.4865V23.7692C26.9907 19.8091 30.1522 16.5811 34.0125 16.5811H36.4085L30.7512 37.3468Z" fill="#DADAF8"/>
<path opacity="0.1" fill-rule="evenodd" clip-rule="evenodd" d="M63.7633 10.4418C61.9349 10.4418 60.4528 11.924 60.4528 13.7523C60.4528 15.5807 61.9349 17.0628 63.7633 17.0628C65.5917 17.0628 67.0739 15.5807 67.0739 13.7523C67.0739 11.924 65.5917 10.4418 63.7633 10.4418ZM57.6228 13.7523C57.6228 10.361 60.372 7.61182 63.7633 7.61182C67.1546 7.61182 69.9038 10.361 69.9038 13.7523C69.9038 17.1436 67.1546 19.8928 63.7633 19.8928C60.372 19.8928 57.6228 17.1436 57.6228 13.7523Z" fill="#DADAF8"/>
<path fill-rule="evenodd" clip-rule="evenodd" d="M7.68929 17.0527C4.02294 17.0527 1.03938 20.0363 1.03938 23.7027V33.553C1.03938 35.3891 2.52541 36.8751 4.36146 36.8751H11.8491C13.6905 36.8751 15.2045 35.3837 15.2045 33.553V23.7027C15.2045 20.0363 12.2209 17.0527 8.55453 17.0527H7.68929ZM0.0960693 23.7027C0.0960693 19.5153 3.50195 16.1094 7.68929 16.1094H8.55453C12.7419 16.1094 16.1478 19.5153 16.1478 23.7027V33.553C16.1478 35.9154 14.2008 37.8184 11.8491 37.8184H4.36146C2.00442 37.8184 0.0960693 35.91 0.0960693 33.553V23.7027Z" fill="#DADAF8"/>
<path fill-rule="evenodd" clip-rule="evenodd" d="M8.12187 3.84126C5.77252 3.84126 3.86799 5.74577 3.86799 8.09512C3.86799 10.4445 5.77252 12.349 8.12187 12.349C10.4712 12.349 12.3757 10.4445 12.3757 8.09512C12.3757 5.74577 10.4712 3.84126 8.12187 3.84126ZM2.92468 8.09512C2.92468 5.22479 5.25155 2.89795 8.12187 2.89795C10.9922 2.89795 13.319 5.22479 13.319 8.09512C13.319 10.9654 10.9922 13.2923 8.12187 13.2923C5.25155 13.2923 2.92468 10.9654 2.92468 8.09512Z" fill="#DADAF8"/>
<path fill-rule="evenodd" clip-rule="evenodd" d="M34.1124 17.0527C30.446 17.0527 27.4625 20.0363 27.4625 23.7027V33.553C27.4625 35.3891 28.9485 36.8751 30.7846 36.8751H38.2722C40.1056 36.8751 41.5964 35.3908 41.6276 33.5491V23.7027C41.6276 20.0363 38.644 17.0527 34.9776 17.0527H34.1124ZM26.5192 23.7027C26.5192 19.5153 29.9251 16.1094 34.1124 16.1094H34.9776C39.165 16.1094 42.5709 19.5153 42.5709 23.7027V33.5605C42.5336 35.9102 40.6306 37.8184 38.2722 37.8184H30.7846C28.4275 37.8184 26.5192 35.91 26.5192 33.553V23.7027Z" fill="#DADAF8"/>
<path fill-rule="evenodd" clip-rule="evenodd" d="M34.545 3.84126C32.1956 3.84126 30.2911 5.74577 30.2911 8.09512C30.2911 10.4445 32.1956 12.349 34.545 12.349C36.8943 12.349 38.7988 10.4445 38.7988 8.09512C38.7988 5.74577 36.8943 3.84126 34.545 3.84126ZM29.3478 8.09512C29.3478 5.22479 31.6746 2.89795 34.545 2.89795C37.4153 2.89795 39.7422 5.22479 39.7422 8.09512C39.7422 10.9654 37.4153 13.2923 34.545 13.2923C31.6746 13.2923 29.3478 10.9654 29.3478 8.09512Z" fill="#DADAF8"/>
<path fill-rule="evenodd" clip-rule="evenodd" d="M60.5354 24.6069C56.869 24.6069 53.8854 27.5905 53.8854 31.2569V41.1072C53.8854 42.9433 55.3715 44.4293 57.2075 44.4293H64.6952C66.5258 44.4293 68.0193 42.9146 68.0505 41.1033V31.2569C68.0505 27.5905 65.067 24.6069 61.4006 24.6069H60.5354ZM52.9421 31.2569C52.9421 27.0695 56.348 23.6636 60.5354 23.6636H61.4006C65.5879 23.6636 68.9938 27.0695 68.9938 31.2569V41.1148C68.9565 43.4284 67.0563 45.3726 64.6952 45.3726H57.2075C54.8505 45.3726 52.9421 43.4642 52.9421 41.1072V31.2569Z" fill="#DADAF8"/>
<path fill-rule="evenodd" clip-rule="evenodd" d="M60.9347 11.3955C58.5854 11.3955 56.6809 13.3 56.6809 15.6493C56.6809 17.9987 58.5854 19.9033 60.9347 19.9033C63.2841 19.9033 65.1886 17.9987 65.1886 15.6493C65.1886 13.3 63.2841 11.3955 60.9347 11.3955ZM55.7375 15.6493C55.7375 12.779 58.0644 10.4521 60.9347 10.4521C63.8051 10.4521 66.1319 12.779 66.1319 15.6493C66.1319 18.5196 63.8051 20.8466 60.9347 20.8466C58.0644 20.8466 55.7375 18.5196 55.7375 15.6493Z" fill="#DADAF8"/>
<path opacity="0.4" fill-rule="evenodd" clip-rule="evenodd" d="M13.7792 45.3621H2.4646V40.6455H13.7792V45.3621Z" fill="#DADAF8"/>
<path opacity="0.4" fill-rule="evenodd" clip-rule="evenodd" d="M40.2022 45.3621H28.8876V40.6455H40.2022V45.3621Z" fill="#DADAF8"/>
</svg>
