<svg width="78" height="51" viewBox="0 0 78 51" fill="none" xmlns="http://www.w3.org/2000/svg">
<path opacity="0.1" d="M62.9937 21.0562C57.6359 21.0562 53.3097 25.4822 53.3097 30.9066C53.3097 31.6387 53.3097 32.8701 53.3097 32.8701H45.4893C45.4893 32.8701 45.5559 29.2759 46.3213 25.7484C46.9203 22.9863 50.4145 16.4305 55.373 15.1327C52.511 9.27566 46.5875 5.28223 39.7321 5.28223C30.0814 5.28223 22.2943 13.2358 22.2943 23.0196C26.6537 24.5837 28.118 28.0447 28.4508 32.8701H21.9282C21.1295 30.5738 18.9664 28.9099 16.4373 28.9099C14.4406 28.9099 12.6768 29.9416 11.6452 31.4724C11.4455 31.7719 16.1711 32.504 16.1711 33.3692C16.1711 36.6305 16.4373 38.7936 16.4373 40.757H20.1312V38.8602C20.1312 36.7303 35.2396 36.4974 35.2396 38.8602V40.757H62.9937C68.3515 40.757 72.6777 36.331 72.6777 30.9066C72.6777 25.4822 68.3515 21.0562 62.9937 21.0562Z" fill="#DADAF8"/>
<path fill-rule="evenodd" clip-rule="evenodd" d="M63.1601 17.4345C55.9404 17.4345 50.0542 23.4056 50.0542 30.7734H49.1109C49.1109 22.8996 55.4046 16.4912 63.1601 16.4912C70.9157 16.4912 77.2094 22.8996 77.2094 30.7734C77.2094 38.6471 70.9157 45.0556 63.1601 45.0556H39.8987C39.8986 45.0556 39.8986 45.0556 39.8986 44.5839C39.8986 44.1123 39.8986 44.1123 39.8987 44.1123H63.1601C70.3799 44.1123 76.2661 38.1411 76.2661 30.7734C76.2661 23.4056 70.3799 17.4345 63.1601 17.4345Z" fill="#DADAF8"/>
<path fill-rule="evenodd" clip-rule="evenodd" d="M16.6037 25.288C12.6211 25.288 9.19932 27.8804 7.93087 31.5272L7.03992 31.2173C8.43374 27.21 12.2001 24.3447 16.6037 24.3447C19.9207 24.3447 22.8881 25.9513 24.7374 28.4636L23.9777 29.0228C22.2995 26.7429 19.6096 25.288 16.6037 25.288Z" fill="#DADAF8"/>
<path fill-rule="evenodd" clip-rule="evenodd" d="M16.3707 45.0224V44.0791H20.1645V45.0224H16.3707Z" fill="#DADAF8"/>
<path fill-rule="evenodd" clip-rule="evenodd" d="M28.7503 44.0791V45.0224H26.5872V44.0791H28.7503Z" fill="#DADAF8"/>
<path fill-rule="evenodd" clip-rule="evenodd" d="M39.8985 44.0791V45.0224H35.2395V44.0791H39.8985Z" fill="#DADAF8"/>
<path fill-rule="evenodd" clip-rule="evenodd" d="M39.8986 1.66059C28.3861 1.66059 19.0388 11.1591 19.0388 22.8864H18.0955C18.0955 10.6534 27.85 0.717285 39.8986 0.717285C48.7141 0.717285 56.263 6.02749 59.7291 13.6393L58.8706 14.0302C55.5479 6.73325 48.3212 1.66059 39.8986 1.66059Z" fill="#DADAF8"/>
<path fill-rule="evenodd" clip-rule="evenodd" d="M20.6029 42.6199C20.6029 42.6199 20.6021 42.6739 20.706 42.7777C20.8095 42.8813 20.9869 43.0021 21.254 43.1209C22.3051 43.5845 24.2318 43.9471 26.5738 44.0461L26.5853 44.0465L26.5966 44.0476C26.9375 44.0786 27.3148 44.0789 27.6854 44.0789C27.8558 44.0789 28.0283 44.0711 28.2084 44.0628L28.2258 44.062C28.3938 44.0541 28.5706 44.0459 28.7415 44.0456C30.5454 43.9796 32.1245 43.7582 33.2396 43.4435C33.8014 43.285 34.218 43.1103 34.4834 42.9378C34.6152 42.8521 34.6919 42.7783 34.7325 42.7238C34.7519 42.6978 34.7606 42.6794 34.7644 42.6691C34.7679 42.6596 34.7679 42.6551 34.7679 42.6537V40.1011C34.6429 40.1683 34.509 40.2311 34.3684 40.2896C33.6455 40.5904 32.6454 40.8217 31.4779 40.9578C31.361 40.9766 31.2401 40.9859 31.1415 40.9934L31.1326 40.9941C31.0199 41.0028 30.9333 41.0098 30.8578 41.0224L30.8442 41.0246L30.8305 41.0261C29.8834 41.1276 28.8017 41.1952 27.6521 41.1952C26.5023 41.1952 25.4211 41.1275 24.4421 41.0263C23.4515 40.9238 22.5923 40.7525 21.8652 40.5448L21.8592 40.5431C21.852 40.5409 21.8447 40.5387 21.8374 40.5365C21.5206 40.4415 21.1551 40.3318 20.8521 40.1803C20.7661 40.1374 20.6828 40.0932 20.6029 40.0476V42.6199ZM19.6595 38.8267V42.6199C19.6595 42.9526 19.8266 43.2325 20.039 43.4448C20.2515 43.6573 20.5399 43.8358 20.8714 43.9832L20.8726 43.9837C22.0827 44.5175 24.1445 44.8867 26.5228 44.9881C26.9064 45.0222 27.3182 45.0222 27.6735 45.0222H27.6854C27.881 45.0222 28.0746 45.0133 28.2522 45.0051L28.2592 45.0047C28.4381 44.9964 28.599 44.9889 28.7503 44.9889H28.7589L28.7674 44.9886C30.6207 44.9212 32.2831 44.6936 33.4958 44.3514C34.0986 44.1813 34.6181 43.9753 34.9975 43.7287C35.3573 43.4949 35.7112 43.1428 35.7112 42.6537V38.894L34.7679 38.8932M20.1312 38.8267L19.6595 38.8267C19.6595 38.8267 19.6595 38.8267 19.6595 38.8267M20.6029 38.8267C20.6029 38.8267 20.6029 38.8267 20.6029 38.8267L20.1312 38.8267L20.6029 38.8267ZM20.6029 38.8267C20.6029 38.8292 20.6036 38.8383 20.6128 38.8563C20.6244 38.8791 20.6496 38.9166 20.7015 38.9671C20.8091 39.0719 20.9927 39.196 21.2739 39.3366C21.4957 39.4475 21.7848 39.5358 22.1273 39.6386C22.7973 39.8298 23.601 39.9909 24.5392 40.088C25.4904 40.1864 26.539 40.2519 27.6521 40.2519C28.7603 40.2519 29.8039 40.1869 30.7173 40.0895C30.8335 40.071 30.9534 40.0618 31.0514 40.0543L31.0603 40.0536C31.173 40.0449 31.2596 40.0379 31.335 40.0253L31.3466 40.0234L31.3583 40.0221C32.4822 39.8917 33.3916 39.6743 34.0059 39.4187C34.3149 39.2901 34.5243 39.162 34.6487 39.0499C34.7095 38.9951 34.7406 38.9524 34.7556 38.9252C34.7627 38.9121 34.7657 38.9034 34.7669 38.8991C34.7678 38.8955 34.7679 38.8937 34.7679 38.8932" fill="#DADAF8"/>
<path fill-rule="evenodd" clip-rule="evenodd" d="M20.6029 43.908V46.4475C20.6029 46.4498 20.603 46.4561 20.6082 46.4689C20.6137 46.4827 20.6258 46.5059 20.6517 46.5379C20.7058 46.6047 20.8046 46.6908 20.9675 46.7877C21.2942 46.9818 21.7982 47.172 22.4624 47.3376C23.7836 47.6669 25.6319 47.8727 27.6854 47.8727C29.7543 47.8727 31.6023 47.6588 32.9192 47.3255C33.5812 47.158 34.083 46.9667 34.4079 46.7736C34.5702 46.6772 34.6684 46.592 34.7219 46.5266C34.7475 46.4953 34.759 46.4732 34.764 46.461C34.7664 46.4551 34.7673 46.4514 34.7676 46.4497L34.7679 46.448L34.7679 46.4475V43.9045C34.4197 44.0946 33.9868 44.2593 33.4987 44.4005C32.2882 44.7507 30.6298 44.9867 28.7801 45.0547C28.3974 45.0888 28.05 45.0888 27.6931 45.0888H27.6854C27.4738 45.0888 27.2725 45.08 27.0862 45.0717L27.079 45.0714C26.8923 45.0631 26.7224 45.0555 26.5539 45.0555H26.544L26.534 45.0551C24.1544 44.9545 22.0505 44.5858 20.8678 44.0482L20.8599 44.0446L20.8521 44.0407C20.7661 43.9977 20.6828 43.9536 20.6029 43.908ZM19.6595 42.687V46.4475C19.6595 46.9808 20.0751 47.3546 20.4856 47.5986C20.9254 47.86 21.53 48.0774 22.2343 48.2529C23.6503 48.6058 25.5791 48.816 27.6854 48.816C29.8095 48.816 31.7387 48.5973 33.1506 48.24C33.853 48.0623 34.4535 47.8438 34.8898 47.5846C35.2939 47.3444 35.7112 46.975 35.7112 46.4475V42.687H34.7679C34.7679 42.6885 34.7679 42.6933 34.7641 42.7034C34.7601 42.7143 34.7511 42.7333 34.7314 42.76C34.6902 42.8159 34.6128 42.891 34.4807 42.9781C34.2149 43.1535 33.7981 43.3319 33.2366 43.4943C32.1204 43.8172 30.539 44.0469 28.7332 44.1125L28.7204 44.113L28.7076 44.1141C28.366 44.1452 28.0539 44.1455 27.6854 44.1455C27.4977 44.1455 27.3163 44.1377 27.1281 44.1293L27.1119 44.1286C26.9351 44.1207 26.7504 44.1125 26.5641 44.1122C24.2286 44.0128 22.2806 43.6515 21.2661 43.193C20.9893 43.054 20.8081 42.9313 20.7015 42.8275C20.6496 42.7769 20.6244 42.7395 20.6128 42.7167C20.6036 42.6987 20.6029 42.6902 20.6029 42.6877V42.687H19.6595Z" fill="#DADAF8"/>
<path fill-rule="evenodd" clip-rule="evenodd" d="M27.7514 37.4682C25.5121 37.4682 23.5315 37.6996 22.2266 38.0816L22.2204 38.0834C21.6466 38.2428 21.2249 38.4258 20.958 38.6037C20.6839 38.7864 20.6697 38.8945 20.6689 38.8944C20.6695 38.9023 20.6765 38.9552 20.772 39.0508C20.8757 39.1544 21.0532 39.2754 21.3206 39.3942L21.3304 39.3986L21.34 39.4034C21.5652 39.516 21.8301 39.6062 22.1849 39.703L22.1933 39.7053C23.4982 40.0872 25.4788 40.3187 27.7182 40.3187C29.0608 40.3187 30.3349 40.2203 31.408 40.0578L31.409 40.0576C32.5053 39.894 33.4019 39.6684 34.0118 39.4114C34.3186 39.2821 34.5267 39.1556 34.6505 39.0448C34.7108 38.9908 34.7414 38.9491 34.7558 38.9229C34.7627 38.9104 34.7654 38.9023 34.7665 38.8985C34.7675 38.8948 34.7674 38.8935 34.7674 38.8934C34.7674 38.8932 34.7674 38.8918 34.7664 38.8882C34.7653 38.8842 34.7626 38.8759 34.7556 38.8632C34.741 38.8366 34.7102 38.7946 34.6499 38.7401C34.5262 38.6283 34.3192 38.5009 34.0158 38.3695C33.4199 38.1113 32.5526 37.8804 31.5053 37.7011H31.4501L31.4219 37.6977C30.3384 37.5664 29.0931 37.4682 27.7514 37.4682ZM21.9647 37.1753C23.3886 36.7591 25.4666 36.5249 27.7514 36.5249C29.1268 36.5249 30.4007 36.6246 31.507 36.7578H31.5848L31.6239 36.7644C32.7223 36.9503 33.6878 37.1994 34.3907 37.5039C34.7404 37.6553 35.0513 37.8315 35.2822 38.0401C35.5118 38.2474 35.7107 38.5331 35.7107 38.8934C35.7107 39.2541 35.5114 39.5402 35.2796 39.7477C35.0467 39.9561 34.7328 40.1312 34.3781 40.2807C33.6653 40.581 32.6819 40.8214 31.5488 40.9905C30.4255 41.1607 29.1041 41.262 27.7182 41.262C25.4339 41.262 23.3564 41.0279 21.9325 40.6119C21.5609 40.5104 21.2312 40.4024 20.9278 40.2519C20.6003 40.1054 20.3154 39.9282 20.105 39.7178C19.8927 39.5055 19.7256 39.2261 19.7256 38.8934C19.7256 38.4145 20.0753 38.0585 20.4348 37.8188C20.8162 37.5646 21.3419 37.3486 21.9647 37.1753Z" fill="#DADAF8"/>
<path fill-rule="evenodd" clip-rule="evenodd" d="M1.76728 37.0295C1.76728 37.0296 1.76659 37.0836 1.87041 37.1875C1.97161 37.2887 2.14324 37.4064 2.40025 37.5225C2.45285 37.5408 2.49721 37.5585 2.53264 37.5727L2.53556 37.5738C2.55943 37.5834 2.57934 37.5913 2.59853 37.5985C2.73193 37.6195 2.8414 37.6741 2.88809 37.6982C3.17956 37.8125 3.5393 37.9035 3.96412 38.0015L3.98596 38.0066L4.00614 38.0133C4.00682 38.0135 4.01208 38.0149 4.024 38.0171C4.04085 38.0202 4.06019 38.023 4.09113 38.0275C4.09418 38.0279 4.09746 38.0284 4.10095 38.0288C4.14562 38.0351 4.2251 38.0463 4.30585 38.0696C4.37831 38.0838 4.45775 38.0983 4.54147 38.1135L4.54379 38.1139C4.62231 38.1282 4.70464 38.1432 4.78237 38.1584C4.81244 38.161 4.83873 38.1651 4.86002 38.1691C4.89087 38.1749 4.91955 38.182 4.93469 38.1858L4.93737 38.1865L4.94785 38.1891H4.98104L5.03737 38.2032C5.06732 38.2106 5.10895 38.2161 5.19134 38.2252C5.19466 38.2256 5.19809 38.226 5.2016 38.2264C5.26136 38.233 5.34818 38.2426 5.43513 38.2615C5.7191 38.2931 6.00161 38.3244 6.31288 38.3557C6.41202 38.3571 6.49961 38.3669 6.56584 38.3743L6.57247 38.375C6.64976 38.3836 6.69991 38.3888 6.75328 38.3888H6.77681L6.80021 38.3911C7.12963 38.4241 7.50984 38.4553 7.85147 38.4553H8.81654C10.8855 38.4553 12.7334 38.2414 14.0503 37.9082C14.7124 37.7406 15.2142 37.5493 15.5391 37.3563C15.7013 37.2598 15.7996 37.1746 15.853 37.1092C15.8786 37.0779 15.8902 37.0558 15.8951 37.0436C15.8975 37.0377 15.8984 37.034 15.8988 37.0323L15.8991 37.0306L15.8991 34.4486C15.7754 34.5162 15.643 34.5795 15.5041 34.6391C14.782 34.9485 13.7811 35.1974 12.6129 35.3668C11.4898 35.5369 10.1688 35.6381 8.78326 35.6381H8.21753C8.08286 35.6381 7.95944 35.6287 7.85461 35.6206L7.84863 35.6201C7.73842 35.6117 7.64767 35.6049 7.55196 35.6049H7.4939L7.43757 35.5908C7.36973 35.5739 7.29438 35.5716 7.15262 35.5716H6.90581L6.89198 35.5708C6.30923 35.5365 5.73028 35.4682 5.2267 35.4011L5.20039 35.3976L5.17464 35.3911C5.14469 35.3836 5.10305 35.3782 5.02066 35.3691C5.01735 35.3687 5.01393 35.3683 5.01042 35.3679C4.94789 35.361 4.85574 35.3508 4.76482 35.33C4.11881 35.2272 3.54236 35.0912 3.03769 34.9567L3.03066 34.9548L3.02369 34.9527C3.01643 34.9505 3.00914 34.9483 3.00183 34.9461C2.68505 34.8511 2.31949 34.7415 2.01649 34.59C1.93058 34.547 1.84726 34.5029 1.76728 34.4573V37.0295ZM0.823975 33.2363V37.0295C0.823975 37.3623 0.991063 37.6422 1.20338 37.8545C1.41589 38.067 1.70429 38.2456 2.03587 38.3929L2.05667 38.4022L2.07827 38.4094C2.11352 38.4211 2.14335 38.4329 2.18552 38.4498L2.18842 38.4509C2.22905 38.4672 2.28142 38.4881 2.3445 38.5091L2.41711 38.5334H2.44822L2.46001 38.539L2.48239 38.5502L2.49994 38.559L2.51815 38.5662C2.88385 38.7125 3.30954 38.8184 3.73462 38.9167C3.81823 38.9416 3.90173 38.9534 3.94797 38.9599C3.95146 38.9604 3.95474 38.9609 3.95779 38.9613C3.98872 38.9657 4.00806 38.9685 4.02491 38.9717C4.0368 38.9739 4.04207 38.9753 4.04277 38.9755C4.04275 38.9754 4.04279 38.9755 4.04277 38.9755L4.06956 38.9844L4.09835 38.9901C4.1856 39.0076 4.28048 39.0248 4.37036 39.0412L4.37268 39.0416C4.46515 39.0584 4.55242 39.0743 4.6308 39.09L4.6766 39.0991H4.69842L4.7089 39.1017L4.71157 39.1024C4.7267 39.1062 4.75539 39.1134 4.78626 39.1191C4.80562 39.1228 4.82913 39.1265 4.85585 39.1291C4.93859 39.1463 5.02005 39.1553 5.07697 39.1616C5.08048 39.162 5.0839 39.1624 5.08722 39.1628C5.16961 39.1719 5.21125 39.1773 5.2412 39.1848L5.27198 39.1925L5.3083 39.1966C5.60599 39.2296 5.90652 39.263 6.24045 39.2964L6.26386 39.2988H6.28739C6.34076 39.2988 6.39091 39.3039 6.4682 39.3125L6.47483 39.3133C6.5411 39.3207 6.62875 39.3304 6.72796 39.3319C7.06033 39.3648 7.4693 39.3986 7.85147 39.3986H8.81654C10.9407 39.3986 12.8699 39.1799 14.2817 38.8226C14.9841 38.6449 15.5847 38.4265 16.021 38.1672C16.4251 37.9271 16.8424 37.5576 16.8424 37.0301V33.2365C16.8424 33.2365 16.8424 33.2365 16.8424 33.2365L15.8991 33.2363C15.8991 33.2368 15.899 33.2386 15.898 33.2423C15.8968 33.2467 15.8938 33.2554 15.8866 33.2687C15.8715 33.2963 15.84 33.3395 15.7788 33.395C15.6533 33.5088 15.4428 33.6391 15.1325 33.772C14.5154 34.0365 13.6035 34.2701 12.4761 34.4335L12.4731 34.4339C11.4001 34.5965 10.1259 34.6948 8.78326 34.6948H8.21753C8.12182 34.6948 8.03107 34.6881 7.92087 34.6796L7.91489 34.6792C7.82427 34.6722 7.71976 34.6642 7.6061 34.6621C7.43766 34.6281 7.27917 34.6282 7.16786 34.6283C7.16268 34.6283 7.1576 34.6283 7.15262 34.6283H6.93377C6.39799 34.5963 5.85894 34.5334 5.37417 34.4691C5.28536 34.4493 5.19608 34.4394 5.13503 34.4327C5.13152 34.4323 5.1281 34.4319 5.12479 34.4315C5.0424 34.4224 5.00076 34.4169 4.97081 34.4094L4.95058 34.4044L4.92998 34.4011C4.32163 34.3051 3.77498 34.1768 3.28775 34.0471C2.94696 33.9448 2.6593 33.8568 2.43835 33.7463C2.15714 33.6057 1.97356 33.4816 1.86594 33.3768C1.81402 33.3262 1.78882 33.2888 1.77719 33.266C1.76801 33.248 1.76732 33.2395 1.76728 33.237C1.76728 33.237 1.76728 33.237 1.76728 33.237L0.823975 33.2363C0.823975 33.2363 0.823975 33.2363 0.823975 33.2363Z" fill="#DADAF8"/>
<path fill-rule="evenodd" clip-rule="evenodd" d="M1.73402 40.7766L1.73425 40.7779C1.73475 40.78 1.73596 40.7842 1.73886 40.7908C1.74479 40.8042 1.75789 40.8275 1.78546 40.8597C1.84285 40.9267 1.94566 41.0122 2.11182 41.1079C2.4445 41.2995 2.95267 41.4873 3.61725 41.6509C4.93952 41.9764 6.78021 42.1821 8.81656 42.1821C9.50103 42.1821 10.1882 42.1496 10.8192 42.1164C12.3755 42.0179 13.7056 41.7894 14.6371 41.4894C15.1059 41.3384 15.4481 41.1774 15.6651 41.0234C15.7725 40.9471 15.835 40.8825 15.8685 40.8352C15.8846 40.8125 15.8922 40.7962 15.8958 40.7866C15.8978 40.7813 15.8987 40.7776 15.8991 40.7752V38.2471C15.4709 38.4792 14.9092 38.6748 14.2632 38.8353C12.843 39.1882 10.906 39.3983 8.78328 39.3983H7.79681L7.7755 39.3964C7.60487 39.3808 7.43249 39.3729 7.24771 39.3645L7.24289 39.3643C7.06918 39.3564 6.88419 39.348 6.69728 39.3316C6.59701 39.3303 6.50841 39.3204 6.44157 39.3129L6.43494 39.3122C6.35765 39.3036 6.3075 39.2984 6.25412 39.2984H6.2306L6.20719 39.2961C5.87329 39.2627 5.57279 39.2293 5.27514 39.1962L5.23871 39.1922L5.20793 39.1845C5.17798 39.177 5.13635 39.1716 5.05396 39.1624C5.05064 39.1621 5.04722 39.1617 5.04371 39.1613C4.98679 39.155 4.90533 39.146 4.82259 39.1288C4.79587 39.1262 4.77236 39.1224 4.75299 39.1188C4.72213 39.113 4.69344 39.1058 4.67831 39.1021L4.67564 39.1014L4.66516 39.0988H4.651L4.6125 39.0924C4.4058 39.058 4.23349 39.0235 4.06837 38.9905L4.03629 38.984L4.00951 38.9751C4.00883 38.9749 4.00357 38.9735 3.99165 38.9713C3.9748 38.9682 3.95546 38.9654 3.92452 38.961C3.92147 38.9605 3.9182 38.9601 3.9147 38.9596C3.86847 38.9531 3.78496 38.9413 3.70135 38.9163C3.29956 38.8234 2.89722 38.7238 2.54552 38.5896C2.42669 38.5693 2.32796 38.5231 2.27751 38.4976C2.19177 38.469 2.07428 38.429 1.98323 38.3835C1.89731 38.3405 1.81399 38.2963 1.73402 38.2507V40.7766ZM0.79071 37.0298V40.7979L0.790956 40.8055C0.807834 41.3287 1.23232 41.69 1.64109 41.9254C2.08318 42.18 2.68775 42.3936 3.39175 42.5669C4.80662 42.9152 6.72639 43.1255 8.81656 43.1255C9.52887 43.1255 10.2385 43.0916 10.8713 43.0583L10.8763 43.058C12.4804 42.9567 13.8949 42.7194 14.9263 42.3873C15.4392 42.2221 15.8832 42.0254 16.2112 41.7926C16.5262 41.5689 16.8253 41.2446 16.8421 40.8084L16.8424 40.7993V37.0298H15.8991C15.8991 37.0321 15.8989 37.0384 15.8938 37.0511C15.8883 37.0649 15.8761 37.0881 15.8502 37.1201C15.7962 37.1868 15.6973 37.273 15.5341 37.3698C15.207 37.564 14.702 37.7542 14.0357 37.9198C12.7104 38.2491 10.8537 38.455 8.78328 38.455H7.83932C7.653 38.4387 7.46851 38.4303 7.29535 38.4224L7.29052 38.4222C7.10573 38.4138 6.93336 38.4059 6.76272 38.3904L6.74141 38.3884H6.72002C6.66664 38.3884 6.61649 38.3833 6.53921 38.3747L6.53258 38.3739C6.46634 38.3666 6.37875 38.3568 6.27961 38.3553C5.96834 38.3241 5.68583 38.2928 5.40186 38.2612C5.31491 38.2422 5.22809 38.2326 5.16833 38.226C5.16482 38.2256 5.1614 38.2253 5.15808 38.2249C5.07569 38.2157 5.03405 38.2103 5.0041 38.2028L4.94777 38.1887H4.91459L4.90411 38.1862L4.90143 38.1855C4.8863 38.1817 4.85762 38.1745 4.82675 38.1688C4.80346 38.1644 4.77417 38.1598 4.7405 38.1574C4.56978 38.1285 4.4236 38.0995 4.27304 38.0694C4.19214 38.0461 4.11244 38.0348 4.06768 38.0285C4.06419 38.028 4.06091 38.0276 4.05786 38.0271C4.02692 38.0227 4.00759 38.0199 3.99074 38.0168C3.97882 38.0145 3.97356 38.0131 3.97288 38.013L3.95269 38.0062L3.93086 38.0012C3.49647 37.901 3.13011 37.808 2.83522 37.6901L2.75089 37.6563H2.70548L2.6937 37.6506L2.67132 37.6395L2.64134 37.6245L2.60954 37.6139C2.49619 37.5761 2.43451 37.5544 2.40509 37.5397C2.12387 37.3991 1.94029 37.275 1.83267 37.1702C1.78075 37.1197 1.75555 37.0822 1.74392 37.0594C1.73475 37.0414 1.73406 37.033 1.73402 37.0305L0.79071 37.0298Z" fill="#DADAF8"/>
<path fill-rule="evenodd" clip-rule="evenodd" d="M14.9263 42.3956C13.897 42.7271 12.4843 42.9728 10.8812 43.091L10.8701 43.0918L10.8701 43.0916L10.8659 43.0919C10.2032 43.125 9.52752 43.1588 8.81656 43.1588C6.71002 43.1588 4.79003 42.9485 3.37894 42.6001C2.72803 42.4393 2.16334 42.2439 1.73402 42.0131V44.584C1.73402 44.5863 1.73421 44.5926 1.73933 44.6054C1.74486 44.6192 1.757 44.6424 1.7829 44.6744C1.83695 44.7412 1.93576 44.8273 2.0987 44.9242C2.42532 45.1183 2.92937 45.3085 3.5936 45.4741C4.91475 45.8034 6.76306 46.0092 8.81656 46.0092C10.8855 46.0092 12.7334 45.7953 14.0504 45.462C14.7124 45.2945 15.2142 45.1032 15.5391 44.9101C15.7014 44.8137 15.7996 44.7284 15.853 44.6631C15.8786 44.6318 15.8902 44.6097 15.8951 44.5975C15.8975 44.5915 15.8984 44.5878 15.8988 44.5862L15.8991 44.5845L15.8991 44.584V41.9969C15.6214 42.1455 15.2915 42.278 14.9263 42.3956ZM15.8996 40.8022C15.8996 40.8023 15.8995 40.8031 15.8995 40.8046L16.8424 40.8235V44.584C16.8424 45.1115 16.4251 45.4809 16.021 45.721C15.5847 45.9803 14.9841 46.1988 14.2818 46.3765C12.8699 46.7338 10.9407 46.9525 8.81656 46.9525C6.71026 46.9525 4.78147 46.7423 3.36547 46.3894C2.66113 46.2138 2.05659 45.9964 1.61677 45.7351C1.20622 45.4911 0.79071 45.1173 0.79071 44.584V40.8235L1.73377 40.8083C1.73378 40.8086 1.73383 40.8097 1.73436 40.8119C1.73491 40.8143 1.73617 40.8187 1.73909 40.8254C1.74505 40.839 1.75808 40.8623 1.78533 40.8944C1.84203 40.9611 1.9437 41.0464 2.10833 41.1419C2.4381 41.333 2.9428 41.5207 3.6051 41.6843C4.92283 42.0097 6.7633 42.2155 8.81656 42.2155C9.49989 42.2155 10.1522 42.183 10.8174 42.1498C12.3734 42.0348 13.7041 41.7982 14.6371 41.4977C15.107 41.3464 15.4507 41.1868 15.669 41.0352C15.8831 40.8865 15.899 40.8021 15.8996 40.8022Z" fill="#DADAF8"/>
<path fill-rule="evenodd" clip-rule="evenodd" d="M1.73402 44.584V48.3445C1.73402 48.3468 1.73421 48.3531 1.73933 48.3658C1.74486 48.3797 1.757 48.4029 1.7829 48.4349C1.83695 48.5017 1.93576 48.5878 2.0987 48.6846C2.42532 48.8788 2.92937 49.069 3.5936 49.2346C4.91475 49.5638 6.76306 49.7697 8.81656 49.7697C10.8855 49.7697 12.7334 49.5557 14.0504 49.2225C14.7124 49.055 15.2142 48.8637 15.5391 48.6706C15.7014 48.5742 15.7996 48.4889 15.853 48.4236C15.8786 48.3923 15.8902 48.3701 15.8951 48.358C15.8975 48.352 15.8984 48.3483 15.8988 48.3466L15.8991 48.3449L15.8991 48.3445V44.584H16.8424V48.3445C16.8424 48.8719 16.4251 49.2414 16.021 49.4815C15.5847 49.7408 14.9841 49.9593 14.2818 50.137C12.8699 50.4943 10.9407 50.713 8.81656 50.713C6.71026 50.713 4.78147 50.5028 3.36547 50.1499C2.66113 49.9743 2.05659 49.7569 1.61677 49.4956C1.20622 49.2516 0.79071 48.8778 0.79071 48.3445V44.584H1.73402Z" fill="#DADAF8"/>
<path fill-rule="evenodd" clip-rule="evenodd" d="M8.91714 31.7778C8.44786 31.7778 8.03361 31.778 7.62218 31.8096L7.61335 31.8103L7.60449 31.8106C5.93585 31.8761 4.44192 32.105 3.38501 32.3931C2.81178 32.5524 2.39051 32.7354 2.12376 32.9132C1.84966 33.0959 1.83539 33.2041 1.83465 33.204C1.83516 33.2119 1.84219 33.2648 1.93773 33.3603C2.04137 33.464 2.21887 33.5849 2.4863 33.7038L2.49609 33.7081L2.50568 33.7129C2.73064 33.8254 2.99513 33.9155 3.34933 34.0122C3.83796 34.1425 4.38653 34.2713 4.9973 34.3677L5.0179 34.371L5.03813 34.376C5.07165 34.3844 5.11019 34.3899 5.18265 34.3984C5.18753 34.399 5.19256 34.3996 5.19774 34.4002C5.25954 34.4074 5.34173 34.417 5.43284 34.4345C5.91985 34.4993 6.462 34.5626 7.00097 34.5949H7.27801L7.33434 34.6089C7.40218 34.6259 7.47753 34.6282 7.61929 34.6282H7.65832L7.69683 34.6346C7.85035 34.6602 8.04131 34.6615 8.28485 34.6615H8.85059C10.1932 34.6615 11.4674 34.5631 12.5404 34.4006L12.5414 34.4004C13.6377 34.2368 14.5343 34.0112 15.1442 33.7542C15.451 33.6249 15.6591 33.4984 15.7829 33.3876C15.8432 33.3336 15.8738 33.2919 15.8882 33.2657C15.8951 33.2532 15.8978 33.2451 15.8989 33.2413C15.8999 33.2376 15.8998 33.2363 15.8998 33.2362C15.8998 33.236 15.8999 33.2346 15.8989 33.2309C15.8977 33.2268 15.8949 33.2184 15.8879 33.2055C15.8731 33.1786 15.8422 33.1363 15.7818 33.0814C15.6579 32.9688 15.4512 32.8403 15.1491 32.7067C14.5566 32.4446 13.6977 32.2061 12.6668 32.0107H12.6158L12.5876 32.0073C11.5041 31.876 10.2589 31.7778 8.91714 31.7778ZM8.90583 30.8345L8.91714 30.8345C10.2925 30.8345 11.5664 30.9342 12.6727 31.0674H12.7547L12.7978 31.0755C13.8777 31.278 14.8335 31.5356 15.5307 31.844C15.8775 31.9974 16.1866 32.1746 16.4162 32.3833C16.6444 32.5907 16.8432 32.8761 16.8432 33.2362C16.8432 33.5969 16.6438 33.883 16.412 34.0905C16.1792 34.2989 15.8652 34.474 15.5105 34.6235C14.7978 34.9238 13.8144 35.1641 12.6813 35.3333C11.558 35.5035 10.2366 35.6048 8.85059 35.6048L8.26579 35.6048C8.0594 35.6048 7.81082 35.6049 7.58288 35.5715C7.47368 35.5715 7.32539 35.5696 7.16828 35.5382H6.97314L6.9593 35.5374C6.37655 35.5031 5.79761 35.4348 5.29402 35.3676L5.27886 35.3656L5.26386 35.3626C5.20502 35.3509 5.1516 35.3446 5.08106 35.3363L5.07249 35.3353C5.00869 35.3278 4.92295 35.3177 4.83167 35.2965C4.18589 35.1937 3.6096 35.0579 3.10501 34.9233L3.10244 34.9226C2.72912 34.8208 2.39804 34.7126 2.09348 34.5615C1.76598 34.4149 1.48114 34.2378 1.2707 34.0273C1.05838 33.815 0.891296 33.5357 0.891296 33.203C0.891296 32.7241 1.24095 32.368 1.6005 32.1283C1.98251 31.8736 2.50932 31.6573 3.13358 31.4839L3.13572 31.4833C4.27318 31.1731 5.83703 30.9365 7.55875 30.8684C8.00585 30.8345 8.4503 30.8345 8.90583 30.8345Z" fill="#DADAF8"/>
</svg>
