<svg width="77" height="51" viewBox="0 0 77 51" fill="none" xmlns="http://www.w3.org/2000/svg">
<path opacity="0.1" d="M10.1801 0.845215L4.52276 49.8976H0.762329V0.845215H10.1801Z" fill="#DADAF8"/>
<path opacity="0.1" d="M30.9457 0.845215L25.2884 49.8976H21.528V0.845215H30.9457Z" fill="#DADAF8"/>
<path opacity="0.1" d="M51.7114 0.845215L46.0541 49.8976H42.2604V0.845215H51.7114Z" fill="#DADAF8"/>
<path opacity="0.1" d="M72.4439 0.845215L66.7866 49.8976H63.0261V0.845215H72.4439Z" fill="#DADAF8"/>
<path fill-rule="evenodd" clip-rule="evenodd" d="M0.290649 0.84519C0.290649 0.584702 0.501816 0.373535 0.762304 0.373535H13.9738C14.2343 0.373535 14.4455 0.584702 14.4455 0.84519V49.8975C14.4455 50.158 14.2343 50.3692 13.9738 50.3692H0.762304C0.501816 50.3692 0.290649 50.158 0.290649 49.8975V0.84519ZM1.23396 1.31684V49.4259H13.5021V1.31684H1.23396Z" fill="#DADAF8"/>
<path fill-rule="evenodd" clip-rule="evenodd" d="M21.0563 0.84519C21.0563 0.584702 21.2674 0.373535 21.5279 0.373535H34.7394C34.9999 0.373535 35.2111 0.584702 35.2111 0.84519V49.8975C35.2111 50.158 34.9999 50.3692 34.7394 50.3692H21.5279C21.2674 50.3692 21.0563 50.158 21.0563 49.8975V0.84519ZM21.9996 1.31684V49.4259H34.2678V1.31684H21.9996Z" fill="#DADAF8"/>
<path fill-rule="evenodd" clip-rule="evenodd" d="M41.7887 0.84519C41.7887 0.584702 41.9999 0.373535 42.2604 0.373535H55.4719C55.7324 0.373535 55.9435 0.584702 55.9435 0.84519V49.8975C55.9435 50.158 55.7324 50.3692 55.4719 50.3692H42.2604C41.9999 50.3692 41.7887 50.158 41.7887 49.8975V0.84519ZM42.732 1.31684V49.4259H55.0002V1.31684H42.732Z" fill="#DADAF8"/>
<path fill-rule="evenodd" clip-rule="evenodd" d="M62.5544 0.84519C62.5544 0.584702 62.7656 0.373535 63.0261 0.373535H76.2376C76.4981 0.373535 76.7093 0.584702 76.7093 0.84519V49.8975C76.7093 50.158 76.4981 50.3692 76.2376 50.3692H63.0261C62.7656 50.3692 62.5544 50.158 62.5544 49.8975V0.84519ZM63.4978 1.31684V49.4259H75.7659V1.31684H63.4978Z" fill="#DADAF8"/>
<path fill-rule="evenodd" clip-rule="evenodd" d="M2.1875 10.2632C2.1875 10.0027 2.39867 9.7915 2.65915 9.7915H12.077C12.3374 9.7915 12.5486 10.0027 12.5486 10.2632C12.5486 10.5236 12.3374 10.7348 12.077 10.7348H2.65915C2.39867 10.7348 2.1875 10.5236 2.1875 10.2632Z" fill="#DADAF8"/>
<path fill-rule="evenodd" clip-rule="evenodd" d="M2.1875 19.7143C2.1875 19.4538 2.39867 19.2427 2.65915 19.2427H12.077C12.3374 19.2427 12.5486 19.4538 12.5486 19.7143C12.5486 19.9748 12.3374 20.186 12.077 20.186H2.65915C2.39867 20.186 2.1875 19.9748 2.1875 19.7143Z" fill="#DADAF8"/>
<path fill-rule="evenodd" clip-rule="evenodd" d="M22.9199 29.1318C22.9199 28.8713 23.1311 28.6602 23.3916 28.6602H32.8426C33.1031 28.6602 33.3143 28.8713 33.3143 29.1318C33.3143 29.3923 33.1031 29.6035 32.8426 29.6035H23.3916C23.1311 29.6035 22.9199 29.3923 22.9199 29.1318Z" fill="#DADAF8"/>
<path fill-rule="evenodd" clip-rule="evenodd" d="M22.9199 38.583C22.9199 38.3225 23.1311 38.1113 23.3916 38.1113H32.8426C33.1031 38.1113 33.3143 38.3225 33.3143 38.583C33.3143 38.8435 33.1031 39.0546 32.8426 39.0546H23.3916C23.1311 39.0546 22.9199 38.8435 22.9199 38.583Z" fill="#DADAF8"/>
<path fill-rule="evenodd" clip-rule="evenodd" d="M43.6857 10.2632C43.6857 10.0027 43.8968 9.7915 44.1573 9.7915H53.5751C53.8356 9.7915 54.0467 10.0027 54.0467 10.2632C54.0467 10.5236 53.8356 10.7348 53.5751 10.7348H44.1573C43.8968 10.7348 43.6857 10.5236 43.6857 10.2632Z" fill="#DADAF8"/>
<path fill-rule="evenodd" clip-rule="evenodd" d="M43.6857 19.7143C43.6857 19.4538 43.8968 19.2427 44.1573 19.2427H53.5751C53.8356 19.2427 54.0467 19.4538 54.0467 19.7143C54.0467 19.9748 53.8356 20.186 53.5751 20.186H44.1573C43.8968 20.186 43.6857 19.9748 43.6857 19.7143Z" fill="#DADAF8"/>
<path fill-rule="evenodd" clip-rule="evenodd" d="M64.418 29.1318C64.418 28.8713 64.6291 28.6602 64.8896 28.6602H74.3407C74.6012 28.6602 74.8123 28.8713 74.8123 29.1318C74.8123 29.3923 74.6012 29.6035 74.3407 29.6035H64.8896C64.6291 29.6035 64.418 29.3923 64.418 29.1318Z" fill="#DADAF8"/>
<path fill-rule="evenodd" clip-rule="evenodd" d="M64.418 38.583C64.418 38.3225 64.6291 38.1113 64.8896 38.1113H74.3407C74.6012 38.1113 74.8123 38.3225 74.8123 38.583C74.8123 38.8435 74.6012 39.0546 74.3407 39.0546H64.8896C64.6291 39.0546 64.418 38.8435 64.418 38.583Z" fill="#DADAF8"/>
<path opacity="0.4" fill-rule="evenodd" clip-rule="evenodd" d="M13.9405 12.6214H10.1801V7.90479H13.9405C15.4279 7.90479 16.748 8.39204 17.7673 9.38224C18.7223 10.3099 19.23 11.5017 19.524 12.6032C20.077 14.6752 20.0765 17.2927 20.076 19.5007C20.0759 19.5667 20.0759 19.6323 20.0759 19.6975C20.0759 22.1668 20.0936 24.1715 20.4683 25.5755C20.6464 26.243 20.8469 26.5253 20.9542 26.6295L20.957 26.6322C21.0013 26.6755 21.1019 26.7736 21.4947 26.7736H25.2552V31.4902H21.4947C20.0073 31.4902 18.6873 31.003 17.6679 30.0128C16.7129 29.0851 16.2052 27.8933 15.9112 26.7918C15.3582 24.7198 15.3588 22.1023 15.3593 19.8943C15.3593 19.8283 15.3593 19.7627 15.3593 19.6975C15.3593 17.2282 15.3417 15.2235 14.9669 13.8195C14.7888 13.1521 14.5883 12.8697 14.481 12.7655C14.4801 12.7646 14.4792 12.7637 14.4782 12.7628C14.4339 12.7195 14.3333 12.6214 13.9405 12.6214Z" fill="#DADAF8"/>
<path opacity="0.4" fill-rule="evenodd" clip-rule="evenodd" d="M38.4668 19.0663C39.4862 18.0761 40.8063 17.5889 42.2937 17.5889H46.0541V22.3055H42.2937C41.9009 22.3055 41.8003 22.4036 41.756 22.4469C41.755 22.4478 41.7541 22.4487 41.7532 22.4496C41.6459 22.5538 41.4454 22.8361 41.2672 23.5036C40.8925 24.9076 40.8749 26.9123 40.8749 29.3816C40.8749 29.4468 40.8749 29.5124 40.8749 29.5784C40.8754 31.7864 40.876 34.4039 40.323 36.4759C40.029 37.5774 39.5213 38.7692 38.5663 39.6968C37.5469 40.687 36.2269 41.1743 34.7395 41.1743H30.979V36.4577H34.7395C35.1322 36.4577 35.2328 36.3595 35.2772 36.3163L35.2799 36.3136C35.3873 36.2094 35.5878 35.927 35.7659 35.2596C36.1406 33.8556 36.1583 31.8509 36.1583 29.3816C36.1583 29.3164 36.1582 29.2508 36.1582 29.1848C36.1577 26.9768 36.1571 24.3593 36.7102 22.2873C37.0041 21.1858 37.5119 19.994 38.4668 19.0663Z" fill="#DADAF8"/>
<path opacity="0.4" fill-rule="evenodd" clip-rule="evenodd" d="M55.4719 12.6214H51.7114V7.90479H55.4719C56.9593 7.90479 58.2793 8.39204 59.2987 9.38224C60.2537 10.3099 60.7614 11.5017 61.0554 12.6032C61.6084 14.6752 61.6078 17.2927 61.6073 19.5007C61.6073 19.5667 61.6073 19.6323 61.6073 19.6975C61.6073 22.1668 61.6249 24.1715 61.9997 25.5755C62.1778 26.243 62.3783 26.5253 62.4856 26.6295L62.4884 26.6322C62.5327 26.6755 62.6333 26.7736 63.0261 26.7736H66.7865V31.4902H63.0261C61.5387 31.4902 60.2187 31.003 59.1993 30.0128C58.2443 29.0851 57.7366 27.8933 57.4426 26.7918C56.8896 24.7198 56.8902 22.1023 56.8907 19.8943C56.8907 19.8283 56.8907 19.7627 56.8907 19.6975C56.8907 17.2282 56.873 15.2235 56.4983 13.8195C56.3202 13.1521 56.1197 12.8697 56.0124 12.7655C56.0115 12.7646 56.0105 12.7637 56.0096 12.7628C55.9653 12.7195 55.8647 12.6214 55.4719 12.6214Z" fill="#DADAF8"/>
</svg>
