<svg width="78" height="47" viewBox="0 0 78 47" fill="none" xmlns="http://www.w3.org/2000/svg">
<path opacity="0.1" d="M23.9249 1.06885L8.81651 46.3274H1.26233V1.06885H23.9249Z" fill="#DADAF8"/>
<path fill-rule="evenodd" clip-rule="evenodd" d="M0.790649 1.06882C0.790649 0.808335 1.00182 0.597168 1.2623 0.597168H76.7377C76.9982 0.597168 77.2093 0.808335 77.2093 1.06882V46.3607C77.2093 46.6212 76.9982 46.8324 76.7377 46.8324H1.2623C1.00182 46.8324 0.790649 46.6212 0.790649 46.3607V1.06882ZM1.73396 1.54048V45.8891H76.266V1.54048H1.73396Z" fill="#DADAF8"/>
<path fill-rule="evenodd" clip-rule="evenodd" d="M6.48132 19.9375C6.48132 19.677 6.69249 19.4658 6.95298 19.4658H18.2676C18.5281 19.4658 18.7393 19.677 18.7393 19.9375V35.0459C18.7393 35.3064 18.5281 35.5175 18.2676 35.5175H6.95298C6.69249 35.5175 6.48132 35.3064 6.48132 35.0459V19.9375ZM7.42463 20.4091V34.5742H17.796V20.4091H7.42463Z" fill="#DADAF8"/>
<path fill-rule="evenodd" clip-rule="evenodd" d="M42.3221 19.9375C42.3221 19.677 42.5333 19.4658 42.7938 19.4658H54.1084C54.3689 19.4658 54.5801 19.677 54.5801 19.9375V35.0459C54.5801 35.3064 54.3689 35.5175 54.1084 35.5175H42.7938C42.5333 35.5175 42.3221 35.3064 42.3221 35.0459V19.9375ZM43.2655 20.4091V34.5742H53.6368V20.4091H43.2655Z" fill="#DADAF8"/>
<path opacity="0.4" fill-rule="evenodd" clip-rule="evenodd" d="M71.0804 12.845H6.95294V8.12842H71.0804V12.845Z" fill="#DADAF8"/>
<path opacity="0.4" fill-rule="evenodd" clip-rule="evenodd" d="M35.2395 26.0565H22.028V21.3398H35.2395V26.0565Z" fill="#DADAF8"/>
<path opacity="0.4" fill-rule="evenodd" clip-rule="evenodd" d="M35.2395 33.6107H22.028V28.894H35.2395V33.6107Z" fill="#DADAF8"/>
<path opacity="0.4" fill-rule="evenodd" clip-rule="evenodd" d="M71.0804 26.0565H57.8689V21.3398H71.0804V26.0565Z" fill="#DADAF8"/>
<path opacity="0.4" fill-rule="evenodd" clip-rule="evenodd" d="M71.0804 33.6107H57.8689V28.894H71.0804V33.6107Z" fill="#DADAF8"/>
</svg>
