<svg width="18" height="18" viewBox="0 0 18 18" fill="none" xmlns="http://www.w3.org/2000/svg">
<g clip-path="url(#clip0_26200_43469)">
<rect width="18" height="18" fill="white" fill-opacity="0.01" style="mix-blend-mode:multiply"/>
<path d="M16.5 9.0455C16.5 4.878 13.1425 1.5 9 1.5C4.8575 1.5 1.5 4.878 1.5 9.0455C1.5 12.8125 4.242 15.934 7.828 16.5V11.227H5.924V9.045H7.828V7.383C7.828 5.492 8.9475 4.447 10.661 4.447C11.481 4.447 12.34 4.5945 12.34 4.5945V6.4515H11.3935C10.462 6.4515 10.172 7.0335 10.172 7.6305V9.0455H12.252L11.9195 11.2265H10.172V16.5C13.758 15.934 16.5 12.8125 16.5 9.0455Z" fill="#231D2C"/>
</g>
<defs>
<clipPath id="clip0_26200_43469">
<rect width="18" height="18" fill="white"/>
</clipPath>
</defs>
</svg>
