<svg width="32" height="32" viewBox="0 0 32 32" fill="none" xmlns="http://www.w3.org/2000/svg">
<rect width="32" height="32" rx="16" fill="#DADAF8"/>
<mask id="mask0_23759_7419" style="mask-type:alpha" maskUnits="userSpaceOnUse" x="4" y="4" width="24" height="24">
<rect x="4" y="4" width="24" height="24" fill="#D9D9D9"/>
</mask>
<g mask="url(#mask0_23759_7419)">
<path d="M15.0001 24C14.7167 24 14.4792 23.9042 14.2876 23.7125C14.0959 23.5208 14.0001 23.2833 14.0001 23V17L8.20008 9.6C7.95008 9.26667 7.91258 8.91667 8.08758 8.55C8.26258 8.18333 8.56675 8 9.00008 8H23.0001C23.4334 8 23.7376 8.18333 23.9126 8.55C24.0876 8.91667 24.0501 9.26667 23.8001 9.6L18.0001 17V23C18.0001 23.2833 17.9042 23.5208 17.7126 23.7125C17.5209 23.9042 17.2834 24 17.0001 24H15.0001ZM16.0001 16.3L20.9501 10H11.0501L16.0001 16.3Z" fill="#231D2C"/>
</g>
</svg>
