<svg width="208" height="89" viewBox="0 0 208 89" fill="none" xmlns="http://www.w3.org/2000/svg">
<path d="M93.3252 20.7523H88.2246V16.8945H103.23V20.7523H98.1299V32.861H93.3252V20.7523Z" fill="black"/>
<path d="M105.817 16.8945H110.622V22.7817H116.201V16.8945H121.006V32.861H116.201V26.461H110.622V32.861H105.817V16.8945Z" fill="black"/>
<path d="M124.045 16.8945H136.592V20.596H128.691V23.2719H136.16V26.3273H128.691V29.1591H136.82V32.861H124.045V16.8945Z" fill="black"/>
<path d="M89.7012 57.0735H102.18V61.0872H94.506V63.7632H101.133V67.2866H94.506V73.0401H89.7012V57.0735Z" fill="black"/>
<path d="M105.229 66.4838V57.0735H110.034V66.3279C110.034 68.2679 111.15 69.5166 112.88 69.5166C114.588 69.5166 115.727 68.2457 115.727 66.3279V57.0735H120.532V66.4838C120.532 70.6985 117.435 73.3744 112.88 73.3744C108.326 73.3744 105.229 70.6985 105.229 66.4838Z" fill="black"/>
<path d="M123.803 57.0735H128.949L134.3 66.9744H134.528V57.0735H139.014V73.0401H133.868L128.517 63.1614H128.289V73.0401H123.803V57.0735Z" fill="black"/>
<path d="M142.337 57.0735H148.986C154.588 57.0735 158.323 60.2623 158.323 65.0566C158.323 69.8514 154.588 73.0401 148.986 73.0401H142.337V57.0735ZM148.986 69.4945C151.719 69.4945 153.518 67.7551 153.518 65.0566C153.518 62.3585 151.719 60.6192 148.986 60.6192H146.983V69.4945H148.986Z" fill="black"/>
<path d="M87.8428 44.967C87.8428 40.0168 91.6912 36.6718 96.997 36.6718C100.845 36.6718 104.124 38.7902 104.876 41.7336L100.458 42.5589C100.048 41.3767 98.5909 40.507 96.9744 40.507C94.4694 40.507 92.6476 42.3358 92.6476 44.967C92.6476 47.5986 94.5376 49.4939 97.1562 49.4939C99.2285 49.4939 100.936 48.2451 101.073 46.5505L95.5396 46.5283V43.763H105.673C106.265 49.427 102.599 53.3517 96.997 53.3517C91.6912 53.3517 87.8428 49.9177 87.8428 44.967Z" fill="black"/>
<path d="M108.444 36.9844H113.249V48.9369H120.285V52.951H108.444V36.9844Z" fill="black"/>
<path d="M122.054 44.967C122.054 39.8826 125.743 36.6718 131.208 36.6718C136.65 36.6718 140.339 39.8826 140.339 44.967C140.339 50.0514 136.65 53.2848 131.208 53.2848C125.743 53.2848 122.054 50.0514 122.054 44.967ZM135.534 44.967C135.534 42.2911 133.781 40.507 131.208 40.507C128.635 40.507 126.858 42.2911 126.858 44.967C126.858 47.6655 128.635 49.427 131.208 49.427C133.781 49.427 135.534 47.6655 135.534 44.967Z" fill="black"/>
<path d="M142.927 36.9844H151.284C155.132 36.9844 157.409 38.7238 157.409 41.3997C157.409 43.0497 156.362 44.2541 155.041 44.7V44.9232C156.658 45.3466 157.865 46.7516 157.865 48.6472C157.865 51.39 155.519 52.951 151.717 52.951H142.927V36.9844ZM150.35 43.3844C151.58 43.3844 152.445 42.7601 152.445 41.8678C152.445 40.976 151.58 40.3738 150.35 40.3738H147.732V43.3844H150.35ZM150.669 49.5613C151.944 49.5613 152.901 48.87 152.901 47.9113C152.901 46.9747 151.944 46.2835 150.669 46.2835H147.732V49.5613H150.669Z" fill="black"/>
<path d="M164.437 36.9844H171.496L176.596 52.951H171.655L170.881 50.5204H165.029L164.255 52.951H159.313L164.437 36.9844ZM169.947 47.1754L168.08 40.976H167.852L165.985 47.1754H169.947Z" fill="black"/>
<path d="M179.32 36.9844H184.125V48.9369H191.161V52.951H179.32V36.9844Z" fill="black"/>
<path d="M77.0288 40.5187C77.0221 40.6048 77.0297 40.6937 77.046 40.7784C77.0628 40.865 77.0907 40.9494 77.1285 41.0294C77.1653 41.1071 77.2159 41.1752 77.2664 41.2459C77.4532 41.4678 77.7274 41.6064 78.0158 41.626C78.1622 41.6371 78.3073 41.6188 78.4461 41.5721C78.7941 41.4552 79.0538 41.1601 79.1356 40.7989C79.1378 40.7891 79.143 40.7808 79.145 40.771C79.145 40.771 79.1755 40.598 79.1861 40.5425C79.2318 40.3023 79.3209 39.7634 79.3251 39.7347C79.682 37.3373 79.6021 34.9107 79.1074 32.5616C79.0945 32.5004 79.0098 32.1309 78.98 32.0073C78.5228 30.1409 77.7918 28.3061 76.7619 26.5592C72.7439 19.7439 65.3162 16.0632 57.8053 16.3786C51.4057 16.5422 45.2723 19.5942 41.4079 24.8593C40.8759 25.6195 40.4287 26.3822 40.2559 27.2991C40.0173 28.5596 40.2406 29.8461 40.9047 30.9725C41.6244 32.1934 42.7834 33.0792 44.1677 33.4671C46.409 34.0944 48.8486 33.2848 50.1111 31.4962C50.1111 31.4962 50.5674 30.8653 50.6262 30.7892C53.0934 27.5846 56.7904 25.587 60.7299 25.1025C66.3537 24.4904 72.0816 27.1093 75.0968 32.2238C76.6371 34.8363 77.2463 37.7237 77.0288 40.5187Z" fill="#F6DE00"/>
<path d="M31.8453 17.5382C31.9248 17.5009 31.9996 17.45 32.0664 17.3938C32.1346 17.3363 32.1953 17.2704 32.2471 17.1983C32.2975 17.1282 32.3324 17.0513 32.3696 16.9731C32.4725 16.7038 32.4579 16.4019 32.331 16.1475C32.2677 16.0179 32.179 15.9039 32.0683 15.8095C31.7908 15.5728 31.4001 15.5001 31.0397 15.6114C31.0299 15.6144 31.02 15.6141 31.0103 15.6174C31.0103 15.6174 30.8421 15.678 30.7877 15.6968C30.5524 15.7781 30.0313 15.972 30.0039 15.9828C27.7053 16.8787 25.5993 18.1598 23.7693 19.7539C23.7216 19.7955 23.4372 20.0521 23.3428 20.1391C21.9209 21.4601 20.6639 22.9974 19.634 24.7443C15.616 31.5597 16.0748 39.6994 20.1092 45.9117C23.4537 51.2574 29.2194 54.9332 35.8077 55.578C36.746 55.6491 37.644 55.6469 38.5413 55.3351C39.7752 54.9072 40.8013 54.0746 41.4654 52.9481C42.1852 51.7273 42.389 50.3015 42.0399 48.9335C41.474 46.719 39.5383 45.0548 37.3253 44.8784C37.3253 44.8784 36.5392 44.8069 36.4425 44.795C32.375 44.3049 28.76 42.1683 26.3618 39.0694C23.0085 34.6059 22.4606 28.4386 25.4759 23.3242C27.0161 20.7117 29.2649 18.7513 31.8453 17.5382Z" fill="#EE0C3D"/>
<path d="M34.1191 67.3485C34.0462 67.2998 33.9639 67.2618 33.8808 67.2333C33.7958 67.2042 33.7072 67.1857 33.6176 67.1778C33.5304 67.1701 33.4449 67.1789 33.3571 67.1864C33.0675 67.2338 32.8079 67.3971 32.6463 67.632C32.5633 67.7505 32.507 67.8827 32.4788 68.0238C32.4082 68.3774 32.5393 68.7452 32.8179 68.9952C32.8254 69.002 32.8301 69.0105 32.8379 69.0172C32.8379 69.0172 32.9756 69.1295 33.0194 69.1662C33.209 69.3251 33.641 69.6701 33.6642 69.688C35.6058 71.1894 37.7917 72.3349 40.1165 73.0899C40.1771 73.1096 40.5462 73.2225 40.6703 73.2591C42.5495 73.8045 44.5375 74.1019 46.5973 74.1019C54.6333 74.1019 61.6021 69.6429 65.0786 63.1152C68.1337 57.6059 68.5015 50.8782 65.7776 44.9682C65.3713 44.1369 64.9204 43.3763 64.196 42.7713C63.2006 41.9387 61.9512 41.4848 60.6231 41.4848C59.1836 41.4848 57.8207 42.0248 56.7856 43.0049C55.1102 44.5921 54.6063 47.0658 55.5568 49.0309C55.5568 49.0309 55.8866 49.7333 55.9245 49.8213C57.5248 53.516 57.4429 57.6502 55.9015 61.2335C53.631 66.3092 48.451 69.8575 42.4205 69.8575C39.3401 69.8575 36.482 68.9305 34.1191 67.3485Z" fill="#2E4DF9"/>
</svg>
