<svg width="19" height="19" viewBox="0 0 19 19" fill="none" xmlns="http://www.w3.org/2000/svg">
<path d="M17.1044 7.98125H16.4797V7.94907H9.5003V11.051H13.883C13.2436 12.8568 11.5255 14.153 9.5003 14.153C6.9307 14.153 4.84734 12.0696 4.84734 9.50005C4.84734 6.93045 6.9307 4.84709 9.5003 4.84709C10.6864 4.84709 11.7655 5.29455 12.5871 6.02545L14.7806 3.83197C13.3956 2.54116 11.5429 1.74512 9.5003 1.74512C5.21763 1.74512 1.74536 5.21739 1.74536 9.50005C1.74536 13.7827 5.21763 17.255 9.5003 17.255C13.783 17.255 17.2552 13.7827 17.2552 9.50005C17.2552 8.98008 17.2017 8.47252 17.1044 7.98125Z" fill="white"/>
<path d="M2.6394 5.89052L5.18729 7.75907C5.8767 6.05221 7.54634 4.84709 9.50019 4.84709C10.6863 4.84709 11.7654 5.29455 12.587 6.02545L14.7805 3.83197C13.3955 2.54116 11.5428 1.74512 9.50019 1.74512C6.52152 1.74512 3.93836 3.42677 2.6394 5.89052Z" fill="white"/>
<path d="M9.50027 17.2548C11.5034 17.2548 13.3234 16.4882 14.6996 15.2416L12.2994 13.2106C11.4947 13.8226 10.5113 14.1536 9.50027 14.1528C7.48321 14.1528 5.77053 12.8667 5.12532 11.0718L2.59644 13.0202C3.87988 15.5316 6.48631 17.2548 9.50027 17.2548Z" fill="white"/>
<path d="M17.1041 7.98091H16.4794V7.94873H9.5V11.0507H13.8827C13.5768 11.9101 13.0259 12.6611 12.298 13.2108L12.2991 13.2101L14.6993 15.2411C14.5295 15.3954 17.2549 13.3772 17.2549 9.49972C17.2549 8.97975 17.2014 8.47219 17.1041 7.98091Z" fill="white"/>
</svg>
