<svg width="18" height="18" viewBox="0 0 18 18" fill="none" xmlns="http://www.w3.org/2000/svg">
<path d="M2 3C2 2.44772 2.44772 2 3 2H4.81818C5.37047 2 5.81818 2.44772 5.81818 3V5.2C5.81818 5.75228 5.37047 6.2 4.81818 6.2H3C2.44771 6.2 2 5.75229 2 5.2V3Z" fill="white"/>
<path d="M7.09091 3C7.09091 2.44772 7.53863 2 8.09091 2H9.90909C10.4614 2 10.9091 2.44772 10.9091 3V5.2C10.9091 5.75228 10.4614 6.2 9.90909 6.2H8.09091C7.53862 6.2 7.09091 5.75229 7.09091 5.2V3Z" fill="white"/>
<path d="M12.1818 3C12.1818 2.44772 12.6295 2 13.1818 2H15C15.5523 2 16 2.44772 16 3V5.2C16 5.75228 15.5523 6.2 15 6.2H13.1818C12.6295 6.2 12.1818 5.75229 12.1818 5.2V3Z" fill="white"/>
<path d="M2 7.9C2 7.34772 2.44772 6.9 3 6.9H4.81818C5.37047 6.9 5.81818 7.34772 5.81818 7.9V10.1C5.81818 10.6523 5.37047 11.1 4.81818 11.1H3C2.44771 11.1 2 10.6523 2 10.1V7.9Z" fill="white"/>
<path d="M7.09091 7.9C7.09091 7.34772 7.53863 6.9 8.09091 6.9H9.90909C10.4614 6.9 10.9091 7.34772 10.9091 7.9V10.1C10.9091 10.6523 10.4614 11.1 9.90909 11.1H8.09091C7.53862 11.1 7.09091 10.6523 7.09091 10.1V7.9Z" fill="white"/>
<path d="M12.1818 7.9C12.1818 7.34772 12.6295 6.9 13.1818 6.9H15C15.5523 6.9 16 7.34772 16 7.9V10.1C16 10.6523 15.5523 11.1 15 11.1H13.1818C12.6295 11.1 12.1818 10.6523 12.1818 10.1V7.9Z" fill="white"/>
<path d="M2 12.8C2 12.2477 2.44772 11.8 3 11.8H4.81818C5.37047 11.8 5.81818 12.2477 5.81818 12.8V15C5.81818 15.5523 5.37047 16 4.81818 16H3C2.44771 16 2 15.5523 2 15V12.8Z" fill="white"/>
<path d="M7.09091 12.8C7.09091 12.2477 7.53863 11.8 8.09091 11.8H9.90909C10.4614 11.8 10.9091 12.2477 10.9091 12.8V15C10.9091 15.5523 10.4614 16 9.90909 16H8.09091C7.53862 16 7.09091 15.5523 7.09091 15V12.8Z" fill="white"/>
<path d="M12.1818 12.8C12.1818 12.2477 12.6295 11.8 13.1818 11.8H15C15.5523 11.8 16 12.2477 16 12.8V15C16 15.5523 15.5523 16 15 16H13.1818C12.6295 16 12.1818 15.5523 12.1818 15V12.8Z" fill="white"/>
</svg>
