<svg width="360" height="573" viewBox="0 0 360 573" fill="none" xmlns="http://www.w3.org/2000/svg">
<g style="mix-blend-mode:multiply">
<path d="M95.6589 409.174C99.3366 394.117 105.558 379.609 114.139 366.034C123.07 352.175 133.131 340.562 144.251 331.273C155.846 321.417 168.434 313.803 181.943 308.475C194.625 303.251 208.365 300.74 223.04 300.966C236.478 301.309 248.908 304.744 259.837 310.969C270.371 316.95 279.109 325.352 285.806 335.892C292.502 346.433 296.793 358.555 298.587 372.036C300.443 385.887 299.516 400.63 295.839 415.686C292.161 430.743 285.931 445.333 277.359 458.827C268.428 472.689 258.363 484.297 247.234 493.569C235.656 503.458 223.079 511.095 209.579 516.436C196.893 521.651 183.153 524.162 168.481 523.946C154.967 523.497 142.576 520.115 131.659 513.907C121.112 507.909 112.374 499.507 105.69 488.984C99.0068 478.461 94.7028 466.322 92.9093 452.84C91.0403 438.972 91.9795 424.247 95.6572 409.19L95.6589 409.174ZM94.543 409.143C79.2748 471.35 112.29 523.372 168.179 525.166C224.067 526.961 281.723 477.994 296.94 415.716C312.158 353.439 279.206 301.505 223.381 299.798C167.555 298.09 109.837 346.97 94.6064 409.23L94.543 409.143Z" stroke="url(#paint0_linear_23759_29089)"/>
<path d="M88.1833 395.419C93.585 380.968 101.671 367.342 112.206 355.113C123.063 342.662 135.011 332.524 147.977 324.762C161.296 316.607 175.581 310.769 190.756 307.278C204.739 303.807 219.767 303.179 235.704 305.401C250.227 307.701 263.259 312.762 274.438 320.458C285.204 327.828 293.858 337.42 300.056 348.798C306.254 360.176 309.744 372.862 310.395 386.452C311.075 400.454 308.668 414.981 303.268 429.415C297.868 443.85 289.781 457.493 279.245 469.721C268.388 482.177 256.436 492.309 243.461 500.055C230.147 508.216 215.867 514.06 200.696 517.557C186.685 520.989 171.632 521.582 155.672 519.33C141.149 517.03 128.117 511.969 116.951 504.29C106.184 496.92 97.5304 487.328 91.3323 475.95C85.1342 464.572 81.6443 451.886 80.993 438.296C80.3132 424.293 82.7078 409.749 88.1203 395.332L88.1833 395.419ZM86.9277 395.145C64.5839 454.862 95.1617 511.016 155.229 520.511C215.297 530.006 282.115 489.337 304.461 429.603C326.806 369.87 296.227 313.732 236.147 304.219C176.067 294.707 109.273 335.411 86.9277 395.145Z" stroke="url(#paint1_linear_23759_29089)"/>
<path d="M81.3868 380.611C89.8425 365.447 99.7922 353.164 111.122 343.901C123.942 333.147 137.817 324.776 152.672 318.831C167.68 312.596 183.633 308.765 200.451 307.358C215.712 305.887 231.997 307.39 249.158 311.852C264.599 316.133 278.16 322.966 289.468 332.112C300.404 340.97 308.782 351.629 314.39 363.796C319.997 375.964 322.53 388.999 321.937 402.573C321.321 416.633 317.354 430.646 310.151 444.229C301.7 459.401 291.75 471.685 280.416 480.939C267.646 491.748 253.818 500.172 239.007 506.166C223.996 512.392 208.043 516.223 191.228 517.639C175.967 519.11 159.682 517.607 142.521 513.145C127.08 508.864 113.519 502.031 102.199 492.867C91.2749 484.027 82.8967 473.368 77.2893 461.201C71.6818 449.033 69.1492 435.998 69.7422 422.424C70.3586 408.364 74.3246 394.351 81.5277 380.768L81.3868 380.611ZM80.2614 380.41C50.4632 436.586 78.0819 496.514 141.915 514.252C205.748 531.99 281.554 500.709 311.35 444.549C341.146 388.39 313.53 328.445 249.696 310.707C185.863 292.969 109.905 324.076 80.1455 380.287L80.2614 380.41Z" stroke="url(#paint2_linear_23759_29089)"/>
<path d="M75.5157 365.143C85.979 351.394 97.8836 340.615 111.112 332.912C140.626 315.29 174.083 307.258 210.86 308.964C227.265 309.564 244.68 313.297 262.937 320.125C279.176 326.523 293.152 335.151 304.474 345.803C315.421 356.103 323.45 367.843 328.314 380.664C333.179 393.485 334.674 406.777 332.73 420.147C330.732 434.012 325.116 447.362 316.05 459.825C305.587 473.574 293.682 484.353 280.453 492.056C265.748 500.928 250.016 507.344 233.335 511.27C216.686 515.343 199.114 516.923 180.706 516.004C164.297 515.399 146.877 511.66 128.616 504.825C112.389 498.445 98.4134 489.817 87.0791 479.148C76.1446 468.865 68.1034 457.108 63.2513 444.304C58.3993 431.5 56.8911 418.191 58.8232 404.804C60.8336 390.956 66.4498 377.606 75.5157 365.143V365.143ZM74.154 364.567C36.6507 416.138 60.6833 479.369 127.84 505.809C194.997 532.249 279.836 511.853 317.337 460.298C354.839 408.743 330.808 345.497 263.651 319.057C196.494 292.617 111.657 312.996 74.154 364.567V364.567Z" stroke="url(#paint3_linear_23759_29089)"/>
<path d="M70.5422 348.878C83.023 336.804 96.8939 327.778 112.034 321.877C128.621 315.148 146.211 310.963 164.72 309.343C182.918 307.595 202.027 308.46 221.949 311.934C241.627 315.44 260.164 321.621 277.067 330.196C293.97 338.772 308.217 349.259 319.412 361.387C330.227 373.102 337.75 385.816 341.776 399.196C345.803 412.576 346.135 425.969 342.762 438.959C339.255 452.399 331.923 464.854 320.925 476.02C308.453 488.113 294.582 497.139 279.433 503.021C262.854 509.764 245.269 513.955 226.76 515.572C208.561 517.319 189.453 516.454 169.531 512.981C149.853 509.474 131.315 503.293 114.412 494.718C97.5093 486.143 83.263 475.655 72.0682 463.528C61.2526 451.813 53.7297 439.098 49.7033 425.718C45.677 412.338 45.3447 398.946 48.7176 385.956C52.2124 372.499 59.5572 360.06 70.5422 348.878V348.878ZM69.197 348.241C23.7836 394.153 43.6472 460.14 113.55 495.617C183.453 531.094 276.913 522.573 322.327 476.661C367.74 430.749 347.876 364.762 277.974 329.285C208.071 293.808 114.573 302.279 69.1601 348.191L69.197 348.241Z" stroke="url(#paint4_linear_23759_29089)"/>
<path d="M66.7843 332.284C81.2687 322.105 97.1081 315.076 114.176 311.252C132.573 306.887 151.957 305.176 172.237 306.128C191.872 306.853 212.401 310.316 233.716 316.497C254.61 322.725 274.041 331.377 291.448 342.183C308.854 352.99 323.239 365.441 334.144 378.963C344.677 392.044 351.574 405.695 354.63 419.503C357.686 433.312 356.75 446.605 351.862 459.009C346.792 471.791 337.661 483.155 324.745 492.636C310.256 502.806 294.417 509.835 277.353 513.668C258.95 518.016 239.566 519.726 219.292 518.792C199.643 518.054 179.098 514.569 157.764 508.356C136.882 502.145 117.451 493.493 100.033 482.669C82.6137 471.846 68.2625 459.476 57.3449 445.937C46.8125 432.857 39.9145 419.206 36.8585 405.397C33.8026 391.589 34.7269 378.279 39.6267 365.891C44.6967 353.11 53.828 341.746 66.7443 332.265L66.7843 332.284ZM65.3105 331.371C11.9181 370.675 26.9042 438.56 98.9801 483.413C171.056 528.266 272.727 532.734 326.166 493.513C379.606 454.292 364.527 386.225 292.512 341.456C220.497 296.688 118.766 292.135 65.314 331.34L65.3105 331.371Z" stroke="url(#paint5_linear_23759_29089)"/>
<path d="M64.2311 315.272C80.6828 307.239 98.4585 302.464 117.424 300.984C137.555 299.19 158.655 300.169 180.626 303.915C201.59 307.312 223.433 313.597 246.031 322.737C267.998 331.779 288.126 343.006 305.889 356.139C323.652 369.273 337.954 383.468 348.431 398.381C358.544 412.795 364.657 427.228 366.626 441.34C368.596 455.452 366.301 468.454 359.803 480.041C353.081 492.138 342.136 501.993 327.264 509.602C310.816 517.639 293.044 522.42 274.083 523.908C253.959 525.715 232.863 524.742 210.894 520.993C189.927 517.598 168.08 511.307 145.476 502.154C123.522 493.129 103.381 481.885 85.6304 468.768C67.88 455.652 53.565 441.44 43.0887 426.527C32.9758 412.113 26.8505 397.663 24.893 383.568C22.9355 369.473 25.2185 356.454 31.7162 344.866C38.4301 332.847 49.3832 322.915 64.2554 315.306L64.2311 315.272ZM62.7966 314.227C1.29438 345.667 10.959 415.121 84.4144 469.391C157.87 523.662 267.221 542.12 328.686 510.63C390.152 479.141 380.524 409.736 307.069 355.466C233.613 301.196 124.275 282.754 62.7482 314.161L62.7966 314.227Z" stroke="url(#paint6_linear_23759_29089)"/>
<path d="M63.1107 298.201C81.4825 292.539 101.154 290.265 121.981 291.396C143.726 292.357 166.425 296.225 189.967 302.983C212.098 309.149 235.087 318.37 258.79 330.589C281.632 342.539 302.293 356.441 320.197 371.858C338.101 387.275 352.177 403.356 362.047 419.511C371.573 435.144 376.782 450.241 377.527 464.499C378.272 478.757 374.493 491.231 366.345 501.798C357.916 512.755 345.127 521.097 328.328 526.566C309.976 532.247 290.329 534.554 269.53 533.47C247.782 532.501 225.083 528.632 201.544 521.882C179.413 515.716 156.424 506.495 132.721 494.276C109.879 482.326 89.2176 468.424 71.3137 453.007C53.4098 437.59 39.3339 421.51 29.4641 405.354C19.9379 389.722 14.7173 374.608 13.9723 360.35C13.2272 346.092 17.0056 333.618 25.1541 323.051C33.5832 312.094 46.3718 303.752 63.1709 298.283L63.1107 298.201ZM61.7029 297.011C-7.78579 319.613 -4.09284 389.715 69.9533 453.482C143.999 517.248 260.386 550.602 329.892 527.97C399.398 505.338 395.688 435.265 321.63 371.483C247.572 307.7 131.149 274.296 61.6428 296.928L61.7029 297.011Z" stroke="url(#paint7_linear_23759_29089)"/>
<path d="M63.5656 281.432C83.7696 278.343 105.251 278.785 127.852 282.753C151.079 286.639 175.237 293.575 200.203 303.525C223.331 312.541 247.286 324.79 271.901 340.187C295.412 355.146 316.387 371.718 334.232 389.421C352.077 407.125 365.713 424.885 374.77 442.303C383.527 459.085 387.636 474.696 387.094 488.91C386.552 503.124 381.234 514.987 371.405 524.356C361.224 534.026 346.585 540.508 327.882 543.612C307.678 546.701 286.196 546.259 263.595 542.291C240.367 538.398 216.208 531.462 191.245 521.519C168.147 512.48 144.225 500.219 119.647 484.821C96.1246 469.846 75.1614 453.29 57.3164 435.587C39.4714 417.883 25.7163 399.959 16.6502 382.617C7.89285 365.835 3.78451 350.223 4.31464 335.993C4.84477 321.763 10.1865 309.933 20.015 300.564C30.2319 290.943 44.8714 284.461 63.5656 281.432ZM62.1021 279.971C-15.2349 292.833 -18.0891 362.629 55.7107 435.845C129.511 509.06 252.029 557.997 329.333 545.056C406.638 532.115 409.525 462.399 335.725 389.183C261.925 315.967 139.395 267.014 62.1021 279.971V279.971Z" stroke="url(#paint8_linear_23759_29089)"/>
<path d="M65.7366 264.777C87.6729 264.46 110.865 267.836 135.138 274.877C159.683 281.818 185.142 291.997 211.368 305.355C235.266 317.292 259.952 332.675 285.222 351.379C309.177 369.377 330.224 388.608 347.777 408.547C365.33 428.487 378.335 447.907 386.432 466.368C394.263 484.156 397.205 500.221 395.183 514.15C393.161 528.078 386.289 539.131 374.722 547.022C362.765 555.206 346.294 559.616 325.766 560.132C303.834 560.454 280.646 557.084 256.377 550.047C231.83 543.1 206.371 532.921 180.147 519.569C156.229 507.61 131.524 492.199 106.234 473.465C82.2788 455.466 61.2319 436.236 43.6789 416.296C26.126 396.356 13.1087 376.92 5.02393 358.476C-2.79519 340.703 -5.73756 324.639 -3.71563 310.71C-1.6937 296.782 5.20261 285.761 16.7639 277.794C28.7217 269.611 45.2037 265.217 65.7198 264.685L65.7366 264.777ZM64.2862 263.059C-20.6028 265.225 -30.61 333.752 42.0449 416.272C114.7 498.792 242.337 563.822 327.226 561.655C412.115 559.489 422.122 490.962 349.467 408.442C276.812 325.922 149.168 260.951 64.2793 263.118L64.2862 263.059Z" stroke="url(#paint9_linear_23759_29089)"/>
<path d="M69.6492 248.844C93.1748 251.442 117.939 257.929 143.742 268.255C169.395 278.326 195.93 291.825 223.173 308.664C247.677 323.583 272.905 342.174 298.609 364.251C322.753 385.301 343.624 407.179 360.648 429.278C377.672 451.378 389.8 472.273 396.768 491.654C403.48 510.298 405.075 526.588 401.511 540.073C397.948 553.559 389.403 563.546 376.1 569.761C362.344 576.227 344.077 578.337 321.827 576.025C298.297 573.414 273.534 566.926 247.734 556.614C222.08 546.538 195.545 533.039 168.303 516.205C143.801 501.267 118.575 482.657 92.8747 460.56C68.7419 439.526 47.8715 417.648 30.8471 395.548C13.8227 373.449 1.69459 352.554 -5.27255 333.172C-11.9845 314.528 -13.58 298.239 -10.0163 284.753C-6.45264 271.268 2.09247 261.281 15.3949 255.066C29.1515 248.6 47.4067 246.474 69.6679 248.802L69.6492 248.844ZM68.2756 246.911C-23.8232 237.604 -41.3869 304.034 29.027 395.425C99.441 486.816 231.141 568.552 323.233 577.917C415.325 587.282 432.866 520.925 362.461 429.46C292.056 337.996 160.337 256.302 68.2569 246.953L68.2756 246.911Z" stroke="url(#paint10_linear_23759_29089)"/>
<path d="M75.4884 233.534C100.457 239.204 126.638 248.975 153.801 262.761C180.367 276.067 207.77 293.019 235.802 313.487C263.093 333.488 288.708 355.43 311.939 378.711C335.971 402.822 356.409 427.238 372.636 451.396C388.864 475.554 399.945 497.948 405.576 518.019C410.995 537.363 411.101 553.694 405.898 566.542C400.695 579.39 390.446 588.136 375.443 592.517C359.905 597.034 339.922 596.646 316.034 591.408C291.067 585.744 264.886 575.973 237.721 562.18C211.161 548.884 183.761 531.937 155.732 511.47C128.441 491.469 102.827 469.527 79.5949 446.247C55.551 422.119 35.1255 397.719 18.8859 373.545C2.64639 349.371 -8.41047 327.009 -14.0538 306.922C-19.4605 287.594 -19.5673 271.263 -14.3639 258.415C-9.1606 245.568 1.08805 236.821 16.0915 232.44C31.6292 227.923 51.6117 228.311 75.4884 233.534V233.534ZM74.1696 231.563C-24.6151 209.807 -50.255 273.175 16.8969 373.076C84.0488 472.976 218.545 571.591 317.318 593.33C416.091 615.07 441.742 551.718 374.582 451.89C307.421 352.062 172.931 253.287 74.1696 231.563Z" stroke="url(#paint11_linear_23759_29089)"/>
<path d="M83.3005 219.089C134.926 236.684 190.835 270.636 249.027 319.732C276.599 343.207 302.173 368.376 325.019 394.537C348.676 421.627 368.368 448.59 383.545 474.684C398.721 500.779 408.484 524.457 412.558 545.05C416.475 564.928 414.99 581.155 408.039 593.143C401.088 605.131 389.129 612.463 372.422 614.773C355.134 617.182 333.506 614.119 308.136 605.704C281.926 596.878 254.532 583.69 226.227 566.27C198.972 549.692 170.943 529.221 142.398 505.045C114.814 481.554 89.2515 456.401 66.3942 430.224C42.7486 403.15 23.057 376.187 7.86848 350.077C-7.32001 323.966 -17.0587 300.32 -21.1336 279.727C-25.0619 259.833 -23.5654 243.622 -16.6143 231.634C-9.66316 219.646 2.32479 212.302 19.0608 210.082C36.3495 207.673 57.9773 210.737 83.3355 219.136L83.3005 219.089ZM82.0973 217.014C-22.8108 182.266 -56.9378 241.501 5.84569 349.5C68.6292 457.499 204.563 573.175 309.453 607.965C414.342 642.755 448.476 583.462 385.704 475.479C322.932 367.496 186.952 251.757 82.0856 216.998L82.0973 217.014Z" stroke="url(#paint12_linear_23759_29089)"/>
<path d="M93.1652 205.552C120.455 217.637 148.888 234.394 178.138 255.63C205.82 275.522 234.179 299.581 262.891 327.535C290.453 354.498 315.672 382.885 337.837 411.869C360.782 441.903 379.404 471.158 393.294 499.213C407.183 527.268 415.336 551.909 417.685 572.899C419.947 593.159 416.674 609.015 407.947 620.031C399.219 631.047 385.484 636.663 367.124 636.748C348.138 636.853 324.955 630.909 298.276 619.179C270.984 607.084 242.551 590.328 213.304 569.101C185.621 549.206 157.262 525.146 128.55 497.197C100.989 470.233 75.7694 441.846 53.6043 412.862C30.6474 382.812 12.0456 353.502 -1.85247 325.518C-15.7505 297.534 -23.8942 272.822 -26.2553 251.816C-28.5176 231.557 -25.2329 215.716 -16.4586 204.763C-7.68434 193.81 5.99245 188.115 24.3643 188.045C43.3504 187.941 66.5328 193.885 93.2117 205.615L93.1652 205.552ZM92.1273 203.392C-18.2019 154.873 -61.2164 209.167 -3.95674 324.658C53.303 440.149 189.191 573.131 299.52 621.65C409.849 670.169 452.864 615.875 395.604 500.384C338.345 384.892 202.456 251.911 92.1156 203.376L92.1273 203.392Z" stroke="url(#paint13_linear_23759_29089)"/>
<path d="M105.141 192.859C133.29 208.307 162.514 228.762 192.413 253.942C220.325 277.233 248.766 304.966 277.327 336.741C304.563 367.254 329.107 398.857 350.268 430.671C372.163 463.685 389.513 495.461 401.743 525.046C413.974 554.631 420.396 580.47 420.801 601.62C421.228 622.025 416.052 637.455 405.457 647.283C394.862 657.111 379.423 660.953 359.415 658.551C338.748 656.107 314.167 647.159 286.359 631.954C258.21 616.505 228.986 596.051 199.087 570.87C171.176 547.551 142.737 519.794 114.181 488.001C86.9458 457.488 62.4017 425.885 41.2283 394.055C19.2715 361.107 1.97147 329.479 -10.2621 299.808C-22.4958 270.136 -28.9035 244.399 -29.3195 223.233C-29.7357 202.844 -24.5712 187.398 -13.9644 177.586C-3.35771 167.774 12.1281 163.995 32.0783 166.319C52.7563 168.778 77.3373 177.726 105.146 192.931L105.141 192.859ZM104.096 190.446C-10.8984 127.509 -63.1251 175.837 -12.5382 298.498C38.0486 421.16 172.33 571.522 287.355 634.433C402.38 697.345 454.606 649.017 404.019 526.355C353.433 403.694 219.221 253.426 104.138 190.436L104.096 190.446Z" stroke="url(#paint14_linear_23759_29089)"/>
<path d="M119.273 180.837C148.095 199.765 177.894 224.102 208.168 253.437C236.064 280.279 264.266 311.833 292.247 347.508C318.827 381.611 342.352 416.451 362.18 451.08C382.708 486.965 398.329 520.896 408.691 552.218C419.053 583.54 423.409 610.057 421.723 631.39C420.108 651.925 412.925 666.608 400.386 675.045C387.847 683.481 370.6 685.237 349.099 680.261C326.833 675.116 300.962 662.906 272.28 644.118C243.458 625.19 213.659 600.853 183.385 571.518C155.489 544.676 127.287 513.122 99.3065 477.447C72.726 443.344 49.189 408.488 29.3726 373.875C8.84511 337.99 -6.77616 304.059 -17.1265 272.752C-27.4769 241.446 -31.9517 214.686 -30.2281 193.487C-28.6127 172.952 -21.4301 158.269 -8.90276 149.816C3.62461 141.364 20.8946 139.639 42.3959 144.616C64.6618 149.761 90.5208 161.955 119.273 180.837V180.837ZM118.424 178.256C-0.485963 100.209 -62.3005 141.724 -19.5524 271.11C23.1957 400.496 154.164 568.561 273.053 646.547C391.943 724.534 453.737 683.075 411.047 553.767C368.357 424.459 237.331 256.316 118.442 178.33L118.424 178.256Z" stroke="url(#paint15_linear_23759_29089)"/>
<path d="M135.634 169.299C164.922 191.87 195.032 220.292 225.326 253.963C253 284.531 280.651 320.038 307.601 359.613C333.158 397.398 355.372 435.669 373.482 472.983C392.262 511.715 405.908 548.019 414.013 580.881C422.079 613.128 424.28 641.832 420.251 662.264C416.412 682.732 407.093 696.577 392.568 703.438C378.043 710.299 359.024 709.801 336.046 701.988C312.273 693.916 285.265 678.272 255.805 655.544C226.516 632.971 196.406 604.549 166.113 570.881C138.439 540.312 110.788 504.805 83.8382 465.231C58.2692 427.43 36.0664 389.175 17.9563 351.861C-0.834863 313.113 -14.469 276.825 -22.5747 243.963C-30.6375 211.72 -32.8297 183.023 -28.7894 162.611C-24.9499 142.143 -15.6288 128.283 -1.05925 121.5C13.5103 114.716 32.4852 115.137 55.4506 122.934C80.6536 131.829 107.61 147.416 135.634 169.299V169.299ZM134.996 166.609C13.0965 72.5878 -58.5278 106.375 -24.9749 242.158C8.57793 377.941 134.586 564.188 256.494 658.254C378.402 752.32 450.027 718.533 416.466 582.706C382.904 446.878 256.889 260.688 134.996 166.609Z" stroke="url(#paint16_linear_23759_29089)"/>
<path d="M154.447 158.487C184.006 184.897 214.149 217.648 244.05 255.842C271.294 290.439 298.037 330.071 323.419 373.463C347.587 415.044 368.005 456.531 384.098 496.793C400.758 538.464 412.03 576.982 417.608 611.259C423.183 645.464 422.712 674.444 416.254 694.478C410.002 714.716 398.419 727.569 381.83 732.586C365.241 737.604 344.502 734.698 320.177 723.825C293.903 711.817 265.921 692.485 237.081 666.417C207.523 640.007 177.38 607.257 147.478 569.063C120.23 534.459 93.4842 494.823 68.0981 451.426C43.9298 409.845 23.5122 368.358 7.43086 328.111C-9.26507 286.393 -20.5489 247.859 -26.1262 213.582C-31.702 179.377 -31.2263 150.401 -24.7603 130.378C-18.5091 110.141 -6.92567 97.288 9.65167 92.2547C26.229 87.2215 46.9917 90.1589 71.3051 101.016C97.578 113.021 125.56 132.353 154.4 158.424L154.447 158.487ZM153.934 155.604C30.0965 44.6364 -51.6462 69.5834 -28.5768 211.393C-5.50743 353.202 113.615 558.157 237.505 669.145C361.394 780.132 443.143 755.245 420.074 613.435C397.004 471.626 277.882 266.671 153.981 155.667L153.934 155.604Z" stroke="url(#paint17_linear_23759_29089)"/>
<path d="M175.785 148.586C205.435 179.151 235.304 216.498 264.325 259.295C290.94 298.39 316.385 342.329 339.621 389.321C361.964 434.757 380.212 479.652 393.834 522.7C407.589 565.626 416.284 607.199 419.112 643.555C421.801 679.256 418.429 708.397 409.329 728.094C400.461 747.89 386.448 759.389 367.799 762.446C349.151 765.502 326.676 759.781 301.084 745.545C273.891 730.245 245.074 706.888 215.701 676.337C186.05 645.772 156.182 608.425 127.161 565.628C100.545 526.533 75.0999 482.594 51.8639 435.602C29.5215 390.166 11.273 345.271 -2.34889 302.223C-16.4216 257.638 -24.9433 216.961 -27.6317 181.293C-30.3146 145.599 -26.9425 116.46 -17.8483 96.7539C-8.96868 76.9738 5.03282 65.4595 23.681 62.4025C42.3291 59.3456 64.809 65.1424 90.401 79.3786C117.594 94.6738 146.411 118.032 175.785 148.586V148.586ZM175.564 145.67C50.827 16.6282 -41.2494 31.4617 -30.11 178.795C-18.9706 326.128 91.1904 550.153 215.928 679.194C340.665 808.236 432.742 793.402 421.609 646.01C410.477 498.618 300.302 274.711 175.564 145.67V145.67Z" stroke="url(#paint18_linear_23759_29089)"/>
<path d="M199.874 140.269C229.414 175.331 258.622 217.498 286.135 264.799C311.849 308.876 335.522 357.177 355.982 407.315C375.514 455.036 391.285 503.779 402.342 550.601C413.347 597.304 418.776 640.671 418.213 677.395C417.651 714.118 411.112 743.226 399.097 762.5C387.04 781.796 370.373 791.904 350.107 792.214C328.891 792.736 304.624 783.953 278.508 766.3C222.138 728.198 160.821 655.16 105.316 560.001C79.6046 515.93 55.9358 467.634 35.4801 417.502C15.9483 369.781 0.177605 321.037 -10.8795 274.216C-21.8911 227.508 -27.3261 184.134 -26.7699 147.402C-26.2137 110.671 -19.6809 81.5518 -7.67002 62.2673C4.40913 42.9937 21.1 32.9186 41.3916 32.6522C62.607 32.1299 86.8745 40.913 112.991 58.566C140.939 77.3284 170.37 105.01 199.91 140.318L199.874 140.269ZM199.951 137.308C75.7739 -10.6167 -26.8516 -7.43852 -29.1955 144.488C-31.5395 296.414 67.3448 539.616 191.571 687.591C315.798 835.566 418.374 832.337 420.718 680.411C423.062 528.485 324.141 285.234 199.915 137.259L199.951 137.308Z" stroke="url(#paint19_linear_23759_29089)"/>
<path d="M226.854 134.356C277.306 203.667 323.713 293.007 358.212 387.243C392.712 481.478 413.184 574.816 416.16 651.445C419.137 728.074 404.434 783.282 374.543 807.718C344.653 832.154 301.412 824.315 252.145 785.529C195.637 740.368 135.689 658.214 85.3757 556.988C35.0626 455.761 -1.53233 343.676 -16.4269 245.18C-31.3215 146.685 -23.3071 69.7713 5.86814 31.217C35.0434 -7.33727 83.0121 -4.40405 139.311 39.3768C167.854 61.8526 197.629 94.1566 226.854 134.356V134.356ZM227.199 131.275C183.463 71.2324 138.863 29.0275 99.0381 9.99749C59.2132 -9.03257 25.9524 -4.03315 3.46159 24.3636C-19.0292 52.7603 -29.7397 103.279 -27.3156 169.531C-24.8915 235.783 -9.44162 314.793 17.0803 396.569C43.6022 478.346 80.0049 559.216 121.685 628.953C163.365 698.69 208.451 754.162 251.241 788.354C294.031 822.547 332.603 833.923 362.079 821.046C391.556 808.168 410.613 771.615 416.841 716.008C420.976 679.087 419.351 634.674 412.058 585.307C404.766 535.94 391.949 482.584 374.339 428.286C356.729 373.989 334.671 319.813 309.425 268.852C284.179 217.89 256.238 171.142 227.199 131.275V131.275Z" stroke="url(#paint20_linear_23759_29089)"/>
</g>
<defs>
<linearGradient id="paint0_linear_23759_29089" x1="214.402" y1="235.063" x2="21.313" y2="375.259" gradientUnits="userSpaceOnUse">
<stop stop-color="#A4A0FF"/>
<stop offset="1" stop-color="#F8FCFC"/>
</linearGradient>
<linearGradient id="paint1_linear_23759_29089" x1="215.212" y1="228.398" x2="14.7381" y2="373.878" gradientUnits="userSpaceOnUse">
<stop stop-color="#A4A0FF"/>
<stop offset="1" stop-color="#F8FCFC"/>
</linearGradient>
<linearGradient id="paint2_linear_23759_29089" x1="216.068" y1="223.216" x2="9.59021" y2="373.034" gradientUnits="userSpaceOnUse">
<stop stop-color="#A4A0FF"/>
<stop offset="1" stop-color="#F8FCFC"/>
</linearGradient>
<linearGradient id="paint3_linear_23759_29089" x1="216.64" y1="219.248" x2="5.59451" y2="372.43" gradientUnits="userSpaceOnUse">
<stop stop-color="#A4A0FF"/>
<stop offset="1" stop-color="#F8FCFC"/>
</linearGradient>
<linearGradient id="paint4_linear_23759_29089" x1="217.157" y1="216.8" x2="3.08277" y2="372.302" gradientUnits="userSpaceOnUse">
<stop stop-color="#A4A0FF"/>
<stop offset="1" stop-color="#F8FCFC"/>
</linearGradient>
<linearGradient id="paint5_linear_23759_29089" x1="217.497" y1="215.842" x2="2.00992" y2="372.566" gradientUnits="userSpaceOnUse">
<stop stop-color="#A4A0FF"/>
<stop offset="1" stop-color="#F8FCFC"/>
</linearGradient>
<linearGradient id="paint6_linear_23759_29089" x1="217.689" y1="216.418" x2="2.43956" y2="373.233" gradientUnits="userSpaceOnUse">
<stop stop-color="#A4A0FF"/>
<stop offset="1" stop-color="#F8FCFC"/>
</linearGradient>
<linearGradient id="paint7_linear_23759_29089" x1="217.803" y1="218.58" x2="4.40188" y2="374.381" gradientUnits="userSpaceOnUse">
<stop stop-color="#A4A0FF"/>
<stop offset="1" stop-color="#F8FCFC"/>
</linearGradient>
<linearGradient id="paint8_linear_23759_29089" x1="217.613" y1="222.012" x2="7.51236" y2="375.79" gradientUnits="userSpaceOnUse">
<stop stop-color="#A4A0FF"/>
<stop offset="1" stop-color="#F8FCFC"/>
</linearGradient>
<linearGradient id="paint9_linear_23759_29089" x1="217.419" y1="226.452" x2="11.9038" y2="377.308" gradientUnits="userSpaceOnUse">
<stop stop-color="#A4A0FF"/>
<stop offset="1" stop-color="#F8FCFC"/>
</linearGradient>
<linearGradient id="paint10_linear_23759_29089" x1="217.066" y1="231.865" x2="16.9746" y2="379.2" gradientUnits="userSpaceOnUse">
<stop stop-color="#A4A0FF"/>
<stop offset="1" stop-color="#F8FCFC"/>
</linearGradient>
<linearGradient id="paint11_linear_23759_29089" x1="216.659" y1="237.451" x2="22.285" y2="381.034" gradientUnits="userSpaceOnUse">
<stop stop-color="#A4A0FF"/>
<stop offset="1" stop-color="#F8FCFC"/>
</linearGradient>
<linearGradient id="paint12_linear_23759_29089" x1="216.331" y1="242.298" x2="26.974" y2="382.588" gradientUnits="userSpaceOnUse">
<stop stop-color="#A4A0FF"/>
<stop offset="1" stop-color="#F8FCFC"/>
</linearGradient>
<linearGradient id="paint13_linear_23759_29089" x1="216.131" y1="245.788" x2="30.3383" y2="383.766" gradientUnits="userSpaceOnUse">
<stop stop-color="#A4A0FF"/>
<stop offset="1" stop-color="#F8FCFC"/>
</linearGradient>
<linearGradient id="paint14_linear_23759_29089" x1="216.052" y1="246.357" x2="30.8548" y2="384.067" gradientUnits="userSpaceOnUse">
<stop stop-color="#A4A0FF"/>
<stop offset="1" stop-color="#F8FCFC"/>
</linearGradient>
<linearGradient id="paint15_linear_23759_29089" x1="216.436" y1="242.954" x2="27.4909" y2="383.406" gradientUnits="userSpaceOnUse">
<stop stop-color="#A4A0FF"/>
<stop offset="1" stop-color="#F8FCFC"/>
</linearGradient>
<linearGradient id="paint16_linear_23759_29089" x1="217.383" y1="234.051" x2="18.7604" y2="381.373" gradientUnits="userSpaceOnUse">
<stop stop-color="#A4A0FF"/>
<stop offset="1" stop-color="#F8FCFC"/>
</linearGradient>
<linearGradient id="paint17_linear_23759_29089" x1="218.916" y1="218.738" x2="3.8111" y2="377.67" gradientUnits="userSpaceOnUse">
<stop stop-color="#A4A0FF"/>
<stop offset="1" stop-color="#F8FCFC"/>
</linearGradient>
<linearGradient id="paint18_linear_23759_29089" x1="221.09" y1="196.465" x2="-17.9471" y2="372.216" gradientUnits="userSpaceOnUse">
<stop stop-color="#A4A0FF"/>
<stop offset="1" stop-color="#F8FCFC"/>
</linearGradient>
<linearGradient id="paint19_linear_23759_29089" x1="223.89" y1="167.227" x2="-46.4688" y2="365.017" gradientUnits="userSpaceOnUse">
<stop stop-color="#A4A0FF"/>
<stop offset="1" stop-color="#F8FCFC"/>
</linearGradient>
<linearGradient id="paint20_linear_23759_29089" x1="227.199" y1="131.275" x2="-81.5517" y2="356.172" gradientUnits="userSpaceOnUse">
<stop stop-color="#A4A0FF"/>
<stop offset="1" stop-color="#F8FCFC"/>
</linearGradient>
</defs>
</svg>
