<svg width="1402" height="407" viewBox="0 0 1402 407" fill="none" xmlns="http://www.w3.org/2000/svg">
<g style="mix-blend-mode:multiply" opacity="0.6">
<mask id="mask0_17403_17527" style="mask-type:alpha" maskUnits="userSpaceOnUse" x="0" y="0" width="1424" height="782">
<rect width="1424" height="782" fill="#D9D9D9"/>
</mask>
<g mask="url(#mask0_17403_17527)">
<g style="mix-blend-mode:multiply">
<path d="M406.268 473.103C429.25 452.08 459.781 428.7 496.986 403.605C535.505 377.787 575.853 353.145 617.749 329.85C661.562 305.372 706.778 282.226 753.134 260.548C796.824 239.949 841.762 221.131 887.542 204.263C929.36 188.969 965.666 178.287 995.15 172.455C1023.58 166.814 1044.54 165.958 1057.49 169.86C1070.43 173.762 1074.64 182.227 1069.99 195.117C1065.25 208.343 1051.12 225.807 1028.14 246.829C1005.16 267.852 974.54 291.333 937.424 316.327C898.903 342.149 858.546 366.79 816.635 390.077C772.85 414.572 727.654 437.729 681.311 459.413C637.616 480.006 592.679 498.824 546.903 515.699C504.926 530.965 468.699 541.661 439.242 547.497C410.785 553.134 389.821 553.99 376.905 550.093C363.99 546.195 359.756 537.726 364.407 524.836C369.114 511.605 383.268 494.145 406.25 473.123L406.268 473.103ZM402.798 474.37C307.617 561.311 371.384 580.609 545.025 517.408C718.666 454.208 936.493 332.537 1031.57 245.578C1126.64 158.619 1063.01 139.344 889.499 202.567C715.99 265.791 498.031 387.439 402.93 474.393L402.798 474.37Z" stroke="url(#paint0_linear_17403_17527)" stroke-width="2"/>
<path d="M389.011 467.863C417.287 445.239 453.444 420.373 496.297 394.183C540.339 367.365 586.06 341.859 633.183 317.819C681.724 292.923 731.546 269.489 782.384 247.643C829.423 227.227 877.587 208.773 926.439 192.448C970.745 177.881 1008.19 168.179 1037.73 163.627C1066.21 159.196 1086.27 159.758 1097.16 165.228C1108.06 170.698 1109.35 180.837 1100.95 195.344C1092.31 210.281 1073.48 229.453 1045.22 252.056C1016.96 274.659 980.784 299.546 937.931 325.736C893.886 352.559 848.155 378.063 801.018 402.095C752.486 426.993 702.673 450.428 651.843 472.276C604.746 492.681 556.53 511.125 507.629 527.443C463.323 542.01 425.877 551.712 396.367 556.269C367.889 560.699 347.826 560.137 336.931 554.667C326.036 549.197 324.741 539.059 333.149 524.552C341.785 509.615 360.593 490.438 388.878 467.839L389.011 467.863ZM385.238 469.037C268.319 562.553 322.052 589.563 505.313 529.294C688.574 469.026 931.919 344.395 1048.86 250.859C1165.79 157.322 1112.04 130.333 928.755 190.597C745.468 250.861 502.176 375.501 385.238 469.037Z" stroke="url(#paint1_linear_17403_17527)" stroke-width="2"/>
<path d="M374.385 460.602C413.408 433.231 454.987 407.35 498.646 383.255C548.259 355.682 599.404 329.557 651.807 305.021C704.926 279.973 759.209 256.53 814.38 234.81C864.595 214.88 915.783 197.108 967.474 181.657C1013.78 168.057 1052.05 159.61 1081.26 156.492C1109.51 153.488 1128.13 155.595 1136.66 162.734C1145.19 169.872 1143.16 181.677 1130.65 197.833C1117.7 214.57 1094.01 235.26 1060.25 259.335C1021.23 286.71 979.65 312.591 935.984 336.681C886.489 364.258 835.453 390.386 783.154 414.925C730.031 439.967 675.748 463.411 620.581 485.137C570.366 505.067 519.178 522.839 467.486 538.29C421.183 551.89 382.914 560.337 353.672 563.45C325.45 566.458 306.833 564.351 298.302 557.213C289.771 550.074 291.803 538.27 304.306 522.114C317.263 505.377 340.952 484.687 374.715 460.612L374.385 460.602ZM370.923 461.72C231.265 561.293 273.284 596.451 464.674 540.275C656.063 484.099 924.21 357.818 1063.85 258.265C1203.49 158.712 1161.49 123.534 970.099 179.71C778.709 235.886 510.206 362.152 370.646 461.719L370.923 461.72Z" stroke="url(#paint2_linear_17403_17527)" stroke-width="2"/>
<path d="M362.831 451.199C407.802 422.662 455.12 395.803 504.319 370.885C614.431 314.79 729.807 264.971 848.296 222.357C901.279 203.162 955.076 186.354 1009.17 172.095C1057.02 159.786 1095.74 152.793 1124.2 151.35C1151.73 149.956 1168.6 153.759 1174.31 162.645C1180.02 171.531 1174.38 185.043 1157.47 202.817C1139.99 221.225 1111.13 243.426 1071.73 268.786C1026.76 297.322 979.443 324.182 930.244 349.099C875.307 377.155 818.968 403.623 761.507 428.372C704.034 453.25 645.524 476.373 586.267 497.628C533.275 516.822 479.469 533.628 425.37 547.884C377.541 560.198 338.825 567.191 310.331 568.63C282.834 570.028 265.931 566.221 260.249 557.339C254.566 548.458 260.179 534.941 277.065 517.163C294.57 498.759 323.43 476.559 362.831 451.199V451.199ZM358.849 452.186C195.849 557.11 224.144 600.882 422.065 549.958C619.985 499.034 912.571 372.674 1075.55 267.77C1238.53 162.867 1210.26 119.074 1012.34 169.998C814.416 220.922 521.849 347.262 358.849 452.186V452.186Z" stroke="url(#paint3_linear_17403_17527)" stroke-width="2"/>
<path d="M354.812 439.507C405.696 410.065 458.725 382.476 513.44 356.981C573.594 328.742 635.019 302.244 697.426 277.613C758.907 253.216 821.297 230.754 884.284 210.341C946.439 190.266 1002.68 174.719 1051.61 163.977C1100.54 153.236 1139.17 147.992 1166.4 148.415C1192.72 148.82 1207.36 154.439 1209.93 165.131C1212.49 175.823 1202.85 191.066 1181.31 210.392C1158.95 230.408 1124.76 253.972 1079.5 280.531C1028.63 309.985 975.6 337.575 920.874 363.057C860.734 391.304 799.318 417.804 736.916 442.43C675.435 466.827 613.044 489.289 550.058 509.702C487.902 529.777 431.659 545.324 382.729 556.066C333.8 566.807 295.175 572.051 267.939 571.628C241.623 571.223 226.98 565.604 224.414 554.912C221.848 544.22 231.487 528.976 253.036 509.651C275.362 489.63 309.582 466.071 354.812 439.507V439.507ZM350.881 440.416C164.147 549.861 176.825 602.581 379.162 558.176C581.498 513.77 896.88 389.004 1083.61 279.559C1270.35 170.114 1257.67 117.393 1055.33 161.799C852.998 206.204 537.534 330.957 350.8 440.402L350.881 440.416Z" stroke="url(#paint4_linear_17403_17527)" stroke-width="2"/>
<path d="M351.092 425.521C407.8 395.424 466.479 367.373 526.661 341.593C591.728 313.516 657.937 287.358 724.979 263.239C790.049 239.654 855.883 218.202 922.138 198.992C986.946 180.363 1044.89 166.428 1094.32 157.568C1143.74 148.707 1181.72 145.559 1207.2 148.01C1231.79 150.403 1243.77 157.995 1242.76 170.558C1241.76 183.121 1227.83 200.044 1201.4 220.831C1174.06 242.293 1134.29 267.13 1083.39 294.448C1026.68 324.539 968.002 352.589 907.825 378.377C842.751 406.441 776.543 432.598 709.506 456.73C644.401 480.317 578.53 501.764 512.239 520.958C447.458 539.592 389.513 553.527 340.061 562.383C290.608 571.238 252.671 574.443 227.165 571.987C202.575 569.594 190.602 562.001 191.604 549.438C192.607 536.875 206.515 519.948 232.966 499.165C260.307 477.703 300.077 452.866 350.974 425.548L351.092 425.521ZM346.906 426.273C136.422 539.33 131.367 601.139 335.937 564.574C540.507 528.01 876.86 406.735 1087.43 293.718C1298.01 180.701 1302.9 118.793 1098.47 155.381C894.033 191.968 557.544 313.22 346.943 426.232L346.906 426.273Z" stroke="url(#paint5_linear_17403_17527)" stroke-width="2"/>
<path d="M351.949 409.051C414.272 378.634 478.393 350.465 543.829 324.757C613.467 297.203 684.104 271.759 755.408 248.546C823.594 226.181 892.372 206.183 961.356 188.664C1028.28 171.823 1087.19 159.931 1136.51 153.315C1185.83 146.699 1222.57 145.725 1245.75 150.442C1268.12 155.018 1276.92 164.662 1271.96 179.148C1267.01 193.634 1248.52 212.167 1216.97 234.3C1184.25 257.328 1139.07 282.988 1082.45 310.902C1020.13 341.319 956.019 369.489 890.592 395.201C820.967 422.763 750.338 448.208 679.041 471.417C610.847 493.786 542.059 513.783 473.065 531.294C406.164 548.139 347.233 560.027 297.938 566.648C248.644 573.269 211.883 574.238 188.699 569.52C166.333 564.945 157.499 555.295 162.484 540.814C167.469 526.333 185.926 507.796 217.473 485.663C250.109 462.738 295.378 436.975 352.003 409.061L351.949 409.051ZM347.953 409.604C113.808 525.007 89.3073 596.34 293.308 568.931C497.308 541.523 852.351 425.761 1086.41 310.344C1320.48 194.927 1345.06 123.608 1141.06 151.017C937.059 178.426 582.043 294.192 347.843 409.586L347.953 409.604Z" stroke="url(#paint6_linear_17403_17527)" stroke-width="2"/>
<path d="M358.066 390.151C425.764 359.749 495.086 331.82 565.525 306.57C639.253 279.938 713.819 255.636 788.86 233.785C859.563 213.013 930.65 194.875 1001.68 179.484C1069.99 164.864 1129.19 155.417 1177.67 151.344C1226.16 147.271 1260.96 148.903 1281.3 156.005C1300.89 162.907 1306.12 174.678 1296.77 191.13C1287.41 207.582 1264.03 227.642 1227.28 250.96C1189.23 275.113 1138.43 301.649 1076.29 329.806C1008.64 360.207 939.374 388.144 868.991 413.416C795.261 440.041 720.695 464.343 645.656 486.201C574.954 506.972 503.866 525.11 432.834 540.502C364.528 555.121 305.328 564.569 256.844 568.641C208.36 572.714 173.551 571.082 153.221 563.981C133.631 557.078 128.365 545.303 137.723 528.851C147.082 512.398 170.454 492.339 207.211 469.02C245.255 444.868 296.057 418.331 358.203 390.175L358.066 390.151ZM354.235 390.499C97.1836 506.943 51.2725 587.797 251.785 570.96C452.298 554.123 823.338 446.022 1080.47 329.52C1337.61 213.018 1383.44 132.221 1182.9 149.053C982.356 165.886 611.233 273.973 354.098 390.475L354.235 390.499Z" stroke="url(#paint7_linear_17403_17527)" stroke-width="2"/>
<path d="M369.848 368.827C442.528 338.822 516.647 311.536 591.662 287.17C668.914 261.891 746.815 239.186 824.96 219.172C897.526 200.379 970.221 184.522 1042.54 171.713C1111.39 159.79 1170.09 153.153 1216.98 151.973C1263.86 150.794 1296.1 155.139 1312.76 164.991C1328.91 174.444 1329.93 188.47 1316.01 206.789C1302.09 225.109 1273.6 246.702 1231.58 271.048C1188.08 296.224 1131.82 323.227 1064.33 351.307C991.653 381.313 917.534 408.599 842.519 432.965C765.265 458.237 687.365 480.942 609.221 500.963C536.778 519.688 464.211 535.486 392.025 548.247C323.139 560.164 264.468 566.807 217.583 567.986C170.698 569.166 138.183 564.773 121.435 555.025C105.283 545.573 104.262 531.546 118.156 513.222C132.05 494.898 160.596 473.315 202.616 448.968C246.196 423.806 302.454 396.804 369.848 368.827ZM366.01 368.914C86.9255 485.059 17.8997 575.263 211.796 570.387C405.693 565.51 789.103 467.418 1068.14 351.217C1347.18 235.015 1416.25 144.867 1222.36 149.744C1028.46 154.62 645.022 252.707 366.01 368.914V368.914Z" stroke="url(#paint8_linear_17403_17527)" stroke-width="2"/>
<path d="M388.035 344.832C465.24 315.637 543.679 289.439 622.76 266.436C702.881 242.95 783.425 222.34 863.928 204.726C937.49 188.377 1010.85 175.333 1083.41 165.701C1151.96 156.907 1209.26 153.482 1253.69 155.536C1298.13 157.591 1327.06 164.961 1339.59 177.567C1351.78 189.677 1348.3 206.035 1329.24 226.22C1310.19 246.406 1276.59 269.34 1229.25 294.457C1180.28 320.455 1118.73 347.627 1046.29 375.225C969.093 404.422 890.663 430.621 811.59 453.626C731.469 477.106 650.925 497.715 570.423 515.336C496.812 531.682 423.403 544.718 350.802 554.337C282.247 563.131 224.952 566.556 180.519 564.502C136.087 562.447 107.129 555.072 94.6179 542.471C82.4617 530.366 85.9421 514.008 104.998 493.822C124.054 473.637 157.707 450.713 205.097 425.507C254.065 399.509 315.644 372.341 388.054 344.739L388.035 344.832ZM384.424 344.574C84.8436 458.741 -9.11741 558.13 174.81 566.616C358.736 575.102 750.518 489.395 1050.1 375.227C1349.68 261.06 1443.64 161.671 1259.71 153.185C1075.78 144.699 683.928 230.49 384.348 344.658L384.424 344.574Z" stroke="url(#paint9_linear_17403_17527)" stroke-width="2"/>
<path d="M412.703 318.561C493.824 290.606 575.947 265.975 658.414 244.867C740.568 223.634 822.864 205.609 904.765 190.909C978.624 177.399 1051.86 167.617 1123.74 161.659C1190.99 156.46 1245.91 156.672 1287.01 162.28C1328.11 167.888 1352.91 178.465 1360.73 193.971C1368.28 208.872 1359.76 227.566 1335.39 249.537C1311.01 271.507 1272.03 295.629 1219.47 321.255C1165.09 347.805 1098.5 374.785 1021.66 401.409C940.533 429.353 858.412 453.983 775.947 475.104C693.793 496.331 611.497 514.356 529.596 529.062C455.759 542.545 382.551 552.3 310.699 558.228C243.477 563.431 188.552 563.219 147.453 557.611C106.353 552.003 81.558 541.426 73.7382 525.921C66.1804 511.019 74.7072 492.325 99.0788 470.355C123.451 448.384 162.432 424.262 214.991 398.636C269.379 372.086 335.932 345.101 412.807 318.482L412.703 318.561ZM409.518 317.916C91.1916 428.459 -28.8948 536.696 141.109 559.873C311.114 583.05 706.742 512.417 1024.99 401.958C1343.24 291.5 1463.19 183.385 1293.28 160.102C1123.37 136.82 727.638 207.532 409.415 317.996L409.518 317.916Z" stroke="url(#paint10_linear_17403_17527)" stroke-width="2"/>
<path d="M444.626 289.785C528.976 263.552 614.047 241.004 699.095 222.34C782.427 203.858 865.542 188.975 947.807 177.805C1027.83 167.026 1100.15 161.018 1162.75 159.95C1227.49 158.884 1279.1 163.047 1315.87 172.537C1352.64 182.027 1372.55 196.154 1375.01 214.599C1377.34 232.388 1363.32 253.415 1333.38 277.069C1303.43 300.723 1259.05 325.846 1201.49 351.706C1141.91 378.461 1070.75 404.835 989.882 430.175C905.532 456.415 820.461 478.962 735.413 497.62C652.09 516.109 568.983 530.994 486.728 542.16C406.702 552.94 334.389 558.948 271.781 560.015C207.014 561.077 155.435 556.919 118.636 547.424C81.8364 537.929 61.9859 523.811 59.5011 505.362C57.1945 487.578 71.2105 466.551 101.158 442.896C131.105 419.242 175.49 394.119 233.042 368.259C292.625 341.504 363.789 315.131 444.626 289.785V289.785ZM441.644 289.005C107.33 393.671 -40.2894 510.306 111.932 549.491C264.153 588.676 658.493 535.613 992.779 430.942C1327.07 326.27 1474.71 209.64 1322.4 170.561C1170.08 131.482 775.902 184.328 441.644 289.005Z" stroke="url(#paint11_linear_17403_17527)" stroke-width="2"/>
<path d="M483.93 258.947C654.474 211.906 825.888 180.518 992.041 165.906C1070.58 159.263 1140.4 157.557 1199.49 160.861C1260.68 164.28 1307.68 172.921 1339.17 186.556C1370.66 200.191 1384.77 218.01 1381.12 239.506C1377.53 260.279 1357.71 283.598 1321.95 308.778C1286.19 333.958 1236.52 359.83 1174.19 385.56C1109.68 412.21 1034.4 437.572 950.382 460.993C863.702 485.016 776.643 504.92 690.064 520.509C606.524 535.776 523.664 546.984 442.243 554.029C363.678 560.668 293.887 562.378 234.767 559.07C173.602 555.655 126.601 547.014 95.0845 533.374C63.5677 519.734 49.5133 501.925 53.1681 480.429C56.7289 459.651 76.5761 436.337 112.335 411.157C148.094 385.977 197.881 360.051 260.231 334.399C324.742 307.749 400.028 282.387 484.014 258.962L483.93 258.947ZM481.439 257.858C133.983 354.771 -41.9158 478.894 88.3018 535.365C218.519 591.837 605.764 559.006 953.116 462.172C1300.47 365.339 1476.44 241.132 1346.25 184.665C1216.06 128.198 828.707 161.011 481.411 257.853L481.439 257.858Z" stroke="url(#paint12_linear_17403_17527)" stroke-width="2"/>
<path d="M530.897 226.238C619.071 204.895 707.193 188.18 794.251 176.286C876.829 164.754 958.121 157.82 1037.19 155.563C1112.98 153.57 1178.99 156.67 1233.37 164.742C1289.65 173.139 1330.94 186.42 1356.13 204.591C1381.32 222.762 1388.75 244.263 1378.42 268.867C1368.42 292.623 1342.29 318.121 1300.72 344.67C1259.15 371.219 1204.25 397.467 1137.55 422.715C1068.56 448.845 989.772 472.704 903.497 493.68C815.324 515.013 727.204 531.727 640.144 543.633C557.566 555.16 476.276 562.094 397.2 564.356C321.415 566.348 255.408 563.248 201.02 555.176C144.718 546.774 103.554 533.392 78.2687 515.327C52.9833 497.262 45.6403 475.656 55.9502 451.046C65.9476 427.291 92.1041 401.798 133.789 375.268C175.474 348.738 230.224 322.466 296.957 297.223C365.95 271.092 444.736 247.234 531.01 226.258L530.897 226.238ZM529.072 224.796C172.3 311.528 -32.5922 442.379 71.4055 517.068C175.403 591.756 549.019 581.984 905.791 495.252C1262.56 408.52 1467.46 277.669 1363.46 202.98C1259.46 128.292 885.844 138.063 529.044 224.791L529.072 224.796Z" stroke="url(#paint13_linear_17403_17527)" stroke-width="2"/>
<path d="M585.58 192.006C674.099 173.897 762.012 160.979 848.118 153.429C928.696 146.093 1007.19 143.946 1082.47 147.02C1154.07 150.235 1214.89 158.6 1263.2 171.895C1313.1 185.781 1347.57 204.265 1365.39 226.867C1383.21 249.468 1383.26 275.061 1365.64 302.68C1348.78 329.273 1316.02 356.942 1268.58 384.595C1221.14 412.249 1161.48 438.586 1090.81 462.886C1017.79 488.034 936.395 509.899 848.896 527.864C760.377 545.973 672.463 558.891 586.357 566.44C505.809 573.737 427.344 575.848 352.097 572.743C280.5 569.529 219.683 561.163 171.34 547.864C121.156 534.15 86.7299 515.796 68.9807 493.084C51.2314 470.371 51.1368 444.894 68.7263 417.27C85.6143 390.682 118.354 363.008 165.819 335.36C213.284 307.711 273.063 281.393 343.585 257.069C416.633 231.925 498.032 210.061 585.531 192.096L585.58 192.006ZM583.955 190.227C222.178 264.437 -11.5478 400.596 61.8774 494.468C135.303 588.34 488.374 604.083 850.283 529.798C1212.19 455.513 1445.92 319.355 1372.49 225.482C1299.07 131.61 946.166 115.896 584.116 190.157L583.955 190.227Z" stroke="url(#paint14_linear_17403_17527)" stroke-width="2"/>
<path d="M647.854 156.846C735.623 142.454 822.068 133.917 905.733 131.378C982.997 128.788 1057.13 132.045 1126.73 141.09C1192.67 149.967 1246.82 164.018 1287.72 182.865C1330.03 202.422 1356.25 226.117 1365.7 253.562C1375.15 281.007 1367.09 310.306 1341.72 341.003C1317.33 370.542 1277.97 399.94 1224.75 428.381C1171.54 456.822 1107.22 482.839 1033.5 505.741C957.156 529.468 874.066 548.745 786.681 563.131C698.912 577.523 612.468 586.06 528.802 588.599C451.539 591.189 377.41 587.932 307.802 578.887C241.87 570.01 187.686 555.954 146.816 537.112C104.506 517.555 78.281 493.86 68.8604 466.42C59.4398 438.979 67.2907 409.521 92.6743 378.949C117.065 349.41 156.428 320.013 209.614 291.567C262.8 263.121 327.171 237.114 400.89 214.212C477.239 190.484 560.3 171.203 647.854 156.846V156.846ZM647.093 154.578C284.955 214.011 22.6883 354.119 61.5178 467.565C100.347 581.011 425.182 624.787 787.302 565.302C1149.42 505.816 1411.57 365.81 1372.88 252.388C1334.19 138.966 1009.21 95.1658 647.092 154.651L647.093 154.578Z" stroke="url(#paint15_linear_17403_17527)" stroke-width="2"/>
<path d="M717.3 121.311C803.059 111.139 886.554 107.564 966.015 110.661C1038.78 113.238 1107.04 122.359 1169.12 137.801C1227.76 152.781 1273.88 172.961 1306.01 197.474C1339.29 222.946 1356.17 252.215 1356.09 284.499C1356.41 316.027 1338.68 350.882 1305.83 383.319C1273.62 415.547 1227.52 446.513 1168.84 475.366C1110.15 504.219 1041.79 529.498 965.659 550.524C886.878 572.296 803.172 588.492 716.934 598.69C631.177 608.859 547.683 612.434 468.22 609.34C395.459 606.763 327.2 597.642 265.117 582.2C206.443 567.215 160.353 547.04 128.226 522.527C94.9188 497.05 78.067 467.786 78.1489 435.502C77.8328 403.974 95.5805 369.12 128.462 336.692C160.667 304.464 206.79 273.476 265.567 244.664C324.345 215.851 392.613 190.532 468.716 169.501C551.932 146.865 635.504 130.663 717.3 121.311V121.311ZM717.402 118.632C360.545 160.858 71.2008 303.08 71.0809 436.394C70.9609 569.709 360.156 643.503 717.003 601.324C1073.85 559.146 1363.19 416.924 1363.32 283.562C1363.45 150.201 1074.18 76.4912 717.402 118.632Z" stroke="url(#paint16_linear_17403_17527)" stroke-width="2"/>
<path d="M793.392 86.061C875.925 80.5428 954.958 82.4652 1028.32 91.7753C1095.35 99.9961 1156.13 115.424 1208.73 137.563C1258.57 158.986 1295.08 185.335 1317.17 215.917C1340.06 247.562 1346.43 282.369 1336.16 319.34C1325.94 356.218 1298.68 394.456 1257.88 429.146C1217.64 463.821 1164.82 496.091 1100.99 524.931C1037.17 553.771 965.471 577.917 887.966 596.552C804.485 616.336 721.352 628.917 641.087 633.913C558.554 639.431 479.521 637.508 406.155 628.198C339.124 619.975 278.33 604.546 225.725 582.405C175.877 560.983 139.376 534.634 117.307 504.057C94.3366 472.398 87.9348 437.585 98.2105 400.615C108.427 363.736 135.698 325.497 176.518 290.813C216.759 256.138 269.575 223.869 333.374 195.023C397.173 166.178 468.924 142.042 546.402 123.402C629.882 103.615 713.017 91.0337 793.28 86.0417L793.392 86.061ZM794.097 83.0109C448.597 105.714 133.893 248.116 91.3672 401.073C48.8409 554.029 294.527 659.629 640.196 636.882C985.865 614.134 1300.54 471.8 1343.07 318.844C1385.59 165.888 1139.91 60.2874 794.209 83.0302L794.097 83.0109Z" stroke="url(#paint17_linear_17403_17527)" stroke-width="2"/>
<path d="M875.08 51.5583C953.219 51.1544 1026.26 59.068 1091.6 75.0167C1151.65 89.4469 1203.38 111.573 1244.68 140.491C1284.18 168.616 1309.7 201.465 1320.5 238.086C1331.88 274.376 1326.58 315.637 1305.1 358.032C1283.69 399.781 1246.58 441.216 1197.44 478.238C1149.04 515.079 1089.66 548.191 1021.24 576.718C952.813 605.244 878.488 627.689 800.536 643.45C717.854 659.978 636.418 668.427 559.244 668.483C481.105 668.887 408.064 660.974 342.728 645.025C282.673 630.595 230.939 608.469 189.639 579.55C150.143 551.426 124.62 518.577 113.819 481.955C102.757 443.98 107.894 403.627 129.272 361.92C150.693 320.172 187.799 278.74 236.928 241.715C285.363 204.879 344.713 171.762 413.136 143.235C481.558 114.708 555.835 92.3523 633.788 76.5918C716.471 60.0595 797.908 51.6105 875.08 51.5583V51.5583ZM876.826 48.1493C548.493 49.2713 210.879 189.793 122.693 362.025C34.5062 534.258 229.24 672.93 557.573 671.808C885.906 670.686 1223.52 530.165 1311.78 357.848C1400.04 185.531 1205.16 47.0273 876.826 48.1493V48.1493Z" stroke="url(#paint18_linear_17403_17527)" stroke-width="2"/>
<path d="M961.5 18.2287C1034.1 23.3827 1099.55 37.7475 1154.79 60.6518C1206.53 81.8938 1247.64 110.997 1276.08 146.524C1303.34 180.263 1316.73 220.128 1315.43 263.711C1314.04 307.214 1296.18 353.802 1263.2 399.923C1230.22 446.043 1182.99 490.477 1125.12 529.834C1067.09 569.271 1000.87 603.31 930.465 629.891C856.601 657.962 780.039 678.476 704.575 690.415C541.691 716.186 391.212 705.168 279.539 659.293C227.803 638.053 186.705 608.951 158.279 573.426C131.013 539.687 117.627 499.822 118.929 456.239C120.293 412.739 138.139 366.15 171.106 320.027C204.073 273.904 251.29 229.465 309.154 190.101C367.245 150.663 433.524 116.633 503.973 90.0726C577.837 62.002 654.399 41.4884 729.863 29.549C810.731 16.6121 889.192 12.7839 961.583 18.243L961.5 18.2287ZM964.268 14.4689C659.53 -7.85773 301.679 128.734 165.175 319.56C28.67 510.385 165.357 683.18 470.225 705.505C775.092 727.829 1132.81 591.24 1269.32 400.414C1405.82 209.588 1269.05 36.7794 964.186 14.4547L964.268 14.4689Z" stroke="url(#paint19_linear_17403_17527)" stroke-width="2"/>
<path d="M1051.57 -13.6195C1165.27 6.06338 1248.78 54.9291 1287.96 124.7C1327.13 194.471 1319.56 280.857 1266.52 369.225C1213.48 457.593 1118.24 542.511 996.934 609.592C875.625 676.674 735.705 721.795 600.875 737.313C446.785 754.301 311.514 731.157 224.57 672.929C137.625 614.701 106.06 526.115 136.762 426.492C167.463 326.87 257.939 224.296 388.454 141.144C518.97 57.9919 678.934 1.00934 833.454 -17.3744C911.566 -26.3596 985.751 -25.0825 1051.57 -13.6195V-13.6195ZM1055.28 -17.7589C956.678 -34.7725 840.461 -29.2511 721.322 -1.89284C602.184 25.4654 485.474 73.4317 385.952 135.94C286.431 198.449 208.567 272.693 162.207 349.283C115.848 425.873 103.074 501.369 125.503 566.225C147.931 631.08 204.554 682.382 288.21 713.644C371.867 744.905 478.8 754.721 595.488 741.851C712.175 728.98 833.376 694.002 943.764 641.338C1054.15 588.674 1148.77 520.691 1215.65 445.985C1260.06 396.382 1291.13 345.039 1307.11 294.889C1323.08 244.739 1323.64 196.763 1308.74 153.7C1293.85 110.637 1263.8 73.3317 1220.31 43.9127C1176.82 14.4937 1120.74 -6.46233 1055.28 -17.7589V-17.7589Z" stroke="url(#paint20_linear_17403_17527)" stroke-width="2"/>
</g>
</g>
</g>
<defs>
<linearGradient id="paint0_linear_17403_17527" x1="910.677" y1="141.104" x2="824.953" y2="631.506" gradientUnits="userSpaceOnUse">
<stop stop-color="#A4A0FF"/>
<stop offset="1" stop-color="#F8FCFC"/>
</linearGradient>
<linearGradient id="paint1_linear_17403_17527" x1="920.775" y1="130.092" x2="830.968" y2="645.18" gradientUnits="userSpaceOnUse">
<stop stop-color="#A4A0FF"/>
<stop offset="1" stop-color="#F8FCFC"/>
</linearGradient>
<linearGradient id="paint2_linear_17403_17527" x1="930.275" y1="120.375" x2="836.87" y2="657.423" gradientUnits="userSpaceOnUse">
<stop stop-color="#A4A0FF"/>
<stop offset="1" stop-color="#F8FCFC"/>
</linearGradient>
<linearGradient id="paint3_linear_17403_17527" x1="938.1" y1="111.906" x2="841.612" y2="667.973" gradientUnits="userSpaceOnUse">
<stop stop-color="#A4A0FF"/>
<stop offset="1" stop-color="#F8FCFC"/>
</linearGradient>
<linearGradient id="paint4_linear_17403_17527" x1="944.729" y1="105.041" x2="845.767" y2="676.576" gradientUnits="userSpaceOnUse">
<stop stop-color="#A4A0FF"/>
<stop offset="1" stop-color="#F8FCFC"/>
</linearGradient>
<linearGradient id="paint5_linear_17403_17527" x1="949.699" y1="99.8778" x2="848.913" y2="683.036" gradientUnits="userSpaceOnUse">
<stop stop-color="#A4A0FF"/>
<stop offset="1" stop-color="#F8FCFC"/>
</linearGradient>
<linearGradient id="paint6_linear_17403_17527" x1="952.989" y1="96.5618" x2="851.08" y2="687.178" gradientUnits="userSpaceOnUse">
<stop stop-color="#A4A0FF"/>
<stop offset="1" stop-color="#F8FCFC"/>
</linearGradient>
<linearGradient id="paint7_linear_17403_17527" x1="954.783" y1="95.1576" x2="852.448" y2="689.045" gradientUnits="userSpaceOnUse">
<stop stop-color="#A4A0FF"/>
<stop offset="1" stop-color="#F8FCFC"/>
</linearGradient>
<linearGradient id="paint8_linear_17403_17527" x1="954.388" y1="95.5859" x2="852.302" y2="688.666" gradientUnits="userSpaceOnUse">
<stop stop-color="#A4A0FF"/>
<stop offset="1" stop-color="#F8FCFC"/>
</linearGradient>
<linearGradient id="paint9_linear_17403_17527" x1="952.929" y1="97.4689" x2="851.707" y2="685.989" gradientUnits="userSpaceOnUse">
<stop stop-color="#A4A0FF"/>
<stop offset="1" stop-color="#F8FCFC"/>
</linearGradient>
<linearGradient id="paint10_linear_17403_17527" x1="949.982" y1="100.89" x2="850.091" y2="681.958" gradientUnits="userSpaceOnUse">
<stop stop-color="#A4A0FF"/>
<stop offset="1" stop-color="#F8FCFC"/>
</linearGradient>
<linearGradient id="paint11_linear_17403_17527" x1="946.342" y1="104.983" x2="848.035" y2="676.966" gradientUnits="userSpaceOnUse">
<stop stop-color="#A4A0FF"/>
<stop offset="1" stop-color="#F8FCFC"/>
</linearGradient>
<linearGradient id="paint12_linear_17403_17527" x1="943.114" y1="108.68" x2="846.24" y2="672.33" gradientUnits="userSpaceOnUse">
<stop stop-color="#A4A0FF"/>
<stop offset="1" stop-color="#F8FCFC"/>
</linearGradient>
<linearGradient id="paint13_linear_17403_17527" x1="940.972" y1="111.227" x2="845.066" y2="669.183" gradientUnits="userSpaceOnUse">
<stop stop-color="#A4A0FF"/>
<stop offset="1" stop-color="#F8FCFC"/>
</linearGradient>
<linearGradient id="paint14_linear_17403_17527" x1="941.009" y1="110.836" x2="844.964" y2="669.555" gradientUnits="userSpaceOnUse">
<stop stop-color="#A4A0FF"/>
<stop offset="1" stop-color="#F8FCFC"/>
</linearGradient>
<linearGradient id="paint15_linear_17403_17527" x1="945.259" y1="106.078" x2="847.383" y2="675.457" gradientUnits="userSpaceOnUse">
<stop stop-color="#A4A0FF"/>
<stop offset="1" stop-color="#F8FCFC"/>
</linearGradient>
<linearGradient id="paint16_linear_17403_17527" x1="955.098" y1="95.2327" x2="853.05" y2="688.967" gradientUnits="userSpaceOnUse">
<stop stop-color="#A4A0FF"/>
<stop offset="1" stop-color="#F8FCFC"/>
</linearGradient>
<linearGradient id="paint17_linear_17403_17527" x1="971.068" y1="77.4619" x2="862.183" y2="710.999" gradientUnits="userSpaceOnUse">
<stop stop-color="#A4A0FF"/>
<stop offset="1" stop-color="#F8FCFC"/>
</linearGradient>
<linearGradient id="paint18_linear_17403_17527" x1="993.457" y1="52.4332" x2="874.871" y2="742.118" gradientUnits="userSpaceOnUse">
<stop stop-color="#A4A0FF"/>
<stop offset="1" stop-color="#F8FCFC"/>
</linearGradient>
<linearGradient id="paint19_linear_17403_17527" x1="1021.83" y1="20.5058" x2="890.773" y2="781.779" gradientUnits="userSpaceOnUse">
<stop stop-color="#A4A0FF"/>
<stop offset="1" stop-color="#F8FCFC"/>
</linearGradient>
<linearGradient id="paint20_linear_17403_17527" x1="1055.28" y1="-17.759" x2="909.137" y2="829.166" gradientUnits="userSpaceOnUse">
<stop stop-color="#A4A0FF"/>
<stop offset="1" stop-color="#F8FCFC"/>
</linearGradient>
</defs>
</svg>
