<svg width="1402" height="373" viewBox="0 0 1402 373" fill="none" xmlns="http://www.w3.org/2000/svg">
<g style="mix-blend-mode:multiply">
<path d="M406.269 473.103C429.251 452.081 459.782 428.7 496.987 403.606C535.506 377.787 575.854 353.145 617.75 329.85C661.563 305.372 706.779 282.226 753.135 260.548C796.825 239.949 841.763 221.131 887.543 204.263C929.361 188.969 965.667 178.287 995.151 172.455C1023.58 166.814 1044.55 165.958 1057.49 169.86C1070.43 173.762 1074.64 182.227 1069.99 195.117C1065.25 208.343 1051.12 225.807 1028.14 246.829C1005.16 267.852 974.541 291.334 937.425 316.327C898.904 342.149 858.547 366.79 816.636 390.077C772.85 414.572 727.655 437.729 681.312 459.413C637.617 480.006 592.68 498.825 546.904 515.699C504.927 530.965 468.7 541.661 439.243 547.497C410.786 553.134 389.822 553.99 376.906 550.093C363.991 546.195 359.757 537.726 364.408 524.836C369.115 511.605 383.269 494.146 406.251 473.123L406.269 473.103ZM402.799 474.37C307.618 561.311 371.385 580.609 545.026 517.408C718.667 454.208 936.494 332.537 1031.57 245.578C1126.64 158.619 1063.01 139.344 889.5 202.567C715.991 265.791 498.032 387.439 402.931 474.393L402.799 474.37Z" stroke="url(#paint0_linear_23759_22028)"/>
<path d="M389.011 467.863C417.287 445.239 453.444 420.373 496.297 394.183C540.34 367.365 586.06 341.859 633.183 317.819C681.724 292.923 731.547 269.489 782.385 247.643C829.424 227.227 877.587 208.773 926.44 192.448C970.745 177.881 1008.19 168.179 1037.73 163.627C1066.21 159.197 1086.27 159.758 1097.16 165.228C1108.06 170.698 1109.35 180.837 1100.95 195.344C1092.31 210.281 1073.48 229.453 1045.22 252.056C1016.96 274.659 980.784 299.546 937.931 325.736C893.886 352.559 848.156 378.064 801.019 402.095C752.487 426.993 702.673 450.428 651.844 472.276C604.746 492.681 556.53 511.126 507.629 527.443C463.324 542.01 425.877 551.713 396.367 556.269C367.89 560.699 347.826 560.137 336.931 554.667C326.036 549.197 324.742 539.059 333.15 524.552C341.786 509.615 360.593 490.438 388.878 467.84L389.011 467.863ZM385.239 469.037C268.319 562.553 322.053 589.563 505.313 529.294C688.574 469.026 931.919 344.395 1048.86 250.859C1165.79 157.322 1112.04 130.333 928.756 190.597C745.468 250.861 502.176 375.501 385.239 469.037Z" stroke="url(#paint1_linear_23759_22028)"/>
<path d="M374.385 460.602C413.409 433.231 454.987 407.35 498.647 383.255C548.26 355.682 599.405 329.557 651.808 305.021C704.926 279.973 759.209 256.529 814.381 234.809C864.595 214.88 915.783 197.108 967.475 181.657C1013.78 168.057 1052.05 159.61 1081.26 156.492C1109.51 153.488 1128.13 155.595 1136.66 162.734C1145.19 169.872 1143.16 181.676 1130.66 197.833C1117.7 214.57 1094.01 235.26 1060.25 259.334C1021.23 286.71 979.651 312.591 935.985 336.681C886.489 364.258 835.454 390.386 783.154 414.925C730.031 439.967 675.749 463.411 620.581 485.137C570.367 505.067 519.179 522.839 467.487 538.29C421.184 551.889 382.914 560.337 353.672 563.45C325.45 566.458 306.833 564.351 298.302 557.213C289.771 550.074 291.804 538.27 304.306 522.114C317.263 505.377 340.953 484.687 374.716 460.612L374.385 460.602ZM370.924 461.72C231.266 561.293 273.285 596.45 464.674 540.274C656.064 484.099 924.21 357.817 1063.85 258.265C1203.49 158.712 1161.49 123.534 970.099 179.71C778.71 235.886 510.206 362.152 370.647 461.719L370.924 461.72Z" stroke="url(#paint2_linear_23759_22028)"/>
<path d="M362.831 451.199C407.802 422.662 455.12 395.803 504.32 370.885C614.431 314.79 729.808 264.971 848.297 222.357C901.279 203.162 955.076 186.354 1009.17 172.095C1057.02 159.786 1095.74 152.793 1124.21 151.35C1151.73 149.956 1168.61 153.759 1174.31 162.645C1180.02 171.531 1174.38 185.043 1157.47 202.817C1139.99 221.225 1111.13 243.426 1071.73 268.786C1026.76 297.322 979.444 324.182 930.244 349.099C875.307 377.155 818.968 403.623 761.507 428.372C704.034 453.25 645.525 476.373 586.267 497.628C533.275 516.822 479.469 533.628 425.37 547.884C377.541 560.198 338.826 567.191 310.332 568.63C282.835 570.028 265.932 566.221 260.249 557.339C254.567 548.458 260.18 534.941 277.065 517.163C294.57 498.759 323.431 476.559 362.831 451.199V451.199ZM358.849 452.186C195.849 557.11 224.144 600.882 422.065 549.958C619.986 499.034 912.572 372.674 1075.55 267.77C1238.54 162.867 1210.26 119.074 1012.34 169.998C814.417 220.922 521.849 347.262 358.849 452.186V452.186Z" stroke="url(#paint3_linear_23759_22028)"/>
<path d="M354.813 439.507C405.697 410.065 458.726 382.476 513.441 356.981C573.595 328.742 635.02 302.244 697.427 277.613C758.908 253.215 821.298 230.754 884.285 210.341C946.44 190.266 1002.68 174.719 1051.61 163.977C1100.54 153.235 1139.17 147.992 1166.4 148.415C1192.72 148.82 1207.36 154.439 1209.93 165.131C1212.49 175.822 1202.86 191.066 1181.31 210.391C1158.95 230.408 1124.76 253.972 1079.5 280.531C1028.63 309.985 975.601 337.575 920.875 363.057C860.735 391.304 799.319 417.804 736.917 442.43C675.436 466.827 613.045 489.289 550.059 509.702C487.903 529.777 431.66 545.324 382.73 556.066C333.801 566.807 295.176 572.051 267.94 571.628C241.624 571.223 226.981 565.603 224.415 554.912C221.849 544.22 231.488 528.976 253.037 509.651C275.363 489.63 309.583 466.071 354.813 439.507V439.507ZM350.882 440.416C164.148 549.861 176.826 602.581 379.163 558.176C581.499 513.77 896.881 389.003 1083.62 279.558C1270.35 170.113 1257.67 117.393 1055.34 161.799C852.999 206.204 537.535 330.957 350.801 440.402L350.882 440.416Z" stroke="url(#paint4_linear_23759_22028)"/>
<path d="M351.093 425.521C407.801 395.424 466.48 367.373 526.662 341.593C591.729 313.516 657.938 287.357 724.98 263.239C790.05 239.654 855.884 218.201 922.139 198.992C986.947 180.363 1044.89 166.428 1094.32 157.568C1143.74 148.707 1181.72 145.558 1207.2 148.01C1231.79 150.403 1243.77 157.995 1242.76 170.558C1241.76 183.121 1227.83 200.044 1201.4 220.831C1174.06 242.293 1134.29 267.13 1083.39 294.448C1026.68 324.539 968.003 352.589 907.826 378.376C842.752 406.44 776.544 432.598 709.507 456.73C644.402 480.317 578.531 501.764 512.24 520.958C447.459 539.592 389.514 553.527 340.062 562.382C290.609 571.238 252.672 574.442 227.166 571.986C202.576 569.594 190.603 562.001 191.605 549.438C192.608 536.875 206.516 519.947 232.967 499.165C260.308 477.703 300.078 452.866 350.975 425.548L351.093 425.521ZM346.907 426.273C136.423 539.33 131.368 601.138 335.938 564.574C540.508 528.01 876.861 406.735 1087.44 293.718C1298.01 180.701 1302.9 118.793 1098.47 155.381C894.034 191.968 557.545 313.22 346.944 426.232L346.907 426.273Z" stroke="url(#paint5_linear_23759_22028)"/>
<path d="M351.949 409.051C414.272 378.634 478.393 350.465 543.829 324.757C613.467 297.203 684.104 271.759 755.408 248.546C823.594 226.181 892.372 206.183 961.357 188.664C1028.29 171.823 1087.19 159.931 1136.51 153.315C1185.83 146.699 1222.57 145.725 1245.75 150.442C1268.12 155.018 1276.92 164.662 1271.97 179.148C1267.01 193.634 1248.52 212.167 1216.98 234.3C1184.25 257.328 1139.07 282.988 1082.45 310.902C1020.13 341.319 956.02 369.489 890.593 395.2C820.967 422.763 750.339 448.208 679.041 471.417C610.847 493.786 542.059 513.783 473.065 531.294C406.164 548.139 347.233 560.027 297.939 566.648C248.644 573.268 211.884 574.238 188.699 569.52C166.334 564.944 157.499 555.295 162.484 540.814C167.469 526.333 185.926 507.796 217.474 485.663C250.109 462.738 295.379 436.975 352.004 409.061L351.949 409.051ZM347.953 409.604C113.808 525.007 89.3078 596.34 293.308 568.931C497.308 541.523 852.352 425.761 1086.41 310.344C1320.48 194.927 1345.06 123.608 1141.06 151.017C937.059 178.425 582.043 294.192 347.844 409.585L347.953 409.604Z" stroke="url(#paint6_linear_23759_22028)"/>
<path d="M358.067 390.151C425.764 359.749 495.087 331.82 565.525 306.57C639.253 279.938 713.82 255.636 788.861 233.785C859.563 213.013 930.65 194.875 1001.68 179.484C1069.99 164.864 1129.19 155.417 1177.67 151.344C1226.16 147.271 1260.97 148.903 1281.3 156.005C1300.89 162.907 1306.12 174.678 1296.77 191.13C1287.41 207.582 1264.04 227.642 1227.28 250.96C1189.23 275.113 1138.43 301.649 1076.29 329.806C1008.64 360.207 939.374 388.144 868.992 413.416C795.262 440.041 720.696 464.343 645.656 486.201C574.954 506.972 503.867 525.11 432.835 540.502C364.528 555.121 305.329 564.569 256.845 568.641C208.361 572.714 173.552 571.082 153.221 563.981C133.631 557.078 128.365 545.303 137.724 528.851C147.082 512.398 170.454 492.339 207.211 469.02C245.255 444.868 296.057 418.331 358.204 390.175L358.067 390.151ZM354.236 390.499C97.1841 506.943 51.273 587.797 251.786 570.96C452.298 554.123 823.339 446.022 1080.47 329.52C1337.61 213.018 1383.44 132.221 1182.9 149.053C982.356 165.886 611.233 273.973 354.098 390.475L354.236 390.499Z" stroke="url(#paint7_linear_23759_22028)"/>
<path d="M369.848 368.827C442.528 338.822 516.647 311.536 591.662 287.17C668.914 261.891 746.815 239.186 824.96 219.172C897.526 200.379 970.221 184.522 1042.54 171.713C1111.39 159.79 1170.09 153.153 1216.98 151.973C1263.86 150.794 1296.1 155.139 1312.76 164.991C1328.91 174.444 1329.93 188.47 1316.01 206.789C1302.09 225.109 1273.6 246.702 1231.58 271.048C1188.08 296.224 1131.82 323.227 1064.33 351.307C991.653 381.313 917.534 408.599 842.519 432.965C765.265 458.237 687.365 480.942 609.221 500.963C536.778 519.688 464.211 535.486 392.025 548.247C323.139 560.164 264.468 566.807 217.583 567.986C170.698 569.166 138.183 564.773 121.435 555.025C105.283 545.573 104.262 531.546 118.156 513.222C132.05 494.898 160.596 473.315 202.616 448.968C246.196 423.806 302.454 396.804 369.848 368.827ZM366.01 368.914C86.9255 485.059 17.8997 575.263 211.796 570.387C405.693 565.51 789.103 467.418 1068.14 351.217C1347.18 235.015 1416.25 144.867 1222.36 149.744C1028.46 154.62 645.022 252.707 366.01 368.914V368.914Z" stroke="url(#paint8_linear_23759_22028)"/>
<path d="M388.035 344.832C465.241 315.637 543.679 289.439 622.761 266.436C702.882 242.95 783.426 222.341 863.928 204.726C937.491 188.377 1010.85 175.333 1083.41 165.701C1151.97 156.907 1209.26 153.482 1253.69 155.536C1298.13 157.591 1327.06 164.961 1339.59 177.567C1351.78 189.677 1348.3 206.035 1329.24 226.221C1310.19 246.406 1276.59 269.34 1229.25 294.457C1180.28 320.455 1118.73 347.627 1046.29 375.225C969.093 404.422 890.664 430.622 811.591 453.626C731.469 477.106 650.926 497.716 570.424 515.336C496.812 531.682 423.403 544.718 350.802 554.338C282.248 563.131 224.952 566.556 180.52 564.502C136.087 562.447 107.129 555.072 94.6184 542.471C82.4622 530.366 85.9426 514.008 104.998 493.822C124.054 473.637 157.707 450.713 205.098 425.507C254.066 399.509 315.645 372.341 388.055 344.739L388.035 344.832ZM384.424 344.574C84.8441 458.741 -9.11693 558.131 174.81 566.616C358.737 575.102 750.518 489.395 1050.1 375.227C1349.68 261.06 1443.64 161.671 1259.71 153.185C1075.79 144.699 683.929 230.49 384.349 344.658L384.424 344.574Z" stroke="url(#paint9_linear_23759_22028)"/>
<path d="M412.704 318.561C493.825 290.606 575.948 265.975 658.415 244.867C740.568 223.634 822.864 205.609 904.765 190.909C978.624 177.399 1051.86 167.617 1123.74 161.659C1190.99 156.46 1245.91 156.672 1287.01 162.28C1328.11 167.888 1352.91 178.466 1360.73 193.971C1368.28 208.872 1359.76 227.567 1335.39 249.537C1311.01 271.507 1272.03 295.629 1219.47 321.255C1165.09 347.805 1098.5 374.785 1021.66 401.409C940.534 429.353 858.412 453.983 775.947 475.104C693.793 496.331 611.498 514.356 529.596 529.062C455.759 542.545 382.552 552.3 310.7 558.228C243.477 563.432 188.553 563.22 147.453 557.612C106.353 552.003 81.5585 541.426 73.7387 525.921C66.1809 511.019 74.7076 492.325 99.0793 470.355C123.451 448.384 162.433 424.262 214.992 398.637C269.379 372.086 335.933 345.101 412.807 318.482L412.704 318.561ZM409.519 317.917C91.1921 428.46 -28.8943 536.696 141.11 559.873C311.114 583.05 706.742 512.417 1024.99 401.959C1343.24 291.5 1463.19 183.385 1293.28 160.102C1123.37 136.82 727.639 207.532 409.415 317.996L409.519 317.917Z" stroke="url(#paint10_linear_23759_22028)"/>
<path d="M444.626 289.785C528.976 263.552 614.047 241.004 699.095 222.34C782.427 203.858 865.542 188.975 947.807 177.805C1027.83 167.026 1100.15 161.018 1162.75 159.95C1227.49 158.884 1279.1 163.047 1315.87 172.537C1352.64 182.027 1372.55 196.154 1375.01 214.599C1377.34 232.388 1363.32 253.415 1333.38 277.069C1303.43 300.723 1259.05 325.846 1201.49 351.706C1141.91 378.461 1070.75 404.835 989.882 430.175C905.532 456.415 820.461 478.962 735.413 497.62C652.09 516.109 568.983 530.994 486.728 542.16C406.702 552.94 334.389 558.948 271.781 560.015C207.014 561.077 155.435 556.919 118.636 547.424C81.8364 537.929 61.9859 523.811 59.5011 505.362C57.1945 487.578 71.2105 466.551 101.158 442.896C131.105 419.242 175.49 394.119 233.042 368.259C292.625 341.504 363.789 315.131 444.626 289.785V289.785ZM441.644 289.005C107.33 393.671 -40.2894 510.306 111.932 549.491C264.153 588.676 658.493 535.613 992.779 430.942C1327.07 326.27 1474.71 209.64 1322.4 170.561C1170.08 131.482 775.902 184.328 441.644 289.005Z" stroke="url(#paint11_linear_23759_22028)"/>
<path d="M483.93 258.947C654.474 211.905 825.888 180.518 992.041 165.906C1070.58 159.262 1140.4 157.557 1199.49 160.861C1260.68 164.28 1307.68 172.921 1339.17 186.556C1370.66 200.191 1384.77 218.01 1381.12 239.506C1377.53 260.279 1357.71 283.597 1321.95 308.778C1286.19 333.958 1236.52 359.83 1174.19 385.56C1109.68 412.21 1034.4 437.572 950.382 460.993C863.702 485.016 776.643 504.92 690.064 520.509C606.525 535.776 523.664 546.983 442.244 554.029C363.679 560.668 293.888 562.378 234.767 559.07C173.603 555.655 126.602 547.014 95.085 533.374C63.5682 519.734 49.5137 501.925 53.1685 480.429C56.7293 459.651 76.5766 436.337 112.335 411.157C148.094 385.977 197.882 360.051 260.231 334.399C324.742 307.749 400.028 282.387 484.015 258.961L483.93 258.947ZM481.439 257.858C133.983 354.771 -41.9153 478.893 88.3023 535.365C218.52 591.837 605.764 559.005 953.116 462.172C1300.47 365.339 1476.44 241.132 1346.25 184.665C1216.06 128.198 828.707 161.01 481.411 257.853L481.439 257.858Z" stroke="url(#paint12_linear_23759_22028)"/>
<path d="M530.897 226.238C619.071 204.895 707.193 188.181 794.251 176.286C876.83 164.754 958.121 157.82 1037.19 155.563C1112.98 153.57 1178.99 156.67 1233.37 164.743C1289.65 173.139 1330.94 186.42 1356.13 204.591C1381.32 222.762 1388.75 244.263 1378.42 268.867C1368.42 292.623 1342.29 318.121 1300.72 344.67C1259.15 371.219 1204.25 397.467 1137.55 422.715C1068.56 448.846 989.772 472.704 903.498 493.68C815.325 515.013 727.204 531.728 640.144 543.633C557.567 555.161 476.276 562.095 397.201 564.356C321.416 566.348 255.408 563.249 201.021 555.176C144.718 546.775 103.555 533.392 78.2692 515.327C52.9838 497.263 45.6407 475.656 55.9506 451.046C65.9481 427.291 92.1046 401.798 133.79 375.268C175.475 348.738 230.225 322.466 296.957 297.223C365.951 271.092 444.736 247.234 531.01 226.258L530.897 226.238ZM529.073 224.796C172.3 311.528 -32.5917 442.38 71.406 517.068C175.404 591.757 549.019 581.985 905.792 495.252C1262.56 408.52 1467.46 277.669 1363.46 202.98C1259.46 128.292 885.845 138.064 529.044 224.791L529.073 224.796Z" stroke="url(#paint13_linear_23759_22028)"/>
<path d="M585.58 192.006C674.099 173.897 762.012 160.979 848.118 153.429C928.696 146.093 1007.19 143.946 1082.47 147.02C1154.07 150.235 1214.89 158.6 1263.2 171.895C1313.1 185.781 1347.57 204.265 1365.39 226.866C1383.21 249.467 1383.26 275.061 1365.64 302.68C1348.78 329.273 1316.02 356.942 1268.58 384.595C1221.14 412.249 1161.48 438.586 1090.81 462.886C1017.79 488.034 936.395 509.899 848.896 527.864C760.377 545.973 672.463 558.89 586.357 566.44C505.809 573.737 427.344 575.848 352.097 572.743C280.5 569.529 219.683 561.163 171.34 547.864C121.156 534.15 86.7299 515.796 68.9807 493.083C51.2314 470.371 51.1368 444.893 68.7263 417.27C85.6143 390.681 118.354 363.008 165.819 335.36C213.284 307.711 273.063 281.393 343.585 257.068C416.633 231.925 498.032 210.061 585.531 192.096L585.58 192.006ZM583.955 190.227C222.178 264.437 -11.5478 400.595 61.8774 494.468C135.303 588.34 488.374 604.083 850.283 529.798C1212.19 455.513 1445.92 319.354 1372.49 225.482C1299.07 131.61 946.166 115.896 584.116 190.157L583.955 190.227Z" stroke="url(#paint14_linear_23759_22028)"/>
<path d="M647.855 156.846C735.624 142.454 822.068 133.917 905.734 131.378C982.997 128.787 1057.13 132.045 1126.73 141.09C1192.67 149.967 1246.82 164.017 1287.72 182.865C1330.03 202.422 1356.25 226.117 1365.7 253.562C1375.15 281.007 1367.09 310.306 1341.72 341.003C1317.33 370.542 1277.97 399.939 1224.75 428.381C1171.54 456.822 1107.22 482.839 1033.5 505.741C957.156 529.468 874.067 548.745 786.682 563.131C698.913 577.522 612.468 586.06 528.803 588.599C451.539 591.189 377.41 587.931 307.802 578.887C241.871 570.01 187.686 555.954 146.817 537.112C104.507 517.555 78.2814 493.859 68.8608 466.419C59.4402 438.979 67.2912 409.521 92.6748 378.949C117.065 349.41 156.429 320.013 209.615 291.567C262.801 263.121 327.171 237.113 400.891 214.212C477.239 190.484 560.3 171.203 647.855 156.846V156.846ZM647.094 154.577C284.955 214.01 22.6887 354.119 61.5182 467.565C100.348 581.011 425.183 624.787 787.303 565.301C1149.42 505.816 1411.57 365.809 1372.88 252.387C1334.19 138.966 1009.21 95.1656 647.093 154.651L647.094 154.577Z" stroke="url(#paint15_linear_23759_22028)"/>
<path d="M717.301 121.31C803.06 111.139 886.554 107.564 966.015 110.66C1038.78 113.237 1107.04 122.359 1169.12 137.8C1227.76 152.781 1273.88 172.961 1306.01 197.474C1339.29 222.946 1356.17 252.215 1356.09 284.499C1356.41 316.027 1338.68 350.881 1305.83 383.318C1273.62 415.546 1227.52 446.513 1168.84 475.366C1110.15 504.219 1041.79 529.497 965.66 550.524C886.879 572.296 803.173 588.492 716.935 598.69C631.177 608.858 547.683 612.434 468.22 609.34C395.459 606.763 327.2 597.642 265.117 582.2C206.443 567.215 160.353 547.04 128.226 522.526C94.9193 497.05 78.0675 467.786 78.1494 435.501C77.8333 403.974 95.581 369.12 128.463 336.692C160.668 304.464 206.79 273.476 265.568 244.664C324.345 215.851 392.613 190.532 468.716 169.501C551.933 146.864 635.505 130.663 717.301 121.31V121.31ZM717.402 118.632C360.546 160.858 71.2013 303.08 71.0814 436.394C70.9614 569.709 360.157 643.503 717.003 601.324C1073.85 559.145 1363.19 416.924 1363.32 283.562C1363.45 150.201 1074.18 76.491 717.402 118.632Z" stroke="url(#paint16_linear_23759_22028)"/>
<path d="M793.392 86.0612C875.925 80.5431 954.958 82.4654 1028.32 91.7755C1095.35 99.9963 1156.13 115.424 1208.73 137.564C1258.57 158.986 1295.08 185.335 1317.17 215.917C1340.06 247.562 1346.43 282.369 1336.16 319.34C1325.94 356.218 1298.68 394.457 1257.88 429.146C1217.64 463.821 1164.82 496.091 1100.99 524.931C1037.17 553.772 965.471 577.918 887.966 596.552C804.485 616.336 721.352 628.917 641.087 633.913C558.554 639.431 479.521 637.509 406.155 628.198C339.124 619.975 278.33 604.546 225.725 582.406C175.877 560.983 139.376 534.634 117.307 504.057C94.3366 472.398 87.9348 437.586 98.2105 400.615C108.427 363.736 135.698 325.497 176.518 290.813C216.759 256.138 269.575 223.869 333.374 195.024C397.173 166.178 468.924 142.042 546.402 123.402C629.882 103.615 713.017 91.0339 793.28 86.042L793.392 86.0612ZM794.097 83.0112C448.597 105.715 133.893 248.117 91.3672 401.073C48.8409 554.03 294.527 659.63 640.196 636.882C985.865 614.134 1300.54 471.801 1343.07 318.844C1385.59 165.888 1139.91 60.2876 794.209 83.0304L794.097 83.0112Z" stroke="url(#paint17_linear_23759_22028)"/>
<path d="M875.08 51.5584C953.219 51.1545 1026.26 59.0681 1091.6 75.0168C1151.65 89.447 1203.38 111.573 1244.68 140.491C1284.18 168.616 1309.7 201.465 1320.5 238.086C1331.88 274.376 1326.58 315.637 1305.1 358.032C1283.69 399.781 1246.58 441.216 1197.44 478.238C1149.04 515.079 1089.66 548.191 1021.24 576.718C952.813 605.244 878.488 627.689 800.536 643.45C717.854 659.978 636.418 668.427 559.244 668.483C481.105 668.887 408.064 660.974 342.728 645.025C282.673 630.595 230.939 608.469 189.639 579.55C150.143 551.426 124.62 518.577 113.819 481.956C102.757 443.98 107.894 403.627 129.272 361.921C150.693 320.173 187.799 278.741 236.928 241.715C285.363 204.879 344.713 171.762 413.136 143.235C481.558 114.709 555.835 92.3524 633.788 76.5919C716.471 60.0596 797.908 51.6106 875.08 51.5584V51.5584ZM876.826 48.1494C548.493 49.2714 210.879 189.793 122.693 362.026C34.5062 534.258 229.24 672.93 557.573 671.808C885.906 670.686 1223.52 530.165 1311.78 357.848C1400.04 185.531 1205.16 47.0275 876.826 48.1494V48.1494Z" stroke="url(#paint18_linear_23759_22028)"/>
<path d="M961.5 18.2287C1034.1 23.3827 1099.55 37.7475 1154.79 60.6518C1206.53 81.8938 1247.64 110.997 1276.08 146.524C1303.34 180.263 1316.73 220.128 1315.43 263.711C1314.04 307.214 1296.18 353.802 1263.2 399.923C1230.22 446.043 1182.99 490.477 1125.12 529.834C1067.09 569.271 1000.87 603.31 930.465 629.891C856.602 657.962 780.04 678.476 704.576 690.415C541.692 716.186 391.213 705.168 279.54 659.293C227.803 638.053 186.706 608.951 158.279 573.426C131.013 539.687 117.627 499.822 118.93 456.239C120.293 412.739 138.139 366.15 171.106 320.027C204.073 273.904 251.29 229.465 309.154 190.101C367.246 150.663 433.524 116.633 503.974 90.0726C577.837 62.002 654.399 41.4884 729.863 29.549C810.731 16.6121 889.192 12.7839 961.583 18.243L961.5 18.2287ZM964.269 14.4689C659.53 -7.85773 301.68 128.734 165.175 319.56C28.6705 510.385 165.358 683.18 470.225 705.505C775.093 727.829 1132.81 591.24 1269.32 400.414C1405.82 209.588 1269.05 36.7794 964.186 14.4547L964.269 14.4689Z" stroke="url(#paint19_linear_23759_22028)"/>
<path d="M1051.57 -13.6195C1165.27 6.06338 1248.79 54.9291 1287.96 124.7C1327.13 194.471 1319.56 280.857 1266.52 369.225C1213.48 457.593 1118.24 542.511 996.935 609.592C875.626 676.674 735.706 721.795 600.876 737.313C446.786 754.301 311.515 731.157 224.57 672.929C137.625 614.701 106.061 526.115 136.763 426.492C167.464 326.87 257.94 224.296 388.455 141.144C518.971 57.9919 678.934 1.00934 833.455 -17.3744C911.567 -26.3596 985.752 -25.0825 1051.57 -13.6195V-13.6195ZM1055.28 -17.7589C956.679 -34.7725 840.462 -29.2511 721.323 -1.89284C602.185 25.4654 485.475 73.4317 385.953 135.94C286.432 198.449 208.568 272.693 162.208 349.283C115.849 425.873 103.075 501.369 125.504 566.225C147.932 631.08 204.555 682.382 288.211 713.644C371.868 744.905 478.801 754.721 595.489 741.851C712.176 728.98 833.377 694.002 943.765 641.338C1054.15 588.674 1148.77 520.691 1215.65 445.985C1260.06 396.382 1291.13 345.039 1307.11 294.889C1323.08 244.739 1323.64 196.763 1308.75 153.7C1293.85 110.637 1263.8 73.3317 1220.31 43.9127C1176.82 14.4937 1120.75 -6.46233 1055.28 -17.7589V-17.7589Z" stroke="url(#paint20_linear_23759_22028)"/>
</g>
<defs>
<linearGradient id="paint0_linear_23759_22028" x1="910.678" y1="141.104" x2="824.954" y2="631.506" gradientUnits="userSpaceOnUse">
<stop stop-color="#A4A0FF"/>
<stop offset="1" stop-color="#F8FCFC"/>
</linearGradient>
<linearGradient id="paint1_linear_23759_22028" x1="920.776" y1="130.092" x2="830.968" y2="645.18" gradientUnits="userSpaceOnUse">
<stop stop-color="#A4A0FF"/>
<stop offset="1" stop-color="#F8FCFC"/>
</linearGradient>
<linearGradient id="paint2_linear_23759_22028" x1="930.275" y1="120.375" x2="836.87" y2="657.423" gradientUnits="userSpaceOnUse">
<stop stop-color="#A4A0FF"/>
<stop offset="1" stop-color="#F8FCFC"/>
</linearGradient>
<linearGradient id="paint3_linear_23759_22028" x1="938.1" y1="111.906" x2="841.613" y2="667.973" gradientUnits="userSpaceOnUse">
<stop stop-color="#A4A0FF"/>
<stop offset="1" stop-color="#F8FCFC"/>
</linearGradient>
<linearGradient id="paint4_linear_23759_22028" x1="944.73" y1="105.041" x2="845.768" y2="676.576" gradientUnits="userSpaceOnUse">
<stop stop-color="#A4A0FF"/>
<stop offset="1" stop-color="#F8FCFC"/>
</linearGradient>
<linearGradient id="paint5_linear_23759_22028" x1="949.7" y1="99.8776" x2="848.914" y2="683.035" gradientUnits="userSpaceOnUse">
<stop stop-color="#A4A0FF"/>
<stop offset="1" stop-color="#F8FCFC"/>
</linearGradient>
<linearGradient id="paint6_linear_23759_22028" x1="952.99" y1="96.5617" x2="851.08" y2="687.178" gradientUnits="userSpaceOnUse">
<stop stop-color="#A4A0FF"/>
<stop offset="1" stop-color="#F8FCFC"/>
</linearGradient>
<linearGradient id="paint7_linear_23759_22028" x1="954.783" y1="95.1576" x2="852.448" y2="689.045" gradientUnits="userSpaceOnUse">
<stop stop-color="#A4A0FF"/>
<stop offset="1" stop-color="#F8FCFC"/>
</linearGradient>
<linearGradient id="paint8_linear_23759_22028" x1="954.388" y1="95.5859" x2="852.302" y2="688.666" gradientUnits="userSpaceOnUse">
<stop stop-color="#A4A0FF"/>
<stop offset="1" stop-color="#F8FCFC"/>
</linearGradient>
<linearGradient id="paint9_linear_23759_22028" x1="952.929" y1="97.469" x2="851.707" y2="685.99" gradientUnits="userSpaceOnUse">
<stop stop-color="#A4A0FF"/>
<stop offset="1" stop-color="#F8FCFC"/>
</linearGradient>
<linearGradient id="paint10_linear_23759_22028" x1="949.982" y1="100.89" x2="850.092" y2="681.958" gradientUnits="userSpaceOnUse">
<stop stop-color="#A4A0FF"/>
<stop offset="1" stop-color="#F8FCFC"/>
</linearGradient>
<linearGradient id="paint11_linear_23759_22028" x1="946.342" y1="104.983" x2="848.035" y2="676.966" gradientUnits="userSpaceOnUse">
<stop stop-color="#A4A0FF"/>
<stop offset="1" stop-color="#F8FCFC"/>
</linearGradient>
<linearGradient id="paint12_linear_23759_22028" x1="943.114" y1="108.68" x2="846.241" y2="672.33" gradientUnits="userSpaceOnUse">
<stop stop-color="#A4A0FF"/>
<stop offset="1" stop-color="#F8FCFC"/>
</linearGradient>
<linearGradient id="paint13_linear_23759_22028" x1="940.972" y1="111.227" x2="845.067" y2="669.183" gradientUnits="userSpaceOnUse">
<stop stop-color="#A4A0FF"/>
<stop offset="1" stop-color="#F8FCFC"/>
</linearGradient>
<linearGradient id="paint14_linear_23759_22028" x1="941.009" y1="110.836" x2="844.964" y2="669.555" gradientUnits="userSpaceOnUse">
<stop stop-color="#A4A0FF"/>
<stop offset="1" stop-color="#F8FCFC"/>
</linearGradient>
<linearGradient id="paint15_linear_23759_22028" x1="945.259" y1="106.078" x2="847.384" y2="675.457" gradientUnits="userSpaceOnUse">
<stop stop-color="#A4A0FF"/>
<stop offset="1" stop-color="#F8FCFC"/>
</linearGradient>
<linearGradient id="paint16_linear_23759_22028" x1="955.099" y1="95.2325" x2="853.051" y2="688.967" gradientUnits="userSpaceOnUse">
<stop stop-color="#A4A0FF"/>
<stop offset="1" stop-color="#F8FCFC"/>
</linearGradient>
<linearGradient id="paint17_linear_23759_22028" x1="971.068" y1="77.4621" x2="862.183" y2="711" gradientUnits="userSpaceOnUse">
<stop stop-color="#A4A0FF"/>
<stop offset="1" stop-color="#F8FCFC"/>
</linearGradient>
<linearGradient id="paint18_linear_23759_22028" x1="993.457" y1="52.4333" x2="874.871" y2="742.118" gradientUnits="userSpaceOnUse">
<stop stop-color="#A4A0FF"/>
<stop offset="1" stop-color="#F8FCFC"/>
</linearGradient>
<linearGradient id="paint19_linear_23759_22028" x1="1021.83" y1="20.5058" x2="890.774" y2="781.779" gradientUnits="userSpaceOnUse">
<stop stop-color="#A4A0FF"/>
<stop offset="1" stop-color="#F8FCFC"/>
</linearGradient>
<linearGradient id="paint20_linear_23759_22028" x1="1055.28" y1="-17.759" x2="909.138" y2="829.166" gradientUnits="userSpaceOnUse">
<stop stop-color="#A4A0FF"/>
<stop offset="1" stop-color="#F8FCFC"/>
</linearGradient>
</defs>
</svg>
