<svg width="744" height="456" viewBox="0 0 744 456" fill="none" xmlns="http://www.w3.org/2000/svg">
<g style="mix-blend-mode:multiply">
<path d="M203.775 446.486C212.899 428.661 227.072 410.46 245.877 392.374C265.42 373.845 286.975 357.331 310.392 342.947C334.828 327.762 361.001 314.642 388.762 303.663C414.849 293.113 442.752 285.117 472.216 279.746C499.183 274.978 523.767 273.966 545.015 276.571C565.496 279.062 582.09 284.879 594.334 293.809C606.579 302.74 613.808 314.315 615.861 328.329C617.998 342.722 614.44 359.151 605.316 376.977C596.193 394.802 581.993 413.096 563.215 431.089C543.672 449.622 522.109 466.132 498.676 480.502C474.27 495.716 448.118 508.856 420.372 519.847C394.278 530.388 366.376 538.384 336.917 543.764C309.81 548.447 285.296 549.501 264.071 546.91C243.567 544.406 226.973 538.588 214.752 529.672C202.531 520.756 195.278 509.166 193.225 495.152C191.065 480.746 194.647 464.33 203.77 446.505L203.775 446.486ZM201.536 446.879C163.695 520.554 224.058 564.643 336.168 545.21C448.278 525.778 569.779 450.319 607.526 376.588C645.274 302.857 585.029 258.839 473.036 278.342C361.043 297.846 239.425 373.233 201.654 446.95L201.536 446.879Z" stroke="url(#paint0_linear_23759_28706)"/>
<path d="M189.057 434.455C201.649 416.538 219.572 398.493 242.286 381.037C265.675 363.213 291.001 347.506 318.113 334.01C345.98 319.948 375.534 308.054 406.615 298.39C435.284 289.207 465.737 282.738 497.698 279.042C526.791 275.976 552.55 276.51 574.259 280.645C595.17 284.581 611.554 291.765 622.767 301.852C633.98 311.939 639.567 324.5 639.31 339.145C639.064 354.23 632.516 371.078 619.929 388.976C607.342 406.874 589.414 424.938 566.7 442.394C543.311 460.222 517.976 475.925 490.85 489.406C462.99 503.473 433.445 515.372 402.371 525.04C373.65 534.192 343.151 540.632 311.148 544.303C282.055 547.37 256.295 546.836 234.61 542.715C213.699 538.779 197.315 531.595 186.102 521.508C174.889 511.421 169.302 498.86 169.558 484.215C169.805 469.13 176.329 452.267 188.94 434.384L189.057 434.455ZM186.55 434.637C134.469 508.685 189.784 558.469 310.116 545.769C430.447 533.068 570.232 462.789 622.319 388.723C674.405 314.657 619.085 264.891 498.73 277.577C378.375 290.263 238.637 360.571 186.55 434.637Z" stroke="url(#paint1_linear_23759_28706)"/>
<path d="M175.713 420.919C194.673 400.938 216.335 383.553 240.452 368.963C267.773 352.153 296.961 337.561 327.86 325.264C359.102 312.589 391.988 302.196 426.35 294.141C457.553 286.617 490.494 281.974 524.869 280.255C555.768 279 582.55 281.285 604.477 286.991C625.685 292.523 641.48 301.028 651.466 312.269C661.452 323.509 665.084 336.895 662.298 352.083C659.407 367.816 649.711 384.792 633.483 402.547C614.531 422.536 592.869 439.922 568.743 454.504C541.518 471.355 512.419 485.987 481.604 498.321C450.355 510.988 417.47 521.38 383.114 529.444C351.911 536.968 318.97 541.611 284.595 543.331C253.695 544.585 226.914 542.3 204.963 536.58C183.779 531.063 167.984 522.557 157.998 511.317C148.012 500.076 144.38 486.69 147.166 471.502C150.057 455.769 159.753 438.793 175.981 421.038L175.713 420.919ZM173.448 421.133C106.315 494.566 155.498 549.927 283.234 544.785C410.969 539.644 568.755 475.851 635.883 402.437C703.01 329.022 653.832 273.643 526.097 278.785C398.362 283.926 240.284 347.586 173.227 421.043L173.448 421.133Z" stroke="url(#paint2_linear_23759_28706)"/>
<path d="M164.187 406.091C187.196 386.782 212.806 370.203 240.763 356.52C303.187 325.507 372.554 303.59 447.569 291.175C481.05 285.459 516.231 282.821 552.77 283.288C585.233 284.062 612.806 288.189 634.714 295.592C655.896 302.75 670.941 312.639 679.389 324.957C687.836 337.276 689.339 351.427 683.796 367.003C678.086 383.148 665.036 400.129 645.036 417.47C622.026 436.779 596.417 453.358 568.46 467.041C537.345 482.595 504.419 495.826 469.844 506.667C435.317 517.657 399.194 526.244 361.654 532.386C328.164 538.098 292.976 540.731 256.429 540.258C223.989 539.499 196.417 535.372 174.486 527.955C153.327 520.811 138.258 510.908 129.834 498.603C121.41 486.299 119.884 472.134 125.403 456.544C131.137 440.413 144.186 423.431 164.187 406.091V406.091ZM161.469 405.983C78.7292 477.732 120.476 538.468 254.727 541.65C388.979 544.832 564.878 489.224 647.613 417.493C730.348 345.763 688.607 285.008 554.355 281.826C420.104 278.644 244.21 334.234 161.469 405.983V405.983Z" stroke="url(#paint3_linear_23759_28706)"/>
<path d="M154.557 389.871C181.645 371.527 211.232 356.036 243.061 343.533C277.963 329.541 314.627 317.994 352.881 308.945C390.51 299.876 429.703 293.364 470.262 289.442C510.316 285.652 547.708 285.291 581.458 288.238C615.208 291.185 643.269 297.303 664.862 306.445C685.724 315.274 699.697 326.507 706.401 339.849C713.105 353.191 712.212 367.992 703.746 383.795C694.951 400.152 678.406 416.907 654.476 433.659C627.404 452.021 597.816 467.513 565.972 479.997C531.085 494.002 494.428 505.555 456.176 514.6C418.547 523.668 379.354 530.18 338.795 534.102C298.741 537.892 261.349 538.254 227.599 535.307C193.849 532.359 165.788 526.241 144.195 517.099C123.333 508.27 109.36 497.038 102.656 483.696C95.9513 470.353 96.8449 455.552 105.311 439.75C114.082 423.378 130.651 406.637 154.557 389.871V389.871ZM151.866 389.688C53.0708 458.645 86.1483 524.443 225.72 536.647C365.291 548.85 558.487 502.782 657.283 433.825C756.078 364.869 723 299.071 583.429 286.867C443.857 274.663 250.591 320.689 151.796 389.646L151.866 389.688Z" stroke="url(#paint4_linear_23759_28706)"/>
<path d="M147.442 372.596C178.589 355.478 212.164 341.359 247.899 330.352C286.447 318.215 326.719 308.667 368.529 301.752C409.033 294.837 451.06 290.641 494.391 289.184C536.846 287.946 575.989 290.002 610.692 295.273C645.396 300.543 673.657 308.847 694.6 319.722C714.824 330.249 727.467 342.845 732.15 357.131C736.832 371.417 733.323 386.696 721.751 402.533C709.757 418.865 689.536 435.206 661.713 450.925C630.559 468.034 596.984 482.153 561.255 493.169C522.697 505.289 482.426 514.837 440.626 521.769C400.095 528.675 358.037 532.853 314.671 534.281C272.239 535.533 233.096 533.476 198.37 528.192C163.643 522.908 135.441 514.682 114.474 503.793C94.2505 493.266 81.607 480.67 76.9244 466.384C72.2419 452.098 75.7283 436.805 87.3235 420.982C99.3172 404.65 119.539 388.31 147.361 372.591L147.442 372.596ZM144.503 372.152C29.4783 437.253 52.421 507.5 196.106 529.441C339.791 551.381 549.435 516.376 664.548 451.349C779.66 386.322 756.548 315.909 612.979 294.038C469.41 272.168 259.65 307.103 144.514 372.116L144.503 372.152Z" stroke="url(#paint5_linear_23759_28706)"/>
<path d="M142.887 354.161C178.02 338.58 215.516 326.152 255.092 316.971C297.125 306.975 340.843 299.724 386.04 295.252C429.188 290.784 473.817 289.228 519.675 290.594C564.234 292.1 604.715 296.8 640.052 304.588C675.39 312.376 703.415 322.733 723.404 335.415C742.698 347.678 753.681 361.546 756.094 376.692C758.506 391.838 752.191 407.421 737.314 423.072C721.909 439.386 698 454.842 666.199 469.319C631.073 484.903 593.585 497.335 554.017 506.523C511.997 516.531 468.286 523.787 423.092 528.255C379.939 532.727 335.303 534.278 289.434 532.899C244.898 531.408 204.394 526.693 169.08 518.919C133.765 511.145 105.717 500.775 85.7277 488.093C66.4339 475.83 55.4283 461.948 53.0386 446.816C50.649 431.683 56.9408 416.086 71.8181 400.436C87.1958 384.212 111.132 368.666 142.933 354.189L142.887 354.161ZM140.031 353.55C8.52343 413.387 20.3374 487.944 166.479 520.104C312.621 552.264 537.594 529.794 669.032 469.916C800.47 410.037 788.725 335.522 642.583 303.362C496.441 271.201 271.492 293.685 139.938 353.494L140.031 353.55Z" stroke="url(#paint6_linear_23759_28706)"/>
<path d="M141.368 334.867C180.39 321.117 221.72 310.697 265.055 303.682C310.327 296.109 357.242 291.458 405.57 289.753C451.025 287.937 497.904 289.25 545.917 293.683C592.165 298.153 633.627 305.709 669.152 316.084C704.678 326.459 732.135 339.113 750.804 353.529C768.818 367.487 777.885 382.558 777.735 398.453C777.586 414.349 768.208 430.022 749.937 445.269C731.034 461.071 703.345 475.641 667.628 488.546C628.645 502.31 587.362 512.759 544.079 519.814C498.803 527.38 451.889 532.03 403.564 533.743C358.109 535.559 311.23 534.246 263.217 529.813C216.97 525.343 175.508 517.787 139.982 507.412C104.456 497.037 76.9993 484.383 58.3304 469.967C40.3162 456.01 31.2266 440.925 31.3761 425.029C31.5256 409.133 40.9031 393.461 59.174 378.213C78.0769 362.411 105.767 347.841 141.483 334.937L141.368 334.867ZM138.572 334.077C-9.16721 387.434 -9.83996 465.577 137.086 508.493C284.012 551.409 522.946 542.915 670.725 489.517C818.503 436.12 819.136 358.016 672.187 315.087C525.238 272.157 286.234 280.609 138.456 334.007L138.572 334.077Z" stroke="url(#paint7_linear_23759_28706)"/>
<path d="M143.189 314.988C185.914 303.358 230.893 295.25 277.797 290.724C326.02 285.853 375.831 284.094 426.972 285.457C474.374 286.488 523.121 290.883 572.873 298.612C620.363 306.282 662.344 316.813 697.627 329.891C732.91 342.97 759.362 357.802 776.258 374.077C792.601 389.745 799.339 405.941 796.495 422.404C793.652 438.866 781.079 454.556 759.351 469.204C736.847 484.338 705.379 497.616 665.799 508.662C623.074 520.292 578.094 528.4 531.191 532.926C482.964 537.79 433.153 539.549 382.016 538.193C334.679 537.123 286.005 532.701 236.331 524.957C188.817 517.273 146.86 506.756 111.577 493.677C76.2935 480.598 49.6106 465.628 32.6876 449.442C16.3446 433.774 9.60696 417.578 12.4272 401.102C15.2474 384.625 27.8661 368.963 49.5949 354.315C72.1682 339.223 103.636 325.945 143.189 314.988ZM140.296 313.906C-23.3723 359.612 -37.7371 440.526 108.179 494.616C254.096 548.706 505.058 555.514 668.668 509.731C832.278 463.947 846.702 383.11 700.785 329.021C554.868 274.931 303.883 268.108 140.296 313.906V313.906Z" stroke="url(#paint8_linear_23759_28706)"/>
<path d="M148.684 294.371C194.895 285.157 243.305 279.683 293.548 277.989C344.375 276.07 396.736 277.506 450.327 282.291C499.191 286.379 549.297 294.114 600.231 305.431C648.483 316.469 690.466 330.097 725.008 345.95C759.551 361.803 784.584 378.893 799.4 396.86C813.738 414.161 817.994 431.452 812.059 448.288C806.123 465.124 790.324 480.609 765.027 494.353C738.87 508.59 703.671 520.307 660.399 529.182C614.196 538.4 565.794 543.879 515.558 545.577C464.728 547.49 412.368 546.053 358.779 541.275C309.877 537.169 259.732 529.411 208.76 518.066C160.507 507.028 118.525 493.401 83.9826 477.547C49.4402 461.694 24.3842 444.59 9.59086 426.637C-4.72427 409.35 -8.98033 392.059 -3.04473 375.223C2.89087 358.387 18.7357 342.929 44.0316 329.101C70.1885 314.864 105.411 303.161 148.659 294.272L148.684 294.371ZM145.838 292.98C-33.1052 329.719 -62.4329 412.576 80.5461 478.178C223.525 543.781 484.344 567.085 663.287 530.346C842.23 493.606 871.558 410.75 728.579 345.147C585.6 279.544 324.759 256.311 145.816 293.051L145.838 292.98Z" stroke="url(#paint9_linear_23759_28706)"/>
<path d="M157.948 273.588C207.335 267.045 258.867 264.502 312.131 265.979C365.107 267.222 419.531 272.075 475.049 280.506C525.01 287.827 576.058 299.103 627.688 314.221C676.149 328.783 717.593 345.632 750.884 364.299C784.175 382.966 807.268 402.226 819.641 421.83C831.564 440.683 832.963 458.888 823.802 475.942C814.641 492.996 795.379 508.024 766.523 520.616C736.678 533.683 697.831 543.539 651.105 549.895C601.711 556.423 550.18 558.966 496.923 557.504C443.944 556.254 389.52 551.401 334.004 542.977C284.049 535.633 233.008 524.334 181.387 509.191C132.949 494.643 91.5055 477.793 58.2143 459.127C24.923 440.46 1.82993 421.2 -10.543 401.596C-22.4661 382.743 -23.865 364.538 -14.7037 347.484C-5.54239 330.429 13.7194 315.402 42.5751 302.81C72.4205 289.743 111.245 279.873 157.993 273.531L157.948 273.588ZM155.28 271.908C-38.1651 298.519 -83.3126 382.531 54.3841 459.722C192.081 536.913 460.422 578.055 653.846 551.514C847.27 524.973 892.362 441.054 754.692 363.774C617.023 286.495 348.637 245.41 155.236 271.965L155.28 271.908Z" stroke="url(#paint10_linear_23759_28706)"/>
<path d="M171.393 252.552C223.626 248.96 277.928 249.647 333.826 254.608C388.516 259.254 444.538 267.802 501.465 280.186C556.879 292.33 608.503 307.417 654.914 325.035C702.922 343.295 743.272 363.376 774.733 384.874C806.193 406.373 826.958 427.92 836.456 448.987C845.591 469.294 843.834 488.262 831.245 505.343C818.656 522.424 795.872 536.79 763.54 548.015C730.059 559.617 687.754 567.322 637.759 570.976C585.529 574.575 531.227 573.887 475.326 568.92C420.646 564.284 364.631 555.741 307.71 543.355C252.296 531.212 200.672 516.125 154.261 498.506C106.23 480.233 65.9025 460.166 34.4192 438.653C2.93589 417.141 -17.7828 395.621 -27.304 374.541C-36.4159 354.247 -34.6586 335.279 -22.0697 318.198C-9.4808 301.117 13.3034 286.751 45.6351 275.526C79.1157 263.925 121.421 256.22 171.393 252.552V252.552ZM168.838 250.796C-37.893 265.796 -99.9331 350.033 30.2604 438.919C160.454 527.805 433.538 587.703 640.246 572.69C846.953 557.677 909.016 473.454 778.796 384.656C648.575 295.857 375.522 235.77 168.838 250.796Z" stroke="url(#paint11_linear_23759_28706)"/>
<path d="M189.142 231.645C296.707 231.053 411.38 247.843 529.061 281.415C584.795 297.571 636.076 316.529 681.437 337.767C728.411 359.758 766.973 383.228 796.046 407.534C825.12 431.84 842.981 455.54 849.132 477.964C855.034 499.616 849.902 519.212 833.671 536.09C817.439 552.969 791.132 566.454 755.349 576.011C718.316 585.922 672.729 591.211 619.842 591.773C565.218 592.198 508.613 588.005 450.583 579.235C394.684 571.019 337.615 558.566 279.9 541.989C224.143 525.819 172.885 506.875 127.5 485.623C80.5496 463.645 41.9879 440.176 12.8916 415.856C-16.2046 391.536 -34.0199 367.863 -40.1712 345.44C-46.096 323.774 -40.9413 304.192 -24.7098 287.313C-8.47826 270.435 17.8911 256.924 53.7264 247.461C90.7593 237.549 136.346 232.261 189.211 231.686L189.142 231.645ZM186.838 229.711C-31.865 232.091 -111.601 315.402 8.66332 416.011C128.928 516.62 403.706 596.202 622.364 593.878C841.022 591.554 920.78 508.173 800.539 407.578C680.297 306.982 405.427 227.345 186.815 229.697L186.838 229.711Z" stroke="url(#paint12_linear_23759_28706)"/>
<path d="M211.388 210.988C268.018 213.945 326.51 221.919 386.194 234.819C442.704 246.785 500.148 263.368 557.87 284.378C613.26 304.701 663.491 327.66 707.146 352.578C752.334 378.408 788.412 405.103 814.561 432.338C840.709 459.573 855.059 485.161 857.5 508.849C859.844 531.714 850.94 551.688 831.014 568.222C811.087 584.756 781.158 597.01 742.056 604.671C701.62 612.612 652.987 615.177 597.616 612.385C540.983 609.417 482.491 601.443 422.81 588.554C366.299 576.585 308.855 560.002 251.135 538.995C195.744 518.672 145.513 495.713 101.858 470.795C56.6476 444.951 20.619 418.183 -5.55652 391.035C-31.732 363.887 -46.0549 338.212 -48.5185 314.511C-50.8628 291.645 -41.9361 271.685 -21.9179 255.205C-1.89962 238.726 27.9149 226.404 67.0394 218.757C107.476 210.815 156.109 208.251 211.48 211.042L211.388 210.988ZM209.442 208.878C-19.541 197.32 -117.75 278.811 -9.9318 390.891C97.8866 502.972 370.98 603.218 599.963 614.775C828.946 626.333 927.155 544.842 819.337 432.762C711.518 320.681 438.425 220.435 209.419 208.864L209.442 208.878Z" stroke="url(#paint13_linear_23759_28706)"/>
<path d="M238.271 190.681C296.374 197.249 356.156 209.265 416.8 226.566C473.439 242.462 530.664 263.369 587.65 288.984C641.966 313.66 690.412 340.73 731.625 369.443C774.253 399.267 807.346 429.51 829.797 459.285C852.248 489.061 862.778 516.824 861.057 541.551C859.476 565.392 846.56 585.689 822.779 601.628C798.999 617.567 765.626 628.46 723.278 633.889C679.534 639.539 628.241 639.15 570.834 632.728C512.731 626.16 452.949 614.143 392.306 596.842C335.672 580.912 278.455 559.976 221.482 534.338C167.167 509.661 118.72 482.591 77.4848 453.865C34.7165 424.143 1.71096 394.056 -20.736 364.179C-43.183 334.303 -53.6948 306.654 -51.9957 281.914C-50.3919 258.087 -37.4987 237.776 -13.6954 221.851C10.1079 205.925 43.5723 195.087 85.8054 189.59C129.573 183.953 180.866 184.342 238.273 190.764L238.271 190.681ZM236.34 188.272C-1.04367 161.643 -118.251 240.076 -25.4268 363.577C67.3973 487.079 335.203 608.65 572.654 635.236C810.104 661.821 927.312 583.388 834.488 459.887C741.664 336.386 473.995 214.896 236.43 188.243L236.34 188.272Z" stroke="url(#paint14_linear_23759_28706)"/>
<path d="M269.887 170.818C328.987 181.2 389.505 197.54 450.426 219.564C506.585 239.638 562.82 265.127 618.08 295.556C670.548 324.715 716.418 355.999 754.435 388.56C793.79 422.309 822.929 455.784 841.182 488.359C859.434 520.934 865.476 550.332 859.278 576.125C853.328 600.949 836.232 621.185 808.485 636.281C780.738 651.377 743.777 660.556 698.573 663.569C651.76 666.7 598.13 663.005 539.313 652.732C480.214 642.351 419.695 626.011 358.775 603.986C302.616 583.913 246.381 558.423 191.121 527.994C138.652 498.836 92.7597 467.538 54.7654 434.991C15.4109 401.241 -13.7285 367.766 -31.9581 335.205C-50.1877 302.644 -56.4538 273.008 -50.1921 247.358C-44.2422 222.534 -27.1455 202.298 0.578335 187.188C28.3021 172.078 65.3092 162.926 110.513 159.913C157.326 156.783 210.933 160.464 269.887 170.818V170.818ZM268.394 168.132C24.5702 125.357 -112.206 199.69 -36.9262 334.273C38.3531 468.856 296.875 612.558 540.663 655.271C784.452 697.983 921.177 623.724 846.012 489.209C770.847 354.695 512.211 210.924 268.423 168.212L268.394 168.132Z" stroke="url(#paint15_linear_23759_28706)"/>
<path d="M306.323 151.43C365.869 165.852 426.448 186.794 486.778 213.814C541.914 238.274 596.4 268.533 648.898 303.848C698.653 337.638 741.237 373.371 775.209 409.669C810.431 447.355 835.03 484.304 848.265 519.495C861.49 553.981 862.671 586.726 851.612 612.333C840.95 637.905 819.439 657.965 787.709 671.978C755.978 685.99 715.583 693.223 667.663 693.508C618.08 693.816 562.542 686.578 502.651 672.043C443.104 657.618 382.525 636.676 322.196 609.659C267.059 585.199 212.574 554.94 160.075 519.625C110.298 485.821 67.736 450.102 33.7644 413.804C-1.48081 376.105 -26.0568 339.169 -39.2917 303.978C-52.5105 269.495 -53.6748 236.756 -42.5925 211.168C-31.9306 185.596 -10.4148 165.518 21.402 151.577C53.2188 137.637 93.5273 130.332 141.425 130.034C193.947 130.102 249.385 137.295 306.323 151.43V151.43ZM305.295 148.539C57.4745 88.4223 -98.9908 157.467 -44.1769 302.849C10.637 448.231 255.954 614.771 503.786 674.936C751.619 735.102 908.084 666.057 853.258 520.626C798.432 375.195 553.094 208.726 305.295 148.539Z" stroke="url(#paint16_linear_23759_28706)"/>
<path d="M347.841 132.863C407.293 151.549 467.215 177.381 525.964 209.65C579.516 238.817 631.393 274.05 679.929 314.219C726.112 352.775 764.356 392.752 793.581 433.07C823.838 474.796 843.054 515.05 850.713 552.692C858.378 590.25 853.857 624.193 837.732 650.162C822.022 676.284 795.905 695.983 760.128 708.601C724.351 721.218 680.738 726.304 630.492 723.575C576.253 720.319 519.283 709.233 461.31 690.652C401.858 671.966 341.936 646.134 283.187 613.865C229.627 584.693 177.743 549.455 129.199 509.282C83.0156 470.727 44.7722 430.749 15.5704 390.445C-14.7554 348.679 -33.9948 308.41 -41.6539 270.768C-49.3188 233.21 -44.7902 199.27 -28.6502 173.312C-12.9395 147.19 13.1777 127.491 48.9318 114.86C84.6859 102.229 128.344 97.1704 178.568 99.8854C232.806 103.137 289.776 114.224 347.749 132.808L347.841 132.863ZM347.102 129.715C98.0582 51.0546 -78.2605 113.49 -46.5832 269.219C-14.9058 424.949 212.725 614.994 461.877 693.656C711.028 772.318 887.354 709.949 855.676 554.22C823.999 398.49 596.368 208.446 347.193 129.77L347.102 129.715Z" stroke="url(#paint17_linear_23759_28706)"/>
<path d="M394.325 115.329C453.167 138.601 511.651 169.612 567.688 207.254C619.1 241.598 667.457 282.008 710.785 326.834C752.418 370.225 785.481 414.649 809.009 458.815C832.832 502.786 846.148 547.243 847.719 588.055C849.076 628.168 838.442 663.162 816.868 689.577C795.773 716.012 764.828 734.953 725.127 746.029C685.426 757.105 638.715 759.599 586.459 753.528C530.953 746.879 472.997 731.588 414.737 708.22C355.894 684.947 297.411 653.937 241.373 616.294C189.961 581.95 141.605 541.541 98.2757 496.715C56.6434 453.324 23.5802 408.899 0.0520052 364.733C-24.2414 318.977 -37.2992 275.483 -38.6591 235.409C-40.0043 195.302 -29.3709 160.31 -7.80856 133.887C13.3099 107.466 44.2323 88.5106 83.933 77.4347C123.634 66.3589 170.346 63.9497 222.603 70.0203C278.107 76.6652 336.064 91.957 394.325 115.329V115.329ZM394.212 112.053C146.719 13.6217 -49.2745 68.0088 -43.5843 233.529C-37.8941 399.048 167.377 612.994 414.871 711.425C662.364 809.856 858.357 755.469 852.689 589.878C847.02 424.288 641.705 210.483 394.212 112.053V112.053Z" stroke="url(#paint18_linear_23759_28706)"/>
<path d="M445.849 99.379C503.521 127.576 559.646 164.017 611.602 207C660.18 247.02 703.972 292.682 740.816 341.726C776.004 388.384 803.191 437.714 820.735 486.739C838.184 535.649 844.352 582.984 838.767 625.134C833.182 667.283 815.993 703.134 788.51 729.949C760.938 756.806 724.813 775.021 682.322 783.491C637.818 792.584 588.037 792.276 535.448 782.582C421.938 761.659 302.258 702.834 197.405 616.427C148.835 576.411 105.049 530.754 68.2148 481.714C33.0264 435.057 5.83934 385.726 -11.7045 336.701C-29.1666 287.789 -35.347 240.448 -29.7743 198.291C-24.2015 156.135 -7.02274 120.275 20.4514 93.4495C48.0672 66.6086 84.2398 48.4219 126.778 39.9912C171.282 30.8983 221.063 31.2064 273.652 40.9003C329.947 51.1267 388.276 70.9419 445.918 99.4206L445.849 99.379ZM446.365 95.9674C203.993 -23.1757 -11.3652 21.5533 -34.5056 195.935C-57.6459 370.318 120.311 608.362 362.781 727.542C605.251 846.723 820.511 801.957 843.652 627.575C866.792 453.192 688.766 215.107 446.296 95.9258L446.365 95.9674Z" stroke="url(#paint19_linear_23759_28706)"/>
<path d="M502.241 85.6234C598.796 143.858 684.565 226.297 745.018 318.974C805.471 411.651 836.892 508.869 833.958 594.159C831.024 679.449 793.916 747.568 728.919 786.976C663.922 826.385 575.033 834.66 477.309 810.4C365.302 781.813 250.549 712.845 158.08 618.541C65.6108 524.237 2.92907 412.248 -16.2928 307.001C-35.5146 201.755 -9.71683 111.792 55.4735 56.736C120.664 1.67948 219.957 -14.0031 331.694 13.1091C388.311 27.1696 446.317 51.8329 502.241 85.6234V85.6234ZM503.324 82.01C419.618 31.5738 331.995 1.60822 251.533 -4.09747C171.072 -9.80316 101.387 9.00733 51.2898 49.9553C1.19315 90.9033 -27.0651 152.15 -29.9114 225.949C-32.7577 299.749 -10.0643 382.787 35.2992 464.564C80.6626 546.34 146.659 623.182 224.942 685.371C303.225 747.561 390.278 792.305 475.095 813.946C559.911 835.587 638.681 833.153 701.442 806.951C764.204 780.749 808.138 731.957 827.691 666.743C840.673 623.444 842.581 573.972 833.306 521.152C824.031 468.333 803.754 413.201 773.634 358.903C743.514 304.606 704.14 252.206 657.76 204.697C611.38 157.187 558.903 115.498 503.324 82.01V82.01Z" stroke="url(#paint20_linear_23759_28706)"/>
</g>
<defs>
<linearGradient id="paint0_linear_23759_28706" x1="462.439" y1="211.192" x2="253.872" y2="556.204" gradientUnits="userSpaceOnUse">
<stop stop-color="#A4A0FF"/>
<stop offset="1" stop-color="#F8FCFC"/>
</linearGradient>
<linearGradient id="paint1_linear_23759_28706" x1="465.185" y1="202.528" x2="247.472" y2="562.662" gradientUnits="userSpaceOnUse">
<stop stop-color="#A4A0FF"/>
<stop offset="1" stop-color="#F8FCFC"/>
</linearGradient>
<linearGradient id="paint2_linear_23759_28706" x1="467.903" y1="195.373" x2="242.454" y2="568.383" gradientUnits="userSpaceOnUse">
<stop stop-color="#A4A0FF"/>
<stop offset="1" stop-color="#F8FCFC"/>
</linearGradient>
<linearGradient id="paint3_linear_23759_28706" x1="469.898" y1="189.486" x2="238.21" y2="572.994" gradientUnits="userSpaceOnUse">
<stop stop-color="#A4A0FF"/>
<stop offset="1" stop-color="#F8FCFC"/>
</linearGradient>
<linearGradient id="paint4_linear_23759_28706" x1="471.61" y1="185.251" x2="235.362" y2="576.579" gradientUnits="userSpaceOnUse">
<stop stop-color="#A4A0FF"/>
<stop offset="1" stop-color="#F8FCFC"/>
</linearGradient>
<linearGradient id="paint5_linear_23759_28706" x1="472.778" y1="182.667" x2="233.753" y2="578.969" gradientUnits="userSpaceOnUse">
<stop stop-color="#A4A0FF"/>
<stop offset="1" stop-color="#F8FCFC"/>
</linearGradient>
<linearGradient id="paint6_linear_23759_28706" x1="473.446" y1="181.828" x2="233.502" y2="580.12" gradientUnits="userSpaceOnUse">
<stop stop-color="#A4A0FF"/>
<stop offset="1" stop-color="#F8FCFC"/>
</linearGradient>
<linearGradient id="paint7_linear_23759_28706" x1="473.76" y1="182.805" x2="234.729" y2="580.138" gradientUnits="userSpaceOnUse">
<stop stop-color="#A4A0FF"/>
<stop offset="1" stop-color="#F8FCFC"/>
</linearGradient>
<linearGradient id="paint8_linear_23759_28706" x1="473.258" y1="185.316" x2="236.839" y2="578.936" gradientUnits="userSpaceOnUse">
<stop stop-color="#A4A0FF"/>
<stop offset="1" stop-color="#F8FCFC"/>
</linearGradient>
<linearGradient id="paint9_linear_23759_28706" x1="472.579" y1="189.095" x2="240.294" y2="576.522" gradientUnits="userSpaceOnUse">
<stop stop-color="#A4A0FF"/>
<stop offset="1" stop-color="#F8FCFC"/>
</linearGradient>
<linearGradient id="paint10_linear_23759_28706" x1="471.444" y1="194.101" x2="244.353" y2="573.581" gradientUnits="userSpaceOnUse">
<stop stop-color="#A4A0FF"/>
<stop offset="1" stop-color="#F8FCFC"/>
</linearGradient>
<linearGradient id="paint11_linear_23759_28706" x1="470.126" y1="199.483" x2="248.696" y2="570.209" gradientUnits="userSpaceOnUse">
<stop stop-color="#A4A0FF"/>
<stop offset="1" stop-color="#F8FCFC"/>
</linearGradient>
<linearGradient id="paint12_linear_23759_28706" x1="469.012" y1="204.225" x2="252.617" y2="567.148" gradientUnits="userSpaceOnUse">
<stop stop-color="#A4A0FF"/>
<stop offset="1" stop-color="#F8FCFC"/>
</linearGradient>
<linearGradient id="paint13_linear_23759_28706" x1="468.288" y1="207.612" x2="255.464" y2="565.041" gradientUnits="userSpaceOnUse">
<stop stop-color="#A4A0FF"/>
<stop offset="1" stop-color="#F8FCFC"/>
</linearGradient>
<linearGradient id="paint14_linear_23759_28706" x1="468.104" y1="207.885" x2="255.709" y2="564.858" gradientUnits="userSpaceOnUse">
<stop stop-color="#A4A0FF"/>
<stop offset="1" stop-color="#F8FCFC"/>
</linearGradient>
<linearGradient id="paint15_linear_23759_28706" x1="469.323" y1="203.822" x2="252.693" y2="567.845" gradientUnits="userSpaceOnUse">
<stop stop-color="#A4A0FF"/>
<stop offset="1" stop-color="#F8FCFC"/>
</linearGradient>
<linearGradient id="paint16_linear_23759_28706" x1="472.311" y1="193.738" x2="245.071" y2="575.102" gradientUnits="userSpaceOnUse">
<stop stop-color="#A4A0FF"/>
<stop offset="1" stop-color="#F8FCFC"/>
</linearGradient>
<linearGradient id="paint17_linear_23759_28706" x1="477.19" y1="176.703" x2="232.083" y2="587.122" gradientUnits="userSpaceOnUse">
<stop stop-color="#A4A0FF"/>
<stop offset="1" stop-color="#F8FCFC"/>
</linearGradient>
<linearGradient id="paint18_linear_23759_28706" x1="484.093" y1="152.245" x2="213.313" y2="604.328" gradientUnits="userSpaceOnUse">
<stop stop-color="#A4A0FF"/>
<stop offset="1" stop-color="#F8FCFC"/>
</linearGradient>
<linearGradient id="paint19_linear_23759_28706" x1="492.923" y1="120.537" x2="188.938" y2="626.5" gradientUnits="userSpaceOnUse">
<stop stop-color="#A4A0FF"/>
<stop offset="1" stop-color="#F8FCFC"/>
</linearGradient>
<linearGradient id="paint20_linear_23759_28706" x1="503.324" y1="82.01" x2="159.152" y2="653.211" gradientUnits="userSpaceOnUse">
<stop stop-color="#A4A0FF"/>
<stop offset="1" stop-color="#F8FCFC"/>
</linearGradient>
</defs>
</svg>
