<svg width="11" height="11" viewBox="0 0 11 11" fill="none" xmlns="http://www.w3.org/2000/svg">
<path fill-rule="evenodd" clip-rule="evenodd" d="M5.30444 9.61523C7.51358 9.61523 9.30444 7.82437 9.30444 5.61523C9.30444 3.4061 7.51358 1.61523 5.30444 1.61523C3.0953 1.61523 1.30444 3.4061 1.30444 5.61523C1.30444 7.82437 3.0953 9.61523 5.30444 9.61523ZM5.30444 10.6152C8.06587 10.6152 10.3044 8.37666 10.3044 5.61523C10.3044 2.85381 8.06587 0.615234 5.30444 0.615234C2.54302 0.615234 0.304443 2.85381 0.304443 5.61523C0.304443 8.37666 2.54302 10.6152 5.30444 10.6152Z" fill="white"/>
<path d="M4.76855 4.11523H5.80466L5.8198 3.11523H4.78369L4.76855 4.11523ZM4.80562 8.11523H5.79973L5.79855 5.11523H4.80445L4.80562 8.11523Z" fill="white"/>
</svg>
