<svg width="11" height="11" viewBox="0 0 11 11" fill="none" xmlns="http://www.w3.org/2000/svg">
<path fill-rule="evenodd" clip-rule="evenodd" d="M5.30444 9.61548C7.51358 9.61548 9.30444 7.82462 9.30444 5.61548C9.30444 3.40634 7.51358 1.61548 5.30444 1.61548C3.0953 1.61548 1.30444 3.40634 1.30444 5.61548C1.30444 7.82462 3.0953 9.61548 5.30444 9.61548ZM5.30444 10.6155C8.06587 10.6155 10.3044 8.3769 10.3044 5.61548C10.3044 2.85405 8.06587 0.615479 5.30444 0.615479C2.54302 0.615479 0.304443 2.85405 0.304443 5.61548C0.304443 8.3769 2.54302 10.6155 5.30444 10.6155Z" fill="white"/>
<path d="M4.76855 4.11548H5.80466L5.8198 3.11548H4.78369L4.76855 4.11548ZM4.80562 8.11548H5.79973L5.79855 5.11548H4.80445L4.80562 8.11548Z" fill="white"/>
</svg>
