<svg width="18" height="18" viewBox="0 0 18 18" fill="none" xmlns="http://www.w3.org/2000/svg">
<g clip-path="url(#clip0_26200_43476)">
<rect width="18" height="18" fill="white" fill-opacity="0.01" style="mix-blend-mode:multiply"/>
<path fill-rule="evenodd" clip-rule="evenodd" d="M6.54669 6.54669C7.19735 5.89604 8.07983 5.5305 9 5.5305C9.92017 5.5305 10.8026 5.89604 11.4533 6.54669C12.104 7.19735 12.4695 8.07983 12.4695 9C12.4695 9.92017 12.104 10.8027 11.4533 11.4533C10.8026 12.104 9.92017 12.4695 9 12.4695C8.07983 12.4695 7.19735 12.104 6.54669 11.4533C5.89604 10.8027 5.5305 9.92017 5.5305 9C5.5305 8.07983 5.89604 7.19735 6.54669 6.54669ZM8.1381 11.0808C8.41136 11.194 8.70423 11.2523 9 11.2523C9.59733 11.2523 10.1702 11.015 10.5926 10.5926C11.015 10.1702 11.2522 9.59734 11.2522 9C11.2522 8.40267 11.015 7.8298 10.5926 7.40742C10.1702 6.98504 9.59733 6.74775 9 6.74775C8.70423 6.74775 8.41136 6.80601 8.1381 6.91919C7.86484 7.03238 7.61656 7.19828 7.40742 7.40742C7.19828 7.61656 7.03238 7.86485 6.91919 8.1381C6.80601 8.41136 6.74775 8.70423 6.74775 9C6.74775 9.29577 6.80601 9.58865 6.91919 9.8619C7.03238 10.1352 7.19828 10.3834 7.40742 10.5926C7.61656 10.8017 7.86484 10.9676 8.1381 11.0808Z" fill="#231D2C"/>
<path d="M13.2386 6.04742C13.3924 5.89362 13.4788 5.68501 13.4788 5.4675C13.4788 5.24999 13.3924 5.04139 13.2386 4.88759C13.0848 4.73378 12.8762 4.64738 12.6587 4.64738C12.4412 4.64738 12.2326 4.73378 12.0788 4.88759C11.925 5.04139 11.8386 5.24999 11.8386 5.4675C11.8386 5.68501 11.925 5.89362 12.0788 6.04742C12.2326 6.20122 12.4412 6.28763 12.6587 6.28763C12.8762 6.28763 13.0848 6.20122 13.2386 6.04742Z" fill="#231D2C"/>
<path fill-rule="evenodd" clip-rule="evenodd" d="M6.2172 2.2905C6.9372 2.25765 7.1667 2.25 9 2.25C10.8338 2.25 11.0628 2.2581 11.7824 2.2905C12.501 2.32335 12.9924 2.4381 13.4217 2.60415C13.8719 2.77374 14.2798 3.0394 14.6169 3.38265C14.9603 3.71984 15.2259 4.12788 15.3954 4.5783C15.5623 5.0076 15.6767 5.49855 15.7095 6.2172C15.7424 6.9372 15.75 7.1667 15.75 9C15.75 10.8333 15.7424 11.0628 15.7095 11.7828C15.6767 12.5014 15.5623 12.9924 15.3958 13.4217C15.2263 13.8719 14.9606 14.2798 14.6174 14.6169C14.2799 14.9607 13.8717 15.2262 13.4217 15.3954C12.9924 15.5623 12.5014 15.6767 11.7828 15.7095C11.0628 15.7424 10.8333 15.75 9 15.75C7.1667 15.75 6.9372 15.7424 6.2172 15.7095C5.49855 15.6767 5.0076 15.5623 4.5783 15.3958C4.12808 15.2263 3.72022 14.9606 3.3831 14.6174C3.0393 14.2799 2.7738 13.8717 2.6046 13.4217C2.43765 12.9924 2.32335 12.5014 2.2905 11.7828C2.25765 11.0628 2.25 10.8338 2.25 9C2.25 7.16625 2.2581 6.9372 2.2905 6.21765C2.32335 5.499 2.4381 5.0076 2.60415 4.5783C2.77374 4.12807 3.0394 3.72021 3.38265 3.3831C3.72015 3.0393 4.1283 2.7738 4.5783 2.6046C5.0076 2.43765 5.49855 2.32335 6.2172 2.2905ZM11.7279 3.5055C11.016 3.4731 10.8023 3.46635 9 3.46635C7.19775 3.46635 6.984 3.4731 6.2721 3.5055C5.6142 3.53565 5.2569 3.64545 5.01885 3.73815C4.72563 3.84614 4.46037 4.01852 4.2426 4.2426C4.0068 4.47885 3.8601 4.70385 3.73815 5.01885C3.645 5.2569 3.53565 5.6142 3.5055 6.2721C3.4731 6.984 3.46635 7.19775 3.46635 9C3.46635 10.8023 3.4731 11.016 3.5055 11.7279C3.53565 12.3858 3.64545 12.7431 3.73815 12.9812C3.84621 13.2743 4.01858 13.5396 4.2426 13.7574C4.4604 13.9814 4.72566 14.1538 5.01885 14.2619C5.2569 14.355 5.6142 14.4644 6.2721 14.4945C6.984 14.5269 7.1973 14.5337 9 14.5337C10.8027 14.5337 11.016 14.5269 11.7279 14.4945C12.3858 14.4644 12.7431 14.3546 12.9812 14.2619C13.2744 14.1539 13.5396 13.9815 13.7574 13.7574C13.9814 13.5396 14.1538 13.2743 14.2619 12.9812C14.355 12.7431 14.4644 12.3858 14.4945 11.7279C14.5269 11.016 14.5337 10.8023 14.5337 9C14.5337 7.19775 14.5269 6.984 14.4945 6.2721C14.4644 5.6142 14.3546 5.2569 14.2619 5.01885C14.1399 4.70385 13.9937 4.47885 13.7574 4.2426C13.5212 4.0068 13.2962 3.8601 12.9812 3.73815C12.7431 3.645 12.3858 3.53565 11.7279 3.5055Z" fill="#231D2C"/>
</g>
<defs>
<clipPath id="clip0_26200_43476">
<rect width="18" height="18" fill="white"/>
</clipPath>
</defs>
</svg>
