<svg width="63" height="62" viewBox="0 0 63 62" fill="none" xmlns="http://www.w3.org/2000/svg">
<g clip-path="url(#clip0_12272_322506)">
<path d="M10.8957 36.8442C10.8785 36.9149 10.809 36.9498 10.6867 36.9498H8.36151C8.22197 36.9498 8.09778 36.8888 7.99564 36.7652L4.15568 31.8304L3.08493 32.8602V36.6868C3.08493 36.8626 2.99813 36.9503 2.82407 36.9503H1.02061C0.84607 36.9503 0.759277 36.8631 0.759277 36.6868V19.2439C0.759277 19.0686 0.84607 18.9775 1.02013 18.9775H2.82311C2.99717 18.9775 3.08445 19.0662 3.08445 19.2439V29.9845L7.68252 25.2875C7.80431 25.1649 7.92611 25.1025 8.04791 25.1025H10.4517C10.5558 25.1025 10.6258 25.147 10.6608 25.2342C10.6958 25.3403 10.6896 25.4188 10.6311 25.4716L5.775 30.2209L10.8425 36.5807C10.9125 36.6514 10.9303 36.7391 10.8957 36.8442ZM20.3139 36.9503H18.5114C18.3196 36.9503 18.2242 36.8626 18.2242 36.6839V36.3138C17.4574 36.8941 16.4739 37.1847 15.2723 37.1847C14.1752 37.1847 13.2257 36.8408 12.424 36.1559C11.64 35.4526 11.2491 34.5575 11.2491 33.4642C11.2491 31.7399 12.3108 30.5701 14.436 29.9549C15.2718 29.7079 16.5344 29.4977 18.2242 29.3214C18.2764 28.6709 18.1067 28.1167 17.7145 27.659C17.3222 27.2013 16.7516 26.9726 16.0031 26.9726C15.0277 26.9726 14.0351 27.3277 13.0253 28.0286C12.8685 28.1167 12.7553 28.0988 12.6853 27.9753L11.7478 26.6302C11.6606 26.5241 11.6874 26.4011 11.826 26.2606C13.1672 25.3282 14.5602 24.8617 16.0055 24.8617C17.1203 24.8617 18.0698 25.1257 18.8538 25.6537C20.0037 26.4277 20.5781 27.6677 20.5781 29.3737V36.6829C20.5781 36.8597 20.4904 36.9498 20.3144 36.9498M18.2237 31.4376C16.5166 31.6144 15.3504 31.843 14.7232 32.1244C13.8697 32.4935 13.4866 33.0205 13.5738 33.7084C13.6256 34.0949 13.8179 34.4068 14.1488 34.6446C14.4796 34.882 14.8628 35.0186 15.2982 35.053C16.5171 35.1416 17.4958 34.8156 18.2237 34.077V31.4376ZM31.2516 41.5281C30.3022 42.522 28.9567 43.02 27.216 43.02C26.2052 43.02 25.2476 42.7642 24.3423 42.2547C24.109 42.1015 23.8823 41.9382 23.6628 41.7654C23.352 41.5226 23.0473 41.2719 22.7489 41.0137C22.6266 40.9086 22.618 40.7768 22.7192 40.618L23.9496 39.3751C23.9772 39.348 24.0101 39.3269 24.0462 39.3133C24.0822 39.2996 24.1207 39.2936 24.1591 39.2956C24.2278 39.297 24.2932 39.3255 24.3414 39.3751C25.3167 40.3598 26.2661 40.8529 27.1892 40.8529C29.2991 40.8529 30.3497 39.7446 30.3497 37.5276V36.1554C29.5316 36.8418 28.4431 37.1852 27.0842 37.1852C25.3953 37.1852 24.0714 36.5434 23.1138 35.2588C22.278 34.1331 21.8594 32.7134 21.8594 31.0104C21.8594 29.3916 22.2603 28.0199 23.0615 26.8961C23.9995 25.5423 25.3344 24.8646 27.0588 24.8646C28.365 24.8646 29.4621 25.2081 30.3497 25.8939V25.366C30.3497 25.1906 30.4369 25.102 30.6115 25.102H32.4145C32.5876 25.102 32.6782 25.1906 32.6782 25.3664V37.1619C32.6782 39.0781 32.2035 40.5342 31.254 41.5281M30.3526 28.8486C29.9176 27.7234 28.9068 27.1596 27.3225 27.1596C25.2846 27.1596 24.267 28.4446 24.267 31.0128C24.267 32.4374 24.6065 33.4763 25.2855 34.1264C25.79 34.6369 26.4435 34.8917 27.2448 34.8917C28.8814 34.8917 29.9181 34.3288 30.3502 33.2027L30.3526 28.8486ZM43.5392 41.5315C42.5898 42.5245 41.2447 43.0219 39.5036 43.0219C38.4928 43.0219 37.5352 42.7666 36.6294 42.2571C36.4376 42.1336 36.2122 41.9713 35.9509 41.7688C35.64 41.5259 35.3351 41.2753 35.0365 41.0171C34.9147 40.9115 34.906 40.7797 35.0072 40.6209L36.2376 39.378C36.2652 39.3509 36.298 39.3299 36.334 39.3163C36.37 39.3026 36.4083 39.2966 36.4467 39.2985C36.5156 39.2998 36.5812 39.3283 36.6294 39.378C37.6047 40.3632 38.5532 40.8553 39.4768 40.8553C41.5866 40.8553 42.6416 39.7471 42.6416 37.531V36.1583C41.8216 36.8442 40.7364 37.1871 39.3761 37.1871C37.6867 37.1871 36.3628 36.5453 35.4052 35.2613C34.5689 34.1356 34.1508 32.7159 34.1508 31.0128C34.1508 29.3945 34.5517 28.0223 35.352 26.899C36.2899 25.5447 37.6254 24.8671 39.3492 24.8671C40.6559 24.8671 41.7525 25.2105 42.6406 25.8964V25.3684C42.6406 25.193 42.7279 25.1049 42.9024 25.1049H44.7044C44.8785 25.1049 44.9686 25.193 44.9686 25.3689V37.1644C44.9686 39.081 44.4939 40.5366 43.545 41.531M42.6435 28.8515C42.2086 27.7258 41.1977 27.1625 39.6134 27.1625C37.5755 27.1625 36.557 28.4471 36.557 31.0152C36.557 32.4403 36.8965 33.4788 37.576 34.1283C38.0804 34.6393 38.734 34.8941 39.5353 34.8941C41.1714 34.8941 42.2086 34.3313 42.6401 33.2056V28.8544L42.6435 28.8515ZM48.9654 36.9488H47.1624C46.9884 36.9488 46.8987 36.8616 46.8987 36.6824V19.2439C46.8987 19.0686 46.986 18.9775 47.1624 18.9775H48.9654C49.139 18.9775 49.2291 19.0657 49.2291 19.2439V36.6873C49.2291 36.8631 49.1419 36.9537 48.9654 36.9537M62.1041 31.5965C62.1041 31.7723 62.0164 31.8609 61.8433 31.8609H53.3525C53.4565 32.7226 53.8224 33.4449 54.4496 34.0213C55.1641 34.6374 56.0608 34.9445 57.1402 34.9445C58.0983 34.9445 58.9575 34.6723 59.7267 34.1269C59.8835 34.0203 60.0139 34.0203 60.1185 34.1269L61.3489 35.3935C61.4884 35.534 61.4884 35.6599 61.3489 35.7626C60.095 36.71 58.6406 37.1876 56.9834 37.1876C55.2068 37.1876 53.7265 36.5899 52.5421 35.3935C51.3932 34.215 50.8183 32.7101 50.8183 30.8811C50.8183 29.1567 51.3836 27.6968 52.5162 26.5004C53.5616 25.4105 54.9195 24.8646 56.5892 24.8646C58.1735 24.8646 59.5056 25.4367 60.586 26.5798C61.6999 27.7588 62.2144 29.2366 62.1271 31.0133L62.1041 31.5965ZM58.6823 27.7176C58.0906 27.1727 57.3761 26.899 56.5427 26.899C55.7592 26.899 55.0711 27.1635 54.4794 27.691C53.8876 28.2184 53.5126 28.9048 53.3568 29.7496H59.6524C59.6346 28.9406 59.3119 28.2625 58.6852 27.7176" fill="#20BEFF"/>
</g>
<defs>
<clipPath id="clip0_12272_322506">
<rect width="61.3779" height="62" fill="white" transform="translate(0.759277)"/>
</clipPath>
</defs>
</svg>
