<svg width="17" height="17" viewBox="0 0 17 17" fill="none" xmlns="http://www.w3.org/2000/svg">
<g clip-path="url(#clip0_17403_17567)">
<rect x="0.155029" y="0.154785" width="16.69" height="16.69" rx="1.39083" fill="white"/>
<path d="M9.14512 7.361C9.28235 7.20646 9.39485 7.05069 9.53579 6.9184C9.96849 6.51043 10.4803 6.3052 11.0787 6.31015C11.4075 6.31262 11.7314 6.33611 12.0479 6.42759C12.7724 6.63653 13.1927 7.13599 13.3943 7.84315C13.5451 8.37352 13.5723 8.91873 13.5735 9.46517C13.576 10.6174 13.5698 11.7709 13.5735 12.9231C13.5735 13.0306 13.5439 13.0591 13.4375 13.0591C12.8441 13.0541 12.2495 13.0541 11.656 13.0591C11.5509 13.0591 11.5287 13.0282 11.5287 12.9293C11.5324 11.8327 11.5324 10.7361 11.5287 9.63825C11.5287 9.36379 11.5102 9.0881 11.4335 8.82106C11.2913 8.32901 10.939 8.07805 10.4234 8.10524C9.71876 8.14233 9.35282 8.49097 9.2638 9.20678C9.24279 9.37739 9.23166 9.54924 9.2329 9.72108C9.2329 10.788 9.2329 11.8549 9.23537 12.9218C9.23537 13.0282 9.20941 13.0591 9.10061 13.0591C8.50225 13.0541 7.90388 13.0541 7.30551 13.0591C7.20908 13.0591 7.18188 13.0343 7.18188 12.9367C7.18436 10.8251 7.18436 8.71226 7.18188 6.60067C7.18188 6.49559 7.2165 6.4721 7.3154 6.4721C7.88286 6.47581 8.45156 6.47705 9.01902 6.4721C9.1241 6.4721 9.15006 6.50548 9.14883 6.60438C9.14265 6.85659 9.14636 7.10879 9.14636 7.36223L9.14512 7.361Z" fill="#13183F"/>
<path d="M5.89159 9.77408C5.89159 10.8187 5.89035 11.8634 5.89406 12.9081C5.89406 13.0243 5.86563 13.0589 5.74571 13.0577C5.15228 13.0515 4.55886 13.0527 3.96421 13.0577C3.86901 13.0577 3.84058 13.0342 3.84058 12.9365C3.84305 10.8212 3.84305 8.70592 3.84058 6.58939C3.84058 6.50161 3.86159 6.4707 3.95432 6.4707C4.55639 6.47441 5.15847 6.47565 5.76054 6.4707C5.87675 6.4707 5.89159 6.51397 5.89159 6.61411C5.88912 7.66744 5.89035 8.72076 5.89035 9.77408H5.89159Z" fill="#13183F"/>
<path d="M6.05629 4.375C6.05629 5.03147 5.52469 5.56555 4.86945 5.56555C4.22287 5.56555 3.68632 5.03147 3.68385 4.38489C3.68137 3.73212 4.21793 3.19434 4.87192 3.19434C5.52098 3.19434 6.05506 3.72718 6.05629 4.37376V4.375Z" fill="#13183F"/>
</g>
<defs>
<clipPath id="clip0_17403_17567">
<rect width="16.69" height="16.69" fill="white" transform="translate(0.155029 0.154785)"/>
</clipPath>
</defs>
</svg>
