<svg width="18" height="18" viewBox="0 0 18 18" fill="none" xmlns="http://www.w3.org/2000/svg">
<rect width="18" height="18" fill="white" fill-opacity="0.01" style="mix-blend-mode:multiply"/>
<path d="M15.75 3.24265V14.7574C15.75 15.0206 15.6454 15.2731 15.4593 15.4593C15.2731 15.6454 15.0206 15.75 14.7574 15.75H3.24265C2.97938 15.75 2.7269 15.6454 2.54074 15.4593C2.35458 15.2731 2.25 15.0206 2.25 14.7574V3.24265C2.25 2.97938 2.35458 2.7269 2.54074 2.54074C2.7269 2.35458 2.97938 2.25 3.24265 2.25H14.7574C15.0206 2.25 15.2731 2.35458 15.4593 2.54074C15.6454 2.7269 15.75 2.97938 15.75 3.24265ZM6.22059 7.41176H4.23529V13.7647H6.22059V7.41176ZM6.39926 5.22794C6.40031 5.07777 6.37177 4.92886 6.31527 4.78972C6.25876 4.65058 6.17541 4.52393 6.06996 4.41701C5.96451 4.31009 5.83903 4.22498 5.70069 4.16655C5.56234 4.10812 5.41385 4.07751 5.26368 4.07647H5.22794C4.92255 4.07647 4.62967 4.19779 4.41373 4.41373C4.19779 4.62967 4.07647 4.92255 4.07647 5.22794C4.07647 5.53333 4.19779 5.82621 4.41373 6.04215C4.62967 6.2581 4.92255 6.37941 5.22794 6.37941C5.37812 6.38311 5.52756 6.35717 5.66772 6.30309C5.80787 6.24901 5.936 6.16785 6.04478 6.06423C6.15355 5.96062 6.24085 5.83659 6.30167 5.69922C6.3625 5.56186 6.39566 5.41386 6.39926 5.26368V5.22794ZM13.7647 9.90529C13.7647 7.99544 12.5497 7.25294 11.3426 7.25294C10.9474 7.23315 10.5539 7.31733 10.2014 7.49708C9.84887 7.67683 9.54963 7.94586 9.33353 8.27735H9.27794V7.41176H7.41176V13.7647H9.39706V10.3857C9.36836 10.0397 9.47737 9.69626 9.70041 9.4301C9.92344 9.16395 10.2425 8.99655 10.5882 8.96426H10.6637C11.295 8.96426 11.7635 9.36132 11.7635 10.3619V13.7647H13.7488L13.7647 9.90529Z" fill="#231D2C"/>
</svg>
