<svg width="298" height="32" viewBox="0 0 298 32" fill="none" xmlns="http://www.w3.org/2000/svg">
<path d="M130.985 13.2526L138.677 0.615723H134.282H131.534L127.688 7.75833L130.985 13.2526Z" fill="#6061E5"/>
<path d="M127.138 24.2414L131.314 31.384H135.38H138.127L130.435 18.1977L127.138 24.2414Z" fill="#6061E5"/>
<path d="M0 31.384V0.615832H9.93372C18.8565 0.615832 24.6145 6.76947 24.6145 15.7801V16.1757C24.6145 25.1864 18.8565 31.384 9.93372 31.384H0ZM9.88977 6.37388H6.37341V25.626H9.88977C14.7248 25.626 18.0214 22.2415 18.0214 16.1318V15.912C18.0214 9.80233 14.7248 6.37388 9.88977 6.37388Z" fill="#231D2C"/>
<path d="M25.6142 31.384L36.6467 0.440013H42.7125L53.7451 31.384H47.1519L44.8662 24.7029H34.2732L32.0315 31.384H25.6142ZM36.2072 19.0767H42.9322L39.5917 9.0551L36.2072 19.0767Z" fill="#231D2C"/>
<path d="M60.275 31.384V6.50574H52.5391V0.615832H74.3405V6.50574H66.6045V31.384H60.275Z" fill="#231D2C"/>
<path d="M73.1314 31.384L84.164 0.440013H90.2297L101.262 31.384H94.6691L92.3835 24.7029H81.7904L79.5488 31.384H73.1314ZM83.7244 19.0767H90.4495L87.1089 9.0551L83.7244 19.0767Z" fill="#231D2C"/>
<path d="M129.37 15.6483L119.963 31.384H112.887L121.985 15.7362L113.282 0.615832H120.535L129.37 15.6483Z" fill="#231D2C"/>
<path fill-rule="evenodd" clip-rule="evenodd" d="M142.638 31.384V0.615832H152.879C159.78 0.615832 164.131 4.61569 164.131 11.1649V11.2528C164.131 18.3295 159.077 21.8898 152.615 22.0217H149.011V31.384H142.638ZM152.571 16.3076H149.011V6.37388H152.483C155.868 6.37388 157.714 8.13206 157.714 11.3407V11.3847C157.714 14.2417 155.868 16.3076 152.571 16.3076Z" fill="#6061E5"/>
<path d="M168.306 31.384V0.615832H174.68V25.538H187.119V31.384H168.306Z" fill="#6061E5"/>
<path fill-rule="evenodd" clip-rule="evenodd" d="M202.602 31.9115C194.427 31.9115 188.713 25.4941 188.713 16.3076V15.7801C188.713 6.54969 194.515 0.0883789 202.646 0.0883789C210.822 0.0883789 216.536 6.50574 216.536 15.6922V16.2197C216.536 25.4062 210.734 31.9115 202.602 31.9115ZM209.943 16.1757C209.943 22.2415 206.91 26.0215 202.646 26.0215C198.383 26.0215 195.262 22.1975 195.262 16.1318V15.8241C195.262 9.75837 198.295 5.97829 202.602 5.97829C206.866 5.97829 209.943 9.80233 209.943 15.8681V16.1757Z" fill="#6061E5"/>
<path fill-rule="evenodd" clip-rule="evenodd" d="M221.575 31.384V0.615832H233.135C236.696 0.615832 239.553 1.62679 241.487 3.56079C243.157 5.23106 244.08 7.64856 244.08 10.6814V10.8572C244.08 15.5164 241.751 18.4614 238.366 19.9558L244.915 31.384H237.619L231.949 21.2745H227.949V31.384H221.575ZM232.652 15.6483H227.949V6.37388H232.52C235.773 6.37388 237.663 7.91228 237.663 10.9891V11.0331C237.663 13.8022 235.905 15.6483 232.652 15.6483Z" fill="#6061E5"/>
<path d="M249.133 31.384V0.615832H268.956V6.37388H255.462V13.011H267.33V18.7691H255.462V25.626H269.132V31.384H249.133Z" fill="#6061E5"/>
<path fill-rule="evenodd" clip-rule="evenodd" d="M274.158 31.384V0.615832H285.718C289.278 0.615832 292.135 1.62679 294.069 3.56079C295.739 5.23106 296.663 7.64856 296.663 10.6814V10.8572C296.663 15.5164 294.333 18.4614 290.948 19.9558L297.498 31.384H290.201L284.531 21.2745H280.531V31.384H274.158ZM285.234 15.6483H280.531V6.37388H285.102C288.355 6.37388 290.245 7.91228 290.245 10.9891V11.0331C290.245 13.8022 288.487 15.6483 285.234 15.6483Z" fill="#6061E5"/>
</svg>
