<svg width="18" height="18" viewBox="0 0 18 18" fill="none" xmlns="http://www.w3.org/2000/svg">
<g clip-path="url(#clip0_26200_43491)">
<rect width="18" height="18" fill="white" fill-opacity="0.01" style="mix-blend-mode:multiply"/>
<path fill-rule="evenodd" clip-rule="evenodd" d="M11.9762 12.9329C13.8557 12.7085 15.4921 11.5505 15.6978 10.4923C16.0218 8.82553 15.9951 6.42474 15.9951 6.42474C15.9951 3.17078 13.8632 2.217 13.8632 2.217C12.7882 1.72329 10.9424 1.51568 9.02475 1.5H8.97763C7.05996 1.51568 5.21535 1.72329 4.14034 2.217C4.14034 2.217 2.00834 3.17078 2.00834 6.42474C2.00834 6.62201 2.00732 6.82949 2.00626 7.04549C2.00331 7.64537 2.00004 8.3109 2.01739 9.00558C2.09481 12.1878 2.6008 15.324 5.54297 16.1027C6.89954 16.4618 8.06426 16.5369 9.00228 16.4854C10.7034 16.3911 11.6583 15.8783 11.6583 15.8783L11.6022 14.6441C11.6022 14.6441 10.3866 15.0274 9.02135 14.9807C7.66874 14.9343 6.24081 14.8348 6.02205 13.1741C6.00184 13.0283 5.99174 12.8723 5.99174 12.7085C5.99174 12.7085 7.31954 13.033 9.00228 13.1101C10.0312 13.1573 10.9962 13.0498 11.9762 12.9329ZM13.4804 10.6172V6.67717C13.4804 5.87192 13.2753 5.23202 12.8636 4.75861C12.4388 4.28519 11.8826 4.0425 11.1923 4.0425C10.3934 4.0425 9.78854 4.34952 9.38866 4.96364L8.99978 5.61541L8.61097 4.96364C8.21102 4.34952 7.60611 4.0425 6.80733 4.0425C6.11692 4.0425 5.56075 4.28519 5.13607 4.75861C4.72423 5.23202 4.5192 5.87192 4.5192 6.67717V10.6172H6.08015V6.79298C6.08015 5.98684 6.41934 5.57767 7.09778 5.57767C7.84791 5.57767 8.22395 6.06305 8.22395 7.02282V9.11602H9.77569V7.02282C9.77569 6.06305 10.1516 5.57767 10.9018 5.57767C11.5802 5.57767 11.9194 5.98684 11.9194 6.79298V10.6172H13.4804Z" fill="#231D2C"/>
</g>
<defs>
<clipPath id="clip0_26200_43491">
<rect width="18" height="18" fill="white"/>
</clipPath>
</defs>
</svg>
