<svg width="19" height="20" viewBox="0 0 19 20" fill="none" xmlns="http://www.w3.org/2000/svg">
<path d="M9.49984 6.83341C10.3707 6.83341 11.0832 6.12091 11.0832 5.25008C11.0832 4.37925 10.3707 3.66675 9.49984 3.66675C8.629 3.66675 7.9165 4.37925 7.9165 5.25008C7.9165 6.12091 8.629 6.83341 9.49984 6.83341ZM9.49984 8.41675C8.629 8.41675 7.9165 9.12925 7.9165 10.0001C7.9165 10.8709 8.629 11.5834 9.49984 11.5834C10.3707 11.5834 11.0832 10.8709 11.0832 10.0001C11.0832 9.12925 10.3707 8.41675 9.49984 8.41675ZM9.49984 13.1667C8.629 13.1667 7.9165 13.8792 7.9165 14.7501C7.9165 15.6209 8.629 16.3334 9.49984 16.3334C10.3707 16.3334 11.0832 15.6209 11.0832 14.7501C11.0832 13.8792 10.3707 13.1667 9.49984 13.1667Z" fill="#231D2C"/>
</svg>
