<svg width="259" height="92" viewBox="0 0 259 92" fill="none" xmlns="http://www.w3.org/2000/svg">
<path d="M117.412 31.5885V42.5301H115.126V35.6712L112.513 40.2438H110.88L108.267 35.6712V42.5301H105.981V31.5885H108.267L111.696 37.6309L115.126 31.5885H117.412ZM120.025 32.8949C119.698 32.5683 119.535 32.2417 119.535 31.9151C119.535 31.5885 119.698 31.2619 120.025 30.9353C120.352 30.6086 120.678 30.6086 121.005 30.6086C121.332 30.6086 121.658 30.7719 121.985 30.9353C122.311 31.2619 122.475 31.5885 122.475 31.9151C122.475 32.2417 122.311 32.5683 121.985 32.8949C121.658 33.2216 121.332 33.2216 121.005 33.2216C120.678 33.2216 120.352 33.2216 120.025 32.8949ZM119.862 34.3647H122.148V42.5301H119.862V34.3647ZM131.13 35.1812C131.62 35.8345 131.947 36.651 131.947 37.6309V42.6934H129.824V37.7942C129.824 37.3043 129.66 36.9776 129.334 36.651C129.007 36.3244 128.68 36.1611 128.19 36.1611C127.701 36.1611 127.374 36.3244 127.047 36.651C126.721 36.9776 126.557 37.3043 126.557 37.7942V42.5301H124.271V34.3647H126.394V35.1812C126.721 34.8546 127.047 34.6913 127.374 34.528C127.864 34.3647 128.19 34.2014 128.68 34.2014C129.824 34.2014 130.64 34.528 131.13 35.1812ZM134.396 32.8949C134.07 32.5683 133.906 32.2417 133.906 31.9151C133.906 31.5885 134.07 31.2619 134.396 30.9353C134.723 30.6086 135.049 30.6086 135.376 30.6086C135.703 30.6086 136.029 30.7719 136.356 30.9353C136.682 31.2619 136.846 31.5885 136.846 31.9151C136.846 32.2417 136.682 32.5683 136.356 32.8949C136.029 33.2216 135.703 33.2216 135.376 33.2216C135.049 33.2216 134.723 33.2216 134.396 32.8949ZM134.396 34.3647H136.683V42.5301H134.396V34.3647ZM139.622 42.3668C138.969 42.0402 138.479 41.7136 138.152 41.2236L139.295 39.9172C139.949 40.7337 140.765 41.0603 141.582 41.0603C141.908 41.0603 142.072 41.0603 142.398 40.897C142.562 40.7337 142.725 40.5704 142.725 40.4071C142.725 40.2438 142.725 40.0805 142.562 40.0805C142.398 39.9172 142.235 39.9172 141.908 39.7539L141.092 39.4273C140.275 39.1006 139.785 38.774 139.459 38.4474C139.132 38.1208 138.969 37.6309 138.969 36.9776C138.969 36.1611 139.295 35.6712 139.785 35.1812C140.275 34.6913 141.092 34.528 141.908 34.528C143.051 34.528 144.031 35.0179 144.848 35.8345L143.705 37.141C143.215 36.651 142.562 36.3244 141.908 36.3244C141.582 36.3244 141.418 36.3244 141.255 36.4877C141.092 36.651 141.092 36.651 141.092 36.9776C141.092 37.1409 141.092 37.3042 141.255 37.3042C141.418 37.4676 141.582 37.4675 141.908 37.6309L142.725 37.9575C143.541 38.2841 144.031 38.6107 144.521 38.9373C144.848 39.2639 145.011 39.7539 145.011 40.4071C145.011 41.2236 144.685 41.8769 144.031 42.3668C143.378 42.8567 142.725 43.02 141.745 43.02C140.928 42.6934 140.275 42.6934 139.622 42.3668ZM152.033 40.7337V42.5301C151.544 42.6934 151.054 42.6934 150.564 42.6934C149.584 42.6934 148.767 42.3668 148.114 41.8769C147.461 41.3869 147.298 40.5704 147.298 39.5906V36.1611H145.991V34.2014H147.298V32.2417H149.584V34.2014H151.87V36.1611H149.42V39.4273C149.42 39.9172 149.584 40.2438 149.747 40.4071C149.91 40.5704 150.4 40.7337 150.89 40.7337H152.033ZM158.892 34.3647V36.3244H158.239C157.586 36.3244 157.096 36.4877 156.606 36.8143C156.279 37.1409 155.953 37.6309 155.953 38.4474V42.5301H153.667V34.3647H155.789V35.3446C156.116 35.0179 156.443 34.6913 156.769 34.528C157.096 34.3647 157.586 34.2014 158.076 34.2014C158.402 34.3647 158.729 34.3647 158.892 34.3647ZM168.201 34.3647L165.915 42.3668C165.588 43.5099 165.261 44.1632 164.608 44.6531C164.118 45.143 163.302 45.3063 162.485 45.3063C161.995 45.3063 161.342 45.3063 160.689 45.143V43.3466C161.342 43.3466 161.669 43.3466 161.832 43.3466C162.485 43.3466 162.812 43.3466 163.138 43.1833C163.465 43.02 163.628 42.8567 163.792 42.5301H162.485L160.036 34.3647H162.322L164.118 40.7337L165.915 34.3647H168.201ZM177.183 33.7115C177.02 33.8748 177.019 34.0381 177.019 34.3647H178.816V36.3244H177.019V42.6934H174.733V36.3244H173.59V34.3647H174.733V34.2014C174.733 33.3849 174.896 32.5683 175.386 32.2417C175.876 31.7518 176.53 31.5885 177.509 31.5885C178.163 31.5885 178.653 31.5885 179.143 31.7518V33.5482H177.836C177.509 33.3849 177.346 33.5482 177.183 33.7115ZM181.919 42.2035C181.265 41.8769 180.776 41.3869 180.286 40.7337C179.959 40.0805 179.632 39.4273 179.632 38.6107C179.632 37.7942 179.796 37.1409 180.286 36.4877C180.612 35.8345 181.265 35.3446 181.919 35.0179C182.572 34.6913 183.388 34.528 184.205 34.528C185.022 34.528 185.675 34.6913 186.328 35.0179C186.981 35.3446 187.471 35.8345 187.961 36.4877C188.288 37.1409 188.614 37.7942 188.614 38.6107C188.614 39.4273 188.451 40.0805 187.961 40.7337C187.635 41.3869 186.981 41.8769 186.328 42.2035C185.675 42.5301 184.858 42.6934 184.042 42.6934C183.389 42.6934 182.572 42.5301 181.919 42.2035ZM185.675 40.0805C186.001 39.5905 186.328 39.1006 186.328 38.4474C186.328 37.7942 186.165 37.3042 185.675 36.8143C185.348 36.3244 184.695 36.1611 184.205 36.1611C183.552 36.1611 183.062 36.3244 182.735 36.8143C182.409 37.3042 182.082 37.7942 182.082 38.4474C182.082 39.1006 182.245 39.5905 182.735 40.0805C183.062 40.5704 183.715 40.7337 184.205 40.7337C184.695 40.7337 185.185 40.5704 185.675 40.0805ZM195.473 34.3647V36.3244H194.82C194.167 36.3244 193.677 36.4877 193.187 36.8143C192.86 37.1409 192.534 37.6309 192.534 38.4474V42.5301H190.247V34.3647H192.37V35.3446C192.697 35.0179 193.024 34.6913 193.35 34.528C193.677 34.3647 194.167 34.2014 194.657 34.2014C194.983 34.3647 195.147 34.3647 195.473 34.3647ZM201.516 31.5885H208.701V33.5482H203.802V36.3244H207.885V38.2841H203.802V42.3668H201.516V31.5885ZM211.804 42.2035C211.151 41.8769 210.661 41.3869 210.171 40.7337C209.844 40.0805 209.518 39.4273 209.518 38.6107C209.518 37.7942 209.681 37.1409 210.171 36.4877C210.498 35.8345 211.151 35.3446 211.804 35.0179C212.457 34.6913 213.274 34.528 214.09 34.528C214.907 34.528 215.56 34.6913 216.213 35.0179C216.867 35.3446 217.357 35.8345 217.846 36.4877C218.173 37.1409 218.5 37.7942 218.5 38.6107C218.5 39.4273 218.336 40.0805 217.846 40.7337C217.52 41.3869 216.867 41.8769 216.213 42.2035C215.56 42.5301 214.744 42.6934 213.927 42.6934C213.111 42.6934 212.457 42.5301 211.804 42.2035ZM215.56 40.0805C215.887 39.5905 216.213 39.1006 216.213 38.4474C216.213 37.7942 216.05 37.3042 215.56 36.8143C215.234 36.3244 214.58 36.1611 214.09 36.1611C213.437 36.1611 212.947 36.3244 212.621 36.8143C212.294 37.3042 211.967 37.7942 211.967 38.4474C211.967 39.1006 212.131 39.5905 212.621 40.0805C212.947 40.5704 213.6 40.7337 214.09 40.7337C214.58 40.7337 215.07 40.5704 215.56 40.0805ZM225.359 34.3647V36.3244H224.705C224.052 36.3244 223.562 36.4877 223.072 36.8143C222.746 37.1409 222.419 37.6309 222.419 38.4474V42.5301H220.133V34.3647H222.256V35.3446C222.582 35.0179 222.909 34.6913 223.236 34.528C223.562 34.3647 224.052 34.2014 224.542 34.2014C224.869 34.3647 225.032 34.3647 225.359 34.3647ZM234.341 39.2639H228.625C228.788 39.7539 228.951 40.2438 229.441 40.4071C229.768 40.7337 230.421 40.897 230.911 40.897C231.728 40.897 232.544 40.5704 233.197 40.0805L234.177 41.5503C233.197 42.3668 232.054 42.6934 230.911 42.6934C230.095 42.6934 229.278 42.5301 228.625 42.2035C227.972 41.8769 227.482 41.3869 226.992 40.7337C226.665 40.0805 226.338 39.4273 226.338 38.6107C226.338 37.7942 226.502 37.1409 226.828 36.4877C227.155 35.8345 227.645 35.3446 228.298 35.0179C228.951 34.6913 229.605 34.528 230.421 34.528C231.238 34.528 231.891 34.6913 232.381 35.0179C233.034 35.3446 233.361 35.8345 233.687 36.3244C234.014 36.9776 234.177 37.4676 234.177 38.2841C234.504 38.4474 234.341 38.774 234.341 39.2639ZM229.278 36.4877C228.951 36.8143 228.625 37.1409 228.625 37.6309H232.381C232.381 37.1409 232.218 36.651 231.891 36.4877C231.564 36.1611 231.074 35.9978 230.584 35.9978C230.095 35.9978 229.605 36.1611 229.278 36.4877ZM236.464 32.8949C236.137 32.5683 235.974 32.2417 235.974 31.9151C235.974 31.5885 236.137 31.2619 236.464 30.9353C236.79 30.6086 237.117 30.6086 237.443 30.6086C237.77 30.6086 238.097 30.7719 238.423 30.9353C238.75 31.2619 238.913 31.5885 238.913 31.9151C238.913 32.2417 238.75 32.5683 238.423 32.8949C238.097 33.2216 237.77 33.2216 237.443 33.2216C237.117 33.2216 236.79 33.2216 236.464 32.8949ZM236.3 34.3647H238.587V42.5301H236.3V34.3647ZM249.038 34.3647V41.7135C249.038 43.02 248.712 43.9999 247.895 44.8164C247.079 45.4696 246.099 45.7962 244.792 45.7962C243.322 45.7962 241.853 45.3063 240.71 44.3265L241.853 42.6934C242.343 43.02 242.669 43.3466 243.159 43.5099C243.649 43.6733 243.976 43.8366 244.466 43.8366C245.119 43.8366 245.609 43.6732 246.099 43.3466C246.425 43.02 246.752 42.5301 246.752 41.8769V41.3869C246.425 41.7136 246.099 41.8769 245.609 42.0402C245.119 42.2035 244.792 42.3668 244.139 42.3668C243.322 42.3668 242.669 42.2035 242.179 41.8769C241.526 41.5503 241.199 41.0603 240.71 40.4071C240.383 39.7539 240.22 39.1006 240.22 38.2841C240.22 37.4676 240.383 36.8143 240.71 36.1611C241.036 35.5079 241.526 35.018 242.179 34.6913C242.833 34.3647 243.486 34.2014 244.139 34.2014C244.792 34.2014 245.282 34.3647 245.772 34.528C246.262 34.6913 246.589 35.0179 246.915 35.3446V34.3647H249.038ZM246.262 39.9172C246.589 39.5906 246.915 38.9373 246.915 38.2841C246.915 37.6309 246.752 36.9776 246.262 36.651C245.935 36.3244 245.445 36.1611 244.792 36.1611C244.139 36.1611 243.649 36.3244 243.322 36.651C242.996 36.9776 242.669 37.6309 242.669 38.2841C242.669 38.9373 242.833 39.4273 243.322 39.9172C243.649 40.2438 244.302 40.5704 244.792 40.5704C245.445 40.4071 245.935 40.2438 246.262 39.9172ZM258.183 35.1812C258.673 35.8345 259 36.651 259 37.6309V42.6934H256.714V37.7942C256.714 37.3043 256.55 36.9776 256.224 36.651C255.897 36.3244 255.571 36.1611 255.081 36.1611C254.591 36.1611 254.264 36.3244 253.937 36.651C253.611 36.9776 253.448 37.3043 253.448 37.7942V42.5301H251.161V34.3647H253.284V35.1812C253.611 34.8546 253.937 34.6913 254.264 34.528C254.754 34.3647 255.081 34.2014 255.571 34.2014C256.877 34.2014 257.53 34.528 258.183 35.1812ZM112.186 59.8407H108.267L107.777 61.8004H105.491L108.104 50.8588H112.35L114.963 61.8004H112.676L112.186 59.8407ZM111.86 58.0443L110.717 52.9818H109.9L108.757 58.0443H111.86ZM119.535 52.9818C119.372 53.1451 119.372 53.3084 119.372 53.635H121.168V55.5947H119.372V61.9637H117.086V55.5947H115.942V53.635H117.086V53.4717C117.086 52.6552 117.412 51.8386 117.902 51.512C118.392 51.0221 119.045 50.8588 120.025 50.8588C120.678 50.8588 121.168 50.8588 121.658 51.0221V52.8185H120.352C119.862 52.6552 119.699 52.8185 119.535 52.9818ZM125.741 52.9818C125.578 53.1451 125.578 53.3084 125.578 53.635H127.374V55.5947H125.578V61.9637H123.291V55.5947H122.148V53.635H123.291V53.4717C123.291 52.6552 123.618 51.8386 124.108 51.512C124.598 51.0221 125.251 50.8588 126.231 50.8588C126.884 50.8588 127.374 50.8588 127.864 51.0221V52.8185H126.557C126.067 52.6552 125.904 52.8185 125.741 52.9818ZM137.009 53.635V61.8004H134.886V60.8206C134.56 61.1472 134.233 61.4738 133.743 61.6371C133.253 61.8004 132.763 61.9637 132.273 61.9637C131.457 61.9637 130.803 61.8004 130.313 61.4738C129.66 61.1472 129.17 60.6573 128.844 60.004C128.517 59.3508 128.354 58.6976 128.354 57.881C128.354 57.0645 128.517 56.4113 128.844 55.758C129.17 55.1048 129.66 54.6149 130.313 54.2883C130.967 53.9617 131.62 53.7983 132.273 53.7983C132.763 53.7983 133.416 53.9616 133.743 54.1249C134.233 54.2883 134.56 54.6149 134.886 54.9415V53.9616H137.009V53.635ZM134.07 59.5141C134.396 59.1875 134.723 58.5343 134.723 57.881C134.723 57.2278 134.559 56.5746 134.07 56.248C133.743 55.9213 133.253 55.5947 132.6 55.5947C131.947 55.5947 131.457 55.758 131.13 56.248C130.803 56.7379 130.477 57.2278 130.477 57.881C130.477 58.5343 130.64 59.0242 131.13 59.5141C131.457 60.004 132.11 60.1673 132.6 60.1673C133.253 60.004 133.743 59.8407 134.07 59.5141ZM139.459 52.1653C139.132 51.8386 138.969 51.512 138.969 51.1854C138.969 50.8588 139.132 50.5322 139.459 50.2056C139.785 49.879 140.112 49.8789 140.439 49.8789C140.765 49.8789 141.092 50.0423 141.418 50.2056C141.745 50.5322 141.908 50.8588 141.908 51.1854C141.908 51.512 141.745 51.8386 141.418 52.1653C141.092 52.4919 140.765 52.4919 140.439 52.4919C140.112 52.4919 139.785 52.4919 139.459 52.1653ZM139.295 53.635H141.582V61.8004H139.295V53.635ZM148.931 53.635V55.5947H148.277C147.624 55.5947 147.134 55.758 146.644 56.0846C146.318 56.4113 145.991 56.9012 145.991 57.7177V61.8004H143.705V53.635H145.828V54.6149C146.154 54.2883 146.481 53.9616 146.808 53.7983C147.134 53.635 147.624 53.4717 148.114 53.4717C148.604 53.635 148.767 53.635 148.931 53.635ZM151.217 61.6371C150.564 61.3105 150.074 60.9839 149.747 60.4939L150.89 59.1875C151.543 60.004 152.36 60.3306 153.177 60.3306C153.503 60.3306 153.666 60.3306 153.993 60.1673C154.156 60.004 154.32 59.8407 154.32 59.6774C154.32 59.5141 154.32 59.3508 154.156 59.3508C153.993 59.3508 153.83 59.1875 153.503 59.0242L152.687 58.6976C151.87 58.371 151.38 58.0443 151.054 57.7177C150.727 57.3911 150.564 56.9012 150.564 56.248C150.564 55.4314 150.89 54.9415 151.38 54.4516C151.87 53.9616 152.687 53.7983 153.503 53.7983C154.646 53.7983 155.626 54.2883 156.443 55.1048L155.3 56.4112C154.81 55.9213 154.156 55.5947 153.503 55.5947C153.177 55.5947 153.013 55.5947 152.85 55.758C152.687 55.9213 152.687 55.9213 152.687 56.248C152.687 56.4113 152.687 56.5746 152.85 56.5746C153.013 56.7379 153.177 56.7379 153.503 56.9012L154.32 57.2278C155.136 57.5544 155.626 57.881 156.116 58.2076C156.443 58.5343 156.606 59.0242 156.606 59.6774C156.606 60.4939 156.279 61.1472 155.626 61.6371C154.973 62.127 154.32 62.2903 153.34 62.2903C152.523 61.9637 151.87 61.9637 151.217 61.6371ZM164.445 61.4738C163.792 61.1472 163.302 60.6573 162.812 60.004C162.485 59.3508 162.158 58.6976 162.158 57.881C162.158 57.0645 162.322 56.4113 162.812 55.758C163.138 55.1048 163.792 54.6149 164.445 54.2883C165.098 53.9617 165.915 53.7983 166.731 53.7983C167.548 53.7983 168.201 53.9617 168.854 54.2883C169.507 54.6149 169.997 55.1048 170.487 55.758C170.814 56.4113 171.14 57.0645 171.14 57.881C171.14 58.6976 170.977 59.3508 170.487 60.004C170.161 60.6573 169.507 61.1472 168.854 61.4738C168.201 61.8004 167.384 61.9637 166.568 61.9637C165.751 61.9637 165.098 61.8004 164.445 61.4738ZM168.038 59.3508C168.364 58.8609 168.691 58.3709 168.691 57.7177C168.691 57.0645 168.527 56.5746 168.038 56.0846C167.711 55.5947 167.058 55.4314 166.568 55.4314C165.915 55.4314 165.425 55.5947 165.098 56.0846C164.771 56.5746 164.445 57.0645 164.445 57.7177C164.445 58.3709 164.608 58.8609 165.098 59.3508C165.425 59.8407 166.078 60.004 166.568 60.004C167.221 60.004 167.711 59.8407 168.038 59.3508ZM175.55 52.9818C175.386 53.1451 175.386 53.3084 175.386 53.635H177.183V55.5947H175.386V61.9637H173.1V55.5947H171.957V53.635H173.1V53.4717C173.1 52.6552 173.427 51.8386 173.917 51.512C174.407 51.0221 175.06 50.8588 176.04 50.8588C176.693 50.8588 177.183 50.8588 177.673 51.0221V52.8185H176.366C175.876 52.6552 175.713 52.8185 175.55 52.9818ZM183.225 50.8588H190.411V52.8185H185.512V55.5947H189.594V57.5544H185.512V61.6371H183.225V50.8588ZM192.207 52.1653C191.881 51.8386 191.717 51.512 191.717 51.1854C191.717 50.8588 191.881 50.5322 192.207 50.2056C192.534 49.879 192.86 49.8789 193.187 49.8789C193.514 49.8789 193.84 50.0423 194.167 50.2056C194.493 50.5322 194.657 50.8588 194.657 51.1854C194.657 51.512 194.493 51.8386 194.167 52.1653C193.84 52.4919 193.514 52.4919 193.187 52.4919C192.86 52.4919 192.534 52.4919 192.207 52.1653ZM192.044 53.635H194.33V61.8004H192.044V53.635ZM203.312 54.4516C203.802 55.1048 204.129 55.9213 204.129 56.9012V61.9637H201.842V57.2278C201.842 56.7379 201.679 56.4113 201.352 56.0846C201.026 55.758 200.699 55.5947 200.209 55.5947C199.719 55.5947 199.393 55.758 199.066 56.0846C198.739 56.4113 198.576 56.7379 198.576 57.2278V61.9637H196.29V53.7983H198.413V54.6149C198.739 54.2883 199.066 54.1249 199.393 53.9616C199.883 53.7983 200.209 53.635 200.699 53.635C202.006 53.4717 202.822 53.7983 203.312 54.4516ZM206.578 50.8588H208.865V61.8004H206.578V50.8588ZM219.316 53.635V61.8004H217.193V60.8206C216.867 61.1472 216.54 61.4738 216.05 61.6371C215.56 61.8004 215.07 61.9637 214.58 61.9637C213.764 61.9637 213.111 61.8004 212.621 61.4738C211.967 61.1472 211.477 60.6573 211.151 60.004C210.824 59.3508 210.661 58.6976 210.661 57.881C210.661 57.0645 210.824 56.4113 211.151 55.758C211.477 55.1048 211.967 54.6149 212.621 54.2883C213.274 53.9617 213.927 53.7983 214.58 53.7983C215.07 53.7983 215.723 53.9616 216.05 54.1249C216.54 54.2883 216.867 54.6149 217.193 54.9415V53.9616H219.316V53.635ZM216.54 59.5141C216.867 59.1875 217.193 58.5343 217.193 57.881C217.193 57.2278 217.03 56.5746 216.54 56.248C216.213 55.9213 215.723 55.5947 215.07 55.5947C214.417 55.5947 213.927 55.758 213.6 56.248C213.274 56.7379 212.947 57.2278 212.947 57.881C212.947 58.5343 213.11 59.0242 213.6 59.5141C213.927 60.004 214.58 60.1673 215.07 60.1673C215.723 60.004 216.213 59.8407 216.54 59.5141ZM228.461 54.4516C228.951 55.1048 229.278 55.9213 229.278 56.9012V61.9637H226.992V57.2278C226.992 56.7379 226.828 56.4113 226.502 56.0846C226.175 55.758 225.849 55.5947 225.359 55.5947C224.869 55.5947 224.542 55.758 224.215 56.0846C223.889 56.4113 223.726 56.7379 223.726 57.2278V61.9637H221.439V53.7983H223.562V54.6149C223.889 54.2883 224.215 54.1249 224.542 53.9616C225.032 53.7983 225.359 53.635 225.849 53.635C227.155 53.4717 227.808 53.7983 228.461 54.4516ZM239.73 50.8588V61.8004H237.607V60.8206C237.28 61.1472 236.953 61.4738 236.464 61.6371C235.974 61.8004 235.484 61.9637 234.994 61.9637C234.177 61.9637 233.524 61.8004 233.034 61.4738C232.381 61.1472 231.891 60.6573 231.564 60.004C231.238 59.3508 231.074 58.6976 231.074 57.881C231.074 57.0645 231.238 56.4113 231.564 55.758C231.891 55.1048 232.381 54.6149 233.034 54.2883C233.687 53.9617 234.341 53.7983 234.994 53.7983C235.974 53.7983 236.79 54.1249 237.443 54.7782V50.8588H239.73ZM236.953 59.5141C237.28 59.1875 237.607 58.5343 237.607 57.881C237.607 57.2278 237.443 56.5746 236.953 56.248C236.627 55.9213 236.137 55.5947 235.484 55.5947C234.83 55.5947 234.341 55.758 234.014 56.248C233.687 56.7379 233.361 57.2278 233.361 57.881C233.361 58.5343 233.524 59.1875 234.014 59.5141C234.341 60.004 234.994 60.1673 235.484 60.1673C235.974 60.004 236.464 59.8407 236.953 59.5141Z" fill="#828282"/>
<path d="M91.8289 45.8556C91.8289 71.1592 71.2772 91.711 45.9736 91.711C20.6699 91.711 0.118164 71.1592 0.118164 45.8556C0.118164 20.552 20.6699 0.000183105 45.9736 0.000183105C71.2772 0.000183105 91.8289 20.552 91.8289 45.8556Z" fill="#93D5F6"/>
<path d="M67.7135 78.5247C61.6549 83.3954 54.0519 86.6029 45.855 87.4344C47.2805 87.5532 48.5873 87.672 50.0129 87.672C72.703 87.672 91.2352 69.4962 91.7104 46.8061C91.354 61.6556 81.3751 74.248 67.7135 78.5247Z" fill="#36A9E1"/>
<path d="M91.8295 45.0245C91.3543 22.4532 72.8221 4.15851 50.132 4.15851C48.7064 4.15851 47.2809 4.27731 45.9741 4.39611C54.1711 5.22768 61.6552 8.43518 67.8326 13.3058C81.3754 17.4637 91.3543 30.0561 91.8295 45.0245Z" fill="#36A9E1"/>
<path d="M75.4361 70.4463C73.179 73.4162 70.6843 76.1485 67.7144 78.5245C81.3759 74.2478 91.3548 61.7742 91.7112 46.8058C91.7112 46.687 91.7112 46.687 91.7112 46.5682C91.4736 57.2599 84.821 66.526 75.4361 70.4463Z" fill="#008ECF"/>
<path d="M67.7144 13.3057C70.6843 15.6816 73.179 18.2951 75.4361 21.3838C84.821 25.3041 91.4736 34.4514 91.7112 45.2619C91.7112 45.1431 91.7112 45.1431 91.7112 45.0243C91.3548 30.056 81.3759 17.4635 67.7144 13.3057Z" fill="#008ECF"/>
<path d="M79.3558 63.7936C78.2867 66.1696 76.9799 68.3079 75.4355 70.4462C84.8205 66.526 91.4731 57.3786 91.7106 46.5682C91.7106 46.3306 91.7106 46.093 91.7106 45.8554C91.8294 54.0524 86.6024 61.0613 79.3558 63.7936Z" fill="#006AB0"/>
<path d="M88.9788 45.8553C88.9788 64.5063 69.7338 79.5934 45.9745 79.5934C22.2152 79.5934 2.97021 64.5063 2.97021 45.8553C2.97021 27.2043 22.2152 12.1171 45.9745 12.1171C69.7338 12.1171 88.9788 27.2043 88.9788 45.8553Z" fill="#006AB0"/>
<path d="M75.4355 21.2651C76.9799 23.2846 78.2867 25.5417 79.3558 27.9177C86.6024 30.65 91.7106 37.659 91.7106 45.8559C91.7106 45.6183 91.7106 45.3807 91.7106 45.1431C91.473 34.4515 84.8205 25.3042 75.4355 21.2651Z" fill="#006AB0"/>
<path d="M79.3555 27.9175C80.3058 29.937 81.1374 32.0754 81.7314 34.3325C87.3148 35.1641 91.7103 40.0347 91.7103 45.9745C91.8291 37.6588 86.602 30.6498 79.3555 27.9175Z" fill="#004490"/>
<path d="M81.8515 57.498C81.2575 59.7551 80.426 61.7747 79.4756 63.913C86.7222 61.1807 91.8304 54.1717 91.8304 45.9747C91.8304 51.7958 87.4349 56.6664 81.8515 57.498Z" fill="#004490"/>
<path d="M81.8511 34.3328C82.9202 38.0155 83.5142 41.9357 83.5142 45.9748C83.5142 50.0139 82.9202 53.9342 81.8511 57.6168C87.4345 56.7853 91.83 51.9146 91.83 45.9748C91.83 40.035 87.4345 35.1643 81.8511 34.3328Z" fill="#1D327B"/>
<path d="M24.115 13.3058C30.1737 8.43518 37.7766 5.22768 45.9736 4.39611C44.548 4.27731 43.2412 4.15851 41.8157 4.15851C19.1256 4.15851 0.593349 22.3344 0.118164 45.0245C0.474553 30.0561 10.4535 17.4637 24.115 13.3058Z" fill="#36A9E1"/>
<path d="M0.118164 46.8061C0.593349 69.3774 19.1256 87.672 41.8157 87.672C43.2412 87.672 44.548 87.5532 45.9736 87.4344C37.7766 86.6029 30.2924 83.3954 24.115 78.5247C10.4535 74.248 0.474553 61.6556 0.118164 46.8061Z" fill="#36A9E1"/>
<path d="M57.6169 79.9506C53.4591 79.9506 49.5388 79.2378 45.8561 77.931C42.1734 79.2378 38.2531 79.9506 34.0952 79.9506C30.5314 79.9506 27.2051 79.4754 23.9976 78.4062C30.0562 83.2769 37.6591 86.4844 45.8561 87.3159C54.053 86.4844 61.5372 83.2769 67.7146 78.4062C64.6259 79.4754 61.1808 79.9506 57.6169 79.9506Z" fill="#008ECF"/>
<path d="M34.2134 11.7609C38.3713 11.7609 42.2916 12.4737 45.9742 13.7805C49.6569 12.4737 53.5772 11.7609 57.7351 11.7609C61.299 11.7609 64.6253 12.2361 67.8328 13.3053C61.7741 8.43464 54.1712 5.22714 45.9742 4.39557C37.7773 5.22714 30.2931 8.43464 24.1157 13.3053C27.3232 12.2361 30.6495 11.7609 34.2134 11.7609Z" fill="#008ECF"/>
<path d="M67.7135 13.3059C64.506 12.3555 61.1797 11.7615 57.6158 11.7615C53.458 11.7615 49.5377 12.4743 45.855 13.7811C50.0129 15.3254 53.6955 17.5826 56.903 20.4337C59.5166 19.6021 62.2489 19.1269 64.9812 19.1269C68.6639 19.1269 72.109 19.8397 75.3165 21.1464C73.2969 18.2953 70.6834 15.563 67.7135 13.3059Z" fill="#006AB0"/>
<path d="M57.0222 71.2784C53.8147 74.1295 50.0132 76.5054 45.9741 77.931C49.6568 79.2377 53.5771 79.9505 57.735 79.9505C61.2988 79.9505 64.6251 79.4753 67.8326 78.4062C70.6838 76.0302 73.2973 73.4167 75.5544 70.328C72.3469 71.6348 68.9018 72.3476 65.2191 72.3476C62.368 72.4664 59.6357 72.11 57.0222 71.2784Z" fill="#006AB0"/>
<path d="M57.022 20.5521C59.6355 22.9281 61.8926 25.7792 63.7934 28.8679C66.4069 27.4423 69.3768 26.7295 72.5843 26.7295C74.9602 26.7295 77.3361 27.2047 79.4745 28.0363C78.4053 25.6604 76.9797 23.5221 75.5542 21.5025C72.3467 20.1958 68.9016 19.483 65.2189 19.483C62.3678 19.2454 59.6355 19.7206 57.022 20.5521Z" fill="#004490"/>
<path d="M63.7934 62.962C62.0114 66.0507 59.7543 68.9019 57.022 71.2778C59.6355 72.1094 62.3678 72.5845 65.1001 72.5845C68.7828 72.5845 72.2279 71.8718 75.4354 70.565C76.9798 68.5455 78.2865 66.2883 79.3557 64.0312C77.2174 64.8628 74.9602 65.338 72.4655 65.338C69.3768 65.1004 66.4069 64.2688 63.7934 62.962Z" fill="#004490"/>
<path d="M79.8316 45.8556C79.8316 60.5864 64.6257 72.466 45.9746 72.466C27.3236 72.466 12.1177 60.5864 12.1177 45.8556C12.1177 31.1249 27.3236 19.2452 45.9746 19.2452C64.6257 19.2452 79.8316 31.2437 79.8316 45.8556Z" fill="#004490"/>
<path d="M68.3074 45.8554C68.3074 52.0328 66.6442 57.9726 63.6743 62.9621C66.2878 64.2688 69.2578 65.1004 72.4653 65.1004C74.8412 65.1004 77.2171 64.6252 79.3554 63.7936C80.3058 61.7741 81.1374 59.6358 81.7314 57.3786C81.1374 57.4974 80.5434 57.4975 79.9494 57.4975C73.5344 57.6162 68.3074 52.3892 68.3074 45.8554Z" fill="#1D327B"/>
<path d="M63.7939 28.7489C66.7639 33.7384 68.427 39.5594 68.427 45.8556C68.427 39.3218 73.654 34.0948 80.1878 34.0948C80.7818 34.0948 81.3758 34.0948 81.9698 34.2136C81.3758 31.9565 80.5442 29.9369 79.5939 27.7986C77.4555 26.967 75.1984 26.4918 72.7037 26.4918C69.3774 26.6106 66.4075 27.4422 63.7939 28.7489Z" fill="#1D327B"/>
<path d="M68.3076 45.8557C68.3076 52.3895 73.5346 57.6165 80.0684 57.6165C80.6624 57.6165 81.2564 57.6165 81.8504 57.4977C82.9196 53.8151 83.5136 49.8948 83.5136 45.8557C83.5136 41.8166 82.9196 37.8963 81.8504 34.2137C81.2564 34.0949 80.6624 34.0948 80.0684 34.0948C73.5346 34.0948 68.3076 39.4407 68.3076 45.8557Z" fill="#1E2A6E"/>
<path d="M24.115 78.5245C21.1451 76.1485 18.6504 73.535 16.3933 70.4463C7.00837 66.526 0.355757 57.3787 0.118164 46.5682C0.118164 46.687 0.118164 46.687 0.118164 46.8058C0.474553 61.6554 10.4535 74.2478 24.115 78.5245Z" fill="#008ECF"/>
<path d="M24.115 13.3057C10.4535 17.5823 0.474553 30.056 0.118164 45.0243C0.118164 45.1431 0.118164 45.1431 0.118164 45.2619C0.355757 34.4514 7.00837 25.3041 16.3933 21.3838C18.6504 18.2951 21.1451 15.5628 24.115 13.3057Z" fill="#008ECF"/>
<path d="M24.1157 78.525C27.3232 79.4753 30.6495 80.0693 34.2134 80.0693C38.3712 80.0693 42.2915 79.3565 45.9742 78.0498C41.8163 76.5054 38.1336 74.2483 34.9261 71.3972C32.3126 72.2287 29.5803 72.7039 26.848 72.7039C23.1653 72.7039 19.7202 71.9911 16.5127 70.6844C18.651 73.4167 21.1458 76.149 24.1157 78.525Z" fill="#006AB0"/>
<path d="M34.8081 20.5522C38.0156 17.7011 41.8171 15.3252 45.8562 13.8996C42.1735 12.5928 38.2532 11.8801 34.0953 11.8801C30.5314 11.8801 27.2051 12.3553 23.9976 13.4244C21.0277 15.8003 18.533 18.4139 16.2759 21.5026C19.4834 20.1958 22.9285 19.483 26.6112 19.483C29.5811 19.2454 32.3134 19.7206 34.8081 20.5522Z" fill="#006AB0"/>
<path d="M45.9748 27.442C48.9447 24.2345 52.7462 21.8585 57.0229 20.5518C53.8154 17.7007 50.0139 15.3247 45.9748 13.8992C41.8169 15.4435 38.1343 17.7007 34.9268 20.5518C39.0846 21.8585 42.8861 24.2345 45.9748 27.442Z" fill="#004490"/>
<path d="M45.9748 64.2691C43.0049 67.4766 39.2034 69.8525 34.9268 71.1593C38.1343 74.0104 41.9357 76.3863 45.9748 77.8119C50.1327 76.2675 53.8154 74.0104 57.0229 71.1593C52.7462 69.8525 48.9447 67.4766 45.9748 64.2691Z" fill="#004490"/>
<path d="M53.3395 45.8554C53.3395 52.9832 50.4884 59.517 45.9741 64.2688C48.944 67.4763 52.7455 69.8523 57.0222 71.159C59.6357 68.7831 61.8928 65.932 63.7936 62.8433C57.6162 59.7546 53.3395 53.3396 53.3395 45.8554Z" fill="#1D327B"/>
<path d="M45.9741 27.442C50.6072 32.1938 53.3395 38.7276 53.3395 45.8554C53.3395 38.3712 57.6162 31.9562 63.7936 28.7487C62.0116 25.66 59.7545 22.8089 57.0222 20.433C52.7455 21.8585 48.944 24.2345 45.9741 27.442Z" fill="#1D327B"/>
<path d="M53.3403 45.8555C53.3403 53.3396 57.617 59.7546 63.7944 62.9621C66.7643 57.9727 68.4275 52.1517 68.4275 45.8555C68.4275 39.6781 66.7643 33.7382 63.7944 28.7488C57.617 31.9563 53.3403 38.4901 53.3403 45.8555Z" fill="#1E2A6E"/>
<path d="M12.473 27.9177C13.5422 25.5417 14.8489 23.4034 16.3933 21.2651C7.00837 25.1854 0.355757 34.3327 0.118164 45.1431C0.118164 45.3807 0.118164 45.6183 0.118164 45.8559C0.118164 37.659 5.22642 30.65 12.473 27.9177Z" fill="#006AB0"/>
<path d="M16.3933 70.4462C14.8489 68.4267 13.5422 66.1696 12.473 63.7936C5.22642 61.0613 0.118164 54.0524 0.118164 45.8554C0.118164 46.093 0.118164 46.3306 0.118164 46.5682C0.355757 57.2598 7.00837 66.526 16.3933 70.4462Z" fill="#006AB0"/>
<path d="M34.808 71.2778C32.1945 68.9019 29.9373 66.0507 28.0366 62.962C25.4231 64.2688 22.4532 65.1004 19.2457 65.1004C16.8697 65.1004 14.4938 64.6252 12.3555 63.7936C13.4246 66.1695 14.8502 68.3079 16.2758 70.3274C19.4833 71.6342 22.9283 72.347 26.611 72.347C29.5809 72.4658 32.3133 72.1094 34.808 71.2778Z" fill="#004490"/>
<path d="M28.1546 28.7491C29.9366 25.6604 32.1937 22.8093 34.926 20.4334C32.3125 19.6018 29.5802 19.1266 26.8478 19.1266C23.1652 19.1266 19.7201 19.8394 16.5126 21.1462C14.9682 23.1657 13.6615 25.4229 12.5923 27.68C14.7306 26.8484 16.9878 26.3732 19.4825 26.3732C22.4524 26.6108 25.4223 27.4424 28.1546 28.7491Z" fill="#004490"/>
<path d="M38.4897 45.8559C38.4897 38.7281 41.3408 32.1944 45.8551 27.4425C42.8852 24.235 39.0837 21.8591 34.8071 20.5523C32.1935 22.9282 29.9364 25.7793 28.0356 28.8681C34.3319 31.9568 38.4897 38.4906 38.4897 45.8559Z" fill="#1D327B"/>
<path d="M45.9742 64.2688C41.3412 59.517 38.6089 52.9832 38.6089 45.8554C38.6089 53.3396 34.3322 59.7546 28.1548 62.9621C29.9367 66.0508 32.1939 68.9019 34.9262 71.2778C39.084 69.8523 42.8855 67.4763 45.9742 64.2688Z" fill="#1D327B"/>
<path d="M45.9747 27.4425C41.3417 32.1944 38.6094 38.7282 38.6094 45.8559C38.6094 52.9837 41.4605 59.5175 45.9747 64.2694C50.6078 59.5175 53.3401 52.9837 53.3401 45.8559C53.3401 38.7282 50.489 32.1944 45.9747 27.4425Z" fill="#1E2A6E"/>
<path d="M9.97889 34.3325C10.5729 32.0754 11.4044 30.0558 12.3548 27.9175C5.10824 30.6498 0 37.6588 0 45.8557C0.118796 40.0347 4.39546 35.1641 9.97889 34.3325Z" fill="#004490"/>
<path d="M12.473 63.7939C11.5226 61.7744 10.691 59.6361 10.0971 57.3789C4.51364 56.5473 0.118164 51.6767 0.118164 45.7369C0.118164 54.0526 5.22642 61.0616 12.473 63.7939Z" fill="#004490"/>
<path d="M28.1548 62.9621C25.1849 57.9726 23.5218 52.1516 23.5218 45.8554C23.5218 52.3892 18.2947 57.6162 11.7609 57.6162C11.167 57.6162 10.573 57.6162 9.979 57.4975C10.573 59.7546 11.4046 61.7741 12.3549 63.9124C14.4933 64.744 16.7504 65.2192 19.2451 65.2192C22.4526 65.1004 25.4225 64.2688 28.1548 62.9621Z" fill="#1D327B"/>
<path d="M23.5216 45.8554C23.5216 39.6779 25.1848 33.7381 28.1547 28.7487C25.5412 27.4419 22.5713 26.6104 19.3638 26.6104C16.9878 26.6104 14.6119 27.0855 12.4736 27.9171C11.5232 29.9366 10.6916 32.075 10.0977 34.3321C10.6916 34.2133 11.2856 34.2133 11.8796 34.2133C18.2946 34.0945 23.5216 39.4404 23.5216 45.8554Z" fill="#1D327B"/>
<path d="M38.4905 45.8555C38.4905 38.3713 34.2138 31.9563 28.0364 28.7488C25.0665 33.7382 23.4033 39.5593 23.4033 45.8555C23.4033 52.0329 25.0665 57.9727 28.0364 62.9621C34.3326 59.7546 38.4905 53.3396 38.4905 45.8555Z" fill="#1E2A6E"/>
<path d="M9.97889 57.4975C8.90972 53.8148 8.31574 49.8945 8.31574 45.8554C8.31574 41.8163 8.90972 37.8961 9.97889 34.2134C4.39546 35.045 0 39.9156 0 45.8554C0.118796 51.7952 4.39546 56.6659 9.97889 57.4975Z" fill="#1D327B"/>
<path d="M23.5214 45.8557C23.5214 39.3219 18.2943 34.0948 11.7605 34.0948C11.1665 34.0948 10.5726 34.0949 9.97857 34.2137C8.9094 37.8963 8.31543 41.8166 8.31543 45.8557C8.31543 49.8948 8.9094 53.8151 9.97857 57.4977C10.5726 57.6165 11.1665 57.6165 11.7605 57.6165C18.2943 57.6165 23.5214 52.3895 23.5214 45.8557Z" fill="#1E2A6E"/>
<path d="M26.9672 18.4139L28.0364 19.0079C28.1552 19.0079 28.1552 19.0079 28.274 19.0079C28.6304 18.8891 29.2243 18.7703 29.4619 19.0079C29.5807 19.1267 29.6995 19.3643 29.5807 19.7207V19.8395L30.0559 20.0771C30.1747 19.9583 30.2935 19.8395 30.4123 19.7207C31.1251 19.0079 31.8379 18.1764 32.313 17.82C32.0755 17.7012 31.7191 17.5824 31.4815 17.7012H31.3627H31.2439C31.1251 17.5824 31.0063 17.5824 30.7687 17.5824C30.5311 17.5824 30.2935 17.7012 30.2935 17.7012C30.4123 17.9388 30.6499 18.0576 30.5311 18.2952C30.5311 18.4139 30.4123 18.5328 30.1747 18.5328H30.0559C29.9371 18.5328 29.9371 18.5327 29.8183 18.4139C29.6995 18.2952 29.6995 18.2952 29.8183 18.1764C29.8183 18.0576 29.8183 17.9388 29.6995 17.9388C29.5807 17.82 29.4619 17.9388 29.3431 17.9388C29.2243 17.9388 29.2243 18.0576 29.1055 18.0576C28.9867 18.0576 28.868 18.0576 28.868 17.82C28.868 17.7012 28.868 17.5824 28.868 17.4636C28.9868 17.3448 29.2243 17.226 29.4619 17.226C29.5807 17.226 29.5807 17.226 29.6995 17.226V17.1072C29.6995 16.9884 29.5807 16.7508 29.4619 16.7508H29.3431V16.632C29.3431 16.5132 29.4619 16.1568 29.2243 16.038L29.1055 15.9192C28.9867 15.9192 28.868 15.9192 28.5116 16.1568H28.3928L28.274 16.038C28.274 16.038 28.274 16.038 28.1552 16.038C28.1552 16.038 27.7988 16.038 27.5612 16.3944C27.7988 16.5132 28.0364 16.7508 28.0364 16.9884C28.0364 17.1072 28.0364 17.226 27.68 17.3448C27.3236 17.4636 27.3236 17.226 27.2048 17.1072C27.2048 16.9884 27.2048 16.9884 27.086 16.8696C26.9672 16.8696 26.9672 16.8696 26.9672 16.8696C26.9672 16.8696 26.8484 16.9884 26.7296 16.9884C26.6108 16.9884 26.492 16.8696 26.492 16.8696C26.3732 16.632 26.3732 16.5132 26.3732 16.5132C26.492 16.3944 26.6108 16.2756 26.8484 16.2756C26.9672 16.2756 26.9672 16.2756 26.9672 16.2756C26.9672 16.2756 26.9672 16.1568 26.9672 16.038C26.9672 15.9192 26.8484 15.6816 26.6108 15.6816H26.492V15.5628C26.492 15.3252 26.492 14.9689 26.0168 14.7313C26.0168 15.3252 25.7792 16.038 25.6604 16.7508C25.5416 17.226 25.4229 17.82 25.4229 17.9388L26.9672 18.4139Z" fill="white"/>
<path d="M23.6405 24.7101C24.8285 24.7101 25.8977 23.2845 27.3232 24.3537V24.1161C26.6105 23.4033 25.6601 23.1657 24.8285 23.6409C23.8781 23.9973 23.1654 23.6409 23.1654 22.9281C23.1654 22.6906 23.2842 22.2154 23.7594 22.0966C22.9278 21.9778 22.0962 22.5718 22.0962 23.2845C22.0962 23.9973 22.6902 24.7101 23.6405 24.7101Z" fill="white"/>
<path d="M22.2151 20.3144L23.1655 19.958H24.1159L24.3535 19.4828L24.2347 19.2452C24.2347 19.2452 24.2347 19.0076 24.3535 18.8888C23.0467 18.8888 23.6407 18.8888 23.1655 18.8888L22.2151 18.5324L21.9775 18.8888C22.0963 19.0076 22.2151 19.1264 22.2151 19.4828C22.2151 19.8392 22.0963 19.958 21.9775 20.0768C22.0963 20.0768 22.2151 20.3144 22.2151 20.3144Z" fill="white"/>
<path d="M31.0054 19.8394C34.4505 19.7206 37.658 19.7206 37.7768 19.7206C37.8956 19.7206 38.4895 19.483 38.8459 19.2455C38.4895 19.1267 37.8956 18.7703 37.7768 18.7703C37.658 18.7703 35.0445 18.7703 31.9557 18.7703C31.5994 19.1267 31.243 19.483 31.0054 19.8394Z" fill="white"/>
<path d="M16.6322 20.0768H16.8698V18.8889H16.6322C16.2758 18.7701 15.9194 19.0077 15.9194 19.4828V19.7204C15.9194 19.958 16.2758 20.1956 16.6322 20.0768Z" fill="white"/>
<path d="M21.6218 21.6216L21.503 21.384V19.9585C21.6218 19.8397 21.7406 19.6021 21.7406 19.4833C21.7406 19.3645 21.6218 19.0081 21.503 19.0081V17.5825L21.6218 17.3449V17.2261H20.6714V17.3449L20.7902 17.5825V21.6216L20.6714 21.8592V21.978L21.6218 21.6216Z" fill="white"/>
<path d="M17.8193 26.2542C17.8193 26.4918 17.9381 26.7294 18.1757 26.967C18.4133 27.2045 19.0073 27.4421 19.3637 27.6797L21.1456 25.779C20.908 25.6602 20.6704 25.3038 20.6704 25.0662H17.9381C17.8193 25.4226 17.8193 25.8978 17.8193 26.2542Z" fill="white"/>
<path d="M33.501 23.7594C33.501 25.3037 34.4514 26.1353 35.6393 26.9669C35.7581 26.8481 35.9957 26.7293 36.2333 26.4917C35.0453 25.6601 34.2138 25.0661 34.2138 23.7594C34.2138 21.3834 36.1145 21.2647 36.8273 21.2647C38.134 21.2647 39.322 22.0962 39.322 23.7594C39.322 24.9473 38.3716 25.6601 37.7777 26.1353C37.0649 26.6105 36.3521 26.9669 35.8769 27.5608C35.7581 27.5608 35.6393 27.5608 35.5205 27.5608C33.8574 27.4421 33.3822 28.8676 34.095 29.3428C34.095 29.9368 34.4514 30.412 34.8077 30.412C34.9265 30.5308 35.1641 30.6496 35.4017 30.8871C35.6393 30.8871 35.8769 30.7684 35.8769 30.7684C35.7581 30.412 35.1641 29.3428 36.1145 28.2736C36.5897 27.6797 37.6588 27.0857 38.4904 26.4917C39.5596 25.7789 40.1536 24.9473 40.1536 23.8782C40.1536 21.621 38.4904 20.6707 36.9461 20.6707C35.2829 20.5519 33.501 21.3834 33.501 23.7594Z" fill="white"/>
<path d="M20.3138 18.295L19.6011 18.0574V20.5522H20.3138V18.295Z" fill="white"/>
<path d="M18.057 18.295L17.3442 18.0574V20.5522H18.057V18.295Z" fill="white"/>
<path d="M19.1262 18.295L18.5322 18.0574V20.5522H19.1262V18.295Z" fill="white"/>
<path d="M18.1769 22.928C18.1769 23.4032 18.0581 23.8784 18.0581 24.4724H20.3152C20.1964 23.8784 20.0776 23.1656 19.9588 22.5716L20.1964 21.0273H17.7017L18.0581 22.2152C18.1768 22.4528 18.1769 22.6904 18.1769 22.928Z" fill="white"/>
<path d="M21.5019 26.1355L19.9575 27.9174C20.9079 28.5114 21.8582 29.2242 22.0958 29.4618C22.6898 29.1054 23.165 28.5114 23.5214 28.0362C23.2838 27.7987 22.9274 27.3235 22.8086 26.9671C22.3334 26.6107 21.977 26.3731 21.5019 26.1355Z" fill="white"/>
<path d="M18.8885 40.7475C18.7697 40.8663 18.6509 40.9851 18.6509 41.1039C18.1757 41.2227 17.8193 41.5791 17.8193 42.1731C19.1261 41.8167 19.7201 41.9355 20.908 42.0543C21.0268 42.1731 21.0268 42.2919 21.0268 42.2919C21.0268 42.2919 19.8389 42.2919 19.1261 42.6483C19.1261 42.767 19.1261 42.8858 19.1261 43.0046C18.8885 43.4798 18.8885 43.955 19.2449 44.3114C20.4329 42.4107 23.1652 42.4107 22.5712 44.4302C23.1652 44.549 23.6403 43.955 23.8779 43.361C24.1155 42.767 23.7592 41.8167 24.9471 41.5791C25.4223 41.4603 25.8975 41.4603 26.4915 41.2227C26.4915 40.9851 26.2539 40.5099 26.0163 40.2723C26.3727 40.2723 26.8479 40.6287 26.9667 40.9851C27.0854 40.8663 27.323 40.8663 27.4418 40.7475C27.4418 40.5099 26.9667 40.0347 26.7291 39.7971C27.0855 39.7971 27.6794 40.2723 27.917 40.5099C28.0358 40.3911 28.1546 40.3911 28.2734 40.2723C28.1546 40.0347 27.7982 39.5595 27.5606 39.3219C27.917 39.3219 28.511 39.6783 28.7486 39.9159C28.8674 39.7971 28.9862 39.6783 29.105 39.5595C28.6298 38.134 29.4614 37.4212 31.0057 36.7084C31.1245 36.7084 31.4809 36.4708 31.7185 36.352C31.5997 35.8769 31.4809 34.6889 31.4809 34.0949C30.6493 33.8573 29.3426 33.7385 28.7486 33.7385C27.7982 34.0949 25.7787 35.6393 25.1847 36.4708C26.4915 37.3024 25.7787 41.2227 22.096 40.7475C21.1456 40.6287 20.7892 39.7971 20.1953 39.4407C20.0765 39.4407 19.9577 39.5595 19.8389 39.5595C19.3637 39.3219 18.7697 39.4407 18.5321 39.9159C19.6013 40.1535 20.1953 40.6287 20.6704 41.2227V41.3415C20.6704 41.3415 19.6013 40.7475 18.8885 40.7475Z" fill="white"/>
<path d="M35.9958 36.233C35.877 36.1142 35.877 35.8766 35.877 35.7578C35.6394 35.639 35.0454 35.639 34.9266 35.639C35.0454 35.4014 35.5206 35.2826 35.877 35.2826C35.877 35.045 35.877 34.9262 35.877 34.6886C35.6394 34.5698 35.1642 34.5698 35.0454 34.5698C35.1642 34.3322 35.6394 34.2134 35.9958 34.2134C35.9958 33.9758 36.1146 33.857 36.1146 33.7382C36.2334 33.7382 36.3522 33.7382 36.3522 33.7382C36.7086 33.7382 37.1838 33.7382 37.5401 33.6194C38.7281 33.1443 39.5597 32.0751 39.5597 30.7683C39.5597 29.4616 38.6093 28.3924 37.7777 27.6796L37.1838 28.1548C38.0153 28.7488 38.7281 29.6992 38.7281 30.7683C38.7281 31.5999 38.1341 32.4315 37.1838 32.7879C36.471 33.0255 35.5206 33.0255 34.8078 32.4315C33.1447 30.8871 30.1748 28.036 29.9372 27.7984C28.274 29.1052 26.2545 29.4616 24.1162 28.3924C22.8094 30.2932 20.1959 31.2435 18.8891 31.3623C17.4636 31.4811 16.2756 30.6495 15.8004 29.4616C15.6816 29.4616 15.5628 29.4616 15.3252 29.5804C14.9688 29.3428 14.3749 29.224 13.8997 29.5804C14.85 29.9368 15.3252 30.6495 15.6816 31.3623V31.4811C15.0876 31.0059 14.4937 30.7683 13.8997 30.5307C13.7809 30.6495 13.6621 30.6495 13.5433 30.7683C13.0681 30.7683 12.5929 31.1247 12.4741 31.5999C14.0185 31.3623 15.2064 31.9563 15.5628 32.1939V32.3127C15.2064 32.3127 14.4937 32.3127 13.8997 32.5503C13.8997 32.6691 13.7809 32.7879 13.8997 33.0255C13.5433 33.3819 13.4245 33.9758 13.6621 34.5698C14.7313 32.7879 17.226 32.9067 16.9884 34.0946C16.8696 34.3322 16.632 34.5698 16.2756 34.6886C16.8696 35.1638 18.0576 34.5698 18.7703 33.3819C19.3643 32.4315 21.6214 32.0751 22.453 33.2631C22.6906 33.2631 22.9282 33.1443 23.1658 33.0255C23.047 32.7879 22.8094 32.1939 22.453 31.9563C23.047 31.9563 23.5222 32.4315 23.7598 32.6691C23.8786 32.5503 23.9974 32.5503 24.235 32.4315C24.235 32.1939 23.8786 31.7187 23.641 31.4811C23.9974 31.4811 24.4726 31.8375 24.7101 31.9563C24.8289 31.8375 25.0665 31.5999 25.0665 31.4811C27.3237 33.5006 30.1748 32.7879 32.6695 33.6194C32.4319 35.1638 32.7883 37.8961 34.0951 38.9653C36.3522 37.8961 37.7777 40.3908 37.3026 42.4104C37.065 43.1231 36.2334 43.3607 34.9266 42.8856C34.8078 43.0044 34.689 43.242 34.5702 43.4795C34.2138 43.7171 33.8575 44.1923 33.9762 44.7863C34.5702 44.3111 35.4018 44.0735 36.3522 44.1923V44.3111C36.3522 44.3111 34.9266 44.6675 34.5702 45.1427C34.5702 45.2615 34.5702 45.3803 34.689 45.4991C34.5702 45.9743 34.689 46.4495 35.1642 46.8058C35.283 45.2615 36.7086 44.9051 36.7086 44.9051C36.7086 44.9051 36.7086 44.9051 36.8274 45.0239C36.471 45.2615 36.2334 45.8555 36.2334 46.3306C36.2334 46.4494 36.3522 46.4495 36.471 46.4495C36.471 46.9246 36.8274 47.3998 37.4214 47.5186C36.9462 46.2119 37.4214 45.4991 37.7777 45.1427C38.1341 44.7863 38.6093 44.6675 38.9657 45.0239C39.2033 45.2615 39.2033 45.6179 39.0845 46.0931C39.6785 45.8555 39.9161 45.1427 39.6785 44.6675C39.2033 43.7171 39.0845 42.648 39.0845 41.6976C38.9657 41.5788 38.6093 41.5788 38.3717 41.5788C38.4905 41.3412 38.9657 41.2224 39.2033 41.2224C39.2033 40.9848 39.3221 40.7472 39.3221 40.5096C39.2033 40.3908 38.7281 40.272 38.4905 40.1532C38.6093 39.9156 39.2033 39.9157 39.4409 39.9157C39.5597 39.6781 39.5597 39.4405 39.6785 39.3217C39.5597 39.2029 39.2033 38.9653 38.9657 38.9653C39.2033 38.8465 39.6785 38.8465 39.9161 38.8465C40.0349 38.7277 40.1537 38.6089 40.1537 38.4901C39.0845 37.7773 36.9462 36.4706 35.9958 36.233Z" fill="white"/>
<path d="M25.541 19.7202C25.541 19.6014 25.6598 19.6014 25.7786 19.6014L26.6102 19.839L26.729 19.9578V20.0766L26.0162 20.3142C25.8974 20.3142 25.7786 20.3141 25.7786 20.1953V20.0766C25.7786 19.9578 25.6598 19.839 25.6598 19.839L25.541 19.7202ZM24.947 19.6014C24.8282 19.839 24.353 20.5517 24.2343 20.9081C24.2343 21.0269 24.2343 21.1457 24.2343 21.1457L24.4718 21.3833H24.5906C24.7094 21.2645 25.0658 21.1457 25.1846 21.1457C25.1846 21.1457 25.3034 21.3833 25.3034 21.5021C25.1846 21.6209 24.8282 21.7397 24.7094 21.8585C24.7094 22.0961 24.7094 22.2149 24.8282 22.4525C25.3034 22.4525 25.4222 22.5713 25.4222 23.0465H25.7786C25.8974 22.4525 26.135 22.0961 26.729 22.0961C27.323 22.0961 27.9169 22.6901 27.9169 23.7592C27.9169 25.066 27.5606 25.66 26.729 25.66C26.135 25.66 25.8974 25.1848 25.7786 24.5908C25.6598 24.5908 25.541 24.5908 25.541 24.5908C24.7094 25.066 24.2343 26.7292 23.5215 26.8479C23.6403 26.9667 23.6403 27.0855 23.7591 27.2043C23.8779 27.3231 23.9967 27.3231 24.1155 27.3231C24.3531 27.2043 24.8282 26.9667 24.947 26.7291C24.947 27.0855 24.7094 27.4419 24.4718 27.7983C24.5906 27.9171 24.7094 27.9171 24.8282 28.0359C24.947 28.0359 25.0658 28.0359 25.1846 27.9171C25.4222 27.6795 25.6598 27.3231 25.7786 27.0855C25.7786 27.4419 25.7786 27.9171 25.6598 28.2735C25.7786 28.2735 25.8974 28.2735 26.0162 28.3923C26.2538 28.3923 26.3726 28.2735 26.4914 28.1547C26.6102 27.9171 26.729 27.5607 26.729 27.2043C26.8478 27.5607 26.9666 27.9171 26.9666 28.3923C27.0854 28.3923 27.2042 28.3923 27.323 28.3923C27.5606 28.3923 27.6794 28.1547 27.6794 27.9171C27.6794 27.5607 27.6794 27.2043 27.6794 26.9667C27.9169 27.3231 28.1545 27.9171 28.2733 28.1547C28.3921 28.0359 28.6297 28.0359 28.7485 27.9171C28.9861 27.7983 28.9861 27.5607 28.8673 27.3231C28.7485 27.0855 28.6297 26.7291 28.5109 26.3728C28.7485 26.6103 28.9861 26.8479 29.3425 26.9667C29.4613 27.0855 29.6989 26.9667 29.8177 26.8479C29.9365 26.7292 30.0553 26.6104 30.0553 26.4916C29.8177 26.254 29.3425 25.66 29.2237 25.3036C29.3425 25.4224 29.8177 25.66 30.0553 25.8976C30.1741 26.0164 30.4117 25.8976 30.4117 25.7788C30.5305 25.66 30.5305 25.4224 30.5305 25.3036C30.1741 25.066 29.6989 24.7096 29.4613 24.472C29.5801 24.5908 29.9365 24.7096 30.1741 24.7096C30.4117 24.7096 30.5305 24.5908 30.5305 24.472C30.5305 24.3532 30.5305 24.2344 30.5305 24.1156C30.1741 23.9968 29.6989 23.7592 29.4613 23.5216C29.6989 23.6404 30.1741 23.6405 30.4117 23.6405C30.4117 23.5217 30.2929 23.4029 30.2929 23.2841C29.9365 23.1653 29.6989 22.9277 29.4613 22.6901C29.6989 22.8089 29.9365 22.8089 30.0553 22.8089L29.8177 22.2149C29.4613 21.9773 29.2237 21.2645 29.4613 20.7893C29.4613 20.7893 29.1049 20.5517 28.8673 20.4329C28.7485 20.4329 28.7485 20.1953 28.7485 20.1953C28.8673 19.839 28.9861 19.3638 28.0357 19.839C27.9169 19.839 27.6793 19.9578 27.5606 19.839C26.4914 19.3638 25.4222 18.7698 25.3034 18.651C24.947 18.8886 24.7094 19.1262 24.5906 19.4826C24.8282 19.3638 24.947 19.4826 24.947 19.6014Z" fill="white"/>
<path d="M19.3633 48.35L19.8385 47.5184L19.9573 47.2808L20.67 45.9741L21.5016 44.5485C21.6204 44.4297 21.6204 44.1921 21.5016 44.0733C21.3828 43.9545 21.264 43.7169 21.1452 43.7169C20.7888 43.5981 20.5512 43.8357 20.4324 44.1921C20.4324 44.4297 20.5512 44.7861 20.7888 44.9049L20.3136 45.7365C20.1948 45.8553 20.0761 45.8553 19.9573 45.8553C19.4821 45.6177 17.4625 44.6673 16.3934 44.3109C16.2746 44.4297 16.1558 44.9049 16.1558 45.0237C17.4625 45.6177 18.8881 46.4493 19.3633 46.9244C19.4821 47.0432 19.4821 47.162 19.3633 47.2808L18.5317 48.8252C18.4129 48.944 18.4129 49.0628 18.4129 49.1816C18.4129 49.538 18.7693 49.7756 19.1257 49.6568C19.3633 49.6568 19.4821 49.538 19.6009 49.3004C19.9573 48.8252 19.7197 48.4688 19.3633 48.35Z" fill="white"/>
<path d="M33.7388 46.4492C32.432 47.3996 30.0561 48.1124 28.3929 48.1124C25.0666 48.1124 22.3343 46.8056 21.2652 46.3304C21.2652 46.3304 21.1464 46.8056 21.384 47.2808C20.79 47.2808 20.4336 47.6372 20.4336 47.6372C22.6907 49.1816 25.3042 50.2507 28.5117 50.2507C31.7192 50.2507 33.9764 49.3004 35.7583 47.8748C34.6891 47.6372 34.0952 47.162 33.7388 46.4492Z" fill="white"/>
</svg>
