<svg width="78" height="60" viewBox="0 0 78 60" fill="none" xmlns="http://www.w3.org/2000/svg">
<path opacity="0.1" d="M59.7324 4.24023L33.3426 34.4237H5.02271V4.24023H59.7324Z" fill="#DADAF8"/>
<path fill-rule="evenodd" clip-rule="evenodd" d="M0.790649 0.479955C0.790649 0.219468 1.00182 0.00830078 1.2623 0.00830078H76.7376C76.9981 0.00830078 77.2093 0.219468 77.2093 0.479955V38.2176C77.2093 38.4781 76.9981 38.6893 76.7376 38.6893H1.2623C1.00182 38.6893 0.790649 38.4781 0.790649 38.2176V0.479955ZM1.73396 0.95161V37.746H76.266V0.95161H1.73396Z" fill="#DADAF8"/>
<path fill-rule="evenodd" clip-rule="evenodd" d="M31.0808 37.919C31.1703 37.8096 31.3043 37.7461 31.4457 37.7461H46.5541C46.687 37.7461 46.8138 37.8022 46.9032 37.9006L65.7388 58.633C65.9139 58.8258 65.8996 59.1241 65.7068 59.2992C65.514 59.4744 65.2157 59.4601 65.0406 59.2673L46.3454 38.6894H31.6691L14.8387 59.2489C14.6737 59.4505 14.3765 59.4801 14.175 59.3151C13.9734 59.1501 13.9438 58.8529 14.1088 58.6514L31.0808 37.919Z" fill="#DADAF8"/>
<path fill-rule="evenodd" clip-rule="evenodd" d="M39 37.7461C39.2605 37.7461 39.4716 37.9573 39.4716 38.2177V55.1897C39.4716 55.4502 39.2605 55.6614 39 55.6614C38.7395 55.6614 38.5283 55.4502 38.5283 55.1897V38.2177C38.5283 37.9573 38.7395 37.7461 39 37.7461Z" fill="#DADAF8"/>
<path fill-rule="evenodd" clip-rule="evenodd" d="M4.55103 4.24021C4.55103 3.97972 4.76219 3.76855 5.02268 3.76855H72.9439C73.2044 3.76855 73.4156 3.97972 73.4156 4.24021V34.4237C73.4156 34.6842 73.2044 34.8954 72.9439 34.8954H5.02268C4.76219 34.8954 4.55103 34.6842 4.55103 34.4237V4.24021ZM5.49433 4.71186V33.9521H72.4722V4.71186H5.49433Z" fill="#DADAF8"/>
<path opacity="0.4" fill-rule="evenodd" clip-rule="evenodd" d="M57.8688 17.9134H42.7604V13.1968H57.8688V17.9134Z" fill="#DADAF8"/>
<path opacity="0.4" fill-rule="evenodd" clip-rule="evenodd" d="M57.8688 25.4676H42.7604V20.751H57.8688V25.4676Z" fill="#DADAF8"/>
<path opacity="0.4" fill-rule="evenodd" clip-rule="evenodd" d="M26.7203 16.0828C24.3954 16.0828 22.4894 17.9888 22.4894 20.3137C22.4894 22.6463 24.3699 24.5445 26.7203 24.5445V29.2611C21.7494 29.2611 17.7728 25.2357 17.7728 20.3137C17.7728 15.3839 21.7905 11.3662 26.7203 11.3662C31.6911 11.3662 35.6677 15.3916 35.6677 20.3137H30.9511C30.9511 17.981 29.0707 16.0828 26.7203 16.0828Z" fill="#DADAF8"/>
<path opacity="0.4" fill-rule="evenodd" clip-rule="evenodd" d="M30.9511 20.2804C30.9511 17.9478 29.0707 16.0496 26.7203 16.0496V11.333C31.6911 11.333 35.6677 15.3584 35.6677 20.2804C35.6677 25.2513 31.6423 29.2278 26.7203 29.2278C21.7495 29.2278 17.7728 25.2025 17.7728 20.2804H22.4894C22.4894 22.6131 24.3698 24.5112 26.7203 24.5112C29.0529 24.5112 30.9511 22.6309 30.9511 20.2804Z" fill="#DADAF8"/>
</svg>
