<svg width="48" height="48" viewBox="0 0 48 48" fill="none" xmlns="http://www.w3.org/2000/svg">
<rect x="4" y="4" width="40" height="40" rx="10" fill="#F1F3F5"/>
<path d="M27.5342 26.1225H26.7907L26.5272 25.8684C27.4495 24.7954 28.0048 23.4025 28.0048 21.8872C28.0048 18.5084 25.266 15.7695 21.8872 15.7695C18.5084 15.7695 15.7695 18.5084 15.7695 21.8872C15.7695 25.266 18.5084 28.0048 21.8872 28.0048C23.4025 28.0048 24.7954 27.4495 25.8684 26.5272L26.1225 26.7907V27.5342L30.8284 32.2307L32.2307 30.8284L27.5342 26.1225ZM21.8872 26.1225C19.5436 26.1225 17.6519 24.2307 17.6519 21.8872C17.6519 19.5436 19.5436 17.6519 21.8872 17.6519C24.2307 17.6519 26.1225 19.5436 26.1225 21.8872C26.1225 24.2307 24.2307 26.1225 21.8872 26.1225Z" fill="#231D2C"/>
</svg>
