<svg width="79" height="57" viewBox="0 0 79 57" fill="none" xmlns="http://www.w3.org/2000/svg">
<path opacity="0.4" fill-rule="evenodd" clip-rule="evenodd" d="M11.6907 4.80108C8.30093 4.80108 5.56305 7.53897 5.56305 10.9288C5.56305 14.3186 8.30093 17.0564 11.6907 17.0564V21.7731C5.69602 21.7731 0.846436 16.9235 0.846436 10.9288C0.846436 4.93406 5.69602 0.0844727 11.6907 0.0844727C17.6854 0.0844727 22.535 4.93406 22.535 10.9288H17.8184C17.8184 7.53897 15.0805 4.80108 11.6907 4.80108Z" fill="#DADAF8"/>
<path opacity="0.1" fill-rule="evenodd" clip-rule="evenodd" d="M11.6908 9.51502C10.9082 9.51502 10.2771 10.1461 10.2771 10.9287C10.2771 11.7113 10.9082 12.3424 11.6908 12.3424V15.1723C9.34523 15.1723 7.44714 13.2743 7.44714 10.9287C7.44714 8.58315 9.34523 6.68506 11.6908 6.68506C14.0363 6.68506 15.9344 8.58315 15.9344 10.9287H13.1045C13.1045 10.1461 12.4734 9.51502 11.6908 9.51502Z" fill="#DADAF8"/>
<path fill-rule="evenodd" clip-rule="evenodd" d="M22.1677 10.9287C22.1677 10.6682 22.3789 10.457 22.6394 10.457H61.1757C64.3467 10.457 66.8721 13.1131 66.8721 16.3198V39.4815C66.8721 42.7235 64.3448 45.3443 61.1757 45.3443H16.9155C13.7445 45.3443 11.2191 42.6883 11.2191 39.4815V22.2433C11.2191 21.9828 11.4303 21.7717 11.6908 21.7717C11.9513 21.7717 12.1624 21.9828 12.1624 22.2433V39.4815C12.1624 42.1984 14.296 44.401 16.9155 44.401H61.1757C63.7971 44.401 65.9288 42.2297 65.9288 39.4815V16.3198C65.9288 13.603 63.7952 11.4003 61.1757 11.4003H22.6394C22.3789 11.4003 22.1677 11.1892 22.1677 10.9287Z" fill="#DADAF8"/>
<path fill-rule="evenodd" clip-rule="evenodd" d="M31.9515 22.2436C31.9515 21.9831 32.1627 21.772 32.4232 21.772H72.2907C75.5481 21.772 78.1535 24.4144 78.1535 27.6347V50.7965C78.1535 54.0539 75.5111 56.6592 72.2907 56.6592H26.5329C23.2755 56.6592 20.6702 54.0168 20.6702 50.7965V33.5583C20.6702 33.2978 20.8813 33.0866 21.1418 33.0866C21.4023 33.0866 21.6135 33.2978 21.6135 33.5583V50.7965C21.6135 53.4997 23.8002 55.7159 26.5329 55.7159H72.2907C74.9939 55.7159 77.2101 53.5291 77.2101 50.7965V27.6347C77.2101 24.9315 75.0234 22.7153 72.2907 22.7153H32.4232C32.1627 22.7153 31.9515 22.5041 31.9515 22.2436Z" fill="#DADAF8"/>
<path fill-rule="evenodd" clip-rule="evenodd" d="M11.3573 10.5952C11.5415 10.411 11.8401 10.411 12.0243 10.5952L36.5505 35.1213C36.7346 35.3055 36.7346 35.6042 36.5505 35.7884C36.3663 35.9726 36.0676 35.9726 35.8834 35.7884L11.3573 11.2622C11.1731 11.078 11.1731 10.7794 11.3573 10.5952Z" fill="#DADAF8"/>
<path fill-rule="evenodd" clip-rule="evenodd" d="M36.2169 27.4292C36.4774 27.4292 36.6885 27.6404 36.6885 27.9009V35.455C36.6885 35.7155 36.4774 35.9267 36.2169 35.9267H28.6627C28.4022 35.9267 28.191 35.7155 28.191 35.455C28.191 35.1946 28.4022 34.9834 28.6627 34.9834H35.7452V27.9009C35.7452 27.6404 35.9564 27.4292 36.2169 27.4292Z" fill="#DADAF8"/>
<path opacity="0.4" fill-rule="evenodd" clip-rule="evenodd" d="M39.9774 31.1997H77.7151V35.9163H39.9774V31.1997Z" fill="#DADAF8"/>
</svg>
