<?xml version="1.0" encoding="utf-8"?>
<!-- Generator: Adobe Illustrator 25.0.1, SVG Export Plug-In . SVG Version: 6.00 Build 0)  -->
<svg width="100" version="1.1" id="Layer_1" xmlns="http://www.w3.org/2000/svg" xmlns:xlink="http://www.w3.org/1999/xlink" x="0px" y="0px"
	 viewBox="0 0 509 221" style="enable-background:new 0 0 509 221;" xml:space="preserve">
<style type="text/css">
	.st0{fill:#FFFFFF;}
	.st1{fill:#F6DE00;}
	.st2{fill:#EE0C3D;}
	.st3{fill:#2E4DF9;}
</style>
<path d="M227.6826782,49.9539452h-12.546875v-9.6904297h36.9130859v9.6904297h-12.546875V80.369957h-11.8193359V49.9539452z"/>
<path d="M258.4143066,40.2635155h11.8193359v14.7880859h13.7236328V40.2635155h11.8193359V80.369957h-11.8193359V64.2937851
	h-13.7236328V80.369957h-11.8193359V40.2635155z"/>
<path d="M303.2494812,40.2635155h30.8652344v9.2978516h-19.4375v6.7216797h18.3730469v7.6748047h-18.3730469v7.1132774h19.9970703
	v9.2988281h-31.4248047V40.2635155z"/>
<path d="M218.767746,141.1912537h30.6962891v10.0820312h-18.8769531v6.7216797h16.3007812v8.8505859h-16.3007812v14.4521484
	H218.767746V141.1912537z"/>
<path d="M256.9663696,164.828949v-23.6376953h11.8193359v23.2460938c0,4.8730469,2.7441406,8.0097656,7.0009766,8.0097656
	c4.2011719,0,7.0019531-3.1923828,7.0019531-8.0097656v-23.2460938h11.8193359v23.6376953
	c0,10.5869141-7.6181641,17.3085938-18.8212891,17.3085938C264.5845337,182.1375427,256.9663696,175.415863,256.9663696,164.828949z
	"/>
<path d="M302.6556396,141.1912537h12.6601562l13.1630859,24.8701172h0.5605469v-24.8701172h11.0351562v40.1064453h-12.6601562
	l-13.1630859-24.8144531h-0.5605469v24.8144531h-11.0351562V141.1912537z"/>
<path d="M348.24646,141.1912537h16.3564453c13.7802734,0,22.9667969,8.0097656,22.9667969,20.0527344
	c0,12.0439453-9.1865234,20.0537109-22.9667969,20.0537109H348.24646V141.1912537z M364.6029053,172.391449
	c6.7226562,0,11.1474609-4.3691406,11.1474609-11.1474609c0-6.7773438-4.4248047-11.1464844-11.1474609-11.1464844h-4.9287109
	v22.2939453H364.6029053z"/>
<path d="M214.1990814,110.7807388c0-12.4345703,9.4667969-20.8369141,22.5185547-20.8369141
	c9.4667969,0,17.5322266,5.3212891,19.3808441,12.7148438l-10.8661957,2.0732422
	c-1.0087891-2.9697266-4.59375-5.1542969-8.5703125-5.1542969c-6.1621094,0-10.6435547,4.59375-10.6435547,11.203125
	c0,6.6103516,4.6494141,11.3710938,11.0908203,11.3710938c5.0976562,0,9.2988281-3.1367188,9.6347656-7.3935547
	l-13.6113281-0.0556641v-6.9462891h24.9267426c1.4560547,14.2275391-7.5624847,24.0859299-21.3417816,24.0859299
	C223.6658783,131.8422546,214.1990814,123.2162857,214.1990814,110.7807388z"/>
<path d="M264.8766174,90.7280045h11.8193359v30.0234375h17.3085938v10.0830002h-29.1279297V90.7280045z"/>
<path d="M298.3545532,110.7807388c0-12.7714844,9.0751953-20.8369141,22.5185547-20.8369141
	c13.3876953,0,22.4619141,8.0654297,22.4619141,20.8369141s-9.0742188,20.8935471-22.4619141,20.8935471
	C307.4297485,131.6742859,298.3545532,123.5522232,298.3545532,110.7807388z M331.515686,110.7807388
	c0-6.7216797-4.3125-11.203125-10.6425781-11.203125s-10.6992188,4.4814453-10.6992188,11.203125
	c0,6.7783203,4.3691406,11.203125,10.6992188,11.203125S331.515686,117.5590591,331.515686,110.7807388z"/>
<path d="M349.699585,90.7280045h20.5576172c9.4667969,0,15.0683594,4.3691406,15.0683594,11.0908203
	c0,4.1445312-2.5761719,7.1699219-5.8251953,8.2900391v0.5605469c3.9765625,1.0634766,6.9453125,4.5927734,6.9453125,9.3544922
	c0,6.8896484-5.7695312,10.8105392-15.1240234,10.8105392H349.699585V90.7280045z M367.9613037,106.8041763
	c3.0244141,0,5.1533203-1.5683594,5.1533203-3.8095703c0-2.2402344-2.1289062-3.7529297-5.1533203-3.7529297h-6.4423828v7.5625
	H367.9613037z M368.7454834,122.3198013c3.1367188,0,5.4892578-1.7363281,5.4892578-4.1445312
	c0-2.3525391-2.3525391-4.0888672-5.4892578-4.0888672h-7.2265625v8.2333984H368.7454834z"/>
<path d="M402.6115723,90.7280045h17.3652344l12.546875,40.1064377h-12.1552734l-1.9042969-6.1054611h-14.3955078
	l-1.9042969,6.1054611h-12.1552734L402.6115723,90.7280045z M416.1672363,116.3266373l-4.5927734-15.5722656h-0.5605469
	l-4.5927734,15.5722656H416.1672363z"/>
<path d="M439.2223206,90.7280045h11.8193359v30.0234375h17.3085938v10.0830002h-29.1279297V90.7280045z"/>
<path class="st1" d="M187.5961914,99.6065826c-0.0164948,0.2164001,0.0020752,0.4395676,0.0423279,0.6523819
	c0.0411377,0.2175674,0.1099243,0.4295578,0.2029724,0.6304321c0.0904846,0.195343,0.2149811,0.3664093,0.3391571,0.5439606
	c0.4593811,0.5573883,1.1339264,0.9054184,1.8434753,0.9547119c0.3600006,0.027832,0.7168884-0.0180969,1.058548-0.1352921
	c0.8559875-0.2937622,1.494812-1.0349274,1.6959381-1.9424362c0.0055847-0.0245056,0.0183563-0.0453415,0.0232391-0.0700836
	c0,0,0.0750427-0.4344788,0.1010742-0.573967c0.1123047-0.6033478,0.331543-1.9570084,0.3418427-2.0289993
	c0.8781128-6.0220413,0.6815186-12.1174393-0.5354309-18.0182114c-0.0318146-0.1537399-0.2401428-1.081955-0.3132935-1.3922501
	c-1.1247406-4.6883621-2.9229279-9.2970428-5.4564056-13.6851501c-9.8839111-17.1194382-28.155304-26.3650589-46.6314697-25.5727692
	c-15.7424088,0.4110832-30.8301239,8.0772209-40.3362045,21.3027267c-1.3086472,1.9096222-2.4086227,3.8255005-2.8338394,6.1286697
	c-0.5869141,3.1660538-0.0375824,6.3977814,1.595993,9.2272186c1.7705078,3.0666122,4.6214905,5.2917709,8.0267639,6.2660522
	c5.5133514,1.5757751,11.514473-0.4577179,14.6200714-4.9507294c0,0,1.1224442-1.584671,1.2671585-1.7759247
	c6.0691147-8.0495071,15.1633224-13.0674057,24.8541489-14.2843552c13.8341217-1.5376167,27.9242401,5.041008,35.3414459,17.8879852
	C186.6324921,85.3329239,188.1311798,92.5859451,187.5961914,99.6065826z"/>
<path class="st2" d="M76.4481812,41.880619c0.1956482-0.0939178,0.379631-0.2215843,0.5438156-0.3628464
	c0.1678467-0.144413,0.3170395-0.3099823,0.4444809-0.4909973c0.1239319-0.1760292,0.2098312-0.369381,0.301506-0.5657043
	c0.2530212-0.6765289,0.2171555-1.4347153-0.0949326-2.0738487c-0.155899-0.3256798-0.3741074-0.6117897-0.6464386-0.8490829
	c-0.6824036-0.5944214-1.6436844-0.7770844-2.5301666-0.497509c-0.0240173,0.0074196-0.0484543,0.0067711-0.072319,0.0149117
	c0,0-0.4137878,0.1522484-0.5476074,0.1994514c-0.5786667,0.2044258-1.8605881,0.6913872-1.9280853,0.7184525
	c-5.6542969,2.2505569-10.8347702,5.4685211-15.3365173,9.4728088c-0.1172333,0.1044197-0.8169289,0.7489433-1.0490761,0.9674377
	c-3.4978638,3.3182487-6.5900078,7.1798553-9.1234856,11.5679665c-9.8839111,17.1194382-8.7551537,37.5657425,1.1690712,53.1704254
	c8.227211,13.4277878,22.4101372,22.6610565,38.6168098,24.2808075c2.3080978,0.1785126,4.5172882,0.1731873,6.7244949-0.6101532
	c3.0353394-1.0747375,5.5594406-3.1663361,7.1930161-5.9957733c1.7705078-3.0666122,2.2720642-6.6482162,1.4131775-10.0844116
	c-1.3920212-5.5625916-6.1536331-9.7429657-11.597496-10.185997c0,0-1.9335861-0.179718-2.1715698-0.2094193
	c-10.0056381-1.2312546-18.8983688-6.5981216-24.7976952-14.3821487
	c-8.2486763-11.2118988-9.5964813-26.7036057-2.1792755-39.5505791
	C64.5686798,49.8520355,70.1006317,44.9276276,76.4481812,41.880619z"/>
<path class="st3" d="M82.0418243,166.9993591c-0.1791611-0.1224823-0.3817139-0.2179718-0.5861435-0.2895355
	c-0.2089844-0.0731506-0.4269714-0.1195679-0.6474533-0.1394348c-0.2144089-0.0193176-0.4248047,0.0029755-0.6406708,0.0217438
	c-0.7124023,0.1191406-1.3510742,0.5292969-1.7485352,1.1191406c-0.2041016,0.2978516-0.3427734,0.6298828-0.4121094,0.984375
	c-0.173584,0.8881836,0.1488647,1.8120117,0.8342285,2.4399414c0.0184326,0.0170898,0.0300903,0.0385742,0.0490723,0.0551758
	c0,0,0.3387451,0.2822266,0.4465332,0.3745117c0.4663696,0.3989258,1.5290527,1.265625,1.5862427,1.3105469
	c4.7761841,3.7714844,10.1532593,6.6489258,15.8719482,8.5454102c0.1490479,0.0493164,1.0570679,0.3330078,1.3623657,0.4248047
	c4.6226196,1.3701172,9.5129395,2.1171875,14.579895,2.1171875c19.7678223,0,36.9104614-11.2006836,45.4624023-27.5976562
	c7.5151978-13.8388672,8.4199829-30.7382812,1.7194061-45.5835419c-0.9994659-2.0881271-2.1086731-3.9986801-3.8906708-5.5185089
	c-2.4484253-2.0913086-5.5218506-3.2314453-8.7890015-3.2314453c-3.5410156,0-6.8935547,1.3564453-9.4399414,3.8183594
	c-4.1213379,3.9868164-5.3608398,10.2006836-3.022583,15.1367188c0,0,0.811142,1.7643967,0.9044189,1.9853516
	c3.9365234,9.2807617,3.7350464,19.6655273-0.0564575,28.6665039
	c-5.5854492,12.7495117-18.3277588,21.6625977-33.1621704,21.6625977
	C94.885025,173.3016052,87.8543854,170.9729919,82.0418243,166.9993591z"/>
</svg>
