<svg width="78" height="51" viewBox="0 0 78 51" fill="none" xmlns="http://www.w3.org/2000/svg">
<path opacity="0.1" fill-rule="evenodd" clip-rule="evenodd" d="M11.0628 35.2059C8.94909 35.2059 7.25312 36.9019 7.25312 39.0157C7.25312 41.1236 8.97649 42.8254 11.0628 42.8254H61.6454C61.6458 42.8254 61.646 42.8254 61.646 44.2404C61.646 45.6554 61.6458 45.6554 61.6454 45.6554H11.0628C7.42528 45.6554 4.42316 42.6982 4.42316 39.0157C4.42316 35.339 7.38612 32.376 11.0628 32.376C14.7395 32.376 17.7025 35.339 17.7025 39.0157H14.8725C14.8725 36.9019 13.1766 35.2059 11.0628 35.2059Z" fill="#DADAF8"/>
<path opacity="0.1" fill-rule="evenodd" clip-rule="evenodd" d="M61.6127 26.8197C57.1995 26.8197 53.6099 30.3825 53.6099 34.8225H50.7799C50.7799 28.8131 55.643 23.9897 61.6127 23.9897C67.5856 23.9897 72.4454 28.8496 72.4454 34.8225C72.4454 40.832 67.5823 45.6553 61.6127 45.6553V42.8253C66.0259 42.8253 69.6155 39.2625 69.6155 34.8225C69.6155 30.4126 66.0226 26.8197 61.6127 26.8197Z" fill="#DADAF8"/>
<path opacity="0.1" fill-rule="evenodd" clip-rule="evenodd" d="M35.2229 21.1293C32.8762 21.1293 30.9806 23.0249 30.9806 25.3716C30.9806 27.7183 32.8762 29.614 35.2229 29.614C37.5696 29.614 39.4653 27.7183 39.4653 25.3716H42.2952C42.2952 29.2813 39.1326 32.4439 35.2229 32.4439C31.3133 32.4439 28.1506 29.2813 28.1506 25.3716C28.1506 21.462 31.3133 18.2993 35.2229 18.2993V21.1293Z" fill="#DADAF8"/>
<path fill-rule="evenodd" clip-rule="evenodd" d="M61.6127 20.1855C53.5536 20.1855 46.9759 26.7631 46.9759 34.8222C46.9759 35.0827 46.7648 35.2939 46.5043 35.2939C46.2438 35.2939 46.0326 35.0827 46.0326 34.8222C46.0326 26.2422 53.0326 19.2422 61.6127 19.2422C70.1928 19.2422 77.1927 26.2422 77.1927 34.8222C77.1927 43.403 70.2254 50.369 61.6127 50.369H35.6563C35.6562 50.369 35.6555 50.369 35.6555 49.8973C35.6555 49.4257 35.6556 49.4257 35.6557 49.4257H61.6127C69.7057 49.4257 76.2494 42.8807 76.2494 34.8222C76.2494 26.7631 69.6718 20.1855 61.6127 20.1855ZM35.6555 49.8973C35.6555 49.4257 35.6556 49.4257 35.6557 49.4257H12.0612C6.45509 49.4257 1.75062 44.8685 1.75062 39.2815C1.75062 33.685 6.06534 29.3703 11.6618 29.3703C15.6959 29.3703 18.1556 31.5381 19.6297 34.0268C21.1174 36.5385 21.573 39.3408 21.573 40.4462C21.573 40.7067 21.7842 40.9179 22.0447 40.9179C22.3052 40.9179 22.5163 40.7067 22.5163 40.4462C22.5163 39.1889 22.0236 36.2174 20.4413 33.5461C18.8455 30.8517 16.1137 28.427 11.6618 28.427C5.54437 28.427 0.807312 33.164 0.807312 39.2815C0.807312 45.4085 5.95326 50.369 12.0612 50.369H35.6547C35.6549 50.369 35.6555 50.369 35.6555 49.8973Z" fill="#DADAF8"/>
<path fill-rule="evenodd" clip-rule="evenodd" d="M36.3211 1.31684C23.4846 1.31684 13.0653 12.0726 13.0653 25.3714C13.0653 25.6319 12.8541 25.843 12.5936 25.843C12.3331 25.843 12.1219 25.6319 12.1219 25.3714C12.1219 11.5815 22.9342 0.373535 36.3211 0.373535C46.0721 0.373535 54.4859 6.35313 58.3164 14.9632C58.4223 15.2012 58.3152 15.4799 58.0772 15.5858C57.8392 15.6917 57.5604 15.5846 57.4545 15.3466C53.7641 7.05124 45.6719 1.31684 36.3211 1.31684Z" fill="#DADAF8"/>
<g opacity="0.4">
<g opacity="0.4">
<path opacity="0.4" fill-rule="evenodd" clip-rule="evenodd" d="M36.9201 12.6546C28.959 12.6546 22.4728 19.165 22.4728 27.2683H17.7562C17.7562 16.6025 26.3118 7.93799 36.9201 7.93799C44.6799 7.93799 51.3141 12.5809 54.3397 19.1995L50.0501 21.1605C47.7512 16.1316 42.7379 12.6546 36.9201 12.6546Z" fill="#DADAF8"/>
</g>
</g>
<path opacity="0.4" fill-rule="evenodd" clip-rule="evenodd" d="M61.646 40.9412H25.7719V36.2246H61.646V40.9412Z" fill="#DADAF8"/>
</svg>
