<svg width="66" height="55" viewBox="0 0 66 55" fill="none" xmlns="http://www.w3.org/2000/svg">
<path opacity="0.1" d="M36.7605 10.7378L29.2063 20.1556H0.919678V10.7378H36.7605Z" fill="#DADAF8"/>
<path opacity="0.1" d="M12.2343 31.4702L8.44058 39.0244H0.919678V31.4702H12.2343Z" fill="#DADAF8"/>
<path opacity="0.1" d="M34.8636 31.4702L31.1032 39.0244H23.549V31.4702H34.8636Z" fill="#DADAF8"/>
<path opacity="0.1" d="M57.4929 31.4702L53.7324 39.0244H46.1782V31.4702H57.4929Z" fill="#DADAF8"/>
<path fill-rule="evenodd" clip-rule="evenodd" d="M0.447998 10.7378C0.447998 10.4773 0.659165 10.2661 0.919653 10.2661H65.0804C65.3409 10.2661 65.552 10.4773 65.552 10.7378V20.1556C65.552 20.4161 65.3409 20.6272 65.0804 20.6272H0.919653C0.659165 20.6272 0.447998 20.4161 0.447998 20.1556V10.7378ZM1.39131 11.2094V19.6839H64.6087V11.2094H1.39131Z" fill="#DADAF8"/>
<path fill-rule="evenodd" clip-rule="evenodd" d="M23.0773 31.4702C23.0773 31.2097 23.2884 30.9985 23.5489 30.9985H42.4178C42.6783 30.9985 42.8894 31.2097 42.8894 31.4702V39.0244C42.8894 39.2849 42.6783 39.496 42.4178 39.496H23.5489C23.2884 39.496 23.0773 39.2849 23.0773 39.0244V31.4702ZM24.0206 31.9418V38.5527H41.9461V31.9418H24.0206Z" fill="#DADAF8"/>
<path fill-rule="evenodd" clip-rule="evenodd" d="M0.447998 31.4702C0.447998 31.2097 0.659165 30.9985 0.919653 30.9985H19.7885C20.049 30.9985 20.2602 31.2097 20.2602 31.4702V39.0244C20.2602 39.2849 20.049 39.496 19.7885 39.496H0.919653C0.659165 39.496 0.447998 39.2849 0.447998 39.0244V31.4702ZM1.39131 31.9418V38.5527H19.3169V31.9418H1.39131Z" fill="#DADAF8"/>
<path fill-rule="evenodd" clip-rule="evenodd" d="M45.7065 31.4702C45.7065 31.2097 45.9177 30.9985 46.1782 30.9985H65.0471C65.3076 30.9985 65.5187 31.2097 65.5187 31.4702V39.0244C65.5187 39.2849 65.3076 39.496 65.0471 39.496H46.1782C45.9177 39.496 45.7065 39.2849 45.7065 39.0244V31.4702ZM46.6499 31.9418V38.5527H64.5754V31.9418H46.6499Z" fill="#DADAF8"/>
<path fill-rule="evenodd" clip-rule="evenodd" d="M0.447998 48.4756C0.447998 48.2151 0.659165 48.0039 0.919653 48.0039H4.68013C4.94061 48.0039 5.15178 48.2151 5.15178 48.4756V54.1329C5.15178 54.3934 4.94061 54.6045 4.68013 54.6045H0.919653C0.659165 54.6045 0.447998 54.3934 0.447998 54.1329V48.4756ZM1.39131 48.9472V53.6612H4.20847V48.9472H1.39131Z" fill="#DADAF8"/>
<path fill-rule="evenodd" clip-rule="evenodd" d="M15.5231 48.4756C15.5231 48.2151 15.7342 48.0039 15.9947 48.0039H19.7552C20.0156 48.0039 20.2268 48.2151 20.2268 48.4756V54.1329C20.2268 54.3934 20.0156 54.6045 19.7552 54.6045H15.9947C15.7342 54.6045 15.5231 54.3934 15.5231 54.1329V48.4756ZM16.4664 48.9472V53.6612H19.2835V48.9472H16.4664Z" fill="#DADAF8"/>
<path fill-rule="evenodd" clip-rule="evenodd" d="M8.68282 38.6198C8.90632 38.7536 8.97905 39.0432 8.84527 39.2667L3.18794 48.7178C3.05415 48.9413 2.76451 49.014 2.54101 48.8803C2.3175 48.7465 2.24477 48.4568 2.37856 48.2333L8.03588 38.7822C8.16967 38.5587 8.45931 38.486 8.68282 38.6198Z" fill="#DADAF8"/>
<path fill-rule="evenodd" clip-rule="evenodd" d="M11.9921 38.6198C12.2156 38.486 12.5052 38.5587 12.639 38.7822L18.2963 48.2333C18.4301 48.4568 18.3574 48.7465 18.1339 48.8803C17.9104 49.014 17.6207 48.9413 17.4869 48.7178L11.8296 39.2667C11.6958 39.0432 11.7686 38.7536 11.9921 38.6198Z" fill="#DADAF8"/>
<path fill-rule="evenodd" clip-rule="evenodd" d="M23.0773 48.4756C23.0773 48.2151 23.2884 48.0039 23.5489 48.0039H27.3094C27.5699 48.0039 27.7811 48.2151 27.7811 48.4756V54.1329C27.7811 54.3934 27.5699 54.6045 27.3094 54.6045H23.5489C23.2884 54.6045 23.0773 54.3934 23.0773 54.1329V48.4756ZM24.0206 48.9472V53.6612H26.8377V48.9472H24.0206Z" fill="#DADAF8"/>
<path fill-rule="evenodd" clip-rule="evenodd" d="M38.1523 48.4756C38.1523 48.2151 38.3635 48.0039 38.624 48.0039H42.3844C42.6449 48.0039 42.8561 48.2151 42.8561 48.4756V54.1329C42.8561 54.3934 42.6449 54.6045 42.3844 54.6045H38.624C38.3635 54.6045 38.1523 54.3934 38.1523 54.1329V48.4756ZM39.0957 48.9472V53.6612H41.9128V48.9472H39.0957Z" fill="#DADAF8"/>
<path fill-rule="evenodd" clip-rule="evenodd" d="M31.3454 38.6198C31.5689 38.7536 31.6417 39.0432 31.5079 39.2667L25.8505 48.7178C25.7168 48.9413 25.4271 49.014 25.2036 48.8803C24.9801 48.7465 24.9074 48.4568 25.0412 48.2333L30.6985 38.7822C30.8323 38.5587 31.1219 38.486 31.3454 38.6198Z" fill="#DADAF8"/>
<path fill-rule="evenodd" clip-rule="evenodd" d="M34.6213 38.6198C34.8448 38.486 35.1345 38.5587 35.2683 38.7822L40.9256 48.2333C41.0594 48.4568 40.9866 48.7465 40.7631 48.8803C40.5396 49.014 40.25 48.9413 40.1162 48.7178L34.4589 39.2667C34.3251 39.0432 34.3978 38.7536 34.6213 38.6198Z" fill="#DADAF8"/>
<path fill-rule="evenodd" clip-rule="evenodd" d="M45.7065 48.4756C45.7065 48.2151 45.9177 48.0039 46.1782 48.0039H49.9387C50.1992 48.0039 50.4103 48.2151 50.4103 48.4756V54.1329C50.4103 54.3934 50.1992 54.6045 49.9387 54.6045H46.1782C45.9177 54.6045 45.7065 54.3934 45.7065 54.1329V48.4756ZM46.6499 48.9472V53.6612H49.467V48.9472H46.6499Z" fill="#DADAF8"/>
<path fill-rule="evenodd" clip-rule="evenodd" d="M60.8149 48.4756C60.8149 48.2151 61.0261 48.0039 61.2866 48.0039H65.0471C65.3076 48.0039 65.5187 48.2151 65.5187 48.4756V54.1329C65.5187 54.3934 65.3076 54.6045 65.0471 54.6045H61.2866C61.0261 54.6045 60.8149 54.3934 60.8149 54.1329V48.4756ZM61.7583 48.9472V53.6612H64.5754V48.9472H61.7583Z" fill="#DADAF8"/>
<path fill-rule="evenodd" clip-rule="evenodd" d="M53.9747 38.6198C54.1982 38.7536 54.2709 39.0432 54.1371 39.2667L48.4798 48.7178C48.346 48.9413 48.0564 49.014 47.8329 48.8803C47.6094 48.7465 47.5366 48.4568 47.6704 48.2333L53.3278 38.7822C53.4615 38.5587 53.7512 38.486 53.9747 38.6198Z" fill="#DADAF8"/>
<path fill-rule="evenodd" clip-rule="evenodd" d="M57.2507 38.6198C57.4742 38.486 57.7639 38.5587 57.8977 38.7822L63.555 48.2333C63.6888 48.4568 63.616 48.7465 63.3925 48.8803C63.169 49.014 62.8794 48.9413 62.7456 48.7178L57.0883 39.2667C56.9545 39.0432 57.0272 38.7536 57.2507 38.6198Z" fill="#DADAF8"/>
<path fill-rule="evenodd" clip-rule="evenodd" d="M32.9666 19.6836C33.2271 19.6836 33.4383 19.8948 33.4383 20.1552V31.4699C33.4383 31.7304 33.2271 31.9416 32.9666 31.9416C32.7062 31.9416 32.495 31.7304 32.495 31.4699V20.1552C32.495 19.8948 32.7062 19.6836 32.9666 19.6836Z" fill="#DADAF8"/>
<path fill-rule="evenodd" clip-rule="evenodd" d="M21.9139 19.763C22.1306 19.9077 22.1889 20.2006 22.0443 20.4172L14.4901 31.7318C14.3454 31.9485 14.0525 32.0069 13.8359 31.8622C13.6193 31.7176 13.5609 31.4247 13.7055 31.2081L21.2598 19.8934C21.4044 19.6768 21.6973 19.6184 21.9139 19.763Z" fill="#DADAF8"/>
<path fill-rule="evenodd" clip-rule="evenodd" d="M44.0194 19.763C44.236 19.6184 44.5289 19.6768 44.6735 19.8934L52.2277 31.2081C52.3724 31.4247 52.314 31.7176 52.0973 31.8622C51.8807 32.0069 51.5878 31.9485 51.4432 31.7318L43.889 20.4172C43.7444 20.2005 43.8027 19.9077 44.0194 19.763Z" fill="#DADAF8"/>
<path opacity="0.4" fill-rule="evenodd" clip-rule="evenodd" d="M42.4178 5.54181H23.549V0.825195H42.4178V5.54181Z" fill="#DADAF8"/>
</svg>
