<svg width="566" height="326" viewBox="0 0 566 326" fill="none" xmlns="http://www.w3.org/2000/svg">
<rect width="566" height="326" rx="16" fill="#FBFBFB"/>
<path d="M53.2043 73V54.4679H57.0431V73H53.2043ZM60.5357 73V58.8097H64.295V60.7158C65.1157 59.5774 66.1482 58.5449 67.9485 58.5449C70.596 58.5449 72.1315 60.3981 72.1315 63.3368V73H68.3721V64.4487C68.3721 62.7809 67.6308 61.9337 66.36 61.9337C65.1157 61.9337 64.295 62.7809 64.295 64.4487V73H60.5357ZM78.3331 73.1059L73.5412 58.8097H77.4595L80.1069 68.2346L82.7808 58.8097H86.5932L81.8277 73.1059H78.3331ZM93.9001 73.3177C90.1407 73.3177 87.255 70.4849 87.255 66.0637V65.8254C87.255 61.616 89.876 58.5449 93.45 58.5449C97.5006 58.5449 99.4862 61.8542 99.4862 66.0902C99.4862 66.302 99.4862 66.752 99.4598 67.308H90.9879C91.3056 69.1877 92.4705 70.1672 94.059 70.1672C95.2238 70.1672 96.124 69.6377 97.0241 68.7641L98.9567 71.0409C97.6595 72.4705 96.0181 73.3177 93.9001 73.3177ZM90.9614 64.8194H95.8592C95.7004 62.8603 94.8532 61.6424 93.45 61.6424C92.0734 61.6424 91.1732 62.8073 90.9614 64.8194ZM106.243 73.2647C104.575 73.2647 102.589 72.7088 100.868 71.3056L102.51 68.6582C103.78 69.6377 105.131 70.2467 106.296 70.2467C107.355 70.2467 107.805 69.7436 107.805 69.1612V69.1083C107.805 68.2875 106.746 67.9434 105.21 67.2815C103.198 66.4079 101.477 65.4018 101.477 62.9926V62.9397C101.477 60.2128 103.595 58.5979 106.348 58.5979C107.884 58.5979 109.605 59.1274 111.034 60.1334L109.525 62.8338C108.466 62.1455 107.302 61.616 106.296 61.616C105.395 61.616 104.919 62.066 104.919 62.622V62.675C104.919 63.4162 105.978 63.8398 107.487 64.5282C109.552 65.5077 111.246 66.5402 111.246 68.7906V68.8435C111.246 71.7822 109.075 73.2647 106.243 73.2647ZM117.671 73.2383C115.5 73.2383 113.912 72.3911 113.912 69.4524V61.9866H112.482V58.8097H113.912V55.1827H117.671V58.8097H120.478V61.9866H117.671V68.6847C117.671 69.5054 118.042 69.9025 118.836 69.9025C119.419 69.9025 119.975 69.7436 120.451 69.5054V72.497C119.71 72.9206 118.81 73.2383 117.671 73.2383ZM122.947 73V58.8097H126.707V60.7158C127.554 59.5245 128.613 58.5449 130.386 58.5449C132.028 58.5449 133.219 59.3392 133.881 60.6099C134.914 59.3656 136.184 58.5449 137.905 58.5449C140.42 58.5449 142.115 60.1864 142.115 63.3103V73H138.382V64.4487C138.382 62.8073 137.667 61.9337 136.423 61.9337C135.178 61.9337 134.411 62.8073 134.411 64.4487V73H130.651V64.4487C130.651 62.8073 129.963 61.9337 128.719 61.9337C127.474 61.9337 126.707 62.8073 126.707 64.4487V73H122.947ZM151.141 73.3177C147.381 73.3177 144.496 70.4849 144.496 66.0637V65.8254C144.496 61.616 147.117 58.5449 150.691 58.5449C154.741 58.5449 156.727 61.8542 156.727 66.0902C156.727 66.302 156.727 66.752 156.7 67.308H148.229C148.546 69.1877 149.711 70.1672 151.3 70.1672C152.465 70.1672 153.365 69.6377 154.265 68.7641L156.197 71.0409C154.9 72.4705 153.259 73.3177 151.141 73.3177ZM148.202 64.8194H153.1C152.941 62.8603 152.094 61.6424 150.691 61.6424C149.314 61.6424 148.414 62.8073 148.202 64.8194ZM159.194 73V58.8097H162.954V60.7158C163.775 59.5774 164.807 58.5449 166.607 58.5449C169.255 58.5449 170.79 60.3981 170.79 63.3368V73H167.031V64.4487C167.031 62.7809 166.29 61.9337 165.019 61.9337C163.775 61.9337 162.954 62.7809 162.954 64.4487V73H159.194ZM178.014 73.2383C175.844 73.2383 174.255 72.3911 174.255 69.4524V61.9866H172.825V58.8097H174.255V55.1827H178.014V58.8097H180.821V61.9866H178.014V68.6847C178.014 69.5054 178.385 69.9025 179.179 69.9025C179.762 69.9025 180.318 69.7436 180.794 69.5054V72.497C180.053 72.9206 179.153 73.2383 178.014 73.2383Z" fill="#231D2C"/>
<line x1="55.9609" y1="148.68" x2="515.629" y2="148.68" stroke="#CBCBCB" stroke-width="0.413664"/>
<line x1="55.9609" y1="211.273" x2="515.629" y2="211.273" stroke="#CBCBCB" stroke-width="0.413664"/>
<line x1="55.9609" y1="280.163" x2="515.629" y2="280.163" stroke="#CBCBCB" stroke-width="0.413664"/>
<rect x="65" y="296" width="137" height="25" rx="12.5" transform="rotate(-90 65 296)" fill="#6061E5"/>
<rect x="129" y="255" width="106" height="25" rx="12.5" transform="rotate(-90 129 255)" fill="#F2D1E2"/>
<rect x="65" y="296" width="67" height="25" rx="12.5" transform="rotate(-90 65 296)" fill="#565656"/>
<rect x="129" y="255" width="51" height="25" rx="12.5" transform="rotate(-90 129 255)" fill="#565656"/>
<rect x="194" y="255" width="135" height="24" rx="12" transform="rotate(-90 194 255)" fill="#6061E5"/>
<rect x="261" y="290" width="170" height="25" rx="12.5" transform="rotate(-90 261 290)" fill="#F2D1E2"/>
<rect x="320" y="268" width="113" height="25" rx="12.5" transform="rotate(-90 320 268)" fill="#6061E5"/>
<rect x="373" y="255" width="79" height="25" rx="12.5" transform="rotate(-90 373 255)" fill="#F2D1E2"/>
<rect x="426" y="251" width="79" height="25" rx="12.5" transform="rotate(-90 426 251)" fill="#6061E5"/>
<rect x="385.024" y="77.7756" width="21.9637" height="12.5928" rx="6.29638" transform="rotate(180 385.024 77.7756)" fill="#6061E5"/>
<rect x="467.389" y="79.6267" width="21.9637" height="16.2965" rx="8.14825" transform="rotate(180 467.389 79.6267)" fill="#F2D1E2"/>
<rect x="480" y="281" width="152" height="25" rx="12.5" transform="rotate(-90 480 281)" fill="#F2D1E2"/>
<rect x="194" y="255" width="51" height="24" rx="12" transform="rotate(-90 194 255)" fill="#565656"/>
<rect x="261" y="290" width="79" height="25" rx="12.5" transform="rotate(-90 261 290)" fill="#565656"/>
<rect x="320" y="268" width="47" height="25" rx="12.5" transform="rotate(-90 320 268)" fill="#565656"/>
<rect x="373" y="255" width="58" height="25" rx="12.5" transform="rotate(-90 373 255)" fill="#565656"/>
<rect x="426" y="251" width="42" height="25" rx="12.5" transform="rotate(-90 426 251)" fill="#565656"/>
<rect x="480" y="281" width="72" height="25" rx="12.5" transform="rotate(-90 480 281)" fill="#565656"/>
<rect x="65" y="306" width="27" height="4" rx="2" fill="#BCBEC2"/>
<rect x="128" y="306" width="27" height="4" rx="2" fill="#BCBEC2"/>
<rect x="193" y="306" width="26" height="4" rx="2" fill="#BCBEC2"/>
<rect x="259" y="306" width="26" height="4" rx="2" fill="#BCBEC2"/>
<rect x="320" y="306" width="26" height="4" rx="2" fill="#BCBEC2"/>
<rect x="371" y="306" width="26" height="4" rx="2" fill="#BCBEC2"/>
<rect x="429" y="306" width="26" height="4" rx="2" fill="#BCBEC2"/>
<rect x="480" y="306" width="27" height="4" rx="2" fill="#BCBEC2"/>
<rect x="390.515" y="66.6639" width="42.7507" height="10.0001" rx="5.00006" fill="#EAEDF3"/>
<rect x="472.879" y="66.6639" width="42.7507" height="10.0001" rx="5.00006" fill="#EAEDF3"/>
<rect width="566" height="33" fill="#565656"/>
<circle cx="22.1645" cy="16.4179" r="6.15672" fill="white"/>
<circle cx="46.7905" cy="16.4179" r="6.15672" fill="white"/>
<circle cx="71.4184" cy="16.4179" r="6.15672" fill="white"/>
</svg>
