<svg width="566" height="327" viewBox="0 0 566 327" fill="none" xmlns="http://www.w3.org/2000/svg">
<g clip-path="url(#clip0_23816_725)">
<rect y="0.5" width="566" height="326" rx="16" fill="#FBFBFB"/>
<rect y="0.5" width="566" height="33" fill="#6061E5"/>
<circle cx="22.1645" cy="16.9179" r="6.15672" fill="white"/>
<circle cx="46.7905" cy="16.9179" r="6.15672" fill="white"/>
<circle cx="71.4184" cy="16.9179" r="6.15672" fill="white"/>
<rect x="100" y="100.696" width="365.527" height="20.2654" rx="10.1327" fill="#EAEDF3"/>
<rect x="196.448" y="75.9276" width="172.631" height="11.6338" rx="5.81691" fill="#565656"/>
<rect x="100" y="126.966" width="365.527" height="150.489" rx="12.3844" fill="#EAEDF3"/>
<path d="M100 140.101C100 132.847 105.881 126.966 113.135 126.966H452.392C459.646 126.966 465.527 132.847 465.527 140.101V152.486H100V140.101Z" fill="#DCE1EA"/>
<path d="M100 171.25H465.527V194.518H100V171.25Z" fill="#DCE1EA"/>
<path d="M100 212.906H465.527V236.174H100V212.906Z" fill="#DCE1EA"/>
<path d="M100 256.439H465.527V268.073C465.527 274.498 460.318 279.707 453.893 279.707H111.259C105.041 279.707 100 274.666 100 268.449V256.439Z" fill="#DCE1EA"/>
<rect x="113.135" y="137.85" width="28.8969" height="7.1304" rx="3.40824" fill="#6061E5"/>
<rect x="170.178" y="137.85" width="36.4026" height="7.1304" rx="3.40824" fill="#6061E5"/>
<rect x="234.727" y="137.85" width="25.144" height="7.1304" rx="3.40824" fill="#6061E5"/>
<rect x="282.764" y="137.85" width="41.6566" height="7.1304" rx="3.40824" fill="#6061E5"/>
<rect x="345.812" y="137.85" width="31.8992" height="7.1304" rx="3.40824" fill="#6061E5"/>
<rect x="399.853" y="137.85" width="43.9083" height="7.1304" rx="3.40824" fill="#6061E5"/>
<rect x="113.135" y="158.49" width="112.585" height="6.75512" rx="3.37756" fill="#565656"/>
<rect x="109.451" y="107.5" width="44" height="7" rx="3.40824" fill="#565656"/>
<rect x="164.451" y="107.5" width="30" height="7" rx="3.40824" fill="#565656"/>
<rect x="113.135" y="180.632" width="169.629" height="6.75512" rx="3.37756" fill="#565656"/>
<rect x="113.135" y="200.522" width="114.837" height="6.75512" rx="3.37756" fill="#565656"/>
<rect x="113.135" y="242.929" width="139.606" height="6.75512" rx="3.37756" fill="#565656"/>
<rect x="113.135" y="264.696" width="169.629" height="6.75512" rx="3.37756" fill="#565656"/>
<rect x="113.135" y="221.163" width="148.237" height="6.75512" rx="3.37756" fill="#565656"/>
<g clip-path="url(#clip1_23816_725)">
<path d="M449.328 112.08H448.834L448.658 111.911C449.271 111.198 449.64 110.272 449.64 109.265C449.64 107.02 447.82 105.2 445.575 105.2C443.329 105.2 441.509 107.02 441.509 109.265C441.509 111.511 443.329 113.331 445.575 113.331C446.582 113.331 447.508 112.962 448.221 112.349L448.389 112.524V113.018L451.517 116.139L452.449 115.207L449.328 112.08ZM445.575 112.08C444.017 112.08 442.76 110.823 442.76 109.265C442.76 107.708 444.017 106.451 445.575 106.451C447.132 106.451 448.389 107.708 448.389 109.265C448.389 110.823 447.132 112.08 445.575 112.08Z" fill="#565656"/>
</g>
</g>
<defs>
<clipPath id="clip0_23816_725">
<rect y="0.5" width="566" height="326" rx="16" fill="white"/>
</clipPath>
<clipPath id="clip1_23816_725">
<rect width="15.0114" height="15.0114" fill="white" transform="translate(439.633 103.323)"/>
</clipPath>
</defs>
</svg>

