<svg width="566" height="326" viewBox="0 0 566 326" fill="none" xmlns="http://www.w3.org/2000/svg">
<rect width="566" height="326" rx="16" fill="#FBFBFB"/>
<rect x="41" y="55" width="335" height="166" rx="18.9011" fill="#F1F3F5"/>
<path d="M164.263 103.08H128.787V143.63H172.946L197.755 126.162V78.4333L164.263 103.08Z" fill="#CFD4DA"/>
<path d="M219.59 79.0848H202.065V101.064H218.977L267.261 90.6917V65.5022L219.59 79.0848Z" fill="#CFD4DA"/>
<path d="M223.542 179.729H205.837V199.684H222.923L267.261 211.519V191.565L223.542 179.729Z" fill="#CFD4DA"/>
<path d="M236.331 101.063H203.682V123.154H238.786L267.261 123.154V101.062L236.331 101.063Z" fill="#CFD4DA"/>
<path d="M237.685 158.717H204.759V180.27H240.161L268.878 180.27V158.717L237.685 158.717Z" fill="#CFD4DA"/>
<path d="M171.212 143.628H134.714V177.76H171.212L202.605 200.203V158.876L171.212 143.628Z" fill="#CFD4DA"/>
<rect x="138" y="101" width="79" height="11" rx="5.38812" transform="rotate(90 138 101)" fill="#868E96"/>
<path d="M201.612 156C204.588 156 207 158.412 207 161.388L207 197.612C207 200.588 204.588 203 201.612 203L201.388 203C198.412 203 196 200.588 196 197.612L196 161.388C196 158.412 198.412 156 201.388 156L201.612 156Z" fill="#868E96"/>
<rect x="207" y="76" width="50" height="11" rx="5.38812" transform="rotate(90 207 76)" fill="#868E96"/>
<rect x="275" y="64" width="27" height="12" rx="5.38812" transform="rotate(90 275 64)" fill="#868E96"/>
<rect x="275" y="101" width="22" height="12" rx="5.38812" transform="rotate(90 275 101)" fill="#868E96"/>
<rect x="274.266" y="158.717" width="21.5525" height="11.8539" rx="5.38812" transform="rotate(90 274.266 158.717)" fill="#868E96"/>
<rect x="274" y="190" width="25" height="12" rx="5.38812" transform="rotate(90 274 190)" fill="#868E96"/>
<rect x="398" y="55" width="126" height="249" rx="13.7854" fill="#EAEDF3"/>
<rect x="408.178" y="84.7474" width="105.919" height="5.94945" rx="2.97473" fill="#359C96"/>
<rect x="408.178" y="66.8989" width="82.0021" height="5.94945" rx="2.97473" fill="#359C96"/>
<rect x="408.92" y="105.571" width="104.434" height="5.94945" rx="2.97473" fill="#359C96"/>
<rect x="409.688" y="124.328" width="102.819" height="6.54655" rx="3.27328" fill="#359C96"/>
<rect x="408.92" y="165.065" width="104.434" height="5.94945" rx="2.97473" fill="#359C96"/>
<rect x="408.92" y="185.888" width="104.434" height="5.94945" rx="2.97473" fill="#359C96"/>
<rect x="408.92" y="206.711" width="104.434" height="5.94945" rx="2.97473" fill="#359C96"/>
<rect x="408.92" y="144.242" width="104.434" height="5.94945" rx="2.97473" fill="#359C96"/>
<rect width="566" height="33" fill="#70777E"/>
<circle cx="22.1645" cy="16.4179" r="6.15672" fill="white"/>
<circle cx="46.7905" cy="16.4179" r="6.15672" fill="white"/>
<circle cx="71.4184" cy="16.4179" r="6.15672" fill="white"/>
</svg>
