<svg width="566" height="327" viewBox="0 0 566 327" fill="none" xmlns="http://www.w3.org/2000/svg">
<g clip-path="url(#clip0_23816_1581)">
<rect y="0.5" width="566" height="326" rx="16" fill="#FBFBFB"/>
<path d="M273.968 61.1864L277.836 54.8328H275.626H274.245L272.311 58.4239L273.968 61.1864Z" fill="#CEA8BC"/>
<path d="M272.035 66.7113L274.134 70.3025H276.178H277.56L273.692 63.6727L272.035 66.7113Z" fill="#CEA8BC"/>
<path d="M208.112 70.3024V54.8328H213.107C217.593 54.8328 220.488 57.9267 220.488 62.4571V62.656C220.488 67.1864 217.593 70.3024 213.107 70.3024H208.112ZM213.084 57.7278H211.316V67.4074H213.084C215.515 67.4074 217.173 65.7057 217.173 62.6339V62.5234C217.173 59.4516 215.515 57.7278 213.084 57.7278Z" fill="#231D2C"/>
<path d="M220.99 70.3024L226.537 54.7444H229.587L235.134 70.3024H231.819L230.67 66.9433H225.344L224.217 70.3024H220.99ZM226.316 64.1146H229.698L228.018 59.0759L226.316 64.1146Z" fill="#231D2C"/>
<path d="M238.417 70.3024V57.7941H234.528V54.8328H245.489V57.7941H241.599V70.3024H238.417Z" fill="#231D2C"/>
<path d="M244.881 70.3024L250.428 54.7444H253.478L259.025 70.3024H255.71L254.561 66.9433H249.235L248.108 70.3024H244.881ZM250.207 64.1146H253.588L251.909 59.0759L250.207 64.1146Z" fill="#231D2C"/>
<path d="M273.156 62.3908L268.427 70.3024H264.869L269.444 62.435L265.068 54.8328H268.714L273.156 62.3908Z" fill="#231D2C"/>
<path fill-rule="evenodd" clip-rule="evenodd" d="M279.827 70.3024V54.8328H284.977C288.446 54.8328 290.634 56.8439 290.634 60.1367V60.1809C290.634 63.7389 288.093 65.529 284.844 65.5953H283.032V70.3024H279.827ZM284.822 62.7223H283.032V57.7278H284.778C286.479 57.7278 287.407 58.6118 287.407 60.2251V60.2472C287.407 61.6836 286.479 62.7223 284.822 62.7223Z" fill="#CEA8BC"/>
<path d="M292.733 70.3024V54.8328H295.938V67.3632H302.192V70.3024H292.733Z" fill="#CEA8BC"/>
<path fill-rule="evenodd" clip-rule="evenodd" d="M309.976 70.5676C305.866 70.5676 302.993 67.3411 302.993 62.7223V62.4571C302.993 57.8162 305.91 54.5676 309.998 54.5676C314.109 54.5676 316.982 57.7941 316.982 62.4129V62.6781C316.982 67.2969 314.065 70.5676 309.976 70.5676ZM313.667 62.656C313.667 65.7057 312.142 67.6063 309.998 67.6063C307.855 67.6063 306.286 65.6836 306.286 62.6339V62.4792C306.286 59.4295 307.811 57.529 309.976 57.529C312.12 57.529 313.667 59.4516 313.667 62.5013V62.656Z" fill="#CEA8BC"/>
<path fill-rule="evenodd" clip-rule="evenodd" d="M319.516 70.3024V54.8328H325.328C327.118 54.8328 328.554 55.3411 329.527 56.3135C330.367 57.1533 330.831 58.3687 330.831 59.8936V59.982C330.831 62.3245 329.659 63.8052 327.958 64.5566L331.251 70.3024H327.582L324.731 65.2196H322.72V70.3024H319.516ZM325.085 62.3908H322.72V57.7278H325.018C326.654 57.7278 327.604 58.5013 327.604 60.0483V60.0704C327.604 61.4627 326.72 62.3908 325.085 62.3908Z" fill="#CEA8BC"/>
<path d="M333.371 70.3024V54.8328H343.338V57.7278H336.553V61.0649H342.52V63.9599H336.553V67.4074H343.426V70.3024H333.371Z" fill="#CEA8BC"/>
<path fill-rule="evenodd" clip-rule="evenodd" d="M345.953 70.3024V54.8328H351.765C353.555 54.8328 354.992 55.3411 355.964 56.3135C356.804 57.1533 357.268 58.3687 357.268 59.8936V59.982C357.268 62.3245 356.097 63.8052 354.395 64.5566L357.688 70.3024H354.019L351.169 65.2196H349.157V70.3024H345.953ZM351.522 62.3908H349.157V57.7278H351.456C353.091 57.7278 354.041 58.5013 354.041 60.0483V60.0704C354.041 61.4627 353.157 62.3908 351.522 62.3908Z" fill="#CEA8BC"/>
<rect x="100.137" y="86.5676" width="365.527" height="20.2654" rx="10.1327" fill="#EAEDF3"/>
<rect x="109.588" y="93.3713" width="44" height="7" rx="3.40824" fill="#565656"/>
<rect x="164.588" y="93.3713" width="30" height="7" rx="3.40824" fill="#565656"/>
<g clip-path="url(#clip1_23816_1581)">
<path d="M449.464 97.9513H448.97L448.795 97.7824C449.408 97.0693 449.777 96.1436 449.777 95.1366C449.777 92.8912 447.957 91.071 445.711 91.071C443.466 91.071 441.646 92.8912 441.646 95.1366C441.646 97.3821 443.466 99.2022 445.711 99.2022C446.718 99.2022 447.644 98.8332 448.357 98.2202L448.526 98.3953V98.8895L451.653 102.011L452.585 101.079L449.464 97.9513ZM445.711 97.9513C444.154 97.9513 442.897 96.6941 442.897 95.1366C442.897 93.5792 444.154 92.322 445.711 92.322C447.269 92.322 448.526 93.5792 448.526 95.1366C448.526 96.6941 447.269 97.9513 445.711 97.9513Z" fill="#565656"/>
</g>
<rect x="251.9" y="122.833" width="62" height="12" rx="6" fill="#565656"/>
<g filter="url(#filter0_d_23816_1581)">
<rect x="43" y="150.833" width="113.2" height="41.7682" fill="#DFE3E6"/>
</g>
<rect x="47.9716" y="157.182" width="43.0563" height="2.25719" rx="1.1286" fill="#565656"/>
<rect x="47.9716" y="164.58" width="64.8714" height="2.25719" rx="1.1286" fill="#565656"/>
<g filter="url(#filter1_d_23816_1581)">
<rect x="165.2" y="150.833" width="113.2" height="41.7682" fill="#DFE3E6"/>
</g>
<rect x="170.172" y="157.182" width="43.0563" height="2.25719" rx="1.1286" fill="#565656"/>
<rect x="170.172" y="164.58" width="64.8714" height="2.25719" rx="1.1286" fill="#565656"/>
<g filter="url(#filter2_d_23816_1581)">
<rect x="287.4" y="150.833" width="113.2" height="41.7682" fill="#DFE3E6"/>
</g>
<rect x="292.372" y="157.182" width="43.0563" height="2.25719" rx="1.1286" fill="#565656"/>
<rect x="292.372" y="164.58" width="64.8714" height="2.25719" rx="1.1286" fill="#565656"/>
<g filter="url(#filter3_d_23816_1581)">
<rect x="409.6" y="150.833" width="113.2" height="41.7682" fill="#DFE3E6"/>
</g>
<rect x="414.572" y="157.182" width="43.0563" height="2.25719" rx="1.1286" fill="#565656"/>
<rect x="414.572" y="164.58" width="64.8714" height="2.25719" rx="1.1286" fill="#565656"/>
<g filter="url(#filter4_d_23816_1581)">
<rect x="43" y="205.601" width="113.2" height="41.7682" fill="#DFE3E6"/>
</g>
<rect x="47.9716" y="211.95" width="43.0563" height="2.25719" rx="1.1286" fill="#565656"/>
<rect x="47.9716" y="219.349" width="64.8714" height="2.25719" rx="1.1286" fill="#565656"/>
<g filter="url(#filter5_d_23816_1581)">
<rect x="165.2" y="205.601" width="113.2" height="41.7682" fill="#DFE3E6"/>
</g>
<rect x="170.172" y="211.95" width="43.0563" height="2.25719" rx="1.1286" fill="#565656"/>
<rect x="170.172" y="219.349" width="64.8714" height="2.25719" rx="1.1286" fill="#565656"/>
<g filter="url(#filter6_d_23816_1581)">
<rect x="287.4" y="205.601" width="113.2" height="41.7682" fill="#DFE3E6"/>
</g>
<rect x="292.372" y="211.95" width="43.0563" height="2.25719" rx="1.1286" fill="#565656"/>
<rect x="292.372" y="219.349" width="64.8714" height="2.25719" rx="1.1286" fill="#565656"/>
<g filter="url(#filter7_d_23816_1581)">
<rect x="409.6" y="205.601" width="113.2" height="41.7682" fill="#DFE3E6"/>
</g>
<rect x="414.572" y="211.95" width="43.0563" height="2.25719" rx="1.1286" fill="#565656"/>
<rect x="414.572" y="219.349" width="64.8714" height="2.25719" rx="1.1286" fill="#565656"/>
<g filter="url(#filter8_d_23816_1581)">
<rect x="43" y="260.369" width="113.2" height="41.7682" fill="#DFE3E6"/>
</g>
<rect x="47.9716" y="266.718" width="43.0563" height="2.25719" rx="1.1286" fill="#565656"/>
<rect x="47.9716" y="274.117" width="64.8714" height="2.25719" rx="1.1286" fill="#565656"/>
<g filter="url(#filter9_d_23816_1581)">
<rect x="288.146" y="206.754" width="113.2" height="41.3468" fill="#DFE3E6"/>
</g>
<rect x="293.117" y="213.038" width="43.0563" height="2.23442" rx="1.11721" fill="#565656"/>
<rect x="293.117" y="220.362" width="64.8714" height="2.23442" rx="1.11721" fill="#565656"/>
<rect y="0.5" width="566" height="33" fill="#6061E5"/>
<circle cx="22.1645" cy="16.9179" r="6.15672" fill="white"/>
<circle cx="46.7905" cy="16.9179" r="6.15672" fill="white"/>
<circle cx="71.4184" cy="16.9179" r="6.15672" fill="white"/>
</g>
<defs>
<filter id="filter0_d_23816_1581" x="39.6554" y="147.488" width="119.889" height="48.4575" filterUnits="userSpaceOnUse" color-interpolation-filters="sRGB">
<feFlood flood-opacity="0" result="BackgroundImageFix"/>
<feColorMatrix in="SourceAlpha" type="matrix" values="0 0 0 0 0 0 0 0 0 0 0 0 0 0 0 0 0 0 127 0" result="hardAlpha"/>
<feOffset/>
<feGaussianBlur stdDeviation="1.6723"/>
<feColorMatrix type="matrix" values="0 0 0 0 0.596078 0 0 0 0 0.631373 0 0 0 0 0.666667 0 0 0 0.05 0"/>
<feBlend mode="multiply" in2="BackgroundImageFix" result="effect1_dropShadow_23816_1581"/>
<feBlend mode="normal" in="SourceGraphic" in2="effect1_dropShadow_23816_1581" result="shape"/>
</filter>
<filter id="filter1_d_23816_1581" x="161.855" y="147.488" width="119.889" height="48.4575" filterUnits="userSpaceOnUse" color-interpolation-filters="sRGB">
<feFlood flood-opacity="0" result="BackgroundImageFix"/>
<feColorMatrix in="SourceAlpha" type="matrix" values="0 0 0 0 0 0 0 0 0 0 0 0 0 0 0 0 0 0 127 0" result="hardAlpha"/>
<feOffset/>
<feGaussianBlur stdDeviation="1.6723"/>
<feColorMatrix type="matrix" values="0 0 0 0 0.596078 0 0 0 0 0.631373 0 0 0 0 0.666667 0 0 0 0.05 0"/>
<feBlend mode="multiply" in2="BackgroundImageFix" result="effect1_dropShadow_23816_1581"/>
<feBlend mode="normal" in="SourceGraphic" in2="effect1_dropShadow_23816_1581" result="shape"/>
</filter>
<filter id="filter2_d_23816_1581" x="284.055" y="147.488" width="119.889" height="48.4575" filterUnits="userSpaceOnUse" color-interpolation-filters="sRGB">
<feFlood flood-opacity="0" result="BackgroundImageFix"/>
<feColorMatrix in="SourceAlpha" type="matrix" values="0 0 0 0 0 0 0 0 0 0 0 0 0 0 0 0 0 0 127 0" result="hardAlpha"/>
<feOffset/>
<feGaussianBlur stdDeviation="1.6723"/>
<feColorMatrix type="matrix" values="0 0 0 0 0.596078 0 0 0 0 0.631373 0 0 0 0 0.666667 0 0 0 0.05 0"/>
<feBlend mode="multiply" in2="BackgroundImageFix" result="effect1_dropShadow_23816_1581"/>
<feBlend mode="normal" in="SourceGraphic" in2="effect1_dropShadow_23816_1581" result="shape"/>
</filter>
<filter id="filter3_d_23816_1581" x="406.255" y="147.488" width="119.889" height="48.4575" filterUnits="userSpaceOnUse" color-interpolation-filters="sRGB">
<feFlood flood-opacity="0" result="BackgroundImageFix"/>
<feColorMatrix in="SourceAlpha" type="matrix" values="0 0 0 0 0 0 0 0 0 0 0 0 0 0 0 0 0 0 127 0" result="hardAlpha"/>
<feOffset/>
<feGaussianBlur stdDeviation="1.6723"/>
<feColorMatrix type="matrix" values="0 0 0 0 0.596078 0 0 0 0 0.631373 0 0 0 0 0.666667 0 0 0 0.05 0"/>
<feBlend mode="multiply" in2="BackgroundImageFix" result="effect1_dropShadow_23816_1581"/>
<feBlend mode="normal" in="SourceGraphic" in2="effect1_dropShadow_23816_1581" result="shape"/>
</filter>
<filter id="filter4_d_23816_1581" x="39.6554" y="202.257" width="119.889" height="48.4575" filterUnits="userSpaceOnUse" color-interpolation-filters="sRGB">
<feFlood flood-opacity="0" result="BackgroundImageFix"/>
<feColorMatrix in="SourceAlpha" type="matrix" values="0 0 0 0 0 0 0 0 0 0 0 0 0 0 0 0 0 0 127 0" result="hardAlpha"/>
<feOffset/>
<feGaussianBlur stdDeviation="1.6723"/>
<feColorMatrix type="matrix" values="0 0 0 0 0.596078 0 0 0 0 0.631373 0 0 0 0 0.666667 0 0 0 0.05 0"/>
<feBlend mode="multiply" in2="BackgroundImageFix" result="effect1_dropShadow_23816_1581"/>
<feBlend mode="normal" in="SourceGraphic" in2="effect1_dropShadow_23816_1581" result="shape"/>
</filter>
<filter id="filter5_d_23816_1581" x="161.855" y="202.257" width="119.889" height="48.4575" filterUnits="userSpaceOnUse" color-interpolation-filters="sRGB">
<feFlood flood-opacity="0" result="BackgroundImageFix"/>
<feColorMatrix in="SourceAlpha" type="matrix" values="0 0 0 0 0 0 0 0 0 0 0 0 0 0 0 0 0 0 127 0" result="hardAlpha"/>
<feOffset/>
<feGaussianBlur stdDeviation="1.6723"/>
<feColorMatrix type="matrix" values="0 0 0 0 0.596078 0 0 0 0 0.631373 0 0 0 0 0.666667 0 0 0 0.05 0"/>
<feBlend mode="multiply" in2="BackgroundImageFix" result="effect1_dropShadow_23816_1581"/>
<feBlend mode="normal" in="SourceGraphic" in2="effect1_dropShadow_23816_1581" result="shape"/>
</filter>
<filter id="filter6_d_23816_1581" x="284.055" y="202.257" width="119.889" height="48.4575" filterUnits="userSpaceOnUse" color-interpolation-filters="sRGB">
<feFlood flood-opacity="0" result="BackgroundImageFix"/>
<feColorMatrix in="SourceAlpha" type="matrix" values="0 0 0 0 0 0 0 0 0 0 0 0 0 0 0 0 0 0 127 0" result="hardAlpha"/>
<feOffset/>
<feGaussianBlur stdDeviation="1.6723"/>
<feColorMatrix type="matrix" values="0 0 0 0 0.596078 0 0 0 0 0.631373 0 0 0 0 0.666667 0 0 0 0.05 0"/>
<feBlend mode="multiply" in2="BackgroundImageFix" result="effect1_dropShadow_23816_1581"/>
<feBlend mode="normal" in="SourceGraphic" in2="effect1_dropShadow_23816_1581" result="shape"/>
</filter>
<filter id="filter7_d_23816_1581" x="406.255" y="202.257" width="119.889" height="48.4575" filterUnits="userSpaceOnUse" color-interpolation-filters="sRGB">
<feFlood flood-opacity="0" result="BackgroundImageFix"/>
<feColorMatrix in="SourceAlpha" type="matrix" values="0 0 0 0 0 0 0 0 0 0 0 0 0 0 0 0 0 0 127 0" result="hardAlpha"/>
<feOffset/>
<feGaussianBlur stdDeviation="1.6723"/>
<feColorMatrix type="matrix" values="0 0 0 0 0.596078 0 0 0 0 0.631373 0 0 0 0 0.666667 0 0 0 0.05 0"/>
<feBlend mode="multiply" in2="BackgroundImageFix" result="effect1_dropShadow_23816_1581"/>
<feBlend mode="normal" in="SourceGraphic" in2="effect1_dropShadow_23816_1581" result="shape"/>
</filter>
<filter id="filter8_d_23816_1581" x="39.6554" y="257.025" width="119.889" height="48.4575" filterUnits="userSpaceOnUse" color-interpolation-filters="sRGB">
<feFlood flood-opacity="0" result="BackgroundImageFix"/>
<feColorMatrix in="SourceAlpha" type="matrix" values="0 0 0 0 0 0 0 0 0 0 0 0 0 0 0 0 0 0 127 0" result="hardAlpha"/>
<feOffset/>
<feGaussianBlur stdDeviation="1.6723"/>
<feColorMatrix type="matrix" values="0 0 0 0 0.596078 0 0 0 0 0.631373 0 0 0 0 0.666667 0 0 0 0.05 0"/>
<feBlend mode="multiply" in2="BackgroundImageFix" result="effect1_dropShadow_23816_1581"/>
<feBlend mode="normal" in="SourceGraphic" in2="effect1_dropShadow_23816_1581" result="shape"/>
</filter>
<filter id="filter9_d_23816_1581" x="284.801" y="203.409" width="119.889" height="48.0359" filterUnits="userSpaceOnUse" color-interpolation-filters="sRGB">
<feFlood flood-opacity="0" result="BackgroundImageFix"/>
<feColorMatrix in="SourceAlpha" type="matrix" values="0 0 0 0 0 0 0 0 0 0 0 0 0 0 0 0 0 0 127 0" result="hardAlpha"/>
<feOffset/>
<feGaussianBlur stdDeviation="1.6723"/>
<feColorMatrix type="matrix" values="0 0 0 0 0.596078 0 0 0 0 0.631373 0 0 0 0 0.666667 0 0 0 0.05 0"/>
<feBlend mode="multiply" in2="BackgroundImageFix" result="effect1_dropShadow_23816_1581"/>
<feBlend mode="normal" in="SourceGraphic" in2="effect1_dropShadow_23816_1581" result="shape"/>
</filter>
<clipPath id="clip0_23816_1581">
<rect y="0.5" width="566" height="326" rx="16" fill="white"/>
</clipPath>
<clipPath id="clip1_23816_1581">
<rect width="15.0114" height="15.0114" fill="white" transform="translate(439.769 89.1946)"/>
</clipPath>
</defs>
</svg>
