<svg width="566" height="362" viewBox="0 0 566 362" fill="none" xmlns="http://www.w3.org/2000/svg">
<rect width="566" height="362" rx="16" fill="#FBFBFB"/>
<rect x="80" y="65" width="406.594" height="54.6681" rx="18.9011" fill="#565656"/>
<rect x="80" y="131.668" width="406.594" height="82.5893" rx="12.3537" fill="#F1F3F5"/>
<line x1="102.235" y1="152.768" x2="230.831" y2="152.768" stroke="#CBCBCB" stroke-width="0.109724"/>
<line x1="102.235" y1="171.311" x2="230.831" y2="171.311" stroke="#CBCBCB" stroke-width="0.109724"/>
<line x1="102.235" y1="191.72" x2="230.831" y2="191.72" stroke="#CBCBCB" stroke-width="0.109724"/>
<rect x="111.461" y="196.274" width="40.488" height="6.58342" rx="3.29171" transform="rotate(-90 111.461 196.274)" fill="#6061E5"/>
<rect x="128.461" y="184.205" width="31.381" height="6.58342" rx="3.29171" transform="rotate(-90 128.461 184.205)" fill="#F2D1E2"/>
<rect x="111.461" y="196.274" width="19.7503" height="6.58342" rx="3.29171" transform="rotate(-90 111.461 196.274)" fill="#565656"/>
<rect x="128.461" y="184.205" width="14.9224" height="6.58342" rx="3.29171" transform="rotate(-90 128.461 184.205)" fill="#565656"/>
<rect x="145.467" y="184.205" width="39.8297" height="6.58342" rx="3.29171" transform="rotate(-90 145.467 184.205)" fill="#6061E5"/>
<rect x="163.246" y="194.628" width="50.2534" height="6.58342" rx="3.29171" transform="rotate(-90 163.246 194.628)" fill="#F2D1E2"/>
<rect x="178.941" y="188.044" width="33.356" height="6.58342" rx="3.29171" transform="rotate(-90 178.941 188.044)" fill="#6061E5"/>
<rect x="192.976" y="184.205" width="23.2614" height="6.58342" rx="3.29171" transform="rotate(-90 192.976 184.205)" fill="#F2D1E2"/>
<rect x="206.915" y="182.998" width="23.2614" height="6.58342" rx="3.29171" transform="rotate(-90 206.915 182.998)" fill="#6061E5"/>
<rect x="221.399" y="191.993" width="44.9867" height="6.58342" rx="3.29171" transform="rotate(-90 221.399 191.993)" fill="#F2D1E2"/>
<rect x="145.467" y="184.205" width="14.9224" height="6.58342" rx="3.29171" transform="rotate(-90 145.467 184.205)" fill="#565656"/>
<rect x="163.246" y="194.628" width="23.2614" height="6.58342" rx="3.29171" transform="rotate(-90 163.246 194.628)" fill="#565656"/>
<rect x="179.041" y="188.044" width="13.8252" height="6.58342" rx="3.29171" transform="rotate(-90 179.041 188.044)" fill="#565656"/>
<rect x="192.976" y="184.205" width="17.1169" height="6.58342" rx="3.29171" transform="rotate(-90 192.976 184.205)" fill="#565656"/>
<rect x="206.915" y="182.998" width="12.5085" height="6.58342" rx="3.29171" transform="rotate(-90 206.915 182.998)" fill="#565656"/>
<rect x="221.399" y="191.993" width="21.5058" height="6.58342" rx="3.29171" transform="rotate(-90 221.399 191.993)" fill="#565656"/>
<rect x="111.405" y="199.394" width="7.01222" height="2.15761" rx="1.0788" fill="#BCBEC2"/>
<rect x="128.394" y="199.394" width="7.01222" height="2.15761" rx="1.0788" fill="#BCBEC2"/>
<rect x="145.12" y="199.394" width="7.01222" height="2.15761" rx="1.0788" fill="#BCBEC2"/>
<rect x="162.921" y="199.394" width="7.01222" height="2.15761" rx="1.0788" fill="#BCBEC2"/>
<rect x="178.828" y="199.394" width="7.01222" height="2.15761" rx="1.0788" fill="#BCBEC2"/>
<rect x="192.858" y="199.394" width="7.01222" height="2.15761" rx="1.0788" fill="#BCBEC2"/>
<rect x="206.602" y="199.394" width="7.01222" height="2.15761" rx="1.0788" fill="#BCBEC2"/>
<rect x="221.169" y="199.394" width="7.01222" height="2.15761" rx="1.0788" fill="#BCBEC2"/>
<line x1="229.296" y1="152.768" x2="357.892" y2="152.768" stroke="#CBCBCB" stroke-width="0.109724"/>
<line x1="229.296" y1="171.311" x2="357.892" y2="171.311" stroke="#CBCBCB" stroke-width="0.109724"/>
<line x1="229.296" y1="191.72" x2="357.892" y2="191.72" stroke="#CBCBCB" stroke-width="0.109724"/>
<rect x="238.522" y="196.274" width="40.488" height="6.58342" rx="3.29171" transform="rotate(-90 238.522 196.274)" fill="#6061E5"/>
<rect x="255.522" y="184.205" width="31.381" height="6.58342" rx="3.29171" transform="rotate(-90 255.522 184.205)" fill="#F2D1E2"/>
<rect x="238.522" y="196.274" width="19.7503" height="6.58342" rx="3.29171" transform="rotate(-90 238.522 196.274)" fill="#565656"/>
<rect x="255.522" y="184.205" width="14.9224" height="6.58342" rx="3.29171" transform="rotate(-90 255.522 184.205)" fill="#565656"/>
<rect x="272.528" y="184.205" width="39.8297" height="6.58342" rx="3.29171" transform="rotate(-90 272.528 184.205)" fill="#6061E5"/>
<rect x="290.308" y="194.628" width="50.2534" height="6.58342" rx="3.29171" transform="rotate(-90 290.308 194.628)" fill="#F2D1E2"/>
<rect x="306.002" y="188.044" width="33.356" height="6.58342" rx="3.29171" transform="rotate(-90 306.002 188.044)" fill="#6061E5"/>
<rect x="320.037" y="184.205" width="23.2614" height="6.58342" rx="3.29171" transform="rotate(-90 320.037 184.205)" fill="#F2D1E2"/>
<rect x="333.977" y="182.998" width="23.2614" height="6.58342" rx="3.29171" transform="rotate(-90 333.977 182.998)" fill="#6061E5"/>
<rect x="348.454" y="191.993" width="44.9867" height="6.58342" rx="3.29171" transform="rotate(-90 348.454 191.993)" fill="#F2D1E2"/>
<rect x="272.528" y="184.205" width="14.9224" height="6.58342" rx="3.29171" transform="rotate(-90 272.528 184.205)" fill="#565656"/>
<rect x="290.308" y="194.628" width="23.2614" height="6.58342" rx="3.29171" transform="rotate(-90 290.308 194.628)" fill="#565656"/>
<rect x="306.103" y="188.044" width="13.8252" height="6.58342" rx="3.29171" transform="rotate(-90 306.103 188.044)" fill="#565656"/>
<rect x="320.037" y="184.205" width="17.1169" height="6.58342" rx="3.29171" transform="rotate(-90 320.037 184.205)" fill="#565656"/>
<rect x="333.977" y="182.998" width="12.5085" height="6.58342" rx="3.29171" transform="rotate(-90 333.977 182.998)" fill="#565656"/>
<rect x="348.454" y="191.993" width="21.5058" height="6.58342" rx="3.29171" transform="rotate(-90 348.454 191.993)" fill="#565656"/>
<rect x="238.46" y="199.395" width="7.01222" height="2.15761" rx="1.0788" fill="#BCBEC2"/>
<rect x="255.455" y="199.394" width="7.01222" height="2.15761" rx="1.0788" fill="#BCBEC2"/>
<rect x="272.181" y="199.394" width="7.01222" height="2.15761" rx="1.0788" fill="#BCBEC2"/>
<rect x="289.982" y="199.394" width="7.01222" height="2.15761" rx="1.0788" fill="#BCBEC2"/>
<rect x="305.89" y="199.394" width="7.01222" height="2.15761" rx="1.0788" fill="#BCBEC2"/>
<rect x="319.919" y="199.394" width="7.01222" height="2.15761" rx="1.0788" fill="#BCBEC2"/>
<rect x="333.663" y="199.394" width="7.01222" height="2.15761" rx="1.0788" fill="#BCBEC2"/>
<rect x="348.23" y="199.395" width="7.01222" height="2.15761" rx="1.0788" fill="#BCBEC2"/>
<line x1="356.358" y1="153.849" x2="461.182" y2="153.849" stroke="#CBCBCB" stroke-width="0.109724"/>
<line x1="356.358" y1="169.732" x2="461.182" y2="169.732" stroke="#CBCBCB" stroke-width="0.109724"/>
<line x1="356.358" y1="191.968" x2="461.182" y2="191.968" stroke="#CBCBCB" stroke-width="0.109724"/>
<rect x="365.578" y="196.274" width="40.488" height="6.58342" rx="3.29171" transform="rotate(-90 365.578 196.274)" fill="#6061E5"/>
<rect x="382.578" y="184.205" width="31.381" height="6.58342" rx="3.29171" transform="rotate(-90 382.578 184.205)" fill="#F2D1E2"/>
<rect x="365.578" y="196.274" width="19.7503" height="6.58342" rx="3.29171" transform="rotate(-90 365.578 196.274)" fill="#565656"/>
<rect x="382.578" y="184.205" width="14.9224" height="6.58342" rx="3.29171" transform="rotate(-90 382.578 184.205)" fill="#565656"/>
<rect x="399.584" y="184.205" width="39.8297" height="6.58342" rx="3.29171" transform="rotate(-90 399.584 184.205)" fill="#6061E5"/>
<rect x="417.363" y="194.628" width="50.2534" height="6.58342" rx="3.29171" transform="rotate(-90 417.363 194.628)" fill="#F2D1E2"/>
<rect x="433.063" y="188.044" width="33.356" height="6.58342" rx="3.29171" transform="rotate(-90 433.063 188.044)" fill="#6061E5"/>
<rect x="447.098" y="184.205" width="23.2614" height="6.58342" rx="3.29171" transform="rotate(-90 447.098 184.205)" fill="#F2D1E2"/>
<rect x="399.584" y="184.205" width="14.9224" height="6.58342" rx="3.29171" transform="rotate(-90 399.584 184.205)" fill="#565656"/>
<rect x="417.363" y="194.628" width="23.2614" height="6.58342" rx="3.29171" transform="rotate(-90 417.363 194.628)" fill="#565656"/>
<rect x="433.164" y="188.045" width="13.8252" height="6.58342" rx="3.29171" transform="rotate(-90 433.164 188.045)" fill="#565656"/>
<rect x="447.098" y="184.205" width="17.1169" height="6.58342" rx="3.29171" transform="rotate(-90 447.098 184.205)" fill="#565656"/>
<rect x="365.522" y="199.394" width="7.01222" height="2.15761" rx="1.0788" fill="#BCBEC2"/>
<rect x="382.516" y="199.394" width="7.01222" height="2.15761" rx="1.0788" fill="#BCBEC2"/>
<rect x="399.242" y="199.394" width="7.01222" height="2.15761" rx="1.0788" fill="#BCBEC2"/>
<rect x="417.044" y="199.394" width="7.01222" height="2.15761" rx="1.0788" fill="#BCBEC2"/>
<rect x="432.951" y="199.394" width="7.01222" height="2.15761" rx="1.0788" fill="#BCBEC2"/>
<rect x="446.98" y="199.395" width="7.01222" height="2.15761" rx="1.0788" fill="#BCBEC2"/>
<rect x="80" y="226.257" width="194.755" height="102.503" rx="9.58008" fill="#F1F3F5"/>
<path d="M134.442 250.862C134.442 247.007 136.23 243.309 139.413 240.583C142.596 237.857 146.913 236.325 151.414 236.325H165.775V316.838H151.414C146.913 316.838 142.596 315.306 139.413 312.58C136.23 309.854 134.442 306.156 134.442 302.301V250.862Z" fill="#6061E5"/>
<path d="M168.151 316.441H200.466C204.308 316.441 207.992 314.663 210.709 311.499C213.426 308.334 214.952 304.042 214.952 299.567V287.885H168.151V316.441Z" fill="#73D3CD"/>
<path d="M214.952 285.902V250.972C214.952 247.088 213.426 243.362 210.709 240.615C207.992 237.868 204.308 236.325 200.466 236.325H168.151V285.902H214.952Z" fill="#F2D1E2"/>
<rect x="295.256" y="226.257" width="191.338" height="102.503" rx="10.7641" fill="#F1F3F5"/>
<path d="M367.2 254.091H344.149V280.439H372.842L388.962 269.089V238.076L367.2 254.091Z" fill="#E4EBF8"/>
<path d="M403.139 238.5H391.753V252.781H402.741L434.115 246.042V229.674L403.139 238.5Z" fill="#E4EBF8"/>
<path d="M405.712 303.895H394.208V316.861H405.309L434.119 324.551V311.585L405.712 303.895Z" fill="#E4EBF8"/>
<path d="M414.026 252.781H392.812V267.135H415.621L434.124 267.135V252.781L414.026 252.781Z" fill="#E4EBF8"/>
<path d="M414.895 290.242H393.501V304.246H416.504L435.163 304.246V290.242L414.895 290.242Z" fill="#E4EBF8"/>
<path d="M371.709 280.439H347.994V302.617H371.709L392.107 317.2V290.346L371.709 280.439Z" fill="#E4EBF8"/>
<rect x="350.449" y="253.831" width="48.6642" height="7.35214" rx="3.50102" transform="rotate(90 350.449 253.831)" fill="#6061E5"/>
<path d="M391.749 290.242C393.683 290.242 395.25 291.809 395.25 293.743L395.25 313.699C395.25 315.632 393.683 317.2 391.749 317.2L391.399 317.2C389.465 317.2 387.898 315.632 387.898 313.699L387.898 293.743C387.898 291.809 389.465 290.242 391.399 290.242L391.749 290.242Z" fill="#6061E5"/>
<rect x="395.25" y="238.426" width="30.809" height="7.35214" rx="3.50102" transform="rotate(90 395.25 238.426)" fill="#6061E5"/>
<rect x="439.02" y="229.674" width="16.1047" height="7.35214" rx="3.50102" transform="rotate(90 439.02 229.674)" fill="#6061E5"/>
<rect x="439.02" y="253.132" width="14.0041" height="7.35214" rx="3.50102" transform="rotate(90 439.02 253.132)" fill="#6061E5"/>
<rect x="438.667" y="290.242" width="14.0041" height="7.70224" rx="3.50102" transform="rotate(90 438.667 290.242)" fill="#6061E5"/>
<rect x="438.667" y="311.249" width="13.3039" height="7.70224" rx="3.50102" transform="rotate(90 438.667 311.249)" fill="#6061E5"/>
<rect width="566" height="33" fill="#565656"/>
<circle cx="22.1645" cy="16.4179" r="6.15672" fill="white"/>
<circle cx="46.7905" cy="16.4179" r="6.15672" fill="white"/>
<circle cx="71.4184" cy="16.4179" r="6.15672" fill="white"/>
</svg>
