<svg width="98" height="97" viewBox="0 0 98 97" fill="none" xmlns="http://www.w3.org/2000/svg">
<rect width="97" height="97" transform="translate(0.5)" fill="white" fill-opacity="0.01" style="mix-blend-mode:multiply"/>
<rect x="24.75" y="24.25" width="48.5" height="48.5" fill="white"/>
<rect width="97" height="97" transform="translate(0.5)" fill="white" fill-opacity="0.01" style="mix-blend-mode:multiply"/>
<path d="M49 6.0625C40.6067 6.0625 32.4018 8.55142 25.423 13.2145C18.4442 17.8776 13.0049 24.5054 9.79288 32.2599C6.58089 40.0143 5.74048 48.5471 7.37794 56.7791C9.0154 65.0112 13.0572 72.5729 18.9922 78.5078C24.9272 84.4428 32.4888 88.4846 40.7209 90.1221C48.9529 91.7595 57.4857 90.9191 65.2401 87.7071C72.9946 84.4951 79.6224 79.0558 84.2855 72.077C88.9486 65.0982 91.4375 56.8933 91.4375 48.5C91.4375 37.2449 86.9664 26.4507 79.0079 18.4922C71.0493 10.5336 60.2551 6.0625 49 6.0625ZM42.9375 65.4471L27.7813 50.2909L32.6028 45.4688L42.9375 55.8029L65.3991 33.3438L70.236 38.151L42.9375 65.4471Z" fill="#6061E5"/>
</svg>
