<svg width="25" height="24" viewBox="0 0 25 24" fill="none" xmlns="http://www.w3.org/2000/svg">
<rect x="3" y="2.5" width="19" height="19" rx="2" fill="#4467AD"/>
<path d="M13.2345 10.7039C13.3907 10.528 13.5188 10.3506 13.6792 10.2C14.1718 9.73559 14.7545 9.50196 15.4357 9.50759C15.81 9.51041 16.1788 9.53715 16.5391 9.6413C17.3638 9.87915 17.8423 10.4477 18.0717 11.2528C18.2434 11.8566 18.2744 12.4772 18.2758 13.0993C18.2786 14.411 18.2716 15.7241 18.2758 17.0358C18.2758 17.1583 18.242 17.1906 18.121 17.1906C17.4454 17.185 16.7685 17.185 16.0929 17.1906C15.9733 17.1906 15.948 17.1554 15.948 17.0429C15.9522 15.7945 15.9522 14.5461 15.948 13.2963C15.948 12.9839 15.9268 12.67 15.8396 12.366C15.6777 11.8059 15.2766 11.5202 14.6897 11.5511C13.8875 11.5934 13.4709 11.9903 13.3696 12.8051C13.3457 12.9994 13.333 13.195 13.3344 13.3906C13.3344 14.6052 13.3344 15.8198 13.3372 17.0344C13.3372 17.1554 13.3077 17.1906 13.1838 17.1906C12.5026 17.185 11.8214 17.185 11.1403 17.1906C11.0305 17.1906 10.9995 17.1625 10.9995 17.0513C11.0023 14.6474 11.0023 12.2422 10.9995 9.83833C10.9995 9.7187 11.0389 9.69196 11.1515 9.69196C11.7975 9.69618 12.4449 9.69759 13.0909 9.69196C13.2105 9.69196 13.2401 9.72996 13.2387 9.84255C13.2317 10.1297 13.2359 10.4168 13.2359 10.7053L13.2345 10.7039Z" fill="white"/>
<path d="M9.53069 13.4505C9.53069 14.6398 9.52928 15.8291 9.5335 17.0183C9.5335 17.1506 9.50113 17.19 9.36462 17.1886C8.68906 17.1816 8.0135 17.183 7.33654 17.1886C7.22817 17.1886 7.1958 17.1619 7.1958 17.0507C7.19862 14.6426 7.19862 12.2345 7.1958 9.82505C7.1958 9.72513 7.21973 9.68994 7.32528 9.68994C8.01069 9.69416 8.6961 9.69557 9.3815 9.68994C9.5138 9.68994 9.53069 9.7392 9.53069 9.8532C9.52788 11.0523 9.52928 12.2514 9.52928 13.4505H9.53069Z" fill="white"/>
<path d="M9.71791 7.30452C9.71791 8.05186 9.11273 8.65986 8.3668 8.65986C7.63073 8.65986 7.01991 8.05186 7.0171 7.31578C7.01428 6.57267 7.6251 5.96045 8.36962 5.96045C9.10851 5.96045 9.71651 6.56704 9.71791 7.30312V7.30452Z" fill="white"/>
</svg>
