<svg xmlns="http://www.w3.org/2000/svg" width="27" height="27" viewBox="0 0 27 27" fill="none">
  <g filter="url(#filter0_d_25052_1396)">
    <path d="M8.21095 15.4827L7.54957 17.9517L5.13221 18.0028C4.40978 16.6629 4 15.1298 4 13.5007C4 11.9253 4.38313 10.4396 5.06226 9.13153L7.2149 9.52609L8.15766 11.6653C7.96035 12.2406 7.8528 12.8581 7.8528 13.5007C7.85287 14.198 7.9792 14.8662 8.21095 15.4827Z" fill="#FBBB00"/>
    <path d="M22.8345 11.7257C22.9436 12.3004 23.0005 12.8939 23.0005 13.5005C23.0005 14.1807 22.929 14.8441 22.7927 15.4841C22.3303 17.6619 21.1218 19.5635 19.4478 20.9092L19.4473 20.9087L16.7366 20.7704L16.3529 18.3754C17.4637 17.724 18.3318 16.7045 18.7891 15.4841H13.709V11.7257H18.8632H22.8345Z" fill="#518EF8"/>
    <path d="M19.4481 20.9084L19.4486 20.909C17.8205 22.2176 15.7523 23.0006 13.5009 23.0006C9.88299 23.0006 6.73744 20.9784 5.13281 18.0025L8.21156 15.4823C9.01385 17.6235 11.0794 19.1478 13.5009 19.1478C14.5418 19.1478 15.5169 18.8664 16.3536 18.3752L19.4481 20.9084Z" fill="#28B446"/>
    <path d="M19.5637 6.18716L16.4859 8.70683C15.62 8.16553 14.5963 7.85284 13.4996 7.85284C11.0233 7.85284 8.91907 9.447 8.15697 11.665L5.06204 9.13123H5.06152C6.64266 6.08277 9.82788 4 13.4996 4C15.8047 4 17.9183 4.82111 19.5637 6.18716Z" fill="#F14336"/>
  </g>
  <defs>
    <filter id="filter0_d_25052_1396" x="-3" y="-3" width="32" height="32" filterUnits="userSpaceOnUse" color-interpolation-filters="sRGB">
      <feFlood flood-opacity="0" result="BackgroundImageFix"/>
      <feColorMatrix in="SourceAlpha" type="matrix" values="0 0 0 0 0 0 0 0 0 0 0 0 0 0 0 0 0 0 127 0" result="hardAlpha"/>
      <feOffset/>
      <feGaussianBlur stdDeviation="2"/>
      <feColorMatrix type="matrix" values="0 0 0 0 0.56245 0 0 0 0 0.56245 0 0 0 0 0.56245 0 0 0 1 0"/>
      <feBlend mode="multiply" in2="BackgroundImageFix" result="effect1_dropShadow_25052_1396"/>
      <feBlend mode="normal" in="SourceGraphic" in2="effect1_dropShadow_25052_1396" result="shape"/>
    </filter>
  </defs>
</svg>