<svg width="27" height="28" viewBox="0 0 27 28" fill="none" xmlns="http://www.w3.org/2000/svg">
<g filter="url(#filter0_d_25052_1403)">
<rect x="4" y="4.5" width="19" height="19" rx="2" fill="#4467AD"/>
<path d="M14.235 12.7039C14.3912 12.528 14.5193 12.3506 14.6797 12.2C15.1723 11.7356 15.755 11.502 16.4361 11.5076C16.8105 11.5104 17.1793 11.5371 17.5396 11.6413C18.3643 11.8791 18.8428 12.4477 19.0722 13.2528C19.2439 13.8566 19.2749 14.4772 19.2763 15.0993C19.2791 16.411 19.2721 17.7241 19.2763 19.0358C19.2763 19.1583 19.2425 19.1906 19.1215 19.1906C18.4459 19.185 17.769 19.185 17.0934 19.1906C16.9738 19.1906 16.9484 19.1554 16.9484 19.0429C16.9527 17.7945 16.9527 16.5461 16.9484 15.2963C16.9484 14.9839 16.9273 14.67 16.8401 14.366C16.6782 13.8059 16.2771 13.5202 15.6902 13.5511C14.888 13.5934 14.4714 13.9903 14.3701 14.8051C14.3461 14.9994 14.3335 15.195 14.3349 15.3906C14.3349 16.6052 14.3349 17.8198 14.3377 19.0344C14.3377 19.1554 14.3081 19.1906 14.1843 19.1906C13.5031 19.185 12.8219 19.185 12.1407 19.1906C12.031 19.1906 12 19.1625 12 19.0513C12.0028 16.6474 12.0028 14.2422 12 11.8383C12 11.7187 12.0394 11.692 12.152 11.692C12.798 11.6962 13.4454 11.6976 14.0914 11.692C14.211 11.692 14.2406 11.73 14.2392 11.8426C14.2321 12.1297 14.2364 12.4168 14.2364 12.7053L14.235 12.7039Z" fill="white"/>
<path d="M10.5312 15.4505C10.5312 16.6398 10.5298 17.8291 10.534 19.0183C10.534 19.1506 10.5016 19.19 10.3651 19.1886C9.68955 19.1816 9.01399 19.183 8.33703 19.1886C8.22866 19.1886 8.19629 19.1619 8.19629 19.0507C8.1991 16.6426 8.1991 14.2345 8.19629 11.8251C8.19629 11.7251 8.22022 11.6899 8.32577 11.6899C9.01118 11.6942 9.69659 11.6956 10.382 11.6899C10.5143 11.6899 10.5312 11.7392 10.5312 11.8532C10.5284 13.0523 10.5298 14.2514 10.5298 15.4505H10.5312Z" fill="white"/>
<path d="M10.7184 9.30452C10.7184 10.0519 10.1132 10.6599 9.36729 10.6599C8.63122 10.6599 8.0204 10.0519 8.01759 9.31578C8.01477 8.57267 8.62559 7.96045 9.37011 7.96045C10.109 7.96045 10.717 8.56704 10.7184 9.30312V9.30452Z" fill="white"/>
</g>
<defs>
<filter id="filter0_d_25052_1403" x="-2.5" y="-2" width="32" height="32" filterUnits="userSpaceOnUse" color-interpolation-filters="sRGB">
<feFlood flood-opacity="0" result="BackgroundImageFix"/>
<feColorMatrix in="SourceAlpha" type="matrix" values="0 0 0 0 0 0 0 0 0 0 0 0 0 0 0 0 0 0 127 0" result="hardAlpha"/>
<feOffset/>
<feGaussianBlur stdDeviation="2"/>
<feColorMatrix type="matrix" values="0 0 0 0 0.56245 0 0 0 0 0.56245 0 0 0 0 0.56245 0 0 0 1 0"/>
<feBlend mode="multiply" in2="BackgroundImageFix" result="effect1_dropShadow_25052_1403"/>
<feBlend mode="normal" in="SourceGraphic" in2="effect1_dropShadow_25052_1403" result="shape"/>
</filter>
</defs>
</svg>
