<svg width="89" height="85" viewBox="0 0 89 85" fill="none" xmlns="http://www.w3.org/2000/svg">
<g filter="url(#filter0_d_17279_11381)">
<g filter="url(#filter1_d_17279_11381)">
<circle cx="44.5" cy="32.2939" r="20" fill="url(#paint0_linear_17279_11381)"/>
</g>
<path fill-rule="evenodd" clip-rule="evenodd" d="M48.0236 23.5762H40.9762C38.1121 23.5762 35.782 25.9063 35.782 28.7704V35.8178C35.782 38.6819 38.1121 41.0121 40.9762 41.0121H48.0236C50.8878 41.0121 53.2179 38.6819 53.2179 35.8178V28.7704C53.2178 25.9063 50.8877 23.5762 48.0236 23.5762ZM51.4639 35.8178C51.4639 37.7178 49.9237 39.258 48.0237 39.258H40.9763C39.0764 39.258 37.5361 37.7178 37.5361 35.8178V28.7704C37.5361 26.8704 39.0764 25.3302 40.9763 25.3302H48.0237C49.9237 25.3302 51.4639 26.8704 51.4639 28.7704V35.8178ZM39.9904 32.2941C39.9904 29.8076 42.0134 27.7846 44.5 27.7846C46.9865 27.7846 49.0095 29.8075 49.0095 32.2941C49.0095 34.7807 46.9865 36.8037 44.5 36.8037C42.0134 36.8037 39.9904 34.7806 39.9904 32.2941ZM44.5 35.0496C42.9781 35.0496 41.7445 33.8159 41.7445 32.2941C41.7445 30.7723 42.9782 29.5386 44.5 29.5386C46.0218 29.5386 47.2555 30.7723 47.2555 32.2941C47.2555 33.8159 46.0218 35.0496 44.5 35.0496ZM49.0183 28.899C49.6151 28.899 50.0989 28.4152 50.0989 27.8184C50.0989 27.2217 49.6151 26.7379 49.0183 26.7379C48.4215 26.7379 47.9378 27.2217 47.9378 27.8184C47.9378 28.4152 48.4215 28.899 49.0183 28.899Z" fill="white"/>
</g>
<defs>
<filter id="filter0_d_17279_11381" x="0.5" y="0.293945" width="88" height="88" filterUnits="userSpaceOnUse" color-interpolation-filters="sRGB">
<feFlood flood-opacity="0" result="BackgroundImageFix"/>
<feColorMatrix in="SourceAlpha" type="matrix" values="0 0 0 0 0 0 0 0 0 0 0 0 0 0 0 0 0 0 127 0" result="hardAlpha"/>
<feOffset dy="12"/>
<feGaussianBlur stdDeviation="12"/>
<feColorMatrix type="matrix" values="0 0 0 0 0 0 0 0 0 0 0 0 0 0 0 0 0 0 0.1 0"/>
<feBlend mode="normal" in2="BackgroundImageFix" result="effect1_dropShadow_17279_11381"/>
<feBlend mode="normal" in="SourceGraphic" in2="effect1_dropShadow_17279_11381" result="shape"/>
</filter>
<filter id="filter1_d_17279_11381" x="16.5" y="8.29395" width="56" height="56" filterUnits="userSpaceOnUse" color-interpolation-filters="sRGB">
<feFlood flood-opacity="0" result="BackgroundImageFix"/>
<feColorMatrix in="SourceAlpha" type="matrix" values="0 0 0 0 0 0 0 0 0 0 0 0 0 0 0 0 0 0 127 0" result="hardAlpha"/>
<feOffset dy="4"/>
<feGaussianBlur stdDeviation="4"/>
<feColorMatrix type="matrix" values="0 0 0 0 0 0 0 0 0 0 0 0 0 0 0 0 0 0 0.1 0"/>
<feBlend mode="normal" in2="BackgroundImageFix" result="effect1_dropShadow_17279_11381"/>
<feBlend mode="normal" in="SourceGraphic" in2="effect1_dropShadow_17279_11381" result="shape"/>
</filter>
<linearGradient id="paint0_linear_17279_11381" x1="24.6336" y1="12.2271" x2="24.5" y2="52.2271" gradientUnits="userSpaceOnUse">
<stop stop-color="#7024C4"/>
<stop offset="0.415461" stop-color="#C21975"/>
<stop offset="0.702206" stop-color="#C74C4D"/>
<stop offset="1" stop-color="#E09B3D"/>
</linearGradient>
</defs>
</svg>
