<svg width="18" height="18" viewBox="0 0 18 18" fill="none" xmlns="http://www.w3.org/2000/svg">
<path fill-rule="evenodd" clip-rule="evenodd" d="M17.8333 17.3333H14.2719V11.2674C14.2719 9.60425 13.6399 8.67484 12.3236 8.67484C10.8915 8.67484 10.1434 9.64204 10.1434 11.2674V17.3333H6.71111V5.77778H10.1434V7.33431C10.1434 7.33431 11.1753 5.42474 13.6275 5.42474C16.0786 5.42474 17.8333 6.92149 17.8333 10.0171V17.3333ZM2.61645 4.26467C1.44735 4.26467 0.5 3.30989 0.5 2.13234C0.5 0.954786 1.44735 0 2.61645 0C3.78555 0 4.73234 0.954786 4.73234 2.13234C4.73234 3.30989 3.78555 4.26467 2.61645 4.26467ZM0.844184 17.3333H4.42313V5.77778H0.844184V17.3333Z" fill="white"/>
</svg>
