<svg width="24" height="25" viewBox="0 0 24 25" fill="none" xmlns="http://www.w3.org/2000/svg">
<mask id="mask0_847_29648" style="mask-type:alpha" maskUnits="userSpaceOnUse" x="0" y="0" width="24" height="25">
<rect y="0.799805" width="24" height="24" fill="#D9D9D9"/>
</mask>
<g mask="url(#mask0_847_29648)">
<path d="M9 13.2998H10V11.2998H11C11.2833 11.2998 11.5208 11.204 11.7125 11.0123C11.9042 10.8206 12 10.5831 12 10.2998V9.2998C12 9.01647 11.9042 8.77897 11.7125 8.5873C11.5208 8.39564 11.2833 8.2998 11 8.2998H9V13.2998ZM10 10.2998V9.2998H11V10.2998H10ZM13 13.2998H15C15.2833 13.2998 15.5208 13.204 15.7125 13.0123C15.9042 12.8206 16 12.5831 16 12.2998V9.2998C16 9.01647 15.9042 8.77897 15.7125 8.5873C15.5208 8.39564 15.2833 8.2998 15 8.2998H13V13.2998ZM14 12.2998V9.2998H15V12.2998H14ZM17 13.2998H18V11.2998H19V10.2998H18V9.2998H19V8.2998H17V13.2998ZM8 18.7998C7.45 18.7998 6.97917 18.604 6.5875 18.2123C6.19583 17.8206 6 17.3498 6 16.7998V4.7998C6 4.2498 6.19583 3.77897 6.5875 3.3873C6.97917 2.99564 7.45 2.7998 8 2.7998H20C20.55 2.7998 21.0208 2.99564 21.4125 3.3873C21.8042 3.77897 22 4.2498 22 4.7998V16.7998C22 17.3498 21.8042 17.8206 21.4125 18.2123C21.0208 18.604 20.55 18.7998 20 18.7998H8ZM8 16.7998H20V4.7998H8V16.7998ZM4 22.7998C3.45 22.7998 2.97917 22.604 2.5875 22.2123C2.19583 21.8206 2 21.3498 2 20.7998V6.7998H4V20.7998H18V22.7998H4Z" fill="#1C1B1F"/>
</g>
</svg>
