<svg width="24" height="25" viewBox="0 0 24 25" fill="none" xmlns="http://www.w3.org/2000/svg">
<mask id="mask0_847_29655" style="mask-type:alpha" maskUnits="userSpaceOnUse" x="0" y="0" width="24" height="25">
<rect y="0.799805" width="24" height="24" fill="#D9D9D9"/>
</mask>
<g mask="url(#mask0_847_29655)">
<path d="M5 21.7998C4.45 21.7998 3.97917 21.604 3.5875 21.2123C3.19583 20.8206 3 20.3498 3 19.7998V5.7998C3 5.2498 3.19583 4.77897 3.5875 4.3873C3.97917 3.99564 4.45 3.7998 5 3.7998H19C19.55 3.7998 20.0208 3.99564 20.4125 4.3873C20.8042 4.77897 21 5.2498 21 5.7998V19.7998C21 20.3498 20.8042 20.8206 20.4125 21.2123C20.0208 21.604 19.55 21.7998 19 21.7998H5ZM5 19.7998H19V5.7998H5V19.7998ZM6 17.7998H18L14.25 12.7998L11.25 16.7998L9 13.7998L6 17.7998Z" fill="#1C1B1F"/>
</g>
</svg>
