<svg width="24" height="25" viewBox="0 0 24 25" fill="none" xmlns="http://www.w3.org/2000/svg">
<mask id="mask0_1264_1070" style="mask-type:alpha" maskUnits="userSpaceOnUse" x="0" y="0" width="24" height="25">
<rect y="0.799316" width="24" height="24" fill="#D9D9D9"/>
</mask>
<g mask="url(#mask0_1264_1070)">
<path d="M1 23.7993V17.7993H3V7.79932H1V1.79932H7V3.79932H17V1.79932H23V7.79932H21V17.7993H23V23.7993H17V21.7993H7V23.7993H1ZM7 19.7993H17V17.7993H19V7.79932H17V5.79932H7V7.79932H5V17.7993H7V19.7993ZM7.8 16.7993L11.2 7.79932H12.8L16.2 16.7993H14.65L13.85 14.4993H10.2L9.4 16.7993H7.8ZM10.65 13.1993H13.35L12.05 9.44932H11.95L10.65 13.1993ZM3 5.79932H5V3.79932H3V5.79932ZM19 5.79932H21V3.79932H19V5.79932ZM19 21.7993H21V19.7993H19V21.7993ZM3 21.7993H5V19.7993H3V21.7993Z" fill="#1C1B1F"/>
</g>
</svg>
