<svg xmlns="http://www.w3.org/2000/svg" width="16" height="16" viewBox="0 0 16 16" fill="none">
  <path d="M8 0C3.58214 0 0 3.58214 0 8C0 12.4179 3.58214 16 8 16C12.4179 16 16 12.4179 16 8C16 3.58214 12.4179 0 8 0ZM8 14.6429C4.33214 14.6429 1.35714 11.6679 1.35714 8C1.35714 4.33214 4.33214 1.35714 8 1.35714C11.6679 1.35714 14.6429 4.33214 14.6429 8C14.6429 11.6679 11.6679 14.6429 8 14.6429ZM8.1 5.13036C9.04643 5.13036 9.68929 5.73393 9.76071 6.61964C9.76607 6.69464 9.82857 6.75179 9.90357 6.75179H10.9161C10.9625 6.75179 11 6.71429 11 6.66786C11 5.11964 9.77857 4.03571 8.09464 4.03571C6.13214 4.03571 5 5.36071 5 7.55V8.48393C5 10.6571 6.13214 11.9643 8.09464 11.9643C9.77321 11.9643 11 10.9143 11 9.43929C11 9.39286 10.9625 9.35536 10.9161 9.35536H9.90179C9.82679 9.35536 9.76607 9.4125 9.75893 9.48571C9.68393 10.3089 9.04286 10.875 8.09822 10.875C6.93214 10.875 6.275 10.0196 6.275 8.48929V7.55C6.27679 5.99643 6.93571 5.13036 8.1 5.13036Z" fill="black"/>
</svg>