<svg width="24" height="25" viewBox="0 0 24 25" fill="none" xmlns="http://www.w3.org/2000/svg">
<g clip-path="url(#clip0_18134_17210)">
<path d="M11 7.90137H13V9.90137H11V7.90137ZM11 11.9014H13V17.9014H11V11.9014ZM12 2.90137C6.48 2.90137 2 7.38137 2 12.9014C2 18.4214 6.48 22.9014 12 22.9014C17.52 22.9014 22 18.4214 22 12.9014C22 7.38137 17.52 2.90137 12 2.90137ZM12 20.9014C7.59 20.9014 4 17.3114 4 12.9014C4 8.49137 7.59 4.90137 12 4.90137C16.41 4.90137 20 8.49137 20 12.9014C20 17.3114 16.41 20.9014 12 20.9014Z" fill="#231D2C"/>
</g>
<defs>
<clipPath id="clip0_18134_17210">
<rect width="24" height="24" fill="white" transform="translate(0 0.901367)"/>
</clipPath>
</defs>
</svg>
