<svg width="15" height="15" viewBox="0 0 15 15" fill="none" xmlns="http://www.w3.org/2000/svg">
<path d="M6.83301 10.8335H8.16634V6.8335H6.83301V10.8335ZM7.49967 5.50016C7.68856 5.50016 7.84701 5.43616 7.97501 5.30816C8.10301 5.18016 8.16679 5.02194 8.16634 4.8335C8.16634 4.64461 8.10234 4.48616 7.97434 4.35816C7.84634 4.23016 7.68812 4.16639 7.49967 4.16683C7.31079 4.16683 7.15234 4.23083 7.02434 4.35883C6.89634 4.48683 6.83256 4.64505 6.83301 4.8335C6.83301 5.02239 6.89701 5.18083 7.02501 5.30883C7.15301 5.43683 7.31123 5.50061 7.49967 5.50016ZM7.49967 14.1668C6.57745 14.1668 5.71079 13.9917 4.89967 13.6415C4.08856 13.2913 3.38301 12.8164 2.78301 12.2168C2.18301 11.6168 1.70812 10.9113 1.35834 10.1002C1.00856 9.28905 0.833452 8.42239 0.833008 7.50016C0.833008 6.57794 1.00812 5.71127 1.35834 4.90016C1.70856 4.08905 2.18345 3.3835 2.78301 2.7835C3.38301 2.1835 4.08856 1.70861 4.89967 1.35883C5.71079 1.00905 6.57745 0.833941 7.49967 0.833496C8.4219 0.833496 9.28856 1.00861 10.0997 1.35883C10.9108 1.70905 11.6163 2.18394 12.2163 2.7835C12.8163 3.3835 13.2915 4.08905 13.6417 4.90016C13.9919 5.71127 14.1668 6.57794 14.1663 7.50016C14.1663 8.42239 13.9912 9.28905 13.641 10.1002C13.2908 10.9113 12.8159 11.6168 12.2163 12.2168C11.6163 12.8168 10.9108 13.2919 10.0997 13.6422C9.28856 13.9924 8.4219 14.1673 7.49967 14.1668ZM7.49967 12.8335C8.98856 12.8335 10.2497 12.3168 11.283 11.2835C12.3163 10.2502 12.833 8.98905 12.833 7.50016C12.833 6.01127 12.3163 4.75016 11.283 3.71683C10.2497 2.6835 8.98856 2.16683 7.49967 2.16683C6.01079 2.16683 4.74967 2.6835 3.71634 3.71683C2.68301 4.75016 2.16634 6.01127 2.16634 7.50016C2.16634 8.98905 2.68301 10.2502 3.71634 11.2835C4.74967 12.3168 6.01079 12.8335 7.49967 12.8335Z" fill="#231D2C"/>
</svg>
