<svg width="12" height="12" viewBox="0 0 12 12" fill="none" xmlns="http://www.w3.org/2000/svg">
<path d="M6 12C4.46667 12 3.13056 11.4917 1.99167 10.475C0.852778 9.45833 0.2 8.18889 0.0333333 6.66667H1.4C1.55556 7.82222 2.06944 8.77778 2.94167 9.53333C3.81389 10.2889 4.83333 10.6667 6 10.6667C7.3 10.6667 8.40278 10.2139 9.30833 9.30833C10.2139 8.40278 10.6667 7.3 10.6667 6C10.6667 4.7 10.2139 3.59722 9.30833 2.69167C8.40278 1.78611 7.3 1.33333 6 1.33333C5.23333 1.33333 4.51667 1.51111 3.85 1.86667C3.18333 2.22222 2.62222 2.71111 2.16667 3.33333H4V4.66667H0V0.666667H1.33333V2.23333C1.9 1.52222 2.59167 0.972222 3.40833 0.583333C4.225 0.194444 5.08889 0 6 0C6.83333 0 7.61389 0.158333 8.34167 0.475C9.06944 0.791667 9.70278 1.21944 10.2417 1.75833C10.7806 2.29722 11.2083 2.93056 11.525 3.65833C11.8417 4.38611 12 5.16667 12 6C12 6.83333 11.8417 7.61389 11.525 8.34167C11.2083 9.06944 10.7806 9.70278 10.2417 10.2417C9.70278 10.7806 9.06944 11.2083 8.34167 11.525C7.61389 11.8417 6.83333 12 6 12Z" fill="#231D2C"/>
</svg>
