<svg width="490" height="46" viewBox="0 0 490 46" fill="none" xmlns="http://www.w3.org/2000/svg">
<path d="M23.4365 45.1674C19.6093 45.1689 15.9111 43.7834 13.0271 41.2674C12.9425 41.2028 12.877 41.1166 12.8375 41.0178C12.7979 40.919 12.7859 40.8113 12.8027 40.7062C12.7813 40.6425 12.7813 40.5735 12.8027 40.5098C12.8431 40.4451 12.8963 40.3894 12.959 40.346C13.0217 40.3026 13.0926 40.2724 13.1674 40.2573C13.2666 40.2182 13.3769 40.2182 13.476 40.2573C15.3448 41.4792 17.5282 42.1322 19.761 42.1372C22.6933 42.1472 25.5132 41.0092 27.6171 38.9666C29.25 37.3724 30.3664 35.3245 30.8217 33.0882C31.2769 30.852 31.05 28.5306 30.1704 26.4249L29.8898 25.8356C29.4818 24.9241 29.409 23.8977 29.6842 22.9377C29.9593 21.9777 30.5648 21.1457 31.3937 20.5886C32.2226 20.0316 33.2216 19.7852 34.2144 19.8931C35.2073 20.0009 36.1301 20.456 36.82 21.1781C37.2056 21.6111 37.5183 22.1039 37.7459 22.6371C38.8449 25.0574 39.3187 27.7149 39.124 30.3659C38.9293 33.0169 38.0723 35.5766 36.6315 37.8104C35.1907 40.0442 33.2122 41.8806 30.8775 43.1512C28.5427 44.4219 25.9263 45.0862 23.2682 45.0832L23.4365 45.1674Z" fill="#3154F4"/>
<path d="M15.7204 31.1386H15.075C11.4674 30.7776 8.09121 29.1952 5.50574 26.6534C2.92027 24.1116 1.2806 20.7629 0.858306 17.1619C0.436007 13.5609 1.25641 9.92364 3.18365 6.85259C5.11088 3.78155 8.02932 1.46095 11.4556 0.275126H11.7081C11.7995 0.246996 11.8973 0.246996 11.9887 0.275126C11.9887 0.275126 11.9887 0.275125 12.129 0.443472C12.1853 0.587809 12.1853 0.748057 12.129 0.892394C12.1068 0.957535 12.07 1.01672 12.0214 1.06537C11.9727 1.11401 11.9135 1.15083 11.8484 1.17297C9.5104 2.15796 7.57511 3.90604 6.35814 6.13212C5.14118 8.35819 4.71434 10.9309 5.14725 13.4307C5.58016 15.9305 6.84727 18.2099 8.74193 19.8971C10.6366 21.5843 13.047 22.5798 15.5801 22.7213H16.2254C17.2439 22.8046 18.1987 23.251 18.9158 23.979C19.633 24.7071 20.0648 25.6685 20.1328 26.6881C20.2008 27.7078 19.9003 28.718 19.2862 29.5348C18.672 30.3516 17.785 30.9207 16.7866 31.1386C16.4319 31.1702 16.0751 31.1702 15.7204 31.1386Z" fill="#EA1541"/>
<path d="M47.2004 19.9154C47.049 19.903 46.9083 19.8326 46.8075 19.719C46.7813 19.6568 46.7678 19.59 46.7678 19.5226C46.7678 19.4551 46.7813 19.3883 46.8075 19.3262C47.0344 16.8696 46.4456 14.4067 45.132 12.3184C43.8185 10.2301 41.8534 8.63283 39.5409 7.77359C37.2283 6.91436 34.697 6.84106 32.3386 7.56502C29.9802 8.28899 27.926 9.76988 26.4938 11.7786L26.0168 12.3398C25.6345 12.8834 25.1256 13.3258 24.5342 13.6289C23.9427 13.9319 23.2864 14.0866 22.6218 14.0794C22.2137 14.0805 21.8075 14.0238 21.4153 13.911C20.3563 13.5744 19.4704 12.8377 18.9464 11.8577C18.4223 10.8778 18.3015 9.73196 18.6096 8.66424C18.7927 8.1221 19.0576 7.61115 19.3952 7.14912C20.8692 5.10298 22.8077 3.43585 25.0514 2.28473C27.2951 1.1336 29.78 0.531367 32.3017 0.527507C33.7827 0.524086 35.2565 0.731935 36.6787 1.14478C40.4882 2.25418 43.748 4.74237 45.8229 8.12435C47.8977 11.5063 48.6388 15.5397 47.9018 19.4384C47.882 19.5407 47.8388 19.637 47.7755 19.7198C47.7122 19.8026 47.6306 19.8695 47.537 19.9154H47.3126H47.2004Z" fill="#F5DC31"/>
<path d="M76.0731 15.1454H67.0386V8.13098H93.6653V15.1454H84.6027V37.0865H76.0731V15.1454Z" fill="#252C34"/>
<path d="M98.2651 8.13098H106.795V18.821H116.699V8.13098H125.229V37.0865H116.699V25.4706H106.795V37.0865H98.2651V8.13098Z" fill="#252C34"/>
<path d="M130.617 8.13098H152.895V14.8648H138.866V19.6907H152.109V25.2462H138.866V30.3807H153.287V37.0865H130.617V8.13098Z" fill="#252C34"/>
<path d="M167.988 22.7211C167.988 13.7707 174.834 7.71021 184.262 7.71021C191.08 7.71021 196.888 11.5261 198.291 16.8851L190.462 18.3721C189.917 17.204 189.036 16.225 187.931 15.5602C186.827 14.8955 185.549 14.5753 184.262 14.6405C183.21 14.619 182.165 14.8159 181.194 15.2189C180.222 15.6218 179.344 16.222 178.617 16.9815C177.889 17.741 177.326 18.6432 176.965 19.6311C176.604 20.6191 176.452 21.6712 176.518 22.7211C176.468 23.7974 176.639 24.8725 177.022 25.8796C177.405 26.8867 177.991 27.8044 178.744 28.5754C179.496 29.3464 180.399 29.9544 181.397 30.3615C182.394 30.7687 183.465 30.9662 184.542 30.942C186.182 31.1054 187.822 30.6355 189.126 29.6287C190.43 28.6219 191.3 27.1543 191.557 25.5268H181.737V20.4484H199.722C200.788 30.7175 194.278 37.8161 184.346 37.8161C174.919 37.8161 168.072 31.5873 168.072 22.6088L167.988 22.7211Z" fill="#252C34"/>
<path d="M204.577 8.15906H213.107V29.8196H225.592V37.0865H204.577V8.15906Z" fill="#252C34"/>
<path d="M252.667 22.7211C252.73 21.6705 252.578 20.6182 252.22 19.6286C251.861 18.6391 251.304 17.7333 250.583 16.967C249.861 16.2008 248.991 15.5902 248.025 15.1728C247.059 14.7554 246.017 14.5401 244.965 14.5401C243.912 14.5401 242.871 14.7554 241.905 15.1728C240.939 15.5902 240.068 16.2008 239.347 16.967C238.625 17.7333 238.068 18.6391 237.71 19.6286C237.352 20.6182 237.2 21.6705 237.263 22.7211C237.2 23.7716 237.352 24.824 237.71 25.8135C238.068 26.8031 238.625 27.7088 239.347 28.4751C240.068 29.2414 240.939 29.852 241.905 30.2693C242.871 30.6867 243.912 30.902 244.965 30.902C246.017 30.902 247.059 30.6867 248.025 30.2693C248.991 29.852 249.861 29.2414 250.583 28.4751C251.304 27.7088 251.861 26.8031 252.22 25.8135C252.578 24.824 252.73 23.7716 252.667 22.7211ZM228.733 22.7211C228.733 13.5181 235.271 7.71021 244.979 7.71021C254.687 7.71021 261.196 13.4059 261.196 22.7211C261.196 32.0362 254.631 37.7039 244.867 37.7039C235.102 37.7039 228.733 31.8398 228.733 22.7211Z" fill="#252C34"/>
<path d="M279.518 30.9419C281.791 30.9419 283.474 29.7073 283.474 27.9678C283.474 26.2282 281.791 24.9937 279.518 24.9937H274.3V30.9419H279.518ZM278.957 19.7188C281.146 19.7188 282.661 18.5965 282.661 16.913C282.661 15.2296 281.146 14.1073 278.957 14.1073H274.3V19.5505L278.957 19.7188ZM265.77 8.13098H280.613C287.431 8.13098 291.471 11.2734 291.471 16.1274C291.495 17.4375 291.103 18.7215 290.352 19.7952C289.601 20.8689 288.529 21.677 287.29 22.1037V22.5246C288.759 22.9216 290.051 23.8022 290.957 25.0241C291.863 26.246 292.331 27.7378 292.285 29.2584C292.285 34.2246 288.132 37.0585 281.37 37.0585H265.77V8.15904V8.13098Z" fill="#252C34"/>
<path d="M313.75 26.621L310.44 15.3979H310.019L306.708 26.621H313.75ZM303.958 8.15906H316.5L325.535 37.0865H316.781L315.406 32.6815H305.024L303.79 37.0865H295.008L304.098 8.15906H303.958Z" fill="#252C34"/>
<path d="M330.388 8.15906H338.917V29.8196H351.403V37.0865H330.388V8.15906Z" fill="#252C34"/>
<path d="M367.451 8.13098H389.589V15.426H375.981V20.28H387.737V26.6491H375.981V37.0865H367.451V8.13098Z" fill="#252C34"/>
<path d="M395.005 25.1901V8.15906H403.422V24.9937C403.313 25.72 403.363 26.4612 403.567 27.1668C403.771 27.8723 404.125 28.5255 404.604 29.0819C405.083 29.6383 405.677 30.0847 406.345 30.3907C407.012 30.6967 407.738 30.8551 408.472 30.8551C409.207 30.8551 409.933 30.6967 410.6 30.3907C411.268 30.0847 411.862 29.6383 412.341 29.0819C412.82 28.5255 413.174 27.8723 413.378 27.1668C413.582 26.4612 413.631 25.72 413.523 24.9937V8.15906H421.94V25.1901C421.94 32.8498 416.329 37.7038 408.36 37.7038C400.392 37.7038 394.78 32.8498 394.78 25.1901H395.005Z" fill="#252C34"/>
<path d="M427.971 8.13098H437.118L446.601 26.0879H447.022V8.13098H454.962V37.0865H445.843L436.332 19.1857H435.939V37.0865H427.971V8.13098Z" fill="#252C34"/>
<path d="M472.667 30.6613C473.734 30.7345 474.804 30.5801 475.806 30.2085C476.809 29.8368 477.721 29.2564 478.483 28.5057C479.244 27.755 479.837 26.851 480.223 25.8537C480.608 24.8565 480.778 23.7887 480.72 22.721C480.79 21.6465 480.63 20.5694 480.25 19.5619C479.87 18.5544 479.279 17.6399 478.516 16.8798C477.753 16.1197 476.837 15.5316 475.828 15.1551C474.819 14.7785 473.741 14.6221 472.667 14.6965H469.132V30.7736L472.667 30.6613ZM460.883 8.21517H472.667C482.628 8.21517 489.249 13.9951 489.249 22.6649C489.249 31.3347 482.628 37.1427 472.667 37.1427H460.911V8.15906L460.883 8.21517Z" fill="#252C34"/>
</svg>
